<?xml version="1.0" encoding="utf-8"?>
<svg xmlns="http://www.w3.org/2000/svg" xmlns:xlink="http://www.w3.org/1999/xlink" width="450" height="450" viewBox="0 0 1800 1800">
<defs>
  <clipPath id="clip370">
    <rect x="0" y="0" width="1800" height="1800"/>
  </clipPath>
</defs>
<path clip-path="url(#clip370)" d="M0 1800 L1800 1800 L1800 0 L0 0  Z" fill="#ffffff" fill-rule="evenodd" fill-opacity="1"/>
<defs>
  <clipPath id="clip371">
    <rect x="360" y="180" width="1261" height="1261"/>
  </clipPath>
</defs>
<path clip-path="url(#clip370)" d="M166.015 1667.17 L1752.76 1667.17 L1752.76 153.712 L166.015 153.712  Z" fill="#ffffff" fill-rule="evenodd" fill-opacity="1"/>
<defs>
  <clipPath id="clip372">
    <rect x="166" y="153" width="1588" height="1514"/>
  </clipPath>
</defs>
<polyline clip-path="url(#clip372)" style="stroke:#000000; stroke-linecap:round; stroke-linejoin:round; stroke-width:2; stroke-opacity:0.1; fill:none" points="253.288,1667.17 253.288,153.712 "/>
<polyline clip-path="url(#clip372)" style="stroke:#000000; stroke-linecap:round; stroke-linejoin:round; stroke-width:2; stroke-opacity:0.1; fill:none" points="473.944,1667.17 473.944,153.712 "/>
<polyline clip-path="url(#clip372)" style="stroke:#000000; stroke-linecap:round; stroke-linejoin:round; stroke-width:2; stroke-opacity:0.1; fill:none" points="694.599,1667.17 694.599,153.712 "/>
<polyline clip-path="url(#clip372)" style="stroke:#000000; stroke-linecap:round; stroke-linejoin:round; stroke-width:2; stroke-opacity:0.1; fill:none" points="915.254,1667.17 915.254,153.712 "/>
<polyline clip-path="url(#clip372)" style="stroke:#000000; stroke-linecap:round; stroke-linejoin:round; stroke-width:2; stroke-opacity:0.1; fill:none" points="1135.91,1667.17 1135.91,153.712 "/>
<polyline clip-path="url(#clip372)" style="stroke:#000000; stroke-linecap:round; stroke-linejoin:round; stroke-width:2; stroke-opacity:0.1; fill:none" points="1356.56,1667.17 1356.56,153.712 "/>
<polyline clip-path="url(#clip372)" style="stroke:#000000; stroke-linecap:round; stroke-linejoin:round; stroke-width:2; stroke-opacity:0.1; fill:none" points="1577.22,1667.17 1577.22,153.712 "/>
<polyline clip-path="url(#clip370)" style="stroke:#000000; stroke-linecap:round; stroke-linejoin:round; stroke-width:4; stroke-opacity:1; fill:none" points="166.015,1667.17 1752.76,1667.17 "/>
<polyline clip-path="url(#clip370)" style="stroke:#000000; stroke-linecap:round; stroke-linejoin:round; stroke-width:4; stroke-opacity:1; fill:none" points="253.288,1667.17 253.288,1648.27 "/>
<polyline clip-path="url(#clip370)" style="stroke:#000000; stroke-linecap:round; stroke-linejoin:round; stroke-width:4; stroke-opacity:1; fill:none" points="473.944,1667.17 473.944,1648.27 "/>
<polyline clip-path="url(#clip370)" style="stroke:#000000; stroke-linecap:round; stroke-linejoin:round; stroke-width:4; stroke-opacity:1; fill:none" points="694.599,1667.17 694.599,1648.27 "/>
<polyline clip-path="url(#clip370)" style="stroke:#000000; stroke-linecap:round; stroke-linejoin:round; stroke-width:4; stroke-opacity:1; fill:none" points="915.254,1667.17 915.254,1648.27 "/>
<polyline clip-path="url(#clip370)" style="stroke:#000000; stroke-linecap:round; stroke-linejoin:round; stroke-width:4; stroke-opacity:1; fill:none" points="1135.91,1667.17 1135.91,1648.27 "/>
<polyline clip-path="url(#clip370)" style="stroke:#000000; stroke-linecap:round; stroke-linejoin:round; stroke-width:4; stroke-opacity:1; fill:none" points="1356.56,1667.17 1356.56,1648.27 "/>
<polyline clip-path="url(#clip370)" style="stroke:#000000; stroke-linecap:round; stroke-linejoin:round; stroke-width:4; stroke-opacity:1; fill:none" points="1577.22,1667.17 1577.22,1648.27 "/>
<path clip-path="url(#clip370)" d="M223.231 1707.94 L252.906 1707.94 L252.906 1711.87 L223.231 1711.87 L223.231 1707.94 Z" fill="#000000" fill-rule="nonzero" fill-opacity="1" /><path clip-path="url(#clip370)" d="M267.027 1720.83 L283.346 1720.83 L283.346 1724.77 L261.402 1724.77 L261.402 1720.83 Q264.064 1718.08 268.647 1713.45 Q273.254 1708.8 274.434 1707.45 Q276.679 1704.93 277.559 1703.19 Q278.462 1701.43 278.462 1699.74 Q278.462 1696.99 276.517 1695.25 Q274.596 1693.52 271.494 1693.52 Q269.295 1693.52 266.842 1694.28 Q264.411 1695.05 261.633 1696.6 L261.633 1691.87 Q264.457 1690.74 266.911 1690.16 Q269.365 1689.58 271.402 1689.58 Q276.772 1689.58 279.967 1692.27 Q283.161 1694.95 283.161 1699.44 Q283.161 1701.57 282.351 1703.49 Q281.564 1705.39 279.457 1707.99 Q278.879 1708.66 275.777 1711.87 Q272.675 1715.07 267.027 1720.83 Z" fill="#000000" fill-rule="nonzero" fill-opacity="1" /><path clip-path="url(#clip370)" d="M443.701 1707.94 L473.377 1707.94 L473.377 1711.87 L443.701 1711.87 L443.701 1707.94 Z" fill="#000000" fill-rule="nonzero" fill-opacity="1" /><path clip-path="url(#clip370)" d="M484.279 1720.83 L491.918 1720.83 L491.918 1694.47 L483.608 1696.13 L483.608 1691.87 L491.872 1690.21 L496.548 1690.21 L496.548 1720.83 L504.187 1720.83 L504.187 1724.77 L484.279 1724.77 L484.279 1720.83 Z" fill="#000000" fill-rule="nonzero" fill-opacity="1" /><path clip-path="url(#clip370)" d="M694.599 1693.29 Q690.988 1693.29 689.159 1696.85 Q687.354 1700.39 687.354 1707.52 Q687.354 1714.63 689.159 1718.19 Q690.988 1721.74 694.599 1721.74 Q698.233 1721.74 700.039 1718.19 Q701.867 1714.63 701.867 1707.52 Q701.867 1700.39 700.039 1696.85 Q698.233 1693.29 694.599 1693.29 M694.599 1689.58 Q700.409 1689.58 703.465 1694.19 Q706.543 1698.77 706.543 1707.52 Q706.543 1716.25 703.465 1720.86 Q700.409 1725.44 694.599 1725.44 Q688.789 1725.44 685.71 1720.86 Q682.655 1716.25 682.655 1707.52 Q682.655 1698.77 685.71 1694.19 Q688.789 1689.58 694.599 1689.58 Z" fill="#000000" fill-rule="nonzero" fill-opacity="1" /><path clip-path="url(#clip370)" d="M905.636 1720.83 L913.275 1720.83 L913.275 1694.47 L904.965 1696.13 L904.965 1691.87 L913.229 1690.21 L917.905 1690.21 L917.905 1720.83 L925.544 1720.83 L925.544 1724.77 L905.636 1724.77 L905.636 1720.83 Z" fill="#000000" fill-rule="nonzero" fill-opacity="1" /><path clip-path="url(#clip370)" d="M1130.56 1720.83 L1146.88 1720.83 L1146.88 1724.77 L1124.94 1724.77 L1124.94 1720.83 Q1127.6 1718.08 1132.18 1713.45 Q1136.79 1708.8 1137.97 1707.45 Q1140.22 1704.93 1141.09 1703.19 Q1142 1701.43 1142 1699.74 Q1142 1696.99 1140.05 1695.25 Q1138.13 1693.52 1135.03 1693.52 Q1132.83 1693.52 1130.38 1694.28 Q1127.95 1695.05 1125.17 1696.6 L1125.17 1691.87 Q1127.99 1690.74 1130.45 1690.16 Q1132.9 1689.58 1134.94 1689.58 Q1140.31 1689.58 1143.5 1692.27 Q1146.7 1694.95 1146.7 1699.44 Q1146.7 1701.57 1145.89 1703.49 Q1145.1 1705.39 1142.99 1707.99 Q1142.41 1708.66 1139.31 1711.87 Q1136.21 1715.07 1130.56 1720.83 Z" fill="#000000" fill-rule="nonzero" fill-opacity="1" /><path clip-path="url(#clip370)" d="M1360.81 1706.13 Q1364.17 1706.85 1366.04 1709.12 Q1367.94 1711.39 1367.94 1714.72 Q1367.94 1719.84 1364.42 1722.64 Q1360.91 1725.44 1354.42 1725.44 Q1352.25 1725.44 1349.93 1725 Q1347.64 1724.58 1345.19 1723.73 L1345.19 1719.21 Q1347.13 1720.35 1349.45 1720.93 Q1351.76 1721.5 1354.28 1721.5 Q1358.68 1721.5 1360.97 1719.77 Q1363.29 1718.03 1363.29 1714.72 Q1363.29 1711.67 1361.14 1709.95 Q1359.01 1708.22 1355.19 1708.22 L1351.16 1708.22 L1351.16 1704.37 L1355.37 1704.37 Q1358.82 1704.37 1360.65 1703.01 Q1362.48 1701.62 1362.48 1699.03 Q1362.48 1696.37 1360.58 1694.95 Q1358.71 1693.52 1355.19 1693.52 Q1353.27 1693.52 1351.07 1693.93 Q1348.87 1694.35 1346.23 1695.23 L1346.23 1691.06 Q1348.89 1690.32 1351.21 1689.95 Q1353.54 1689.58 1355.6 1689.58 Q1360.93 1689.58 1364.03 1692.01 Q1367.13 1694.42 1367.13 1698.54 Q1367.13 1701.41 1365.49 1703.4 Q1363.84 1705.37 1360.81 1706.13 Z" fill="#000000" fill-rule="nonzero" fill-opacity="1" /><path clip-path="url(#clip370)" d="M1580.23 1694.28 L1568.42 1712.73 L1580.23 1712.73 L1580.23 1694.28 M1579 1690.21 L1584.88 1690.21 L1584.88 1712.73 L1589.81 1712.73 L1589.81 1716.62 L1584.88 1716.62 L1584.88 1724.77 L1580.23 1724.77 L1580.23 1716.62 L1564.63 1716.62 L1564.63 1712.11 L1579 1690.21 Z" fill="#000000" fill-rule="nonzero" fill-opacity="1" /><polyline clip-path="url(#clip372)" style="stroke:#000000; stroke-linecap:round; stroke-linejoin:round; stroke-width:2; stroke-opacity:0.1; fill:none" points="166.015,1667.17 1752.76,1667.17 "/>
<polyline clip-path="url(#clip372)" style="stroke:#000000; stroke-linecap:round; stroke-linejoin:round; stroke-width:2; stroke-opacity:0.1; fill:none" points="166.015,1365.08 1752.76,1365.08 "/>
<polyline clip-path="url(#clip372)" style="stroke:#000000; stroke-linecap:round; stroke-linejoin:round; stroke-width:2; stroke-opacity:0.1; fill:none" points="166.015,1062.99 1752.76,1062.99 "/>
<polyline clip-path="url(#clip372)" style="stroke:#000000; stroke-linecap:round; stroke-linejoin:round; stroke-width:2; stroke-opacity:0.1; fill:none" points="166.015,760.907 1752.76,760.907 "/>
<polyline clip-path="url(#clip372)" style="stroke:#000000; stroke-linecap:round; stroke-linejoin:round; stroke-width:2; stroke-opacity:0.1; fill:none" points="166.015,458.82 1752.76,458.82 "/>
<polyline clip-path="url(#clip372)" style="stroke:#000000; stroke-linecap:round; stroke-linejoin:round; stroke-width:2; stroke-opacity:0.1; fill:none" points="166.015,156.733 1752.76,156.733 "/>
<polyline clip-path="url(#clip370)" style="stroke:#000000; stroke-linecap:round; stroke-linejoin:round; stroke-width:4; stroke-opacity:1; fill:none" points="166.015,1667.17 166.015,153.712 "/>
<polyline clip-path="url(#clip370)" style="stroke:#000000; stroke-linecap:round; stroke-linejoin:round; stroke-width:4; stroke-opacity:1; fill:none" points="166.015,1667.17 184.912,1667.17 "/>
<polyline clip-path="url(#clip370)" style="stroke:#000000; stroke-linecap:round; stroke-linejoin:round; stroke-width:4; stroke-opacity:1; fill:none" points="166.015,1365.08 184.912,1365.08 "/>
<polyline clip-path="url(#clip370)" style="stroke:#000000; stroke-linecap:round; stroke-linejoin:round; stroke-width:4; stroke-opacity:1; fill:none" points="166.015,1062.99 184.912,1062.99 "/>
<polyline clip-path="url(#clip370)" style="stroke:#000000; stroke-linecap:round; stroke-linejoin:round; stroke-width:4; stroke-opacity:1; fill:none" points="166.015,760.907 184.912,760.907 "/>
<polyline clip-path="url(#clip370)" style="stroke:#000000; stroke-linecap:round; stroke-linejoin:round; stroke-width:4; stroke-opacity:1; fill:none" points="166.015,458.82 184.912,458.82 "/>
<polyline clip-path="url(#clip370)" style="stroke:#000000; stroke-linecap:round; stroke-linejoin:round; stroke-width:4; stroke-opacity:1; fill:none" points="166.015,156.733 184.912,156.733 "/>
<path clip-path="url(#clip370)" d="M127.07 1652.97 Q123.459 1652.97 121.631 1656.53 Q119.825 1660.07 119.825 1667.2 Q119.825 1674.31 121.631 1677.87 Q123.459 1681.42 127.07 1681.42 Q130.705 1681.42 132.51 1677.87 Q134.339 1674.31 134.339 1667.2 Q134.339 1660.07 132.51 1656.53 Q130.705 1652.97 127.07 1652.97 M127.07 1649.26 Q132.881 1649.26 135.936 1653.87 Q139.015 1658.45 139.015 1667.2 Q139.015 1675.93 135.936 1680.54 Q132.881 1685.12 127.07 1685.12 Q121.26 1685.12 118.182 1680.54 Q115.126 1675.93 115.126 1667.2 Q115.126 1658.45 118.182 1653.87 Q121.26 1649.26 127.07 1649.26 Z" fill="#000000" fill-rule="nonzero" fill-opacity="1" /><path clip-path="url(#clip370)" d="M57.5569 1378.43 L65.1958 1378.43 L65.1958 1352.06 L56.8856 1353.73 L56.8856 1349.47 L65.1495 1347.8 L69.8254 1347.8 L69.8254 1378.43 L77.4642 1378.43 L77.4642 1382.36 L57.5569 1382.36 L57.5569 1378.43 Z" fill="#000000" fill-rule="nonzero" fill-opacity="1" /><path clip-path="url(#clip370)" d="M96.9086 1350.88 Q93.2975 1350.88 91.4688 1354.44 Q89.6632 1357.99 89.6632 1365.12 Q89.6632 1372.22 91.4688 1375.79 Q93.2975 1379.33 96.9086 1379.33 Q100.543 1379.33 102.348 1375.79 Q104.177 1372.22 104.177 1365.12 Q104.177 1357.99 102.348 1354.44 Q100.543 1350.88 96.9086 1350.88 M96.9086 1347.18 Q102.719 1347.18 105.774 1351.78 Q108.853 1356.37 108.853 1365.12 Q108.853 1373.84 105.774 1378.45 Q102.719 1383.03 96.9086 1383.03 Q91.0984 1383.03 88.0197 1378.45 Q84.9642 1373.84 84.9642 1365.12 Q84.9642 1356.37 88.0197 1351.78 Q91.0984 1347.18 96.9086 1347.18 Z" fill="#000000" fill-rule="nonzero" fill-opacity="1" /><path clip-path="url(#clip370)" d="M127.07 1350.88 Q123.459 1350.88 121.631 1354.44 Q119.825 1357.99 119.825 1365.12 Q119.825 1372.22 121.631 1375.79 Q123.459 1379.33 127.07 1379.33 Q130.705 1379.33 132.51 1375.79 Q134.339 1372.22 134.339 1365.12 Q134.339 1357.99 132.51 1354.44 Q130.705 1350.88 127.07 1350.88 M127.07 1347.18 Q132.881 1347.18 135.936 1351.78 Q139.015 1356.37 139.015 1365.12 Q139.015 1373.84 135.936 1378.45 Q132.881 1383.03 127.07 1383.03 Q121.26 1383.03 118.182 1378.45 Q115.126 1373.84 115.126 1365.12 Q115.126 1356.37 118.182 1351.78 Q121.26 1347.18 127.07 1347.18 Z" fill="#000000" fill-rule="nonzero" fill-opacity="1" /><path clip-path="url(#clip370)" d="M60.7745 1076.34 L77.0939 1076.34 L77.0939 1080.27 L55.1495 1080.27 L55.1495 1076.34 Q57.8115 1073.58 62.3949 1068.95 Q67.0013 1064.3 68.1819 1062.96 Q70.4272 1060.44 71.3068 1058.7 Q72.2096 1056.94 72.2096 1055.25 Q72.2096 1052.5 70.2652 1050.76 Q68.3439 1049.02 65.2421 1049.02 Q63.043 1049.02 60.5893 1049.79 Q58.1588 1050.55 55.381 1052.1 L55.381 1047.38 Q58.2051 1046.25 60.6588 1045.67 Q63.1124 1045.09 65.1495 1045.09 Q70.5198 1045.09 73.7142 1047.77 Q76.9087 1050.46 76.9087 1054.95 Q76.9087 1057.08 76.0985 1059 Q75.3115 1060.9 73.205 1063.49 Q72.6263 1064.16 69.5245 1067.38 Q66.4226 1070.57 60.7745 1076.34 Z" fill="#000000" fill-rule="nonzero" fill-opacity="1" /><path clip-path="url(#clip370)" d="M96.9086 1048.79 Q93.2975 1048.79 91.4688 1052.36 Q89.6632 1055.9 89.6632 1063.03 Q89.6632 1070.14 91.4688 1073.7 Q93.2975 1077.24 96.9086 1077.24 Q100.543 1077.24 102.348 1073.7 Q104.177 1070.14 104.177 1063.03 Q104.177 1055.9 102.348 1052.36 Q100.543 1048.79 96.9086 1048.79 M96.9086 1045.09 Q102.719 1045.09 105.774 1049.7 Q108.853 1054.28 108.853 1063.03 Q108.853 1071.76 105.774 1076.36 Q102.719 1080.95 96.9086 1080.95 Q91.0984 1080.95 88.0197 1076.36 Q84.9642 1071.76 84.9642 1063.03 Q84.9642 1054.28 88.0197 1049.7 Q91.0984 1045.09 96.9086 1045.09 Z" fill="#000000" fill-rule="nonzero" fill-opacity="1" /><path clip-path="url(#clip370)" d="M127.07 1048.79 Q123.459 1048.79 121.631 1052.36 Q119.825 1055.9 119.825 1063.03 Q119.825 1070.14 121.631 1073.7 Q123.459 1077.24 127.07 1077.24 Q130.705 1077.24 132.51 1073.7 Q134.339 1070.14 134.339 1063.03 Q134.339 1055.9 132.51 1052.36 Q130.705 1048.79 127.07 1048.79 M127.07 1045.09 Q132.881 1045.09 135.936 1049.7 Q139.015 1054.28 139.015 1063.03 Q139.015 1071.76 135.936 1076.36 Q132.881 1080.95 127.07 1080.95 Q121.26 1080.95 118.182 1076.36 Q115.126 1071.76 115.126 1063.03 Q115.126 1054.28 118.182 1049.7 Q121.26 1045.09 127.07 1045.09 Z" fill="#000000" fill-rule="nonzero" fill-opacity="1" /><path clip-path="url(#clip370)" d="M70.9133 759.553 Q74.2698 760.27 76.1448 762.539 Q78.0429 764.807 78.0429 768.141 Q78.0429 773.256 74.5244 776.057 Q71.0059 778.858 64.5245 778.858 Q62.3486 778.858 60.0338 778.418 Q57.7421 778.002 55.2884 777.145 L55.2884 772.631 Q57.2328 773.766 59.5477 774.344 Q61.8625 774.923 64.3856 774.923 Q68.7837 774.923 71.0754 773.187 Q73.3902 771.451 73.3902 768.141 Q73.3902 765.085 71.2374 763.372 Q69.1078 761.636 65.2884 761.636 L61.2606 761.636 L61.2606 757.794 L65.4735 757.794 Q68.9226 757.794 70.7513 756.428 Q72.58 755.039 72.58 752.446 Q72.58 749.784 70.6819 748.372 Q68.8069 746.937 65.2884 746.937 Q63.3671 746.937 61.168 747.354 Q58.969 747.77 56.3301 748.65 L56.3301 744.483 Q58.9921 743.743 61.3069 743.372 Q63.6449 743.002 65.705 743.002 Q71.0291 743.002 74.1309 745.432 Q77.2327 747.84 77.2327 751.96 Q77.2327 754.831 75.5892 756.821 Q73.9457 758.789 70.9133 759.553 Z" fill="#000000" fill-rule="nonzero" fill-opacity="1" /><path clip-path="url(#clip370)" d="M96.9086 746.706 Q93.2975 746.706 91.4688 750.27 Q89.6632 753.812 89.6632 760.942 Q89.6632 768.048 91.4688 771.613 Q93.2975 775.155 96.9086 775.155 Q100.543 775.155 102.348 771.613 Q104.177 768.048 104.177 760.942 Q104.177 753.812 102.348 750.27 Q100.543 746.706 96.9086 746.706 M96.9086 743.002 Q102.719 743.002 105.774 747.608 Q108.853 752.192 108.853 760.942 Q108.853 769.668 105.774 774.275 Q102.719 778.858 96.9086 778.858 Q91.0984 778.858 88.0197 774.275 Q84.9642 769.668 84.9642 760.942 Q84.9642 752.192 88.0197 747.608 Q91.0984 743.002 96.9086 743.002 Z" fill="#000000" fill-rule="nonzero" fill-opacity="1" /><path clip-path="url(#clip370)" d="M127.07 746.706 Q123.459 746.706 121.631 750.27 Q119.825 753.812 119.825 760.942 Q119.825 768.048 121.631 771.613 Q123.459 775.155 127.07 775.155 Q130.705 775.155 132.51 771.613 Q134.339 768.048 134.339 760.942 Q134.339 753.812 132.51 750.27 Q130.705 746.706 127.07 746.706 M127.07 743.002 Q132.881 743.002 135.936 747.608 Q139.015 752.192 139.015 760.942 Q139.015 769.668 135.936 774.275 Q132.881 778.858 127.07 778.858 Q121.26 778.858 118.182 774.275 Q115.126 769.668 115.126 760.942 Q115.126 752.192 118.182 747.608 Q121.26 743.002 127.07 743.002 Z" fill="#000000" fill-rule="nonzero" fill-opacity="1" /><path clip-path="url(#clip370)" d="M69.5939 445.614 L57.7884 464.063 L69.5939 464.063 L69.5939 445.614 M68.367 441.54 L74.2466 441.54 L74.2466 464.063 L79.1772 464.063 L79.1772 467.952 L74.2466 467.952 L74.2466 476.1 L69.5939 476.1 L69.5939 467.952 L53.9921 467.952 L53.9921 463.438 L68.367 441.54 Z" fill="#000000" fill-rule="nonzero" fill-opacity="1" /><path clip-path="url(#clip370)" d="M96.9086 444.619 Q93.2975 444.619 91.4688 448.183 Q89.6632 451.725 89.6632 458.855 Q89.6632 465.961 91.4688 469.526 Q93.2975 473.068 96.9086 473.068 Q100.543 473.068 102.348 469.526 Q104.177 465.961 104.177 458.855 Q104.177 451.725 102.348 448.183 Q100.543 444.619 96.9086 444.619 M96.9086 440.915 Q102.719 440.915 105.774 445.521 Q108.853 450.105 108.853 458.855 Q108.853 467.581 105.774 472.188 Q102.719 476.771 96.9086 476.771 Q91.0984 476.771 88.0197 472.188 Q84.9642 467.581 84.9642 458.855 Q84.9642 450.105 88.0197 445.521 Q91.0984 440.915 96.9086 440.915 Z" fill="#000000" fill-rule="nonzero" fill-opacity="1" /><path clip-path="url(#clip370)" d="M127.07 444.619 Q123.459 444.619 121.631 448.183 Q119.825 451.725 119.825 458.855 Q119.825 465.961 121.631 469.526 Q123.459 473.068 127.07 473.068 Q130.705 473.068 132.51 469.526 Q134.339 465.961 134.339 458.855 Q134.339 451.725 132.51 448.183 Q130.705 444.619 127.07 444.619 M127.07 440.915 Q132.881 440.915 135.936 445.521 Q139.015 450.105 139.015 458.855 Q139.015 467.581 135.936 472.188 Q132.881 476.771 127.07 476.771 Q121.26 476.771 118.182 472.188 Q115.126 467.581 115.126 458.855 Q115.126 450.105 118.182 445.521 Q121.26 440.915 127.07 440.915 Z" fill="#000000" fill-rule="nonzero" fill-opacity="1" /><path clip-path="url(#clip370)" d="M56.793 139.453 L75.1494 139.453 L75.1494 143.388 L61.0754 143.388 L61.0754 151.86 Q62.0939 151.513 63.1124 151.351 Q64.131 151.166 65.1495 151.166 Q70.9365 151.166 74.3161 154.337 Q77.6957 157.508 77.6957 162.925 Q77.6957 168.504 74.2235 171.606 Q70.7513 174.684 64.4319 174.684 Q62.256 174.684 59.9875 174.314 Q57.7421 173.944 55.3347 173.203 L55.3347 168.504 Q57.418 169.638 59.6402 170.194 Q61.8625 170.749 64.3393 170.749 Q68.3439 170.749 70.6819 168.643 Q73.0198 166.536 73.0198 162.925 Q73.0198 159.314 70.6819 157.208 Q68.3439 155.101 64.3393 155.101 Q62.4643 155.101 60.5893 155.518 Q58.7375 155.934 56.793 156.814 L56.793 139.453 Z" fill="#000000" fill-rule="nonzero" fill-opacity="1" /><path clip-path="url(#clip370)" d="M96.9086 142.532 Q93.2975 142.532 91.4688 146.096 Q89.6632 149.638 89.6632 156.768 Q89.6632 163.874 91.4688 167.439 Q93.2975 170.981 96.9086 170.981 Q100.543 170.981 102.348 167.439 Q104.177 163.874 104.177 156.768 Q104.177 149.638 102.348 146.096 Q100.543 142.532 96.9086 142.532 M96.9086 138.828 Q102.719 138.828 105.774 143.434 Q108.853 148.018 108.853 156.768 Q108.853 165.495 105.774 170.101 Q102.719 174.684 96.9086 174.684 Q91.0984 174.684 88.0197 170.101 Q84.9642 165.495 84.9642 156.768 Q84.9642 148.018 88.0197 143.434 Q91.0984 138.828 96.9086 138.828 Z" fill="#000000" fill-rule="nonzero" fill-opacity="1" /><path clip-path="url(#clip370)" d="M127.07 142.532 Q123.459 142.532 121.631 146.096 Q119.825 149.638 119.825 156.768 Q119.825 163.874 121.631 167.439 Q123.459 170.981 127.07 170.981 Q130.705 170.981 132.51 167.439 Q134.339 163.874 134.339 156.768 Q134.339 149.638 132.51 146.096 Q130.705 142.532 127.07 142.532 M127.07 138.828 Q132.881 138.828 135.936 143.434 Q139.015 148.018 139.015 156.768 Q139.015 165.495 135.936 170.101 Q132.881 174.684 127.07 174.684 Q121.26 174.684 118.182 170.101 Q115.126 165.495 115.126 156.768 Q115.126 148.018 118.182 143.434 Q121.26 138.828 127.07 138.828 Z" fill="#000000" fill-rule="nonzero" fill-opacity="1" /><path clip-path="url(#clip370)" d="M639.587 18.8205 L639.587 41.5461 L649.876 41.5461 Q655.588 41.5461 658.707 38.5889 Q661.826 35.6318 661.826 30.163 Q661.826 24.7348 658.707 21.7777 Q655.588 18.8205 649.876 18.8205 L639.587 18.8205 M631.404 12.096 L649.876 12.096 Q660.044 12.096 665.229 16.714 Q670.455 21.2916 670.455 30.163 Q670.455 39.1155 665.229 43.6931 Q660.044 48.2706 649.876 48.2706 L639.587 48.2706 L639.587 72.576 L631.404 72.576 L631.404 12.096 Z" fill="#000000" fill-rule="nonzero" fill-opacity="1" /><path clip-path="url(#clip370)" d="M705.941 34.1734 Q704.685 33.4443 703.186 33.1202 Q701.728 32.7556 699.945 32.7556 Q693.626 32.7556 690.223 36.8875 Q686.861 40.9789 686.861 48.6757 L686.861 72.576 L679.367 72.576 L679.367 27.2059 L686.861 27.2059 L686.861 34.2544 Q689.21 30.1225 692.978 28.1376 Q696.745 26.1121 702.133 26.1121 Q702.902 26.1121 703.834 26.2337 Q704.766 26.3147 705.9 26.5172 L705.941 34.1734 Z" fill="#000000" fill-rule="nonzero" fill-opacity="1" /><path clip-path="url(#clip370)" d="M713.759 27.2059 L721.212 27.2059 L721.212 72.576 L713.759 72.576 L713.759 27.2059 M713.759 9.54393 L721.212 9.54393 L721.212 18.9825 L713.759 18.9825 L713.759 9.54393 Z" fill="#000000" fill-rule="nonzero" fill-opacity="1" /><path clip-path="url(#clip370)" d="M754.389 32.4315 Q748.394 32.4315 744.91 37.1306 Q741.426 41.7891 741.426 49.9314 Q741.426 58.0738 744.87 62.7728 Q748.354 67.4314 754.389 67.4314 Q760.344 67.4314 763.828 62.7323 Q767.312 58.0333 767.312 49.9314 Q767.312 41.8701 763.828 37.1711 Q760.344 32.4315 754.389 32.4315 M754.389 26.1121 Q764.112 26.1121 769.661 32.4315 Q775.211 38.7509 775.211 49.9314 Q775.211 61.0714 769.661 67.4314 Q764.112 73.7508 754.389 73.7508 Q744.627 73.7508 739.077 67.4314 Q733.568 61.0714 733.568 49.9314 Q733.568 38.7509 739.077 32.4315 Q744.627 26.1121 754.389 26.1121 Z" fill="#000000" fill-rule="nonzero" fill-opacity="1" /><path clip-path="url(#clip370)" d="M813.857 34.1734 Q812.601 33.4443 811.102 33.1202 Q809.644 32.7556 807.861 32.7556 Q801.542 32.7556 798.139 36.8875 Q794.777 40.9789 794.777 48.6757 L794.777 72.576 L787.283 72.576 L787.283 27.2059 L794.777 27.2059 L794.777 34.2544 Q797.126 30.1225 800.894 28.1376 Q804.661 26.1121 810.049 26.1121 Q810.818 26.1121 811.75 26.2337 Q812.682 26.3147 813.816 26.5172 L813.857 34.1734 Z" fill="#000000" fill-rule="nonzero" fill-opacity="1" /><path clip-path="url(#clip370)" d="M865.627 32.4315 Q859.632 32.4315 856.148 37.1306 Q852.664 41.7891 852.664 49.9314 Q852.664 58.0738 856.108 62.7728 Q859.591 67.4314 865.627 67.4314 Q871.582 67.4314 875.066 62.7323 Q878.55 58.0333 878.55 49.9314 Q878.55 41.8701 875.066 37.1711 Q871.582 32.4315 865.627 32.4315 M865.627 26.1121 Q875.349 26.1121 880.899 32.4315 Q886.449 38.7509 886.449 49.9314 Q886.449 61.0714 880.899 67.4314 Q875.349 73.7508 865.627 73.7508 Q855.865 73.7508 850.315 67.4314 Q844.806 61.0714 844.806 49.9314 Q844.806 38.7509 850.315 32.4315 Q855.865 26.1121 865.627 26.1121 Z" fill="#000000" fill-rule="nonzero" fill-opacity="1" /><path clip-path="url(#clip370)" d="M921.773 9.54393 L921.773 15.7418 L914.643 15.7418 Q910.633 15.7418 909.053 17.3622 Q907.514 18.9825 907.514 23.1955 L907.514 27.2059 L919.788 27.2059 L919.788 32.9987 L907.514 32.9987 L907.514 72.576 L900.019 72.576 L900.019 32.9987 L892.89 32.9987 L892.89 27.2059 L900.019 27.2059 L900.019 24.0462 Q900.019 16.471 903.544 13.0277 Q907.068 9.54393 914.724 9.54393 L921.773 9.54393 Z" fill="#000000" fill-rule="nonzero" fill-opacity="1" /><path clip-path="url(#clip370)" d="M983.306 28.5427 L983.306 35.5912 Q980.146 33.9709 976.743 33.1607 Q973.341 32.3505 969.695 32.3505 Q964.145 32.3505 961.35 34.0519 Q958.595 35.7533 958.595 39.156 Q958.595 41.7486 960.58 43.2475 Q962.565 44.7058 968.561 46.0426 L971.113 46.6097 Q979.053 48.3111 982.374 51.4303 Q985.736 54.509 985.736 60.0587 Q985.736 66.3781 980.713 70.0644 Q975.731 73.7508 966.981 73.7508 Q963.335 73.7508 959.365 73.0216 Q955.436 72.3329 951.061 70.9151 L951.061 63.2184 Q955.193 65.3654 959.203 66.4591 Q963.213 67.5124 967.143 67.5124 Q972.409 67.5124 975.245 65.73 Q978.08 63.9071 978.08 60.6258 Q978.08 57.5877 976.014 55.9673 Q973.989 54.3469 967.062 52.8481 L964.469 52.2405 Q957.542 50.7821 954.464 47.7845 Q951.385 44.7463 951.385 39.4801 Q951.385 33.0797 955.922 29.5959 Q960.459 26.1121 968.804 26.1121 Q972.936 26.1121 976.581 26.7198 Q980.227 27.3274 983.306 28.5427 Z" fill="#000000" fill-rule="nonzero" fill-opacity="1" /><path clip-path="url(#clip370)" d="M1018.22 49.7694 Q1009.19 49.7694 1005.71 51.8354 Q1002.22 53.9013 1002.22 58.8839 Q1002.22 62.8538 1004.82 65.2034 Q1007.45 67.5124 1011.95 67.5124 Q1018.14 67.5124 1021.87 63.1374 Q1025.64 58.7219 1025.64 51.4303 L1025.64 49.7694 L1018.22 49.7694 M1033.09 46.6907 L1033.09 72.576 L1025.64 72.576 L1025.64 65.6895 Q1023.09 69.8214 1019.28 71.8063 Q1015.47 73.7508 1009.96 73.7508 Q1002.99 73.7508 998.861 69.8619 Q994.77 65.9325 994.77 59.3701 Q994.77 51.7138 999.874 47.825 Q1005.02 43.9361 1015.19 43.9361 L1025.64 43.9361 L1025.64 43.2069 Q1025.64 38.0623 1022.24 35.2672 Q1018.87 32.4315 1012.76 32.4315 Q1008.87 32.4315 1005.18 33.3632 Q1001.49 34.295 998.092 36.1584 L998.092 29.2718 Q1002.18 27.692 1006.03 26.9223 Q1009.88 26.1121 1013.53 26.1121 Q1023.37 26.1121 1028.23 31.2163 Q1033.09 36.3204 1033.09 46.6907 Z" fill="#000000" fill-rule="nonzero" fill-opacity="1" /><path clip-path="url(#clip370)" d="M1083.77 35.9153 Q1086.56 30.8922 1090.45 28.5022 Q1094.34 26.1121 1099.61 26.1121 Q1106.7 26.1121 1110.54 31.0947 Q1114.39 36.0368 1114.39 45.1919 L1114.39 72.576 L1106.9 72.576 L1106.9 45.4349 Q1106.9 38.913 1104.59 35.7533 Q1102.28 32.5936 1097.54 32.5936 Q1091.75 32.5936 1088.39 36.4419 Q1085.02 40.2903 1085.02 46.9338 L1085.02 72.576 L1077.53 72.576 L1077.53 45.4349 Q1077.53 38.8725 1075.22 35.7533 Q1072.91 32.5936 1068.09 32.5936 Q1062.38 32.5936 1059.02 36.4824 Q1055.66 40.3308 1055.66 46.9338 L1055.66 72.576 L1048.16 72.576 L1048.16 27.2059 L1055.66 27.2059 L1055.66 34.2544 Q1058.21 30.082 1061.77 28.0971 Q1065.34 26.1121 1070.24 26.1121 Q1075.18 26.1121 1078.62 28.6237 Q1082.11 31.1352 1083.77 35.9153 Z" fill="#000000" fill-rule="nonzero" fill-opacity="1" /><path clip-path="url(#clip370)" d="M1136.47 65.7705 L1136.47 89.8329 L1128.98 89.8329 L1128.98 27.2059 L1136.47 27.2059 L1136.47 34.0924 Q1138.82 30.0415 1142.38 28.0971 Q1145.99 26.1121 1150.97 26.1121 Q1159.24 26.1121 1164.38 32.6746 Q1169.57 39.2371 1169.57 49.9314 Q1169.57 60.6258 1164.38 67.1883 Q1159.24 73.7508 1150.97 73.7508 Q1145.99 73.7508 1142.38 71.8063 Q1138.82 69.8214 1136.47 65.7705 M1161.83 49.9314 Q1161.83 41.7081 1158.43 37.0496 Q1155.06 32.3505 1149.15 32.3505 Q1143.24 32.3505 1139.83 37.0496 Q1136.47 41.7081 1136.47 49.9314 Q1136.47 58.1548 1139.83 62.8538 Q1143.24 67.5124 1149.15 67.5124 Q1155.06 67.5124 1158.43 62.8538 Q1161.83 58.1548 1161.83 49.9314 Z" fill="#000000" fill-rule="nonzero" fill-opacity="1" /><path clip-path="url(#clip370)" d="M1181.92 9.54393 L1189.38 9.54393 L1189.38 72.576 L1181.92 72.576 L1181.92 9.54393 Z" fill="#000000" fill-rule="nonzero" fill-opacity="1" /><path clip-path="url(#clip370)" d="M1243.78 48.0275 L1243.78 51.6733 L1209.51 51.6733 Q1209.99 59.3701 1214.13 63.421 Q1218.3 67.4314 1225.71 67.4314 Q1230.01 67.4314 1234.02 66.3781 Q1238.07 65.3249 1242.04 63.2184 L1242.04 70.267 Q1238.03 71.9684 1233.81 72.8596 Q1229.6 73.7508 1225.27 73.7508 Q1214.41 73.7508 1208.05 67.4314 Q1201.73 61.1119 1201.73 50.3365 Q1201.73 39.1965 1207.73 32.6746 Q1213.76 26.1121 1223.97 26.1121 Q1233.13 26.1121 1238.43 32.0264 Q1243.78 37.9003 1243.78 48.0275 M1236.33 45.84 Q1236.24 39.7232 1232.88 36.0774 Q1229.56 32.4315 1224.05 32.4315 Q1217.81 32.4315 1214.05 35.9558 Q1210.32 39.4801 1209.75 45.8805 L1236.33 45.84 Z" fill="#000000" fill-rule="nonzero" fill-opacity="1" /><path clip-path="url(#clip370)" d="M1284.94 28.5427 L1284.94 35.5912 Q1281.78 33.9709 1278.37 33.1607 Q1274.97 32.3505 1271.33 32.3505 Q1265.78 32.3505 1262.98 34.0519 Q1260.23 35.7533 1260.23 39.156 Q1260.23 41.7486 1262.21 43.2475 Q1264.2 44.7058 1270.19 46.0426 L1272.74 46.6097 Q1280.68 48.3111 1284 51.4303 Q1287.37 54.509 1287.37 60.0587 Q1287.37 66.3781 1282.34 70.0644 Q1277.36 73.7508 1268.61 73.7508 Q1264.97 73.7508 1261 73.0216 Q1257.07 72.3329 1252.69 70.9151 L1252.69 63.2184 Q1256.82 65.3654 1260.83 66.4591 Q1264.84 67.5124 1268.77 67.5124 Q1274.04 67.5124 1276.87 65.73 Q1279.71 63.9071 1279.71 60.6258 Q1279.71 57.5877 1277.64 55.9673 Q1275.62 54.3469 1268.69 52.8481 L1266.1 52.2405 Q1259.17 50.7821 1256.09 47.7845 Q1253.02 44.7463 1253.02 39.4801 Q1253.02 33.0797 1257.55 29.5959 Q1262.09 26.1121 1270.43 26.1121 Q1274.57 26.1121 1278.21 26.7198 Q1281.86 27.3274 1284.94 28.5427 Z" fill="#000000" fill-rule="nonzero" fill-opacity="1" /><path clip-path="url(#clip372)" d="M253.288 1664.15 L253.288 1667.17 L297.419 1667.17 L297.419 1664.15 L253.288 1664.15 L253.288 1664.15  Z" fill="#009af9" fill-rule="evenodd" fill-opacity="1"/>
<polyline clip-path="url(#clip372)" style="stroke:#000000; stroke-linecap:round; stroke-linejoin:round; stroke-width:8; stroke-opacity:1; fill:none" points="253.288,1664.15 253.288,1667.17 297.419,1667.17 297.419,1664.15 253.288,1664.15 "/>
<path clip-path="url(#clip372)" d="M297.419 1661.13 L297.419 1667.17 L341.551 1667.17 L341.551 1661.13 L297.419 1661.13 L297.419 1661.13  Z" fill="#009af9" fill-rule="evenodd" fill-opacity="1"/>
<polyline clip-path="url(#clip372)" style="stroke:#000000; stroke-linecap:round; stroke-linejoin:round; stroke-width:8; stroke-opacity:1; fill:none" points="297.419,1661.13 297.419,1667.17 341.551,1667.17 341.551,1661.13 297.419,1661.13 "/>
<path clip-path="url(#clip372)" d="M341.551 1652.06 L341.551 1667.17 L385.682 1667.17 L385.682 1652.06 L341.551 1652.06 L341.551 1652.06  Z" fill="#009af9" fill-rule="evenodd" fill-opacity="1"/>
<polyline clip-path="url(#clip372)" style="stroke:#000000; stroke-linecap:round; stroke-linejoin:round; stroke-width:8; stroke-opacity:1; fill:none" points="341.551,1652.06 341.551,1667.17 385.682,1667.17 385.682,1652.06 341.551,1652.06 "/>
<path clip-path="url(#clip372)" d="M385.682 1643 L385.682 1667.17 L429.813 1667.17 L429.813 1643 L385.682 1643 L385.682 1643  Z" fill="#009af9" fill-rule="evenodd" fill-opacity="1"/>
<polyline clip-path="url(#clip372)" style="stroke:#000000; stroke-linecap:round; stroke-linejoin:round; stroke-width:8; stroke-opacity:1; fill:none" points="385.682,1643 385.682,1667.17 429.813,1667.17 429.813,1643 385.682,1643 "/>
<path clip-path="url(#clip372)" d="M429.813 1630.92 L429.813 1667.17 L473.944 1667.17 L473.944 1630.92 L429.813 1630.92 L429.813 1630.92  Z" fill="#009af9" fill-rule="evenodd" fill-opacity="1"/>
<polyline clip-path="url(#clip372)" style="stroke:#000000; stroke-linecap:round; stroke-linejoin:round; stroke-width:8; stroke-opacity:1; fill:none" points="429.813,1630.92 429.813,1667.17 473.944,1667.17 473.944,1630.92 429.813,1630.92 "/>
<path clip-path="url(#clip372)" d="M473.944 1573.52 L473.944 1667.17 L518.075 1667.17 L518.075 1573.52 L473.944 1573.52 L473.944 1573.52  Z" fill="#009af9" fill-rule="evenodd" fill-opacity="1"/>
<polyline clip-path="url(#clip372)" style="stroke:#000000; stroke-linecap:round; stroke-linejoin:round; stroke-width:8; stroke-opacity:1; fill:none" points="473.944,1573.52 473.944,1667.17 518.075,1667.17 518.075,1573.52 473.944,1573.52 "/>
<path clip-path="url(#clip372)" d="M518.075 1479.87 L518.075 1667.17 L562.206 1667.17 L562.206 1479.87 L518.075 1479.87 L518.075 1479.87  Z" fill="#009af9" fill-rule="evenodd" fill-opacity="1"/>
<polyline clip-path="url(#clip372)" style="stroke:#000000; stroke-linecap:round; stroke-linejoin:round; stroke-width:8; stroke-opacity:1; fill:none" points="518.075,1479.87 518.075,1667.17 562.206,1667.17 562.206,1479.87 518.075,1479.87 "/>
<path clip-path="url(#clip372)" d="M562.206 1380.19 L562.206 1667.17 L606.337 1667.17 L606.337 1380.19 L562.206 1380.19 L562.206 1380.19  Z" fill="#009af9" fill-rule="evenodd" fill-opacity="1"/>
<polyline clip-path="url(#clip372)" style="stroke:#000000; stroke-linecap:round; stroke-linejoin:round; stroke-width:8; stroke-opacity:1; fill:none" points="562.206,1380.19 562.206,1667.17 606.337,1667.17 606.337,1380.19 562.206,1380.19 "/>
<path clip-path="url(#clip372)" d="M606.337 1204.97 L606.337 1667.17 L650.468 1667.17 L650.468 1204.97 L606.337 1204.97 L606.337 1204.97  Z" fill="#009af9" fill-rule="evenodd" fill-opacity="1"/>
<polyline clip-path="url(#clip372)" style="stroke:#000000; stroke-linecap:round; stroke-linejoin:round; stroke-width:8; stroke-opacity:1; fill:none" points="606.337,1204.97 606.337,1667.17 650.468,1667.17 650.468,1204.97 606.337,1204.97 "/>
<path clip-path="url(#clip372)" d="M650.468 1005.6 L650.468 1667.17 L694.599 1667.17 L694.599 1005.6 L650.468 1005.6 L650.468 1005.6  Z" fill="#009af9" fill-rule="evenodd" fill-opacity="1"/>
<polyline clip-path="url(#clip372)" style="stroke:#000000; stroke-linecap:round; stroke-linejoin:round; stroke-width:8; stroke-opacity:1; fill:none" points="650.468,1005.6 650.468,1667.17 694.599,1667.17 694.599,1005.6 650.468,1005.6 "/>
<path clip-path="url(#clip372)" d="M694.599 869.658 L694.599 1667.17 L738.73 1667.17 L738.73 869.658 L694.599 869.658 L694.599 869.658  Z" fill="#009af9" fill-rule="evenodd" fill-opacity="1"/>
<polyline clip-path="url(#clip372)" style="stroke:#000000; stroke-linecap:round; stroke-linejoin:round; stroke-width:8; stroke-opacity:1; fill:none" points="694.599,869.658 694.599,1667.17 738.73,1667.17 738.73,869.658 694.599,869.658 "/>
<path clip-path="url(#clip372)" d="M738.73 591.738 L738.73 1667.17 L782.861 1667.17 L782.861 591.738 L738.73 591.738 L738.73 591.738  Z" fill="#009af9" fill-rule="evenodd" fill-opacity="1"/>
<polyline clip-path="url(#clip372)" style="stroke:#000000; stroke-linecap:round; stroke-linejoin:round; stroke-width:8; stroke-opacity:1; fill:none" points="738.73,591.738 738.73,1667.17 782.861,1667.17 782.861,591.738 738.73,591.738 "/>
<path clip-path="url(#clip372)" d="M782.861 328.923 L782.861 1667.17 L826.992 1667.17 L826.992 328.923 L782.861 328.923 L782.861 328.923  Z" fill="#009af9" fill-rule="evenodd" fill-opacity="1"/>
<polyline clip-path="url(#clip372)" style="stroke:#000000; stroke-linecap:round; stroke-linejoin:round; stroke-width:8; stroke-opacity:1; fill:none" points="782.861,328.923 782.861,1667.17 826.992,1667.17 826.992,328.923 782.861,328.923 "/>
<path clip-path="url(#clip372)" d="M826.992 183.921 L826.992 1667.17 L871.123 1667.17 L871.123 183.921 L826.992 183.921 L826.992 183.921  Z" fill="#009af9" fill-rule="evenodd" fill-opacity="1"/>
<polyline clip-path="url(#clip372)" style="stroke:#000000; stroke-linecap:round; stroke-linejoin:round; stroke-width:8; stroke-opacity:1; fill:none" points="826.992,183.921 826.992,1667.17 871.123,1667.17 871.123,183.921 826.992,183.921 "/>
<path clip-path="url(#clip372)" d="M871.123 153.712 L871.123 1667.17 L915.254 1667.17 L915.254 153.712 L871.123 153.712 L871.123 153.712  Z" fill="#009af9" fill-rule="evenodd" fill-opacity="1"/>
<polyline clip-path="url(#clip372)" style="stroke:#000000; stroke-linecap:round; stroke-linejoin:round; stroke-width:8; stroke-opacity:1; fill:none" points="871.123,153.712 871.123,1667.17 915.254,1667.17 915.254,153.712 871.123,153.712 "/>
<path clip-path="url(#clip372)" d="M915.254 238.296 L915.254 1667.17 L959.385 1667.17 L959.385 238.296 L915.254 238.296 L915.254 238.296  Z" fill="#009af9" fill-rule="evenodd" fill-opacity="1"/>
<polyline clip-path="url(#clip372)" style="stroke:#000000; stroke-linecap:round; stroke-linejoin:round; stroke-width:8; stroke-opacity:1; fill:none" points="915.254,238.296 915.254,1667.17 959.385,1667.17 959.385,238.296 915.254,238.296 "/>
<path clip-path="url(#clip372)" d="M959.385 283.61 L959.385 1667.17 L1003.52 1667.17 L1003.52 283.61 L959.385 283.61 L959.385 283.61  Z" fill="#009af9" fill-rule="evenodd" fill-opacity="1"/>
<polyline clip-path="url(#clip372)" style="stroke:#000000; stroke-linecap:round; stroke-linejoin:round; stroke-width:8; stroke-opacity:1; fill:none" points="959.385,283.61 959.385,1667.17 1003.52,1667.17 1003.52,283.61 959.385,283.61 "/>
<path clip-path="url(#clip372)" d="M1003.52 534.342 L1003.52 1667.17 L1047.65 1667.17 L1047.65 534.342 L1003.52 534.342 L1003.52 534.342  Z" fill="#009af9" fill-rule="evenodd" fill-opacity="1"/>
<polyline clip-path="url(#clip372)" style="stroke:#000000; stroke-linecap:round; stroke-linejoin:round; stroke-width:8; stroke-opacity:1; fill:none" points="1003.52,534.342 1003.52,1667.17 1047.65,1667.17 1047.65,534.342 1003.52,534.342 "/>
<path clip-path="url(#clip372)" d="M1047.65 676.323 L1047.65 1667.17 L1091.78 1667.17 L1091.78 676.323 L1047.65 676.323 L1047.65 676.323  Z" fill="#009af9" fill-rule="evenodd" fill-opacity="1"/>
<polyline clip-path="url(#clip372)" style="stroke:#000000; stroke-linecap:round; stroke-linejoin:round; stroke-width:8; stroke-opacity:1; fill:none" points="1047.65,676.323 1047.65,1667.17 1091.78,1667.17 1091.78,676.323 1047.65,676.323 "/>
<path clip-path="url(#clip372)" d="M1091.78 911.95 L1091.78 1667.17 L1135.91 1667.17 L1135.91 911.95 L1091.78 911.95 L1091.78 911.95  Z" fill="#009af9" fill-rule="evenodd" fill-opacity="1"/>
<polyline clip-path="url(#clip372)" style="stroke:#000000; stroke-linecap:round; stroke-linejoin:round; stroke-width:8; stroke-opacity:1; fill:none" points="1091.78,911.95 1091.78,1667.17 1135.91,1667.17 1135.91,911.95 1091.78,911.95 "/>
<path clip-path="url(#clip372)" d="M1135.91 1099.24 L1135.91 1667.17 L1180.04 1667.17 L1180.04 1099.24 L1135.91 1099.24 L1135.91 1099.24  Z" fill="#009af9" fill-rule="evenodd" fill-opacity="1"/>
<polyline clip-path="url(#clip372)" style="stroke:#000000; stroke-linecap:round; stroke-linejoin:round; stroke-width:8; stroke-opacity:1; fill:none" points="1135.91,1099.24 1135.91,1667.17 1180.04,1667.17 1180.04,1099.24 1135.91,1099.24 "/>
<path clip-path="url(#clip372)" d="M1180.04 1353 L1180.04 1667.17 L1224.17 1667.17 L1224.17 1353 L1180.04 1353 L1180.04 1353  Z" fill="#009af9" fill-rule="evenodd" fill-opacity="1"/>
<polyline clip-path="url(#clip372)" style="stroke:#000000; stroke-linecap:round; stroke-linejoin:round; stroke-width:8; stroke-opacity:1; fill:none" points="1180.04,1353 1180.04,1667.17 1224.17,1667.17 1224.17,1353 1180.04,1353 "/>
<path clip-path="url(#clip372)" d="M1224.17 1443.62 L1224.17 1667.17 L1268.3 1667.17 L1268.3 1443.62 L1224.17 1443.62 L1224.17 1443.62  Z" fill="#009af9" fill-rule="evenodd" fill-opacity="1"/>
<polyline clip-path="url(#clip372)" style="stroke:#000000; stroke-linecap:round; stroke-linejoin:round; stroke-width:8; stroke-opacity:1; fill:none" points="1224.17,1443.62 1224.17,1667.17 1268.3,1667.17 1268.3,1443.62 1224.17,1443.62 "/>
<path clip-path="url(#clip372)" d="M1268.3 1522.17 L1268.3 1667.17 L1312.43 1667.17 L1312.43 1522.17 L1268.3 1522.17 L1268.3 1522.17  Z" fill="#009af9" fill-rule="evenodd" fill-opacity="1"/>
<polyline clip-path="url(#clip372)" style="stroke:#000000; stroke-linecap:round; stroke-linejoin:round; stroke-width:8; stroke-opacity:1; fill:none" points="1268.3,1522.17 1268.3,1667.17 1312.43,1667.17 1312.43,1522.17 1268.3,1522.17 "/>
<path clip-path="url(#clip372)" d="M1312.43 1597.69 L1312.43 1667.17 L1356.56 1667.17 L1356.56 1597.69 L1312.43 1597.69 L1312.43 1597.69  Z" fill="#009af9" fill-rule="evenodd" fill-opacity="1"/>
<polyline clip-path="url(#clip372)" style="stroke:#000000; stroke-linecap:round; stroke-linejoin:round; stroke-width:8; stroke-opacity:1; fill:none" points="1312.43,1597.69 1312.43,1667.17 1356.56,1667.17 1356.56,1597.69 1312.43,1597.69 "/>
<path clip-path="url(#clip372)" d="M1356.56 1603.73 L1356.56 1667.17 L1400.7 1667.17 L1400.7 1603.73 L1356.56 1603.73 L1356.56 1603.73  Z" fill="#009af9" fill-rule="evenodd" fill-opacity="1"/>
<polyline clip-path="url(#clip372)" style="stroke:#000000; stroke-linecap:round; stroke-linejoin:round; stroke-width:8; stroke-opacity:1; fill:none" points="1356.56,1603.73 1356.56,1667.17 1400.7,1667.17 1400.7,1603.73 1356.56,1603.73 "/>
<path clip-path="url(#clip372)" d="M1400.7 1643 L1400.7 1667.17 L1444.83 1667.17 L1444.83 1643 L1400.7 1643 L1400.7 1643  Z" fill="#009af9" fill-rule="evenodd" fill-opacity="1"/>
<polyline clip-path="url(#clip372)" style="stroke:#000000; stroke-linecap:round; stroke-linejoin:round; stroke-width:8; stroke-opacity:1; fill:none" points="1400.7,1643 1400.7,1667.17 1444.83,1667.17 1444.83,1643 1400.7,1643 "/>
<path clip-path="url(#clip372)" d="M1444.83 1658.11 L1444.83 1667.17 L1488.96 1667.17 L1488.96 1658.11 L1444.83 1658.11 L1444.83 1658.11  Z" fill="#009af9" fill-rule="evenodd" fill-opacity="1"/>
<polyline clip-path="url(#clip372)" style="stroke:#000000; stroke-linecap:round; stroke-linejoin:round; stroke-width:8; stroke-opacity:1; fill:none" points="1444.83,1658.11 1444.83,1667.17 1488.96,1667.17 1488.96,1658.11 1444.83,1658.11 "/>
<path clip-path="url(#clip372)" d="M1488.96 1661.13 L1488.96 1667.17 L1533.09 1667.17 L1533.09 1661.13 L1488.96 1661.13 L1488.96 1661.13  Z" fill="#009af9" fill-rule="evenodd" fill-opacity="1"/>
<polyline clip-path="url(#clip372)" style="stroke:#000000; stroke-linecap:round; stroke-linejoin:round; stroke-width:8; stroke-opacity:1; fill:none" points="1488.96,1661.13 1488.96,1667.17 1533.09,1667.17 1533.09,1661.13 1488.96,1661.13 "/>
<path clip-path="url(#clip372)" d="M1533.09 1664.15 L1533.09 1667.17 L1577.22 1667.17 L1577.22 1664.15 L1533.09 1664.15 L1533.09 1664.15  Z" fill="#009af9" fill-rule="evenodd" fill-opacity="1"/>
<polyline clip-path="url(#clip372)" style="stroke:#000000; stroke-linecap:round; stroke-linejoin:round; stroke-width:8; stroke-opacity:1; fill:none" points="1533.09,1664.15 1533.09,1667.17 1577.22,1667.17 1577.22,1664.15 1533.09,1664.15 "/>
<path clip-path="url(#clip372)" d="M1577.22 1667.17 L1577.22 1667.17 L1621.35 1667.17 L1621.35 1667.17 L1577.22 1667.17 L1577.22 1667.17  Z" fill="#009af9" fill-rule="evenodd" fill-opacity="1"/>
<polyline clip-path="url(#clip372)" style="stroke:#000000; stroke-linecap:round; stroke-linejoin:round; stroke-width:8; stroke-opacity:1; fill:none" points="1577.22,1667.17 1577.22,1667.17 1621.35,1667.17 1577.22,1667.17 "/>
<path clip-path="url(#clip372)" d="M1621.35 1664.15 L1621.35 1667.17 L1665.48 1667.17 L1665.48 1664.15 L1621.35 1664.15 L1621.35 1664.15  Z" fill="#009af9" fill-rule="evenodd" fill-opacity="1"/>
<polyline clip-path="url(#clip372)" style="stroke:#000000; stroke-linecap:round; stroke-linejoin:round; stroke-width:8; stroke-opacity:1; fill:none" points="1621.35,1664.15 1621.35,1667.17 1665.48,1667.17 1665.48,1664.15 1621.35,1664.15 "/>
<circle clip-path="url(#clip372)" style="fill:#009af9; stroke:none; fill-opacity:0" cx="275.354" cy="1664.15" r="2"/>
<circle clip-path="url(#clip372)" style="fill:#009af9; stroke:none; fill-opacity:0" cx="319.485" cy="1661.13" r="2"/>
<circle clip-path="url(#clip372)" style="fill:#009af9; stroke:none; fill-opacity:0" cx="363.616" cy="1652.06" r="2"/>
<circle clip-path="url(#clip372)" style="fill:#009af9; stroke:none; fill-opacity:0" cx="407.747" cy="1643" r="2"/>
<circle clip-path="url(#clip372)" style="fill:#009af9; stroke:none; fill-opacity:0" cx="451.878" cy="1630.92" r="2"/>
<circle clip-path="url(#clip372)" style="fill:#009af9; stroke:none; fill-opacity:0" cx="496.009" cy="1573.52" r="2"/>
<circle clip-path="url(#clip372)" style="fill:#009af9; stroke:none; fill-opacity:0" cx="540.14" cy="1479.87" r="2"/>
<circle clip-path="url(#clip372)" style="fill:#009af9; stroke:none; fill-opacity:0" cx="584.271" cy="1380.19" r="2"/>
<circle clip-path="url(#clip372)" style="fill:#009af9; stroke:none; fill-opacity:0" cx="628.402" cy="1204.97" r="2"/>
<circle clip-path="url(#clip372)" style="fill:#009af9; stroke:none; fill-opacity:0" cx="672.533" cy="1005.6" r="2"/>
<circle clip-path="url(#clip372)" style="fill:#009af9; stroke:none; fill-opacity:0" cx="716.665" cy="869.658" r="2"/>
<circle clip-path="url(#clip372)" style="fill:#009af9; stroke:none; fill-opacity:0" cx="760.796" cy="591.738" r="2"/>
<circle clip-path="url(#clip372)" style="fill:#009af9; stroke:none; fill-opacity:0" cx="804.927" cy="328.923" r="2"/>
<circle clip-path="url(#clip372)" style="fill:#009af9; stroke:none; fill-opacity:0" cx="849.058" cy="183.921" r="2"/>
<circle clip-path="url(#clip372)" style="fill:#009af9; stroke:none; fill-opacity:0" cx="893.189" cy="153.712" r="2"/>
<circle clip-path="url(#clip372)" style="fill:#009af9; stroke:none; fill-opacity:0" cx="937.32" cy="238.296" r="2"/>
<circle clip-path="url(#clip372)" style="fill:#009af9; stroke:none; fill-opacity:0" cx="981.451" cy="283.61" r="2"/>
<circle clip-path="url(#clip372)" style="fill:#009af9; stroke:none; fill-opacity:0" cx="1025.58" cy="534.342" r="2"/>
<circle clip-path="url(#clip372)" style="fill:#009af9; stroke:none; fill-opacity:0" cx="1069.71" cy="676.323" r="2"/>
<circle clip-path="url(#clip372)" style="fill:#009af9; stroke:none; fill-opacity:0" cx="1113.84" cy="911.95" r="2"/>
<circle clip-path="url(#clip372)" style="fill:#009af9; stroke:none; fill-opacity:0" cx="1157.98" cy="1099.24" r="2"/>
<circle clip-path="url(#clip372)" style="fill:#009af9; stroke:none; fill-opacity:0" cx="1202.11" cy="1353" r="2"/>
<circle clip-path="url(#clip372)" style="fill:#009af9; stroke:none; fill-opacity:0" cx="1246.24" cy="1443.62" r="2"/>
<circle clip-path="url(#clip372)" style="fill:#009af9; stroke:none; fill-opacity:0" cx="1290.37" cy="1522.17" r="2"/>
<circle clip-path="url(#clip372)" style="fill:#009af9; stroke:none; fill-opacity:0" cx="1334.5" cy="1597.69" r="2"/>
<circle clip-path="url(#clip372)" style="fill:#009af9; stroke:none; fill-opacity:0" cx="1378.63" cy="1603.73" r="2"/>
<circle clip-path="url(#clip372)" style="fill:#009af9; stroke:none; fill-opacity:0" cx="1422.76" cy="1643" r="2"/>
<circle clip-path="url(#clip372)" style="fill:#009af9; stroke:none; fill-opacity:0" cx="1466.89" cy="1658.11" r="2"/>
<circle clip-path="url(#clip372)" style="fill:#009af9; stroke:none; fill-opacity:0" cx="1511.02" cy="1661.13" r="2"/>
<circle clip-path="url(#clip372)" style="fill:#009af9; stroke:none; fill-opacity:0" cx="1555.15" cy="1664.15" r="2"/>
<circle clip-path="url(#clip372)" style="fill:#009af9; stroke:none; fill-opacity:0" cx="1599.29" cy="1667.17" r="2"/>
<circle clip-path="url(#clip372)" style="fill:#009af9; stroke:none; fill-opacity:0" cx="1643.42" cy="1664.15" r="2"/>
<polyline clip-path="url(#clip372)" style="stroke:#e26f46; stroke-linecap:round; stroke-linejoin:round; stroke-width:8; stroke-opacity:1; fill:none" points="881.56,3180.62 881.56,-1359.74 "/>
</svg>
