<?xml version="1.0" encoding="utf-8"?>
<svg xmlns="http://www.w3.org/2000/svg" xmlns:xlink="http://www.w3.org/1999/xlink" width="450" height="450" viewBox="0 0 1800 1800">
<defs>
  <clipPath id="clip310">
    <rect x="0" y="0" width="1800" height="1800"/>
  </clipPath>
</defs>
<path clip-path="url(#clip310)" d="M0 1800 L1800 1800 L1800 0 L0 0  Z" fill="#ffffff" fill-rule="evenodd" fill-opacity="1"/>
<defs>
  <clipPath id="clip311">
    <rect x="360" y="180" width="1261" height="1261"/>
  </clipPath>
</defs>
<path clip-path="url(#clip310)" d="M164.857 1667.17 L1752.76 1667.17 L1752.76 153.712 L164.857 153.712  Z" fill="#ffffff" fill-rule="evenodd" fill-opacity="1"/>
<defs>
  <clipPath id="clip312">
    <rect x="164" y="153" width="1589" height="1514"/>
  </clipPath>
</defs>
<polyline clip-path="url(#clip312)" style="stroke:#000000; stroke-linecap:round; stroke-linejoin:round; stroke-width:2; stroke-opacity:0.1; fill:none" points="380.67,1667.17 380.67,153.712 "/>
<polyline clip-path="url(#clip312)" style="stroke:#000000; stroke-linecap:round; stroke-linejoin:round; stroke-width:2; stroke-opacity:0.1; fill:none" points="701.857,1667.17 701.857,153.712 "/>
<polyline clip-path="url(#clip312)" style="stroke:#000000; stroke-linecap:round; stroke-linejoin:round; stroke-width:2; stroke-opacity:0.1; fill:none" points="1023.04,1667.17 1023.04,153.712 "/>
<polyline clip-path="url(#clip312)" style="stroke:#000000; stroke-linecap:round; stroke-linejoin:round; stroke-width:2; stroke-opacity:0.1; fill:none" points="1344.23,1667.17 1344.23,153.712 "/>
<polyline clip-path="url(#clip312)" style="stroke:#000000; stroke-linecap:round; stroke-linejoin:round; stroke-width:2; stroke-opacity:0.1; fill:none" points="1665.42,1667.17 1665.42,153.712 "/>
<polyline clip-path="url(#clip310)" style="stroke:#000000; stroke-linecap:round; stroke-linejoin:round; stroke-width:4; stroke-opacity:1; fill:none" points="164.857,1667.17 1752.76,1667.17 "/>
<polyline clip-path="url(#clip310)" style="stroke:#000000; stroke-linecap:round; stroke-linejoin:round; stroke-width:4; stroke-opacity:1; fill:none" points="380.67,1667.17 380.67,1648.27 "/>
<polyline clip-path="url(#clip310)" style="stroke:#000000; stroke-linecap:round; stroke-linejoin:round; stroke-width:4; stroke-opacity:1; fill:none" points="701.857,1667.17 701.857,1648.27 "/>
<polyline clip-path="url(#clip310)" style="stroke:#000000; stroke-linecap:round; stroke-linejoin:round; stroke-width:4; stroke-opacity:1; fill:none" points="1023.04,1667.17 1023.04,1648.27 "/>
<polyline clip-path="url(#clip310)" style="stroke:#000000; stroke-linecap:round; stroke-linejoin:round; stroke-width:4; stroke-opacity:1; fill:none" points="1344.23,1667.17 1344.23,1648.27 "/>
<polyline clip-path="url(#clip310)" style="stroke:#000000; stroke-linecap:round; stroke-linejoin:round; stroke-width:4; stroke-opacity:1; fill:none" points="1665.42,1667.17 1665.42,1648.27 "/>
<path clip-path="url(#clip310)" d="M358.853 1693.29 Q355.241 1693.29 353.413 1696.85 Q351.607 1700.39 351.607 1707.52 Q351.607 1714.63 353.413 1718.19 Q355.241 1721.74 358.853 1721.74 Q362.487 1721.74 364.292 1718.19 Q366.121 1714.63 366.121 1707.52 Q366.121 1700.39 364.292 1696.85 Q362.487 1693.29 358.853 1693.29 M358.853 1689.58 Q364.663 1689.58 367.718 1694.19 Q370.797 1698.77 370.797 1707.52 Q370.797 1716.25 367.718 1720.86 Q364.663 1725.44 358.853 1725.44 Q353.042 1725.44 349.964 1720.86 Q346.908 1716.25 346.908 1707.52 Q346.908 1698.77 349.964 1694.19 Q353.042 1689.58 358.853 1689.58 Z" fill="#000000" fill-rule="nonzero" fill-opacity="1" /><path clip-path="url(#clip310)" d="M379.014 1718.89 L383.899 1718.89 L383.899 1724.77 L379.014 1724.77 L379.014 1718.89 Z" fill="#000000" fill-rule="nonzero" fill-opacity="1" /><path clip-path="url(#clip310)" d="M398.112 1720.83 L414.431 1720.83 L414.431 1724.77 L392.487 1724.77 L392.487 1720.83 Q395.149 1718.08 399.732 1713.45 Q404.338 1708.8 405.519 1707.45 Q407.764 1704.93 408.644 1703.19 Q409.547 1701.43 409.547 1699.74 Q409.547 1696.99 407.602 1695.25 Q405.681 1693.52 402.579 1693.52 Q400.38 1693.52 397.926 1694.28 Q395.496 1695.05 392.718 1696.6 L392.718 1691.87 Q395.542 1690.74 397.996 1690.16 Q400.45 1689.58 402.487 1689.58 Q407.857 1689.58 411.051 1692.27 Q414.246 1694.95 414.246 1699.44 Q414.246 1701.57 413.436 1703.49 Q412.649 1705.39 410.542 1707.99 Q409.963 1708.66 406.862 1711.87 Q403.76 1715.07 398.112 1720.83 Z" fill="#000000" fill-rule="nonzero" fill-opacity="1" /><path clip-path="url(#clip310)" d="M678.998 1693.29 Q675.387 1693.29 673.558 1696.85 Q671.753 1700.39 671.753 1707.52 Q671.753 1714.63 673.558 1718.19 Q675.387 1721.74 678.998 1721.74 Q682.632 1721.74 684.438 1718.19 Q686.267 1714.63 686.267 1707.52 Q686.267 1700.39 684.438 1696.85 Q682.632 1693.29 678.998 1693.29 M678.998 1689.58 Q684.808 1689.58 687.864 1694.19 Q690.943 1698.77 690.943 1707.52 Q690.943 1716.25 687.864 1720.86 Q684.808 1725.44 678.998 1725.44 Q673.188 1725.44 670.109 1720.86 Q667.054 1716.25 667.054 1707.52 Q667.054 1698.77 670.109 1694.19 Q673.188 1689.58 678.998 1689.58 Z" fill="#000000" fill-rule="nonzero" fill-opacity="1" /><path clip-path="url(#clip310)" d="M699.16 1718.89 L704.044 1718.89 L704.044 1724.77 L699.16 1724.77 L699.16 1718.89 Z" fill="#000000" fill-rule="nonzero" fill-opacity="1" /><path clip-path="url(#clip310)" d="M727.077 1694.28 L715.271 1712.73 L727.077 1712.73 L727.077 1694.28 M725.85 1690.21 L731.729 1690.21 L731.729 1712.73 L736.66 1712.73 L736.66 1716.62 L731.729 1716.62 L731.729 1724.77 L727.077 1724.77 L727.077 1716.62 L711.475 1716.62 L711.475 1712.11 L725.85 1690.21 Z" fill="#000000" fill-rule="nonzero" fill-opacity="1" /><path clip-path="url(#clip310)" d="M1000.35 1693.29 Q996.736 1693.29 994.908 1696.85 Q993.102 1700.39 993.102 1707.52 Q993.102 1714.63 994.908 1718.19 Q996.736 1721.74 1000.35 1721.74 Q1003.98 1721.74 1005.79 1718.19 Q1007.62 1714.63 1007.62 1707.52 Q1007.62 1700.39 1005.79 1696.85 Q1003.98 1693.29 1000.35 1693.29 M1000.35 1689.58 Q1006.16 1689.58 1009.21 1694.19 Q1012.29 1698.77 1012.29 1707.52 Q1012.29 1716.25 1009.21 1720.86 Q1006.16 1725.44 1000.35 1725.44 Q994.537 1725.44 991.459 1720.86 Q988.403 1716.25 988.403 1707.52 Q988.403 1698.77 991.459 1694.19 Q994.537 1689.58 1000.35 1689.58 Z" fill="#000000" fill-rule="nonzero" fill-opacity="1" /><path clip-path="url(#clip310)" d="M1020.51 1718.89 L1025.39 1718.89 L1025.39 1724.77 L1020.51 1724.77 L1020.51 1718.89 Z" fill="#000000" fill-rule="nonzero" fill-opacity="1" /><path clip-path="url(#clip310)" d="M1046.16 1705.62 Q1043.01 1705.62 1041.16 1707.78 Q1039.33 1709.93 1039.33 1713.68 Q1039.33 1717.41 1041.16 1719.58 Q1043.01 1721.74 1046.16 1721.74 Q1049.31 1721.74 1051.13 1719.58 Q1052.99 1717.41 1052.99 1713.68 Q1052.99 1709.93 1051.13 1707.78 Q1049.31 1705.62 1046.16 1705.62 M1055.44 1690.97 L1055.44 1695.23 Q1053.68 1694.4 1051.87 1693.96 Q1050.09 1693.52 1048.33 1693.52 Q1043.7 1693.52 1041.25 1696.64 Q1038.82 1699.77 1038.47 1706.09 Q1039.84 1704.07 1041.9 1703.01 Q1043.96 1701.92 1046.44 1701.92 Q1051.64 1701.92 1054.65 1705.09 Q1057.69 1708.24 1057.69 1713.68 Q1057.69 1719 1054.54 1722.22 Q1051.39 1725.44 1046.16 1725.44 Q1040.16 1725.44 1036.99 1720.86 Q1033.82 1716.25 1033.82 1707.52 Q1033.82 1699.33 1037.71 1694.47 Q1041.6 1689.58 1048.15 1689.58 Q1049.91 1689.58 1051.69 1689.93 Q1053.5 1690.28 1055.44 1690.97 Z" fill="#000000" fill-rule="nonzero" fill-opacity="1" /><path clip-path="url(#clip310)" d="M1321.66 1693.29 Q1318.05 1693.29 1316.22 1696.85 Q1314.42 1700.39 1314.42 1707.52 Q1314.42 1714.63 1316.22 1718.19 Q1318.05 1721.74 1321.66 1721.74 Q1325.3 1721.74 1327.1 1718.19 Q1328.93 1714.63 1328.93 1707.52 Q1328.93 1700.39 1327.1 1696.85 Q1325.3 1693.29 1321.66 1693.29 M1321.66 1689.58 Q1327.47 1689.58 1330.53 1694.19 Q1333.61 1698.77 1333.61 1707.52 Q1333.61 1716.25 1330.53 1720.86 Q1327.47 1725.44 1321.66 1725.44 Q1315.85 1725.44 1312.77 1720.86 Q1309.72 1716.25 1309.72 1707.52 Q1309.72 1698.77 1312.77 1694.19 Q1315.85 1689.58 1321.66 1689.58 Z" fill="#000000" fill-rule="nonzero" fill-opacity="1" /><path clip-path="url(#clip310)" d="M1341.82 1718.89 L1346.71 1718.89 L1346.71 1724.77 L1341.82 1724.77 L1341.82 1718.89 Z" fill="#000000" fill-rule="nonzero" fill-opacity="1" /><path clip-path="url(#clip310)" d="M1366.89 1708.36 Q1363.56 1708.36 1361.64 1710.14 Q1359.74 1711.92 1359.74 1715.05 Q1359.74 1718.17 1361.64 1719.95 Q1363.56 1721.74 1366.89 1721.74 Q1370.23 1721.74 1372.15 1719.95 Q1374.07 1718.15 1374.07 1715.05 Q1374.07 1711.92 1372.15 1710.14 Q1370.25 1708.36 1366.89 1708.36 M1362.22 1706.37 Q1359.21 1705.62 1357.52 1703.56 Q1355.85 1701.5 1355.85 1698.54 Q1355.85 1694.4 1358.79 1691.99 Q1361.75 1689.58 1366.89 1689.58 Q1372.06 1689.58 1375 1691.99 Q1377.93 1694.4 1377.93 1698.54 Q1377.93 1701.5 1376.25 1703.56 Q1374.58 1705.62 1371.59 1706.37 Q1374.97 1707.15 1376.85 1709.44 Q1378.75 1711.74 1378.75 1715.05 Q1378.75 1720.07 1375.67 1722.75 Q1372.61 1725.44 1366.89 1725.44 Q1361.18 1725.44 1358.1 1722.75 Q1355.04 1720.07 1355.04 1715.05 Q1355.04 1711.74 1356.94 1709.44 Q1358.84 1707.15 1362.22 1706.37 M1360.5 1698.98 Q1360.5 1701.67 1362.17 1703.17 Q1363.86 1704.68 1366.89 1704.68 Q1369.9 1704.68 1371.59 1703.17 Q1373.31 1701.67 1373.31 1698.98 Q1373.31 1696.3 1371.59 1694.79 Q1369.9 1693.29 1366.89 1693.29 Q1363.86 1693.29 1362.17 1694.79 Q1360.5 1696.3 1360.5 1698.98 Z" fill="#000000" fill-rule="nonzero" fill-opacity="1" /><path clip-path="url(#clip310)" d="M1632.57 1720.83 L1640.21 1720.83 L1640.21 1694.47 L1631.9 1696.13 L1631.9 1691.87 L1640.16 1690.21 L1644.84 1690.21 L1644.84 1720.83 L1652.48 1720.83 L1652.48 1724.77 L1632.57 1724.77 L1632.57 1720.83 Z" fill="#000000" fill-rule="nonzero" fill-opacity="1" /><path clip-path="url(#clip310)" d="M1661.92 1718.89 L1666.81 1718.89 L1666.81 1724.77 L1661.92 1724.77 L1661.92 1718.89 Z" fill="#000000" fill-rule="nonzero" fill-opacity="1" /><path clip-path="url(#clip310)" d="M1686.99 1693.29 Q1683.38 1693.29 1681.55 1696.85 Q1679.75 1700.39 1679.75 1707.52 Q1679.75 1714.63 1681.55 1718.19 Q1683.38 1721.74 1686.99 1721.74 Q1690.63 1721.74 1692.43 1718.19 Q1694.26 1714.63 1694.26 1707.52 Q1694.26 1700.39 1692.43 1696.85 Q1690.63 1693.29 1686.99 1693.29 M1686.99 1689.58 Q1692.8 1689.58 1695.86 1694.19 Q1698.94 1698.77 1698.94 1707.52 Q1698.94 1716.25 1695.86 1720.86 Q1692.8 1725.44 1686.99 1725.44 Q1681.18 1725.44 1678.1 1720.86 Q1675.05 1716.25 1675.05 1707.52 Q1675.05 1698.77 1678.1 1694.19 Q1681.18 1689.58 1686.99 1689.58 Z" fill="#000000" fill-rule="nonzero" fill-opacity="1" /><polyline clip-path="url(#clip312)" style="stroke:#000000; stroke-linecap:round; stroke-linejoin:round; stroke-width:2; stroke-opacity:0.1; fill:none" points="164.857,1667.17 1752.76,1667.17 "/>
<polyline clip-path="url(#clip312)" style="stroke:#000000; stroke-linecap:round; stroke-linejoin:round; stroke-width:2; stroke-opacity:0.1; fill:none" points="164.857,1175.79 1752.76,1175.79 "/>
<polyline clip-path="url(#clip312)" style="stroke:#000000; stroke-linecap:round; stroke-linejoin:round; stroke-width:2; stroke-opacity:0.1; fill:none" points="164.857,684.404 1752.76,684.404 "/>
<polyline clip-path="url(#clip312)" style="stroke:#000000; stroke-linecap:round; stroke-linejoin:round; stroke-width:2; stroke-opacity:0.1; fill:none" points="164.857,193.023 1752.76,193.023 "/>
<polyline clip-path="url(#clip310)" style="stroke:#000000; stroke-linecap:round; stroke-linejoin:round; stroke-width:4; stroke-opacity:1; fill:none" points="164.857,1667.17 164.857,153.712 "/>
<polyline clip-path="url(#clip310)" style="stroke:#000000; stroke-linecap:round; stroke-linejoin:round; stroke-width:4; stroke-opacity:1; fill:none" points="164.857,1667.17 183.755,1667.17 "/>
<polyline clip-path="url(#clip310)" style="stroke:#000000; stroke-linecap:round; stroke-linejoin:round; stroke-width:4; stroke-opacity:1; fill:none" points="164.857,1175.79 183.755,1175.79 "/>
<polyline clip-path="url(#clip310)" style="stroke:#000000; stroke-linecap:round; stroke-linejoin:round; stroke-width:4; stroke-opacity:1; fill:none" points="164.857,684.404 183.755,684.404 "/>
<polyline clip-path="url(#clip310)" style="stroke:#000000; stroke-linecap:round; stroke-linejoin:round; stroke-width:4; stroke-opacity:1; fill:none" points="164.857,193.023 183.755,193.023 "/>
<path clip-path="url(#clip310)" d="M125.913 1652.97 Q122.302 1652.97 120.473 1656.53 Q118.668 1660.07 118.668 1667.2 Q118.668 1674.31 120.473 1677.87 Q122.302 1681.42 125.913 1681.42 Q129.547 1681.42 131.353 1677.87 Q133.182 1674.31 133.182 1667.2 Q133.182 1660.07 131.353 1656.53 Q129.547 1652.97 125.913 1652.97 M125.913 1649.26 Q131.723 1649.26 134.779 1653.87 Q137.857 1658.45 137.857 1667.2 Q137.857 1675.93 134.779 1680.54 Q131.723 1685.12 125.913 1685.12 Q120.103 1685.12 117.024 1680.54 Q113.969 1675.93 113.969 1667.2 Q113.969 1658.45 117.024 1653.87 Q120.103 1649.26 125.913 1649.26 Z" fill="#000000" fill-rule="nonzero" fill-opacity="1" /><path clip-path="url(#clip310)" d="M56.3995 1189.13 L64.0384 1189.13 L64.0384 1162.77 L55.7282 1164.43 L55.7282 1160.17 L63.9921 1158.51 L68.668 1158.51 L68.668 1189.13 L76.3068 1189.13 L76.3068 1193.07 L56.3995 1193.07 L56.3995 1189.13 Z" fill="#000000" fill-rule="nonzero" fill-opacity="1" /><path clip-path="url(#clip310)" d="M95.7512 1161.58 Q92.1401 1161.58 90.3114 1165.15 Q88.5058 1168.69 88.5058 1175.82 Q88.5058 1182.93 90.3114 1186.49 Q92.1401 1190.03 95.7512 1190.03 Q99.3854 1190.03 101.191 1186.49 Q103.02 1182.93 103.02 1175.82 Q103.02 1168.69 101.191 1165.15 Q99.3854 1161.58 95.7512 1161.58 M95.7512 1157.88 Q101.561 1157.88 104.617 1162.49 Q107.696 1167.07 107.696 1175.82 Q107.696 1184.55 104.617 1189.15 Q101.561 1193.74 95.7512 1193.74 Q89.941 1193.74 86.8623 1189.15 Q83.8068 1184.55 83.8068 1175.82 Q83.8068 1167.07 86.8623 1162.49 Q89.941 1157.88 95.7512 1157.88 Z" fill="#000000" fill-rule="nonzero" fill-opacity="1" /><path clip-path="url(#clip310)" d="M125.913 1161.58 Q122.302 1161.58 120.473 1165.15 Q118.668 1168.69 118.668 1175.82 Q118.668 1182.93 120.473 1186.49 Q122.302 1190.03 125.913 1190.03 Q129.547 1190.03 131.353 1186.49 Q133.182 1182.93 133.182 1175.82 Q133.182 1168.69 131.353 1165.15 Q129.547 1161.58 125.913 1161.58 M125.913 1157.88 Q131.723 1157.88 134.779 1162.49 Q137.857 1167.07 137.857 1175.82 Q137.857 1184.55 134.779 1189.15 Q131.723 1193.74 125.913 1193.74 Q120.103 1193.74 117.024 1189.15 Q113.969 1184.55 113.969 1175.82 Q113.969 1167.07 117.024 1162.49 Q120.103 1157.88 125.913 1157.88 Z" fill="#000000" fill-rule="nonzero" fill-opacity="1" /><path clip-path="url(#clip310)" d="M59.6171 697.749 L75.9365 697.749 L75.9365 701.684 L53.9921 701.684 L53.9921 697.749 Q56.6541 694.995 61.2375 690.365 Q65.8439 685.712 67.0245 684.37 Q69.2698 681.847 70.1494 680.11 Q71.0522 678.351 71.0522 676.661 Q71.0522 673.907 69.1078 672.171 Q67.1865 670.435 64.0847 670.435 Q61.8856 670.435 59.4319 671.198 Q57.0014 671.962 54.2236 673.513 L54.2236 668.791 Q57.0477 667.657 59.5014 667.078 Q61.955 666.499 63.9921 666.499 Q69.3624 666.499 72.5568 669.185 Q75.7513 671.87 75.7513 676.36 Q75.7513 678.49 74.9411 680.411 Q74.1541 682.31 72.0476 684.902 Q71.4689 685.573 68.367 688.791 Q65.2652 691.985 59.6171 697.749 Z" fill="#000000" fill-rule="nonzero" fill-opacity="1" /><path clip-path="url(#clip310)" d="M95.7512 670.203 Q92.1401 670.203 90.3114 673.768 Q88.5058 677.31 88.5058 684.439 Q88.5058 691.546 90.3114 695.11 Q92.1401 698.652 95.7512 698.652 Q99.3854 698.652 101.191 695.11 Q103.02 691.546 103.02 684.439 Q103.02 677.31 101.191 673.768 Q99.3854 670.203 95.7512 670.203 M95.7512 666.499 Q101.561 666.499 104.617 671.106 Q107.696 675.689 107.696 684.439 Q107.696 693.166 104.617 697.772 Q101.561 702.356 95.7512 702.356 Q89.941 702.356 86.8623 697.772 Q83.8068 693.166 83.8068 684.439 Q83.8068 675.689 86.8623 671.106 Q89.941 666.499 95.7512 666.499 Z" fill="#000000" fill-rule="nonzero" fill-opacity="1" /><path clip-path="url(#clip310)" d="M125.913 670.203 Q122.302 670.203 120.473 673.768 Q118.668 677.31 118.668 684.439 Q118.668 691.546 120.473 695.11 Q122.302 698.652 125.913 698.652 Q129.547 698.652 131.353 695.11 Q133.182 691.546 133.182 684.439 Q133.182 677.31 131.353 673.768 Q129.547 670.203 125.913 670.203 M125.913 666.499 Q131.723 666.499 134.779 671.106 Q137.857 675.689 137.857 684.439 Q137.857 693.166 134.779 697.772 Q131.723 702.356 125.913 702.356 Q120.103 702.356 117.024 697.772 Q113.969 693.166 113.969 684.439 Q113.969 675.689 117.024 671.106 Q120.103 666.499 125.913 666.499 Z" fill="#000000" fill-rule="nonzero" fill-opacity="1" /><path clip-path="url(#clip310)" d="M69.7559 191.669 Q73.1124 192.386 74.9874 194.655 Q76.8855 196.923 76.8855 200.256 Q76.8855 205.372 73.367 208.173 Q69.8485 210.974 63.3671 210.974 Q61.1912 210.974 58.8764 210.534 Q56.5847 210.117 54.131 209.261 L54.131 204.747 Q56.0754 205.881 58.3903 206.46 Q60.7051 207.039 63.2282 207.039 Q67.6263 207.039 69.918 205.303 Q72.2328 203.567 72.2328 200.256 Q72.2328 197.201 70.08 195.488 Q67.9504 193.752 64.131 193.752 L60.1032 193.752 L60.1032 189.909 L64.3161 189.909 Q67.7652 189.909 69.5939 188.544 Q71.4226 187.155 71.4226 184.562 Q71.4226 181.9 69.5245 180.488 Q67.6495 179.053 64.131 179.053 Q62.2097 179.053 60.0106 179.469 Q57.8115 179.886 55.1727 180.766 L55.1727 176.599 Q57.8347 175.858 60.1495 175.488 Q62.4875 175.118 64.5476 175.118 Q69.8717 175.118 72.9735 177.548 Q76.0753 179.956 76.0753 184.076 Q76.0753 186.946 74.4318 188.937 Q72.7883 190.905 69.7559 191.669 Z" fill="#000000" fill-rule="nonzero" fill-opacity="1" /><path clip-path="url(#clip310)" d="M95.7512 178.821 Q92.1401 178.821 90.3114 182.386 Q88.5058 185.928 88.5058 193.057 Q88.5058 200.164 90.3114 203.729 Q92.1401 207.27 95.7512 207.27 Q99.3854 207.27 101.191 203.729 Q103.02 200.164 103.02 193.057 Q103.02 185.928 101.191 182.386 Q99.3854 178.821 95.7512 178.821 M95.7512 175.118 Q101.561 175.118 104.617 179.724 Q107.696 184.307 107.696 193.057 Q107.696 201.784 104.617 206.391 Q101.561 210.974 95.7512 210.974 Q89.941 210.974 86.8623 206.391 Q83.8068 201.784 83.8068 193.057 Q83.8068 184.307 86.8623 179.724 Q89.941 175.118 95.7512 175.118 Z" fill="#000000" fill-rule="nonzero" fill-opacity="1" /><path clip-path="url(#clip310)" d="M125.913 178.821 Q122.302 178.821 120.473 182.386 Q118.668 185.928 118.668 193.057 Q118.668 200.164 120.473 203.729 Q122.302 207.27 125.913 207.27 Q129.547 207.27 131.353 203.729 Q133.182 200.164 133.182 193.057 Q133.182 185.928 131.353 182.386 Q129.547 178.821 125.913 178.821 M125.913 175.118 Q131.723 175.118 134.779 179.724 Q137.857 184.307 137.857 193.057 Q137.857 201.784 134.779 206.391 Q131.723 210.974 125.913 210.974 Q120.103 210.974 117.024 206.391 Q113.969 201.784 113.969 193.057 Q113.969 184.307 117.024 179.724 Q120.103 175.118 125.913 175.118 Z" fill="#000000" fill-rule="nonzero" fill-opacity="1" /><path clip-path="url(#clip310)" d="M639.008 18.8205 L639.008 41.5461 L649.297 41.5461 Q655.009 41.5461 658.128 38.5889 Q661.247 35.6318 661.247 30.163 Q661.247 24.7348 658.128 21.7777 Q655.009 18.8205 649.297 18.8205 L639.008 18.8205 M630.825 12.096 L649.297 12.096 Q659.465 12.096 664.65 16.714 Q669.876 21.2916 669.876 30.163 Q669.876 39.1155 664.65 43.6931 Q659.465 48.2706 649.297 48.2706 L639.008 48.2706 L639.008 72.576 L630.825 72.576 L630.825 12.096 Z" fill="#000000" fill-rule="nonzero" fill-opacity="1" /><path clip-path="url(#clip310)" d="M705.362 34.1734 Q704.106 33.4443 702.607 33.1202 Q701.149 32.7556 699.367 32.7556 Q693.047 32.7556 689.644 36.8875 Q686.282 40.9789 686.282 48.6757 L686.282 72.576 L678.788 72.576 L678.788 27.2059 L686.282 27.2059 L686.282 34.2544 Q688.632 30.1225 692.399 28.1376 Q696.166 26.1121 701.554 26.1121 Q702.324 26.1121 703.255 26.2337 Q704.187 26.3147 705.321 26.5172 L705.362 34.1734 Z" fill="#000000" fill-rule="nonzero" fill-opacity="1" /><path clip-path="url(#clip310)" d="M713.18 27.2059 L720.634 27.2059 L720.634 72.576 L713.18 72.576 L713.18 27.2059 M713.18 9.54393 L720.634 9.54393 L720.634 18.9825 L713.18 18.9825 L713.18 9.54393 Z" fill="#000000" fill-rule="nonzero" fill-opacity="1" /><path clip-path="url(#clip310)" d="M753.811 32.4315 Q747.815 32.4315 744.332 37.1306 Q740.848 41.7891 740.848 49.9314 Q740.848 58.0738 744.291 62.7728 Q747.775 67.4314 753.811 67.4314 Q759.765 67.4314 763.249 62.7323 Q766.733 58.0333 766.733 49.9314 Q766.733 41.8701 763.249 37.1711 Q759.765 32.4315 753.811 32.4315 M753.811 26.1121 Q763.533 26.1121 769.083 32.4315 Q774.632 38.7509 774.632 49.9314 Q774.632 61.0714 769.083 67.4314 Q763.533 73.7508 753.811 73.7508 Q744.048 73.7508 738.498 67.4314 Q732.989 61.0714 732.989 49.9314 Q732.989 38.7509 738.498 32.4315 Q744.048 26.1121 753.811 26.1121 Z" fill="#000000" fill-rule="nonzero" fill-opacity="1" /><path clip-path="url(#clip310)" d="M813.278 34.1734 Q812.022 33.4443 810.523 33.1202 Q809.065 32.7556 807.283 32.7556 Q800.963 32.7556 797.56 36.8875 Q794.198 40.9789 794.198 48.6757 L794.198 72.576 L786.704 72.576 L786.704 27.2059 L794.198 27.2059 L794.198 34.2544 Q796.548 30.1225 800.315 28.1376 Q804.082 26.1121 809.47 26.1121 Q810.24 26.1121 811.171 26.2337 Q812.103 26.3147 813.237 26.5172 L813.278 34.1734 Z" fill="#000000" fill-rule="nonzero" fill-opacity="1" /><path clip-path="url(#clip310)" d="M865.048 32.4315 Q859.053 32.4315 855.569 37.1306 Q852.086 41.7891 852.086 49.9314 Q852.086 58.0738 855.529 62.7728 Q859.013 67.4314 865.048 67.4314 Q871.003 67.4314 874.487 62.7323 Q877.971 58.0333 877.971 49.9314 Q877.971 41.8701 874.487 37.1711 Q871.003 32.4315 865.048 32.4315 M865.048 26.1121 Q874.771 26.1121 880.32 32.4315 Q885.87 38.7509 885.87 49.9314 Q885.87 61.0714 880.32 67.4314 Q874.771 73.7508 865.048 73.7508 Q855.286 73.7508 849.736 67.4314 Q844.227 61.0714 844.227 49.9314 Q844.227 38.7509 849.736 32.4315 Q855.286 26.1121 865.048 26.1121 Z" fill="#000000" fill-rule="nonzero" fill-opacity="1" /><path clip-path="url(#clip310)" d="M921.194 9.54393 L921.194 15.7418 L914.064 15.7418 Q910.054 15.7418 908.474 17.3622 Q906.935 18.9825 906.935 23.1955 L906.935 27.2059 L919.209 27.2059 L919.209 32.9987 L906.935 32.9987 L906.935 72.576 L899.441 72.576 L899.441 32.9987 L892.311 32.9987 L892.311 27.2059 L899.441 27.2059 L899.441 24.0462 Q899.441 16.471 902.965 13.0277 Q906.489 9.54393 914.145 9.54393 L921.194 9.54393 Z" fill="#000000" fill-rule="nonzero" fill-opacity="1" /><path clip-path="url(#clip310)" d="M982.727 28.5427 L982.727 35.5912 Q979.568 33.9709 976.165 33.1607 Q972.762 32.3505 969.116 32.3505 Q963.566 32.3505 960.771 34.0519 Q958.017 35.7533 958.017 39.156 Q958.017 41.7486 960.002 43.2475 Q961.987 44.7058 967.982 46.0426 L970.534 46.6097 Q978.474 48.3111 981.796 51.4303 Q985.158 54.509 985.158 60.0587 Q985.158 66.3781 980.135 70.0644 Q975.152 73.7508 966.402 73.7508 Q962.756 73.7508 958.786 73.0216 Q954.857 72.3329 950.482 70.9151 L950.482 63.2184 Q954.614 65.3654 958.624 66.4591 Q962.635 67.5124 966.564 67.5124 Q971.83 67.5124 974.666 65.73 Q977.502 63.9071 977.502 60.6258 Q977.502 57.5877 975.436 55.9673 Q973.41 54.3469 966.483 52.8481 L963.891 52.2405 Q956.964 50.7821 953.885 47.7845 Q950.806 44.7463 950.806 39.4801 Q950.806 33.0797 955.343 29.5959 Q959.88 26.1121 968.225 26.1121 Q972.357 26.1121 976.003 26.7198 Q979.649 27.3274 982.727 28.5427 Z" fill="#000000" fill-rule="nonzero" fill-opacity="1" /><path clip-path="url(#clip310)" d="M1017.65 49.7694 Q1008.61 49.7694 1005.13 51.8354 Q1001.64 53.9013 1001.64 58.8839 Q1001.64 62.8538 1004.24 65.2034 Q1006.87 67.5124 1011.37 67.5124 Q1017.57 67.5124 1021.29 63.1374 Q1025.06 58.7219 1025.06 51.4303 L1025.06 49.7694 L1017.65 49.7694 M1032.51 46.6907 L1032.51 72.576 L1025.06 72.576 L1025.06 65.6895 Q1022.51 69.8214 1018.7 71.8063 Q1014.89 73.7508 1009.38 73.7508 Q1002.41 73.7508 998.283 69.8619 Q994.191 65.9325 994.191 59.3701 Q994.191 51.7138 999.295 47.825 Q1004.44 43.9361 1014.61 43.9361 L1025.06 43.9361 L1025.06 43.2069 Q1025.06 38.0623 1021.66 35.2672 Q1018.29 32.4315 1012.18 32.4315 Q1008.29 32.4315 1004.6 33.3632 Q1000.92 34.295 997.513 36.1584 L997.513 29.2718 Q1001.6 27.692 1005.45 26.9223 Q1009.3 26.1121 1012.95 26.1121 Q1022.79 26.1121 1027.65 31.2163 Q1032.51 36.3204 1032.51 46.6907 Z" fill="#000000" fill-rule="nonzero" fill-opacity="1" /><path clip-path="url(#clip310)" d="M1083.19 35.9153 Q1085.98 30.8922 1089.87 28.5022 Q1093.76 26.1121 1099.03 26.1121 Q1106.12 26.1121 1109.97 31.0947 Q1113.81 36.0368 1113.81 45.1919 L1113.81 72.576 L1106.32 72.576 L1106.32 45.4349 Q1106.32 38.913 1104.01 35.7533 Q1101.7 32.5936 1096.96 32.5936 Q1091.17 32.5936 1087.81 36.4419 Q1084.45 40.2903 1084.45 46.9338 L1084.45 72.576 L1076.95 72.576 L1076.95 45.4349 Q1076.95 38.8725 1074.64 35.7533 Q1072.33 32.5936 1067.51 32.5936 Q1061.8 32.5936 1058.44 36.4824 Q1055.08 40.3308 1055.08 46.9338 L1055.08 72.576 L1047.58 72.576 L1047.58 27.2059 L1055.08 27.2059 L1055.08 34.2544 Q1057.63 30.082 1061.19 28.0971 Q1064.76 26.1121 1069.66 26.1121 Q1074.6 26.1121 1078.05 28.6237 Q1081.53 31.1352 1083.19 35.9153 Z" fill="#000000" fill-rule="nonzero" fill-opacity="1" /><path clip-path="url(#clip310)" d="M1135.89 65.7705 L1135.89 89.8329 L1128.4 89.8329 L1128.4 27.2059 L1135.89 27.2059 L1135.89 34.0924 Q1138.24 30.0415 1141.81 28.0971 Q1145.41 26.1121 1150.39 26.1121 Q1158.66 26.1121 1163.8 32.6746 Q1168.99 39.2371 1168.99 49.9314 Q1168.99 60.6258 1163.8 67.1883 Q1158.66 73.7508 1150.39 73.7508 Q1145.41 73.7508 1141.81 71.8063 Q1138.24 69.8214 1135.89 65.7705 M1161.25 49.9314 Q1161.25 41.7081 1157.85 37.0496 Q1154.49 32.3505 1148.57 32.3505 Q1142.66 32.3505 1139.25 37.0496 Q1135.89 41.7081 1135.89 49.9314 Q1135.89 58.1548 1139.25 62.8538 Q1142.66 67.5124 1148.57 67.5124 Q1154.49 67.5124 1157.85 62.8538 Q1161.25 58.1548 1161.25 49.9314 Z" fill="#000000" fill-rule="nonzero" fill-opacity="1" /><path clip-path="url(#clip310)" d="M1181.34 9.54393 L1188.8 9.54393 L1188.8 72.576 L1181.34 72.576 L1181.34 9.54393 Z" fill="#000000" fill-rule="nonzero" fill-opacity="1" /><path clip-path="url(#clip310)" d="M1243.2 48.0275 L1243.2 51.6733 L1208.93 51.6733 Q1209.42 59.3701 1213.55 63.421 Q1217.72 67.4314 1225.13 67.4314 Q1229.43 67.4314 1233.44 66.3781 Q1237.49 65.3249 1241.46 63.2184 L1241.46 70.267 Q1237.45 71.9684 1233.24 72.8596 Q1229.02 73.7508 1224.69 73.7508 Q1213.83 73.7508 1207.47 67.4314 Q1201.15 61.1119 1201.15 50.3365 Q1201.15 39.1965 1207.15 32.6746 Q1213.18 26.1121 1223.39 26.1121 Q1232.55 26.1121 1237.85 32.0264 Q1243.2 37.9003 1243.2 48.0275 M1235.75 45.84 Q1235.67 39.7232 1232.3 36.0774 Q1228.98 32.4315 1223.47 32.4315 Q1217.23 32.4315 1213.47 35.9558 Q1209.74 39.4801 1209.17 45.8805 L1235.75 45.84 Z" fill="#000000" fill-rule="nonzero" fill-opacity="1" /><path clip-path="url(#clip310)" d="M1284.36 28.5427 L1284.36 35.5912 Q1281.2 33.9709 1277.8 33.1607 Q1274.39 32.3505 1270.75 32.3505 Q1265.2 32.3505 1262.4 34.0519 Q1259.65 35.7533 1259.65 39.156 Q1259.65 41.7486 1261.63 43.2475 Q1263.62 44.7058 1269.61 46.0426 L1272.16 46.6097 Q1280.1 48.3111 1283.43 51.4303 Q1286.79 54.509 1286.79 60.0587 Q1286.79 66.3781 1281.77 70.0644 Q1276.78 73.7508 1268.03 73.7508 Q1264.39 73.7508 1260.42 73.0216 Q1256.49 72.3329 1252.11 70.9151 L1252.11 63.2184 Q1256.24 65.3654 1260.25 66.4591 Q1264.27 67.5124 1268.19 67.5124 Q1273.46 67.5124 1276.3 65.73 Q1279.13 63.9071 1279.13 60.6258 Q1279.13 57.5877 1277.07 55.9673 Q1275.04 54.3469 1268.11 52.8481 L1265.52 52.2405 Q1258.59 50.7821 1255.52 47.7845 Q1252.44 44.7463 1252.44 39.4801 Q1252.44 33.0797 1256.97 29.5959 Q1261.51 26.1121 1269.86 26.1121 Q1273.99 26.1121 1277.63 26.7198 Q1281.28 27.3274 1284.36 28.5427 Z" fill="#000000" fill-rule="nonzero" fill-opacity="1" /><path clip-path="url(#clip312)" d="M252.195 1662.25 L252.195 1667.17 L284.313 1667.17 L284.313 1662.25 L252.195 1662.25 L252.195 1662.25  Z" fill="#009af9" fill-rule="evenodd" fill-opacity="1"/>
<polyline clip-path="url(#clip312)" style="stroke:#000000; stroke-linecap:round; stroke-linejoin:round; stroke-width:8; stroke-opacity:1; fill:none" points="252.195,1662.25 252.195,1667.17 284.313,1667.17 284.313,1662.25 252.195,1662.25 "/>
<path clip-path="url(#clip312)" d="M284.313 1662.25 L284.313 1667.17 L316.432 1667.17 L316.432 1662.25 L284.313 1662.25 L284.313 1662.25  Z" fill="#009af9" fill-rule="evenodd" fill-opacity="1"/>
<polyline clip-path="url(#clip312)" style="stroke:#000000; stroke-linecap:round; stroke-linejoin:round; stroke-width:8; stroke-opacity:1; fill:none" points="284.313,1662.25 284.313,1667.17 316.432,1667.17 316.432,1662.25 284.313,1662.25 "/>
<path clip-path="url(#clip312)" d="M316.432 1652.43 L316.432 1667.17 L348.551 1667.17 L348.551 1652.43 L316.432 1652.43 L316.432 1652.43  Z" fill="#009af9" fill-rule="evenodd" fill-opacity="1"/>
<polyline clip-path="url(#clip312)" style="stroke:#000000; stroke-linecap:round; stroke-linejoin:round; stroke-width:8; stroke-opacity:1; fill:none" points="316.432,1652.43 316.432,1667.17 348.551,1667.17 348.551,1652.43 316.432,1652.43 "/>
<path clip-path="url(#clip312)" d="M348.551 1647.51 L348.551 1667.17 L380.67 1667.17 L380.67 1647.51 L348.551 1647.51 L348.551 1647.51  Z" fill="#009af9" fill-rule="evenodd" fill-opacity="1"/>
<polyline clip-path="url(#clip312)" style="stroke:#000000; stroke-linecap:round; stroke-linejoin:round; stroke-width:8; stroke-opacity:1; fill:none" points="348.551,1647.51 348.551,1667.17 380.67,1667.17 380.67,1647.51 348.551,1647.51 "/>
<path clip-path="url(#clip312)" d="M380.67 1637.68 L380.67 1667.17 L412.788 1667.17 L412.788 1637.68 L380.67 1637.68 L380.67 1637.68  Z" fill="#009af9" fill-rule="evenodd" fill-opacity="1"/>
<polyline clip-path="url(#clip312)" style="stroke:#000000; stroke-linecap:round; stroke-linejoin:round; stroke-width:8; stroke-opacity:1; fill:none" points="380.67,1637.68 380.67,1667.17 412.788,1667.17 412.788,1637.68 380.67,1637.68 "/>
<path clip-path="url(#clip312)" d="M412.788 1637.68 L412.788 1667.17 L444.907 1667.17 L444.907 1637.68 L412.788 1637.68 L412.788 1637.68  Z" fill="#009af9" fill-rule="evenodd" fill-opacity="1"/>
<polyline clip-path="url(#clip312)" style="stroke:#000000; stroke-linecap:round; stroke-linejoin:round; stroke-width:8; stroke-opacity:1; fill:none" points="412.788,1637.68 412.788,1667.17 444.907,1667.17 444.907,1637.68 412.788,1637.68 "/>
<path clip-path="url(#clip312)" d="M444.907 1618.03 L444.907 1667.17 L477.026 1667.17 L477.026 1618.03 L444.907 1618.03 L444.907 1618.03  Z" fill="#009af9" fill-rule="evenodd" fill-opacity="1"/>
<polyline clip-path="url(#clip312)" style="stroke:#000000; stroke-linecap:round; stroke-linejoin:round; stroke-width:8; stroke-opacity:1; fill:none" points="444.907,1618.03 444.907,1667.17 477.026,1667.17 477.026,1618.03 444.907,1618.03 "/>
<path clip-path="url(#clip312)" d="M477.026 1637.68 L477.026 1667.17 L509.144 1667.17 L509.144 1637.68 L477.026 1637.68 L477.026 1637.68  Z" fill="#009af9" fill-rule="evenodd" fill-opacity="1"/>
<polyline clip-path="url(#clip312)" style="stroke:#000000; stroke-linecap:round; stroke-linejoin:round; stroke-width:8; stroke-opacity:1; fill:none" points="477.026,1637.68 477.026,1667.17 509.144,1667.17 509.144,1637.68 477.026,1637.68 "/>
<path clip-path="url(#clip312)" d="M509.144 1568.89 L509.144 1667.17 L541.263 1667.17 L541.263 1568.89 L509.144 1568.89 L509.144 1568.89  Z" fill="#009af9" fill-rule="evenodd" fill-opacity="1"/>
<polyline clip-path="url(#clip312)" style="stroke:#000000; stroke-linecap:round; stroke-linejoin:round; stroke-width:8; stroke-opacity:1; fill:none" points="509.144,1568.89 509.144,1667.17 541.263,1667.17 541.263,1568.89 509.144,1568.89 "/>
<path clip-path="url(#clip312)" d="M541.263 1544.32 L541.263 1667.17 L573.382 1667.17 L573.382 1544.32 L541.263 1544.32 L541.263 1544.32  Z" fill="#009af9" fill-rule="evenodd" fill-opacity="1"/>
<polyline clip-path="url(#clip312)" style="stroke:#000000; stroke-linecap:round; stroke-linejoin:round; stroke-width:8; stroke-opacity:1; fill:none" points="541.263,1544.32 541.263,1667.17 573.382,1667.17 573.382,1544.32 541.263,1544.32 "/>
<path clip-path="url(#clip312)" d="M573.382 1559.06 L573.382 1667.17 L605.501 1667.17 L605.501 1559.06 L573.382 1559.06 L573.382 1559.06  Z" fill="#009af9" fill-rule="evenodd" fill-opacity="1"/>
<polyline clip-path="url(#clip312)" style="stroke:#000000; stroke-linecap:round; stroke-linejoin:round; stroke-width:8; stroke-opacity:1; fill:none" points="573.382,1559.06 573.382,1667.17 605.501,1667.17 605.501,1559.06 573.382,1559.06 "/>
<path clip-path="url(#clip312)" d="M605.501 1529.58 L605.501 1667.17 L637.619 1667.17 L637.619 1529.58 L605.501 1529.58 L605.501 1529.58  Z" fill="#009af9" fill-rule="evenodd" fill-opacity="1"/>
<polyline clip-path="url(#clip312)" style="stroke:#000000; stroke-linecap:round; stroke-linejoin:round; stroke-width:8; stroke-opacity:1; fill:none" points="605.501,1529.58 605.501,1667.17 637.619,1667.17 637.619,1529.58 605.501,1529.58 "/>
<path clip-path="url(#clip312)" d="M637.619 1519.75 L637.619 1667.17 L669.738 1667.17 L669.738 1519.75 L637.619 1519.75 L637.619 1519.75  Z" fill="#009af9" fill-rule="evenodd" fill-opacity="1"/>
<polyline clip-path="url(#clip312)" style="stroke:#000000; stroke-linecap:round; stroke-linejoin:round; stroke-width:8; stroke-opacity:1; fill:none" points="637.619,1519.75 637.619,1667.17 669.738,1667.17 669.738,1519.75 637.619,1519.75 "/>
<path clip-path="url(#clip312)" d="M669.738 1416.56 L669.738 1667.17 L701.857 1667.17 L701.857 1416.56 L669.738 1416.56 L669.738 1416.56  Z" fill="#009af9" fill-rule="evenodd" fill-opacity="1"/>
<polyline clip-path="url(#clip312)" style="stroke:#000000; stroke-linecap:round; stroke-linejoin:round; stroke-width:8; stroke-opacity:1; fill:none" points="669.738,1416.56 669.738,1667.17 701.857,1667.17 701.857,1416.56 669.738,1416.56 "/>
<path clip-path="url(#clip312)" d="M701.857 1396.91 L701.857 1667.17 L733.976 1667.17 L733.976 1396.91 L701.857 1396.91 L701.857 1396.91  Z" fill="#009af9" fill-rule="evenodd" fill-opacity="1"/>
<polyline clip-path="url(#clip312)" style="stroke:#000000; stroke-linecap:round; stroke-linejoin:round; stroke-width:8; stroke-opacity:1; fill:none" points="701.857,1396.91 701.857,1667.17 733.976,1667.17 733.976,1396.91 701.857,1396.91 "/>
<path clip-path="url(#clip312)" d="M733.976 1446.05 L733.976 1667.17 L766.094 1667.17 L766.094 1446.05 L733.976 1446.05 L733.976 1446.05  Z" fill="#009af9" fill-rule="evenodd" fill-opacity="1"/>
<polyline clip-path="url(#clip312)" style="stroke:#000000; stroke-linecap:round; stroke-linejoin:round; stroke-width:8; stroke-opacity:1; fill:none" points="733.976,1446.05 733.976,1667.17 766.094,1667.17 766.094,1446.05 733.976,1446.05 "/>
<path clip-path="url(#clip312)" d="M766.094 1342.86 L766.094 1667.17 L798.213 1667.17 L798.213 1342.86 L766.094 1342.86 L766.094 1342.86  Z" fill="#009af9" fill-rule="evenodd" fill-opacity="1"/>
<polyline clip-path="url(#clip312)" style="stroke:#000000; stroke-linecap:round; stroke-linejoin:round; stroke-width:8; stroke-opacity:1; fill:none" points="766.094,1342.86 766.094,1667.17 798.213,1667.17 798.213,1342.86 766.094,1342.86 "/>
<path clip-path="url(#clip312)" d="M798.213 1293.72 L798.213 1667.17 L830.332 1667.17 L830.332 1293.72 L798.213 1293.72 L798.213 1293.72  Z" fill="#009af9" fill-rule="evenodd" fill-opacity="1"/>
<polyline clip-path="url(#clip312)" style="stroke:#000000; stroke-linecap:round; stroke-linejoin:round; stroke-width:8; stroke-opacity:1; fill:none" points="798.213,1293.72 798.213,1667.17 830.332,1667.17 830.332,1293.72 798.213,1293.72 "/>
<path clip-path="url(#clip312)" d="M830.332 1234.75 L830.332 1667.17 L862.45 1667.17 L862.45 1234.75 L830.332 1234.75 L830.332 1234.75  Z" fill="#009af9" fill-rule="evenodd" fill-opacity="1"/>
<polyline clip-path="url(#clip312)" style="stroke:#000000; stroke-linecap:round; stroke-linejoin:round; stroke-width:8; stroke-opacity:1; fill:none" points="830.332,1234.75 830.332,1667.17 862.45,1667.17 862.45,1234.75 830.332,1234.75 "/>
<path clip-path="url(#clip312)" d="M862.45 1151.22 L862.45 1667.17 L894.569 1667.17 L894.569 1151.22 L862.45 1151.22 L862.45 1151.22  Z" fill="#009af9" fill-rule="evenodd" fill-opacity="1"/>
<polyline clip-path="url(#clip312)" style="stroke:#000000; stroke-linecap:round; stroke-linejoin:round; stroke-width:8; stroke-opacity:1; fill:none" points="862.45,1151.22 862.45,1667.17 894.569,1667.17 894.569,1151.22 862.45,1151.22 "/>
<path clip-path="url(#clip312)" d="M894.569 1097.17 L894.569 1667.17 L926.688 1667.17 L926.688 1097.17 L894.569 1097.17 L894.569 1097.17  Z" fill="#009af9" fill-rule="evenodd" fill-opacity="1"/>
<polyline clip-path="url(#clip312)" style="stroke:#000000; stroke-linecap:round; stroke-linejoin:round; stroke-width:8; stroke-opacity:1; fill:none" points="894.569,1097.17 894.569,1667.17 926.688,1667.17 926.688,1097.17 894.569,1097.17 "/>
<path clip-path="url(#clip312)" d="M926.688 1087.34 L926.688 1667.17 L958.807 1667.17 L958.807 1087.34 L926.688 1087.34 L926.688 1087.34  Z" fill="#009af9" fill-rule="evenodd" fill-opacity="1"/>
<polyline clip-path="url(#clip312)" style="stroke:#000000; stroke-linecap:round; stroke-linejoin:round; stroke-width:8; stroke-opacity:1; fill:none" points="926.688,1087.34 926.688,1667.17 958.807,1667.17 958.807,1087.34 926.688,1087.34 "/>
<path clip-path="url(#clip312)" d="M958.807 925.181 L958.807 1667.17 L990.925 1667.17 L990.925 925.181 L958.807 925.181 L958.807 925.181  Z" fill="#009af9" fill-rule="evenodd" fill-opacity="1"/>
<polyline clip-path="url(#clip312)" style="stroke:#000000; stroke-linecap:round; stroke-linejoin:round; stroke-width:8; stroke-opacity:1; fill:none" points="958.807,925.181 958.807,1667.17 990.925,1667.17 990.925,925.181 958.807,925.181 "/>
<path clip-path="url(#clip312)" d="M990.925 846.56 L990.925 1667.17 L1023.04 1667.17 L1023.04 846.56 L990.925 846.56 L990.925 846.56  Z" fill="#009af9" fill-rule="evenodd" fill-opacity="1"/>
<polyline clip-path="url(#clip312)" style="stroke:#000000; stroke-linecap:round; stroke-linejoin:round; stroke-width:8; stroke-opacity:1; fill:none" points="990.925,846.56 990.925,1667.17 1023.04,1667.17 1023.04,846.56 990.925,846.56 "/>
<path clip-path="url(#clip312)" d="M1023.04 900.612 L1023.04 1667.17 L1055.16 1667.17 L1055.16 900.612 L1023.04 900.612 L1023.04 900.612  Z" fill="#009af9" fill-rule="evenodd" fill-opacity="1"/>
<polyline clip-path="url(#clip312)" style="stroke:#000000; stroke-linecap:round; stroke-linejoin:round; stroke-width:8; stroke-opacity:1; fill:none" points="1023.04,900.612 1023.04,1667.17 1055.16,1667.17 1055.16,900.612 1023.04,900.612 "/>
<path clip-path="url(#clip312)" d="M1055.16 772.853 L1055.16 1667.17 L1087.28 1667.17 L1087.28 772.853 L1055.16 772.853 L1055.16 772.853  Z" fill="#009af9" fill-rule="evenodd" fill-opacity="1"/>
<polyline clip-path="url(#clip312)" style="stroke:#000000; stroke-linecap:round; stroke-linejoin:round; stroke-width:8; stroke-opacity:1; fill:none" points="1055.16,772.853 1055.16,1667.17 1087.28,1667.17 1087.28,772.853 1055.16,772.853 "/>
<path clip-path="url(#clip312)" d="M1087.28 723.715 L1087.28 1667.17 L1119.4 1667.17 L1119.4 723.715 L1087.28 723.715 L1087.28 723.715  Z" fill="#009af9" fill-rule="evenodd" fill-opacity="1"/>
<polyline clip-path="url(#clip312)" style="stroke:#000000; stroke-linecap:round; stroke-linejoin:round; stroke-width:8; stroke-opacity:1; fill:none" points="1087.28,723.715 1087.28,1667.17 1119.4,1667.17 1119.4,723.715 1087.28,723.715 "/>
<path clip-path="url(#clip312)" d="M1119.4 654.921 L1119.4 1667.17 L1151.52 1667.17 L1151.52 654.921 L1119.4 654.921 L1119.4 654.921  Z" fill="#009af9" fill-rule="evenodd" fill-opacity="1"/>
<polyline clip-path="url(#clip312)" style="stroke:#000000; stroke-linecap:round; stroke-linejoin:round; stroke-width:8; stroke-opacity:1; fill:none" points="1119.4,654.921 1119.4,1667.17 1151.52,1667.17 1151.52,654.921 1119.4,654.921 "/>
<path clip-path="url(#clip312)" d="M1151.52 527.162 L1151.52 1667.17 L1183.64 1667.17 L1183.64 527.162 L1151.52 527.162 L1151.52 527.162  Z" fill="#009af9" fill-rule="evenodd" fill-opacity="1"/>
<polyline clip-path="url(#clip312)" style="stroke:#000000; stroke-linecap:round; stroke-linejoin:round; stroke-width:8; stroke-opacity:1; fill:none" points="1151.52,527.162 1151.52,1667.17 1183.64,1667.17 1183.64,527.162 1151.52,527.162 "/>
<path clip-path="url(#clip312)" d="M1183.64 468.196 L1183.64 1667.17 L1215.76 1667.17 L1215.76 468.196 L1183.64 468.196 L1183.64 468.196  Z" fill="#009af9" fill-rule="evenodd" fill-opacity="1"/>
<polyline clip-path="url(#clip312)" style="stroke:#000000; stroke-linecap:round; stroke-linejoin:round; stroke-width:8; stroke-opacity:1; fill:none" points="1183.64,468.196 1183.64,1667.17 1215.76,1667.17 1215.76,468.196 1183.64,468.196 "/>
<path clip-path="url(#clip312)" d="M1215.76 276.558 L1215.76 1667.17 L1247.88 1667.17 L1247.88 276.558 L1215.76 276.558 L1215.76 276.558  Z" fill="#009af9" fill-rule="evenodd" fill-opacity="1"/>
<polyline clip-path="url(#clip312)" style="stroke:#000000; stroke-linecap:round; stroke-linejoin:round; stroke-width:8; stroke-opacity:1; fill:none" points="1215.76,276.558 1215.76,1667.17 1247.88,1667.17 1247.88,276.558 1215.76,276.558 "/>
<path clip-path="url(#clip312)" d="M1247.88 399.403 L1247.88 1667.17 L1279.99 1667.17 L1279.99 399.403 L1247.88 399.403 L1247.88 399.403  Z" fill="#009af9" fill-rule="evenodd" fill-opacity="1"/>
<polyline clip-path="url(#clip312)" style="stroke:#000000; stroke-linecap:round; stroke-linejoin:round; stroke-width:8; stroke-opacity:1; fill:none" points="1247.88,399.403 1247.88,1667.17 1279.99,1667.17 1279.99,399.403 1247.88,399.403 "/>
<path clip-path="url(#clip312)" d="M1279.99 207.764 L1279.99 1667.17 L1312.11 1667.17 L1312.11 207.764 L1279.99 207.764 L1279.99 207.764  Z" fill="#009af9" fill-rule="evenodd" fill-opacity="1"/>
<polyline clip-path="url(#clip312)" style="stroke:#000000; stroke-linecap:round; stroke-linejoin:round; stroke-width:8; stroke-opacity:1; fill:none" points="1279.99,207.764 1279.99,1667.17 1312.11,1667.17 1312.11,207.764 1279.99,207.764 "/>
<path clip-path="url(#clip312)" d="M1312.11 428.886 L1312.11 1667.17 L1344.23 1667.17 L1344.23 428.886 L1312.11 428.886 L1312.11 428.886  Z" fill="#009af9" fill-rule="evenodd" fill-opacity="1"/>
<polyline clip-path="url(#clip312)" style="stroke:#000000; stroke-linecap:round; stroke-linejoin:round; stroke-width:8; stroke-opacity:1; fill:none" points="1312.11,428.886 1312.11,1667.17 1344.23,1667.17 1344.23,428.886 1312.11,428.886 "/>
<path clip-path="url(#clip312)" d="M1344.23 153.712 L1344.23 1667.17 L1376.35 1667.17 L1376.35 153.712 L1344.23 153.712 L1344.23 153.712  Z" fill="#009af9" fill-rule="evenodd" fill-opacity="1"/>
<polyline clip-path="url(#clip312)" style="stroke:#000000; stroke-linecap:round; stroke-linejoin:round; stroke-width:8; stroke-opacity:1; fill:none" points="1344.23,153.712 1344.23,1667.17 1376.35,1667.17 1376.35,153.712 1344.23,153.712 "/>
<path clip-path="url(#clip312)" d="M1376.35 409.231 L1376.35 1667.17 L1408.47 1667.17 L1408.47 409.231 L1376.35 409.231 L1376.35 409.231  Z" fill="#009af9" fill-rule="evenodd" fill-opacity="1"/>
<polyline clip-path="url(#clip312)" style="stroke:#000000; stroke-linecap:round; stroke-linejoin:round; stroke-width:8; stroke-opacity:1; fill:none" points="1376.35,409.231 1376.35,1667.17 1408.47,1667.17 1408.47,409.231 1376.35,409.231 "/>
<path clip-path="url(#clip312)" d="M1408.47 458.369 L1408.47 1667.17 L1440.59 1667.17 L1440.59 458.369 L1408.47 458.369 L1408.47 458.369  Z" fill="#009af9" fill-rule="evenodd" fill-opacity="1"/>
<polyline clip-path="url(#clip312)" style="stroke:#000000; stroke-linecap:round; stroke-linejoin:round; stroke-width:8; stroke-opacity:1; fill:none" points="1408.47,458.369 1408.47,1667.17 1440.59,1667.17 1440.59,458.369 1408.47,458.369 "/>
<path clip-path="url(#clip312)" d="M1440.59 512.421 L1440.59 1667.17 L1472.71 1667.17 L1472.71 512.421 L1440.59 512.421 L1440.59 512.421  Z" fill="#009af9" fill-rule="evenodd" fill-opacity="1"/>
<polyline clip-path="url(#clip312)" style="stroke:#000000; stroke-linecap:round; stroke-linejoin:round; stroke-width:8; stroke-opacity:1; fill:none" points="1440.59,512.421 1440.59,1667.17 1472.71,1667.17 1472.71,512.421 1440.59,512.421 "/>
<path clip-path="url(#clip312)" d="M1472.71 748.284 L1472.71 1667.17 L1504.83 1667.17 L1504.83 748.284 L1472.71 748.284 L1472.71 748.284  Z" fill="#009af9" fill-rule="evenodd" fill-opacity="1"/>
<polyline clip-path="url(#clip312)" style="stroke:#000000; stroke-linecap:round; stroke-linejoin:round; stroke-width:8; stroke-opacity:1; fill:none" points="1472.71,748.284 1472.71,1667.17 1504.83,1667.17 1504.83,748.284 1472.71,748.284 "/>
<path clip-path="url(#clip312)" d="M1504.83 1043.11 L1504.83 1667.17 L1536.94 1667.17 L1536.94 1043.11 L1504.83 1043.11 L1504.83 1043.11  Z" fill="#009af9" fill-rule="evenodd" fill-opacity="1"/>
<polyline clip-path="url(#clip312)" style="stroke:#000000; stroke-linecap:round; stroke-linejoin:round; stroke-width:8; stroke-opacity:1; fill:none" points="1504.83,1043.11 1504.83,1667.17 1536.94,1667.17 1536.94,1043.11 1504.83,1043.11 "/>
<path clip-path="url(#clip312)" d="M1536.94 1244.58 L1536.94 1667.17 L1569.06 1667.17 L1569.06 1244.58 L1536.94 1244.58 L1536.94 1244.58  Z" fill="#009af9" fill-rule="evenodd" fill-opacity="1"/>
<polyline clip-path="url(#clip312)" style="stroke:#000000; stroke-linecap:round; stroke-linejoin:round; stroke-width:8; stroke-opacity:1; fill:none" points="1536.94,1244.58 1536.94,1667.17 1569.06,1667.17 1569.06,1244.58 1536.94,1244.58 "/>
<path clip-path="url(#clip312)" d="M1569.06 1500.1 L1569.06 1667.17 L1601.18 1667.17 L1601.18 1500.1 L1569.06 1500.1 L1569.06 1500.1  Z" fill="#009af9" fill-rule="evenodd" fill-opacity="1"/>
<polyline clip-path="url(#clip312)" style="stroke:#000000; stroke-linecap:round; stroke-linejoin:round; stroke-width:8; stroke-opacity:1; fill:none" points="1569.06,1500.1 1569.06,1667.17 1601.18,1667.17 1601.18,1500.1 1569.06,1500.1 "/>
<path clip-path="url(#clip312)" d="M1601.18 1578.72 L1601.18 1667.17 L1633.3 1667.17 L1633.3 1578.72 L1601.18 1578.72 L1601.18 1578.72  Z" fill="#009af9" fill-rule="evenodd" fill-opacity="1"/>
<polyline clip-path="url(#clip312)" style="stroke:#000000; stroke-linecap:round; stroke-linejoin:round; stroke-width:8; stroke-opacity:1; fill:none" points="1601.18,1578.72 1601.18,1667.17 1633.3,1667.17 1633.3,1578.72 1601.18,1578.72 "/>
<path clip-path="url(#clip312)" d="M1633.3 1662.25 L1633.3 1667.17 L1665.42 1667.17 L1665.42 1662.25 L1633.3 1662.25 L1633.3 1662.25  Z" fill="#009af9" fill-rule="evenodd" fill-opacity="1"/>
<polyline clip-path="url(#clip312)" style="stroke:#000000; stroke-linecap:round; stroke-linejoin:round; stroke-width:8; stroke-opacity:1; fill:none" points="1633.3,1662.25 1633.3,1667.17 1665.42,1667.17 1665.42,1662.25 1633.3,1662.25 "/>
<circle clip-path="url(#clip312)" style="fill:#009af9; stroke:none; fill-opacity:0" cx="268.254" cy="1662.25" r="2"/>
<circle clip-path="url(#clip312)" style="fill:#009af9; stroke:none; fill-opacity:0" cx="300.373" cy="1662.25" r="2"/>
<circle clip-path="url(#clip312)" style="fill:#009af9; stroke:none; fill-opacity:0" cx="332.491" cy="1652.43" r="2"/>
<circle clip-path="url(#clip312)" style="fill:#009af9; stroke:none; fill-opacity:0" cx="364.61" cy="1647.51" r="2"/>
<circle clip-path="url(#clip312)" style="fill:#009af9; stroke:none; fill-opacity:0" cx="396.729" cy="1637.68" r="2"/>
<circle clip-path="url(#clip312)" style="fill:#009af9; stroke:none; fill-opacity:0" cx="428.848" cy="1637.68" r="2"/>
<circle clip-path="url(#clip312)" style="fill:#009af9; stroke:none; fill-opacity:0" cx="460.966" cy="1618.03" r="2"/>
<circle clip-path="url(#clip312)" style="fill:#009af9; stroke:none; fill-opacity:0" cx="493.085" cy="1637.68" r="2"/>
<circle clip-path="url(#clip312)" style="fill:#009af9; stroke:none; fill-opacity:0" cx="525.204" cy="1568.89" r="2"/>
<circle clip-path="url(#clip312)" style="fill:#009af9; stroke:none; fill-opacity:0" cx="557.323" cy="1544.32" r="2"/>
<circle clip-path="url(#clip312)" style="fill:#009af9; stroke:none; fill-opacity:0" cx="589.441" cy="1559.06" r="2"/>
<circle clip-path="url(#clip312)" style="fill:#009af9; stroke:none; fill-opacity:0" cx="621.56" cy="1529.58" r="2"/>
<circle clip-path="url(#clip312)" style="fill:#009af9; stroke:none; fill-opacity:0" cx="653.679" cy="1519.75" r="2"/>
<circle clip-path="url(#clip312)" style="fill:#009af9; stroke:none; fill-opacity:0" cx="685.797" cy="1416.56" r="2"/>
<circle clip-path="url(#clip312)" style="fill:#009af9; stroke:none; fill-opacity:0" cx="717.916" cy="1396.91" r="2"/>
<circle clip-path="url(#clip312)" style="fill:#009af9; stroke:none; fill-opacity:0" cx="750.035" cy="1446.05" r="2"/>
<circle clip-path="url(#clip312)" style="fill:#009af9; stroke:none; fill-opacity:0" cx="782.154" cy="1342.86" r="2"/>
<circle clip-path="url(#clip312)" style="fill:#009af9; stroke:none; fill-opacity:0" cx="814.272" cy="1293.72" r="2"/>
<circle clip-path="url(#clip312)" style="fill:#009af9; stroke:none; fill-opacity:0" cx="846.391" cy="1234.75" r="2"/>
<circle clip-path="url(#clip312)" style="fill:#009af9; stroke:none; fill-opacity:0" cx="878.51" cy="1151.22" r="2"/>
<circle clip-path="url(#clip312)" style="fill:#009af9; stroke:none; fill-opacity:0" cx="910.629" cy="1097.17" r="2"/>
<circle clip-path="url(#clip312)" style="fill:#009af9; stroke:none; fill-opacity:0" cx="942.747" cy="1087.34" r="2"/>
<circle clip-path="url(#clip312)" style="fill:#009af9; stroke:none; fill-opacity:0" cx="974.866" cy="925.181" r="2"/>
<circle clip-path="url(#clip312)" style="fill:#009af9; stroke:none; fill-opacity:0" cx="1006.98" cy="846.56" r="2"/>
<circle clip-path="url(#clip312)" style="fill:#009af9; stroke:none; fill-opacity:0" cx="1039.1" cy="900.612" r="2"/>
<circle clip-path="url(#clip312)" style="fill:#009af9; stroke:none; fill-opacity:0" cx="1071.22" cy="772.853" r="2"/>
<circle clip-path="url(#clip312)" style="fill:#009af9; stroke:none; fill-opacity:0" cx="1103.34" cy="723.715" r="2"/>
<circle clip-path="url(#clip312)" style="fill:#009af9; stroke:none; fill-opacity:0" cx="1135.46" cy="654.921" r="2"/>
<circle clip-path="url(#clip312)" style="fill:#009af9; stroke:none; fill-opacity:0" cx="1167.58" cy="527.162" r="2"/>
<circle clip-path="url(#clip312)" style="fill:#009af9; stroke:none; fill-opacity:0" cx="1199.7" cy="468.196" r="2"/>
<circle clip-path="url(#clip312)" style="fill:#009af9; stroke:none; fill-opacity:0" cx="1231.82" cy="276.558" r="2"/>
<circle clip-path="url(#clip312)" style="fill:#009af9; stroke:none; fill-opacity:0" cx="1263.93" cy="399.403" r="2"/>
<circle clip-path="url(#clip312)" style="fill:#009af9; stroke:none; fill-opacity:0" cx="1296.05" cy="207.764" r="2"/>
<circle clip-path="url(#clip312)" style="fill:#009af9; stroke:none; fill-opacity:0" cx="1328.17" cy="428.886" r="2"/>
<circle clip-path="url(#clip312)" style="fill:#009af9; stroke:none; fill-opacity:0" cx="1360.29" cy="153.712" r="2"/>
<circle clip-path="url(#clip312)" style="fill:#009af9; stroke:none; fill-opacity:0" cx="1392.41" cy="409.231" r="2"/>
<circle clip-path="url(#clip312)" style="fill:#009af9; stroke:none; fill-opacity:0" cx="1424.53" cy="458.369" r="2"/>
<circle clip-path="url(#clip312)" style="fill:#009af9; stroke:none; fill-opacity:0" cx="1456.65" cy="512.421" r="2"/>
<circle clip-path="url(#clip312)" style="fill:#009af9; stroke:none; fill-opacity:0" cx="1488.77" cy="748.284" r="2"/>
<circle clip-path="url(#clip312)" style="fill:#009af9; stroke:none; fill-opacity:0" cx="1520.88" cy="1043.11" r="2"/>
<circle clip-path="url(#clip312)" style="fill:#009af9; stroke:none; fill-opacity:0" cx="1553" cy="1244.58" r="2"/>
<circle clip-path="url(#clip312)" style="fill:#009af9; stroke:none; fill-opacity:0" cx="1585.12" cy="1500.1" r="2"/>
<circle clip-path="url(#clip312)" style="fill:#009af9; stroke:none; fill-opacity:0" cx="1617.24" cy="1578.72" r="2"/>
<circle clip-path="url(#clip312)" style="fill:#009af9; stroke:none; fill-opacity:0" cx="1649.36" cy="1662.25" r="2"/>
<polyline clip-path="url(#clip312)" style="stroke:#e26f46; stroke-linecap:round; stroke-linejoin:round; stroke-width:8; stroke-opacity:1; fill:none" points="1183.64,3180.62 1183.64,-1359.74 "/>
</svg>
