<?xml version="1.0" encoding="utf-8"?>
<svg xmlns="http://www.w3.org/2000/svg" xmlns:xlink="http://www.w3.org/1999/xlink" width="450" height="450" viewBox="0 0 1800 1800">
<defs>
  <clipPath id="clip970">
    <rect x="0" y="0" width="1800" height="1800"/>
  </clipPath>
</defs>
<path clip-path="url(#clip970)" d="M0 1800 L1800 1800 L1800 0 L0 0  Z" fill="#ffffff" fill-rule="evenodd" fill-opacity="1"/>
<defs>
  <clipPath id="clip971">
    <rect x="360" y="180" width="1261" height="1261"/>
  </clipPath>
</defs>
<path clip-path="url(#clip970)" d="M166.015 1667.17 L1752.76 1667.17 L1752.76 153.712 L166.015 153.712  Z" fill="#ffffff" fill-rule="evenodd" fill-opacity="1"/>
<defs>
  <clipPath id="clip972">
    <rect x="166" y="153" width="1588" height="1514"/>
  </clipPath>
</defs>
<polyline clip-path="url(#clip972)" style="stroke:#000000; stroke-linecap:round; stroke-linejoin:round; stroke-width:2; stroke-opacity:0.1; fill:none" points="338.876,1667.17 338.876,153.712 "/>
<polyline clip-path="url(#clip972)" style="stroke:#000000; stroke-linecap:round; stroke-linejoin:round; stroke-width:2; stroke-opacity:0.1; fill:none" points="552.845,1667.17 552.845,153.712 "/>
<polyline clip-path="url(#clip972)" style="stroke:#000000; stroke-linecap:round; stroke-linejoin:round; stroke-width:2; stroke-opacity:0.1; fill:none" points="766.813,1667.17 766.813,153.712 "/>
<polyline clip-path="url(#clip972)" style="stroke:#000000; stroke-linecap:round; stroke-linejoin:round; stroke-width:2; stroke-opacity:0.1; fill:none" points="980.782,1667.17 980.782,153.712 "/>
<polyline clip-path="url(#clip972)" style="stroke:#000000; stroke-linecap:round; stroke-linejoin:round; stroke-width:2; stroke-opacity:0.1; fill:none" points="1194.75,1667.17 1194.75,153.712 "/>
<polyline clip-path="url(#clip972)" style="stroke:#000000; stroke-linecap:round; stroke-linejoin:round; stroke-width:2; stroke-opacity:0.1; fill:none" points="1408.72,1667.17 1408.72,153.712 "/>
<polyline clip-path="url(#clip972)" style="stroke:#000000; stroke-linecap:round; stroke-linejoin:round; stroke-width:2; stroke-opacity:0.1; fill:none" points="1622.69,1667.17 1622.69,153.712 "/>
<polyline clip-path="url(#clip970)" style="stroke:#000000; stroke-linecap:round; stroke-linejoin:round; stroke-width:4; stroke-opacity:1; fill:none" points="166.015,1667.17 1752.76,1667.17 "/>
<polyline clip-path="url(#clip970)" style="stroke:#000000; stroke-linecap:round; stroke-linejoin:round; stroke-width:4; stroke-opacity:1; fill:none" points="338.876,1667.17 338.876,1648.27 "/>
<polyline clip-path="url(#clip970)" style="stroke:#000000; stroke-linecap:round; stroke-linejoin:round; stroke-width:4; stroke-opacity:1; fill:none" points="552.845,1667.17 552.845,1648.27 "/>
<polyline clip-path="url(#clip970)" style="stroke:#000000; stroke-linecap:round; stroke-linejoin:round; stroke-width:4; stroke-opacity:1; fill:none" points="766.813,1667.17 766.813,1648.27 "/>
<polyline clip-path="url(#clip970)" style="stroke:#000000; stroke-linecap:round; stroke-linejoin:round; stroke-width:4; stroke-opacity:1; fill:none" points="980.782,1667.17 980.782,1648.27 "/>
<polyline clip-path="url(#clip970)" style="stroke:#000000; stroke-linecap:round; stroke-linejoin:round; stroke-width:4; stroke-opacity:1; fill:none" points="1194.75,1667.17 1194.75,1648.27 "/>
<polyline clip-path="url(#clip970)" style="stroke:#000000; stroke-linecap:round; stroke-linejoin:round; stroke-width:4; stroke-opacity:1; fill:none" points="1408.72,1667.17 1408.72,1648.27 "/>
<polyline clip-path="url(#clip970)" style="stroke:#000000; stroke-linecap:round; stroke-linejoin:round; stroke-width:4; stroke-opacity:1; fill:none" points="1622.69,1667.17 1622.69,1648.27 "/>
<path clip-path="url(#clip970)" d="M308.818 1707.94 L338.494 1707.94 L338.494 1711.87 L308.818 1711.87 L308.818 1707.94 Z" fill="#000000" fill-rule="nonzero" fill-opacity="1" /><path clip-path="url(#clip970)" d="M352.614 1720.83 L368.934 1720.83 L368.934 1724.77 L346.989 1724.77 L346.989 1720.83 Q349.651 1718.08 354.235 1713.45 Q358.841 1708.8 360.022 1707.45 Q362.267 1704.93 363.147 1703.19 Q364.049 1701.43 364.049 1699.74 Q364.049 1696.99 362.105 1695.25 Q360.184 1693.52 357.082 1693.52 Q354.883 1693.52 352.429 1694.28 Q349.999 1695.05 347.221 1696.6 L347.221 1691.87 Q350.045 1690.74 352.499 1690.16 Q354.952 1689.58 356.989 1689.58 Q362.36 1689.58 365.554 1692.27 Q368.748 1694.95 368.748 1699.44 Q368.748 1701.57 367.938 1703.49 Q367.151 1705.39 365.045 1707.99 Q364.466 1708.66 361.364 1711.87 Q358.262 1715.07 352.614 1720.83 Z" fill="#000000" fill-rule="nonzero" fill-opacity="1" /><path clip-path="url(#clip970)" d="M522.602 1707.94 L552.278 1707.94 L552.278 1711.87 L522.602 1711.87 L522.602 1707.94 Z" fill="#000000" fill-rule="nonzero" fill-opacity="1" /><path clip-path="url(#clip970)" d="M563.18 1720.83 L570.819 1720.83 L570.819 1694.47 L562.509 1696.13 L562.509 1691.87 L570.773 1690.21 L575.449 1690.21 L575.449 1720.83 L583.088 1720.83 L583.088 1724.77 L563.18 1724.77 L563.18 1720.83 Z" fill="#000000" fill-rule="nonzero" fill-opacity="1" /><path clip-path="url(#clip970)" d="M766.813 1693.29 Q763.202 1693.29 761.374 1696.85 Q759.568 1700.39 759.568 1707.52 Q759.568 1714.63 761.374 1718.19 Q763.202 1721.74 766.813 1721.74 Q770.448 1721.74 772.253 1718.19 Q774.082 1714.63 774.082 1707.52 Q774.082 1700.39 772.253 1696.85 Q770.448 1693.29 766.813 1693.29 M766.813 1689.58 Q772.624 1689.58 775.679 1694.19 Q778.758 1698.77 778.758 1707.52 Q778.758 1716.25 775.679 1720.86 Q772.624 1725.44 766.813 1725.44 Q761.003 1725.44 757.925 1720.86 Q754.869 1716.25 754.869 1707.52 Q754.869 1698.77 757.925 1694.19 Q761.003 1689.58 766.813 1689.58 Z" fill="#000000" fill-rule="nonzero" fill-opacity="1" /><path clip-path="url(#clip970)" d="M971.164 1720.83 L978.803 1720.83 L978.803 1694.47 L970.493 1696.13 L970.493 1691.87 L978.757 1690.21 L983.433 1690.21 L983.433 1720.83 L991.072 1720.83 L991.072 1724.77 L971.164 1724.77 L971.164 1720.83 Z" fill="#000000" fill-rule="nonzero" fill-opacity="1" /><path clip-path="url(#clip970)" d="M1189.4 1720.83 L1205.72 1720.83 L1205.72 1724.77 L1183.78 1724.77 L1183.78 1720.83 Q1186.44 1718.08 1191.02 1713.45 Q1195.63 1708.8 1196.81 1707.45 Q1199.06 1704.93 1199.94 1703.19 Q1200.84 1701.43 1200.84 1699.74 Q1200.84 1696.99 1198.89 1695.25 Q1196.97 1693.52 1193.87 1693.52 Q1191.67 1693.52 1189.22 1694.28 Q1186.79 1695.05 1184.01 1696.6 L1184.01 1691.87 Q1186.83 1690.74 1189.29 1690.16 Q1191.74 1689.58 1193.78 1689.58 Q1199.15 1689.58 1202.34 1692.27 Q1205.54 1694.95 1205.54 1699.44 Q1205.54 1701.57 1204.73 1703.49 Q1203.94 1705.39 1201.83 1707.99 Q1201.26 1708.66 1198.15 1711.87 Q1195.05 1715.07 1189.4 1720.83 Z" fill="#000000" fill-rule="nonzero" fill-opacity="1" /><path clip-path="url(#clip970)" d="M1412.97 1706.13 Q1416.32 1706.85 1418.2 1709.12 Q1420.1 1711.39 1420.1 1714.72 Q1420.1 1719.84 1416.58 1722.64 Q1413.06 1725.44 1406.58 1725.44 Q1404.4 1725.44 1402.09 1725 Q1399.8 1724.58 1397.34 1723.73 L1397.34 1719.21 Q1399.29 1720.35 1401.6 1720.93 Q1403.92 1721.5 1406.44 1721.5 Q1410.84 1721.5 1413.13 1719.77 Q1415.44 1718.03 1415.44 1714.72 Q1415.44 1711.67 1413.29 1709.95 Q1411.16 1708.22 1407.34 1708.22 L1403.31 1708.22 L1403.31 1704.37 L1407.53 1704.37 Q1410.98 1704.37 1412.81 1703.01 Q1414.63 1701.62 1414.63 1699.03 Q1414.63 1696.37 1412.74 1694.95 Q1410.86 1693.52 1407.34 1693.52 Q1405.42 1693.52 1403.22 1693.93 Q1401.02 1694.35 1398.38 1695.23 L1398.38 1691.06 Q1401.05 1690.32 1403.36 1689.95 Q1405.7 1689.58 1407.76 1689.58 Q1413.08 1689.58 1416.19 1692.01 Q1419.29 1694.42 1419.29 1698.54 Q1419.29 1701.41 1417.64 1703.4 Q1416 1705.37 1412.97 1706.13 Z" fill="#000000" fill-rule="nonzero" fill-opacity="1" /><path clip-path="url(#clip970)" d="M1625.7 1694.28 L1613.89 1712.73 L1625.7 1712.73 L1625.7 1694.28 M1624.47 1690.21 L1630.35 1690.21 L1630.35 1712.73 L1635.28 1712.73 L1635.28 1716.62 L1630.35 1716.62 L1630.35 1724.77 L1625.7 1724.77 L1625.7 1716.62 L1610.1 1716.62 L1610.1 1712.11 L1624.47 1690.21 Z" fill="#000000" fill-rule="nonzero" fill-opacity="1" /><polyline clip-path="url(#clip972)" style="stroke:#000000; stroke-linecap:round; stroke-linejoin:round; stroke-width:2; stroke-opacity:0.1; fill:none" points="166.015,1667.17 1752.76,1667.17 "/>
<polyline clip-path="url(#clip972)" style="stroke:#000000; stroke-linecap:round; stroke-linejoin:round; stroke-width:2; stroke-opacity:0.1; fill:none" points="166.015,1375.56 1752.76,1375.56 "/>
<polyline clip-path="url(#clip972)" style="stroke:#000000; stroke-linecap:round; stroke-linejoin:round; stroke-width:2; stroke-opacity:0.1; fill:none" points="166.015,1083.95 1752.76,1083.95 "/>
<polyline clip-path="url(#clip972)" style="stroke:#000000; stroke-linecap:round; stroke-linejoin:round; stroke-width:2; stroke-opacity:0.1; fill:none" points="166.015,792.338 1752.76,792.338 "/>
<polyline clip-path="url(#clip972)" style="stroke:#000000; stroke-linecap:round; stroke-linejoin:round; stroke-width:2; stroke-opacity:0.1; fill:none" points="166.015,500.728 1752.76,500.728 "/>
<polyline clip-path="url(#clip972)" style="stroke:#000000; stroke-linecap:round; stroke-linejoin:round; stroke-width:2; stroke-opacity:0.1; fill:none" points="166.015,209.118 1752.76,209.118 "/>
<polyline clip-path="url(#clip970)" style="stroke:#000000; stroke-linecap:round; stroke-linejoin:round; stroke-width:4; stroke-opacity:1; fill:none" points="166.015,1667.17 166.015,153.712 "/>
<polyline clip-path="url(#clip970)" style="stroke:#000000; stroke-linecap:round; stroke-linejoin:round; stroke-width:4; stroke-opacity:1; fill:none" points="166.015,1667.17 184.912,1667.17 "/>
<polyline clip-path="url(#clip970)" style="stroke:#000000; stroke-linecap:round; stroke-linejoin:round; stroke-width:4; stroke-opacity:1; fill:none" points="166.015,1375.56 184.912,1375.56 "/>
<polyline clip-path="url(#clip970)" style="stroke:#000000; stroke-linecap:round; stroke-linejoin:round; stroke-width:4; stroke-opacity:1; fill:none" points="166.015,1083.95 184.912,1083.95 "/>
<polyline clip-path="url(#clip970)" style="stroke:#000000; stroke-linecap:round; stroke-linejoin:round; stroke-width:4; stroke-opacity:1; fill:none" points="166.015,792.338 184.912,792.338 "/>
<polyline clip-path="url(#clip970)" style="stroke:#000000; stroke-linecap:round; stroke-linejoin:round; stroke-width:4; stroke-opacity:1; fill:none" points="166.015,500.728 184.912,500.728 "/>
<polyline clip-path="url(#clip970)" style="stroke:#000000; stroke-linecap:round; stroke-linejoin:round; stroke-width:4; stroke-opacity:1; fill:none" points="166.015,209.118 184.912,209.118 "/>
<path clip-path="url(#clip970)" d="M127.07 1652.97 Q123.459 1652.97 121.631 1656.53 Q119.825 1660.07 119.825 1667.2 Q119.825 1674.31 121.631 1677.87 Q123.459 1681.42 127.07 1681.42 Q130.705 1681.42 132.51 1677.87 Q134.339 1674.31 134.339 1667.2 Q134.339 1660.07 132.51 1656.53 Q130.705 1652.97 127.07 1652.97 M127.07 1649.26 Q132.881 1649.26 135.936 1653.87 Q139.015 1658.45 139.015 1667.2 Q139.015 1675.93 135.936 1680.54 Q132.881 1685.12 127.07 1685.12 Q121.26 1685.12 118.182 1680.54 Q115.126 1675.93 115.126 1667.2 Q115.126 1658.45 118.182 1653.87 Q121.26 1649.26 127.07 1649.26 Z" fill="#000000" fill-rule="nonzero" fill-opacity="1" /><path clip-path="url(#clip970)" d="M57.5569 1388.9 L65.1958 1388.9 L65.1958 1362.54 L56.8856 1364.2 L56.8856 1359.94 L65.1495 1358.28 L69.8254 1358.28 L69.8254 1388.9 L77.4642 1388.9 L77.4642 1392.84 L57.5569 1392.84 L57.5569 1388.9 Z" fill="#000000" fill-rule="nonzero" fill-opacity="1" /><path clip-path="url(#clip970)" d="M96.9086 1361.36 Q93.2975 1361.36 91.4688 1364.92 Q89.6632 1368.46 89.6632 1375.59 Q89.6632 1382.7 91.4688 1386.26 Q93.2975 1389.81 96.9086 1389.81 Q100.543 1389.81 102.348 1386.26 Q104.177 1382.7 104.177 1375.59 Q104.177 1368.46 102.348 1364.92 Q100.543 1361.36 96.9086 1361.36 M96.9086 1357.65 Q102.719 1357.65 105.774 1362.26 Q108.853 1366.84 108.853 1375.59 Q108.853 1384.32 105.774 1388.93 Q102.719 1393.51 96.9086 1393.51 Q91.0984 1393.51 88.0197 1388.93 Q84.9642 1384.32 84.9642 1375.59 Q84.9642 1366.84 88.0197 1362.26 Q91.0984 1357.65 96.9086 1357.65 Z" fill="#000000" fill-rule="nonzero" fill-opacity="1" /><path clip-path="url(#clip970)" d="M127.07 1361.36 Q123.459 1361.36 121.631 1364.92 Q119.825 1368.46 119.825 1375.59 Q119.825 1382.7 121.631 1386.26 Q123.459 1389.81 127.07 1389.81 Q130.705 1389.81 132.51 1386.26 Q134.339 1382.7 134.339 1375.59 Q134.339 1368.46 132.51 1364.92 Q130.705 1361.36 127.07 1361.36 M127.07 1357.65 Q132.881 1357.65 135.936 1362.26 Q139.015 1366.84 139.015 1375.59 Q139.015 1384.32 135.936 1388.93 Q132.881 1393.51 127.07 1393.51 Q121.26 1393.51 118.182 1388.93 Q115.126 1384.32 115.126 1375.59 Q115.126 1366.84 118.182 1362.26 Q121.26 1357.65 127.07 1357.65 Z" fill="#000000" fill-rule="nonzero" fill-opacity="1" /><path clip-path="url(#clip970)" d="M60.7745 1097.29 L77.0939 1097.29 L77.0939 1101.23 L55.1495 1101.23 L55.1495 1097.29 Q57.8115 1094.54 62.3949 1089.91 Q67.0013 1085.26 68.1819 1083.91 Q70.4272 1081.39 71.3068 1079.65 Q72.2096 1077.89 72.2096 1076.2 Q72.2096 1073.45 70.2652 1071.71 Q68.3439 1069.98 65.2421 1069.98 Q63.043 1069.98 60.5893 1070.74 Q58.1588 1071.51 55.381 1073.06 L55.381 1068.33 Q58.2051 1067.2 60.6588 1066.62 Q63.1124 1066.04 65.1495 1066.04 Q70.5198 1066.04 73.7142 1068.73 Q76.9087 1071.41 76.9087 1075.9 Q76.9087 1078.03 76.0985 1079.95 Q75.3115 1081.85 73.205 1084.45 Q72.6263 1085.12 69.5245 1088.33 Q66.4226 1091.53 60.7745 1097.29 Z" fill="#000000" fill-rule="nonzero" fill-opacity="1" /><path clip-path="url(#clip970)" d="M96.9086 1069.75 Q93.2975 1069.75 91.4688 1073.31 Q89.6632 1076.85 89.6632 1083.98 Q89.6632 1091.09 91.4688 1094.65 Q93.2975 1098.2 96.9086 1098.2 Q100.543 1098.2 102.348 1094.65 Q104.177 1091.09 104.177 1083.98 Q104.177 1076.85 102.348 1073.31 Q100.543 1069.75 96.9086 1069.75 M96.9086 1066.04 Q102.719 1066.04 105.774 1070.65 Q108.853 1075.23 108.853 1083.98 Q108.853 1092.71 105.774 1097.32 Q102.719 1101.9 96.9086 1101.9 Q91.0984 1101.9 88.0197 1097.32 Q84.9642 1092.71 84.9642 1083.98 Q84.9642 1075.23 88.0197 1070.65 Q91.0984 1066.04 96.9086 1066.04 Z" fill="#000000" fill-rule="nonzero" fill-opacity="1" /><path clip-path="url(#clip970)" d="M127.07 1069.75 Q123.459 1069.75 121.631 1073.31 Q119.825 1076.85 119.825 1083.98 Q119.825 1091.09 121.631 1094.65 Q123.459 1098.2 127.07 1098.2 Q130.705 1098.2 132.51 1094.65 Q134.339 1091.09 134.339 1083.98 Q134.339 1076.85 132.51 1073.31 Q130.705 1069.75 127.07 1069.75 M127.07 1066.04 Q132.881 1066.04 135.936 1070.65 Q139.015 1075.23 139.015 1083.98 Q139.015 1092.71 135.936 1097.32 Q132.881 1101.9 127.07 1101.9 Q121.26 1101.9 118.182 1097.32 Q115.126 1092.71 115.126 1083.98 Q115.126 1075.23 118.182 1070.65 Q121.26 1066.04 127.07 1066.04 Z" fill="#000000" fill-rule="nonzero" fill-opacity="1" /><path clip-path="url(#clip970)" d="M70.9133 790.984 Q74.2698 791.701 76.1448 793.97 Q78.0429 796.238 78.0429 799.572 Q78.0429 804.687 74.5244 807.488 Q71.0059 810.289 64.5245 810.289 Q62.3486 810.289 60.0338 809.849 Q57.7421 809.433 55.2884 808.576 L55.2884 804.062 Q57.2328 805.197 59.5477 805.775 Q61.8625 806.354 64.3856 806.354 Q68.7837 806.354 71.0754 804.618 Q73.3902 802.882 73.3902 799.572 Q73.3902 796.516 71.2374 794.803 Q69.1078 793.067 65.2884 793.067 L61.2606 793.067 L61.2606 789.225 L65.4735 789.225 Q68.9226 789.225 70.7513 787.859 Q72.58 786.47 72.58 783.877 Q72.58 781.215 70.6819 779.803 Q68.8069 778.368 65.2884 778.368 Q63.3671 778.368 61.168 778.785 Q58.969 779.201 56.3301 780.081 L56.3301 775.914 Q58.9921 775.174 61.3069 774.803 Q63.6449 774.433 65.705 774.433 Q71.0291 774.433 74.1309 776.864 Q77.2327 779.271 77.2327 783.391 Q77.2327 786.262 75.5892 788.252 Q73.9457 790.22 70.9133 790.984 Z" fill="#000000" fill-rule="nonzero" fill-opacity="1" /><path clip-path="url(#clip970)" d="M96.9086 778.137 Q93.2975 778.137 91.4688 781.701 Q89.6632 785.243 89.6632 792.373 Q89.6632 799.479 91.4688 803.044 Q93.2975 806.586 96.9086 806.586 Q100.543 806.586 102.348 803.044 Q104.177 799.479 104.177 792.373 Q104.177 785.243 102.348 781.701 Q100.543 778.137 96.9086 778.137 M96.9086 774.433 Q102.719 774.433 105.774 779.039 Q108.853 783.623 108.853 792.373 Q108.853 801.099 105.774 805.706 Q102.719 810.289 96.9086 810.289 Q91.0984 810.289 88.0197 805.706 Q84.9642 801.099 84.9642 792.373 Q84.9642 783.623 88.0197 779.039 Q91.0984 774.433 96.9086 774.433 Z" fill="#000000" fill-rule="nonzero" fill-opacity="1" /><path clip-path="url(#clip970)" d="M127.07 778.137 Q123.459 778.137 121.631 781.701 Q119.825 785.243 119.825 792.373 Q119.825 799.479 121.631 803.044 Q123.459 806.586 127.07 806.586 Q130.705 806.586 132.51 803.044 Q134.339 799.479 134.339 792.373 Q134.339 785.243 132.51 781.701 Q130.705 778.137 127.07 778.137 M127.07 774.433 Q132.881 774.433 135.936 779.039 Q139.015 783.623 139.015 792.373 Q139.015 801.099 135.936 805.706 Q132.881 810.289 127.07 810.289 Q121.26 810.289 118.182 805.706 Q115.126 801.099 115.126 792.373 Q115.126 783.623 118.182 779.039 Q121.26 774.433 127.07 774.433 Z" fill="#000000" fill-rule="nonzero" fill-opacity="1" /><path clip-path="url(#clip970)" d="M69.5939 487.522 L57.7884 505.971 L69.5939 505.971 L69.5939 487.522 M68.367 483.448 L74.2466 483.448 L74.2466 505.971 L79.1772 505.971 L79.1772 509.86 L74.2466 509.86 L74.2466 518.008 L69.5939 518.008 L69.5939 509.86 L53.9921 509.86 L53.9921 505.346 L68.367 483.448 Z" fill="#000000" fill-rule="nonzero" fill-opacity="1" /><path clip-path="url(#clip970)" d="M96.9086 486.527 Q93.2975 486.527 91.4688 490.091 Q89.6632 493.633 89.6632 500.763 Q89.6632 507.869 91.4688 511.434 Q93.2975 514.976 96.9086 514.976 Q100.543 514.976 102.348 511.434 Q104.177 507.869 104.177 500.763 Q104.177 493.633 102.348 490.091 Q100.543 486.527 96.9086 486.527 M96.9086 482.823 Q102.719 482.823 105.774 487.429 Q108.853 492.013 108.853 500.763 Q108.853 509.49 105.774 514.096 Q102.719 518.679 96.9086 518.679 Q91.0984 518.679 88.0197 514.096 Q84.9642 509.49 84.9642 500.763 Q84.9642 492.013 88.0197 487.429 Q91.0984 482.823 96.9086 482.823 Z" fill="#000000" fill-rule="nonzero" fill-opacity="1" /><path clip-path="url(#clip970)" d="M127.07 486.527 Q123.459 486.527 121.631 490.091 Q119.825 493.633 119.825 500.763 Q119.825 507.869 121.631 511.434 Q123.459 514.976 127.07 514.976 Q130.705 514.976 132.51 511.434 Q134.339 507.869 134.339 500.763 Q134.339 493.633 132.51 490.091 Q130.705 486.527 127.07 486.527 M127.07 482.823 Q132.881 482.823 135.936 487.429 Q139.015 492.013 139.015 500.763 Q139.015 509.49 135.936 514.096 Q132.881 518.679 127.07 518.679 Q121.26 518.679 118.182 514.096 Q115.126 509.49 115.126 500.763 Q115.126 492.013 118.182 487.429 Q121.26 482.823 127.07 482.823 Z" fill="#000000" fill-rule="nonzero" fill-opacity="1" /><path clip-path="url(#clip970)" d="M56.793 191.838 L75.1494 191.838 L75.1494 195.773 L61.0754 195.773 L61.0754 204.245 Q62.0939 203.898 63.1124 203.736 Q64.131 203.551 65.1495 203.551 Q70.9365 203.551 74.3161 206.722 Q77.6957 209.893 77.6957 215.31 Q77.6957 220.889 74.2235 223.991 Q70.7513 227.069 64.4319 227.069 Q62.256 227.069 59.9875 226.699 Q57.7421 226.329 55.3347 225.588 L55.3347 220.889 Q57.418 222.023 59.6402 222.579 Q61.8625 223.134 64.3393 223.134 Q68.3439 223.134 70.6819 221.028 Q73.0198 218.921 73.0198 215.31 Q73.0198 211.699 70.6819 209.593 Q68.3439 207.486 64.3393 207.486 Q62.4643 207.486 60.5893 207.903 Q58.7375 208.319 56.793 209.199 L56.793 191.838 Z" fill="#000000" fill-rule="nonzero" fill-opacity="1" /><path clip-path="url(#clip970)" d="M96.9086 194.917 Q93.2975 194.917 91.4688 198.482 Q89.6632 202.023 89.6632 209.153 Q89.6632 216.259 91.4688 219.824 Q93.2975 223.366 96.9086 223.366 Q100.543 223.366 102.348 219.824 Q104.177 216.259 104.177 209.153 Q104.177 202.023 102.348 198.482 Q100.543 194.917 96.9086 194.917 M96.9086 191.213 Q102.719 191.213 105.774 195.819 Q108.853 200.403 108.853 209.153 Q108.853 217.88 105.774 222.486 Q102.719 227.069 96.9086 227.069 Q91.0984 227.069 88.0197 222.486 Q84.9642 217.88 84.9642 209.153 Q84.9642 200.403 88.0197 195.819 Q91.0984 191.213 96.9086 191.213 Z" fill="#000000" fill-rule="nonzero" fill-opacity="1" /><path clip-path="url(#clip970)" d="M127.07 194.917 Q123.459 194.917 121.631 198.482 Q119.825 202.023 119.825 209.153 Q119.825 216.259 121.631 219.824 Q123.459 223.366 127.07 223.366 Q130.705 223.366 132.51 219.824 Q134.339 216.259 134.339 209.153 Q134.339 202.023 132.51 198.482 Q130.705 194.917 127.07 194.917 M127.07 191.213 Q132.881 191.213 135.936 195.819 Q139.015 200.403 139.015 209.153 Q139.015 217.88 135.936 222.486 Q132.881 227.069 127.07 227.069 Q121.26 227.069 118.182 222.486 Q115.126 217.88 115.126 209.153 Q115.126 200.403 118.182 195.819 Q121.26 191.213 127.07 191.213 Z" fill="#000000" fill-rule="nonzero" fill-opacity="1" /><path clip-path="url(#clip970)" d="M639.587 18.8205 L639.587 41.5461 L649.876 41.5461 Q655.588 41.5461 658.707 38.5889 Q661.826 35.6318 661.826 30.163 Q661.826 24.7348 658.707 21.7777 Q655.588 18.8205 649.876 18.8205 L639.587 18.8205 M631.404 12.096 L649.876 12.096 Q660.044 12.096 665.229 16.714 Q670.455 21.2916 670.455 30.163 Q670.455 39.1155 665.229 43.6931 Q660.044 48.2706 649.876 48.2706 L639.587 48.2706 L639.587 72.576 L631.404 72.576 L631.404 12.096 Z" fill="#000000" fill-rule="nonzero" fill-opacity="1" /><path clip-path="url(#clip970)" d="M705.941 34.1734 Q704.685 33.4443 703.186 33.1202 Q701.728 32.7556 699.945 32.7556 Q693.626 32.7556 690.223 36.8875 Q686.861 40.9789 686.861 48.6757 L686.861 72.576 L679.367 72.576 L679.367 27.2059 L686.861 27.2059 L686.861 34.2544 Q689.21 30.1225 692.978 28.1376 Q696.745 26.1121 702.133 26.1121 Q702.902 26.1121 703.834 26.2337 Q704.766 26.3147 705.9 26.5172 L705.941 34.1734 Z" fill="#000000" fill-rule="nonzero" fill-opacity="1" /><path clip-path="url(#clip970)" d="M713.759 27.2059 L721.212 27.2059 L721.212 72.576 L713.759 72.576 L713.759 27.2059 M713.759 9.54393 L721.212 9.54393 L721.212 18.9825 L713.759 18.9825 L713.759 9.54393 Z" fill="#000000" fill-rule="nonzero" fill-opacity="1" /><path clip-path="url(#clip970)" d="M754.389 32.4315 Q748.394 32.4315 744.91 37.1306 Q741.426 41.7891 741.426 49.9314 Q741.426 58.0738 744.87 62.7728 Q748.354 67.4314 754.389 67.4314 Q760.344 67.4314 763.828 62.7323 Q767.312 58.0333 767.312 49.9314 Q767.312 41.8701 763.828 37.1711 Q760.344 32.4315 754.389 32.4315 M754.389 26.1121 Q764.112 26.1121 769.661 32.4315 Q775.211 38.7509 775.211 49.9314 Q775.211 61.0714 769.661 67.4314 Q764.112 73.7508 754.389 73.7508 Q744.627 73.7508 739.077 67.4314 Q733.568 61.0714 733.568 49.9314 Q733.568 38.7509 739.077 32.4315 Q744.627 26.1121 754.389 26.1121 Z" fill="#000000" fill-rule="nonzero" fill-opacity="1" /><path clip-path="url(#clip970)" d="M813.857 34.1734 Q812.601 33.4443 811.102 33.1202 Q809.644 32.7556 807.861 32.7556 Q801.542 32.7556 798.139 36.8875 Q794.777 40.9789 794.777 48.6757 L794.777 72.576 L787.283 72.576 L787.283 27.2059 L794.777 27.2059 L794.777 34.2544 Q797.126 30.1225 800.894 28.1376 Q804.661 26.1121 810.049 26.1121 Q810.818 26.1121 811.75 26.2337 Q812.682 26.3147 813.816 26.5172 L813.857 34.1734 Z" fill="#000000" fill-rule="nonzero" fill-opacity="1" /><path clip-path="url(#clip970)" d="M865.627 32.4315 Q859.632 32.4315 856.148 37.1306 Q852.664 41.7891 852.664 49.9314 Q852.664 58.0738 856.108 62.7728 Q859.591 67.4314 865.627 67.4314 Q871.582 67.4314 875.066 62.7323 Q878.55 58.0333 878.55 49.9314 Q878.55 41.8701 875.066 37.1711 Q871.582 32.4315 865.627 32.4315 M865.627 26.1121 Q875.349 26.1121 880.899 32.4315 Q886.449 38.7509 886.449 49.9314 Q886.449 61.0714 880.899 67.4314 Q875.349 73.7508 865.627 73.7508 Q855.865 73.7508 850.315 67.4314 Q844.806 61.0714 844.806 49.9314 Q844.806 38.7509 850.315 32.4315 Q855.865 26.1121 865.627 26.1121 Z" fill="#000000" fill-rule="nonzero" fill-opacity="1" /><path clip-path="url(#clip970)" d="M921.773 9.54393 L921.773 15.7418 L914.643 15.7418 Q910.633 15.7418 909.053 17.3622 Q907.514 18.9825 907.514 23.1955 L907.514 27.2059 L919.788 27.2059 L919.788 32.9987 L907.514 32.9987 L907.514 72.576 L900.019 72.576 L900.019 32.9987 L892.89 32.9987 L892.89 27.2059 L900.019 27.2059 L900.019 24.0462 Q900.019 16.471 903.544 13.0277 Q907.068 9.54393 914.724 9.54393 L921.773 9.54393 Z" fill="#000000" fill-rule="nonzero" fill-opacity="1" /><path clip-path="url(#clip970)" d="M983.306 28.5427 L983.306 35.5912 Q980.146 33.9709 976.743 33.1607 Q973.341 32.3505 969.695 32.3505 Q964.145 32.3505 961.35 34.0519 Q958.595 35.7533 958.595 39.156 Q958.595 41.7486 960.58 43.2475 Q962.565 44.7058 968.561 46.0426 L971.113 46.6097 Q979.053 48.3111 982.374 51.4303 Q985.736 54.509 985.736 60.0587 Q985.736 66.3781 980.713 70.0644 Q975.731 73.7508 966.981 73.7508 Q963.335 73.7508 959.365 73.0216 Q955.436 72.3329 951.061 70.9151 L951.061 63.2184 Q955.193 65.3654 959.203 66.4591 Q963.213 67.5124 967.143 67.5124 Q972.409 67.5124 975.245 65.73 Q978.08 63.9071 978.08 60.6258 Q978.08 57.5877 976.014 55.9673 Q973.989 54.3469 967.062 52.8481 L964.469 52.2405 Q957.542 50.7821 954.464 47.7845 Q951.385 44.7463 951.385 39.4801 Q951.385 33.0797 955.922 29.5959 Q960.459 26.1121 968.804 26.1121 Q972.936 26.1121 976.581 26.7198 Q980.227 27.3274 983.306 28.5427 Z" fill="#000000" fill-rule="nonzero" fill-opacity="1" /><path clip-path="url(#clip970)" d="M1018.22 49.7694 Q1009.19 49.7694 1005.71 51.8354 Q1002.22 53.9013 1002.22 58.8839 Q1002.22 62.8538 1004.82 65.2034 Q1007.45 67.5124 1011.95 67.5124 Q1018.14 67.5124 1021.87 63.1374 Q1025.64 58.7219 1025.64 51.4303 L1025.64 49.7694 L1018.22 49.7694 M1033.09 46.6907 L1033.09 72.576 L1025.64 72.576 L1025.64 65.6895 Q1023.09 69.8214 1019.28 71.8063 Q1015.47 73.7508 1009.96 73.7508 Q1002.99 73.7508 998.861 69.8619 Q994.77 65.9325 994.77 59.3701 Q994.77 51.7138 999.874 47.825 Q1005.02 43.9361 1015.19 43.9361 L1025.64 43.9361 L1025.64 43.2069 Q1025.64 38.0623 1022.24 35.2672 Q1018.87 32.4315 1012.76 32.4315 Q1008.87 32.4315 1005.18 33.3632 Q1001.49 34.295 998.092 36.1584 L998.092 29.2718 Q1002.18 27.692 1006.03 26.9223 Q1009.88 26.1121 1013.53 26.1121 Q1023.37 26.1121 1028.23 31.2163 Q1033.09 36.3204 1033.09 46.6907 Z" fill="#000000" fill-rule="nonzero" fill-opacity="1" /><path clip-path="url(#clip970)" d="M1083.77 35.9153 Q1086.56 30.8922 1090.45 28.5022 Q1094.34 26.1121 1099.61 26.1121 Q1106.7 26.1121 1110.54 31.0947 Q1114.39 36.0368 1114.39 45.1919 L1114.39 72.576 L1106.9 72.576 L1106.9 45.4349 Q1106.9 38.913 1104.59 35.7533 Q1102.28 32.5936 1097.54 32.5936 Q1091.75 32.5936 1088.39 36.4419 Q1085.02 40.2903 1085.02 46.9338 L1085.02 72.576 L1077.53 72.576 L1077.53 45.4349 Q1077.53 38.8725 1075.22 35.7533 Q1072.91 32.5936 1068.09 32.5936 Q1062.38 32.5936 1059.02 36.4824 Q1055.66 40.3308 1055.66 46.9338 L1055.66 72.576 L1048.16 72.576 L1048.16 27.2059 L1055.66 27.2059 L1055.66 34.2544 Q1058.21 30.082 1061.77 28.0971 Q1065.34 26.1121 1070.24 26.1121 Q1075.18 26.1121 1078.62 28.6237 Q1082.11 31.1352 1083.77 35.9153 Z" fill="#000000" fill-rule="nonzero" fill-opacity="1" /><path clip-path="url(#clip970)" d="M1136.47 65.7705 L1136.47 89.8329 L1128.98 89.8329 L1128.98 27.2059 L1136.47 27.2059 L1136.47 34.0924 Q1138.82 30.0415 1142.38 28.0971 Q1145.99 26.1121 1150.97 26.1121 Q1159.24 26.1121 1164.38 32.6746 Q1169.57 39.2371 1169.57 49.9314 Q1169.57 60.6258 1164.38 67.1883 Q1159.24 73.7508 1150.97 73.7508 Q1145.99 73.7508 1142.38 71.8063 Q1138.82 69.8214 1136.47 65.7705 M1161.83 49.9314 Q1161.83 41.7081 1158.43 37.0496 Q1155.06 32.3505 1149.15 32.3505 Q1143.24 32.3505 1139.83 37.0496 Q1136.47 41.7081 1136.47 49.9314 Q1136.47 58.1548 1139.83 62.8538 Q1143.24 67.5124 1149.15 67.5124 Q1155.06 67.5124 1158.43 62.8538 Q1161.83 58.1548 1161.83 49.9314 Z" fill="#000000" fill-rule="nonzero" fill-opacity="1" /><path clip-path="url(#clip970)" d="M1181.92 9.54393 L1189.38 9.54393 L1189.38 72.576 L1181.92 72.576 L1181.92 9.54393 Z" fill="#000000" fill-rule="nonzero" fill-opacity="1" /><path clip-path="url(#clip970)" d="M1243.78 48.0275 L1243.78 51.6733 L1209.51 51.6733 Q1209.99 59.3701 1214.13 63.421 Q1218.3 67.4314 1225.71 67.4314 Q1230.01 67.4314 1234.02 66.3781 Q1238.07 65.3249 1242.04 63.2184 L1242.04 70.267 Q1238.03 71.9684 1233.81 72.8596 Q1229.6 73.7508 1225.27 73.7508 Q1214.41 73.7508 1208.05 67.4314 Q1201.73 61.1119 1201.73 50.3365 Q1201.73 39.1965 1207.73 32.6746 Q1213.76 26.1121 1223.97 26.1121 Q1233.13 26.1121 1238.43 32.0264 Q1243.78 37.9003 1243.78 48.0275 M1236.33 45.84 Q1236.24 39.7232 1232.88 36.0774 Q1229.56 32.4315 1224.05 32.4315 Q1217.81 32.4315 1214.05 35.9558 Q1210.32 39.4801 1209.75 45.8805 L1236.33 45.84 Z" fill="#000000" fill-rule="nonzero" fill-opacity="1" /><path clip-path="url(#clip970)" d="M1284.94 28.5427 L1284.94 35.5912 Q1281.78 33.9709 1278.37 33.1607 Q1274.97 32.3505 1271.33 32.3505 Q1265.78 32.3505 1262.98 34.0519 Q1260.23 35.7533 1260.23 39.156 Q1260.23 41.7486 1262.21 43.2475 Q1264.2 44.7058 1270.19 46.0426 L1272.74 46.6097 Q1280.68 48.3111 1284 51.4303 Q1287.37 54.509 1287.37 60.0587 Q1287.37 66.3781 1282.34 70.0644 Q1277.36 73.7508 1268.61 73.7508 Q1264.97 73.7508 1261 73.0216 Q1257.07 72.3329 1252.69 70.9151 L1252.69 63.2184 Q1256.82 65.3654 1260.83 66.4591 Q1264.84 67.5124 1268.77 67.5124 Q1274.04 67.5124 1276.87 65.73 Q1279.71 63.9071 1279.71 60.6258 Q1279.71 57.5877 1277.64 55.9673 Q1275.62 54.3469 1268.69 52.8481 L1266.1 52.2405 Q1259.17 50.7821 1256.09 47.7845 Q1253.02 44.7463 1253.02 39.4801 Q1253.02 33.0797 1257.55 29.5959 Q1262.09 26.1121 1270.43 26.1121 Q1274.57 26.1121 1278.21 26.7198 Q1281.86 27.3274 1284.94 28.5427 Z" fill="#000000" fill-rule="nonzero" fill-opacity="1" /><path clip-path="url(#clip972)" d="M253.288 1664.25 L253.288 1667.17 L296.082 1667.17 L296.082 1664.25 L253.288 1664.25 L253.288 1664.25  Z" fill="#009af9" fill-rule="evenodd" fill-opacity="1"/>
<polyline clip-path="url(#clip972)" style="stroke:#000000; stroke-linecap:round; stroke-linejoin:round; stroke-width:8; stroke-opacity:1; fill:none" points="253.288,1664.25 253.288,1667.17 296.082,1667.17 296.082,1664.25 253.288,1664.25 "/>
<path clip-path="url(#clip972)" d="M296.082 1667.17 L296.082 1667.17 L338.876 1667.17 L338.876 1667.17 L296.082 1667.17 L296.082 1667.17  Z" fill="#009af9" fill-rule="evenodd" fill-opacity="1"/>
<polyline clip-path="url(#clip972)" style="stroke:#000000; stroke-linecap:round; stroke-linejoin:round; stroke-width:8; stroke-opacity:1; fill:none" points="296.082,1667.17 296.082,1667.17 338.876,1667.17 296.082,1667.17 "/>
<path clip-path="url(#clip972)" d="M338.876 1667.17 L338.876 1667.17 L381.67 1667.17 L381.67 1667.17 L338.876 1667.17 L338.876 1667.17  Z" fill="#009af9" fill-rule="evenodd" fill-opacity="1"/>
<polyline clip-path="url(#clip972)" style="stroke:#000000; stroke-linecap:round; stroke-linejoin:round; stroke-width:8; stroke-opacity:1; fill:none" points="338.876,1667.17 338.876,1667.17 381.67,1667.17 338.876,1667.17 "/>
<path clip-path="url(#clip972)" d="M381.67 1667.17 L381.67 1667.17 L424.463 1667.17 L424.463 1667.17 L381.67 1667.17 L381.67 1667.17  Z" fill="#009af9" fill-rule="evenodd" fill-opacity="1"/>
<polyline clip-path="url(#clip972)" style="stroke:#000000; stroke-linecap:round; stroke-linejoin:round; stroke-width:8; stroke-opacity:1; fill:none" points="381.67,1667.17 381.67,1667.17 424.463,1667.17 381.67,1667.17 "/>
<path clip-path="url(#clip972)" d="M424.463 1646.76 L424.463 1667.17 L467.257 1667.17 L467.257 1646.76 L424.463 1646.76 L424.463 1646.76  Z" fill="#009af9" fill-rule="evenodd" fill-opacity="1"/>
<polyline clip-path="url(#clip972)" style="stroke:#000000; stroke-linecap:round; stroke-linejoin:round; stroke-width:8; stroke-opacity:1; fill:none" points="424.463,1646.76 424.463,1667.17 467.257,1667.17 467.257,1646.76 424.463,1646.76 "/>
<path clip-path="url(#clip972)" d="M467.257 1652.59 L467.257 1667.17 L510.051 1667.17 L510.051 1652.59 L467.257 1652.59 L467.257 1652.59  Z" fill="#009af9" fill-rule="evenodd" fill-opacity="1"/>
<polyline clip-path="url(#clip972)" style="stroke:#000000; stroke-linecap:round; stroke-linejoin:round; stroke-width:8; stroke-opacity:1; fill:none" points="467.257,1652.59 467.257,1667.17 510.051,1667.17 510.051,1652.59 467.257,1652.59 "/>
<path clip-path="url(#clip972)" d="M510.051 1617.59 L510.051 1667.17 L552.845 1667.17 L552.845 1617.59 L510.051 1617.59 L510.051 1617.59  Z" fill="#009af9" fill-rule="evenodd" fill-opacity="1"/>
<polyline clip-path="url(#clip972)" style="stroke:#000000; stroke-linecap:round; stroke-linejoin:round; stroke-width:8; stroke-opacity:1; fill:none" points="510.051,1617.59 510.051,1667.17 552.845,1667.17 552.845,1617.59 510.051,1617.59 "/>
<path clip-path="url(#clip972)" d="M552.845 1562.19 L552.845 1667.17 L595.638 1667.17 L595.638 1562.19 L552.845 1562.19 L552.845 1562.19  Z" fill="#009af9" fill-rule="evenodd" fill-opacity="1"/>
<polyline clip-path="url(#clip972)" style="stroke:#000000; stroke-linecap:round; stroke-linejoin:round; stroke-width:8; stroke-opacity:1; fill:none" points="552.845,1562.19 552.845,1667.17 595.638,1667.17 595.638,1562.19 552.845,1562.19 "/>
<path clip-path="url(#clip972)" d="M595.638 1512.61 L595.638 1667.17 L638.432 1667.17 L638.432 1512.61 L595.638 1512.61 L595.638 1512.61  Z" fill="#009af9" fill-rule="evenodd" fill-opacity="1"/>
<polyline clip-path="url(#clip972)" style="stroke:#000000; stroke-linecap:round; stroke-linejoin:round; stroke-width:8; stroke-opacity:1; fill:none" points="595.638,1512.61 595.638,1667.17 638.432,1667.17 638.432,1512.61 595.638,1512.61 "/>
<path clip-path="url(#clip972)" d="M638.432 1430.96 L638.432 1667.17 L681.226 1667.17 L681.226 1430.96 L638.432 1430.96 L638.432 1430.96  Z" fill="#009af9" fill-rule="evenodd" fill-opacity="1"/>
<polyline clip-path="url(#clip972)" style="stroke:#000000; stroke-linecap:round; stroke-linejoin:round; stroke-width:8; stroke-opacity:1; fill:none" points="638.432,1430.96 638.432,1667.17 681.226,1667.17 681.226,1430.96 638.432,1430.96 "/>
<path clip-path="url(#clip972)" d="M681.226 1253.08 L681.226 1667.17 L724.02 1667.17 L724.02 1253.08 L681.226 1253.08 L681.226 1253.08  Z" fill="#009af9" fill-rule="evenodd" fill-opacity="1"/>
<polyline clip-path="url(#clip972)" style="stroke:#000000; stroke-linecap:round; stroke-linejoin:round; stroke-width:8; stroke-opacity:1; fill:none" points="681.226,1253.08 681.226,1667.17 724.02,1667.17 724.02,1253.08 681.226,1253.08 "/>
<path clip-path="url(#clip972)" d="M724.02 1028.54 L724.02 1667.17 L766.813 1667.17 L766.813 1028.54 L724.02 1028.54 L724.02 1028.54  Z" fill="#009af9" fill-rule="evenodd" fill-opacity="1"/>
<polyline clip-path="url(#clip972)" style="stroke:#000000; stroke-linecap:round; stroke-linejoin:round; stroke-width:8; stroke-opacity:1; fill:none" points="724.02,1028.54 724.02,1667.17 766.813,1667.17 766.813,1028.54 724.02,1028.54 "/>
<path clip-path="url(#clip972)" d="M766.813 862.324 L766.813 1667.17 L809.607 1667.17 L809.607 862.324 L766.813 862.324 L766.813 862.324  Z" fill="#009af9" fill-rule="evenodd" fill-opacity="1"/>
<polyline clip-path="url(#clip972)" style="stroke:#000000; stroke-linecap:round; stroke-linejoin:round; stroke-width:8; stroke-opacity:1; fill:none" points="766.813,862.324 766.813,1667.17 809.607,1667.17 809.607,862.324 766.813,862.324 "/>
<path clip-path="url(#clip972)" d="M809.607 573.63 L809.607 1667.17 L852.401 1667.17 L852.401 573.63 L809.607 573.63 L809.607 573.63  Z" fill="#009af9" fill-rule="evenodd" fill-opacity="1"/>
<polyline clip-path="url(#clip972)" style="stroke:#000000; stroke-linecap:round; stroke-linejoin:round; stroke-width:8; stroke-opacity:1; fill:none" points="809.607,573.63 809.607,1667.17 852.401,1667.17 852.401,573.63 809.607,573.63 "/>
<path clip-path="url(#clip972)" d="M852.401 410.329 L852.401 1667.17 L895.195 1667.17 L895.195 410.329 L852.401 410.329 L852.401 410.329  Z" fill="#009af9" fill-rule="evenodd" fill-opacity="1"/>
<polyline clip-path="url(#clip972)" style="stroke:#000000; stroke-linecap:round; stroke-linejoin:round; stroke-width:8; stroke-opacity:1; fill:none" points="852.401,410.329 852.401,1667.17 895.195,1667.17 895.195,410.329 852.401,410.329 "/>
<path clip-path="url(#clip972)" d="M895.195 194.538 L895.195 1667.17 L937.988 1667.17 L937.988 194.538 L895.195 194.538 L895.195 194.538  Z" fill="#009af9" fill-rule="evenodd" fill-opacity="1"/>
<polyline clip-path="url(#clip972)" style="stroke:#000000; stroke-linecap:round; stroke-linejoin:round; stroke-width:8; stroke-opacity:1; fill:none" points="895.195,194.538 895.195,1667.17 937.988,1667.17 937.988,194.538 895.195,194.538 "/>
<path clip-path="url(#clip972)" d="M937.988 226.615 L937.988 1667.17 L980.782 1667.17 L980.782 226.615 L937.988 226.615 L937.988 226.615  Z" fill="#009af9" fill-rule="evenodd" fill-opacity="1"/>
<polyline clip-path="url(#clip972)" style="stroke:#000000; stroke-linecap:round; stroke-linejoin:round; stroke-width:8; stroke-opacity:1; fill:none" points="937.988,226.615 937.988,1667.17 980.782,1667.17 980.782,226.615 937.988,226.615 "/>
<path clip-path="url(#clip972)" d="M980.782 153.712 L980.782 1667.17 L1023.58 1667.17 L1023.58 153.712 L980.782 153.712 L980.782 153.712  Z" fill="#009af9" fill-rule="evenodd" fill-opacity="1"/>
<polyline clip-path="url(#clip972)" style="stroke:#000000; stroke-linecap:round; stroke-linejoin:round; stroke-width:8; stroke-opacity:1; fill:none" points="980.782,153.712 980.782,1667.17 1023.58,1667.17 1023.58,153.712 980.782,153.712 "/>
<path clip-path="url(#clip972)" d="M1023.58 369.504 L1023.58 1667.17 L1066.37 1667.17 L1066.37 369.504 L1023.58 369.504 L1023.58 369.504  Z" fill="#009af9" fill-rule="evenodd" fill-opacity="1"/>
<polyline clip-path="url(#clip972)" style="stroke:#000000; stroke-linecap:round; stroke-linejoin:round; stroke-width:8; stroke-opacity:1; fill:none" points="1023.58,369.504 1023.58,1667.17 1066.37,1667.17 1066.37,369.504 1023.58,369.504 "/>
<path clip-path="url(#clip972)" d="M1066.37 579.463 L1066.37 1667.17 L1109.16 1667.17 L1109.16 579.463 L1066.37 579.463 L1066.37 579.463  Z" fill="#009af9" fill-rule="evenodd" fill-opacity="1"/>
<polyline clip-path="url(#clip972)" style="stroke:#000000; stroke-linecap:round; stroke-linejoin:round; stroke-width:8; stroke-opacity:1; fill:none" points="1066.37,579.463 1066.37,1667.17 1109.16,1667.17 1109.16,579.463 1066.37,579.463 "/>
<path clip-path="url(#clip972)" d="M1109.16 760.261 L1109.16 1667.17 L1151.96 1667.17 L1151.96 760.261 L1109.16 760.261 L1109.16 760.261  Z" fill="#009af9" fill-rule="evenodd" fill-opacity="1"/>
<polyline clip-path="url(#clip972)" style="stroke:#000000; stroke-linecap:round; stroke-linejoin:round; stroke-width:8; stroke-opacity:1; fill:none" points="1109.16,760.261 1109.16,1667.17 1151.96,1667.17 1151.96,760.261 1109.16,760.261 "/>
<path clip-path="url(#clip972)" d="M1151.96 935.227 L1151.96 1667.17 L1194.75 1667.17 L1194.75 935.227 L1151.96 935.227 L1151.96 935.227  Z" fill="#009af9" fill-rule="evenodd" fill-opacity="1"/>
<polyline clip-path="url(#clip972)" style="stroke:#000000; stroke-linecap:round; stroke-linejoin:round; stroke-width:8; stroke-opacity:1; fill:none" points="1151.96,935.227 1151.96,1667.17 1194.75,1667.17 1194.75,935.227 1151.96,935.227 "/>
<path clip-path="url(#clip972)" d="M1194.75 1127.69 L1194.75 1667.17 L1237.54 1667.17 L1237.54 1127.69 L1194.75 1127.69 L1194.75 1127.69  Z" fill="#009af9" fill-rule="evenodd" fill-opacity="1"/>
<polyline clip-path="url(#clip972)" style="stroke:#000000; stroke-linecap:round; stroke-linejoin:round; stroke-width:8; stroke-opacity:1; fill:none" points="1194.75,1127.69 1194.75,1667.17 1237.54,1667.17 1237.54,1127.69 1194.75,1127.69 "/>
<path clip-path="url(#clip972)" d="M1237.54 1302.66 L1237.54 1667.17 L1280.34 1667.17 L1280.34 1302.66 L1237.54 1302.66 L1237.54 1302.66  Z" fill="#009af9" fill-rule="evenodd" fill-opacity="1"/>
<polyline clip-path="url(#clip972)" style="stroke:#000000; stroke-linecap:round; stroke-linejoin:round; stroke-width:8; stroke-opacity:1; fill:none" points="1237.54,1302.66 1237.54,1667.17 1280.34,1667.17 1280.34,1302.66 1237.54,1302.66 "/>
<path clip-path="url(#clip972)" d="M1280.34 1460.12 L1280.34 1667.17 L1323.13 1667.17 L1323.13 1460.12 L1280.34 1460.12 L1280.34 1460.12  Z" fill="#009af9" fill-rule="evenodd" fill-opacity="1"/>
<polyline clip-path="url(#clip972)" style="stroke:#000000; stroke-linecap:round; stroke-linejoin:round; stroke-width:8; stroke-opacity:1; fill:none" points="1280.34,1460.12 1280.34,1667.17 1323.13,1667.17 1323.13,1460.12 1280.34,1460.12 "/>
<path clip-path="url(#clip972)" d="M1323.13 1550.52 L1323.13 1667.17 L1365.93 1667.17 L1365.93 1550.52 L1323.13 1550.52 L1323.13 1550.52  Z" fill="#009af9" fill-rule="evenodd" fill-opacity="1"/>
<polyline clip-path="url(#clip972)" style="stroke:#000000; stroke-linecap:round; stroke-linejoin:round; stroke-width:8; stroke-opacity:1; fill:none" points="1323.13,1550.52 1323.13,1667.17 1365.93,1667.17 1365.93,1550.52 1323.13,1550.52 "/>
<path clip-path="url(#clip972)" d="M1365.93 1611.76 L1365.93 1667.17 L1408.72 1667.17 L1408.72 1611.76 L1365.93 1611.76 L1365.93 1611.76  Z" fill="#009af9" fill-rule="evenodd" fill-opacity="1"/>
<polyline clip-path="url(#clip972)" style="stroke:#000000; stroke-linecap:round; stroke-linejoin:round; stroke-width:8; stroke-opacity:1; fill:none" points="1365.93,1611.76 1365.93,1667.17 1408.72,1667.17 1408.72,1611.76 1365.93,1611.76 "/>
<path clip-path="url(#clip972)" d="M1408.72 1643.84 L1408.72 1667.17 L1451.51 1667.17 L1451.51 1643.84 L1408.72 1643.84 L1408.72 1643.84  Z" fill="#009af9" fill-rule="evenodd" fill-opacity="1"/>
<polyline clip-path="url(#clip972)" style="stroke:#000000; stroke-linecap:round; stroke-linejoin:round; stroke-width:8; stroke-opacity:1; fill:none" points="1408.72,1643.84 1408.72,1667.17 1451.51,1667.17 1451.51,1643.84 1408.72,1643.84 "/>
<path clip-path="url(#clip972)" d="M1451.51 1649.67 L1451.51 1667.17 L1494.31 1667.17 L1494.31 1649.67 L1451.51 1649.67 L1451.51 1649.67  Z" fill="#009af9" fill-rule="evenodd" fill-opacity="1"/>
<polyline clip-path="url(#clip972)" style="stroke:#000000; stroke-linecap:round; stroke-linejoin:round; stroke-width:8; stroke-opacity:1; fill:none" points="1451.51,1649.67 1451.51,1667.17 1494.31,1667.17 1494.31,1649.67 1451.51,1649.67 "/>
<path clip-path="url(#clip972)" d="M1494.31 1658.42 L1494.31 1667.17 L1537.1 1667.17 L1537.1 1658.42 L1494.31 1658.42 L1494.31 1658.42  Z" fill="#009af9" fill-rule="evenodd" fill-opacity="1"/>
<polyline clip-path="url(#clip972)" style="stroke:#000000; stroke-linecap:round; stroke-linejoin:round; stroke-width:8; stroke-opacity:1; fill:none" points="1494.31,1658.42 1494.31,1667.17 1537.1,1667.17 1537.1,1658.42 1494.31,1658.42 "/>
<path clip-path="url(#clip972)" d="M1537.1 1667.17 L1537.1 1667.17 L1579.89 1667.17 L1579.89 1667.17 L1537.1 1667.17 L1537.1 1667.17  Z" fill="#009af9" fill-rule="evenodd" fill-opacity="1"/>
<polyline clip-path="url(#clip972)" style="stroke:#000000; stroke-linecap:round; stroke-linejoin:round; stroke-width:8; stroke-opacity:1; fill:none" points="1537.1,1667.17 1537.1,1667.17 1579.89,1667.17 1537.1,1667.17 "/>
<path clip-path="url(#clip972)" d="M1579.89 1664.25 L1579.89 1667.17 L1622.69 1667.17 L1622.69 1664.25 L1579.89 1664.25 L1579.89 1664.25  Z" fill="#009af9" fill-rule="evenodd" fill-opacity="1"/>
<polyline clip-path="url(#clip972)" style="stroke:#000000; stroke-linecap:round; stroke-linejoin:round; stroke-width:8; stroke-opacity:1; fill:none" points="1579.89,1664.25 1579.89,1667.17 1622.69,1667.17 1622.69,1664.25 1579.89,1664.25 "/>
<path clip-path="url(#clip972)" d="M1622.69 1664.25 L1622.69 1667.17 L1665.48 1667.17 L1665.48 1664.25 L1622.69 1664.25 L1622.69 1664.25  Z" fill="#009af9" fill-rule="evenodd" fill-opacity="1"/>
<polyline clip-path="url(#clip972)" style="stroke:#000000; stroke-linecap:round; stroke-linejoin:round; stroke-width:8; stroke-opacity:1; fill:none" points="1622.69,1664.25 1622.69,1667.17 1665.48,1667.17 1665.48,1664.25 1622.69,1664.25 "/>
<circle clip-path="url(#clip972)" style="fill:#009af9; stroke:none; fill-opacity:0" cx="274.685" cy="1664.25" r="2"/>
<circle clip-path="url(#clip972)" style="fill:#009af9; stroke:none; fill-opacity:0" cx="317.479" cy="1667.17" r="2"/>
<circle clip-path="url(#clip972)" style="fill:#009af9; stroke:none; fill-opacity:0" cx="360.273" cy="1667.17" r="2"/>
<circle clip-path="url(#clip972)" style="fill:#009af9; stroke:none; fill-opacity:0" cx="403.067" cy="1667.17" r="2"/>
<circle clip-path="url(#clip972)" style="fill:#009af9; stroke:none; fill-opacity:0" cx="445.86" cy="1646.76" r="2"/>
<circle clip-path="url(#clip972)" style="fill:#009af9; stroke:none; fill-opacity:0" cx="488.654" cy="1652.59" r="2"/>
<circle clip-path="url(#clip972)" style="fill:#009af9; stroke:none; fill-opacity:0" cx="531.448" cy="1617.59" r="2"/>
<circle clip-path="url(#clip972)" style="fill:#009af9; stroke:none; fill-opacity:0" cx="574.242" cy="1562.19" r="2"/>
<circle clip-path="url(#clip972)" style="fill:#009af9; stroke:none; fill-opacity:0" cx="617.035" cy="1512.61" r="2"/>
<circle clip-path="url(#clip972)" style="fill:#009af9; stroke:none; fill-opacity:0" cx="659.829" cy="1430.96" r="2"/>
<circle clip-path="url(#clip972)" style="fill:#009af9; stroke:none; fill-opacity:0" cx="702.623" cy="1253.08" r="2"/>
<circle clip-path="url(#clip972)" style="fill:#009af9; stroke:none; fill-opacity:0" cx="745.417" cy="1028.54" r="2"/>
<circle clip-path="url(#clip972)" style="fill:#009af9; stroke:none; fill-opacity:0" cx="788.21" cy="862.324" r="2"/>
<circle clip-path="url(#clip972)" style="fill:#009af9; stroke:none; fill-opacity:0" cx="831.004" cy="573.63" r="2"/>
<circle clip-path="url(#clip972)" style="fill:#009af9; stroke:none; fill-opacity:0" cx="873.798" cy="410.329" r="2"/>
<circle clip-path="url(#clip972)" style="fill:#009af9; stroke:none; fill-opacity:0" cx="916.592" cy="194.538" r="2"/>
<circle clip-path="url(#clip972)" style="fill:#009af9; stroke:none; fill-opacity:0" cx="959.385" cy="226.615" r="2"/>
<circle clip-path="url(#clip972)" style="fill:#009af9; stroke:none; fill-opacity:0" cx="1002.18" cy="153.712" r="2"/>
<circle clip-path="url(#clip972)" style="fill:#009af9; stroke:none; fill-opacity:0" cx="1044.97" cy="369.504" r="2"/>
<circle clip-path="url(#clip972)" style="fill:#009af9; stroke:none; fill-opacity:0" cx="1087.77" cy="579.463" r="2"/>
<circle clip-path="url(#clip972)" style="fill:#009af9; stroke:none; fill-opacity:0" cx="1130.56" cy="760.261" r="2"/>
<circle clip-path="url(#clip972)" style="fill:#009af9; stroke:none; fill-opacity:0" cx="1173.35" cy="935.227" r="2"/>
<circle clip-path="url(#clip972)" style="fill:#009af9; stroke:none; fill-opacity:0" cx="1216.15" cy="1127.69" r="2"/>
<circle clip-path="url(#clip972)" style="fill:#009af9; stroke:none; fill-opacity:0" cx="1258.94" cy="1302.66" r="2"/>
<circle clip-path="url(#clip972)" style="fill:#009af9; stroke:none; fill-opacity:0" cx="1301.74" cy="1460.12" r="2"/>
<circle clip-path="url(#clip972)" style="fill:#009af9; stroke:none; fill-opacity:0" cx="1344.53" cy="1550.52" r="2"/>
<circle clip-path="url(#clip972)" style="fill:#009af9; stroke:none; fill-opacity:0" cx="1387.32" cy="1611.76" r="2"/>
<circle clip-path="url(#clip972)" style="fill:#009af9; stroke:none; fill-opacity:0" cx="1430.12" cy="1643.84" r="2"/>
<circle clip-path="url(#clip972)" style="fill:#009af9; stroke:none; fill-opacity:0" cx="1472.91" cy="1649.67" r="2"/>
<circle clip-path="url(#clip972)" style="fill:#009af9; stroke:none; fill-opacity:0" cx="1515.7" cy="1658.42" r="2"/>
<circle clip-path="url(#clip972)" style="fill:#009af9; stroke:none; fill-opacity:0" cx="1558.5" cy="1667.17" r="2"/>
<circle clip-path="url(#clip972)" style="fill:#009af9; stroke:none; fill-opacity:0" cx="1601.29" cy="1664.25" r="2"/>
<circle clip-path="url(#clip972)" style="fill:#009af9; stroke:none; fill-opacity:0" cx="1644.09" cy="1664.25" r="2"/>
<polyline clip-path="url(#clip972)" style="stroke:#e26f46; stroke-linecap:round; stroke-linejoin:round; stroke-width:8; stroke-opacity:1; fill:none" points="948.109,3180.62 948.109,-1359.74 "/>
</svg>
