<?xml version="1.0" encoding="utf-8"?>
<svg xmlns="http://www.w3.org/2000/svg" xmlns:xlink="http://www.w3.org/1999/xlink" width="450" height="450" viewBox="0 0 1800 1800">
<defs>
  <clipPath id="clip670">
    <rect x="0" y="0" width="1800" height="1800"/>
  </clipPath>
</defs>
<path clip-path="url(#clip670)" d="M0 1800 L1800 1800 L1800 0 L0 0  Z" fill="#ffffff" fill-rule="evenodd" fill-opacity="1"/>
<defs>
  <clipPath id="clip671">
    <rect x="360" y="180" width="1261" height="1261"/>
  </clipPath>
</defs>
<path clip-path="url(#clip670)" d="M166.015 1667.17 L1752.76 1667.17 L1752.76 153.712 L166.015 153.712  Z" fill="#ffffff" fill-rule="evenodd" fill-opacity="1"/>
<defs>
  <clipPath id="clip672">
    <rect x="166" y="153" width="1588" height="1514"/>
  </clipPath>
</defs>
<polyline clip-path="url(#clip672)" style="stroke:#000000; stroke-linecap:round; stroke-linejoin:round; stroke-width:2; stroke-opacity:0.1; fill:none" points="204.592,1667.17 204.592,153.712 "/>
<polyline clip-path="url(#clip672)" style="stroke:#000000; stroke-linecap:round; stroke-linejoin:round; stroke-width:2; stroke-opacity:0.1; fill:none" points="448.074,1667.17 448.074,153.712 "/>
<polyline clip-path="url(#clip672)" style="stroke:#000000; stroke-linecap:round; stroke-linejoin:round; stroke-width:2; stroke-opacity:0.1; fill:none" points="691.555,1667.17 691.555,153.712 "/>
<polyline clip-path="url(#clip672)" style="stroke:#000000; stroke-linecap:round; stroke-linejoin:round; stroke-width:2; stroke-opacity:0.1; fill:none" points="935.037,1667.17 935.037,153.712 "/>
<polyline clip-path="url(#clip672)" style="stroke:#000000; stroke-linecap:round; stroke-linejoin:round; stroke-width:2; stroke-opacity:0.1; fill:none" points="1178.52,1667.17 1178.52,153.712 "/>
<polyline clip-path="url(#clip672)" style="stroke:#000000; stroke-linecap:round; stroke-linejoin:round; stroke-width:2; stroke-opacity:0.1; fill:none" points="1422,1667.17 1422,153.712 "/>
<polyline clip-path="url(#clip672)" style="stroke:#000000; stroke-linecap:round; stroke-linejoin:round; stroke-width:2; stroke-opacity:0.1; fill:none" points="1665.48,1667.17 1665.48,153.712 "/>
<polyline clip-path="url(#clip670)" style="stroke:#000000; stroke-linecap:round; stroke-linejoin:round; stroke-width:4; stroke-opacity:1; fill:none" points="166.015,1667.17 1752.76,1667.17 "/>
<polyline clip-path="url(#clip670)" style="stroke:#000000; stroke-linecap:round; stroke-linejoin:round; stroke-width:4; stroke-opacity:1; fill:none" points="204.592,1667.17 204.592,1648.27 "/>
<polyline clip-path="url(#clip670)" style="stroke:#000000; stroke-linecap:round; stroke-linejoin:round; stroke-width:4; stroke-opacity:1; fill:none" points="448.074,1667.17 448.074,1648.27 "/>
<polyline clip-path="url(#clip670)" style="stroke:#000000; stroke-linecap:round; stroke-linejoin:round; stroke-width:4; stroke-opacity:1; fill:none" points="691.555,1667.17 691.555,1648.27 "/>
<polyline clip-path="url(#clip670)" style="stroke:#000000; stroke-linecap:round; stroke-linejoin:round; stroke-width:4; stroke-opacity:1; fill:none" points="935.037,1667.17 935.037,1648.27 "/>
<polyline clip-path="url(#clip670)" style="stroke:#000000; stroke-linecap:round; stroke-linejoin:round; stroke-width:4; stroke-opacity:1; fill:none" points="1178.52,1667.17 1178.52,1648.27 "/>
<polyline clip-path="url(#clip670)" style="stroke:#000000; stroke-linecap:round; stroke-linejoin:round; stroke-width:4; stroke-opacity:1; fill:none" points="1422,1667.17 1422,1648.27 "/>
<polyline clip-path="url(#clip670)" style="stroke:#000000; stroke-linecap:round; stroke-linejoin:round; stroke-width:4; stroke-opacity:1; fill:none" points="1665.48,1667.17 1665.48,1648.27 "/>
<path clip-path="url(#clip670)" d="M174.534 1707.94 L204.21 1707.94 L204.21 1711.87 L174.534 1711.87 L174.534 1707.94 Z" fill="#000000" fill-rule="nonzero" fill-opacity="1" /><path clip-path="url(#clip670)" d="M218.33 1720.83 L234.65 1720.83 L234.65 1724.77 L212.705 1724.77 L212.705 1720.83 Q215.367 1718.08 219.951 1713.45 Q224.557 1708.8 225.738 1707.45 Q227.983 1704.93 228.863 1703.19 Q229.766 1701.43 229.766 1699.74 Q229.766 1696.99 227.821 1695.25 Q225.9 1693.52 222.798 1693.52 Q220.599 1693.52 218.145 1694.28 Q215.715 1695.05 212.937 1696.6 L212.937 1691.87 Q215.761 1690.74 218.215 1690.16 Q220.668 1689.58 222.705 1689.58 Q228.076 1689.58 231.27 1692.27 Q234.465 1694.95 234.465 1699.44 Q234.465 1701.57 233.654 1703.49 Q232.867 1705.39 230.761 1707.99 Q230.182 1708.66 227.08 1711.87 Q223.979 1715.07 218.33 1720.83 Z" fill="#000000" fill-rule="nonzero" fill-opacity="1" /><path clip-path="url(#clip670)" d="M417.831 1707.94 L447.507 1707.94 L447.507 1711.87 L417.831 1711.87 L417.831 1707.94 Z" fill="#000000" fill-rule="nonzero" fill-opacity="1" /><path clip-path="url(#clip670)" d="M458.409 1720.83 L466.048 1720.83 L466.048 1694.47 L457.738 1696.13 L457.738 1691.87 L466.002 1690.21 L470.678 1690.21 L470.678 1720.83 L478.317 1720.83 L478.317 1724.77 L458.409 1724.77 L458.409 1720.83 Z" fill="#000000" fill-rule="nonzero" fill-opacity="1" /><path clip-path="url(#clip670)" d="M691.555 1693.29 Q687.944 1693.29 686.116 1696.85 Q684.31 1700.39 684.31 1707.52 Q684.31 1714.63 686.116 1718.19 Q687.944 1721.74 691.555 1721.74 Q695.19 1721.74 696.995 1718.19 Q698.824 1714.63 698.824 1707.52 Q698.824 1700.39 696.995 1696.85 Q695.19 1693.29 691.555 1693.29 M691.555 1689.58 Q697.366 1689.58 700.421 1694.19 Q703.5 1698.77 703.5 1707.52 Q703.5 1716.25 700.421 1720.86 Q697.366 1725.44 691.555 1725.44 Q685.745 1725.44 682.667 1720.86 Q679.611 1716.25 679.611 1707.52 Q679.611 1698.77 682.667 1694.19 Q685.745 1689.58 691.555 1689.58 Z" fill="#000000" fill-rule="nonzero" fill-opacity="1" /><path clip-path="url(#clip670)" d="M925.419 1720.83 L933.058 1720.83 L933.058 1694.47 L924.748 1696.13 L924.748 1691.87 L933.012 1690.21 L937.688 1690.21 L937.688 1720.83 L945.326 1720.83 L945.326 1724.77 L925.419 1724.77 L925.419 1720.83 Z" fill="#000000" fill-rule="nonzero" fill-opacity="1" /><path clip-path="url(#clip670)" d="M1173.17 1720.83 L1189.49 1720.83 L1189.49 1724.77 L1167.55 1724.77 L1167.55 1720.83 Q1170.21 1718.08 1174.79 1713.45 Q1179.4 1708.8 1180.58 1707.45 Q1182.82 1704.93 1183.7 1703.19 Q1184.61 1701.43 1184.61 1699.74 Q1184.61 1696.99 1182.66 1695.25 Q1180.74 1693.52 1177.64 1693.52 Q1175.44 1693.52 1172.99 1694.28 Q1170.56 1695.05 1167.78 1696.6 L1167.78 1691.87 Q1170.6 1690.74 1173.06 1690.16 Q1175.51 1689.58 1177.55 1689.58 Q1182.92 1689.58 1186.11 1692.27 Q1189.31 1694.95 1189.31 1699.44 Q1189.31 1701.57 1188.5 1703.49 Q1187.71 1705.39 1185.6 1707.99 Q1185.02 1708.66 1181.92 1711.87 Q1178.82 1715.07 1173.17 1720.83 Z" fill="#000000" fill-rule="nonzero" fill-opacity="1" /><path clip-path="url(#clip670)" d="M1426.25 1706.13 Q1429.6 1706.85 1431.48 1709.12 Q1433.38 1711.39 1433.38 1714.72 Q1433.38 1719.84 1429.86 1722.64 Q1426.34 1725.44 1419.86 1725.44 Q1417.68 1725.44 1415.37 1725 Q1413.08 1724.58 1410.62 1723.73 L1410.62 1719.21 Q1412.57 1720.35 1414.88 1720.93 Q1417.2 1721.5 1419.72 1721.5 Q1424.12 1721.5 1426.41 1719.77 Q1428.73 1718.03 1428.73 1714.72 Q1428.73 1711.67 1426.57 1709.95 Q1424.44 1708.22 1420.62 1708.22 L1416.6 1708.22 L1416.6 1704.37 L1420.81 1704.37 Q1424.26 1704.37 1426.09 1703.01 Q1427.91 1701.62 1427.91 1699.03 Q1427.91 1696.37 1426.02 1694.95 Q1424.14 1693.52 1420.62 1693.52 Q1418.7 1693.52 1416.5 1693.93 Q1414.3 1694.35 1411.67 1695.23 L1411.67 1691.06 Q1414.33 1690.32 1416.64 1689.95 Q1418.98 1689.58 1421.04 1689.58 Q1426.36 1689.58 1429.47 1692.01 Q1432.57 1694.42 1432.57 1698.54 Q1432.57 1701.41 1430.92 1703.4 Q1429.28 1705.37 1426.25 1706.13 Z" fill="#000000" fill-rule="nonzero" fill-opacity="1" /><path clip-path="url(#clip670)" d="M1668.49 1694.28 L1656.69 1712.73 L1668.49 1712.73 L1668.49 1694.28 M1667.26 1690.21 L1673.14 1690.21 L1673.14 1712.73 L1678.07 1712.73 L1678.07 1716.62 L1673.14 1716.62 L1673.14 1724.77 L1668.49 1724.77 L1668.49 1716.62 L1652.89 1716.62 L1652.89 1712.11 L1667.26 1690.21 Z" fill="#000000" fill-rule="nonzero" fill-opacity="1" /><polyline clip-path="url(#clip672)" style="stroke:#000000; stroke-linecap:round; stroke-linejoin:round; stroke-width:2; stroke-opacity:0.1; fill:none" points="166.015,1667.17 1752.76,1667.17 "/>
<polyline clip-path="url(#clip672)" style="stroke:#000000; stroke-linecap:round; stroke-linejoin:round; stroke-width:2; stroke-opacity:0.1; fill:none" points="166.015,1368.66 1752.76,1368.66 "/>
<polyline clip-path="url(#clip672)" style="stroke:#000000; stroke-linecap:round; stroke-linejoin:round; stroke-width:2; stroke-opacity:0.1; fill:none" points="166.015,1070.14 1752.76,1070.14 "/>
<polyline clip-path="url(#clip672)" style="stroke:#000000; stroke-linecap:round; stroke-linejoin:round; stroke-width:2; stroke-opacity:0.1; fill:none" points="166.015,771.632 1752.76,771.632 "/>
<polyline clip-path="url(#clip672)" style="stroke:#000000; stroke-linecap:round; stroke-linejoin:round; stroke-width:2; stroke-opacity:0.1; fill:none" points="166.015,473.12 1752.76,473.12 "/>
<polyline clip-path="url(#clip672)" style="stroke:#000000; stroke-linecap:round; stroke-linejoin:round; stroke-width:2; stroke-opacity:0.1; fill:none" points="166.015,174.608 1752.76,174.608 "/>
<polyline clip-path="url(#clip670)" style="stroke:#000000; stroke-linecap:round; stroke-linejoin:round; stroke-width:4; stroke-opacity:1; fill:none" points="166.015,1667.17 166.015,153.712 "/>
<polyline clip-path="url(#clip670)" style="stroke:#000000; stroke-linecap:round; stroke-linejoin:round; stroke-width:4; stroke-opacity:1; fill:none" points="166.015,1667.17 184.912,1667.17 "/>
<polyline clip-path="url(#clip670)" style="stroke:#000000; stroke-linecap:round; stroke-linejoin:round; stroke-width:4; stroke-opacity:1; fill:none" points="166.015,1368.66 184.912,1368.66 "/>
<polyline clip-path="url(#clip670)" style="stroke:#000000; stroke-linecap:round; stroke-linejoin:round; stroke-width:4; stroke-opacity:1; fill:none" points="166.015,1070.14 184.912,1070.14 "/>
<polyline clip-path="url(#clip670)" style="stroke:#000000; stroke-linecap:round; stroke-linejoin:round; stroke-width:4; stroke-opacity:1; fill:none" points="166.015,771.632 184.912,771.632 "/>
<polyline clip-path="url(#clip670)" style="stroke:#000000; stroke-linecap:round; stroke-linejoin:round; stroke-width:4; stroke-opacity:1; fill:none" points="166.015,473.12 184.912,473.12 "/>
<polyline clip-path="url(#clip670)" style="stroke:#000000; stroke-linecap:round; stroke-linejoin:round; stroke-width:4; stroke-opacity:1; fill:none" points="166.015,174.608 184.912,174.608 "/>
<path clip-path="url(#clip670)" d="M127.07 1652.97 Q123.459 1652.97 121.631 1656.53 Q119.825 1660.07 119.825 1667.2 Q119.825 1674.31 121.631 1677.87 Q123.459 1681.42 127.07 1681.42 Q130.705 1681.42 132.51 1677.87 Q134.339 1674.31 134.339 1667.2 Q134.339 1660.07 132.51 1656.53 Q130.705 1652.97 127.07 1652.97 M127.07 1649.26 Q132.881 1649.26 135.936 1653.87 Q139.015 1658.45 139.015 1667.2 Q139.015 1675.93 135.936 1680.54 Q132.881 1685.12 127.07 1685.12 Q121.26 1685.12 118.182 1680.54 Q115.126 1675.93 115.126 1667.2 Q115.126 1658.45 118.182 1653.87 Q121.26 1649.26 127.07 1649.26 Z" fill="#000000" fill-rule="nonzero" fill-opacity="1" /><path clip-path="url(#clip670)" d="M57.5569 1382 L65.1958 1382 L65.1958 1355.64 L56.8856 1357.3 L56.8856 1353.04 L65.1495 1351.38 L69.8254 1351.38 L69.8254 1382 L77.4642 1382 L77.4642 1385.94 L57.5569 1385.94 L57.5569 1382 Z" fill="#000000" fill-rule="nonzero" fill-opacity="1" /><path clip-path="url(#clip670)" d="M96.9086 1354.45 Q93.2975 1354.45 91.4688 1358.02 Q89.6632 1361.56 89.6632 1368.69 Q89.6632 1375.8 91.4688 1379.36 Q93.2975 1382.9 96.9086 1382.9 Q100.543 1382.9 102.348 1379.36 Q104.177 1375.8 104.177 1368.69 Q104.177 1361.56 102.348 1358.02 Q100.543 1354.45 96.9086 1354.45 M96.9086 1350.75 Q102.719 1350.75 105.774 1355.36 Q108.853 1359.94 108.853 1368.69 Q108.853 1377.42 105.774 1382.02 Q102.719 1386.61 96.9086 1386.61 Q91.0984 1386.61 88.0197 1382.02 Q84.9642 1377.42 84.9642 1368.69 Q84.9642 1359.94 88.0197 1355.36 Q91.0984 1350.75 96.9086 1350.75 Z" fill="#000000" fill-rule="nonzero" fill-opacity="1" /><path clip-path="url(#clip670)" d="M127.07 1354.45 Q123.459 1354.45 121.631 1358.02 Q119.825 1361.56 119.825 1368.69 Q119.825 1375.8 121.631 1379.36 Q123.459 1382.9 127.07 1382.9 Q130.705 1382.9 132.51 1379.36 Q134.339 1375.8 134.339 1368.69 Q134.339 1361.56 132.51 1358.02 Q130.705 1354.45 127.07 1354.45 M127.07 1350.75 Q132.881 1350.75 135.936 1355.36 Q139.015 1359.94 139.015 1368.69 Q139.015 1377.42 135.936 1382.02 Q132.881 1386.61 127.07 1386.61 Q121.26 1386.61 118.182 1382.02 Q115.126 1377.42 115.126 1368.69 Q115.126 1359.94 118.182 1355.36 Q121.26 1350.75 127.07 1350.75 Z" fill="#000000" fill-rule="nonzero" fill-opacity="1" /><path clip-path="url(#clip670)" d="M60.7745 1083.49 L77.0939 1083.49 L77.0939 1087.42 L55.1495 1087.42 L55.1495 1083.49 Q57.8115 1080.73 62.3949 1076.1 Q67.0013 1071.45 68.1819 1070.11 Q70.4272 1067.59 71.3068 1065.85 Q72.2096 1064.09 72.2096 1062.4 Q72.2096 1059.65 70.2652 1057.91 Q68.3439 1056.17 65.2421 1056.17 Q63.043 1056.17 60.5893 1056.94 Q58.1588 1057.7 55.381 1059.25 L55.381 1054.53 Q58.2051 1053.4 60.6588 1052.82 Q63.1124 1052.24 65.1495 1052.24 Q70.5198 1052.24 73.7142 1054.92 Q76.9087 1057.61 76.9087 1062.1 Q76.9087 1064.23 76.0985 1066.15 Q75.3115 1068.05 73.205 1070.64 Q72.6263 1071.31 69.5245 1074.53 Q66.4226 1077.72 60.7745 1083.49 Z" fill="#000000" fill-rule="nonzero" fill-opacity="1" /><path clip-path="url(#clip670)" d="M96.9086 1055.94 Q93.2975 1055.94 91.4688 1059.51 Q89.6632 1063.05 89.6632 1070.18 Q89.6632 1077.29 91.4688 1080.85 Q93.2975 1084.39 96.9086 1084.39 Q100.543 1084.39 102.348 1080.85 Q104.177 1077.29 104.177 1070.18 Q104.177 1063.05 102.348 1059.51 Q100.543 1055.94 96.9086 1055.94 M96.9086 1052.24 Q102.719 1052.24 105.774 1056.85 Q108.853 1061.43 108.853 1070.18 Q108.853 1078.91 105.774 1083.51 Q102.719 1088.1 96.9086 1088.1 Q91.0984 1088.1 88.0197 1083.51 Q84.9642 1078.91 84.9642 1070.18 Q84.9642 1061.43 88.0197 1056.85 Q91.0984 1052.24 96.9086 1052.24 Z" fill="#000000" fill-rule="nonzero" fill-opacity="1" /><path clip-path="url(#clip670)" d="M127.07 1055.94 Q123.459 1055.94 121.631 1059.51 Q119.825 1063.05 119.825 1070.18 Q119.825 1077.29 121.631 1080.85 Q123.459 1084.39 127.07 1084.39 Q130.705 1084.39 132.51 1080.85 Q134.339 1077.29 134.339 1070.18 Q134.339 1063.05 132.51 1059.51 Q130.705 1055.94 127.07 1055.94 M127.07 1052.24 Q132.881 1052.24 135.936 1056.85 Q139.015 1061.43 139.015 1070.18 Q139.015 1078.91 135.936 1083.51 Q132.881 1088.1 127.07 1088.1 Q121.26 1088.1 118.182 1083.51 Q115.126 1078.91 115.126 1070.18 Q115.126 1061.43 118.182 1056.85 Q121.26 1052.24 127.07 1052.24 Z" fill="#000000" fill-rule="nonzero" fill-opacity="1" /><path clip-path="url(#clip670)" d="M70.9133 770.278 Q74.2698 770.995 76.1448 773.264 Q78.0429 775.532 78.0429 778.866 Q78.0429 783.981 74.5244 786.782 Q71.0059 789.583 64.5245 789.583 Q62.3486 789.583 60.0338 789.143 Q57.7421 788.727 55.2884 787.87 L55.2884 783.356 Q57.2328 784.491 59.5477 785.069 Q61.8625 785.648 64.3856 785.648 Q68.7837 785.648 71.0754 783.912 Q73.3902 782.176 73.3902 778.866 Q73.3902 775.81 71.2374 774.097 Q69.1078 772.361 65.2884 772.361 L61.2606 772.361 L61.2606 768.519 L65.4735 768.519 Q68.9226 768.519 70.7513 767.153 Q72.58 765.764 72.58 763.171 Q72.58 760.509 70.6819 759.097 Q68.8069 757.662 65.2884 757.662 Q63.3671 757.662 61.168 758.079 Q58.969 758.495 56.3301 759.375 L56.3301 755.208 Q58.9921 754.468 61.3069 754.097 Q63.6449 753.727 65.705 753.727 Q71.0291 753.727 74.1309 756.157 Q77.2327 758.565 77.2327 762.685 Q77.2327 765.556 75.5892 767.546 Q73.9457 769.514 70.9133 770.278 Z" fill="#000000" fill-rule="nonzero" fill-opacity="1" /><path clip-path="url(#clip670)" d="M96.9086 757.431 Q93.2975 757.431 91.4688 760.995 Q89.6632 764.537 89.6632 771.667 Q89.6632 778.773 91.4688 782.338 Q93.2975 785.88 96.9086 785.88 Q100.543 785.88 102.348 782.338 Q104.177 778.773 104.177 771.667 Q104.177 764.537 102.348 760.995 Q100.543 757.431 96.9086 757.431 M96.9086 753.727 Q102.719 753.727 105.774 758.333 Q108.853 762.917 108.853 771.667 Q108.853 780.393 105.774 785 Q102.719 789.583 96.9086 789.583 Q91.0984 789.583 88.0197 785 Q84.9642 780.393 84.9642 771.667 Q84.9642 762.917 88.0197 758.333 Q91.0984 753.727 96.9086 753.727 Z" fill="#000000" fill-rule="nonzero" fill-opacity="1" /><path clip-path="url(#clip670)" d="M127.07 757.431 Q123.459 757.431 121.631 760.995 Q119.825 764.537 119.825 771.667 Q119.825 778.773 121.631 782.338 Q123.459 785.88 127.07 785.88 Q130.705 785.88 132.51 782.338 Q134.339 778.773 134.339 771.667 Q134.339 764.537 132.51 760.995 Q130.705 757.431 127.07 757.431 M127.07 753.727 Q132.881 753.727 135.936 758.333 Q139.015 762.917 139.015 771.667 Q139.015 780.393 135.936 785 Q132.881 789.583 127.07 789.583 Q121.26 789.583 118.182 785 Q115.126 780.393 115.126 771.667 Q115.126 762.917 118.182 758.333 Q121.26 753.727 127.07 753.727 Z" fill="#000000" fill-rule="nonzero" fill-opacity="1" /><path clip-path="url(#clip670)" d="M69.5939 459.914 L57.7884 478.363 L69.5939 478.363 L69.5939 459.914 M68.367 455.84 L74.2466 455.84 L74.2466 478.363 L79.1772 478.363 L79.1772 482.252 L74.2466 482.252 L74.2466 490.4 L69.5939 490.4 L69.5939 482.252 L53.9921 482.252 L53.9921 477.738 L68.367 455.84 Z" fill="#000000" fill-rule="nonzero" fill-opacity="1" /><path clip-path="url(#clip670)" d="M96.9086 458.919 Q93.2975 458.919 91.4688 462.483 Q89.6632 466.025 89.6632 473.155 Q89.6632 480.261 91.4688 483.826 Q93.2975 487.368 96.9086 487.368 Q100.543 487.368 102.348 483.826 Q104.177 480.261 104.177 473.155 Q104.177 466.025 102.348 462.483 Q100.543 458.919 96.9086 458.919 M96.9086 455.215 Q102.719 455.215 105.774 459.821 Q108.853 464.405 108.853 473.155 Q108.853 481.881 105.774 486.488 Q102.719 491.071 96.9086 491.071 Q91.0984 491.071 88.0197 486.488 Q84.9642 481.881 84.9642 473.155 Q84.9642 464.405 88.0197 459.821 Q91.0984 455.215 96.9086 455.215 Z" fill="#000000" fill-rule="nonzero" fill-opacity="1" /><path clip-path="url(#clip670)" d="M127.07 458.919 Q123.459 458.919 121.631 462.483 Q119.825 466.025 119.825 473.155 Q119.825 480.261 121.631 483.826 Q123.459 487.368 127.07 487.368 Q130.705 487.368 132.51 483.826 Q134.339 480.261 134.339 473.155 Q134.339 466.025 132.51 462.483 Q130.705 458.919 127.07 458.919 M127.07 455.215 Q132.881 455.215 135.936 459.821 Q139.015 464.405 139.015 473.155 Q139.015 481.881 135.936 486.488 Q132.881 491.071 127.07 491.071 Q121.26 491.071 118.182 486.488 Q115.126 481.881 115.126 473.155 Q115.126 464.405 118.182 459.821 Q121.26 455.215 127.07 455.215 Z" fill="#000000" fill-rule="nonzero" fill-opacity="1" /><path clip-path="url(#clip670)" d="M56.793 157.328 L75.1494 157.328 L75.1494 161.263 L61.0754 161.263 L61.0754 169.735 Q62.0939 169.388 63.1124 169.226 Q64.131 169.041 65.1495 169.041 Q70.9365 169.041 74.3161 172.212 Q77.6957 175.383 77.6957 180.8 Q77.6957 186.379 74.2235 189.481 Q70.7513 192.559 64.4319 192.559 Q62.256 192.559 59.9875 192.189 Q57.7421 191.819 55.3347 191.078 L55.3347 186.379 Q57.418 187.513 59.6402 188.069 Q61.8625 188.624 64.3393 188.624 Q68.3439 188.624 70.6819 186.518 Q73.0198 184.411 73.0198 180.8 Q73.0198 177.189 70.6819 175.082 Q68.3439 172.976 64.3393 172.976 Q62.4643 172.976 60.5893 173.393 Q58.7375 173.809 56.793 174.689 L56.793 157.328 Z" fill="#000000" fill-rule="nonzero" fill-opacity="1" /><path clip-path="url(#clip670)" d="M96.9086 160.407 Q93.2975 160.407 91.4688 163.971 Q89.6632 167.513 89.6632 174.643 Q89.6632 181.749 91.4688 185.314 Q93.2975 188.856 96.9086 188.856 Q100.543 188.856 102.348 185.314 Q104.177 181.749 104.177 174.643 Q104.177 167.513 102.348 163.971 Q100.543 160.407 96.9086 160.407 M96.9086 156.703 Q102.719 156.703 105.774 161.309 Q108.853 165.893 108.853 174.643 Q108.853 183.369 105.774 187.976 Q102.719 192.559 96.9086 192.559 Q91.0984 192.559 88.0197 187.976 Q84.9642 183.369 84.9642 174.643 Q84.9642 165.893 88.0197 161.309 Q91.0984 156.703 96.9086 156.703 Z" fill="#000000" fill-rule="nonzero" fill-opacity="1" /><path clip-path="url(#clip670)" d="M127.07 160.407 Q123.459 160.407 121.631 163.971 Q119.825 167.513 119.825 174.643 Q119.825 181.749 121.631 185.314 Q123.459 188.856 127.07 188.856 Q130.705 188.856 132.51 185.314 Q134.339 181.749 134.339 174.643 Q134.339 167.513 132.51 163.971 Q130.705 160.407 127.07 160.407 M127.07 156.703 Q132.881 156.703 135.936 161.309 Q139.015 165.893 139.015 174.643 Q139.015 183.369 135.936 187.976 Q132.881 192.559 127.07 192.559 Q121.26 192.559 118.182 187.976 Q115.126 183.369 115.126 174.643 Q115.126 165.893 118.182 161.309 Q121.26 156.703 127.07 156.703 Z" fill="#000000" fill-rule="nonzero" fill-opacity="1" /><path clip-path="url(#clip670)" d="M639.587 18.8205 L639.587 41.5461 L649.876 41.5461 Q655.588 41.5461 658.707 38.5889 Q661.826 35.6318 661.826 30.163 Q661.826 24.7348 658.707 21.7777 Q655.588 18.8205 649.876 18.8205 L639.587 18.8205 M631.404 12.096 L649.876 12.096 Q660.044 12.096 665.229 16.714 Q670.455 21.2916 670.455 30.163 Q670.455 39.1155 665.229 43.6931 Q660.044 48.2706 649.876 48.2706 L639.587 48.2706 L639.587 72.576 L631.404 72.576 L631.404 12.096 Z" fill="#000000" fill-rule="nonzero" fill-opacity="1" /><path clip-path="url(#clip670)" d="M705.941 34.1734 Q704.685 33.4443 703.186 33.1202 Q701.728 32.7556 699.945 32.7556 Q693.626 32.7556 690.223 36.8875 Q686.861 40.9789 686.861 48.6757 L686.861 72.576 L679.367 72.576 L679.367 27.2059 L686.861 27.2059 L686.861 34.2544 Q689.21 30.1225 692.978 28.1376 Q696.745 26.1121 702.133 26.1121 Q702.902 26.1121 703.834 26.2337 Q704.766 26.3147 705.9 26.5172 L705.941 34.1734 Z" fill="#000000" fill-rule="nonzero" fill-opacity="1" /><path clip-path="url(#clip670)" d="M713.759 27.2059 L721.212 27.2059 L721.212 72.576 L713.759 72.576 L713.759 27.2059 M713.759 9.54393 L721.212 9.54393 L721.212 18.9825 L713.759 18.9825 L713.759 9.54393 Z" fill="#000000" fill-rule="nonzero" fill-opacity="1" /><path clip-path="url(#clip670)" d="M754.389 32.4315 Q748.394 32.4315 744.91 37.1306 Q741.426 41.7891 741.426 49.9314 Q741.426 58.0738 744.87 62.7728 Q748.354 67.4314 754.389 67.4314 Q760.344 67.4314 763.828 62.7323 Q767.312 58.0333 767.312 49.9314 Q767.312 41.8701 763.828 37.1711 Q760.344 32.4315 754.389 32.4315 M754.389 26.1121 Q764.112 26.1121 769.661 32.4315 Q775.211 38.7509 775.211 49.9314 Q775.211 61.0714 769.661 67.4314 Q764.112 73.7508 754.389 73.7508 Q744.627 73.7508 739.077 67.4314 Q733.568 61.0714 733.568 49.9314 Q733.568 38.7509 739.077 32.4315 Q744.627 26.1121 754.389 26.1121 Z" fill="#000000" fill-rule="nonzero" fill-opacity="1" /><path clip-path="url(#clip670)" d="M813.857 34.1734 Q812.601 33.4443 811.102 33.1202 Q809.644 32.7556 807.861 32.7556 Q801.542 32.7556 798.139 36.8875 Q794.777 40.9789 794.777 48.6757 L794.777 72.576 L787.283 72.576 L787.283 27.2059 L794.777 27.2059 L794.777 34.2544 Q797.126 30.1225 800.894 28.1376 Q804.661 26.1121 810.049 26.1121 Q810.818 26.1121 811.75 26.2337 Q812.682 26.3147 813.816 26.5172 L813.857 34.1734 Z" fill="#000000" fill-rule="nonzero" fill-opacity="1" /><path clip-path="url(#clip670)" d="M865.627 32.4315 Q859.632 32.4315 856.148 37.1306 Q852.664 41.7891 852.664 49.9314 Q852.664 58.0738 856.108 62.7728 Q859.591 67.4314 865.627 67.4314 Q871.582 67.4314 875.066 62.7323 Q878.55 58.0333 878.55 49.9314 Q878.55 41.8701 875.066 37.1711 Q871.582 32.4315 865.627 32.4315 M865.627 26.1121 Q875.349 26.1121 880.899 32.4315 Q886.449 38.7509 886.449 49.9314 Q886.449 61.0714 880.899 67.4314 Q875.349 73.7508 865.627 73.7508 Q855.865 73.7508 850.315 67.4314 Q844.806 61.0714 844.806 49.9314 Q844.806 38.7509 850.315 32.4315 Q855.865 26.1121 865.627 26.1121 Z" fill="#000000" fill-rule="nonzero" fill-opacity="1" /><path clip-path="url(#clip670)" d="M921.773 9.54393 L921.773 15.7418 L914.643 15.7418 Q910.633 15.7418 909.053 17.3622 Q907.514 18.9825 907.514 23.1955 L907.514 27.2059 L919.788 27.2059 L919.788 32.9987 L907.514 32.9987 L907.514 72.576 L900.019 72.576 L900.019 32.9987 L892.89 32.9987 L892.89 27.2059 L900.019 27.2059 L900.019 24.0462 Q900.019 16.471 903.544 13.0277 Q907.068 9.54393 914.724 9.54393 L921.773 9.54393 Z" fill="#000000" fill-rule="nonzero" fill-opacity="1" /><path clip-path="url(#clip670)" d="M983.306 28.5427 L983.306 35.5912 Q980.146 33.9709 976.743 33.1607 Q973.341 32.3505 969.695 32.3505 Q964.145 32.3505 961.35 34.0519 Q958.595 35.7533 958.595 39.156 Q958.595 41.7486 960.58 43.2475 Q962.565 44.7058 968.561 46.0426 L971.113 46.6097 Q979.053 48.3111 982.374 51.4303 Q985.736 54.509 985.736 60.0587 Q985.736 66.3781 980.713 70.0644 Q975.731 73.7508 966.981 73.7508 Q963.335 73.7508 959.365 73.0216 Q955.436 72.3329 951.061 70.9151 L951.061 63.2184 Q955.193 65.3654 959.203 66.4591 Q963.213 67.5124 967.143 67.5124 Q972.409 67.5124 975.245 65.73 Q978.08 63.9071 978.08 60.6258 Q978.08 57.5877 976.014 55.9673 Q973.989 54.3469 967.062 52.8481 L964.469 52.2405 Q957.542 50.7821 954.464 47.7845 Q951.385 44.7463 951.385 39.4801 Q951.385 33.0797 955.922 29.5959 Q960.459 26.1121 968.804 26.1121 Q972.936 26.1121 976.581 26.7198 Q980.227 27.3274 983.306 28.5427 Z" fill="#000000" fill-rule="nonzero" fill-opacity="1" /><path clip-path="url(#clip670)" d="M1018.22 49.7694 Q1009.19 49.7694 1005.71 51.8354 Q1002.22 53.9013 1002.22 58.8839 Q1002.22 62.8538 1004.82 65.2034 Q1007.45 67.5124 1011.95 67.5124 Q1018.14 67.5124 1021.87 63.1374 Q1025.64 58.7219 1025.64 51.4303 L1025.64 49.7694 L1018.22 49.7694 M1033.09 46.6907 L1033.09 72.576 L1025.64 72.576 L1025.64 65.6895 Q1023.09 69.8214 1019.28 71.8063 Q1015.47 73.7508 1009.96 73.7508 Q1002.99 73.7508 998.861 69.8619 Q994.77 65.9325 994.77 59.3701 Q994.77 51.7138 999.874 47.825 Q1005.02 43.9361 1015.19 43.9361 L1025.64 43.9361 L1025.64 43.2069 Q1025.64 38.0623 1022.24 35.2672 Q1018.87 32.4315 1012.76 32.4315 Q1008.87 32.4315 1005.18 33.3632 Q1001.49 34.295 998.092 36.1584 L998.092 29.2718 Q1002.18 27.692 1006.03 26.9223 Q1009.88 26.1121 1013.53 26.1121 Q1023.37 26.1121 1028.23 31.2163 Q1033.09 36.3204 1033.09 46.6907 Z" fill="#000000" fill-rule="nonzero" fill-opacity="1" /><path clip-path="url(#clip670)" d="M1083.77 35.9153 Q1086.56 30.8922 1090.45 28.5022 Q1094.34 26.1121 1099.61 26.1121 Q1106.7 26.1121 1110.54 31.0947 Q1114.39 36.0368 1114.39 45.1919 L1114.39 72.576 L1106.9 72.576 L1106.9 45.4349 Q1106.9 38.913 1104.59 35.7533 Q1102.28 32.5936 1097.54 32.5936 Q1091.75 32.5936 1088.39 36.4419 Q1085.02 40.2903 1085.02 46.9338 L1085.02 72.576 L1077.53 72.576 L1077.53 45.4349 Q1077.53 38.8725 1075.22 35.7533 Q1072.91 32.5936 1068.09 32.5936 Q1062.38 32.5936 1059.02 36.4824 Q1055.66 40.3308 1055.66 46.9338 L1055.66 72.576 L1048.16 72.576 L1048.16 27.2059 L1055.66 27.2059 L1055.66 34.2544 Q1058.21 30.082 1061.77 28.0971 Q1065.34 26.1121 1070.24 26.1121 Q1075.18 26.1121 1078.62 28.6237 Q1082.11 31.1352 1083.77 35.9153 Z" fill="#000000" fill-rule="nonzero" fill-opacity="1" /><path clip-path="url(#clip670)" d="M1136.47 65.7705 L1136.47 89.8329 L1128.98 89.8329 L1128.98 27.2059 L1136.47 27.2059 L1136.47 34.0924 Q1138.82 30.0415 1142.38 28.0971 Q1145.99 26.1121 1150.97 26.1121 Q1159.24 26.1121 1164.38 32.6746 Q1169.57 39.2371 1169.57 49.9314 Q1169.57 60.6258 1164.38 67.1883 Q1159.24 73.7508 1150.97 73.7508 Q1145.99 73.7508 1142.38 71.8063 Q1138.82 69.8214 1136.47 65.7705 M1161.83 49.9314 Q1161.83 41.7081 1158.43 37.0496 Q1155.06 32.3505 1149.15 32.3505 Q1143.24 32.3505 1139.83 37.0496 Q1136.47 41.7081 1136.47 49.9314 Q1136.47 58.1548 1139.83 62.8538 Q1143.24 67.5124 1149.15 67.5124 Q1155.06 67.5124 1158.43 62.8538 Q1161.83 58.1548 1161.83 49.9314 Z" fill="#000000" fill-rule="nonzero" fill-opacity="1" /><path clip-path="url(#clip670)" d="M1181.92 9.54393 L1189.38 9.54393 L1189.38 72.576 L1181.92 72.576 L1181.92 9.54393 Z" fill="#000000" fill-rule="nonzero" fill-opacity="1" /><path clip-path="url(#clip670)" d="M1243.78 48.0275 L1243.78 51.6733 L1209.51 51.6733 Q1209.99 59.3701 1214.13 63.421 Q1218.3 67.4314 1225.71 67.4314 Q1230.01 67.4314 1234.02 66.3781 Q1238.07 65.3249 1242.04 63.2184 L1242.04 70.267 Q1238.03 71.9684 1233.81 72.8596 Q1229.6 73.7508 1225.27 73.7508 Q1214.41 73.7508 1208.05 67.4314 Q1201.73 61.1119 1201.73 50.3365 Q1201.73 39.1965 1207.73 32.6746 Q1213.76 26.1121 1223.97 26.1121 Q1233.13 26.1121 1238.43 32.0264 Q1243.78 37.9003 1243.78 48.0275 M1236.33 45.84 Q1236.24 39.7232 1232.88 36.0774 Q1229.56 32.4315 1224.05 32.4315 Q1217.81 32.4315 1214.05 35.9558 Q1210.32 39.4801 1209.75 45.8805 L1236.33 45.84 Z" fill="#000000" fill-rule="nonzero" fill-opacity="1" /><path clip-path="url(#clip670)" d="M1284.94 28.5427 L1284.94 35.5912 Q1281.78 33.9709 1278.37 33.1607 Q1274.97 32.3505 1271.33 32.3505 Q1265.78 32.3505 1262.98 34.0519 Q1260.23 35.7533 1260.23 39.156 Q1260.23 41.7486 1262.21 43.2475 Q1264.2 44.7058 1270.19 46.0426 L1272.74 46.6097 Q1280.68 48.3111 1284 51.4303 Q1287.37 54.509 1287.37 60.0587 Q1287.37 66.3781 1282.34 70.0644 Q1277.36 73.7508 1268.61 73.7508 Q1264.97 73.7508 1261 73.0216 Q1257.07 72.3329 1252.69 70.9151 L1252.69 63.2184 Q1256.82 65.3654 1260.83 66.4591 Q1264.84 67.5124 1268.77 67.5124 Q1274.04 67.5124 1276.87 65.73 Q1279.71 63.9071 1279.71 60.6258 Q1279.71 57.5877 1277.64 55.9673 Q1275.62 54.3469 1268.69 52.8481 L1266.1 52.2405 Q1259.17 50.7821 1256.09 47.7845 Q1253.02 44.7463 1253.02 39.4801 Q1253.02 33.0797 1257.55 29.5959 Q1262.09 26.1121 1270.43 26.1121 Q1274.57 26.1121 1278.21 26.7198 Q1281.86 27.3274 1284.94 28.5427 Z" fill="#000000" fill-rule="nonzero" fill-opacity="1" /><path clip-path="url(#clip672)" d="M253.288 1655.23 L253.288 1667.17 L301.985 1667.17 L301.985 1655.23 L253.288 1655.23 L253.288 1655.23  Z" fill="#009af9" fill-rule="evenodd" fill-opacity="1"/>
<polyline clip-path="url(#clip672)" style="stroke:#000000; stroke-linecap:round; stroke-linejoin:round; stroke-width:8; stroke-opacity:1; fill:none" points="253.288,1655.23 253.288,1667.17 301.985,1667.17 301.985,1655.23 253.288,1655.23 "/>
<path clip-path="url(#clip672)" d="M301.985 1649.26 L301.985 1667.17 L350.681 1667.17 L350.681 1649.26 L301.985 1649.26 L301.985 1649.26  Z" fill="#009af9" fill-rule="evenodd" fill-opacity="1"/>
<polyline clip-path="url(#clip672)" style="stroke:#000000; stroke-linecap:round; stroke-linejoin:round; stroke-width:8; stroke-opacity:1; fill:none" points="301.985,1649.26 301.985,1667.17 350.681,1667.17 350.681,1649.26 301.985,1649.26 "/>
<path clip-path="url(#clip672)" d="M350.681 1652.24 L350.681 1667.17 L399.377 1667.17 L399.377 1652.24 L350.681 1652.24 L350.681 1652.24  Z" fill="#009af9" fill-rule="evenodd" fill-opacity="1"/>
<polyline clip-path="url(#clip672)" style="stroke:#000000; stroke-linecap:round; stroke-linejoin:round; stroke-width:8; stroke-opacity:1; fill:none" points="350.681,1652.24 350.681,1667.17 399.377,1667.17 399.377,1652.24 350.681,1652.24 "/>
<path clip-path="url(#clip672)" d="M399.377 1607.47 L399.377 1667.17 L448.074 1667.17 L448.074 1607.47 L399.377 1607.47 L399.377 1607.47  Z" fill="#009af9" fill-rule="evenodd" fill-opacity="1"/>
<polyline clip-path="url(#clip672)" style="stroke:#000000; stroke-linecap:round; stroke-linejoin:round; stroke-width:8; stroke-opacity:1; fill:none" points="399.377,1607.47 399.377,1667.17 448.074,1667.17 448.074,1607.47 399.377,1607.47 "/>
<path clip-path="url(#clip672)" d="M448.074 1538.81 L448.074 1667.17 L496.77 1667.17 L496.77 1538.81 L448.074 1538.81 L448.074 1538.81  Z" fill="#009af9" fill-rule="evenodd" fill-opacity="1"/>
<polyline clip-path="url(#clip672)" style="stroke:#000000; stroke-linecap:round; stroke-linejoin:round; stroke-width:8; stroke-opacity:1; fill:none" points="448.074,1538.81 448.074,1667.17 496.77,1667.17 496.77,1538.81 448.074,1538.81 "/>
<path clip-path="url(#clip672)" d="M496.77 1508.96 L496.77 1667.17 L545.466 1667.17 L545.466 1508.96 L496.77 1508.96 L496.77 1508.96  Z" fill="#009af9" fill-rule="evenodd" fill-opacity="1"/>
<polyline clip-path="url(#clip672)" style="stroke:#000000; stroke-linecap:round; stroke-linejoin:round; stroke-width:8; stroke-opacity:1; fill:none" points="496.77,1508.96 496.77,1667.17 545.466,1667.17 545.466,1508.96 496.77,1508.96 "/>
<path clip-path="url(#clip672)" d="M545.466 1377.61 L545.466 1667.17 L594.163 1667.17 L594.163 1377.61 L545.466 1377.61 L545.466 1377.61  Z" fill="#009af9" fill-rule="evenodd" fill-opacity="1"/>
<polyline clip-path="url(#clip672)" style="stroke:#000000; stroke-linecap:round; stroke-linejoin:round; stroke-width:8; stroke-opacity:1; fill:none" points="545.466,1377.61 545.466,1667.17 594.163,1667.17 594.163,1377.61 545.466,1377.61 "/>
<path clip-path="url(#clip672)" d="M594.163 1285.07 L594.163 1667.17 L642.859 1667.17 L642.859 1285.07 L594.163 1285.07 L594.163 1285.07  Z" fill="#009af9" fill-rule="evenodd" fill-opacity="1"/>
<polyline clip-path="url(#clip672)" style="stroke:#000000; stroke-linecap:round; stroke-linejoin:round; stroke-width:8; stroke-opacity:1; fill:none" points="594.163,1285.07 594.163,1667.17 642.859,1667.17 642.859,1285.07 594.163,1285.07 "/>
<path clip-path="url(#clip672)" d="M642.859 1064.17 L642.859 1667.17 L691.555 1667.17 L691.555 1064.17 L642.859 1064.17 L642.859 1064.17  Z" fill="#009af9" fill-rule="evenodd" fill-opacity="1"/>
<polyline clip-path="url(#clip672)" style="stroke:#000000; stroke-linecap:round; stroke-linejoin:round; stroke-width:8; stroke-opacity:1; fill:none" points="642.859,1064.17 642.859,1667.17 691.555,1667.17 691.555,1064.17 642.859,1064.17 "/>
<path clip-path="url(#clip672)" d="M691.555 864.171 L691.555 1667.17 L740.252 1667.17 L740.252 864.171 L691.555 864.171 L691.555 864.171  Z" fill="#009af9" fill-rule="evenodd" fill-opacity="1"/>
<polyline clip-path="url(#clip672)" style="stroke:#000000; stroke-linecap:round; stroke-linejoin:round; stroke-width:8; stroke-opacity:1; fill:none" points="691.555,864.171 691.555,1667.17 740.252,1667.17 740.252,864.171 691.555,864.171 "/>
<path clip-path="url(#clip672)" d="M740.252 631.331 L740.252 1667.17 L788.948 1667.17 L788.948 631.331 L740.252 631.331 L740.252 631.331  Z" fill="#009af9" fill-rule="evenodd" fill-opacity="1"/>
<polyline clip-path="url(#clip672)" style="stroke:#000000; stroke-linecap:round; stroke-linejoin:round; stroke-width:8; stroke-opacity:1; fill:none" points="740.252,631.331 740.252,1667.17 788.948,1667.17 788.948,631.331 740.252,631.331 "/>
<path clip-path="url(#clip672)" d="M788.948 389.537 L788.948 1667.17 L837.645 1667.17 L837.645 389.537 L788.948 389.537 L788.948 389.537  Z" fill="#009af9" fill-rule="evenodd" fill-opacity="1"/>
<polyline clip-path="url(#clip672)" style="stroke:#000000; stroke-linecap:round; stroke-linejoin:round; stroke-width:8; stroke-opacity:1; fill:none" points="788.948,389.537 788.948,1667.17 837.645,1667.17 837.645,389.537 788.948,389.537 "/>
<path clip-path="url(#clip672)" d="M837.645 192.519 L837.645 1667.17 L886.341 1667.17 L886.341 192.519 L837.645 192.519 L837.645 192.519  Z" fill="#009af9" fill-rule="evenodd" fill-opacity="1"/>
<polyline clip-path="url(#clip672)" style="stroke:#000000; stroke-linecap:round; stroke-linejoin:round; stroke-width:8; stroke-opacity:1; fill:none" points="837.645,192.519 837.645,1667.17 886.341,1667.17 886.341,192.519 837.645,192.519 "/>
<path clip-path="url(#clip672)" d="M886.341 186.548 L886.341 1667.17 L935.037 1667.17 L935.037 186.548 L886.341 186.548 L886.341 186.548  Z" fill="#009af9" fill-rule="evenodd" fill-opacity="1"/>
<polyline clip-path="url(#clip672)" style="stroke:#000000; stroke-linecap:round; stroke-linejoin:round; stroke-width:8; stroke-opacity:1; fill:none" points="886.341,186.548 886.341,1667.17 935.037,1667.17 935.037,186.548 886.341,186.548 "/>
<path clip-path="url(#clip672)" d="M935.037 153.712 L935.037 1667.17 L983.734 1667.17 L983.734 153.712 L935.037 153.712 L935.037 153.712  Z" fill="#009af9" fill-rule="evenodd" fill-opacity="1"/>
<polyline clip-path="url(#clip672)" style="stroke:#000000; stroke-linecap:round; stroke-linejoin:round; stroke-width:8; stroke-opacity:1; fill:none" points="935.037,153.712 935.037,1667.17 983.734,1667.17 983.734,153.712 935.037,153.712 "/>
<path clip-path="url(#clip672)" d="M983.734 332.819 L983.734 1667.17 L1032.43 1667.17 L1032.43 332.819 L983.734 332.819 L983.734 332.819  Z" fill="#009af9" fill-rule="evenodd" fill-opacity="1"/>
<polyline clip-path="url(#clip672)" style="stroke:#000000; stroke-linecap:round; stroke-linejoin:round; stroke-width:8; stroke-opacity:1; fill:none" points="983.734,332.819 983.734,1667.17 1032.43,1667.17 1032.43,332.819 983.734,332.819 "/>
<path clip-path="url(#clip672)" d="M1032.43 443.269 L1032.43 1667.17 L1081.13 1667.17 L1081.13 443.269 L1032.43 443.269 L1032.43 443.269  Z" fill="#009af9" fill-rule="evenodd" fill-opacity="1"/>
<polyline clip-path="url(#clip672)" style="stroke:#000000; stroke-linecap:round; stroke-linejoin:round; stroke-width:8; stroke-opacity:1; fill:none" points="1032.43,443.269 1032.43,1667.17 1081.13,1667.17 1081.13,443.269 1032.43,443.269 "/>
<path clip-path="url(#clip672)" d="M1081.13 667.153 L1081.13 1667.17 L1129.82 1667.17 L1129.82 667.153 L1081.13 667.153 L1081.13 667.153  Z" fill="#009af9" fill-rule="evenodd" fill-opacity="1"/>
<polyline clip-path="url(#clip672)" style="stroke:#000000; stroke-linecap:round; stroke-linejoin:round; stroke-width:8; stroke-opacity:1; fill:none" points="1081.13,667.153 1081.13,1667.17 1129.82,1667.17 1129.82,667.153 1081.13,667.153 "/>
<path clip-path="url(#clip672)" d="M1129.82 971.635 L1129.82 1667.17 L1178.52 1667.17 L1178.52 971.635 L1129.82 971.635 L1129.82 971.635  Z" fill="#009af9" fill-rule="evenodd" fill-opacity="1"/>
<polyline clip-path="url(#clip672)" style="stroke:#000000; stroke-linecap:round; stroke-linejoin:round; stroke-width:8; stroke-opacity:1; fill:none" points="1129.82,971.635 1129.82,1667.17 1178.52,1667.17 1178.52,971.635 1129.82,971.635 "/>
<path clip-path="url(#clip672)" d="M1178.52 1073.13 L1178.52 1667.17 L1227.22 1667.17 L1227.22 1073.13 L1178.52 1073.13 L1178.52 1073.13  Z" fill="#009af9" fill-rule="evenodd" fill-opacity="1"/>
<polyline clip-path="url(#clip672)" style="stroke:#000000; stroke-linecap:round; stroke-linejoin:round; stroke-width:8; stroke-opacity:1; fill:none" points="1178.52,1073.13 1178.52,1667.17 1227.22,1667.17 1227.22,1073.13 1178.52,1073.13 "/>
<path clip-path="url(#clip672)" d="M1227.22 1347.76 L1227.22 1667.17 L1275.91 1667.17 L1275.91 1347.76 L1227.22 1347.76 L1227.22 1347.76  Z" fill="#009af9" fill-rule="evenodd" fill-opacity="1"/>
<polyline clip-path="url(#clip672)" style="stroke:#000000; stroke-linecap:round; stroke-linejoin:round; stroke-width:8; stroke-opacity:1; fill:none" points="1227.22,1347.76 1227.22,1667.17 1275.91,1667.17 1275.91,1347.76 1227.22,1347.76 "/>
<path clip-path="url(#clip672)" d="M1275.91 1449.25 L1275.91 1667.17 L1324.61 1667.17 L1324.61 1449.25 L1275.91 1449.25 L1275.91 1449.25  Z" fill="#009af9" fill-rule="evenodd" fill-opacity="1"/>
<polyline clip-path="url(#clip672)" style="stroke:#000000; stroke-linecap:round; stroke-linejoin:round; stroke-width:8; stroke-opacity:1; fill:none" points="1275.91,1449.25 1275.91,1667.17 1324.61,1667.17 1324.61,1449.25 1275.91,1449.25 "/>
<path clip-path="url(#clip672)" d="M1324.61 1541.79 L1324.61 1667.17 L1373.3 1667.17 L1373.3 1541.79 L1324.61 1541.79 L1324.61 1541.79  Z" fill="#009af9" fill-rule="evenodd" fill-opacity="1"/>
<polyline clip-path="url(#clip672)" style="stroke:#000000; stroke-linecap:round; stroke-linejoin:round; stroke-width:8; stroke-opacity:1; fill:none" points="1324.61,1541.79 1324.61,1667.17 1373.3,1667.17 1373.3,1541.79 1324.61,1541.79 "/>
<path clip-path="url(#clip672)" d="M1373.3 1580.6 L1373.3 1667.17 L1422 1667.17 L1422 1580.6 L1373.3 1580.6 L1373.3 1580.6  Z" fill="#009af9" fill-rule="evenodd" fill-opacity="1"/>
<polyline clip-path="url(#clip672)" style="stroke:#000000; stroke-linecap:round; stroke-linejoin:round; stroke-width:8; stroke-opacity:1; fill:none" points="1373.3,1580.6 1373.3,1667.17 1422,1667.17 1422,1580.6 1373.3,1580.6 "/>
<path clip-path="url(#clip672)" d="M1422 1625.38 L1422 1667.17 L1470.7 1667.17 L1470.7 1625.38 L1422 1625.38 L1422 1625.38  Z" fill="#009af9" fill-rule="evenodd" fill-opacity="1"/>
<polyline clip-path="url(#clip672)" style="stroke:#000000; stroke-linecap:round; stroke-linejoin:round; stroke-width:8; stroke-opacity:1; fill:none" points="1422,1625.38 1422,1667.17 1470.7,1667.17 1470.7,1625.38 1422,1625.38 "/>
<path clip-path="url(#clip672)" d="M1470.7 1646.27 L1470.7 1667.17 L1519.39 1667.17 L1519.39 1646.27 L1470.7 1646.27 L1470.7 1646.27  Z" fill="#009af9" fill-rule="evenodd" fill-opacity="1"/>
<polyline clip-path="url(#clip672)" style="stroke:#000000; stroke-linecap:round; stroke-linejoin:round; stroke-width:8; stroke-opacity:1; fill:none" points="1470.7,1646.27 1470.7,1667.17 1519.39,1667.17 1519.39,1646.27 1470.7,1646.27 "/>
<path clip-path="url(#clip672)" d="M1519.39 1655.23 L1519.39 1667.17 L1568.09 1667.17 L1568.09 1655.23 L1519.39 1655.23 L1519.39 1655.23  Z" fill="#009af9" fill-rule="evenodd" fill-opacity="1"/>
<polyline clip-path="url(#clip672)" style="stroke:#000000; stroke-linecap:round; stroke-linejoin:round; stroke-width:8; stroke-opacity:1; fill:none" points="1519.39,1655.23 1519.39,1667.17 1568.09,1667.17 1568.09,1655.23 1519.39,1655.23 "/>
<path clip-path="url(#clip672)" d="M1568.09 1667.17 L1568.09 1667.17 L1616.79 1667.17 L1616.79 1667.17 L1568.09 1667.17 L1568.09 1667.17  Z" fill="#009af9" fill-rule="evenodd" fill-opacity="1"/>
<polyline clip-path="url(#clip672)" style="stroke:#000000; stroke-linecap:round; stroke-linejoin:round; stroke-width:8; stroke-opacity:1; fill:none" points="1568.09,1667.17 1568.09,1667.17 1616.79,1667.17 1568.09,1667.17 "/>
<path clip-path="url(#clip672)" d="M1616.79 1664.18 L1616.79 1667.17 L1665.48 1667.17 L1665.48 1664.18 L1616.79 1664.18 L1616.79 1664.18  Z" fill="#009af9" fill-rule="evenodd" fill-opacity="1"/>
<polyline clip-path="url(#clip672)" style="stroke:#000000; stroke-linecap:round; stroke-linejoin:round; stroke-width:8; stroke-opacity:1; fill:none" points="1616.79,1664.18 1616.79,1667.17 1665.48,1667.17 1665.48,1664.18 1616.79,1664.18 "/>
<circle clip-path="url(#clip672)" style="fill:#009af9; stroke:none; fill-opacity:0" cx="277.637" cy="1655.23" r="2"/>
<circle clip-path="url(#clip672)" style="fill:#009af9; stroke:none; fill-opacity:0" cx="326.333" cy="1649.26" r="2"/>
<circle clip-path="url(#clip672)" style="fill:#009af9; stroke:none; fill-opacity:0" cx="375.029" cy="1652.24" r="2"/>
<circle clip-path="url(#clip672)" style="fill:#009af9; stroke:none; fill-opacity:0" cx="423.726" cy="1607.47" r="2"/>
<circle clip-path="url(#clip672)" style="fill:#009af9; stroke:none; fill-opacity:0" cx="472.422" cy="1538.81" r="2"/>
<circle clip-path="url(#clip672)" style="fill:#009af9; stroke:none; fill-opacity:0" cx="521.118" cy="1508.96" r="2"/>
<circle clip-path="url(#clip672)" style="fill:#009af9; stroke:none; fill-opacity:0" cx="569.815" cy="1377.61" r="2"/>
<circle clip-path="url(#clip672)" style="fill:#009af9; stroke:none; fill-opacity:0" cx="618.511" cy="1285.07" r="2"/>
<circle clip-path="url(#clip672)" style="fill:#009af9; stroke:none; fill-opacity:0" cx="667.207" cy="1064.17" r="2"/>
<circle clip-path="url(#clip672)" style="fill:#009af9; stroke:none; fill-opacity:0" cx="715.904" cy="864.171" r="2"/>
<circle clip-path="url(#clip672)" style="fill:#009af9; stroke:none; fill-opacity:0" cx="764.6" cy="631.331" r="2"/>
<circle clip-path="url(#clip672)" style="fill:#009af9; stroke:none; fill-opacity:0" cx="813.296" cy="389.537" r="2"/>
<circle clip-path="url(#clip672)" style="fill:#009af9; stroke:none; fill-opacity:0" cx="861.993" cy="192.519" r="2"/>
<circle clip-path="url(#clip672)" style="fill:#009af9; stroke:none; fill-opacity:0" cx="910.689" cy="186.548" r="2"/>
<circle clip-path="url(#clip672)" style="fill:#009af9; stroke:none; fill-opacity:0" cx="959.385" cy="153.712" r="2"/>
<circle clip-path="url(#clip672)" style="fill:#009af9; stroke:none; fill-opacity:0" cx="1008.08" cy="332.819" r="2"/>
<circle clip-path="url(#clip672)" style="fill:#009af9; stroke:none; fill-opacity:0" cx="1056.78" cy="443.269" r="2"/>
<circle clip-path="url(#clip672)" style="fill:#009af9; stroke:none; fill-opacity:0" cx="1105.47" cy="667.153" r="2"/>
<circle clip-path="url(#clip672)" style="fill:#009af9; stroke:none; fill-opacity:0" cx="1154.17" cy="971.635" r="2"/>
<circle clip-path="url(#clip672)" style="fill:#009af9; stroke:none; fill-opacity:0" cx="1202.87" cy="1073.13" r="2"/>
<circle clip-path="url(#clip672)" style="fill:#009af9; stroke:none; fill-opacity:0" cx="1251.56" cy="1347.76" r="2"/>
<circle clip-path="url(#clip672)" style="fill:#009af9; stroke:none; fill-opacity:0" cx="1300.26" cy="1449.25" r="2"/>
<circle clip-path="url(#clip672)" style="fill:#009af9; stroke:none; fill-opacity:0" cx="1348.96" cy="1541.79" r="2"/>
<circle clip-path="url(#clip672)" style="fill:#009af9; stroke:none; fill-opacity:0" cx="1397.65" cy="1580.6" r="2"/>
<circle clip-path="url(#clip672)" style="fill:#009af9; stroke:none; fill-opacity:0" cx="1446.35" cy="1625.38" r="2"/>
<circle clip-path="url(#clip672)" style="fill:#009af9; stroke:none; fill-opacity:0" cx="1495.05" cy="1646.27" r="2"/>
<circle clip-path="url(#clip672)" style="fill:#009af9; stroke:none; fill-opacity:0" cx="1543.74" cy="1655.23" r="2"/>
<circle clip-path="url(#clip672)" style="fill:#009af9; stroke:none; fill-opacity:0" cx="1592.44" cy="1667.17" r="2"/>
<circle clip-path="url(#clip672)" style="fill:#009af9; stroke:none; fill-opacity:0" cx="1641.13" cy="1664.18" r="2"/>
<polyline clip-path="url(#clip672)" style="stroke:#e26f46; stroke-linecap:round; stroke-linejoin:round; stroke-width:8; stroke-opacity:1; fill:none" points="897.857,3180.62 897.857,-1359.74 "/>
</svg>
