<?xml version="1.0" encoding="utf-8"?>
<svg xmlns="http://www.w3.org/2000/svg" xmlns:xlink="http://www.w3.org/1999/xlink" width="450" height="450" viewBox="0 0 1800 1800">
<defs>
  <clipPath id="clip580">
    <rect x="0" y="0" width="1800" height="1800"/>
  </clipPath>
</defs>
<path clip-path="url(#clip580)" d="M0 1800 L1800 1800 L1800 0 L0 0  Z" fill="#ffffff" fill-rule="evenodd" fill-opacity="1"/>
<defs>
  <clipPath id="clip581">
    <rect x="360" y="180" width="1261" height="1261"/>
  </clipPath>
</defs>
<path clip-path="url(#clip580)" d="M164.857 1667.17 L1752.76 1667.17 L1752.76 153.712 L164.857 153.712  Z" fill="#ffffff" fill-rule="evenodd" fill-opacity="1"/>
<defs>
  <clipPath id="clip582">
    <rect x="164" y="153" width="1589" height="1514"/>
  </clipPath>
</defs>
<polyline clip-path="url(#clip582)" style="stroke:#000000; stroke-linecap:round; stroke-linejoin:round; stroke-width:2; stroke-opacity:0.1; fill:none" points="287.525,1667.17 287.525,153.712 "/>
<polyline clip-path="url(#clip582)" style="stroke:#000000; stroke-linecap:round; stroke-linejoin:round; stroke-width:2; stroke-opacity:0.1; fill:none" points="640.831,1667.17 640.831,153.712 "/>
<polyline clip-path="url(#clip582)" style="stroke:#000000; stroke-linecap:round; stroke-linejoin:round; stroke-width:2; stroke-opacity:0.1; fill:none" points="994.137,1667.17 994.137,153.712 "/>
<polyline clip-path="url(#clip582)" style="stroke:#000000; stroke-linecap:round; stroke-linejoin:round; stroke-width:2; stroke-opacity:0.1; fill:none" points="1347.44,1667.17 1347.44,153.712 "/>
<polyline clip-path="url(#clip582)" style="stroke:#000000; stroke-linecap:round; stroke-linejoin:round; stroke-width:2; stroke-opacity:0.1; fill:none" points="1700.75,1667.17 1700.75,153.712 "/>
<polyline clip-path="url(#clip580)" style="stroke:#000000; stroke-linecap:round; stroke-linejoin:round; stroke-width:4; stroke-opacity:1; fill:none" points="164.857,1667.17 1752.76,1667.17 "/>
<polyline clip-path="url(#clip580)" style="stroke:#000000; stroke-linecap:round; stroke-linejoin:round; stroke-width:4; stroke-opacity:1; fill:none" points="287.525,1667.17 287.525,1648.27 "/>
<polyline clip-path="url(#clip580)" style="stroke:#000000; stroke-linecap:round; stroke-linejoin:round; stroke-width:4; stroke-opacity:1; fill:none" points="640.831,1667.17 640.831,1648.27 "/>
<polyline clip-path="url(#clip580)" style="stroke:#000000; stroke-linecap:round; stroke-linejoin:round; stroke-width:4; stroke-opacity:1; fill:none" points="994.137,1667.17 994.137,1648.27 "/>
<polyline clip-path="url(#clip580)" style="stroke:#000000; stroke-linecap:round; stroke-linejoin:round; stroke-width:4; stroke-opacity:1; fill:none" points="1347.44,1667.17 1347.44,1648.27 "/>
<polyline clip-path="url(#clip580)" style="stroke:#000000; stroke-linecap:round; stroke-linejoin:round; stroke-width:4; stroke-opacity:1; fill:none" points="1700.75,1667.17 1700.75,1648.27 "/>
<path clip-path="url(#clip580)" d="M265.708 1693.29 Q262.097 1693.29 260.268 1696.85 Q258.463 1700.39 258.463 1707.52 Q258.463 1714.63 260.268 1718.19 Q262.097 1721.74 265.708 1721.74 Q269.342 1721.74 271.148 1718.19 Q272.977 1714.63 272.977 1707.52 Q272.977 1700.39 271.148 1696.85 Q269.342 1693.29 265.708 1693.29 M265.708 1689.58 Q271.518 1689.58 274.574 1694.19 Q277.653 1698.77 277.653 1707.52 Q277.653 1716.25 274.574 1720.86 Q271.518 1725.44 265.708 1725.44 Q259.898 1725.44 256.819 1720.86 Q253.764 1716.25 253.764 1707.52 Q253.764 1698.77 256.819 1694.19 Q259.898 1689.58 265.708 1689.58 Z" fill="#000000" fill-rule="nonzero" fill-opacity="1" /><path clip-path="url(#clip580)" d="M285.87 1718.89 L290.754 1718.89 L290.754 1724.77 L285.87 1724.77 L285.87 1718.89 Z" fill="#000000" fill-rule="nonzero" fill-opacity="1" /><path clip-path="url(#clip580)" d="M304.967 1720.83 L321.287 1720.83 L321.287 1724.77 L299.342 1724.77 L299.342 1720.83 Q302.004 1718.08 306.588 1713.45 Q311.194 1708.8 312.375 1707.45 Q314.62 1704.93 315.5 1703.19 Q316.402 1701.43 316.402 1699.74 Q316.402 1696.99 314.458 1695.25 Q312.537 1693.52 309.435 1693.52 Q307.236 1693.52 304.782 1694.28 Q302.352 1695.05 299.574 1696.6 L299.574 1691.87 Q302.398 1690.74 304.852 1690.16 Q307.305 1689.58 309.342 1689.58 Q314.713 1689.58 317.907 1692.27 Q321.101 1694.95 321.101 1699.44 Q321.101 1701.57 320.291 1703.49 Q319.504 1705.39 317.398 1707.99 Q316.819 1708.66 313.717 1711.87 Q310.615 1715.07 304.967 1720.83 Z" fill="#000000" fill-rule="nonzero" fill-opacity="1" /><path clip-path="url(#clip580)" d="M617.973 1693.29 Q614.361 1693.29 612.533 1696.85 Q610.727 1700.39 610.727 1707.52 Q610.727 1714.63 612.533 1718.19 Q614.361 1721.74 617.973 1721.74 Q621.607 1721.74 623.412 1718.19 Q625.241 1714.63 625.241 1707.52 Q625.241 1700.39 623.412 1696.85 Q621.607 1693.29 617.973 1693.29 M617.973 1689.58 Q623.783 1689.58 626.838 1694.19 Q629.917 1698.77 629.917 1707.52 Q629.917 1716.25 626.838 1720.86 Q623.783 1725.44 617.973 1725.44 Q612.162 1725.44 609.084 1720.86 Q606.028 1716.25 606.028 1707.52 Q606.028 1698.77 609.084 1694.19 Q612.162 1689.58 617.973 1689.58 Z" fill="#000000" fill-rule="nonzero" fill-opacity="1" /><path clip-path="url(#clip580)" d="M638.135 1718.89 L643.019 1718.89 L643.019 1724.77 L638.135 1724.77 L638.135 1718.89 Z" fill="#000000" fill-rule="nonzero" fill-opacity="1" /><path clip-path="url(#clip580)" d="M666.051 1694.28 L654.246 1712.73 L666.051 1712.73 L666.051 1694.28 M664.824 1690.21 L670.704 1690.21 L670.704 1712.73 L675.634 1712.73 L675.634 1716.62 L670.704 1716.62 L670.704 1724.77 L666.051 1724.77 L666.051 1716.62 L650.449 1716.62 L650.449 1712.11 L664.824 1690.21 Z" fill="#000000" fill-rule="nonzero" fill-opacity="1" /><path clip-path="url(#clip580)" d="M971.441 1693.29 Q967.83 1693.29 966.001 1696.85 Q964.195 1700.39 964.195 1707.52 Q964.195 1714.63 966.001 1718.19 Q967.83 1721.74 971.441 1721.74 Q975.075 1721.74 976.88 1718.19 Q978.709 1714.63 978.709 1707.52 Q978.709 1700.39 976.88 1696.85 Q975.075 1693.29 971.441 1693.29 M971.441 1689.58 Q977.251 1689.58 980.306 1694.19 Q983.385 1698.77 983.385 1707.52 Q983.385 1716.25 980.306 1720.86 Q977.251 1725.44 971.441 1725.44 Q965.63 1725.44 962.552 1720.86 Q959.496 1716.25 959.496 1707.52 Q959.496 1698.77 962.552 1694.19 Q965.63 1689.58 971.441 1689.58 Z" fill="#000000" fill-rule="nonzero" fill-opacity="1" /><path clip-path="url(#clip580)" d="M991.603 1718.89 L996.487 1718.89 L996.487 1724.77 L991.603 1724.77 L991.603 1718.89 Z" fill="#000000" fill-rule="nonzero" fill-opacity="1" /><path clip-path="url(#clip580)" d="M1017.25 1705.62 Q1014.1 1705.62 1012.25 1707.78 Q1010.42 1709.93 1010.42 1713.68 Q1010.42 1717.41 1012.25 1719.58 Q1014.1 1721.74 1017.25 1721.74 Q1020.4 1721.74 1022.23 1719.58 Q1024.08 1717.41 1024.08 1713.68 Q1024.08 1709.93 1022.23 1707.78 Q1020.4 1705.62 1017.25 1705.62 M1026.53 1690.97 L1026.53 1695.23 Q1024.77 1694.4 1022.97 1693.96 Q1021.19 1693.52 1019.43 1693.52 Q1014.8 1693.52 1012.34 1696.64 Q1009.91 1699.77 1009.57 1706.09 Q1010.93 1704.07 1012.99 1703.01 Q1015.05 1701.92 1017.53 1701.92 Q1022.74 1701.92 1025.75 1705.09 Q1028.78 1708.24 1028.78 1713.68 Q1028.78 1719 1025.63 1722.22 Q1022.48 1725.44 1017.25 1725.44 Q1011.26 1725.44 1008.08 1720.86 Q1004.91 1716.25 1004.91 1707.52 Q1004.91 1699.33 1008.8 1694.47 Q1012.69 1689.58 1019.24 1689.58 Q1021 1689.58 1022.78 1689.93 Q1024.59 1690.28 1026.53 1690.97 Z" fill="#000000" fill-rule="nonzero" fill-opacity="1" /><path clip-path="url(#clip580)" d="M1324.87 1693.29 Q1321.26 1693.29 1319.43 1696.85 Q1317.63 1700.39 1317.63 1707.52 Q1317.63 1714.63 1319.43 1718.19 Q1321.26 1721.74 1324.87 1721.74 Q1328.51 1721.74 1330.31 1718.19 Q1332.14 1714.63 1332.14 1707.52 Q1332.14 1700.39 1330.31 1696.85 Q1328.51 1693.29 1324.87 1693.29 M1324.87 1689.58 Q1330.68 1689.58 1333.74 1694.19 Q1336.82 1698.77 1336.82 1707.52 Q1336.82 1716.25 1333.74 1720.86 Q1330.68 1725.44 1324.87 1725.44 Q1319.06 1725.44 1315.99 1720.86 Q1312.93 1716.25 1312.93 1707.52 Q1312.93 1698.77 1315.99 1694.19 Q1319.06 1689.58 1324.87 1689.58 Z" fill="#000000" fill-rule="nonzero" fill-opacity="1" /><path clip-path="url(#clip580)" d="M1345.04 1718.89 L1349.92 1718.89 L1349.92 1724.77 L1345.04 1724.77 L1345.04 1718.89 Z" fill="#000000" fill-rule="nonzero" fill-opacity="1" /><path clip-path="url(#clip580)" d="M1370.11 1708.36 Q1366.77 1708.36 1364.85 1710.14 Q1362.95 1711.92 1362.95 1715.05 Q1362.95 1718.17 1364.85 1719.95 Q1366.77 1721.74 1370.11 1721.74 Q1373.44 1721.74 1375.36 1719.95 Q1377.28 1718.15 1377.28 1715.05 Q1377.28 1711.92 1375.36 1710.14 Q1373.46 1708.36 1370.11 1708.36 M1365.43 1706.37 Q1362.42 1705.62 1360.73 1703.56 Q1359.06 1701.5 1359.06 1698.54 Q1359.06 1694.4 1362 1691.99 Q1364.97 1689.58 1370.11 1689.58 Q1375.27 1689.58 1378.21 1691.99 Q1381.15 1694.4 1381.15 1698.54 Q1381.15 1701.5 1379.46 1703.56 Q1377.79 1705.62 1374.8 1706.37 Q1378.18 1707.15 1380.06 1709.44 Q1381.96 1711.74 1381.96 1715.05 Q1381.96 1720.07 1378.88 1722.75 Q1375.82 1725.44 1370.11 1725.44 Q1364.39 1725.44 1361.31 1722.75 Q1358.25 1720.07 1358.25 1715.05 Q1358.25 1711.74 1360.15 1709.44 Q1362.05 1707.15 1365.43 1706.37 M1363.72 1698.98 Q1363.72 1701.67 1365.38 1703.17 Q1367.07 1704.68 1370.11 1704.68 Q1373.11 1704.68 1374.8 1703.17 Q1376.52 1701.67 1376.52 1698.98 Q1376.52 1696.3 1374.8 1694.79 Q1373.11 1693.29 1370.11 1693.29 Q1367.07 1693.29 1365.38 1694.79 Q1363.72 1696.3 1363.72 1698.98 Z" fill="#000000" fill-rule="nonzero" fill-opacity="1" /><path clip-path="url(#clip580)" d="M1667.9 1720.83 L1675.54 1720.83 L1675.54 1694.47 L1667.23 1696.13 L1667.23 1691.87 L1675.49 1690.21 L1680.17 1690.21 L1680.17 1720.83 L1687.81 1720.83 L1687.81 1724.77 L1667.9 1724.77 L1667.9 1720.83 Z" fill="#000000" fill-rule="nonzero" fill-opacity="1" /><path clip-path="url(#clip580)" d="M1697.25 1718.89 L1702.14 1718.89 L1702.14 1724.77 L1697.25 1724.77 L1697.25 1718.89 Z" fill="#000000" fill-rule="nonzero" fill-opacity="1" /><path clip-path="url(#clip580)" d="M1722.32 1693.29 Q1718.71 1693.29 1716.88 1696.85 Q1715.08 1700.39 1715.08 1707.52 Q1715.08 1714.63 1716.88 1718.19 Q1718.71 1721.74 1722.32 1721.74 Q1725.96 1721.74 1727.76 1718.19 Q1729.59 1714.63 1729.59 1707.52 Q1729.59 1700.39 1727.76 1696.85 Q1725.96 1693.29 1722.32 1693.29 M1722.32 1689.58 Q1728.13 1689.58 1731.19 1694.19 Q1734.27 1698.77 1734.27 1707.52 Q1734.27 1716.25 1731.19 1720.86 Q1728.13 1725.44 1722.32 1725.44 Q1716.51 1725.44 1713.43 1720.86 Q1710.38 1716.25 1710.38 1707.52 Q1710.38 1698.77 1713.43 1694.19 Q1716.51 1689.58 1722.32 1689.58 Z" fill="#000000" fill-rule="nonzero" fill-opacity="1" /><polyline clip-path="url(#clip582)" style="stroke:#000000; stroke-linecap:round; stroke-linejoin:round; stroke-width:2; stroke-opacity:0.1; fill:none" points="164.857,1667.17 1752.76,1667.17 "/>
<polyline clip-path="url(#clip582)" style="stroke:#000000; stroke-linecap:round; stroke-linejoin:round; stroke-width:2; stroke-opacity:0.1; fill:none" points="164.857,1408.01 1752.76,1408.01 "/>
<polyline clip-path="url(#clip582)" style="stroke:#000000; stroke-linecap:round; stroke-linejoin:round; stroke-width:2; stroke-opacity:0.1; fill:none" points="164.857,1148.86 1752.76,1148.86 "/>
<polyline clip-path="url(#clip582)" style="stroke:#000000; stroke-linecap:round; stroke-linejoin:round; stroke-width:2; stroke-opacity:0.1; fill:none" points="164.857,889.708 1752.76,889.708 "/>
<polyline clip-path="url(#clip582)" style="stroke:#000000; stroke-linecap:round; stroke-linejoin:round; stroke-width:2; stroke-opacity:0.1; fill:none" points="164.857,630.554 1752.76,630.554 "/>
<polyline clip-path="url(#clip582)" style="stroke:#000000; stroke-linecap:round; stroke-linejoin:round; stroke-width:2; stroke-opacity:0.1; fill:none" points="164.857,371.401 1752.76,371.401 "/>
<polyline clip-path="url(#clip580)" style="stroke:#000000; stroke-linecap:round; stroke-linejoin:round; stroke-width:4; stroke-opacity:1; fill:none" points="164.857,1667.17 164.857,153.712 "/>
<polyline clip-path="url(#clip580)" style="stroke:#000000; stroke-linecap:round; stroke-linejoin:round; stroke-width:4; stroke-opacity:1; fill:none" points="164.857,1667.17 183.755,1667.17 "/>
<polyline clip-path="url(#clip580)" style="stroke:#000000; stroke-linecap:round; stroke-linejoin:round; stroke-width:4; stroke-opacity:1; fill:none" points="164.857,1408.01 183.755,1408.01 "/>
<polyline clip-path="url(#clip580)" style="stroke:#000000; stroke-linecap:round; stroke-linejoin:round; stroke-width:4; stroke-opacity:1; fill:none" points="164.857,1148.86 183.755,1148.86 "/>
<polyline clip-path="url(#clip580)" style="stroke:#000000; stroke-linecap:round; stroke-linejoin:round; stroke-width:4; stroke-opacity:1; fill:none" points="164.857,889.708 183.755,889.708 "/>
<polyline clip-path="url(#clip580)" style="stroke:#000000; stroke-linecap:round; stroke-linejoin:round; stroke-width:4; stroke-opacity:1; fill:none" points="164.857,630.554 183.755,630.554 "/>
<polyline clip-path="url(#clip580)" style="stroke:#000000; stroke-linecap:round; stroke-linejoin:round; stroke-width:4; stroke-opacity:1; fill:none" points="164.857,371.401 183.755,371.401 "/>
<path clip-path="url(#clip580)" d="M125.913 1652.97 Q122.302 1652.97 120.473 1656.53 Q118.668 1660.07 118.668 1667.2 Q118.668 1674.31 120.473 1677.87 Q122.302 1681.42 125.913 1681.42 Q129.547 1681.42 131.353 1677.87 Q133.182 1674.31 133.182 1667.2 Q133.182 1660.07 131.353 1656.53 Q129.547 1652.97 125.913 1652.97 M125.913 1649.26 Q131.723 1649.26 134.779 1653.87 Q137.857 1658.45 137.857 1667.2 Q137.857 1675.93 134.779 1680.54 Q131.723 1685.12 125.913 1685.12 Q120.103 1685.12 117.024 1680.54 Q113.969 1675.93 113.969 1667.2 Q113.969 1658.45 117.024 1653.87 Q120.103 1649.26 125.913 1649.26 Z" fill="#000000" fill-rule="nonzero" fill-opacity="1" /><path clip-path="url(#clip580)" d="M85.7975 1390.73 L104.154 1390.73 L104.154 1394.67 L90.0799 1394.67 L90.0799 1403.14 Q91.0984 1402.79 92.1169 1402.63 Q93.1354 1402.45 94.1539 1402.45 Q99.941 1402.45 103.321 1405.62 Q106.7 1408.79 106.7 1414.21 Q106.7 1419.79 103.228 1422.89 Q99.7558 1425.97 93.4364 1425.97 Q91.2604 1425.97 88.9919 1425.6 Q86.7466 1425.23 84.3392 1424.48 L84.3392 1419.79 Q86.4225 1420.92 88.6447 1421.48 Q90.8669 1422.03 93.3438 1422.03 Q97.3484 1422.03 99.6863 1419.92 Q102.024 1417.82 102.024 1414.21 Q102.024 1410.6 99.6863 1408.49 Q97.3484 1406.38 93.3438 1406.38 Q91.4688 1406.38 89.5938 1406.8 Q87.7419 1407.22 85.7975 1408.1 L85.7975 1390.73 Z" fill="#000000" fill-rule="nonzero" fill-opacity="1" /><path clip-path="url(#clip580)" d="M125.913 1393.81 Q122.302 1393.81 120.473 1397.38 Q118.668 1400.92 118.668 1408.05 Q118.668 1415.16 120.473 1418.72 Q122.302 1422.26 125.913 1422.26 Q129.547 1422.26 131.353 1418.72 Q133.182 1415.16 133.182 1408.05 Q133.182 1400.92 131.353 1397.38 Q129.547 1393.81 125.913 1393.81 M125.913 1390.11 Q131.723 1390.11 134.779 1394.72 Q137.857 1399.3 137.857 1408.05 Q137.857 1416.78 134.779 1421.38 Q131.723 1425.97 125.913 1425.97 Q120.103 1425.97 117.024 1421.38 Q113.969 1416.78 113.969 1408.05 Q113.969 1399.3 117.024 1394.72 Q120.103 1390.11 125.913 1390.11 Z" fill="#000000" fill-rule="nonzero" fill-opacity="1" /><path clip-path="url(#clip580)" d="M56.3995 1162.21 L64.0384 1162.21 L64.0384 1135.84 L55.7282 1137.51 L55.7282 1133.25 L63.9921 1131.58 L68.668 1131.58 L68.668 1162.21 L76.3068 1162.21 L76.3068 1166.14 L56.3995 1166.14 L56.3995 1162.21 Z" fill="#000000" fill-rule="nonzero" fill-opacity="1" /><path clip-path="url(#clip580)" d="M95.7512 1134.66 Q92.1401 1134.66 90.3114 1138.22 Q88.5058 1141.77 88.5058 1148.9 Q88.5058 1156 90.3114 1159.57 Q92.1401 1163.11 95.7512 1163.11 Q99.3854 1163.11 101.191 1159.57 Q103.02 1156 103.02 1148.9 Q103.02 1141.77 101.191 1138.22 Q99.3854 1134.66 95.7512 1134.66 M95.7512 1130.96 Q101.561 1130.96 104.617 1135.56 Q107.696 1140.15 107.696 1148.9 Q107.696 1157.62 104.617 1162.23 Q101.561 1166.81 95.7512 1166.81 Q89.941 1166.81 86.8623 1162.23 Q83.8068 1157.62 83.8068 1148.9 Q83.8068 1140.15 86.8623 1135.56 Q89.941 1130.96 95.7512 1130.96 Z" fill="#000000" fill-rule="nonzero" fill-opacity="1" /><path clip-path="url(#clip580)" d="M125.913 1134.66 Q122.302 1134.66 120.473 1138.22 Q118.668 1141.77 118.668 1148.9 Q118.668 1156 120.473 1159.57 Q122.302 1163.11 125.913 1163.11 Q129.547 1163.11 131.353 1159.57 Q133.182 1156 133.182 1148.9 Q133.182 1141.77 131.353 1138.22 Q129.547 1134.66 125.913 1134.66 M125.913 1130.96 Q131.723 1130.96 134.779 1135.56 Q137.857 1140.15 137.857 1148.9 Q137.857 1157.62 134.779 1162.23 Q131.723 1166.81 125.913 1166.81 Q120.103 1166.81 117.024 1162.23 Q113.969 1157.62 113.969 1148.9 Q113.969 1140.15 117.024 1135.56 Q120.103 1130.96 125.913 1130.96 Z" fill="#000000" fill-rule="nonzero" fill-opacity="1" /><path clip-path="url(#clip580)" d="M56.3995 903.053 L64.0384 903.053 L64.0384 876.687 L55.7282 878.354 L55.7282 874.094 L63.9921 872.428 L68.668 872.428 L68.668 903.053 L76.3068 903.053 L76.3068 906.988 L56.3995 906.988 L56.3995 903.053 Z" fill="#000000" fill-rule="nonzero" fill-opacity="1" /><path clip-path="url(#clip580)" d="M85.7975 872.428 L104.154 872.428 L104.154 876.363 L90.0799 876.363 L90.0799 884.835 Q91.0984 884.488 92.1169 884.326 Q93.1354 884.141 94.1539 884.141 Q99.941 884.141 103.321 887.312 Q106.7 890.483 106.7 895.9 Q106.7 901.478 103.228 904.58 Q99.7558 907.659 93.4364 907.659 Q91.2604 907.659 88.9919 907.289 Q86.7466 906.918 84.3392 906.178 L84.3392 901.478 Q86.4225 902.613 88.6447 903.168 Q90.8669 903.724 93.3438 903.724 Q97.3484 903.724 99.6863 901.617 Q102.024 899.511 102.024 895.9 Q102.024 892.289 99.6863 890.182 Q97.3484 888.076 93.3438 888.076 Q91.4688 888.076 89.5938 888.492 Q87.7419 888.909 85.7975 889.789 L85.7975 872.428 Z" fill="#000000" fill-rule="nonzero" fill-opacity="1" /><path clip-path="url(#clip580)" d="M125.913 875.506 Q122.302 875.506 120.473 879.071 Q118.668 882.613 118.668 889.742 Q118.668 896.849 120.473 900.414 Q122.302 903.955 125.913 903.955 Q129.547 903.955 131.353 900.414 Q133.182 896.849 133.182 889.742 Q133.182 882.613 131.353 879.071 Q129.547 875.506 125.913 875.506 M125.913 871.803 Q131.723 871.803 134.779 876.409 Q137.857 880.992 137.857 889.742 Q137.857 898.469 134.779 903.076 Q131.723 907.659 125.913 907.659 Q120.103 907.659 117.024 903.076 Q113.969 898.469 113.969 889.742 Q113.969 880.992 117.024 876.409 Q120.103 871.803 125.913 871.803 Z" fill="#000000" fill-rule="nonzero" fill-opacity="1" /><path clip-path="url(#clip580)" d="M59.6171 643.899 L75.9365 643.899 L75.9365 647.834 L53.9921 647.834 L53.9921 643.899 Q56.6541 641.145 61.2375 636.515 Q65.8439 631.862 67.0245 630.52 Q69.2698 627.996 70.1494 626.26 Q71.0522 624.501 71.0522 622.811 Q71.0522 620.057 69.1078 618.321 Q67.1865 616.585 64.0847 616.585 Q61.8856 616.585 59.4319 617.348 Q57.0014 618.112 54.2236 619.663 L54.2236 614.941 Q57.0477 613.807 59.5014 613.228 Q61.955 612.649 63.9921 612.649 Q69.3624 612.649 72.5568 615.335 Q75.7513 618.02 75.7513 622.51 Q75.7513 624.64 74.9411 626.561 Q74.1541 628.459 72.0476 631.052 Q71.4689 631.723 68.367 634.941 Q65.2652 638.135 59.6171 643.899 Z" fill="#000000" fill-rule="nonzero" fill-opacity="1" /><path clip-path="url(#clip580)" d="M95.7512 616.353 Q92.1401 616.353 90.3114 619.918 Q88.5058 623.459 88.5058 630.589 Q88.5058 637.696 90.3114 641.26 Q92.1401 644.802 95.7512 644.802 Q99.3854 644.802 101.191 641.26 Q103.02 637.696 103.02 630.589 Q103.02 623.459 101.191 619.918 Q99.3854 616.353 95.7512 616.353 M95.7512 612.649 Q101.561 612.649 104.617 617.256 Q107.696 621.839 107.696 630.589 Q107.696 639.316 104.617 643.922 Q101.561 648.506 95.7512 648.506 Q89.941 648.506 86.8623 643.922 Q83.8068 639.316 83.8068 630.589 Q83.8068 621.839 86.8623 617.256 Q89.941 612.649 95.7512 612.649 Z" fill="#000000" fill-rule="nonzero" fill-opacity="1" /><path clip-path="url(#clip580)" d="M125.913 616.353 Q122.302 616.353 120.473 619.918 Q118.668 623.459 118.668 630.589 Q118.668 637.696 120.473 641.26 Q122.302 644.802 125.913 644.802 Q129.547 644.802 131.353 641.26 Q133.182 637.696 133.182 630.589 Q133.182 623.459 131.353 619.918 Q129.547 616.353 125.913 616.353 M125.913 612.649 Q131.723 612.649 134.779 617.256 Q137.857 621.839 137.857 630.589 Q137.857 639.316 134.779 643.922 Q131.723 648.506 125.913 648.506 Q120.103 648.506 117.024 643.922 Q113.969 639.316 113.969 630.589 Q113.969 621.839 117.024 617.256 Q120.103 612.649 125.913 612.649 Z" fill="#000000" fill-rule="nonzero" fill-opacity="1" /><path clip-path="url(#clip580)" d="M59.6171 384.746 L75.9365 384.746 L75.9365 388.681 L53.9921 388.681 L53.9921 384.746 Q56.6541 381.991 61.2375 377.362 Q65.8439 372.709 67.0245 371.366 Q69.2698 368.843 70.1494 367.107 Q71.0522 365.348 71.0522 363.658 Q71.0522 360.903 69.1078 359.167 Q67.1865 357.431 64.0847 357.431 Q61.8856 357.431 59.4319 358.195 Q57.0014 358.959 54.2236 360.51 L54.2236 355.788 Q57.0477 354.653 59.5014 354.075 Q61.955 353.496 63.9921 353.496 Q69.3624 353.496 72.5568 356.181 Q75.7513 358.866 75.7513 363.357 Q75.7513 365.487 74.9411 367.408 Q74.1541 369.306 72.0476 371.899 Q71.4689 372.57 68.367 375.788 Q65.2652 378.982 59.6171 384.746 Z" fill="#000000" fill-rule="nonzero" fill-opacity="1" /><path clip-path="url(#clip580)" d="M85.7975 354.121 L104.154 354.121 L104.154 358.056 L90.0799 358.056 L90.0799 366.528 Q91.0984 366.181 92.1169 366.019 Q93.1354 365.834 94.1539 365.834 Q99.941 365.834 103.321 369.005 Q106.7 372.176 106.7 377.593 Q106.7 383.172 103.228 386.274 Q99.7558 389.352 93.4364 389.352 Q91.2604 389.352 88.9919 388.982 Q86.7466 388.612 84.3392 387.871 L84.3392 383.172 Q86.4225 384.306 88.6447 384.862 Q90.8669 385.417 93.3438 385.417 Q97.3484 385.417 99.6863 383.311 Q102.024 381.204 102.024 377.593 Q102.024 373.982 99.6863 371.876 Q97.3484 369.769 93.3438 369.769 Q91.4688 369.769 89.5938 370.186 Q87.7419 370.602 85.7975 371.482 L85.7975 354.121 Z" fill="#000000" fill-rule="nonzero" fill-opacity="1" /><path clip-path="url(#clip580)" d="M125.913 357.2 Q122.302 357.2 120.473 360.764 Q118.668 364.306 118.668 371.436 Q118.668 378.542 120.473 382.107 Q122.302 385.649 125.913 385.649 Q129.547 385.649 131.353 382.107 Q133.182 378.542 133.182 371.436 Q133.182 364.306 131.353 360.764 Q129.547 357.2 125.913 357.2 M125.913 353.496 Q131.723 353.496 134.779 358.102 Q137.857 362.686 137.857 371.436 Q137.857 380.162 134.779 384.769 Q131.723 389.352 125.913 389.352 Q120.103 389.352 117.024 384.769 Q113.969 380.162 113.969 371.436 Q113.969 362.686 117.024 358.102 Q120.103 353.496 125.913 353.496 Z" fill="#000000" fill-rule="nonzero" fill-opacity="1" /><path clip-path="url(#clip580)" d="M639.008 18.8205 L639.008 41.5461 L649.297 41.5461 Q655.009 41.5461 658.128 38.5889 Q661.247 35.6318 661.247 30.163 Q661.247 24.7348 658.128 21.7777 Q655.009 18.8205 649.297 18.8205 L639.008 18.8205 M630.825 12.096 L649.297 12.096 Q659.465 12.096 664.65 16.714 Q669.876 21.2916 669.876 30.163 Q669.876 39.1155 664.65 43.6931 Q659.465 48.2706 649.297 48.2706 L639.008 48.2706 L639.008 72.576 L630.825 72.576 L630.825 12.096 Z" fill="#000000" fill-rule="nonzero" fill-opacity="1" /><path clip-path="url(#clip580)" d="M705.362 34.1734 Q704.106 33.4443 702.607 33.1202 Q701.149 32.7556 699.367 32.7556 Q693.047 32.7556 689.644 36.8875 Q686.282 40.9789 686.282 48.6757 L686.282 72.576 L678.788 72.576 L678.788 27.2059 L686.282 27.2059 L686.282 34.2544 Q688.632 30.1225 692.399 28.1376 Q696.166 26.1121 701.554 26.1121 Q702.324 26.1121 703.255 26.2337 Q704.187 26.3147 705.321 26.5172 L705.362 34.1734 Z" fill="#000000" fill-rule="nonzero" fill-opacity="1" /><path clip-path="url(#clip580)" d="M713.18 27.2059 L720.634 27.2059 L720.634 72.576 L713.18 72.576 L713.18 27.2059 M713.18 9.54393 L720.634 9.54393 L720.634 18.9825 L713.18 18.9825 L713.18 9.54393 Z" fill="#000000" fill-rule="nonzero" fill-opacity="1" /><path clip-path="url(#clip580)" d="M753.811 32.4315 Q747.815 32.4315 744.332 37.1306 Q740.848 41.7891 740.848 49.9314 Q740.848 58.0738 744.291 62.7728 Q747.775 67.4314 753.811 67.4314 Q759.765 67.4314 763.249 62.7323 Q766.733 58.0333 766.733 49.9314 Q766.733 41.8701 763.249 37.1711 Q759.765 32.4315 753.811 32.4315 M753.811 26.1121 Q763.533 26.1121 769.083 32.4315 Q774.632 38.7509 774.632 49.9314 Q774.632 61.0714 769.083 67.4314 Q763.533 73.7508 753.811 73.7508 Q744.048 73.7508 738.498 67.4314 Q732.989 61.0714 732.989 49.9314 Q732.989 38.7509 738.498 32.4315 Q744.048 26.1121 753.811 26.1121 Z" fill="#000000" fill-rule="nonzero" fill-opacity="1" /><path clip-path="url(#clip580)" d="M813.278 34.1734 Q812.022 33.4443 810.523 33.1202 Q809.065 32.7556 807.283 32.7556 Q800.963 32.7556 797.56 36.8875 Q794.198 40.9789 794.198 48.6757 L794.198 72.576 L786.704 72.576 L786.704 27.2059 L794.198 27.2059 L794.198 34.2544 Q796.548 30.1225 800.315 28.1376 Q804.082 26.1121 809.47 26.1121 Q810.24 26.1121 811.171 26.2337 Q812.103 26.3147 813.237 26.5172 L813.278 34.1734 Z" fill="#000000" fill-rule="nonzero" fill-opacity="1" /><path clip-path="url(#clip580)" d="M865.048 32.4315 Q859.053 32.4315 855.569 37.1306 Q852.086 41.7891 852.086 49.9314 Q852.086 58.0738 855.529 62.7728 Q859.013 67.4314 865.048 67.4314 Q871.003 67.4314 874.487 62.7323 Q877.971 58.0333 877.971 49.9314 Q877.971 41.8701 874.487 37.1711 Q871.003 32.4315 865.048 32.4315 M865.048 26.1121 Q874.771 26.1121 880.32 32.4315 Q885.87 38.7509 885.87 49.9314 Q885.87 61.0714 880.32 67.4314 Q874.771 73.7508 865.048 73.7508 Q855.286 73.7508 849.736 67.4314 Q844.227 61.0714 844.227 49.9314 Q844.227 38.7509 849.736 32.4315 Q855.286 26.1121 865.048 26.1121 Z" fill="#000000" fill-rule="nonzero" fill-opacity="1" /><path clip-path="url(#clip580)" d="M921.194 9.54393 L921.194 15.7418 L914.064 15.7418 Q910.054 15.7418 908.474 17.3622 Q906.935 18.9825 906.935 23.1955 L906.935 27.2059 L919.209 27.2059 L919.209 32.9987 L906.935 32.9987 L906.935 72.576 L899.441 72.576 L899.441 32.9987 L892.311 32.9987 L892.311 27.2059 L899.441 27.2059 L899.441 24.0462 Q899.441 16.471 902.965 13.0277 Q906.489 9.54393 914.145 9.54393 L921.194 9.54393 Z" fill="#000000" fill-rule="nonzero" fill-opacity="1" /><path clip-path="url(#clip580)" d="M982.727 28.5427 L982.727 35.5912 Q979.568 33.9709 976.165 33.1607 Q972.762 32.3505 969.116 32.3505 Q963.566 32.3505 960.771 34.0519 Q958.017 35.7533 958.017 39.156 Q958.017 41.7486 960.002 43.2475 Q961.987 44.7058 967.982 46.0426 L970.534 46.6097 Q978.474 48.3111 981.796 51.4303 Q985.158 54.509 985.158 60.0587 Q985.158 66.3781 980.135 70.0644 Q975.152 73.7508 966.402 73.7508 Q962.756 73.7508 958.786 73.0216 Q954.857 72.3329 950.482 70.9151 L950.482 63.2184 Q954.614 65.3654 958.624 66.4591 Q962.635 67.5124 966.564 67.5124 Q971.83 67.5124 974.666 65.73 Q977.502 63.9071 977.502 60.6258 Q977.502 57.5877 975.436 55.9673 Q973.41 54.3469 966.483 52.8481 L963.891 52.2405 Q956.964 50.7821 953.885 47.7845 Q950.806 44.7463 950.806 39.4801 Q950.806 33.0797 955.343 29.5959 Q959.88 26.1121 968.225 26.1121 Q972.357 26.1121 976.003 26.7198 Q979.649 27.3274 982.727 28.5427 Z" fill="#000000" fill-rule="nonzero" fill-opacity="1" /><path clip-path="url(#clip580)" d="M1017.65 49.7694 Q1008.61 49.7694 1005.13 51.8354 Q1001.64 53.9013 1001.64 58.8839 Q1001.64 62.8538 1004.24 65.2034 Q1006.87 67.5124 1011.37 67.5124 Q1017.57 67.5124 1021.29 63.1374 Q1025.06 58.7219 1025.06 51.4303 L1025.06 49.7694 L1017.65 49.7694 M1032.51 46.6907 L1032.51 72.576 L1025.06 72.576 L1025.06 65.6895 Q1022.51 69.8214 1018.7 71.8063 Q1014.89 73.7508 1009.38 73.7508 Q1002.41 73.7508 998.283 69.8619 Q994.191 65.9325 994.191 59.3701 Q994.191 51.7138 999.295 47.825 Q1004.44 43.9361 1014.61 43.9361 L1025.06 43.9361 L1025.06 43.2069 Q1025.06 38.0623 1021.66 35.2672 Q1018.29 32.4315 1012.18 32.4315 Q1008.29 32.4315 1004.6 33.3632 Q1000.92 34.295 997.513 36.1584 L997.513 29.2718 Q1001.6 27.692 1005.45 26.9223 Q1009.3 26.1121 1012.95 26.1121 Q1022.79 26.1121 1027.65 31.2163 Q1032.51 36.3204 1032.51 46.6907 Z" fill="#000000" fill-rule="nonzero" fill-opacity="1" /><path clip-path="url(#clip580)" d="M1083.19 35.9153 Q1085.98 30.8922 1089.87 28.5022 Q1093.76 26.1121 1099.03 26.1121 Q1106.12 26.1121 1109.97 31.0947 Q1113.81 36.0368 1113.81 45.1919 L1113.81 72.576 L1106.32 72.576 L1106.32 45.4349 Q1106.32 38.913 1104.01 35.7533 Q1101.7 32.5936 1096.96 32.5936 Q1091.17 32.5936 1087.81 36.4419 Q1084.45 40.2903 1084.45 46.9338 L1084.45 72.576 L1076.95 72.576 L1076.95 45.4349 Q1076.95 38.8725 1074.64 35.7533 Q1072.33 32.5936 1067.51 32.5936 Q1061.8 32.5936 1058.44 36.4824 Q1055.08 40.3308 1055.08 46.9338 L1055.08 72.576 L1047.58 72.576 L1047.58 27.2059 L1055.08 27.2059 L1055.08 34.2544 Q1057.63 30.082 1061.19 28.0971 Q1064.76 26.1121 1069.66 26.1121 Q1074.6 26.1121 1078.05 28.6237 Q1081.53 31.1352 1083.19 35.9153 Z" fill="#000000" fill-rule="nonzero" fill-opacity="1" /><path clip-path="url(#clip580)" d="M1135.89 65.7705 L1135.89 89.8329 L1128.4 89.8329 L1128.4 27.2059 L1135.89 27.2059 L1135.89 34.0924 Q1138.24 30.0415 1141.81 28.0971 Q1145.41 26.1121 1150.39 26.1121 Q1158.66 26.1121 1163.8 32.6746 Q1168.99 39.2371 1168.99 49.9314 Q1168.99 60.6258 1163.8 67.1883 Q1158.66 73.7508 1150.39 73.7508 Q1145.41 73.7508 1141.81 71.8063 Q1138.24 69.8214 1135.89 65.7705 M1161.25 49.9314 Q1161.25 41.7081 1157.85 37.0496 Q1154.49 32.3505 1148.57 32.3505 Q1142.66 32.3505 1139.25 37.0496 Q1135.89 41.7081 1135.89 49.9314 Q1135.89 58.1548 1139.25 62.8538 Q1142.66 67.5124 1148.57 67.5124 Q1154.49 67.5124 1157.85 62.8538 Q1161.25 58.1548 1161.25 49.9314 Z" fill="#000000" fill-rule="nonzero" fill-opacity="1" /><path clip-path="url(#clip580)" d="M1181.34 9.54393 L1188.8 9.54393 L1188.8 72.576 L1181.34 72.576 L1181.34 9.54393 Z" fill="#000000" fill-rule="nonzero" fill-opacity="1" /><path clip-path="url(#clip580)" d="M1243.2 48.0275 L1243.2 51.6733 L1208.93 51.6733 Q1209.42 59.3701 1213.55 63.421 Q1217.72 67.4314 1225.13 67.4314 Q1229.43 67.4314 1233.44 66.3781 Q1237.49 65.3249 1241.46 63.2184 L1241.46 70.267 Q1237.45 71.9684 1233.24 72.8596 Q1229.02 73.7508 1224.69 73.7508 Q1213.83 73.7508 1207.47 67.4314 Q1201.15 61.1119 1201.15 50.3365 Q1201.15 39.1965 1207.15 32.6746 Q1213.18 26.1121 1223.39 26.1121 Q1232.55 26.1121 1237.85 32.0264 Q1243.2 37.9003 1243.2 48.0275 M1235.75 45.84 Q1235.67 39.7232 1232.3 36.0774 Q1228.98 32.4315 1223.47 32.4315 Q1217.23 32.4315 1213.47 35.9558 Q1209.74 39.4801 1209.17 45.8805 L1235.75 45.84 Z" fill="#000000" fill-rule="nonzero" fill-opacity="1" /><path clip-path="url(#clip580)" d="M1284.36 28.5427 L1284.36 35.5912 Q1281.2 33.9709 1277.8 33.1607 Q1274.39 32.3505 1270.75 32.3505 Q1265.2 32.3505 1262.4 34.0519 Q1259.65 35.7533 1259.65 39.156 Q1259.65 41.7486 1261.63 43.2475 Q1263.62 44.7058 1269.61 46.0426 L1272.16 46.6097 Q1280.1 48.3111 1283.43 51.4303 Q1286.79 54.509 1286.79 60.0587 Q1286.79 66.3781 1281.77 70.0644 Q1276.78 73.7508 1268.03 73.7508 Q1264.39 73.7508 1260.42 73.0216 Q1256.49 72.3329 1252.11 70.9151 L1252.11 63.2184 Q1256.24 65.3654 1260.25 66.4591 Q1264.27 67.5124 1268.19 67.5124 Q1273.46 67.5124 1276.3 65.73 Q1279.13 63.9071 1279.13 60.6258 Q1279.13 57.5877 1277.07 55.9673 Q1275.04 54.3469 1268.11 52.8481 L1265.52 52.2405 Q1258.59 50.7821 1255.52 47.7845 Q1252.44 44.7463 1252.44 39.4801 Q1252.44 33.0797 1256.97 29.5959 Q1261.51 26.1121 1269.86 26.1121 Q1273.99 26.1121 1277.63 26.7198 Q1281.28 27.3274 1284.36 28.5427 Z" fill="#000000" fill-rule="nonzero" fill-opacity="1" /><path clip-path="url(#clip582)" d="M252.195 1661.98 L252.195 1667.17 L287.525 1667.17 L287.525 1661.98 L252.195 1661.98 L252.195 1661.98  Z" fill="#009af9" fill-rule="evenodd" fill-opacity="1"/>
<polyline clip-path="url(#clip582)" style="stroke:#000000; stroke-linecap:round; stroke-linejoin:round; stroke-width:8; stroke-opacity:1; fill:none" points="252.195,1661.98 252.195,1667.17 287.525,1667.17 287.525,1661.98 252.195,1661.98 "/>
<path clip-path="url(#clip582)" d="M287.525 1646.44 L287.525 1667.17 L322.856 1667.17 L322.856 1646.44 L287.525 1646.44 L287.525 1646.44  Z" fill="#009af9" fill-rule="evenodd" fill-opacity="1"/>
<polyline clip-path="url(#clip582)" style="stroke:#000000; stroke-linecap:round; stroke-linejoin:round; stroke-width:8; stroke-opacity:1; fill:none" points="287.525,1646.44 287.525,1667.17 322.856,1667.17 322.856,1646.44 287.525,1646.44 "/>
<path clip-path="url(#clip582)" d="M322.856 1630.89 L322.856 1667.17 L358.186 1667.17 L358.186 1630.89 L322.856 1630.89 L322.856 1630.89  Z" fill="#009af9" fill-rule="evenodd" fill-opacity="1"/>
<polyline clip-path="url(#clip582)" style="stroke:#000000; stroke-linecap:round; stroke-linejoin:round; stroke-width:8; stroke-opacity:1; fill:none" points="322.856,1630.89 322.856,1667.17 358.186,1667.17 358.186,1630.89 322.856,1630.89 "/>
<path clip-path="url(#clip582)" d="M358.186 1641.25 L358.186 1667.17 L393.517 1667.17 L393.517 1641.25 L358.186 1641.25 L358.186 1641.25  Z" fill="#009af9" fill-rule="evenodd" fill-opacity="1"/>
<polyline clip-path="url(#clip582)" style="stroke:#000000; stroke-linecap:round; stroke-linejoin:round; stroke-width:8; stroke-opacity:1; fill:none" points="358.186,1641.25 358.186,1667.17 393.517,1667.17 393.517,1641.25 358.186,1641.25 "/>
<path clip-path="url(#clip582)" d="M393.517 1599.79 L393.517 1667.17 L428.848 1667.17 L428.848 1599.79 L393.517 1599.79 L393.517 1599.79  Z" fill="#009af9" fill-rule="evenodd" fill-opacity="1"/>
<polyline clip-path="url(#clip582)" style="stroke:#000000; stroke-linecap:round; stroke-linejoin:round; stroke-width:8; stroke-opacity:1; fill:none" points="393.517,1599.79 393.517,1667.17 428.848,1667.17 428.848,1599.79 393.517,1599.79 "/>
<path clip-path="url(#clip582)" d="M428.848 1537.59 L428.848 1667.17 L464.178 1667.17 L464.178 1537.59 L428.848 1537.59 L428.848 1537.59  Z" fill="#009af9" fill-rule="evenodd" fill-opacity="1"/>
<polyline clip-path="url(#clip582)" style="stroke:#000000; stroke-linecap:round; stroke-linejoin:round; stroke-width:8; stroke-opacity:1; fill:none" points="428.848,1537.59 428.848,1667.17 464.178,1667.17 464.178,1537.59 428.848,1537.59 "/>
<path clip-path="url(#clip582)" d="M464.178 1573.87 L464.178 1667.17 L499.509 1667.17 L499.509 1573.87 L464.178 1573.87 L464.178 1573.87  Z" fill="#009af9" fill-rule="evenodd" fill-opacity="1"/>
<polyline clip-path="url(#clip582)" style="stroke:#000000; stroke-linecap:round; stroke-linejoin:round; stroke-width:8; stroke-opacity:1; fill:none" points="464.178,1573.87 464.178,1667.17 499.509,1667.17 499.509,1573.87 464.178,1573.87 "/>
<path clip-path="url(#clip582)" d="M499.509 1558.32 L499.509 1667.17 L534.839 1667.17 L534.839 1558.32 L499.509 1558.32 L499.509 1558.32  Z" fill="#009af9" fill-rule="evenodd" fill-opacity="1"/>
<polyline clip-path="url(#clip582)" style="stroke:#000000; stroke-linecap:round; stroke-linejoin:round; stroke-width:8; stroke-opacity:1; fill:none" points="499.509,1558.32 499.509,1667.17 534.839,1667.17 534.839,1558.32 499.509,1558.32 "/>
<path clip-path="url(#clip582)" d="M534.839 1490.94 L534.839 1667.17 L570.17 1667.17 L570.17 1490.94 L534.839 1490.94 L534.839 1490.94  Z" fill="#009af9" fill-rule="evenodd" fill-opacity="1"/>
<polyline clip-path="url(#clip582)" style="stroke:#000000; stroke-linecap:round; stroke-linejoin:round; stroke-width:8; stroke-opacity:1; fill:none" points="534.839,1490.94 534.839,1667.17 570.17,1667.17 570.17,1490.94 534.839,1490.94 "/>
<path clip-path="url(#clip582)" d="M570.17 1490.94 L570.17 1667.17 L605.501 1667.17 L605.501 1490.94 L570.17 1490.94 L570.17 1490.94  Z" fill="#009af9" fill-rule="evenodd" fill-opacity="1"/>
<polyline clip-path="url(#clip582)" style="stroke:#000000; stroke-linecap:round; stroke-linejoin:round; stroke-width:8; stroke-opacity:1; fill:none" points="570.17,1490.94 570.17,1667.17 605.501,1667.17 605.501,1490.94 570.17,1490.94 "/>
<path clip-path="url(#clip582)" d="M605.501 1475.39 L605.501 1667.17 L640.831 1667.17 L640.831 1475.39 L605.501 1475.39 L605.501 1475.39  Z" fill="#009af9" fill-rule="evenodd" fill-opacity="1"/>
<polyline clip-path="url(#clip582)" style="stroke:#000000; stroke-linecap:round; stroke-linejoin:round; stroke-width:8; stroke-opacity:1; fill:none" points="605.501,1475.39 605.501,1667.17 640.831,1667.17 640.831,1475.39 605.501,1475.39 "/>
<path clip-path="url(#clip582)" d="M640.831 1439.11 L640.831 1667.17 L676.162 1667.17 L676.162 1439.11 L640.831 1439.11 L640.831 1439.11  Z" fill="#009af9" fill-rule="evenodd" fill-opacity="1"/>
<polyline clip-path="url(#clip582)" style="stroke:#000000; stroke-linecap:round; stroke-linejoin:round; stroke-width:8; stroke-opacity:1; fill:none" points="640.831,1439.11 640.831,1667.17 676.162,1667.17 676.162,1439.11 640.831,1439.11 "/>
<path clip-path="url(#clip582)" d="M676.162 1340.63 L676.162 1667.17 L711.492 1667.17 L711.492 1340.63 L676.162 1340.63 L676.162 1340.63  Z" fill="#009af9" fill-rule="evenodd" fill-opacity="1"/>
<polyline clip-path="url(#clip582)" style="stroke:#000000; stroke-linecap:round; stroke-linejoin:round; stroke-width:8; stroke-opacity:1; fill:none" points="676.162,1340.63 676.162,1667.17 711.492,1667.17 711.492,1340.63 676.162,1340.63 "/>
<path clip-path="url(#clip582)" d="M711.492 1376.92 L711.492 1667.17 L746.823 1667.17 L746.823 1376.92 L711.492 1376.92 L711.492 1376.92  Z" fill="#009af9" fill-rule="evenodd" fill-opacity="1"/>
<polyline clip-path="url(#clip582)" style="stroke:#000000; stroke-linecap:round; stroke-linejoin:round; stroke-width:8; stroke-opacity:1; fill:none" points="711.492,1376.92 711.492,1667.17 746.823,1667.17 746.823,1376.92 711.492,1376.92 "/>
<path clip-path="url(#clip582)" d="M746.823 1273.25 L746.823 1667.17 L782.154 1667.17 L782.154 1273.25 L746.823 1273.25 L746.823 1273.25  Z" fill="#009af9" fill-rule="evenodd" fill-opacity="1"/>
<polyline clip-path="url(#clip582)" style="stroke:#000000; stroke-linecap:round; stroke-linejoin:round; stroke-width:8; stroke-opacity:1; fill:none" points="746.823,1273.25 746.823,1667.17 782.154,1667.17 782.154,1273.25 746.823,1273.25 "/>
<path clip-path="url(#clip582)" d="M782.154 1231.79 L782.154 1667.17 L817.484 1667.17 L817.484 1231.79 L782.154 1231.79 L782.154 1231.79  Z" fill="#009af9" fill-rule="evenodd" fill-opacity="1"/>
<polyline clip-path="url(#clip582)" style="stroke:#000000; stroke-linecap:round; stroke-linejoin:round; stroke-width:8; stroke-opacity:1; fill:none" points="782.154,1231.79 782.154,1667.17 817.484,1667.17 817.484,1231.79 782.154,1231.79 "/>
<path clip-path="url(#clip582)" d="M817.484 1060.75 L817.484 1667.17 L852.815 1667.17 L852.815 1060.75 L817.484 1060.75 L817.484 1060.75  Z" fill="#009af9" fill-rule="evenodd" fill-opacity="1"/>
<polyline clip-path="url(#clip582)" style="stroke:#000000; stroke-linecap:round; stroke-linejoin:round; stroke-width:8; stroke-opacity:1; fill:none" points="817.484,1060.75 817.484,1667.17 852.815,1667.17 852.815,1060.75 817.484,1060.75 "/>
<path clip-path="url(#clip582)" d="M852.815 1050.38 L852.815 1667.17 L888.145 1667.17 L888.145 1050.38 L852.815 1050.38 L852.815 1050.38  Z" fill="#009af9" fill-rule="evenodd" fill-opacity="1"/>
<polyline clip-path="url(#clip582)" style="stroke:#000000; stroke-linecap:round; stroke-linejoin:round; stroke-width:8; stroke-opacity:1; fill:none" points="852.815,1050.38 852.815,1667.17 888.145,1667.17 888.145,1050.38 852.815,1050.38 "/>
<path clip-path="url(#clip582)" d="M888.145 1014.1 L888.145 1667.17 L923.476 1667.17 L923.476 1014.1 L888.145 1014.1 L888.145 1014.1  Z" fill="#009af9" fill-rule="evenodd" fill-opacity="1"/>
<polyline clip-path="url(#clip582)" style="stroke:#000000; stroke-linecap:round; stroke-linejoin:round; stroke-width:8; stroke-opacity:1; fill:none" points="888.145,1014.1 888.145,1667.17 923.476,1667.17 923.476,1014.1 888.145,1014.1 "/>
<path clip-path="url(#clip582)" d="M923.476 900.074 L923.476 1667.17 L958.807 1667.17 L958.807 900.074 L923.476 900.074 L923.476 900.074  Z" fill="#009af9" fill-rule="evenodd" fill-opacity="1"/>
<polyline clip-path="url(#clip582)" style="stroke:#000000; stroke-linecap:round; stroke-linejoin:round; stroke-width:8; stroke-opacity:1; fill:none" points="923.476,900.074 923.476,1667.17 958.807,1667.17 958.807,900.074 923.476,900.074 "/>
<path clip-path="url(#clip582)" d="M958.807 874.159 L958.807 1667.17 L994.137 1667.17 L994.137 874.159 L958.807 874.159 L958.807 874.159  Z" fill="#009af9" fill-rule="evenodd" fill-opacity="1"/>
<polyline clip-path="url(#clip582)" style="stroke:#000000; stroke-linecap:round; stroke-linejoin:round; stroke-width:8; stroke-opacity:1; fill:none" points="958.807,874.159 958.807,1667.17 994.137,1667.17 994.137,874.159 958.807,874.159 "/>
<path clip-path="url(#clip582)" d="M994.137 780.863 L994.137 1667.17 L1029.47 1667.17 L1029.47 780.863 L994.137 780.863 L994.137 780.863  Z" fill="#009af9" fill-rule="evenodd" fill-opacity="1"/>
<polyline clip-path="url(#clip582)" style="stroke:#000000; stroke-linecap:round; stroke-linejoin:round; stroke-width:8; stroke-opacity:1; fill:none" points="994.137,780.863 994.137,1667.17 1029.47,1667.17 1029.47,780.863 994.137,780.863 "/>
<path clip-path="url(#clip582)" d="M1029.47 754.948 L1029.47 1667.17 L1064.8 1667.17 L1064.8 754.948 L1029.47 754.948 L1029.47 754.948  Z" fill="#009af9" fill-rule="evenodd" fill-opacity="1"/>
<polyline clip-path="url(#clip582)" style="stroke:#000000; stroke-linecap:round; stroke-linejoin:round; stroke-width:8; stroke-opacity:1; fill:none" points="1029.47,754.948 1029.47,1667.17 1064.8,1667.17 1064.8,754.948 1029.47,754.948 "/>
<path clip-path="url(#clip582)" d="M1064.8 687.568 L1064.8 1667.17 L1100.13 1667.17 L1100.13 687.568 L1064.8 687.568 L1064.8 687.568  Z" fill="#009af9" fill-rule="evenodd" fill-opacity="1"/>
<polyline clip-path="url(#clip582)" style="stroke:#000000; stroke-linecap:round; stroke-linejoin:round; stroke-width:8; stroke-opacity:1; fill:none" points="1064.8,687.568 1064.8,1667.17 1100.13,1667.17 1100.13,687.568 1064.8,687.568 "/>
<path clip-path="url(#clip582)" d="M1100.13 682.385 L1100.13 1667.17 L1135.46 1667.17 L1135.46 682.385 L1100.13 682.385 L1100.13 682.385  Z" fill="#009af9" fill-rule="evenodd" fill-opacity="1"/>
<polyline clip-path="url(#clip582)" style="stroke:#000000; stroke-linecap:round; stroke-linejoin:round; stroke-width:8; stroke-opacity:1; fill:none" points="1100.13,682.385 1100.13,1667.17 1135.46,1667.17 1135.46,682.385 1100.13,682.385 "/>
<path clip-path="url(#clip582)" d="M1135.46 340.303 L1135.46 1667.17 L1170.79 1667.17 L1170.79 340.303 L1135.46 340.303 L1135.46 340.303  Z" fill="#009af9" fill-rule="evenodd" fill-opacity="1"/>
<polyline clip-path="url(#clip582)" style="stroke:#000000; stroke-linecap:round; stroke-linejoin:round; stroke-width:8; stroke-opacity:1; fill:none" points="1135.46,340.303 1135.46,1667.17 1170.79,1667.17 1170.79,340.303 1135.46,340.303 "/>
<path clip-path="url(#clip582)" d="M1170.79 397.316 L1170.79 1667.17 L1206.12 1667.17 L1206.12 397.316 L1170.79 397.316 L1170.79 397.316  Z" fill="#009af9" fill-rule="evenodd" fill-opacity="1"/>
<polyline clip-path="url(#clip582)" style="stroke:#000000; stroke-linecap:round; stroke-linejoin:round; stroke-width:8; stroke-opacity:1; fill:none" points="1170.79,397.316 1170.79,1667.17 1206.12,1667.17 1206.12,397.316 1170.79,397.316 "/>
<path clip-path="url(#clip582)" d="M1206.12 381.767 L1206.12 1667.17 L1241.45 1667.17 L1241.45 381.767 L1206.12 381.767 L1206.12 381.767  Z" fill="#009af9" fill-rule="evenodd" fill-opacity="1"/>
<polyline clip-path="url(#clip582)" style="stroke:#000000; stroke-linecap:round; stroke-linejoin:round; stroke-width:8; stroke-opacity:1; fill:none" points="1206.12,381.767 1206.12,1667.17 1241.45,1667.17 1241.45,381.767 1206.12,381.767 "/>
<path clip-path="url(#clip582)" d="M1241.45 153.712 L1241.45 1667.17 L1276.78 1667.17 L1276.78 153.712 L1241.45 153.712 L1241.45 153.712  Z" fill="#009af9" fill-rule="evenodd" fill-opacity="1"/>
<polyline clip-path="url(#clip582)" style="stroke:#000000; stroke-linecap:round; stroke-linejoin:round; stroke-width:8; stroke-opacity:1; fill:none" points="1241.45,153.712 1241.45,1667.17 1276.78,1667.17 1276.78,153.712 1241.45,153.712 "/>
<path clip-path="url(#clip582)" d="M1276.78 309.204 L1276.78 1667.17 L1312.11 1667.17 L1312.11 309.204 L1276.78 309.204 L1276.78 309.204  Z" fill="#009af9" fill-rule="evenodd" fill-opacity="1"/>
<polyline clip-path="url(#clip582)" style="stroke:#000000; stroke-linecap:round; stroke-linejoin:round; stroke-width:8; stroke-opacity:1; fill:none" points="1276.78,309.204 1276.78,1667.17 1312.11,1667.17 1312.11,309.204 1276.78,309.204 "/>
<path clip-path="url(#clip582)" d="M1312.11 252.19 L1312.11 1667.17 L1347.44 1667.17 L1347.44 252.19 L1312.11 252.19 L1312.11 252.19  Z" fill="#009af9" fill-rule="evenodd" fill-opacity="1"/>
<polyline clip-path="url(#clip582)" style="stroke:#000000; stroke-linecap:round; stroke-linejoin:round; stroke-width:8; stroke-opacity:1; fill:none" points="1312.11,252.19 1312.11,1667.17 1347.44,1667.17 1347.44,252.19 1312.11,252.19 "/>
<path clip-path="url(#clip582)" d="M1347.44 221.092 L1347.44 1667.17 L1382.77 1667.17 L1382.77 221.092 L1347.44 221.092 L1347.44 221.092  Z" fill="#009af9" fill-rule="evenodd" fill-opacity="1"/>
<polyline clip-path="url(#clip582)" style="stroke:#000000; stroke-linecap:round; stroke-linejoin:round; stroke-width:8; stroke-opacity:1; fill:none" points="1347.44,221.092 1347.44,1667.17 1382.77,1667.17 1382.77,221.092 1347.44,221.092 "/>
<path clip-path="url(#clip582)" d="M1382.77 304.021 L1382.77 1667.17 L1418.1 1667.17 L1418.1 304.021 L1382.77 304.021 L1382.77 304.021  Z" fill="#009af9" fill-rule="evenodd" fill-opacity="1"/>
<polyline clip-path="url(#clip582)" style="stroke:#000000; stroke-linecap:round; stroke-linejoin:round; stroke-width:8; stroke-opacity:1; fill:none" points="1382.77,304.021 1382.77,1667.17 1418.1,1667.17 1418.1,304.021 1382.77,304.021 "/>
<path clip-path="url(#clip582)" d="M1418.1 283.289 L1418.1 1667.17 L1453.44 1667.17 L1453.44 283.289 L1418.1 283.289 L1418.1 283.289  Z" fill="#009af9" fill-rule="evenodd" fill-opacity="1"/>
<polyline clip-path="url(#clip582)" style="stroke:#000000; stroke-linecap:round; stroke-linejoin:round; stroke-width:8; stroke-opacity:1; fill:none" points="1418.1,283.289 1418.1,1667.17 1453.44,1667.17 1453.44,283.289 1418.1,283.289 "/>
<path clip-path="url(#clip582)" d="M1453.44 495.795 L1453.44 1667.17 L1488.77 1667.17 L1488.77 495.795 L1453.44 495.795 L1453.44 495.795  Z" fill="#009af9" fill-rule="evenodd" fill-opacity="1"/>
<polyline clip-path="url(#clip582)" style="stroke:#000000; stroke-linecap:round; stroke-linejoin:round; stroke-width:8; stroke-opacity:1; fill:none" points="1453.44,495.795 1453.44,1667.17 1488.77,1667.17 1488.77,495.795 1453.44,495.795 "/>
<path clip-path="url(#clip582)" d="M1488.77 656.47 L1488.77 1667.17 L1524.1 1667.17 L1524.1 656.47 L1488.77 656.47 L1488.77 656.47  Z" fill="#009af9" fill-rule="evenodd" fill-opacity="1"/>
<polyline clip-path="url(#clip582)" style="stroke:#000000; stroke-linecap:round; stroke-linejoin:round; stroke-width:8; stroke-opacity:1; fill:none" points="1488.77,656.47 1488.77,1667.17 1524.1,1667.17 1524.1,656.47 1488.77,656.47 "/>
<path clip-path="url(#clip582)" d="M1524.1 977.82 L1524.1 1667.17 L1559.43 1667.17 L1559.43 977.82 L1524.1 977.82 L1524.1 977.82  Z" fill="#009af9" fill-rule="evenodd" fill-opacity="1"/>
<polyline clip-path="url(#clip582)" style="stroke:#000000; stroke-linecap:round; stroke-linejoin:round; stroke-width:8; stroke-opacity:1; fill:none" points="1524.1,977.82 1524.1,1667.17 1559.43,1667.17 1559.43,977.82 1524.1,977.82 "/>
<path clip-path="url(#clip582)" d="M1559.43 1216.24 L1559.43 1667.17 L1594.76 1667.17 L1594.76 1216.24 L1559.43 1216.24 L1559.43 1216.24  Z" fill="#009af9" fill-rule="evenodd" fill-opacity="1"/>
<polyline clip-path="url(#clip582)" style="stroke:#000000; stroke-linecap:round; stroke-linejoin:round; stroke-width:8; stroke-opacity:1; fill:none" points="1559.43,1216.24 1559.43,1667.17 1594.76,1667.17 1594.76,1216.24 1559.43,1216.24 "/>
<path clip-path="url(#clip582)" d="M1594.76 1392.47 L1594.76 1667.17 L1630.09 1667.17 L1630.09 1392.47 L1594.76 1392.47 L1594.76 1392.47  Z" fill="#009af9" fill-rule="evenodd" fill-opacity="1"/>
<polyline clip-path="url(#clip582)" style="stroke:#000000; stroke-linecap:round; stroke-linejoin:round; stroke-width:8; stroke-opacity:1; fill:none" points="1594.76,1392.47 1594.76,1667.17 1630.09,1667.17 1630.09,1392.47 1594.76,1392.47 "/>
<path clip-path="url(#clip582)" d="M1630.09 1615.34 L1630.09 1667.17 L1665.42 1667.17 L1665.42 1615.34 L1630.09 1615.34 L1630.09 1615.34  Z" fill="#009af9" fill-rule="evenodd" fill-opacity="1"/>
<polyline clip-path="url(#clip582)" style="stroke:#000000; stroke-linecap:round; stroke-linejoin:round; stroke-width:8; stroke-opacity:1; fill:none" points="1630.09,1615.34 1630.09,1667.17 1665.42,1667.17 1665.42,1615.34 1630.09,1615.34 "/>
<circle clip-path="url(#clip582)" style="fill:#009af9; stroke:none; fill-opacity:0" cx="269.86" cy="1661.98" r="2"/>
<circle clip-path="url(#clip582)" style="fill:#009af9; stroke:none; fill-opacity:0" cx="305.191" cy="1646.44" r="2"/>
<circle clip-path="url(#clip582)" style="fill:#009af9; stroke:none; fill-opacity:0" cx="340.521" cy="1630.89" r="2"/>
<circle clip-path="url(#clip582)" style="fill:#009af9; stroke:none; fill-opacity:0" cx="375.852" cy="1641.25" r="2"/>
<circle clip-path="url(#clip582)" style="fill:#009af9; stroke:none; fill-opacity:0" cx="411.182" cy="1599.79" r="2"/>
<circle clip-path="url(#clip582)" style="fill:#009af9; stroke:none; fill-opacity:0" cx="446.513" cy="1537.59" r="2"/>
<circle clip-path="url(#clip582)" style="fill:#009af9; stroke:none; fill-opacity:0" cx="481.844" cy="1573.87" r="2"/>
<circle clip-path="url(#clip582)" style="fill:#009af9; stroke:none; fill-opacity:0" cx="517.174" cy="1558.32" r="2"/>
<circle clip-path="url(#clip582)" style="fill:#009af9; stroke:none; fill-opacity:0" cx="552.505" cy="1490.94" r="2"/>
<circle clip-path="url(#clip582)" style="fill:#009af9; stroke:none; fill-opacity:0" cx="587.835" cy="1490.94" r="2"/>
<circle clip-path="url(#clip582)" style="fill:#009af9; stroke:none; fill-opacity:0" cx="623.166" cy="1475.39" r="2"/>
<circle clip-path="url(#clip582)" style="fill:#009af9; stroke:none; fill-opacity:0" cx="658.497" cy="1439.11" r="2"/>
<circle clip-path="url(#clip582)" style="fill:#009af9; stroke:none; fill-opacity:0" cx="693.827" cy="1340.63" r="2"/>
<circle clip-path="url(#clip582)" style="fill:#009af9; stroke:none; fill-opacity:0" cx="729.158" cy="1376.92" r="2"/>
<circle clip-path="url(#clip582)" style="fill:#009af9; stroke:none; fill-opacity:0" cx="764.488" cy="1273.25" r="2"/>
<circle clip-path="url(#clip582)" style="fill:#009af9; stroke:none; fill-opacity:0" cx="799.819" cy="1231.79" r="2"/>
<circle clip-path="url(#clip582)" style="fill:#009af9; stroke:none; fill-opacity:0" cx="835.15" cy="1060.75" r="2"/>
<circle clip-path="url(#clip582)" style="fill:#009af9; stroke:none; fill-opacity:0" cx="870.48" cy="1050.38" r="2"/>
<circle clip-path="url(#clip582)" style="fill:#009af9; stroke:none; fill-opacity:0" cx="905.811" cy="1014.1" r="2"/>
<circle clip-path="url(#clip582)" style="fill:#009af9; stroke:none; fill-opacity:0" cx="941.141" cy="900.074" r="2"/>
<circle clip-path="url(#clip582)" style="fill:#009af9; stroke:none; fill-opacity:0" cx="976.472" cy="874.159" r="2"/>
<circle clip-path="url(#clip582)" style="fill:#009af9; stroke:none; fill-opacity:0" cx="1011.8" cy="780.863" r="2"/>
<circle clip-path="url(#clip582)" style="fill:#009af9; stroke:none; fill-opacity:0" cx="1047.13" cy="754.948" r="2"/>
<circle clip-path="url(#clip582)" style="fill:#009af9; stroke:none; fill-opacity:0" cx="1082.46" cy="687.568" r="2"/>
<circle clip-path="url(#clip582)" style="fill:#009af9; stroke:none; fill-opacity:0" cx="1117.79" cy="682.385" r="2"/>
<circle clip-path="url(#clip582)" style="fill:#009af9; stroke:none; fill-opacity:0" cx="1153.12" cy="340.303" r="2"/>
<circle clip-path="url(#clip582)" style="fill:#009af9; stroke:none; fill-opacity:0" cx="1188.46" cy="397.316" r="2"/>
<circle clip-path="url(#clip582)" style="fill:#009af9; stroke:none; fill-opacity:0" cx="1223.79" cy="381.767" r="2"/>
<circle clip-path="url(#clip582)" style="fill:#009af9; stroke:none; fill-opacity:0" cx="1259.12" cy="153.712" r="2"/>
<circle clip-path="url(#clip582)" style="fill:#009af9; stroke:none; fill-opacity:0" cx="1294.45" cy="309.204" r="2"/>
<circle clip-path="url(#clip582)" style="fill:#009af9; stroke:none; fill-opacity:0" cx="1329.78" cy="252.19" r="2"/>
<circle clip-path="url(#clip582)" style="fill:#009af9; stroke:none; fill-opacity:0" cx="1365.11" cy="221.092" r="2"/>
<circle clip-path="url(#clip582)" style="fill:#009af9; stroke:none; fill-opacity:0" cx="1400.44" cy="304.021" r="2"/>
<circle clip-path="url(#clip582)" style="fill:#009af9; stroke:none; fill-opacity:0" cx="1435.77" cy="283.289" r="2"/>
<circle clip-path="url(#clip582)" style="fill:#009af9; stroke:none; fill-opacity:0" cx="1471.1" cy="495.795" r="2"/>
<circle clip-path="url(#clip582)" style="fill:#009af9; stroke:none; fill-opacity:0" cx="1506.43" cy="656.47" r="2"/>
<circle clip-path="url(#clip582)" style="fill:#009af9; stroke:none; fill-opacity:0" cx="1541.76" cy="977.82" r="2"/>
<circle clip-path="url(#clip582)" style="fill:#009af9; stroke:none; fill-opacity:0" cx="1577.09" cy="1216.24" r="2"/>
<circle clip-path="url(#clip582)" style="fill:#009af9; stroke:none; fill-opacity:0" cx="1612.42" cy="1392.47" r="2"/>
<circle clip-path="url(#clip582)" style="fill:#009af9; stroke:none; fill-opacity:0" cx="1647.75" cy="1615.34" r="2"/>
<polyline clip-path="url(#clip582)" style="stroke:#e26f46; stroke-linecap:round; stroke-linejoin:round; stroke-width:8; stroke-opacity:1; fill:none" points="1170.79,3180.62 1170.79,-1359.74 "/>
</svg>
