<?xml version="1.0" encoding="utf-8"?>
<svg xmlns="http://www.w3.org/2000/svg" xmlns:xlink="http://www.w3.org/1999/xlink" width="450" height="450" viewBox="0 0 1800 1800">
<defs>
  <clipPath id="clip890">
    <rect x="0" y="0" width="1800" height="1800"/>
  </clipPath>
</defs>
<path clip-path="url(#clip890)" d="M0 1800 L1800 1800 L1800 0 L0 0  Z" fill="#ffffff" fill-rule="evenodd" fill-opacity="1"/>
<defs>
  <clipPath id="clip891">
    <rect x="360" y="180" width="1261" height="1261"/>
  </clipPath>
</defs>
<path clip-path="url(#clip890)" d="M166.015 1667.17 L1752.76 1667.17 L1752.76 153.712 L166.015 153.712  Z" fill="#ffffff" fill-rule="evenodd" fill-opacity="1"/>
<defs>
  <clipPath id="clip892">
    <rect x="166" y="153" width="1588" height="1514"/>
  </clipPath>
</defs>
<polyline clip-path="url(#clip892)" style="stroke:#000000; stroke-linecap:round; stroke-linejoin:round; stroke-width:2; stroke-opacity:0.1; fill:none" points="253.288,1667.17 253.288,153.712 "/>
<polyline clip-path="url(#clip892)" style="stroke:#000000; stroke-linecap:round; stroke-linejoin:round; stroke-width:2; stroke-opacity:0.1; fill:none" points="473.944,1667.17 473.944,153.712 "/>
<polyline clip-path="url(#clip892)" style="stroke:#000000; stroke-linecap:round; stroke-linejoin:round; stroke-width:2; stroke-opacity:0.1; fill:none" points="694.599,1667.17 694.599,153.712 "/>
<polyline clip-path="url(#clip892)" style="stroke:#000000; stroke-linecap:round; stroke-linejoin:round; stroke-width:2; stroke-opacity:0.1; fill:none" points="915.254,1667.17 915.254,153.712 "/>
<polyline clip-path="url(#clip892)" style="stroke:#000000; stroke-linecap:round; stroke-linejoin:round; stroke-width:2; stroke-opacity:0.1; fill:none" points="1135.91,1667.17 1135.91,153.712 "/>
<polyline clip-path="url(#clip892)" style="stroke:#000000; stroke-linecap:round; stroke-linejoin:round; stroke-width:2; stroke-opacity:0.1; fill:none" points="1356.56,1667.17 1356.56,153.712 "/>
<polyline clip-path="url(#clip892)" style="stroke:#000000; stroke-linecap:round; stroke-linejoin:round; stroke-width:2; stroke-opacity:0.1; fill:none" points="1577.22,1667.17 1577.22,153.712 "/>
<polyline clip-path="url(#clip892)" style="stroke:#000000; stroke-linecap:round; stroke-linejoin:round; stroke-width:2; stroke-opacity:0.1; fill:none" points="166.015,1667.17 1752.76,1667.17 "/>
<polyline clip-path="url(#clip892)" style="stroke:#000000; stroke-linecap:round; stroke-linejoin:round; stroke-width:2; stroke-opacity:0.1; fill:none" points="166.015,1362.65 1752.76,1362.65 "/>
<polyline clip-path="url(#clip892)" style="stroke:#000000; stroke-linecap:round; stroke-linejoin:round; stroke-width:2; stroke-opacity:0.1; fill:none" points="166.015,1058.13 1752.76,1058.13 "/>
<polyline clip-path="url(#clip892)" style="stroke:#000000; stroke-linecap:round; stroke-linejoin:round; stroke-width:2; stroke-opacity:0.1; fill:none" points="166.015,753.613 1752.76,753.613 "/>
<polyline clip-path="url(#clip892)" style="stroke:#000000; stroke-linecap:round; stroke-linejoin:round; stroke-width:2; stroke-opacity:0.1; fill:none" points="166.015,449.095 1752.76,449.095 "/>
<polyline clip-path="url(#clip890)" style="stroke:#000000; stroke-linecap:round; stroke-linejoin:round; stroke-width:4; stroke-opacity:1; fill:none" points="166.015,1667.17 1752.76,1667.17 "/>
<polyline clip-path="url(#clip890)" style="stroke:#000000; stroke-linecap:round; stroke-linejoin:round; stroke-width:4; stroke-opacity:1; fill:none" points="253.288,1667.17 253.288,1648.27 "/>
<polyline clip-path="url(#clip890)" style="stroke:#000000; stroke-linecap:round; stroke-linejoin:round; stroke-width:4; stroke-opacity:1; fill:none" points="473.944,1667.17 473.944,1648.27 "/>
<polyline clip-path="url(#clip890)" style="stroke:#000000; stroke-linecap:round; stroke-linejoin:round; stroke-width:4; stroke-opacity:1; fill:none" points="694.599,1667.17 694.599,1648.27 "/>
<polyline clip-path="url(#clip890)" style="stroke:#000000; stroke-linecap:round; stroke-linejoin:round; stroke-width:4; stroke-opacity:1; fill:none" points="915.254,1667.17 915.254,1648.27 "/>
<polyline clip-path="url(#clip890)" style="stroke:#000000; stroke-linecap:round; stroke-linejoin:round; stroke-width:4; stroke-opacity:1; fill:none" points="1135.91,1667.17 1135.91,1648.27 "/>
<polyline clip-path="url(#clip890)" style="stroke:#000000; stroke-linecap:round; stroke-linejoin:round; stroke-width:4; stroke-opacity:1; fill:none" points="1356.56,1667.17 1356.56,1648.27 "/>
<polyline clip-path="url(#clip890)" style="stroke:#000000; stroke-linecap:round; stroke-linejoin:round; stroke-width:4; stroke-opacity:1; fill:none" points="1577.22,1667.17 1577.22,1648.27 "/>
<path clip-path="url(#clip890)" d="M223.231 1707.94 L252.906 1707.94 L252.906 1711.87 L223.231 1711.87 L223.231 1707.94 Z" fill="#000000" fill-rule="nonzero" fill-opacity="1" /><path clip-path="url(#clip890)" d="M267.027 1720.83 L283.346 1720.83 L283.346 1724.77 L261.402 1724.77 L261.402 1720.83 Q264.064 1718.08 268.647 1713.45 Q273.254 1708.8 274.434 1707.45 Q276.679 1704.93 277.559 1703.19 Q278.462 1701.43 278.462 1699.74 Q278.462 1696.99 276.517 1695.25 Q274.596 1693.52 271.494 1693.52 Q269.295 1693.52 266.842 1694.28 Q264.411 1695.05 261.633 1696.6 L261.633 1691.87 Q264.457 1690.74 266.911 1690.16 Q269.365 1689.58 271.402 1689.58 Q276.772 1689.58 279.967 1692.27 Q283.161 1694.95 283.161 1699.44 Q283.161 1701.57 282.351 1703.49 Q281.564 1705.39 279.457 1707.99 Q278.879 1708.66 275.777 1711.87 Q272.675 1715.07 267.027 1720.83 Z" fill="#000000" fill-rule="nonzero" fill-opacity="1" /><path clip-path="url(#clip890)" d="M443.701 1707.94 L473.377 1707.94 L473.377 1711.87 L443.701 1711.87 L443.701 1707.94 Z" fill="#000000" fill-rule="nonzero" fill-opacity="1" /><path clip-path="url(#clip890)" d="M484.279 1720.83 L491.918 1720.83 L491.918 1694.47 L483.608 1696.13 L483.608 1691.87 L491.872 1690.21 L496.548 1690.21 L496.548 1720.83 L504.187 1720.83 L504.187 1724.77 L484.279 1724.77 L484.279 1720.83 Z" fill="#000000" fill-rule="nonzero" fill-opacity="1" /><path clip-path="url(#clip890)" d="M694.599 1693.29 Q690.988 1693.29 689.159 1696.85 Q687.354 1700.39 687.354 1707.52 Q687.354 1714.63 689.159 1718.19 Q690.988 1721.74 694.599 1721.74 Q698.233 1721.74 700.039 1718.19 Q701.867 1714.63 701.867 1707.52 Q701.867 1700.39 700.039 1696.85 Q698.233 1693.29 694.599 1693.29 M694.599 1689.58 Q700.409 1689.58 703.465 1694.19 Q706.543 1698.77 706.543 1707.52 Q706.543 1716.25 703.465 1720.86 Q700.409 1725.44 694.599 1725.44 Q688.789 1725.44 685.71 1720.86 Q682.655 1716.25 682.655 1707.52 Q682.655 1698.77 685.71 1694.19 Q688.789 1689.58 694.599 1689.58 Z" fill="#000000" fill-rule="nonzero" fill-opacity="1" /><path clip-path="url(#clip890)" d="M905.636 1720.83 L913.275 1720.83 L913.275 1694.47 L904.965 1696.13 L904.965 1691.87 L913.229 1690.21 L917.905 1690.21 L917.905 1720.83 L925.544 1720.83 L925.544 1724.77 L905.636 1724.77 L905.636 1720.83 Z" fill="#000000" fill-rule="nonzero" fill-opacity="1" /><path clip-path="url(#clip890)" d="M1130.56 1720.83 L1146.88 1720.83 L1146.88 1724.77 L1124.94 1724.77 L1124.94 1720.83 Q1127.6 1718.08 1132.18 1713.45 Q1136.79 1708.8 1137.97 1707.45 Q1140.22 1704.93 1141.09 1703.19 Q1142 1701.43 1142 1699.74 Q1142 1696.99 1140.05 1695.25 Q1138.13 1693.52 1135.03 1693.52 Q1132.83 1693.52 1130.38 1694.28 Q1127.95 1695.05 1125.17 1696.6 L1125.17 1691.87 Q1127.99 1690.74 1130.45 1690.16 Q1132.9 1689.58 1134.94 1689.58 Q1140.31 1689.58 1143.5 1692.27 Q1146.7 1694.95 1146.7 1699.44 Q1146.7 1701.57 1145.89 1703.49 Q1145.1 1705.39 1142.99 1707.99 Q1142.41 1708.66 1139.31 1711.87 Q1136.21 1715.07 1130.56 1720.83 Z" fill="#000000" fill-rule="nonzero" fill-opacity="1" /><path clip-path="url(#clip890)" d="M1360.81 1706.13 Q1364.17 1706.85 1366.04 1709.12 Q1367.94 1711.39 1367.94 1714.72 Q1367.94 1719.84 1364.42 1722.64 Q1360.91 1725.44 1354.42 1725.44 Q1352.25 1725.44 1349.93 1725 Q1347.64 1724.58 1345.19 1723.73 L1345.19 1719.21 Q1347.13 1720.35 1349.45 1720.93 Q1351.76 1721.5 1354.28 1721.5 Q1358.68 1721.5 1360.97 1719.77 Q1363.29 1718.03 1363.29 1714.72 Q1363.29 1711.67 1361.14 1709.95 Q1359.01 1708.22 1355.19 1708.22 L1351.16 1708.22 L1351.16 1704.37 L1355.37 1704.37 Q1358.82 1704.37 1360.65 1703.01 Q1362.48 1701.62 1362.48 1699.03 Q1362.48 1696.37 1360.58 1694.95 Q1358.71 1693.52 1355.19 1693.52 Q1353.27 1693.52 1351.07 1693.93 Q1348.87 1694.35 1346.23 1695.23 L1346.23 1691.06 Q1348.89 1690.32 1351.21 1689.95 Q1353.54 1689.58 1355.6 1689.58 Q1360.93 1689.58 1364.03 1692.01 Q1367.13 1694.42 1367.13 1698.54 Q1367.13 1701.41 1365.49 1703.4 Q1363.84 1705.37 1360.81 1706.13 Z" fill="#000000" fill-rule="nonzero" fill-opacity="1" /><path clip-path="url(#clip890)" d="M1580.23 1694.28 L1568.42 1712.73 L1580.23 1712.73 L1580.23 1694.28 M1579 1690.21 L1584.88 1690.21 L1584.88 1712.73 L1589.81 1712.73 L1589.81 1716.62 L1584.88 1716.62 L1584.88 1724.77 L1580.23 1724.77 L1580.23 1716.62 L1564.63 1716.62 L1564.63 1712.11 L1579 1690.21 Z" fill="#000000" fill-rule="nonzero" fill-opacity="1" /><polyline clip-path="url(#clip890)" style="stroke:#000000; stroke-linecap:round; stroke-linejoin:round; stroke-width:4; stroke-opacity:1; fill:none" points="166.015,1667.17 166.015,153.712 "/>
<polyline clip-path="url(#clip890)" style="stroke:#000000; stroke-linecap:round; stroke-linejoin:round; stroke-width:4; stroke-opacity:1; fill:none" points="166.015,1667.17 184.912,1667.17 "/>
<polyline clip-path="url(#clip890)" style="stroke:#000000; stroke-linecap:round; stroke-linejoin:round; stroke-width:4; stroke-opacity:1; fill:none" points="166.015,1362.65 184.912,1362.65 "/>
<polyline clip-path="url(#clip890)" style="stroke:#000000; stroke-linecap:round; stroke-linejoin:round; stroke-width:4; stroke-opacity:1; fill:none" points="166.015,1058.13 184.912,1058.13 "/>
<polyline clip-path="url(#clip890)" style="stroke:#000000; stroke-linecap:round; stroke-linejoin:round; stroke-width:4; stroke-opacity:1; fill:none" points="166.015,753.613 184.912,753.613 "/>
<polyline clip-path="url(#clip890)" style="stroke:#000000; stroke-linecap:round; stroke-linejoin:round; stroke-width:4; stroke-opacity:1; fill:none" points="166.015,449.095 184.912,449.095 "/>
<path clip-path="url(#clip890)" d="M127.07 1652.97 Q123.459 1652.97 121.631 1656.53 Q119.825 1660.07 119.825 1667.2 Q119.825 1674.31 121.631 1677.87 Q123.459 1681.42 127.07 1681.42 Q130.705 1681.42 132.51 1677.87 Q134.339 1674.31 134.339 1667.2 Q134.339 1660.07 132.51 1656.53 Q130.705 1652.97 127.07 1652.97 M127.07 1649.26 Q132.881 1649.26 135.936 1653.87 Q139.015 1658.45 139.015 1667.2 Q139.015 1675.93 135.936 1680.54 Q132.881 1685.12 127.07 1685.12 Q121.26 1685.12 118.182 1680.54 Q115.126 1675.93 115.126 1667.2 Q115.126 1658.45 118.182 1653.87 Q121.26 1649.26 127.07 1649.26 Z" fill="#000000" fill-rule="nonzero" fill-opacity="1" /><path clip-path="url(#clip890)" d="M57.5569 1375.99 L65.1958 1375.99 L65.1958 1349.63 L56.8856 1351.3 L56.8856 1347.04 L65.1495 1345.37 L69.8254 1345.37 L69.8254 1375.99 L77.4642 1375.99 L77.4642 1379.93 L57.5569 1379.93 L57.5569 1375.99 Z" fill="#000000" fill-rule="nonzero" fill-opacity="1" /><path clip-path="url(#clip890)" d="M96.9086 1348.45 Q93.2975 1348.45 91.4688 1352.01 Q89.6632 1355.55 89.6632 1362.68 Q89.6632 1369.79 91.4688 1373.36 Q93.2975 1376.9 96.9086 1376.9 Q100.543 1376.9 102.348 1373.36 Q104.177 1369.79 104.177 1362.68 Q104.177 1355.55 102.348 1352.01 Q100.543 1348.45 96.9086 1348.45 M96.9086 1344.74 Q102.719 1344.74 105.774 1349.35 Q108.853 1353.93 108.853 1362.68 Q108.853 1371.41 105.774 1376.02 Q102.719 1380.6 96.9086 1380.6 Q91.0984 1380.6 88.0197 1376.02 Q84.9642 1371.41 84.9642 1362.68 Q84.9642 1353.93 88.0197 1349.35 Q91.0984 1344.74 96.9086 1344.74 Z" fill="#000000" fill-rule="nonzero" fill-opacity="1" /><path clip-path="url(#clip890)" d="M127.07 1348.45 Q123.459 1348.45 121.631 1352.01 Q119.825 1355.55 119.825 1362.68 Q119.825 1369.79 121.631 1373.36 Q123.459 1376.9 127.07 1376.9 Q130.705 1376.9 132.51 1373.36 Q134.339 1369.79 134.339 1362.68 Q134.339 1355.55 132.51 1352.01 Q130.705 1348.45 127.07 1348.45 M127.07 1344.74 Q132.881 1344.74 135.936 1349.35 Q139.015 1353.93 139.015 1362.68 Q139.015 1371.41 135.936 1376.02 Q132.881 1380.6 127.07 1380.6 Q121.26 1380.6 118.182 1376.02 Q115.126 1371.41 115.126 1362.68 Q115.126 1353.93 118.182 1349.35 Q121.26 1344.74 127.07 1344.74 Z" fill="#000000" fill-rule="nonzero" fill-opacity="1" /><path clip-path="url(#clip890)" d="M60.7745 1071.48 L77.0939 1071.48 L77.0939 1075.41 L55.1495 1075.41 L55.1495 1071.48 Q57.8115 1068.72 62.3949 1064.09 Q67.0013 1059.44 68.1819 1058.1 Q70.4272 1055.57 71.3068 1053.84 Q72.2096 1052.08 72.2096 1050.39 Q72.2096 1047.63 70.2652 1045.9 Q68.3439 1044.16 65.2421 1044.16 Q63.043 1044.16 60.5893 1044.93 Q58.1588 1045.69 55.381 1047.24 L55.381 1042.52 Q58.2051 1041.38 60.6588 1040.81 Q63.1124 1040.23 65.1495 1040.23 Q70.5198 1040.23 73.7142 1042.91 Q76.9087 1045.6 76.9087 1050.09 Q76.9087 1052.22 76.0985 1054.14 Q75.3115 1056.04 73.205 1058.63 Q72.6263 1059.3 69.5245 1062.52 Q66.4226 1065.71 60.7745 1071.48 Z" fill="#000000" fill-rule="nonzero" fill-opacity="1" /><path clip-path="url(#clip890)" d="M96.9086 1043.93 Q93.2975 1043.93 91.4688 1047.49 Q89.6632 1051.04 89.6632 1058.17 Q89.6632 1065.27 91.4688 1068.84 Q93.2975 1072.38 96.9086 1072.38 Q100.543 1072.38 102.348 1068.84 Q104.177 1065.27 104.177 1058.17 Q104.177 1051.04 102.348 1047.49 Q100.543 1043.93 96.9086 1043.93 M96.9086 1040.23 Q102.719 1040.23 105.774 1044.83 Q108.853 1049.42 108.853 1058.17 Q108.853 1066.89 105.774 1071.5 Q102.719 1076.08 96.9086 1076.08 Q91.0984 1076.08 88.0197 1071.5 Q84.9642 1066.89 84.9642 1058.17 Q84.9642 1049.42 88.0197 1044.83 Q91.0984 1040.23 96.9086 1040.23 Z" fill="#000000" fill-rule="nonzero" fill-opacity="1" /><path clip-path="url(#clip890)" d="M127.07 1043.93 Q123.459 1043.93 121.631 1047.49 Q119.825 1051.04 119.825 1058.17 Q119.825 1065.27 121.631 1068.84 Q123.459 1072.38 127.07 1072.38 Q130.705 1072.38 132.51 1068.84 Q134.339 1065.27 134.339 1058.17 Q134.339 1051.04 132.51 1047.49 Q130.705 1043.93 127.07 1043.93 M127.07 1040.23 Q132.881 1040.23 135.936 1044.83 Q139.015 1049.42 139.015 1058.17 Q139.015 1066.89 135.936 1071.5 Q132.881 1076.08 127.07 1076.08 Q121.26 1076.08 118.182 1071.5 Q115.126 1066.89 115.126 1058.17 Q115.126 1049.42 118.182 1044.83 Q121.26 1040.23 127.07 1040.23 Z" fill="#000000" fill-rule="nonzero" fill-opacity="1" /><path clip-path="url(#clip890)" d="M70.9133 752.259 Q74.2698 752.977 76.1448 755.245 Q78.0429 757.514 78.0429 760.847 Q78.0429 765.963 74.5244 768.763 Q71.0059 771.564 64.5245 771.564 Q62.3486 771.564 60.0338 771.125 Q57.7421 770.708 55.2884 769.851 L55.2884 765.338 Q57.2328 766.472 59.5477 767.051 Q61.8625 767.629 64.3856 767.629 Q68.7837 767.629 71.0754 765.893 Q73.3902 764.157 73.3902 760.847 Q73.3902 757.791 71.2374 756.078 Q69.1078 754.342 65.2884 754.342 L61.2606 754.342 L61.2606 750.5 L65.4735 750.5 Q68.9226 750.5 70.7513 749.134 Q72.58 747.745 72.58 745.152 Q72.58 742.49 70.6819 741.078 Q68.8069 739.643 65.2884 739.643 Q63.3671 739.643 61.168 740.06 Q58.969 740.477 56.3301 741.356 L56.3301 737.19 Q58.9921 736.449 61.3069 736.078 Q63.6449 735.708 65.705 735.708 Q71.0291 735.708 74.1309 738.139 Q77.2327 740.546 77.2327 744.666 Q77.2327 747.537 75.5892 749.527 Q73.9457 751.495 70.9133 752.259 Z" fill="#000000" fill-rule="nonzero" fill-opacity="1" /><path clip-path="url(#clip890)" d="M96.9086 739.412 Q93.2975 739.412 91.4688 742.977 Q89.6632 746.518 89.6632 753.648 Q89.6632 760.754 91.4688 764.319 Q93.2975 767.861 96.9086 767.861 Q100.543 767.861 102.348 764.319 Q104.177 760.754 104.177 753.648 Q104.177 746.518 102.348 742.977 Q100.543 739.412 96.9086 739.412 M96.9086 735.708 Q102.719 735.708 105.774 740.315 Q108.853 744.898 108.853 753.648 Q108.853 762.375 105.774 766.981 Q102.719 771.564 96.9086 771.564 Q91.0984 771.564 88.0197 766.981 Q84.9642 762.375 84.9642 753.648 Q84.9642 744.898 88.0197 740.315 Q91.0984 735.708 96.9086 735.708 Z" fill="#000000" fill-rule="nonzero" fill-opacity="1" /><path clip-path="url(#clip890)" d="M127.07 739.412 Q123.459 739.412 121.631 742.977 Q119.825 746.518 119.825 753.648 Q119.825 760.754 121.631 764.319 Q123.459 767.861 127.07 767.861 Q130.705 767.861 132.51 764.319 Q134.339 760.754 134.339 753.648 Q134.339 746.518 132.51 742.977 Q130.705 739.412 127.07 739.412 M127.07 735.708 Q132.881 735.708 135.936 740.315 Q139.015 744.898 139.015 753.648 Q139.015 762.375 135.936 766.981 Q132.881 771.564 127.07 771.564 Q121.26 771.564 118.182 766.981 Q115.126 762.375 115.126 753.648 Q115.126 744.898 118.182 740.315 Q121.26 735.708 127.07 735.708 Z" fill="#000000" fill-rule="nonzero" fill-opacity="1" /><path clip-path="url(#clip890)" d="M69.5939 435.889 L57.7884 454.338 L69.5939 454.338 L69.5939 435.889 M68.367 431.815 L74.2466 431.815 L74.2466 454.338 L79.1772 454.338 L79.1772 458.227 L74.2466 458.227 L74.2466 466.375 L69.5939 466.375 L69.5939 458.227 L53.9921 458.227 L53.9921 453.713 L68.367 431.815 Z" fill="#000000" fill-rule="nonzero" fill-opacity="1" /><path clip-path="url(#clip890)" d="M96.9086 434.894 Q93.2975 434.894 91.4688 438.458 Q89.6632 442 89.6632 449.13 Q89.6632 456.236 91.4688 459.801 Q93.2975 463.342 96.9086 463.342 Q100.543 463.342 102.348 459.801 Q104.177 456.236 104.177 449.13 Q104.177 442 102.348 438.458 Q100.543 434.894 96.9086 434.894 M96.9086 431.19 Q102.719 431.19 105.774 435.796 Q108.853 440.38 108.853 449.13 Q108.853 457.856 105.774 462.463 Q102.719 467.046 96.9086 467.046 Q91.0984 467.046 88.0197 462.463 Q84.9642 457.856 84.9642 449.13 Q84.9642 440.38 88.0197 435.796 Q91.0984 431.19 96.9086 431.19 Z" fill="#000000" fill-rule="nonzero" fill-opacity="1" /><path clip-path="url(#clip890)" d="M127.07 434.894 Q123.459 434.894 121.631 438.458 Q119.825 442 119.825 449.13 Q119.825 456.236 121.631 459.801 Q123.459 463.342 127.07 463.342 Q130.705 463.342 132.51 459.801 Q134.339 456.236 134.339 449.13 Q134.339 442 132.51 438.458 Q130.705 434.894 127.07 434.894 M127.07 431.19 Q132.881 431.19 135.936 435.796 Q139.015 440.38 139.015 449.13 Q139.015 457.856 135.936 462.463 Q132.881 467.046 127.07 467.046 Q121.26 467.046 118.182 462.463 Q115.126 457.856 115.126 449.13 Q115.126 440.38 118.182 435.796 Q121.26 431.19 127.07 431.19 Z" fill="#000000" fill-rule="nonzero" fill-opacity="1" /><path clip-path="url(#clip890)" d="M639.587 18.8205 L639.587 41.5461 L649.876 41.5461 Q655.588 41.5461 658.707 38.5889 Q661.826 35.6318 661.826 30.163 Q661.826 24.7348 658.707 21.7777 Q655.588 18.8205 649.876 18.8205 L639.587 18.8205 M631.404 12.096 L649.876 12.096 Q660.044 12.096 665.229 16.714 Q670.455 21.2916 670.455 30.163 Q670.455 39.1155 665.229 43.6931 Q660.044 48.2706 649.876 48.2706 L639.587 48.2706 L639.587 72.576 L631.404 72.576 L631.404 12.096 Z" fill="#000000" fill-rule="nonzero" fill-opacity="1" /><path clip-path="url(#clip890)" d="M705.941 34.1734 Q704.685 33.4443 703.186 33.1202 Q701.728 32.7556 699.945 32.7556 Q693.626 32.7556 690.223 36.8875 Q686.861 40.9789 686.861 48.6757 L686.861 72.576 L679.367 72.576 L679.367 27.2059 L686.861 27.2059 L686.861 34.2544 Q689.21 30.1225 692.978 28.1376 Q696.745 26.1121 702.133 26.1121 Q702.902 26.1121 703.834 26.2337 Q704.766 26.3147 705.9 26.5172 L705.941 34.1734 Z" fill="#000000" fill-rule="nonzero" fill-opacity="1" /><path clip-path="url(#clip890)" d="M713.759 27.2059 L721.212 27.2059 L721.212 72.576 L713.759 72.576 L713.759 27.2059 M713.759 9.54393 L721.212 9.54393 L721.212 18.9825 L713.759 18.9825 L713.759 9.54393 Z" fill="#000000" fill-rule="nonzero" fill-opacity="1" /><path clip-path="url(#clip890)" d="M754.389 32.4315 Q748.394 32.4315 744.91 37.1306 Q741.426 41.7891 741.426 49.9314 Q741.426 58.0738 744.87 62.7728 Q748.354 67.4314 754.389 67.4314 Q760.344 67.4314 763.828 62.7323 Q767.312 58.0333 767.312 49.9314 Q767.312 41.8701 763.828 37.1711 Q760.344 32.4315 754.389 32.4315 M754.389 26.1121 Q764.112 26.1121 769.661 32.4315 Q775.211 38.7509 775.211 49.9314 Q775.211 61.0714 769.661 67.4314 Q764.112 73.7508 754.389 73.7508 Q744.627 73.7508 739.077 67.4314 Q733.568 61.0714 733.568 49.9314 Q733.568 38.7509 739.077 32.4315 Q744.627 26.1121 754.389 26.1121 Z" fill="#000000" fill-rule="nonzero" fill-opacity="1" /><path clip-path="url(#clip890)" d="M813.857 34.1734 Q812.601 33.4443 811.102 33.1202 Q809.644 32.7556 807.861 32.7556 Q801.542 32.7556 798.139 36.8875 Q794.777 40.9789 794.777 48.6757 L794.777 72.576 L787.283 72.576 L787.283 27.2059 L794.777 27.2059 L794.777 34.2544 Q797.126 30.1225 800.894 28.1376 Q804.661 26.1121 810.049 26.1121 Q810.818 26.1121 811.75 26.2337 Q812.682 26.3147 813.816 26.5172 L813.857 34.1734 Z" fill="#000000" fill-rule="nonzero" fill-opacity="1" /><path clip-path="url(#clip890)" d="M865.627 32.4315 Q859.632 32.4315 856.148 37.1306 Q852.664 41.7891 852.664 49.9314 Q852.664 58.0738 856.108 62.7728 Q859.591 67.4314 865.627 67.4314 Q871.582 67.4314 875.066 62.7323 Q878.55 58.0333 878.55 49.9314 Q878.55 41.8701 875.066 37.1711 Q871.582 32.4315 865.627 32.4315 M865.627 26.1121 Q875.349 26.1121 880.899 32.4315 Q886.449 38.7509 886.449 49.9314 Q886.449 61.0714 880.899 67.4314 Q875.349 73.7508 865.627 73.7508 Q855.865 73.7508 850.315 67.4314 Q844.806 61.0714 844.806 49.9314 Q844.806 38.7509 850.315 32.4315 Q855.865 26.1121 865.627 26.1121 Z" fill="#000000" fill-rule="nonzero" fill-opacity="1" /><path clip-path="url(#clip890)" d="M921.773 9.54393 L921.773 15.7418 L914.643 15.7418 Q910.633 15.7418 909.053 17.3622 Q907.514 18.9825 907.514 23.1955 L907.514 27.2059 L919.788 27.2059 L919.788 32.9987 L907.514 32.9987 L907.514 72.576 L900.019 72.576 L900.019 32.9987 L892.89 32.9987 L892.89 27.2059 L900.019 27.2059 L900.019 24.0462 Q900.019 16.471 903.544 13.0277 Q907.068 9.54393 914.724 9.54393 L921.773 9.54393 Z" fill="#000000" fill-rule="nonzero" fill-opacity="1" /><path clip-path="url(#clip890)" d="M983.306 28.5427 L983.306 35.5912 Q980.146 33.9709 976.743 33.1607 Q973.341 32.3505 969.695 32.3505 Q964.145 32.3505 961.35 34.0519 Q958.595 35.7533 958.595 39.156 Q958.595 41.7486 960.58 43.2475 Q962.565 44.7058 968.561 46.0426 L971.113 46.6097 Q979.053 48.3111 982.374 51.4303 Q985.736 54.509 985.736 60.0587 Q985.736 66.3781 980.713 70.0644 Q975.731 73.7508 966.981 73.7508 Q963.335 73.7508 959.365 73.0216 Q955.436 72.3329 951.061 70.9151 L951.061 63.2184 Q955.193 65.3654 959.203 66.4591 Q963.213 67.5124 967.143 67.5124 Q972.409 67.5124 975.245 65.73 Q978.08 63.9071 978.08 60.6258 Q978.08 57.5877 976.014 55.9673 Q973.989 54.3469 967.062 52.8481 L964.469 52.2405 Q957.542 50.7821 954.464 47.7845 Q951.385 44.7463 951.385 39.4801 Q951.385 33.0797 955.922 29.5959 Q960.459 26.1121 968.804 26.1121 Q972.936 26.1121 976.581 26.7198 Q980.227 27.3274 983.306 28.5427 Z" fill="#000000" fill-rule="nonzero" fill-opacity="1" /><path clip-path="url(#clip890)" d="M1018.22 49.7694 Q1009.19 49.7694 1005.71 51.8354 Q1002.22 53.9013 1002.22 58.8839 Q1002.22 62.8538 1004.82 65.2034 Q1007.45 67.5124 1011.95 67.5124 Q1018.14 67.5124 1021.87 63.1374 Q1025.64 58.7219 1025.64 51.4303 L1025.64 49.7694 L1018.22 49.7694 M1033.09 46.6907 L1033.09 72.576 L1025.64 72.576 L1025.64 65.6895 Q1023.09 69.8214 1019.28 71.8063 Q1015.47 73.7508 1009.96 73.7508 Q1002.99 73.7508 998.861 69.8619 Q994.77 65.9325 994.77 59.3701 Q994.77 51.7138 999.874 47.825 Q1005.02 43.9361 1015.19 43.9361 L1025.64 43.9361 L1025.64 43.2069 Q1025.64 38.0623 1022.24 35.2672 Q1018.87 32.4315 1012.76 32.4315 Q1008.87 32.4315 1005.18 33.3632 Q1001.49 34.295 998.092 36.1584 L998.092 29.2718 Q1002.18 27.692 1006.03 26.9223 Q1009.88 26.1121 1013.53 26.1121 Q1023.37 26.1121 1028.23 31.2163 Q1033.09 36.3204 1033.09 46.6907 Z" fill="#000000" fill-rule="nonzero" fill-opacity="1" /><path clip-path="url(#clip890)" d="M1083.77 35.9153 Q1086.56 30.8922 1090.45 28.5022 Q1094.34 26.1121 1099.61 26.1121 Q1106.7 26.1121 1110.54 31.0947 Q1114.39 36.0368 1114.39 45.1919 L1114.39 72.576 L1106.9 72.576 L1106.9 45.4349 Q1106.9 38.913 1104.59 35.7533 Q1102.28 32.5936 1097.54 32.5936 Q1091.75 32.5936 1088.39 36.4419 Q1085.02 40.2903 1085.02 46.9338 L1085.02 72.576 L1077.53 72.576 L1077.53 45.4349 Q1077.53 38.8725 1075.22 35.7533 Q1072.91 32.5936 1068.09 32.5936 Q1062.38 32.5936 1059.02 36.4824 Q1055.66 40.3308 1055.66 46.9338 L1055.66 72.576 L1048.16 72.576 L1048.16 27.2059 L1055.66 27.2059 L1055.66 34.2544 Q1058.21 30.082 1061.77 28.0971 Q1065.34 26.1121 1070.24 26.1121 Q1075.18 26.1121 1078.62 28.6237 Q1082.11 31.1352 1083.77 35.9153 Z" fill="#000000" fill-rule="nonzero" fill-opacity="1" /><path clip-path="url(#clip890)" d="M1136.47 65.7705 L1136.47 89.8329 L1128.98 89.8329 L1128.98 27.2059 L1136.47 27.2059 L1136.47 34.0924 Q1138.82 30.0415 1142.38 28.0971 Q1145.99 26.1121 1150.97 26.1121 Q1159.24 26.1121 1164.38 32.6746 Q1169.57 39.2371 1169.57 49.9314 Q1169.57 60.6258 1164.38 67.1883 Q1159.24 73.7508 1150.97 73.7508 Q1145.99 73.7508 1142.38 71.8063 Q1138.82 69.8214 1136.47 65.7705 M1161.83 49.9314 Q1161.83 41.7081 1158.43 37.0496 Q1155.06 32.3505 1149.15 32.3505 Q1143.24 32.3505 1139.83 37.0496 Q1136.47 41.7081 1136.47 49.9314 Q1136.47 58.1548 1139.83 62.8538 Q1143.24 67.5124 1149.15 67.5124 Q1155.06 67.5124 1158.43 62.8538 Q1161.83 58.1548 1161.83 49.9314 Z" fill="#000000" fill-rule="nonzero" fill-opacity="1" /><path clip-path="url(#clip890)" d="M1181.92 9.54393 L1189.38 9.54393 L1189.38 72.576 L1181.92 72.576 L1181.92 9.54393 Z" fill="#000000" fill-rule="nonzero" fill-opacity="1" /><path clip-path="url(#clip890)" d="M1243.78 48.0275 L1243.78 51.6733 L1209.51 51.6733 Q1209.99 59.3701 1214.13 63.421 Q1218.3 67.4314 1225.71 67.4314 Q1230.01 67.4314 1234.02 66.3781 Q1238.07 65.3249 1242.04 63.2184 L1242.04 70.267 Q1238.03 71.9684 1233.81 72.8596 Q1229.6 73.7508 1225.27 73.7508 Q1214.41 73.7508 1208.05 67.4314 Q1201.73 61.1119 1201.73 50.3365 Q1201.73 39.1965 1207.73 32.6746 Q1213.76 26.1121 1223.97 26.1121 Q1233.13 26.1121 1238.43 32.0264 Q1243.78 37.9003 1243.78 48.0275 M1236.33 45.84 Q1236.24 39.7232 1232.88 36.0774 Q1229.56 32.4315 1224.05 32.4315 Q1217.81 32.4315 1214.05 35.9558 Q1210.32 39.4801 1209.75 45.8805 L1236.33 45.84 Z" fill="#000000" fill-rule="nonzero" fill-opacity="1" /><path clip-path="url(#clip890)" d="M1284.94 28.5427 L1284.94 35.5912 Q1281.78 33.9709 1278.37 33.1607 Q1274.97 32.3505 1271.33 32.3505 Q1265.78 32.3505 1262.98 34.0519 Q1260.23 35.7533 1260.23 39.156 Q1260.23 41.7486 1262.21 43.2475 Q1264.2 44.7058 1270.19 46.0426 L1272.74 46.6097 Q1280.68 48.3111 1284 51.4303 Q1287.37 54.509 1287.37 60.0587 Q1287.37 66.3781 1282.34 70.0644 Q1277.36 73.7508 1268.61 73.7508 Q1264.97 73.7508 1261 73.0216 Q1257.07 72.3329 1252.69 70.9151 L1252.69 63.2184 Q1256.82 65.3654 1260.83 66.4591 Q1264.84 67.5124 1268.77 67.5124 Q1274.04 67.5124 1276.87 65.73 Q1279.71 63.9071 1279.71 60.6258 Q1279.71 57.5877 1277.64 55.9673 Q1275.62 54.3469 1268.69 52.8481 L1266.1 52.2405 Q1259.17 50.7821 1256.09 47.7845 Q1253.02 44.7463 1253.02 39.4801 Q1253.02 33.0797 1257.55 29.5959 Q1262.09 26.1121 1270.43 26.1121 Q1274.57 26.1121 1278.21 26.7198 Q1281.86 27.3274 1284.94 28.5427 Z" fill="#000000" fill-rule="nonzero" fill-opacity="1" /><path clip-path="url(#clip892)" d="M253.288 1664.12 L253.288 1667.17 L297.419 1667.17 L297.419 1664.12 L253.288 1664.12 L253.288 1664.12  Z" fill="#009af9" fill-rule="evenodd" fill-opacity="1"/>
<polyline clip-path="url(#clip892)" style="stroke:#000000; stroke-linecap:round; stroke-linejoin:round; stroke-width:8; stroke-opacity:1; fill:none" points="253.288,1664.12 253.288,1667.17 297.419,1667.17 297.419,1664.12 253.288,1664.12 "/>
<path clip-path="url(#clip892)" d="M297.419 1664.12 L297.419 1667.17 L341.551 1667.17 L341.551 1664.12 L297.419 1664.12 L297.419 1664.12  Z" fill="#009af9" fill-rule="evenodd" fill-opacity="1"/>
<polyline clip-path="url(#clip892)" style="stroke:#000000; stroke-linecap:round; stroke-linejoin:round; stroke-width:8; stroke-opacity:1; fill:none" points="297.419,1664.12 297.419,1667.17 341.551,1667.17 341.551,1664.12 297.419,1664.12 "/>
<path clip-path="url(#clip892)" d="M341.551 1654.99 L341.551 1667.17 L385.682 1667.17 L385.682 1654.99 L341.551 1654.99 L341.551 1654.99  Z" fill="#009af9" fill-rule="evenodd" fill-opacity="1"/>
<polyline clip-path="url(#clip892)" style="stroke:#000000; stroke-linecap:round; stroke-linejoin:round; stroke-width:8; stroke-opacity:1; fill:none" points="341.551,1654.99 341.551,1667.17 385.682,1667.17 385.682,1654.99 341.551,1654.99 "/>
<path clip-path="url(#clip892)" d="M385.682 1636.72 L385.682 1667.17 L429.813 1667.17 L429.813 1636.72 L385.682 1636.72 L385.682 1636.72  Z" fill="#009af9" fill-rule="evenodd" fill-opacity="1"/>
<polyline clip-path="url(#clip892)" style="stroke:#000000; stroke-linecap:round; stroke-linejoin:round; stroke-width:8; stroke-opacity:1; fill:none" points="385.682,1636.72 385.682,1667.17 429.813,1667.17 429.813,1636.72 385.682,1636.72 "/>
<path clip-path="url(#clip892)" d="M429.813 1612.35 L429.813 1667.17 L473.944 1667.17 L473.944 1612.35 L429.813 1612.35 L429.813 1612.35  Z" fill="#009af9" fill-rule="evenodd" fill-opacity="1"/>
<polyline clip-path="url(#clip892)" style="stroke:#000000; stroke-linecap:round; stroke-linejoin:round; stroke-width:8; stroke-opacity:1; fill:none" points="429.813,1612.35 429.813,1667.17 473.944,1667.17 473.944,1612.35 429.813,1612.35 "/>
<path clip-path="url(#clip892)" d="M473.944 1581.9 L473.944 1667.17 L518.075 1667.17 L518.075 1581.9 L473.944 1581.9 L473.944 1581.9  Z" fill="#009af9" fill-rule="evenodd" fill-opacity="1"/>
<polyline clip-path="url(#clip892)" style="stroke:#000000; stroke-linecap:round; stroke-linejoin:round; stroke-width:8; stroke-opacity:1; fill:none" points="473.944,1581.9 473.944,1667.17 518.075,1667.17 518.075,1581.9 473.944,1581.9 "/>
<path clip-path="url(#clip892)" d="M518.075 1533.18 L518.075 1667.17 L562.206 1667.17 L562.206 1533.18 L518.075 1533.18 L518.075 1533.18  Z" fill="#009af9" fill-rule="evenodd" fill-opacity="1"/>
<polyline clip-path="url(#clip892)" style="stroke:#000000; stroke-linecap:round; stroke-linejoin:round; stroke-width:8; stroke-opacity:1; fill:none" points="518.075,1533.18 518.075,1667.17 562.206,1667.17 562.206,1533.18 518.075,1533.18 "/>
<path clip-path="url(#clip892)" d="M562.206 1368.74 L562.206 1667.17 L606.337 1667.17 L606.337 1368.74 L562.206 1368.74 L562.206 1368.74  Z" fill="#009af9" fill-rule="evenodd" fill-opacity="1"/>
<polyline clip-path="url(#clip892)" style="stroke:#000000; stroke-linecap:round; stroke-linejoin:round; stroke-width:8; stroke-opacity:1; fill:none" points="562.206,1368.74 562.206,1667.17 606.337,1667.17 606.337,1368.74 562.206,1368.74 "/>
<path clip-path="url(#clip892)" d="M606.337 1219.53 L606.337 1667.17 L650.468 1667.17 L650.468 1219.53 L606.337 1219.53 L606.337 1219.53  Z" fill="#009af9" fill-rule="evenodd" fill-opacity="1"/>
<polyline clip-path="url(#clip892)" style="stroke:#000000; stroke-linecap:round; stroke-linejoin:round; stroke-width:8; stroke-opacity:1; fill:none" points="606.337,1219.53 606.337,1667.17 650.468,1667.17 650.468,1219.53 606.337,1219.53 "/>
<path clip-path="url(#clip892)" d="M650.468 1009.41 L650.468 1667.17 L694.599 1667.17 L694.599 1009.41 L650.468 1009.41 L650.468 1009.41  Z" fill="#009af9" fill-rule="evenodd" fill-opacity="1"/>
<polyline clip-path="url(#clip892)" style="stroke:#000000; stroke-linecap:round; stroke-linejoin:round; stroke-width:8; stroke-opacity:1; fill:none" points="650.468,1009.41 650.468,1667.17 694.599,1667.17 694.599,1009.41 650.468,1009.41 "/>
<path clip-path="url(#clip892)" d="M694.599 860.194 L694.599 1667.17 L738.73 1667.17 L738.73 860.194 L694.599 860.194 L694.599 860.194  Z" fill="#009af9" fill-rule="evenodd" fill-opacity="1"/>
<polyline clip-path="url(#clip892)" style="stroke:#000000; stroke-linecap:round; stroke-linejoin:round; stroke-width:8; stroke-opacity:1; fill:none" points="694.599,860.194 694.599,1667.17 738.73,1667.17 738.73,860.194 694.599,860.194 "/>
<path clip-path="url(#clip892)" d="M738.73 452.14 L738.73 1667.17 L782.861 1667.17 L782.861 452.14 L738.73 452.14 L738.73 452.14  Z" fill="#009af9" fill-rule="evenodd" fill-opacity="1"/>
<polyline clip-path="url(#clip892)" style="stroke:#000000; stroke-linecap:round; stroke-linejoin:round; stroke-width:8; stroke-opacity:1; fill:none" points="738.73,452.14 738.73,1667.17 782.861,1667.17 782.861,452.14 738.73,452.14 "/>
<path clip-path="url(#clip892)" d="M782.861 336.423 L782.861 1667.17 L826.992 1667.17 L826.992 336.423 L782.861 336.423 L782.861 336.423  Z" fill="#009af9" fill-rule="evenodd" fill-opacity="1"/>
<polyline clip-path="url(#clip892)" style="stroke:#000000; stroke-linecap:round; stroke-linejoin:round; stroke-width:8; stroke-opacity:1; fill:none" points="782.861,336.423 782.861,1667.17 826.992,1667.17 826.992,336.423 782.861,336.423 "/>
<path clip-path="url(#clip892)" d="M826.992 245.068 L826.992 1667.17 L871.123 1667.17 L871.123 245.068 L826.992 245.068 L826.992 245.068  Z" fill="#009af9" fill-rule="evenodd" fill-opacity="1"/>
<polyline clip-path="url(#clip892)" style="stroke:#000000; stroke-linecap:round; stroke-linejoin:round; stroke-width:8; stroke-opacity:1; fill:none" points="826.992,245.068 826.992,1667.17 871.123,1667.17 871.123,245.068 826.992,245.068 "/>
<path clip-path="url(#clip892)" d="M871.123 299.881 L871.123 1667.17 L915.254 1667.17 L915.254 299.881 L871.123 299.881 L871.123 299.881  Z" fill="#009af9" fill-rule="evenodd" fill-opacity="1"/>
<polyline clip-path="url(#clip892)" style="stroke:#000000; stroke-linecap:round; stroke-linejoin:round; stroke-width:8; stroke-opacity:1; fill:none" points="871.123,299.881 871.123,1667.17 915.254,1667.17 915.254,299.881 871.123,299.881 "/>
<path clip-path="url(#clip892)" d="M915.254 153.712 L915.254 1667.17 L959.385 1667.17 L959.385 153.712 L915.254 153.712 L915.254 153.712  Z" fill="#009af9" fill-rule="evenodd" fill-opacity="1"/>
<polyline clip-path="url(#clip892)" style="stroke:#000000; stroke-linecap:round; stroke-linejoin:round; stroke-width:8; stroke-opacity:1; fill:none" points="915.254,153.712 915.254,1667.17 959.385,1667.17 959.385,153.712 915.254,153.712 "/>
<path clip-path="url(#clip892)" d="M959.385 330.333 L959.385 1667.17 L1003.52 1667.17 L1003.52 330.333 L959.385 330.333 L959.385 330.333  Z" fill="#009af9" fill-rule="evenodd" fill-opacity="1"/>
<polyline clip-path="url(#clip892)" style="stroke:#000000; stroke-linecap:round; stroke-linejoin:round; stroke-width:8; stroke-opacity:1; fill:none" points="959.385,330.333 959.385,1667.17 1003.52,1667.17 1003.52,330.333 959.385,330.333 "/>
<path clip-path="url(#clip892)" d="M1003.52 412.553 L1003.52 1667.17 L1047.65 1667.17 L1047.65 412.553 L1003.52 412.553 L1003.52 412.553  Z" fill="#009af9" fill-rule="evenodd" fill-opacity="1"/>
<polyline clip-path="url(#clip892)" style="stroke:#000000; stroke-linecap:round; stroke-linejoin:round; stroke-width:8; stroke-opacity:1; fill:none" points="1003.52,412.553 1003.52,1667.17 1047.65,1667.17 1047.65,412.553 1003.52,412.553 "/>
<path clip-path="url(#clip892)" d="M1047.65 616.58 L1047.65 1667.17 L1091.78 1667.17 L1091.78 616.58 L1047.65 616.58 L1047.65 616.58  Z" fill="#009af9" fill-rule="evenodd" fill-opacity="1"/>
<polyline clip-path="url(#clip892)" style="stroke:#000000; stroke-linecap:round; stroke-linejoin:round; stroke-width:8; stroke-opacity:1; fill:none" points="1047.65,616.58 1047.65,1667.17 1091.78,1667.17 1091.78,616.58 1047.65,616.58 "/>
<path clip-path="url(#clip892)" d="M1091.78 975.911 L1091.78 1667.17 L1135.91 1667.17 L1135.91 975.911 L1091.78 975.911 L1091.78 975.911  Z" fill="#009af9" fill-rule="evenodd" fill-opacity="1"/>
<polyline clip-path="url(#clip892)" style="stroke:#000000; stroke-linecap:round; stroke-linejoin:round; stroke-width:8; stroke-opacity:1; fill:none" points="1091.78,975.911 1091.78,1667.17 1135.91,1667.17 1135.91,975.911 1091.78,975.911 "/>
<path clip-path="url(#clip892)" d="M1135.91 1067.27 L1135.91 1667.17 L1180.04 1667.17 L1180.04 1067.27 L1135.91 1067.27 L1135.91 1067.27  Z" fill="#009af9" fill-rule="evenodd" fill-opacity="1"/>
<polyline clip-path="url(#clip892)" style="stroke:#000000; stroke-linecap:round; stroke-linejoin:round; stroke-width:8; stroke-opacity:1; fill:none" points="1135.91,1067.27 1135.91,1667.17 1180.04,1667.17 1180.04,1067.27 1135.91,1067.27 "/>
<path clip-path="url(#clip892)" d="M1180.04 1289.57 L1180.04 1667.17 L1224.17 1667.17 L1224.17 1289.57 L1180.04 1289.57 L1180.04 1289.57  Z" fill="#009af9" fill-rule="evenodd" fill-opacity="1"/>
<polyline clip-path="url(#clip892)" style="stroke:#000000; stroke-linecap:round; stroke-linejoin:round; stroke-width:8; stroke-opacity:1; fill:none" points="1180.04,1289.57 1180.04,1667.17 1224.17,1667.17 1224.17,1289.57 1180.04,1289.57 "/>
<path clip-path="url(#clip892)" d="M1224.17 1438.78 L1224.17 1667.17 L1268.3 1667.17 L1268.3 1438.78 L1224.17 1438.78 L1224.17 1438.78  Z" fill="#009af9" fill-rule="evenodd" fill-opacity="1"/>
<polyline clip-path="url(#clip892)" style="stroke:#000000; stroke-linecap:round; stroke-linejoin:round; stroke-width:8; stroke-opacity:1; fill:none" points="1224.17,1438.78 1224.17,1667.17 1268.3,1667.17 1268.3,1438.78 1224.17,1438.78 "/>
<path clip-path="url(#clip892)" d="M1268.3 1524.04 L1268.3 1667.17 L1312.43 1667.17 L1312.43 1524.04 L1268.3 1524.04 L1268.3 1524.04  Z" fill="#009af9" fill-rule="evenodd" fill-opacity="1"/>
<polyline clip-path="url(#clip892)" style="stroke:#000000; stroke-linecap:round; stroke-linejoin:round; stroke-width:8; stroke-opacity:1; fill:none" points="1268.3,1524.04 1268.3,1667.17 1312.43,1667.17 1312.43,1524.04 1268.3,1524.04 "/>
<path clip-path="url(#clip892)" d="M1312.43 1572.77 L1312.43 1667.17 L1356.56 1667.17 L1356.56 1572.77 L1312.43 1572.77 L1312.43 1572.77  Z" fill="#009af9" fill-rule="evenodd" fill-opacity="1"/>
<polyline clip-path="url(#clip892)" style="stroke:#000000; stroke-linecap:round; stroke-linejoin:round; stroke-width:8; stroke-opacity:1; fill:none" points="1312.43,1572.77 1312.43,1667.17 1356.56,1667.17 1356.56,1572.77 1312.43,1572.77 "/>
<path clip-path="url(#clip892)" d="M1356.56 1648.9 L1356.56 1667.17 L1400.7 1667.17 L1400.7 1648.9 L1356.56 1648.9 L1356.56 1648.9  Z" fill="#009af9" fill-rule="evenodd" fill-opacity="1"/>
<polyline clip-path="url(#clip892)" style="stroke:#000000; stroke-linecap:round; stroke-linejoin:round; stroke-width:8; stroke-opacity:1; fill:none" points="1356.56,1648.9 1356.56,1667.17 1400.7,1667.17 1400.7,1648.9 1356.56,1648.9 "/>
<path clip-path="url(#clip892)" d="M1400.7 1645.85 L1400.7 1667.17 L1444.83 1667.17 L1444.83 1645.85 L1400.7 1645.85 L1400.7 1645.85  Z" fill="#009af9" fill-rule="evenodd" fill-opacity="1"/>
<polyline clip-path="url(#clip892)" style="stroke:#000000; stroke-linecap:round; stroke-linejoin:round; stroke-width:8; stroke-opacity:1; fill:none" points="1400.7,1645.85 1400.7,1667.17 1444.83,1667.17 1444.83,1645.85 1400.7,1645.85 "/>
<path clip-path="url(#clip892)" d="M1444.83 1648.9 L1444.83 1667.17 L1488.96 1667.17 L1488.96 1648.9 L1444.83 1648.9 L1444.83 1648.9  Z" fill="#009af9" fill-rule="evenodd" fill-opacity="1"/>
<polyline clip-path="url(#clip892)" style="stroke:#000000; stroke-linecap:round; stroke-linejoin:round; stroke-width:8; stroke-opacity:1; fill:none" points="1444.83,1648.9 1444.83,1667.17 1488.96,1667.17 1488.96,1648.9 1444.83,1648.9 "/>
<path clip-path="url(#clip892)" d="M1488.96 1664.12 L1488.96 1667.17 L1533.09 1667.17 L1533.09 1664.12 L1488.96 1664.12 L1488.96 1664.12  Z" fill="#009af9" fill-rule="evenodd" fill-opacity="1"/>
<polyline clip-path="url(#clip892)" style="stroke:#000000; stroke-linecap:round; stroke-linejoin:round; stroke-width:8; stroke-opacity:1; fill:none" points="1488.96,1664.12 1488.96,1667.17 1533.09,1667.17 1533.09,1664.12 1488.96,1664.12 "/>
<path clip-path="url(#clip892)" d="M1533.09 1664.12 L1533.09 1667.17 L1577.22 1667.17 L1577.22 1664.12 L1533.09 1664.12 L1533.09 1664.12  Z" fill="#009af9" fill-rule="evenodd" fill-opacity="1"/>
<polyline clip-path="url(#clip892)" style="stroke:#000000; stroke-linecap:round; stroke-linejoin:round; stroke-width:8; stroke-opacity:1; fill:none" points="1533.09,1664.12 1533.09,1667.17 1577.22,1667.17 1577.22,1664.12 1533.09,1664.12 "/>
<path clip-path="url(#clip892)" d="M1577.22 1667.17 L1577.22 1667.17 L1621.35 1667.17 L1621.35 1667.17 L1577.22 1667.17 L1577.22 1667.17  Z" fill="#009af9" fill-rule="evenodd" fill-opacity="1"/>
<polyline clip-path="url(#clip892)" style="stroke:#000000; stroke-linecap:round; stroke-linejoin:round; stroke-width:8; stroke-opacity:1; fill:none" points="1577.22,1667.17 1577.22,1667.17 1621.35,1667.17 1577.22,1667.17 "/>
<path clip-path="url(#clip892)" d="M1621.35 1664.12 L1621.35 1667.17 L1665.48 1667.17 L1665.48 1664.12 L1621.35 1664.12 L1621.35 1664.12  Z" fill="#009af9" fill-rule="evenodd" fill-opacity="1"/>
<polyline clip-path="url(#clip892)" style="stroke:#000000; stroke-linecap:round; stroke-linejoin:round; stroke-width:8; stroke-opacity:1; fill:none" points="1621.35,1664.12 1621.35,1667.17 1665.48,1667.17 1665.48,1664.12 1621.35,1664.12 "/>
<circle clip-path="url(#clip892)" style="fill:#009af9; stroke:none; fill-opacity:0" cx="275.354" cy="1664.12" r="2"/>
<circle clip-path="url(#clip892)" style="fill:#009af9; stroke:none; fill-opacity:0" cx="319.485" cy="1664.12" r="2"/>
<circle clip-path="url(#clip892)" style="fill:#009af9; stroke:none; fill-opacity:0" cx="363.616" cy="1654.99" r="2"/>
<circle clip-path="url(#clip892)" style="fill:#009af9; stroke:none; fill-opacity:0" cx="407.747" cy="1636.72" r="2"/>
<circle clip-path="url(#clip892)" style="fill:#009af9; stroke:none; fill-opacity:0" cx="451.878" cy="1612.35" r="2"/>
<circle clip-path="url(#clip892)" style="fill:#009af9; stroke:none; fill-opacity:0" cx="496.009" cy="1581.9" r="2"/>
<circle clip-path="url(#clip892)" style="fill:#009af9; stroke:none; fill-opacity:0" cx="540.14" cy="1533.18" r="2"/>
<circle clip-path="url(#clip892)" style="fill:#009af9; stroke:none; fill-opacity:0" cx="584.271" cy="1368.74" r="2"/>
<circle clip-path="url(#clip892)" style="fill:#009af9; stroke:none; fill-opacity:0" cx="628.402" cy="1219.53" r="2"/>
<circle clip-path="url(#clip892)" style="fill:#009af9; stroke:none; fill-opacity:0" cx="672.533" cy="1009.41" r="2"/>
<circle clip-path="url(#clip892)" style="fill:#009af9; stroke:none; fill-opacity:0" cx="716.665" cy="860.194" r="2"/>
<circle clip-path="url(#clip892)" style="fill:#009af9; stroke:none; fill-opacity:0" cx="760.796" cy="452.14" r="2"/>
<circle clip-path="url(#clip892)" style="fill:#009af9; stroke:none; fill-opacity:0" cx="804.927" cy="336.423" r="2"/>
<circle clip-path="url(#clip892)" style="fill:#009af9; stroke:none; fill-opacity:0" cx="849.058" cy="245.068" r="2"/>
<circle clip-path="url(#clip892)" style="fill:#009af9; stroke:none; fill-opacity:0" cx="893.189" cy="299.881" r="2"/>
<circle clip-path="url(#clip892)" style="fill:#009af9; stroke:none; fill-opacity:0" cx="937.32" cy="153.712" r="2"/>
<circle clip-path="url(#clip892)" style="fill:#009af9; stroke:none; fill-opacity:0" cx="981.451" cy="330.333" r="2"/>
<circle clip-path="url(#clip892)" style="fill:#009af9; stroke:none; fill-opacity:0" cx="1025.58" cy="412.553" r="2"/>
<circle clip-path="url(#clip892)" style="fill:#009af9; stroke:none; fill-opacity:0" cx="1069.71" cy="616.58" r="2"/>
<circle clip-path="url(#clip892)" style="fill:#009af9; stroke:none; fill-opacity:0" cx="1113.84" cy="975.911" r="2"/>
<circle clip-path="url(#clip892)" style="fill:#009af9; stroke:none; fill-opacity:0" cx="1157.98" cy="1067.27" r="2"/>
<circle clip-path="url(#clip892)" style="fill:#009af9; stroke:none; fill-opacity:0" cx="1202.11" cy="1289.57" r="2"/>
<circle clip-path="url(#clip892)" style="fill:#009af9; stroke:none; fill-opacity:0" cx="1246.24" cy="1438.78" r="2"/>
<circle clip-path="url(#clip892)" style="fill:#009af9; stroke:none; fill-opacity:0" cx="1290.37" cy="1524.04" r="2"/>
<circle clip-path="url(#clip892)" style="fill:#009af9; stroke:none; fill-opacity:0" cx="1334.5" cy="1572.77" r="2"/>
<circle clip-path="url(#clip892)" style="fill:#009af9; stroke:none; fill-opacity:0" cx="1378.63" cy="1648.9" r="2"/>
<circle clip-path="url(#clip892)" style="fill:#009af9; stroke:none; fill-opacity:0" cx="1422.76" cy="1645.85" r="2"/>
<circle clip-path="url(#clip892)" style="fill:#009af9; stroke:none; fill-opacity:0" cx="1466.89" cy="1648.9" r="2"/>
<circle clip-path="url(#clip892)" style="fill:#009af9; stroke:none; fill-opacity:0" cx="1511.02" cy="1664.12" r="2"/>
<circle clip-path="url(#clip892)" style="fill:#009af9; stroke:none; fill-opacity:0" cx="1555.15" cy="1664.12" r="2"/>
<circle clip-path="url(#clip892)" style="fill:#009af9; stroke:none; fill-opacity:0" cx="1599.29" cy="1667.17" r="2"/>
<circle clip-path="url(#clip892)" style="fill:#009af9; stroke:none; fill-opacity:0" cx="1643.42" cy="1664.12" r="2"/>
<polyline clip-path="url(#clip892)" style="stroke:#e26f46; stroke-linecap:round; stroke-linejoin:round; stroke-width:8; stroke-opacity:1; fill:none" points="881.56,3180.62 881.56,-1359.74 "/>
</svg>
