<?xml version="1.0" encoding="utf-8"?>
<svg xmlns="http://www.w3.org/2000/svg" xmlns:xlink="http://www.w3.org/1999/xlink" width="450" height="450" viewBox="0 0 1800 1800">
<defs>
  <clipPath id="clip830">
    <rect x="0" y="0" width="1800" height="1800"/>
  </clipPath>
</defs>
<path clip-path="url(#clip830)" d="M0 1800 L1800 1800 L1800 0 L0 0  Z" fill="#ffffff" fill-rule="evenodd" fill-opacity="1"/>
<defs>
  <clipPath id="clip831">
    <rect x="360" y="180" width="1261" height="1261"/>
  </clipPath>
</defs>
<path clip-path="url(#clip830)" d="M164.857 1667.17 L1752.76 1667.17 L1752.76 153.712 L164.857 153.712  Z" fill="#ffffff" fill-rule="evenodd" fill-opacity="1"/>
<defs>
  <clipPath id="clip832">
    <rect x="164" y="153" width="1589" height="1514"/>
  </clipPath>
</defs>
<polyline clip-path="url(#clip832)" style="stroke:#000000; stroke-linecap:round; stroke-linejoin:round; stroke-width:2; stroke-opacity:0.1; fill:none" points="383.657,1667.17 383.657,153.712 "/>
<polyline clip-path="url(#clip832)" style="stroke:#000000; stroke-linecap:round; stroke-linejoin:round; stroke-width:2; stroke-opacity:0.1; fill:none" points="712.314,1667.17 712.314,153.712 "/>
<polyline clip-path="url(#clip832)" style="stroke:#000000; stroke-linecap:round; stroke-linejoin:round; stroke-width:2; stroke-opacity:0.1; fill:none" points="1040.97,1667.17 1040.97,153.712 "/>
<polyline clip-path="url(#clip832)" style="stroke:#000000; stroke-linecap:round; stroke-linejoin:round; stroke-width:2; stroke-opacity:0.1; fill:none" points="1369.63,1667.17 1369.63,153.712 "/>
<polyline clip-path="url(#clip832)" style="stroke:#000000; stroke-linecap:round; stroke-linejoin:round; stroke-width:2; stroke-opacity:0.1; fill:none" points="1698.28,1667.17 1698.28,153.712 "/>
<polyline clip-path="url(#clip832)" style="stroke:#000000; stroke-linecap:round; stroke-linejoin:round; stroke-width:2; stroke-opacity:0.1; fill:none" points="164.857,1667.17 1752.76,1667.17 "/>
<polyline clip-path="url(#clip832)" style="stroke:#000000; stroke-linecap:round; stroke-linejoin:round; stroke-width:2; stroke-opacity:0.1; fill:none" points="164.857,1412.38 1752.76,1412.38 "/>
<polyline clip-path="url(#clip832)" style="stroke:#000000; stroke-linecap:round; stroke-linejoin:round; stroke-width:2; stroke-opacity:0.1; fill:none" points="164.857,1157.59 1752.76,1157.59 "/>
<polyline clip-path="url(#clip832)" style="stroke:#000000; stroke-linecap:round; stroke-linejoin:round; stroke-width:2; stroke-opacity:0.1; fill:none" points="164.857,902.796 1752.76,902.796 "/>
<polyline clip-path="url(#clip832)" style="stroke:#000000; stroke-linecap:round; stroke-linejoin:round; stroke-width:2; stroke-opacity:0.1; fill:none" points="164.857,648.006 1752.76,648.006 "/>
<polyline clip-path="url(#clip832)" style="stroke:#000000; stroke-linecap:round; stroke-linejoin:round; stroke-width:2; stroke-opacity:0.1; fill:none" points="164.857,393.215 1752.76,393.215 "/>
<polyline clip-path="url(#clip830)" style="stroke:#000000; stroke-linecap:round; stroke-linejoin:round; stroke-width:4; stroke-opacity:1; fill:none" points="164.857,1667.17 1752.76,1667.17 "/>
<polyline clip-path="url(#clip830)" style="stroke:#000000; stroke-linecap:round; stroke-linejoin:round; stroke-width:4; stroke-opacity:1; fill:none" points="383.657,1667.17 383.657,1648.27 "/>
<polyline clip-path="url(#clip830)" style="stroke:#000000; stroke-linecap:round; stroke-linejoin:round; stroke-width:4; stroke-opacity:1; fill:none" points="712.314,1667.17 712.314,1648.27 "/>
<polyline clip-path="url(#clip830)" style="stroke:#000000; stroke-linecap:round; stroke-linejoin:round; stroke-width:4; stroke-opacity:1; fill:none" points="1040.97,1667.17 1040.97,1648.27 "/>
<polyline clip-path="url(#clip830)" style="stroke:#000000; stroke-linecap:round; stroke-linejoin:round; stroke-width:4; stroke-opacity:1; fill:none" points="1369.63,1667.17 1369.63,1648.27 "/>
<polyline clip-path="url(#clip830)" style="stroke:#000000; stroke-linecap:round; stroke-linejoin:round; stroke-width:4; stroke-opacity:1; fill:none" points="1698.28,1667.17 1698.28,1648.27 "/>
<path clip-path="url(#clip830)" d="M361.84 1693.29 Q358.229 1693.29 356.401 1696.85 Q354.595 1700.39 354.595 1707.52 Q354.595 1714.63 356.401 1718.19 Q358.229 1721.74 361.84 1721.74 Q365.475 1721.74 367.28 1718.19 Q369.109 1714.63 369.109 1707.52 Q369.109 1700.39 367.28 1696.85 Q365.475 1693.29 361.84 1693.29 M361.84 1689.58 Q367.65 1689.58 370.706 1694.19 Q373.785 1698.77 373.785 1707.52 Q373.785 1716.25 370.706 1720.86 Q367.65 1725.44 361.84 1725.44 Q356.03 1725.44 352.952 1720.86 Q349.896 1716.25 349.896 1707.52 Q349.896 1698.77 352.952 1694.19 Q356.03 1689.58 361.84 1689.58 Z" fill="#000000" fill-rule="nonzero" fill-opacity="1" /><path clip-path="url(#clip830)" d="M382.002 1718.89 L386.887 1718.89 L386.887 1724.77 L382.002 1724.77 L382.002 1718.89 Z" fill="#000000" fill-rule="nonzero" fill-opacity="1" /><path clip-path="url(#clip830)" d="M401.099 1720.83 L417.419 1720.83 L417.419 1724.77 L395.474 1724.77 L395.474 1720.83 Q398.136 1718.08 402.72 1713.45 Q407.326 1708.8 408.507 1707.45 Q410.752 1704.93 411.632 1703.19 Q412.535 1701.43 412.535 1699.74 Q412.535 1696.99 410.59 1695.25 Q408.669 1693.52 405.567 1693.52 Q403.368 1693.52 400.914 1694.28 Q398.484 1695.05 395.706 1696.6 L395.706 1691.87 Q398.53 1690.74 400.984 1690.16 Q403.437 1689.58 405.474 1689.58 Q410.845 1689.58 414.039 1692.27 Q417.234 1694.95 417.234 1699.44 Q417.234 1701.57 416.423 1703.49 Q415.636 1705.39 413.53 1707.99 Q412.951 1708.66 409.849 1711.87 Q406.748 1715.07 401.099 1720.83 Z" fill="#000000" fill-rule="nonzero" fill-opacity="1" /><path clip-path="url(#clip830)" d="M689.455 1693.29 Q685.844 1693.29 684.016 1696.85 Q682.21 1700.39 682.21 1707.52 Q682.21 1714.63 684.016 1718.19 Q685.844 1721.74 689.455 1721.74 Q693.09 1721.74 694.895 1718.19 Q696.724 1714.63 696.724 1707.52 Q696.724 1700.39 694.895 1696.85 Q693.09 1693.29 689.455 1693.29 M689.455 1689.58 Q695.266 1689.58 698.321 1694.19 Q701.4 1698.77 701.4 1707.52 Q701.4 1716.25 698.321 1720.86 Q695.266 1725.44 689.455 1725.44 Q683.645 1725.44 680.567 1720.86 Q677.511 1716.25 677.511 1707.52 Q677.511 1698.77 680.567 1694.19 Q683.645 1689.58 689.455 1689.58 Z" fill="#000000" fill-rule="nonzero" fill-opacity="1" /><path clip-path="url(#clip830)" d="M709.617 1718.89 L714.502 1718.89 L714.502 1724.77 L709.617 1724.77 L709.617 1718.89 Z" fill="#000000" fill-rule="nonzero" fill-opacity="1" /><path clip-path="url(#clip830)" d="M737.534 1694.28 L725.728 1712.73 L737.534 1712.73 L737.534 1694.28 M736.307 1690.21 L742.187 1690.21 L742.187 1712.73 L747.117 1712.73 L747.117 1716.62 L742.187 1716.62 L742.187 1724.77 L737.534 1724.77 L737.534 1716.62 L721.932 1716.62 L721.932 1712.11 L736.307 1690.21 Z" fill="#000000" fill-rule="nonzero" fill-opacity="1" /><path clip-path="url(#clip830)" d="M1018.27 1693.29 Q1014.66 1693.29 1012.83 1696.85 Q1011.03 1700.39 1011.03 1707.52 Q1011.03 1714.63 1012.83 1718.19 Q1014.66 1721.74 1018.27 1721.74 Q1021.91 1721.74 1023.71 1718.19 Q1025.54 1714.63 1025.54 1707.52 Q1025.54 1700.39 1023.71 1696.85 Q1021.91 1693.29 1018.27 1693.29 M1018.27 1689.58 Q1024.08 1689.58 1027.14 1694.19 Q1030.22 1698.77 1030.22 1707.52 Q1030.22 1716.25 1027.14 1720.86 Q1024.08 1725.44 1018.27 1725.44 Q1012.46 1725.44 1009.39 1720.86 Q1006.33 1716.25 1006.33 1707.52 Q1006.33 1698.77 1009.39 1694.19 Q1012.46 1689.58 1018.27 1689.58 Z" fill="#000000" fill-rule="nonzero" fill-opacity="1" /><path clip-path="url(#clip830)" d="M1038.44 1718.89 L1043.32 1718.89 L1043.32 1724.77 L1038.44 1724.77 L1038.44 1718.89 Z" fill="#000000" fill-rule="nonzero" fill-opacity="1" /><path clip-path="url(#clip830)" d="M1064.08 1705.62 Q1060.94 1705.62 1059.08 1707.78 Q1057.26 1709.93 1057.26 1713.68 Q1057.26 1717.41 1059.08 1719.58 Q1060.94 1721.74 1064.08 1721.74 Q1067.23 1721.74 1069.06 1719.58 Q1070.91 1717.41 1070.91 1713.68 Q1070.91 1709.93 1069.06 1707.78 Q1067.23 1705.62 1064.08 1705.62 M1073.37 1690.97 L1073.37 1695.23 Q1071.61 1694.4 1069.8 1693.96 Q1068.02 1693.52 1066.26 1693.52 Q1061.63 1693.52 1059.18 1696.64 Q1056.75 1699.77 1056.4 1706.09 Q1057.76 1704.07 1059.82 1703.01 Q1061.89 1701.92 1064.36 1701.92 Q1069.57 1701.92 1072.58 1705.09 Q1075.61 1708.24 1075.61 1713.68 Q1075.61 1719 1072.46 1722.22 Q1069.32 1725.44 1064.08 1725.44 Q1058.09 1725.44 1054.92 1720.86 Q1051.75 1716.25 1051.75 1707.52 Q1051.75 1699.33 1055.64 1694.47 Q1059.52 1689.58 1066.07 1689.58 Q1067.83 1689.58 1069.62 1689.93 Q1071.42 1690.28 1073.37 1690.97 Z" fill="#000000" fill-rule="nonzero" fill-opacity="1" /><path clip-path="url(#clip830)" d="M1347.06 1693.29 Q1343.45 1693.29 1341.62 1696.85 Q1339.81 1700.39 1339.81 1707.52 Q1339.81 1714.63 1341.62 1718.19 Q1343.45 1721.74 1347.06 1721.74 Q1350.69 1721.74 1352.5 1718.19 Q1354.33 1714.63 1354.33 1707.52 Q1354.33 1700.39 1352.5 1696.85 Q1350.69 1693.29 1347.06 1693.29 M1347.06 1689.58 Q1352.87 1689.58 1355.92 1694.19 Q1359 1698.77 1359 1707.52 Q1359 1716.25 1355.92 1720.86 Q1352.87 1725.44 1347.06 1725.44 Q1341.25 1725.44 1338.17 1720.86 Q1335.11 1716.25 1335.11 1707.52 Q1335.11 1698.77 1338.17 1694.19 Q1341.25 1689.58 1347.06 1689.58 Z" fill="#000000" fill-rule="nonzero" fill-opacity="1" /><path clip-path="url(#clip830)" d="M1367.22 1718.89 L1372.1 1718.89 L1372.1 1724.77 L1367.22 1724.77 L1367.22 1718.89 Z" fill="#000000" fill-rule="nonzero" fill-opacity="1" /><path clip-path="url(#clip830)" d="M1392.29 1708.36 Q1388.96 1708.36 1387.03 1710.14 Q1385.14 1711.92 1385.14 1715.05 Q1385.14 1718.17 1387.03 1719.95 Q1388.96 1721.74 1392.29 1721.74 Q1395.62 1721.74 1397.54 1719.95 Q1399.47 1718.15 1399.47 1715.05 Q1399.47 1711.92 1397.54 1710.14 Q1395.65 1708.36 1392.29 1708.36 M1387.61 1706.37 Q1384.6 1705.62 1382.91 1703.56 Q1381.25 1701.5 1381.25 1698.54 Q1381.25 1694.4 1384.19 1691.99 Q1387.15 1689.58 1392.29 1689.58 Q1397.45 1689.58 1400.39 1691.99 Q1403.33 1694.4 1403.33 1698.54 Q1403.33 1701.5 1401.64 1703.56 Q1399.97 1705.62 1396.99 1706.37 Q1400.37 1707.15 1402.24 1709.44 Q1404.14 1711.74 1404.14 1715.05 Q1404.14 1720.07 1401.06 1722.75 Q1398.01 1725.44 1392.29 1725.44 Q1386.57 1725.44 1383.49 1722.75 Q1380.44 1720.07 1380.44 1715.05 Q1380.44 1711.74 1382.34 1709.44 Q1384.23 1707.15 1387.61 1706.37 M1385.9 1698.98 Q1385.9 1701.67 1387.57 1703.17 Q1389.26 1704.68 1392.29 1704.68 Q1395.3 1704.68 1396.99 1703.17 Q1398.7 1701.67 1398.7 1698.98 Q1398.7 1696.3 1396.99 1694.79 Q1395.3 1693.29 1392.29 1693.29 Q1389.26 1693.29 1387.57 1694.79 Q1385.9 1696.3 1385.9 1698.98 Z" fill="#000000" fill-rule="nonzero" fill-opacity="1" /><path clip-path="url(#clip830)" d="M1665.44 1720.83 L1673.08 1720.83 L1673.08 1694.47 L1664.77 1696.13 L1664.77 1691.87 L1673.03 1690.21 L1677.71 1690.21 L1677.71 1720.83 L1685.34 1720.83 L1685.34 1724.77 L1665.44 1724.77 L1665.44 1720.83 Z" fill="#000000" fill-rule="nonzero" fill-opacity="1" /><path clip-path="url(#clip830)" d="M1694.79 1718.89 L1699.67 1718.89 L1699.67 1724.77 L1694.79 1724.77 L1694.79 1718.89 Z" fill="#000000" fill-rule="nonzero" fill-opacity="1" /><path clip-path="url(#clip830)" d="M1719.86 1693.29 Q1716.25 1693.29 1714.42 1696.85 Q1712.61 1700.39 1712.61 1707.52 Q1712.61 1714.63 1714.42 1718.19 Q1716.25 1721.74 1719.86 1721.74 Q1723.49 1721.74 1725.3 1718.19 Q1727.13 1714.63 1727.13 1707.52 Q1727.13 1700.39 1725.3 1696.85 Q1723.49 1693.29 1719.86 1693.29 M1719.86 1689.58 Q1725.67 1689.58 1728.72 1694.19 Q1731.8 1698.77 1731.8 1707.52 Q1731.8 1716.25 1728.72 1720.86 Q1725.67 1725.44 1719.86 1725.44 Q1714.05 1725.44 1710.97 1720.86 Q1707.91 1716.25 1707.91 1707.52 Q1707.91 1698.77 1710.97 1694.19 Q1714.05 1689.58 1719.86 1689.58 Z" fill="#000000" fill-rule="nonzero" fill-opacity="1" /><polyline clip-path="url(#clip830)" style="stroke:#000000; stroke-linecap:round; stroke-linejoin:round; stroke-width:4; stroke-opacity:1; fill:none" points="164.857,1667.17 164.857,153.712 "/>
<polyline clip-path="url(#clip830)" style="stroke:#000000; stroke-linecap:round; stroke-linejoin:round; stroke-width:4; stroke-opacity:1; fill:none" points="164.857,1667.17 183.755,1667.17 "/>
<polyline clip-path="url(#clip830)" style="stroke:#000000; stroke-linecap:round; stroke-linejoin:round; stroke-width:4; stroke-opacity:1; fill:none" points="164.857,1412.38 183.755,1412.38 "/>
<polyline clip-path="url(#clip830)" style="stroke:#000000; stroke-linecap:round; stroke-linejoin:round; stroke-width:4; stroke-opacity:1; fill:none" points="164.857,1157.59 183.755,1157.59 "/>
<polyline clip-path="url(#clip830)" style="stroke:#000000; stroke-linecap:round; stroke-linejoin:round; stroke-width:4; stroke-opacity:1; fill:none" points="164.857,902.796 183.755,902.796 "/>
<polyline clip-path="url(#clip830)" style="stroke:#000000; stroke-linecap:round; stroke-linejoin:round; stroke-width:4; stroke-opacity:1; fill:none" points="164.857,648.006 183.755,648.006 "/>
<polyline clip-path="url(#clip830)" style="stroke:#000000; stroke-linecap:round; stroke-linejoin:round; stroke-width:4; stroke-opacity:1; fill:none" points="164.857,393.215 183.755,393.215 "/>
<path clip-path="url(#clip830)" d="M125.913 1652.97 Q122.302 1652.97 120.473 1656.53 Q118.668 1660.07 118.668 1667.2 Q118.668 1674.31 120.473 1677.87 Q122.302 1681.42 125.913 1681.42 Q129.547 1681.42 131.353 1677.87 Q133.182 1674.31 133.182 1667.2 Q133.182 1660.07 131.353 1656.53 Q129.547 1652.97 125.913 1652.97 M125.913 1649.26 Q131.723 1649.26 134.779 1653.87 Q137.857 1658.45 137.857 1667.2 Q137.857 1675.93 134.779 1680.54 Q131.723 1685.12 125.913 1685.12 Q120.103 1685.12 117.024 1680.54 Q113.969 1675.93 113.969 1667.2 Q113.969 1658.45 117.024 1653.87 Q120.103 1649.26 125.913 1649.26 Z" fill="#000000" fill-rule="nonzero" fill-opacity="1" /><path clip-path="url(#clip830)" d="M85.7975 1395.1 L104.154 1395.1 L104.154 1399.03 L90.0799 1399.03 L90.0799 1407.5 Q91.0984 1407.16 92.1169 1407 Q93.1354 1406.81 94.1539 1406.81 Q99.941 1406.81 103.321 1409.98 Q106.7 1413.15 106.7 1418.57 Q106.7 1424.15 103.228 1427.25 Q99.7558 1430.33 93.4364 1430.33 Q91.2604 1430.33 88.9919 1429.96 Q86.7466 1429.59 84.3392 1428.85 L84.3392 1424.15 Q86.4225 1425.28 88.6447 1425.84 Q90.8669 1426.39 93.3438 1426.39 Q97.3484 1426.39 99.6863 1424.29 Q102.024 1422.18 102.024 1418.57 Q102.024 1414.96 99.6863 1412.85 Q97.3484 1410.75 93.3438 1410.75 Q91.4688 1410.75 89.5938 1411.16 Q87.7419 1411.58 85.7975 1412.46 L85.7975 1395.1 Z" fill="#000000" fill-rule="nonzero" fill-opacity="1" /><path clip-path="url(#clip830)" d="M125.913 1398.18 Q122.302 1398.18 120.473 1401.74 Q118.668 1405.28 118.668 1412.41 Q118.668 1419.52 120.473 1423.08 Q122.302 1426.62 125.913 1426.62 Q129.547 1426.62 131.353 1423.08 Q133.182 1419.52 133.182 1412.41 Q133.182 1405.28 131.353 1401.74 Q129.547 1398.18 125.913 1398.18 M125.913 1394.47 Q131.723 1394.47 134.779 1399.08 Q137.857 1403.66 137.857 1412.41 Q137.857 1421.14 134.779 1425.75 Q131.723 1430.33 125.913 1430.33 Q120.103 1430.33 117.024 1425.75 Q113.969 1421.14 113.969 1412.41 Q113.969 1403.66 117.024 1399.08 Q120.103 1394.47 125.913 1394.47 Z" fill="#000000" fill-rule="nonzero" fill-opacity="1" /><path clip-path="url(#clip830)" d="M56.3995 1170.93 L64.0384 1170.93 L64.0384 1144.57 L55.7282 1146.23 L55.7282 1141.97 L63.9921 1140.31 L68.668 1140.31 L68.668 1170.93 L76.3068 1170.93 L76.3068 1174.87 L56.3995 1174.87 L56.3995 1170.93 Z" fill="#000000" fill-rule="nonzero" fill-opacity="1" /><path clip-path="url(#clip830)" d="M95.7512 1143.39 Q92.1401 1143.39 90.3114 1146.95 Q88.5058 1150.49 88.5058 1157.62 Q88.5058 1164.73 90.3114 1168.29 Q92.1401 1171.83 95.7512 1171.83 Q99.3854 1171.83 101.191 1168.29 Q103.02 1164.73 103.02 1157.62 Q103.02 1150.49 101.191 1146.95 Q99.3854 1143.39 95.7512 1143.39 M95.7512 1139.68 Q101.561 1139.68 104.617 1144.29 Q107.696 1148.87 107.696 1157.62 Q107.696 1166.35 104.617 1170.95 Q101.561 1175.54 95.7512 1175.54 Q89.941 1175.54 86.8623 1170.95 Q83.8068 1166.35 83.8068 1157.62 Q83.8068 1148.87 86.8623 1144.29 Q89.941 1139.68 95.7512 1139.68 Z" fill="#000000" fill-rule="nonzero" fill-opacity="1" /><path clip-path="url(#clip830)" d="M125.913 1143.39 Q122.302 1143.39 120.473 1146.95 Q118.668 1150.49 118.668 1157.62 Q118.668 1164.73 120.473 1168.29 Q122.302 1171.83 125.913 1171.83 Q129.547 1171.83 131.353 1168.29 Q133.182 1164.73 133.182 1157.62 Q133.182 1150.49 131.353 1146.95 Q129.547 1143.39 125.913 1143.39 M125.913 1139.68 Q131.723 1139.68 134.779 1144.29 Q137.857 1148.87 137.857 1157.62 Q137.857 1166.35 134.779 1170.95 Q131.723 1175.54 125.913 1175.54 Q120.103 1175.54 117.024 1170.95 Q113.969 1166.35 113.969 1157.62 Q113.969 1148.87 117.024 1144.29 Q120.103 1139.68 125.913 1139.68 Z" fill="#000000" fill-rule="nonzero" fill-opacity="1" /><path clip-path="url(#clip830)" d="M56.3995 916.141 L64.0384 916.141 L64.0384 889.776 L55.7282 891.442 L55.7282 887.183 L63.9921 885.516 L68.668 885.516 L68.668 916.141 L76.3068 916.141 L76.3068 920.076 L56.3995 920.076 L56.3995 916.141 Z" fill="#000000" fill-rule="nonzero" fill-opacity="1" /><path clip-path="url(#clip830)" d="M85.7975 885.516 L104.154 885.516 L104.154 889.451 L90.0799 889.451 L90.0799 897.924 Q91.0984 897.576 92.1169 897.414 Q93.1354 897.229 94.1539 897.229 Q99.941 897.229 103.321 900.4 Q106.7 903.572 106.7 908.988 Q106.7 914.567 103.228 917.669 Q99.7558 920.748 93.4364 920.748 Q91.2604 920.748 88.9919 920.377 Q86.7466 920.007 84.3392 919.266 L84.3392 914.567 Q86.4225 915.701 88.6447 916.257 Q90.8669 916.812 93.3438 916.812 Q97.3484 916.812 99.6863 914.706 Q102.024 912.599 102.024 908.988 Q102.024 905.377 99.6863 903.271 Q97.3484 901.164 93.3438 901.164 Q91.4688 901.164 89.5938 901.581 Q87.7419 901.998 85.7975 902.877 L85.7975 885.516 Z" fill="#000000" fill-rule="nonzero" fill-opacity="1" /><path clip-path="url(#clip830)" d="M125.913 888.595 Q122.302 888.595 120.473 892.16 Q118.668 895.701 118.668 902.831 Q118.668 909.937 120.473 913.502 Q122.302 917.044 125.913 917.044 Q129.547 917.044 131.353 913.502 Q133.182 909.937 133.182 902.831 Q133.182 895.701 131.353 892.16 Q129.547 888.595 125.913 888.595 M125.913 884.891 Q131.723 884.891 134.779 889.498 Q137.857 894.081 137.857 902.831 Q137.857 911.558 134.779 916.164 Q131.723 920.748 125.913 920.748 Q120.103 920.748 117.024 916.164 Q113.969 911.558 113.969 902.831 Q113.969 894.081 117.024 889.498 Q120.103 884.891 125.913 884.891 Z" fill="#000000" fill-rule="nonzero" fill-opacity="1" /><path clip-path="url(#clip830)" d="M59.6171 661.351 L75.9365 661.351 L75.9365 665.286 L53.9921 665.286 L53.9921 661.351 Q56.6541 658.596 61.2375 653.966 Q65.8439 649.314 67.0245 647.971 Q69.2698 645.448 70.1494 643.712 Q71.0522 641.953 71.0522 640.263 Q71.0522 637.508 69.1078 635.772 Q67.1865 634.036 64.0847 634.036 Q61.8856 634.036 59.4319 634.8 Q57.0014 635.564 54.2236 637.115 L54.2236 632.392 Q57.0477 631.258 59.5014 630.679 Q61.955 630.101 63.9921 630.101 Q69.3624 630.101 72.5568 632.786 Q75.7513 635.471 75.7513 639.962 Q75.7513 642.091 74.9411 644.013 Q74.1541 645.911 72.0476 648.503 Q71.4689 649.175 68.367 652.392 Q65.2652 655.587 59.6171 661.351 Z" fill="#000000" fill-rule="nonzero" fill-opacity="1" /><path clip-path="url(#clip830)" d="M95.7512 633.804 Q92.1401 633.804 90.3114 637.369 Q88.5058 640.911 88.5058 648.04 Q88.5058 655.147 90.3114 658.712 Q92.1401 662.253 95.7512 662.253 Q99.3854 662.253 101.191 658.712 Q103.02 655.147 103.02 648.04 Q103.02 640.911 101.191 637.369 Q99.3854 633.804 95.7512 633.804 M95.7512 630.101 Q101.561 630.101 104.617 634.707 Q107.696 639.291 107.696 648.04 Q107.696 656.767 104.617 661.374 Q101.561 665.957 95.7512 665.957 Q89.941 665.957 86.8623 661.374 Q83.8068 656.767 83.8068 648.04 Q83.8068 639.291 86.8623 634.707 Q89.941 630.101 95.7512 630.101 Z" fill="#000000" fill-rule="nonzero" fill-opacity="1" /><path clip-path="url(#clip830)" d="M125.913 633.804 Q122.302 633.804 120.473 637.369 Q118.668 640.911 118.668 648.04 Q118.668 655.147 120.473 658.712 Q122.302 662.253 125.913 662.253 Q129.547 662.253 131.353 658.712 Q133.182 655.147 133.182 648.04 Q133.182 640.911 131.353 637.369 Q129.547 633.804 125.913 633.804 M125.913 630.101 Q131.723 630.101 134.779 634.707 Q137.857 639.291 137.857 648.04 Q137.857 656.767 134.779 661.374 Q131.723 665.957 125.913 665.957 Q120.103 665.957 117.024 661.374 Q113.969 656.767 113.969 648.04 Q113.969 639.291 117.024 634.707 Q120.103 630.101 125.913 630.101 Z" fill="#000000" fill-rule="nonzero" fill-opacity="1" /><path clip-path="url(#clip830)" d="M59.6171 406.56 L75.9365 406.56 L75.9365 410.495 L53.9921 410.495 L53.9921 406.56 Q56.6541 403.805 61.2375 399.176 Q65.8439 394.523 67.0245 393.181 Q69.2698 390.657 70.1494 388.921 Q71.0522 387.162 71.0522 385.472 Q71.0522 382.718 69.1078 380.981 Q67.1865 379.245 64.0847 379.245 Q61.8856 379.245 59.4319 380.009 Q57.0014 380.773 54.2236 382.324 L54.2236 377.602 Q57.0477 376.468 59.5014 375.889 Q61.955 375.31 63.9921 375.31 Q69.3624 375.31 72.5568 377.995 Q75.7513 380.681 75.7513 385.171 Q75.7513 387.301 74.9411 389.222 Q74.1541 391.12 72.0476 393.713 Q71.4689 394.384 68.367 397.602 Q65.2652 400.796 59.6171 406.56 Z" fill="#000000" fill-rule="nonzero" fill-opacity="1" /><path clip-path="url(#clip830)" d="M85.7975 375.935 L104.154 375.935 L104.154 379.87 L90.0799 379.87 L90.0799 388.343 Q91.0984 387.995 92.1169 387.833 Q93.1354 387.648 94.1539 387.648 Q99.941 387.648 103.321 390.819 Q106.7 393.991 106.7 399.407 Q106.7 404.986 103.228 408.088 Q99.7558 411.167 93.4364 411.167 Q91.2604 411.167 88.9919 410.796 Q86.7466 410.426 84.3392 409.685 L84.3392 404.986 Q86.4225 406.12 88.6447 406.676 Q90.8669 407.231 93.3438 407.231 Q97.3484 407.231 99.6863 405.125 Q102.024 403.018 102.024 399.407 Q102.024 395.796 99.6863 393.69 Q97.3484 391.583 93.3438 391.583 Q91.4688 391.583 89.5938 392 Q87.7419 392.417 85.7975 393.296 L85.7975 375.935 Z" fill="#000000" fill-rule="nonzero" fill-opacity="1" /><path clip-path="url(#clip830)" d="M125.913 379.014 Q122.302 379.014 120.473 382.579 Q118.668 386.12 118.668 393.25 Q118.668 400.356 120.473 403.921 Q122.302 407.463 125.913 407.463 Q129.547 407.463 131.353 403.921 Q133.182 400.356 133.182 393.25 Q133.182 386.12 131.353 382.579 Q129.547 379.014 125.913 379.014 M125.913 375.31 Q131.723 375.31 134.779 379.917 Q137.857 384.5 137.857 393.25 Q137.857 401.977 134.779 406.583 Q131.723 411.167 125.913 411.167 Q120.103 411.167 117.024 406.583 Q113.969 401.977 113.969 393.25 Q113.969 384.5 117.024 379.917 Q120.103 375.31 125.913 375.31 Z" fill="#000000" fill-rule="nonzero" fill-opacity="1" /><path clip-path="url(#clip830)" d="M639.008 18.8205 L639.008 41.5461 L649.297 41.5461 Q655.009 41.5461 658.128 38.5889 Q661.247 35.6318 661.247 30.163 Q661.247 24.7348 658.128 21.7777 Q655.009 18.8205 649.297 18.8205 L639.008 18.8205 M630.825 12.096 L649.297 12.096 Q659.465 12.096 664.65 16.714 Q669.876 21.2916 669.876 30.163 Q669.876 39.1155 664.65 43.6931 Q659.465 48.2706 649.297 48.2706 L639.008 48.2706 L639.008 72.576 L630.825 72.576 L630.825 12.096 Z" fill="#000000" fill-rule="nonzero" fill-opacity="1" /><path clip-path="url(#clip830)" d="M705.362 34.1734 Q704.106 33.4443 702.607 33.1202 Q701.149 32.7556 699.367 32.7556 Q693.047 32.7556 689.644 36.8875 Q686.282 40.9789 686.282 48.6757 L686.282 72.576 L678.788 72.576 L678.788 27.2059 L686.282 27.2059 L686.282 34.2544 Q688.632 30.1225 692.399 28.1376 Q696.166 26.1121 701.554 26.1121 Q702.324 26.1121 703.255 26.2337 Q704.187 26.3147 705.321 26.5172 L705.362 34.1734 Z" fill="#000000" fill-rule="nonzero" fill-opacity="1" /><path clip-path="url(#clip830)" d="M713.18 27.2059 L720.634 27.2059 L720.634 72.576 L713.18 72.576 L713.18 27.2059 M713.18 9.54393 L720.634 9.54393 L720.634 18.9825 L713.18 18.9825 L713.18 9.54393 Z" fill="#000000" fill-rule="nonzero" fill-opacity="1" /><path clip-path="url(#clip830)" d="M753.811 32.4315 Q747.815 32.4315 744.332 37.1306 Q740.848 41.7891 740.848 49.9314 Q740.848 58.0738 744.291 62.7728 Q747.775 67.4314 753.811 67.4314 Q759.765 67.4314 763.249 62.7323 Q766.733 58.0333 766.733 49.9314 Q766.733 41.8701 763.249 37.1711 Q759.765 32.4315 753.811 32.4315 M753.811 26.1121 Q763.533 26.1121 769.083 32.4315 Q774.632 38.7509 774.632 49.9314 Q774.632 61.0714 769.083 67.4314 Q763.533 73.7508 753.811 73.7508 Q744.048 73.7508 738.498 67.4314 Q732.989 61.0714 732.989 49.9314 Q732.989 38.7509 738.498 32.4315 Q744.048 26.1121 753.811 26.1121 Z" fill="#000000" fill-rule="nonzero" fill-opacity="1" /><path clip-path="url(#clip830)" d="M813.278 34.1734 Q812.022 33.4443 810.523 33.1202 Q809.065 32.7556 807.283 32.7556 Q800.963 32.7556 797.56 36.8875 Q794.198 40.9789 794.198 48.6757 L794.198 72.576 L786.704 72.576 L786.704 27.2059 L794.198 27.2059 L794.198 34.2544 Q796.548 30.1225 800.315 28.1376 Q804.082 26.1121 809.47 26.1121 Q810.24 26.1121 811.171 26.2337 Q812.103 26.3147 813.237 26.5172 L813.278 34.1734 Z" fill="#000000" fill-rule="nonzero" fill-opacity="1" /><path clip-path="url(#clip830)" d="M865.048 32.4315 Q859.053 32.4315 855.569 37.1306 Q852.086 41.7891 852.086 49.9314 Q852.086 58.0738 855.529 62.7728 Q859.013 67.4314 865.048 67.4314 Q871.003 67.4314 874.487 62.7323 Q877.971 58.0333 877.971 49.9314 Q877.971 41.8701 874.487 37.1711 Q871.003 32.4315 865.048 32.4315 M865.048 26.1121 Q874.771 26.1121 880.32 32.4315 Q885.87 38.7509 885.87 49.9314 Q885.87 61.0714 880.32 67.4314 Q874.771 73.7508 865.048 73.7508 Q855.286 73.7508 849.736 67.4314 Q844.227 61.0714 844.227 49.9314 Q844.227 38.7509 849.736 32.4315 Q855.286 26.1121 865.048 26.1121 Z" fill="#000000" fill-rule="nonzero" fill-opacity="1" /><path clip-path="url(#clip830)" d="M921.194 9.54393 L921.194 15.7418 L914.064 15.7418 Q910.054 15.7418 908.474 17.3622 Q906.935 18.9825 906.935 23.1955 L906.935 27.2059 L919.209 27.2059 L919.209 32.9987 L906.935 32.9987 L906.935 72.576 L899.441 72.576 L899.441 32.9987 L892.311 32.9987 L892.311 27.2059 L899.441 27.2059 L899.441 24.0462 Q899.441 16.471 902.965 13.0277 Q906.489 9.54393 914.145 9.54393 L921.194 9.54393 Z" fill="#000000" fill-rule="nonzero" fill-opacity="1" /><path clip-path="url(#clip830)" d="M982.727 28.5427 L982.727 35.5912 Q979.568 33.9709 976.165 33.1607 Q972.762 32.3505 969.116 32.3505 Q963.566 32.3505 960.771 34.0519 Q958.017 35.7533 958.017 39.156 Q958.017 41.7486 960.002 43.2475 Q961.987 44.7058 967.982 46.0426 L970.534 46.6097 Q978.474 48.3111 981.796 51.4303 Q985.158 54.509 985.158 60.0587 Q985.158 66.3781 980.135 70.0644 Q975.152 73.7508 966.402 73.7508 Q962.756 73.7508 958.786 73.0216 Q954.857 72.3329 950.482 70.9151 L950.482 63.2184 Q954.614 65.3654 958.624 66.4591 Q962.635 67.5124 966.564 67.5124 Q971.83 67.5124 974.666 65.73 Q977.502 63.9071 977.502 60.6258 Q977.502 57.5877 975.436 55.9673 Q973.41 54.3469 966.483 52.8481 L963.891 52.2405 Q956.964 50.7821 953.885 47.7845 Q950.806 44.7463 950.806 39.4801 Q950.806 33.0797 955.343 29.5959 Q959.88 26.1121 968.225 26.1121 Q972.357 26.1121 976.003 26.7198 Q979.649 27.3274 982.727 28.5427 Z" fill="#000000" fill-rule="nonzero" fill-opacity="1" /><path clip-path="url(#clip830)" d="M1017.65 49.7694 Q1008.61 49.7694 1005.13 51.8354 Q1001.64 53.9013 1001.64 58.8839 Q1001.64 62.8538 1004.24 65.2034 Q1006.87 67.5124 1011.37 67.5124 Q1017.57 67.5124 1021.29 63.1374 Q1025.06 58.7219 1025.06 51.4303 L1025.06 49.7694 L1017.65 49.7694 M1032.51 46.6907 L1032.51 72.576 L1025.06 72.576 L1025.06 65.6895 Q1022.51 69.8214 1018.7 71.8063 Q1014.89 73.7508 1009.38 73.7508 Q1002.41 73.7508 998.283 69.8619 Q994.191 65.9325 994.191 59.3701 Q994.191 51.7138 999.295 47.825 Q1004.44 43.9361 1014.61 43.9361 L1025.06 43.9361 L1025.06 43.2069 Q1025.06 38.0623 1021.66 35.2672 Q1018.29 32.4315 1012.18 32.4315 Q1008.29 32.4315 1004.6 33.3632 Q1000.92 34.295 997.513 36.1584 L997.513 29.2718 Q1001.6 27.692 1005.45 26.9223 Q1009.3 26.1121 1012.95 26.1121 Q1022.79 26.1121 1027.65 31.2163 Q1032.51 36.3204 1032.51 46.6907 Z" fill="#000000" fill-rule="nonzero" fill-opacity="1" /><path clip-path="url(#clip830)" d="M1083.19 35.9153 Q1085.98 30.8922 1089.87 28.5022 Q1093.76 26.1121 1099.03 26.1121 Q1106.12 26.1121 1109.97 31.0947 Q1113.81 36.0368 1113.81 45.1919 L1113.81 72.576 L1106.32 72.576 L1106.32 45.4349 Q1106.32 38.913 1104.01 35.7533 Q1101.7 32.5936 1096.96 32.5936 Q1091.17 32.5936 1087.81 36.4419 Q1084.45 40.2903 1084.45 46.9338 L1084.45 72.576 L1076.95 72.576 L1076.95 45.4349 Q1076.95 38.8725 1074.64 35.7533 Q1072.33 32.5936 1067.51 32.5936 Q1061.8 32.5936 1058.44 36.4824 Q1055.08 40.3308 1055.08 46.9338 L1055.08 72.576 L1047.58 72.576 L1047.58 27.2059 L1055.08 27.2059 L1055.08 34.2544 Q1057.63 30.082 1061.19 28.0971 Q1064.76 26.1121 1069.66 26.1121 Q1074.6 26.1121 1078.05 28.6237 Q1081.53 31.1352 1083.19 35.9153 Z" fill="#000000" fill-rule="nonzero" fill-opacity="1" /><path clip-path="url(#clip830)" d="M1135.89 65.7705 L1135.89 89.8329 L1128.4 89.8329 L1128.4 27.2059 L1135.89 27.2059 L1135.89 34.0924 Q1138.24 30.0415 1141.81 28.0971 Q1145.41 26.1121 1150.39 26.1121 Q1158.66 26.1121 1163.8 32.6746 Q1168.99 39.2371 1168.99 49.9314 Q1168.99 60.6258 1163.8 67.1883 Q1158.66 73.7508 1150.39 73.7508 Q1145.41 73.7508 1141.81 71.8063 Q1138.24 69.8214 1135.89 65.7705 M1161.25 49.9314 Q1161.25 41.7081 1157.85 37.0496 Q1154.49 32.3505 1148.57 32.3505 Q1142.66 32.3505 1139.25 37.0496 Q1135.89 41.7081 1135.89 49.9314 Q1135.89 58.1548 1139.25 62.8538 Q1142.66 67.5124 1148.57 67.5124 Q1154.49 67.5124 1157.85 62.8538 Q1161.25 58.1548 1161.25 49.9314 Z" fill="#000000" fill-rule="nonzero" fill-opacity="1" /><path clip-path="url(#clip830)" d="M1181.34 9.54393 L1188.8 9.54393 L1188.8 72.576 L1181.34 72.576 L1181.34 9.54393 Z" fill="#000000" fill-rule="nonzero" fill-opacity="1" /><path clip-path="url(#clip830)" d="M1243.2 48.0275 L1243.2 51.6733 L1208.93 51.6733 Q1209.42 59.3701 1213.55 63.421 Q1217.72 67.4314 1225.13 67.4314 Q1229.43 67.4314 1233.44 66.3781 Q1237.49 65.3249 1241.46 63.2184 L1241.46 70.267 Q1237.45 71.9684 1233.24 72.8596 Q1229.02 73.7508 1224.69 73.7508 Q1213.83 73.7508 1207.47 67.4314 Q1201.15 61.1119 1201.15 50.3365 Q1201.15 39.1965 1207.15 32.6746 Q1213.18 26.1121 1223.39 26.1121 Q1232.55 26.1121 1237.85 32.0264 Q1243.2 37.9003 1243.2 48.0275 M1235.75 45.84 Q1235.67 39.7232 1232.3 36.0774 Q1228.98 32.4315 1223.47 32.4315 Q1217.23 32.4315 1213.47 35.9558 Q1209.74 39.4801 1209.17 45.8805 L1235.75 45.84 Z" fill="#000000" fill-rule="nonzero" fill-opacity="1" /><path clip-path="url(#clip830)" d="M1284.36 28.5427 L1284.36 35.5912 Q1281.2 33.9709 1277.8 33.1607 Q1274.39 32.3505 1270.75 32.3505 Q1265.2 32.3505 1262.4 34.0519 Q1259.65 35.7533 1259.65 39.156 Q1259.65 41.7486 1261.63 43.2475 Q1263.62 44.7058 1269.61 46.0426 L1272.16 46.6097 Q1280.1 48.3111 1283.43 51.4303 Q1286.79 54.509 1286.79 60.0587 Q1286.79 66.3781 1281.77 70.0644 Q1276.78 73.7508 1268.03 73.7508 Q1264.39 73.7508 1260.42 73.0216 Q1256.49 72.3329 1252.11 70.9151 L1252.11 63.2184 Q1256.24 65.3654 1260.25 66.4591 Q1264.27 67.5124 1268.19 67.5124 Q1273.46 67.5124 1276.3 65.73 Q1279.13 63.9071 1279.13 60.6258 Q1279.13 57.5877 1277.07 55.9673 Q1275.04 54.3469 1268.11 52.8481 L1265.52 52.2405 Q1258.59 50.7821 1255.52 47.7845 Q1252.44 44.7463 1252.44 39.4801 Q1252.44 33.0797 1256.97 29.5959 Q1261.51 26.1121 1269.86 26.1121 Q1273.99 26.1121 1277.63 26.7198 Q1281.28 27.3274 1284.36 28.5427 Z" fill="#000000" fill-rule="nonzero" fill-opacity="1" /><path clip-path="url(#clip832)" d="M252.195 1662.07 L252.195 1667.17 L285.06 1667.17 L285.06 1662.07 L252.195 1662.07 L252.195 1662.07  Z" fill="#009af9" fill-rule="evenodd" fill-opacity="1"/>
<polyline clip-path="url(#clip832)" style="stroke:#000000; stroke-linecap:round; stroke-linejoin:round; stroke-width:8; stroke-opacity:1; fill:none" points="252.195,1662.07 252.195,1667.17 285.06,1667.17 285.06,1662.07 252.195,1662.07 "/>
<path clip-path="url(#clip832)" d="M285.06 1656.98 L285.06 1667.17 L317.926 1667.17 L317.926 1656.98 L285.06 1656.98 L285.06 1656.98  Z" fill="#009af9" fill-rule="evenodd" fill-opacity="1"/>
<polyline clip-path="url(#clip832)" style="stroke:#000000; stroke-linecap:round; stroke-linejoin:round; stroke-width:8; stroke-opacity:1; fill:none" points="285.06,1656.98 285.06,1667.17 317.926,1667.17 317.926,1656.98 285.06,1656.98 "/>
<path clip-path="url(#clip832)" d="M317.926 1662.07 L317.926 1667.17 L350.792 1667.17 L350.792 1662.07 L317.926 1662.07 L317.926 1662.07  Z" fill="#009af9" fill-rule="evenodd" fill-opacity="1"/>
<polyline clip-path="url(#clip832)" style="stroke:#000000; stroke-linecap:round; stroke-linejoin:round; stroke-width:8; stroke-opacity:1; fill:none" points="317.926,1662.07 317.926,1667.17 350.792,1667.17 350.792,1662.07 317.926,1662.07 "/>
<path clip-path="url(#clip832)" d="M350.792 1662.07 L350.792 1667.17 L383.657 1667.17 L383.657 1662.07 L350.792 1662.07 L350.792 1662.07  Z" fill="#009af9" fill-rule="evenodd" fill-opacity="1"/>
<polyline clip-path="url(#clip832)" style="stroke:#000000; stroke-linecap:round; stroke-linejoin:round; stroke-width:8; stroke-opacity:1; fill:none" points="350.792,1662.07 350.792,1667.17 383.657,1667.17 383.657,1662.07 350.792,1662.07 "/>
<path clip-path="url(#clip832)" d="M383.657 1641.69 L383.657 1667.17 L416.523 1667.17 L416.523 1641.69 L383.657 1641.69 L383.657 1641.69  Z" fill="#009af9" fill-rule="evenodd" fill-opacity="1"/>
<polyline clip-path="url(#clip832)" style="stroke:#000000; stroke-linecap:round; stroke-linejoin:round; stroke-width:8; stroke-opacity:1; fill:none" points="383.657,1641.69 383.657,1667.17 416.523,1667.17 416.523,1641.69 383.657,1641.69 "/>
<path clip-path="url(#clip832)" d="M416.523 1641.69 L416.523 1667.17 L449.389 1667.17 L449.389 1641.69 L416.523 1641.69 L416.523 1641.69  Z" fill="#009af9" fill-rule="evenodd" fill-opacity="1"/>
<polyline clip-path="url(#clip832)" style="stroke:#000000; stroke-linecap:round; stroke-linejoin:round; stroke-width:8; stroke-opacity:1; fill:none" points="416.523,1641.69 416.523,1667.17 449.389,1667.17 449.389,1641.69 416.523,1641.69 "/>
<path clip-path="url(#clip832)" d="M449.389 1606.02 L449.389 1667.17 L482.254 1667.17 L482.254 1606.02 L449.389 1606.02 L449.389 1606.02  Z" fill="#009af9" fill-rule="evenodd" fill-opacity="1"/>
<polyline clip-path="url(#clip832)" style="stroke:#000000; stroke-linecap:round; stroke-linejoin:round; stroke-width:8; stroke-opacity:1; fill:none" points="449.389,1606.02 449.389,1667.17 482.254,1667.17 482.254,1606.02 449.389,1606.02 "/>
<path clip-path="url(#clip832)" d="M482.254 1590.73 L482.254 1667.17 L515.12 1667.17 L515.12 1590.73 L482.254 1590.73 L482.254 1590.73  Z" fill="#009af9" fill-rule="evenodd" fill-opacity="1"/>
<polyline clip-path="url(#clip832)" style="stroke:#000000; stroke-linecap:round; stroke-linejoin:round; stroke-width:8; stroke-opacity:1; fill:none" points="482.254,1590.73 482.254,1667.17 515.12,1667.17 515.12,1590.73 482.254,1590.73 "/>
<path clip-path="url(#clip832)" d="M515.12 1580.54 L515.12 1667.17 L547.986 1667.17 L547.986 1580.54 L515.12 1580.54 L515.12 1580.54  Z" fill="#009af9" fill-rule="evenodd" fill-opacity="1"/>
<polyline clip-path="url(#clip832)" style="stroke:#000000; stroke-linecap:round; stroke-linejoin:round; stroke-width:8; stroke-opacity:1; fill:none" points="515.12,1580.54 515.12,1667.17 547.986,1667.17 547.986,1580.54 515.12,1580.54 "/>
<path clip-path="url(#clip832)" d="M547.986 1575.44 L547.986 1667.17 L580.851 1667.17 L580.851 1575.44 L547.986 1575.44 L547.986 1575.44  Z" fill="#009af9" fill-rule="evenodd" fill-opacity="1"/>
<polyline clip-path="url(#clip832)" style="stroke:#000000; stroke-linecap:round; stroke-linejoin:round; stroke-width:8; stroke-opacity:1; fill:none" points="547.986,1575.44 547.986,1667.17 580.851,1667.17 580.851,1575.44 547.986,1575.44 "/>
<path clip-path="url(#clip832)" d="M580.851 1534.68 L580.851 1667.17 L613.717 1667.17 L613.717 1534.68 L580.851 1534.68 L580.851 1534.68  Z" fill="#009af9" fill-rule="evenodd" fill-opacity="1"/>
<polyline clip-path="url(#clip832)" style="stroke:#000000; stroke-linecap:round; stroke-linejoin:round; stroke-width:8; stroke-opacity:1; fill:none" points="580.851,1534.68 580.851,1667.17 613.717,1667.17 613.717,1534.68 580.851,1534.68 "/>
<path clip-path="url(#clip832)" d="M613.717 1499.01 L613.717 1667.17 L646.583 1667.17 L646.583 1499.01 L613.717 1499.01 L613.717 1499.01  Z" fill="#009af9" fill-rule="evenodd" fill-opacity="1"/>
<polyline clip-path="url(#clip832)" style="stroke:#000000; stroke-linecap:round; stroke-linejoin:round; stroke-width:8; stroke-opacity:1; fill:none" points="613.717,1499.01 613.717,1667.17 646.583,1667.17 646.583,1499.01 613.717,1499.01 "/>
<path clip-path="url(#clip832)" d="M646.583 1468.43 L646.583 1667.17 L679.448 1667.17 L679.448 1468.43 L646.583 1468.43 L646.583 1468.43  Z" fill="#009af9" fill-rule="evenodd" fill-opacity="1"/>
<polyline clip-path="url(#clip832)" style="stroke:#000000; stroke-linecap:round; stroke-linejoin:round; stroke-width:8; stroke-opacity:1; fill:none" points="646.583,1468.43 646.583,1667.17 679.448,1667.17 679.448,1468.43 646.583,1468.43 "/>
<path clip-path="url(#clip832)" d="M679.448 1442.95 L679.448 1667.17 L712.314 1667.17 L712.314 1442.95 L679.448 1442.95 L679.448 1442.95  Z" fill="#009af9" fill-rule="evenodd" fill-opacity="1"/>
<polyline clip-path="url(#clip832)" style="stroke:#000000; stroke-linecap:round; stroke-linejoin:round; stroke-width:8; stroke-opacity:1; fill:none" points="679.448,1442.95 679.448,1667.17 712.314,1667.17 712.314,1442.95 679.448,1442.95 "/>
<path clip-path="url(#clip832)" d="M712.314 1407.28 L712.314 1667.17 L745.18 1667.17 L745.18 1407.28 L712.314 1407.28 L712.314 1407.28  Z" fill="#009af9" fill-rule="evenodd" fill-opacity="1"/>
<polyline clip-path="url(#clip832)" style="stroke:#000000; stroke-linecap:round; stroke-linejoin:round; stroke-width:8; stroke-opacity:1; fill:none" points="712.314,1407.28 712.314,1667.17 745.18,1667.17 745.18,1407.28 712.314,1407.28 "/>
<path clip-path="url(#clip832)" d="M745.18 1386.9 L745.18 1667.17 L778.045 1667.17 L778.045 1386.9 L745.18 1386.9 L745.18 1386.9  Z" fill="#009af9" fill-rule="evenodd" fill-opacity="1"/>
<polyline clip-path="url(#clip832)" style="stroke:#000000; stroke-linecap:round; stroke-linejoin:round; stroke-width:8; stroke-opacity:1; fill:none" points="745.18,1386.9 745.18,1667.17 778.045,1667.17 778.045,1386.9 745.18,1386.9 "/>
<path clip-path="url(#clip832)" d="M778.045 1330.84 L778.045 1667.17 L810.911 1667.17 L810.911 1330.84 L778.045 1330.84 L778.045 1330.84  Z" fill="#009af9" fill-rule="evenodd" fill-opacity="1"/>
<polyline clip-path="url(#clip832)" style="stroke:#000000; stroke-linecap:round; stroke-linejoin:round; stroke-width:8; stroke-opacity:1; fill:none" points="778.045,1330.84 778.045,1667.17 810.911,1667.17 810.911,1330.84 778.045,1330.84 "/>
<path clip-path="url(#clip832)" d="M810.911 1172.87 L810.911 1667.17 L843.777 1667.17 L843.777 1172.87 L810.911 1172.87 L810.911 1172.87  Z" fill="#009af9" fill-rule="evenodd" fill-opacity="1"/>
<polyline clip-path="url(#clip832)" style="stroke:#000000; stroke-linecap:round; stroke-linejoin:round; stroke-width:8; stroke-opacity:1; fill:none" points="810.911,1172.87 810.911,1667.17 843.777,1667.17 843.777,1172.87 810.911,1172.87 "/>
<path clip-path="url(#clip832)" d="M843.777 1228.93 L843.777 1667.17 L876.642 1667.17 L876.642 1228.93 L843.777 1228.93 L843.777 1228.93  Z" fill="#009af9" fill-rule="evenodd" fill-opacity="1"/>
<polyline clip-path="url(#clip832)" style="stroke:#000000; stroke-linecap:round; stroke-linejoin:round; stroke-width:8; stroke-opacity:1; fill:none" points="843.777,1228.93 843.777,1667.17 876.642,1667.17 876.642,1228.93 843.777,1228.93 "/>
<path clip-path="url(#clip832)" d="M876.642 1106.63 L876.642 1667.17 L909.508 1667.17 L909.508 1106.63 L876.642 1106.63 L876.642 1106.63  Z" fill="#009af9" fill-rule="evenodd" fill-opacity="1"/>
<polyline clip-path="url(#clip832)" style="stroke:#000000; stroke-linecap:round; stroke-linejoin:round; stroke-width:8; stroke-opacity:1; fill:none" points="876.642,1106.63 876.642,1667.17 909.508,1667.17 909.508,1106.63 876.642,1106.63 "/>
<path clip-path="url(#clip832)" d="M909.508 1137.2 L909.508 1667.17 L942.374 1667.17 L942.374 1137.2 L909.508 1137.2 L909.508 1137.2  Z" fill="#009af9" fill-rule="evenodd" fill-opacity="1"/>
<polyline clip-path="url(#clip832)" style="stroke:#000000; stroke-linecap:round; stroke-linejoin:round; stroke-width:8; stroke-opacity:1; fill:none" points="909.508,1137.2 909.508,1667.17 942.374,1667.17 942.374,1137.2 909.508,1137.2 "/>
<path clip-path="url(#clip832)" d="M942.374 1132.11 L942.374 1667.17 L975.239 1667.17 L975.239 1132.11 L942.374 1132.11 L942.374 1132.11  Z" fill="#009af9" fill-rule="evenodd" fill-opacity="1"/>
<polyline clip-path="url(#clip832)" style="stroke:#000000; stroke-linecap:round; stroke-linejoin:round; stroke-width:8; stroke-opacity:1; fill:none" points="942.374,1132.11 942.374,1667.17 975.239,1667.17 975.239,1132.11 942.374,1132.11 "/>
<path clip-path="url(#clip832)" d="M975.239 948.659 L975.239 1667.17 L1008.11 1667.17 L1008.11 948.659 L975.239 948.659 L975.239 948.659  Z" fill="#009af9" fill-rule="evenodd" fill-opacity="1"/>
<polyline clip-path="url(#clip832)" style="stroke:#000000; stroke-linecap:round; stroke-linejoin:round; stroke-width:8; stroke-opacity:1; fill:none" points="975.239,948.659 975.239,1667.17 1008.11,1667.17 1008.11,948.659 975.239,948.659 "/>
<path clip-path="url(#clip832)" d="M1008.11 892.605 L1008.11 1667.17 L1040.97 1667.17 L1040.97 892.605 L1008.11 892.605 L1008.11 892.605  Z" fill="#009af9" fill-rule="evenodd" fill-opacity="1"/>
<polyline clip-path="url(#clip832)" style="stroke:#000000; stroke-linecap:round; stroke-linejoin:round; stroke-width:8; stroke-opacity:1; fill:none" points="1008.11,892.605 1008.11,1667.17 1040.97,1667.17 1040.97,892.605 1008.11,892.605 "/>
<path clip-path="url(#clip832)" d="M1040.97 709.155 L1040.97 1667.17 L1073.84 1667.17 L1073.84 709.155 L1040.97 709.155 L1040.97 709.155  Z" fill="#009af9" fill-rule="evenodd" fill-opacity="1"/>
<polyline clip-path="url(#clip832)" style="stroke:#000000; stroke-linecap:round; stroke-linejoin:round; stroke-width:8; stroke-opacity:1; fill:none" points="1040.97,709.155 1040.97,1667.17 1073.84,1667.17 1073.84,709.155 1040.97,709.155 "/>
<path clip-path="url(#clip832)" d="M1073.84 765.209 L1073.84 1667.17 L1106.7 1667.17 L1106.7 765.209 L1073.84 765.209 L1073.84 765.209  Z" fill="#009af9" fill-rule="evenodd" fill-opacity="1"/>
<polyline clip-path="url(#clip832)" style="stroke:#000000; stroke-linecap:round; stroke-linejoin:round; stroke-width:8; stroke-opacity:1; fill:none" points="1073.84,765.209 1073.84,1667.17 1106.7,1667.17 1106.7,765.209 1073.84,765.209 "/>
<path clip-path="url(#clip832)" d="M1106.7 556.281 L1106.7 1667.17 L1139.57 1667.17 L1139.57 556.281 L1106.7 556.281 L1106.7 556.281  Z" fill="#009af9" fill-rule="evenodd" fill-opacity="1"/>
<polyline clip-path="url(#clip832)" style="stroke:#000000; stroke-linecap:round; stroke-linejoin:round; stroke-width:8; stroke-opacity:1; fill:none" points="1106.7,556.281 1106.7,1667.17 1139.57,1667.17 1139.57,556.281 1106.7,556.281 "/>
<path clip-path="url(#clip832)" d="M1139.57 556.281 L1139.57 1667.17 L1172.43 1667.17 L1172.43 556.281 L1139.57 556.281 L1139.57 556.281  Z" fill="#009af9" fill-rule="evenodd" fill-opacity="1"/>
<polyline clip-path="url(#clip832)" style="stroke:#000000; stroke-linecap:round; stroke-linejoin:round; stroke-width:8; stroke-opacity:1; fill:none" points="1139.57,556.281 1139.57,1667.17 1172.43,1667.17 1172.43,556.281 1139.57,556.281 "/>
<path clip-path="url(#clip832)" d="M1172.43 352.449 L1172.43 1667.17 L1205.3 1667.17 L1205.3 352.449 L1172.43 352.449 L1172.43 352.449  Z" fill="#009af9" fill-rule="evenodd" fill-opacity="1"/>
<polyline clip-path="url(#clip832)" style="stroke:#000000; stroke-linecap:round; stroke-linejoin:round; stroke-width:8; stroke-opacity:1; fill:none" points="1172.43,352.449 1172.43,1667.17 1205.3,1667.17 1205.3,352.449 1172.43,352.449 "/>
<path clip-path="url(#clip832)" d="M1205.3 566.473 L1205.3 1667.17 L1238.16 1667.17 L1238.16 566.473 L1205.3 566.473 L1205.3 566.473  Z" fill="#009af9" fill-rule="evenodd" fill-opacity="1"/>
<polyline clip-path="url(#clip832)" style="stroke:#000000; stroke-linecap:round; stroke-linejoin:round; stroke-width:8; stroke-opacity:1; fill:none" points="1205.3,566.473 1205.3,1667.17 1238.16,1667.17 1238.16,566.473 1205.3,566.473 "/>
<path clip-path="url(#clip832)" d="M1238.16 383.024 L1238.16 1667.17 L1271.03 1667.17 L1271.03 383.024 L1238.16 383.024 L1238.16 383.024  Z" fill="#009af9" fill-rule="evenodd" fill-opacity="1"/>
<polyline clip-path="url(#clip832)" style="stroke:#000000; stroke-linecap:round; stroke-linejoin:round; stroke-width:8; stroke-opacity:1; fill:none" points="1238.16,383.024 1238.16,1667.17 1271.03,1667.17 1271.03,383.024 1238.16,383.024 "/>
<path clip-path="url(#clip832)" d="M1271.03 306.586 L1271.03 1667.17 L1303.9 1667.17 L1303.9 306.586 L1271.03 306.586 L1271.03 306.586  Z" fill="#009af9" fill-rule="evenodd" fill-opacity="1"/>
<polyline clip-path="url(#clip832)" style="stroke:#000000; stroke-linecap:round; stroke-linejoin:round; stroke-width:8; stroke-opacity:1; fill:none" points="1271.03,306.586 1271.03,1667.17 1303.9,1667.17 1303.9,306.586 1271.03,306.586 "/>
<path clip-path="url(#clip832)" d="M1303.9 153.712 L1303.9 1667.17 L1336.76 1667.17 L1336.76 153.712 L1303.9 153.712 L1303.9 153.712  Z" fill="#009af9" fill-rule="evenodd" fill-opacity="1"/>
<polyline clip-path="url(#clip832)" style="stroke:#000000; stroke-linecap:round; stroke-linejoin:round; stroke-width:8; stroke-opacity:1; fill:none" points="1303.9,153.712 1303.9,1667.17 1336.76,1667.17 1336.76,153.712 1303.9,153.712 "/>
<path clip-path="url(#clip832)" d="M1336.76 337.161 L1336.76 1667.17 L1369.63 1667.17 L1369.63 337.161 L1336.76 337.161 L1336.76 337.161  Z" fill="#009af9" fill-rule="evenodd" fill-opacity="1"/>
<polyline clip-path="url(#clip832)" style="stroke:#000000; stroke-linecap:round; stroke-linejoin:round; stroke-width:8; stroke-opacity:1; fill:none" points="1336.76,337.161 1336.76,1667.17 1369.63,1667.17 1369.63,337.161 1336.76,337.161 "/>
<path clip-path="url(#clip832)" d="M1369.63 214.862 L1369.63 1667.17 L1402.49 1667.17 L1402.49 214.862 L1369.63 214.862 L1369.63 214.862  Z" fill="#009af9" fill-rule="evenodd" fill-opacity="1"/>
<polyline clip-path="url(#clip832)" style="stroke:#000000; stroke-linecap:round; stroke-linejoin:round; stroke-width:8; stroke-opacity:1; fill:none" points="1369.63,214.862 1369.63,1667.17 1402.49,1667.17 1402.49,214.862 1369.63,214.862 "/>
<path clip-path="url(#clip832)" d="M1402.49 500.227 L1402.49 1667.17 L1435.36 1667.17 L1435.36 500.227 L1402.49 500.227 L1402.49 500.227  Z" fill="#009af9" fill-rule="evenodd" fill-opacity="1"/>
<polyline clip-path="url(#clip832)" style="stroke:#000000; stroke-linecap:round; stroke-linejoin:round; stroke-width:8; stroke-opacity:1; fill:none" points="1402.49,500.227 1402.49,1667.17 1435.36,1667.17 1435.36,500.227 1402.49,500.227 "/>
<path clip-path="url(#clip832)" d="M1435.36 433.982 L1435.36 1667.17 L1468.22 1667.17 L1468.22 433.982 L1435.36 433.982 L1435.36 433.982  Z" fill="#009af9" fill-rule="evenodd" fill-opacity="1"/>
<polyline clip-path="url(#clip832)" style="stroke:#000000; stroke-linecap:round; stroke-linejoin:round; stroke-width:8; stroke-opacity:1; fill:none" points="1435.36,433.982 1435.36,1667.17 1468.22,1667.17 1468.22,433.982 1435.36,433.982 "/>
<path clip-path="url(#clip832)" d="M1468.22 535.898 L1468.22 1667.17 L1501.09 1667.17 L1501.09 535.898 L1468.22 535.898 L1468.22 535.898  Z" fill="#009af9" fill-rule="evenodd" fill-opacity="1"/>
<polyline clip-path="url(#clip832)" style="stroke:#000000; stroke-linecap:round; stroke-linejoin:round; stroke-width:8; stroke-opacity:1; fill:none" points="1468.22,535.898 1468.22,1667.17 1501.09,1667.17 1501.09,535.898 1468.22,535.898 "/>
<path clip-path="url(#clip832)" d="M1501.09 719.347 L1501.09 1667.17 L1533.96 1667.17 L1533.96 719.347 L1501.09 719.347 L1501.09 719.347  Z" fill="#009af9" fill-rule="evenodd" fill-opacity="1"/>
<polyline clip-path="url(#clip832)" style="stroke:#000000; stroke-linecap:round; stroke-linejoin:round; stroke-width:8; stroke-opacity:1; fill:none" points="1501.09,719.347 1501.09,1667.17 1533.96,1667.17 1533.96,719.347 1501.09,719.347 "/>
<path clip-path="url(#clip832)" d="M1533.96 800.88 L1533.96 1667.17 L1566.82 1667.17 L1566.82 800.88 L1533.96 800.88 L1533.96 800.88  Z" fill="#009af9" fill-rule="evenodd" fill-opacity="1"/>
<polyline clip-path="url(#clip832)" style="stroke:#000000; stroke-linecap:round; stroke-linejoin:round; stroke-width:8; stroke-opacity:1; fill:none" points="1533.96,800.88 1533.96,1667.17 1566.82,1667.17 1566.82,800.88 1533.96,800.88 "/>
<path clip-path="url(#clip832)" d="M1566.82 1213.64 L1566.82 1667.17 L1599.69 1667.17 L1599.69 1213.64 L1566.82 1213.64 L1566.82 1213.64  Z" fill="#009af9" fill-rule="evenodd" fill-opacity="1"/>
<polyline clip-path="url(#clip832)" style="stroke:#000000; stroke-linecap:round; stroke-linejoin:round; stroke-width:8; stroke-opacity:1; fill:none" points="1566.82,1213.64 1566.82,1667.17 1599.69,1667.17 1599.69,1213.64 1566.82,1213.64 "/>
<path clip-path="url(#clip832)" d="M1599.69 1509.2 L1599.69 1667.17 L1632.55 1667.17 L1632.55 1509.2 L1599.69 1509.2 L1599.69 1509.2  Z" fill="#009af9" fill-rule="evenodd" fill-opacity="1"/>
<polyline clip-path="url(#clip832)" style="stroke:#000000; stroke-linecap:round; stroke-linejoin:round; stroke-width:8; stroke-opacity:1; fill:none" points="1599.69,1509.2 1599.69,1667.17 1632.55,1667.17 1632.55,1509.2 1599.69,1509.2 "/>
<path clip-path="url(#clip832)" d="M1632.55 1626.4 L1632.55 1667.17 L1665.42 1667.17 L1665.42 1626.4 L1632.55 1626.4 L1632.55 1626.4  Z" fill="#009af9" fill-rule="evenodd" fill-opacity="1"/>
<polyline clip-path="url(#clip832)" style="stroke:#000000; stroke-linecap:round; stroke-linejoin:round; stroke-width:8; stroke-opacity:1; fill:none" points="1632.55,1626.4 1632.55,1667.17 1665.42,1667.17 1665.42,1626.4 1632.55,1626.4 "/>
<circle clip-path="url(#clip832)" style="fill:#009af9; stroke:none; fill-opacity:0" cx="268.627" cy="1662.07" r="2"/>
<circle clip-path="url(#clip832)" style="fill:#009af9; stroke:none; fill-opacity:0" cx="301.493" cy="1656.98" r="2"/>
<circle clip-path="url(#clip832)" style="fill:#009af9; stroke:none; fill-opacity:0" cx="334.359" cy="1662.07" r="2"/>
<circle clip-path="url(#clip832)" style="fill:#009af9; stroke:none; fill-opacity:0" cx="367.225" cy="1662.07" r="2"/>
<circle clip-path="url(#clip832)" style="fill:#009af9; stroke:none; fill-opacity:0" cx="400.09" cy="1641.69" r="2"/>
<circle clip-path="url(#clip832)" style="fill:#009af9; stroke:none; fill-opacity:0" cx="432.956" cy="1641.69" r="2"/>
<circle clip-path="url(#clip832)" style="fill:#009af9; stroke:none; fill-opacity:0" cx="465.822" cy="1606.02" r="2"/>
<circle clip-path="url(#clip832)" style="fill:#009af9; stroke:none; fill-opacity:0" cx="498.687" cy="1590.73" r="2"/>
<circle clip-path="url(#clip832)" style="fill:#009af9; stroke:none; fill-opacity:0" cx="531.553" cy="1580.54" r="2"/>
<circle clip-path="url(#clip832)" style="fill:#009af9; stroke:none; fill-opacity:0" cx="564.419" cy="1575.44" r="2"/>
<circle clip-path="url(#clip832)" style="fill:#009af9; stroke:none; fill-opacity:0" cx="597.284" cy="1534.68" r="2"/>
<circle clip-path="url(#clip832)" style="fill:#009af9; stroke:none; fill-opacity:0" cx="630.15" cy="1499.01" r="2"/>
<circle clip-path="url(#clip832)" style="fill:#009af9; stroke:none; fill-opacity:0" cx="663.016" cy="1468.43" r="2"/>
<circle clip-path="url(#clip832)" style="fill:#009af9; stroke:none; fill-opacity:0" cx="695.881" cy="1442.95" r="2"/>
<circle clip-path="url(#clip832)" style="fill:#009af9; stroke:none; fill-opacity:0" cx="728.747" cy="1407.28" r="2"/>
<circle clip-path="url(#clip832)" style="fill:#009af9; stroke:none; fill-opacity:0" cx="761.613" cy="1386.9" r="2"/>
<circle clip-path="url(#clip832)" style="fill:#009af9; stroke:none; fill-opacity:0" cx="794.478" cy="1330.84" r="2"/>
<circle clip-path="url(#clip832)" style="fill:#009af9; stroke:none; fill-opacity:0" cx="827.344" cy="1172.87" r="2"/>
<circle clip-path="url(#clip832)" style="fill:#009af9; stroke:none; fill-opacity:0" cx="860.21" cy="1228.93" r="2"/>
<circle clip-path="url(#clip832)" style="fill:#009af9; stroke:none; fill-opacity:0" cx="893.075" cy="1106.63" r="2"/>
<circle clip-path="url(#clip832)" style="fill:#009af9; stroke:none; fill-opacity:0" cx="925.941" cy="1137.2" r="2"/>
<circle clip-path="url(#clip832)" style="fill:#009af9; stroke:none; fill-opacity:0" cx="958.807" cy="1132.11" r="2"/>
<circle clip-path="url(#clip832)" style="fill:#009af9; stroke:none; fill-opacity:0" cx="991.672" cy="948.659" r="2"/>
<circle clip-path="url(#clip832)" style="fill:#009af9; stroke:none; fill-opacity:0" cx="1024.54" cy="892.605" r="2"/>
<circle clip-path="url(#clip832)" style="fill:#009af9; stroke:none; fill-opacity:0" cx="1057.4" cy="709.155" r="2"/>
<circle clip-path="url(#clip832)" style="fill:#009af9; stroke:none; fill-opacity:0" cx="1090.27" cy="765.209" r="2"/>
<circle clip-path="url(#clip832)" style="fill:#009af9; stroke:none; fill-opacity:0" cx="1123.14" cy="556.281" r="2"/>
<circle clip-path="url(#clip832)" style="fill:#009af9; stroke:none; fill-opacity:0" cx="1156" cy="556.281" r="2"/>
<circle clip-path="url(#clip832)" style="fill:#009af9; stroke:none; fill-opacity:0" cx="1188.87" cy="352.449" r="2"/>
<circle clip-path="url(#clip832)" style="fill:#009af9; stroke:none; fill-opacity:0" cx="1221.73" cy="566.473" r="2"/>
<circle clip-path="url(#clip832)" style="fill:#009af9; stroke:none; fill-opacity:0" cx="1254.6" cy="383.024" r="2"/>
<circle clip-path="url(#clip832)" style="fill:#009af9; stroke:none; fill-opacity:0" cx="1287.46" cy="306.586" r="2"/>
<circle clip-path="url(#clip832)" style="fill:#009af9; stroke:none; fill-opacity:0" cx="1320.33" cy="153.712" r="2"/>
<circle clip-path="url(#clip832)" style="fill:#009af9; stroke:none; fill-opacity:0" cx="1353.19" cy="337.161" r="2"/>
<circle clip-path="url(#clip832)" style="fill:#009af9; stroke:none; fill-opacity:0" cx="1386.06" cy="214.862" r="2"/>
<circle clip-path="url(#clip832)" style="fill:#009af9; stroke:none; fill-opacity:0" cx="1418.93" cy="500.227" r="2"/>
<circle clip-path="url(#clip832)" style="fill:#009af9; stroke:none; fill-opacity:0" cx="1451.79" cy="433.982" r="2"/>
<circle clip-path="url(#clip832)" style="fill:#009af9; stroke:none; fill-opacity:0" cx="1484.66" cy="535.898" r="2"/>
<circle clip-path="url(#clip832)" style="fill:#009af9; stroke:none; fill-opacity:0" cx="1517.52" cy="719.347" r="2"/>
<circle clip-path="url(#clip832)" style="fill:#009af9; stroke:none; fill-opacity:0" cx="1550.39" cy="800.88" r="2"/>
<circle clip-path="url(#clip832)" style="fill:#009af9; stroke:none; fill-opacity:0" cx="1583.25" cy="1213.64" r="2"/>
<circle clip-path="url(#clip832)" style="fill:#009af9; stroke:none; fill-opacity:0" cx="1616.12" cy="1509.2" r="2"/>
<circle clip-path="url(#clip832)" style="fill:#009af9; stroke:none; fill-opacity:0" cx="1648.99" cy="1626.4" r="2"/>
<polyline clip-path="url(#clip832)" style="stroke:#e26f46; stroke-linecap:round; stroke-linejoin:round; stroke-width:8; stroke-opacity:1; fill:none" points="1205.3,3180.62 1205.3,-1359.74 "/>
</svg>
