<?xml version="1.0" encoding="utf-8"?>
<svg xmlns="http://www.w3.org/2000/svg" xmlns:xlink="http://www.w3.org/1999/xlink" width="450" height="450" viewBox="0 0 1800 1800">
<defs>
  <clipPath id="clip790">
    <rect x="0" y="0" width="1800" height="1800"/>
  </clipPath>
</defs>
<path clip-path="url(#clip790)" d="M0 1800 L1800 1800 L1800 0 L0 0  Z" fill="#ffffff" fill-rule="evenodd" fill-opacity="1"/>
<defs>
  <clipPath id="clip791">
    <rect x="360" y="180" width="1261" height="1261"/>
  </clipPath>
</defs>
<path clip-path="url(#clip790)" d="M150.598 1667.17 L1752.76 1667.17 L1752.76 153.712 L150.598 153.712  Z" fill="#ffffff" fill-rule="evenodd" fill-opacity="1"/>
<defs>
  <clipPath id="clip792">
    <rect x="150" y="153" width="1603" height="1514"/>
  </clipPath>
</defs>
<polyline clip-path="url(#clip792)" style="stroke:#000000; stroke-linecap:round; stroke-linejoin:round; stroke-width:2; stroke-opacity:0.1; fill:none" points="185.688,1667.17 185.688,153.712 "/>
<polyline clip-path="url(#clip792)" style="stroke:#000000; stroke-linecap:round; stroke-linejoin:round; stroke-width:2; stroke-opacity:0.1; fill:none" points="568.708,1667.17 568.708,153.712 "/>
<polyline clip-path="url(#clip792)" style="stroke:#000000; stroke-linecap:round; stroke-linejoin:round; stroke-width:2; stroke-opacity:0.1; fill:none" points="951.728,1667.17 951.728,153.712 "/>
<polyline clip-path="url(#clip792)" style="stroke:#000000; stroke-linecap:round; stroke-linejoin:round; stroke-width:2; stroke-opacity:0.1; fill:none" points="1334.75,1667.17 1334.75,153.712 "/>
<polyline clip-path="url(#clip792)" style="stroke:#000000; stroke-linecap:round; stroke-linejoin:round; stroke-width:2; stroke-opacity:0.1; fill:none" points="1717.77,1667.17 1717.77,153.712 "/>
<polyline clip-path="url(#clip790)" style="stroke:#000000; stroke-linecap:round; stroke-linejoin:round; stroke-width:4; stroke-opacity:1; fill:none" points="150.598,1667.17 1752.76,1667.17 "/>
<polyline clip-path="url(#clip790)" style="stroke:#000000; stroke-linecap:round; stroke-linejoin:round; stroke-width:4; stroke-opacity:1; fill:none" points="185.688,1667.17 185.688,1648.27 "/>
<polyline clip-path="url(#clip790)" style="stroke:#000000; stroke-linecap:round; stroke-linejoin:round; stroke-width:4; stroke-opacity:1; fill:none" points="568.708,1667.17 568.708,1648.27 "/>
<polyline clip-path="url(#clip790)" style="stroke:#000000; stroke-linecap:round; stroke-linejoin:round; stroke-width:4; stroke-opacity:1; fill:none" points="951.728,1667.17 951.728,1648.27 "/>
<polyline clip-path="url(#clip790)" style="stroke:#000000; stroke-linecap:round; stroke-linejoin:round; stroke-width:4; stroke-opacity:1; fill:none" points="1334.75,1667.17 1334.75,1648.27 "/>
<polyline clip-path="url(#clip790)" style="stroke:#000000; stroke-linecap:round; stroke-linejoin:round; stroke-width:4; stroke-opacity:1; fill:none" points="1717.77,1667.17 1717.77,1648.27 "/>
<path clip-path="url(#clip790)" d="M147.992 1693.29 Q144.381 1693.29 142.552 1696.85 Q140.746 1700.39 140.746 1707.52 Q140.746 1714.63 142.552 1718.19 Q144.381 1721.74 147.992 1721.74 Q151.626 1721.74 153.432 1718.19 Q155.26 1714.63 155.26 1707.52 Q155.26 1700.39 153.432 1696.85 Q151.626 1693.29 147.992 1693.29 M147.992 1689.58 Q153.802 1689.58 156.857 1694.19 Q159.936 1698.77 159.936 1707.52 Q159.936 1716.25 156.857 1720.86 Q153.802 1725.44 147.992 1725.44 Q142.182 1725.44 139.103 1720.86 Q136.047 1716.25 136.047 1707.52 Q136.047 1698.77 139.103 1694.19 Q142.182 1689.58 147.992 1689.58 Z" fill="#000000" fill-rule="nonzero" fill-opacity="1" /><path clip-path="url(#clip790)" d="M168.154 1718.89 L173.038 1718.89 L173.038 1724.77 L168.154 1724.77 L168.154 1718.89 Z" fill="#000000" fill-rule="nonzero" fill-opacity="1" /><path clip-path="url(#clip790)" d="M193.223 1693.29 Q189.612 1693.29 187.783 1696.85 Q185.978 1700.39 185.978 1707.52 Q185.978 1714.63 187.783 1718.19 Q189.612 1721.74 193.223 1721.74 Q196.857 1721.74 198.663 1718.19 Q200.491 1714.63 200.491 1707.52 Q200.491 1700.39 198.663 1696.85 Q196.857 1693.29 193.223 1693.29 M193.223 1689.58 Q199.033 1689.58 202.089 1694.19 Q205.167 1698.77 205.167 1707.52 Q205.167 1716.25 202.089 1720.86 Q199.033 1725.44 193.223 1725.44 Q187.413 1725.44 184.334 1720.86 Q181.279 1716.25 181.279 1707.52 Q181.279 1698.77 184.334 1694.19 Q187.413 1689.58 193.223 1689.58 Z" fill="#000000" fill-rule="nonzero" fill-opacity="1" /><path clip-path="url(#clip790)" d="M223.385 1693.29 Q219.774 1693.29 217.945 1696.85 Q216.14 1700.39 216.14 1707.52 Q216.14 1714.63 217.945 1718.19 Q219.774 1721.74 223.385 1721.74 Q227.019 1721.74 228.825 1718.19 Q230.653 1714.63 230.653 1707.52 Q230.653 1700.39 228.825 1696.85 Q227.019 1693.29 223.385 1693.29 M223.385 1689.58 Q229.195 1689.58 232.251 1694.19 Q235.329 1698.77 235.329 1707.52 Q235.329 1716.25 232.251 1720.86 Q229.195 1725.44 223.385 1725.44 Q217.575 1725.44 214.496 1720.86 Q211.441 1716.25 211.441 1707.52 Q211.441 1698.77 214.496 1694.19 Q217.575 1689.58 223.385 1689.58 Z" fill="#000000" fill-rule="nonzero" fill-opacity="1" /><path clip-path="url(#clip790)" d="M531.509 1693.29 Q527.898 1693.29 526.07 1696.85 Q524.264 1700.39 524.264 1707.52 Q524.264 1714.63 526.07 1718.19 Q527.898 1721.74 531.509 1721.74 Q535.144 1721.74 536.949 1718.19 Q538.778 1714.63 538.778 1707.52 Q538.778 1700.39 536.949 1696.85 Q535.144 1693.29 531.509 1693.29 M531.509 1689.58 Q537.32 1689.58 540.375 1694.19 Q543.454 1698.77 543.454 1707.52 Q543.454 1716.25 540.375 1720.86 Q537.32 1725.44 531.509 1725.44 Q525.699 1725.44 522.621 1720.86 Q519.565 1716.25 519.565 1707.52 Q519.565 1698.77 522.621 1694.19 Q525.699 1689.58 531.509 1689.58 Z" fill="#000000" fill-rule="nonzero" fill-opacity="1" /><path clip-path="url(#clip790)" d="M551.671 1718.89 L556.556 1718.89 L556.556 1724.77 L551.671 1724.77 L551.671 1718.89 Z" fill="#000000" fill-rule="nonzero" fill-opacity="1" /><path clip-path="url(#clip790)" d="M570.768 1720.83 L587.088 1720.83 L587.088 1724.77 L565.143 1724.77 L565.143 1720.83 Q567.806 1718.08 572.389 1713.45 Q576.995 1708.8 578.176 1707.45 Q580.421 1704.93 581.301 1703.19 Q582.204 1701.43 582.204 1699.74 Q582.204 1696.99 580.259 1695.25 Q578.338 1693.52 575.236 1693.52 Q573.037 1693.52 570.583 1694.28 Q568.153 1695.05 565.375 1696.6 L565.375 1691.87 Q568.199 1690.74 570.653 1690.16 Q573.106 1689.58 575.143 1689.58 Q580.514 1689.58 583.708 1692.27 Q586.903 1694.95 586.903 1699.44 Q586.903 1701.57 586.092 1703.49 Q585.305 1705.39 583.199 1707.99 Q582.62 1708.66 579.518 1711.87 Q576.417 1715.07 570.768 1720.83 Z" fill="#000000" fill-rule="nonzero" fill-opacity="1" /><path clip-path="url(#clip790)" d="M596.949 1690.21 L615.305 1690.21 L615.305 1694.14 L601.231 1694.14 L601.231 1702.62 Q602.25 1702.27 603.268 1702.11 Q604.287 1701.92 605.305 1701.92 Q611.092 1701.92 614.472 1705.09 Q617.852 1708.26 617.852 1713.68 Q617.852 1719.26 614.379 1722.36 Q610.907 1725.44 604.588 1725.44 Q602.412 1725.44 600.143 1725.07 Q597.898 1724.7 595.491 1723.96 L595.491 1719.26 Q597.574 1720.39 599.796 1720.95 Q602.018 1721.5 604.495 1721.5 Q608.5 1721.5 610.838 1719.4 Q613.176 1717.29 613.176 1713.68 Q613.176 1710.07 610.838 1707.96 Q608.5 1705.86 604.495 1705.86 Q602.62 1705.86 600.745 1706.27 Q598.893 1706.69 596.949 1707.57 L596.949 1690.21 Z" fill="#000000" fill-rule="nonzero" fill-opacity="1" /><path clip-path="url(#clip790)" d="M914.032 1693.29 Q910.421 1693.29 908.592 1696.85 Q906.786 1700.39 906.786 1707.52 Q906.786 1714.63 908.592 1718.19 Q910.421 1721.74 914.032 1721.74 Q917.666 1721.74 919.471 1718.19 Q921.3 1714.63 921.3 1707.52 Q921.3 1700.39 919.471 1696.85 Q917.666 1693.29 914.032 1693.29 M914.032 1689.58 Q919.842 1689.58 922.897 1694.19 Q925.976 1698.77 925.976 1707.52 Q925.976 1716.25 922.897 1720.86 Q919.842 1725.44 914.032 1725.44 Q908.222 1725.44 905.143 1720.86 Q902.087 1716.25 902.087 1707.52 Q902.087 1698.77 905.143 1694.19 Q908.222 1689.58 914.032 1689.58 Z" fill="#000000" fill-rule="nonzero" fill-opacity="1" /><path clip-path="url(#clip790)" d="M934.194 1718.89 L939.078 1718.89 L939.078 1724.77 L934.194 1724.77 L934.194 1718.89 Z" fill="#000000" fill-rule="nonzero" fill-opacity="1" /><path clip-path="url(#clip790)" d="M949.309 1690.21 L967.666 1690.21 L967.666 1694.14 L953.592 1694.14 L953.592 1702.62 Q954.61 1702.27 955.629 1702.11 Q956.647 1701.92 957.666 1701.92 Q963.453 1701.92 966.832 1705.09 Q970.212 1708.26 970.212 1713.68 Q970.212 1719.26 966.74 1722.36 Q963.268 1725.44 956.948 1725.44 Q954.772 1725.44 952.504 1725.07 Q950.258 1724.7 947.851 1723.96 L947.851 1719.26 Q949.934 1720.39 952.156 1720.95 Q954.379 1721.5 956.856 1721.5 Q960.86 1721.5 963.198 1719.4 Q965.536 1717.29 965.536 1713.68 Q965.536 1710.07 963.198 1707.96 Q960.86 1705.86 956.856 1705.86 Q954.981 1705.86 953.106 1706.27 Q951.254 1706.69 949.309 1707.57 L949.309 1690.21 Z" fill="#000000" fill-rule="nonzero" fill-opacity="1" /><path clip-path="url(#clip790)" d="M989.425 1693.29 Q985.814 1693.29 983.985 1696.85 Q982.179 1700.39 982.179 1707.52 Q982.179 1714.63 983.985 1718.19 Q985.814 1721.74 989.425 1721.74 Q993.059 1721.74 994.865 1718.19 Q996.693 1714.63 996.693 1707.52 Q996.693 1700.39 994.865 1696.85 Q993.059 1693.29 989.425 1693.29 M989.425 1689.58 Q995.235 1689.58 998.29 1694.19 Q1001.37 1698.77 1001.37 1707.52 Q1001.37 1716.25 998.29 1720.86 Q995.235 1725.44 989.425 1725.44 Q983.615 1725.44 980.536 1720.86 Q977.48 1716.25 977.48 1707.52 Q977.48 1698.77 980.536 1694.19 Q983.615 1689.58 989.425 1689.58 Z" fill="#000000" fill-rule="nonzero" fill-opacity="1" /><path clip-path="url(#clip790)" d="M1297.55 1693.29 Q1293.94 1693.29 1292.11 1696.85 Q1290.3 1700.39 1290.3 1707.52 Q1290.3 1714.63 1292.11 1718.19 Q1293.94 1721.74 1297.55 1721.74 Q1301.18 1721.74 1302.99 1718.19 Q1304.82 1714.63 1304.82 1707.52 Q1304.82 1700.39 1302.99 1696.85 Q1301.18 1693.29 1297.55 1693.29 M1297.55 1689.58 Q1303.36 1689.58 1306.42 1694.19 Q1309.49 1698.77 1309.49 1707.52 Q1309.49 1716.25 1306.42 1720.86 Q1303.36 1725.44 1297.55 1725.44 Q1291.74 1725.44 1288.66 1720.86 Q1285.6 1716.25 1285.6 1707.52 Q1285.6 1698.77 1288.66 1694.19 Q1291.74 1689.58 1297.55 1689.58 Z" fill="#000000" fill-rule="nonzero" fill-opacity="1" /><path clip-path="url(#clip790)" d="M1317.71 1718.89 L1322.6 1718.89 L1322.6 1724.77 L1317.71 1724.77 L1317.71 1718.89 Z" fill="#000000" fill-rule="nonzero" fill-opacity="1" /><path clip-path="url(#clip790)" d="M1331.6 1690.21 L1353.82 1690.21 L1353.82 1692.2 L1341.28 1724.77 L1336.39 1724.77 L1348.2 1694.14 L1331.6 1694.14 L1331.6 1690.21 Z" fill="#000000" fill-rule="nonzero" fill-opacity="1" /><path clip-path="url(#clip790)" d="M1362.99 1690.21 L1381.35 1690.21 L1381.35 1694.14 L1367.27 1694.14 L1367.27 1702.62 Q1368.29 1702.27 1369.31 1702.11 Q1370.33 1701.92 1371.35 1701.92 Q1377.13 1701.92 1380.51 1705.09 Q1383.89 1708.26 1383.89 1713.68 Q1383.89 1719.26 1380.42 1722.36 Q1376.95 1725.44 1370.63 1725.44 Q1368.45 1725.44 1366.18 1725.07 Q1363.94 1724.7 1361.53 1723.96 L1361.53 1719.26 Q1363.61 1720.39 1365.84 1720.95 Q1368.06 1721.5 1370.54 1721.5 Q1374.54 1721.5 1376.88 1719.4 Q1379.22 1717.29 1379.22 1713.68 Q1379.22 1710.07 1376.88 1707.96 Q1374.54 1705.86 1370.54 1705.86 Q1368.66 1705.86 1366.79 1706.27 Q1364.93 1706.69 1362.99 1707.57 L1362.99 1690.21 Z" fill="#000000" fill-rule="nonzero" fill-opacity="1" /><path clip-path="url(#clip790)" d="M1669.84 1720.83 L1677.48 1720.83 L1677.48 1694.47 L1669.17 1696.13 L1669.17 1691.87 L1677.43 1690.21 L1682.11 1690.21 L1682.11 1720.83 L1689.75 1720.83 L1689.75 1724.77 L1669.84 1724.77 L1669.84 1720.83 Z" fill="#000000" fill-rule="nonzero" fill-opacity="1" /><path clip-path="url(#clip790)" d="M1699.19 1718.89 L1704.08 1718.89 L1704.08 1724.77 L1699.19 1724.77 L1699.19 1718.89 Z" fill="#000000" fill-rule="nonzero" fill-opacity="1" /><path clip-path="url(#clip790)" d="M1724.26 1693.29 Q1720.65 1693.29 1718.82 1696.85 Q1717.02 1700.39 1717.02 1707.52 Q1717.02 1714.63 1718.82 1718.19 Q1720.65 1721.74 1724.26 1721.74 Q1727.9 1721.74 1729.7 1718.19 Q1731.53 1714.63 1731.53 1707.52 Q1731.53 1700.39 1729.7 1696.85 Q1727.9 1693.29 1724.26 1693.29 M1724.26 1689.58 Q1730.07 1689.58 1733.13 1694.19 Q1736.21 1698.77 1736.21 1707.52 Q1736.21 1716.25 1733.13 1720.86 Q1730.07 1725.44 1724.26 1725.44 Q1718.45 1725.44 1715.37 1720.86 Q1712.32 1716.25 1712.32 1707.52 Q1712.32 1698.77 1715.37 1694.19 Q1718.45 1689.58 1724.26 1689.58 Z" fill="#000000" fill-rule="nonzero" fill-opacity="1" /><path clip-path="url(#clip790)" d="M1754.42 1693.29 Q1750.81 1693.29 1748.98 1696.85 Q1747.18 1700.39 1747.18 1707.52 Q1747.18 1714.63 1748.98 1718.19 Q1750.81 1721.74 1754.42 1721.74 Q1758.06 1721.74 1759.86 1718.19 Q1761.69 1714.63 1761.69 1707.52 Q1761.69 1700.39 1759.86 1696.85 Q1758.06 1693.29 1754.42 1693.29 M1754.42 1689.58 Q1760.23 1689.58 1763.29 1694.19 Q1766.37 1698.77 1766.37 1707.52 Q1766.37 1716.25 1763.29 1720.86 Q1760.23 1725.44 1754.42 1725.44 Q1748.61 1725.44 1745.53 1720.86 Q1742.48 1716.25 1742.48 1707.52 Q1742.48 1698.77 1745.53 1694.19 Q1748.61 1689.58 1754.42 1689.58 Z" fill="#000000" fill-rule="nonzero" fill-opacity="1" /><polyline clip-path="url(#clip792)" style="stroke:#000000; stroke-linecap:round; stroke-linejoin:round; stroke-width:2; stroke-opacity:0.1; fill:none" points="150.598,1624.33 1752.76,1624.33 "/>
<polyline clip-path="url(#clip792)" style="stroke:#000000; stroke-linecap:round; stroke-linejoin:round; stroke-width:2; stroke-opacity:0.1; fill:none" points="150.598,1343.36 1752.76,1343.36 "/>
<polyline clip-path="url(#clip792)" style="stroke:#000000; stroke-linecap:round; stroke-linejoin:round; stroke-width:2; stroke-opacity:0.1; fill:none" points="150.598,1062.39 1752.76,1062.39 "/>
<polyline clip-path="url(#clip792)" style="stroke:#000000; stroke-linecap:round; stroke-linejoin:round; stroke-width:2; stroke-opacity:0.1; fill:none" points="150.598,781.415 1752.76,781.415 "/>
<polyline clip-path="url(#clip792)" style="stroke:#000000; stroke-linecap:round; stroke-linejoin:round; stroke-width:2; stroke-opacity:0.1; fill:none" points="150.598,500.442 1752.76,500.442 "/>
<polyline clip-path="url(#clip792)" style="stroke:#000000; stroke-linecap:round; stroke-linejoin:round; stroke-width:2; stroke-opacity:0.1; fill:none" points="150.598,219.469 1752.76,219.469 "/>
<polyline clip-path="url(#clip790)" style="stroke:#000000; stroke-linecap:round; stroke-linejoin:round; stroke-width:4; stroke-opacity:1; fill:none" points="150.598,1667.17 150.598,153.712 "/>
<polyline clip-path="url(#clip790)" style="stroke:#000000; stroke-linecap:round; stroke-linejoin:round; stroke-width:4; stroke-opacity:1; fill:none" points="150.598,1624.33 169.496,1624.33 "/>
<polyline clip-path="url(#clip790)" style="stroke:#000000; stroke-linecap:round; stroke-linejoin:round; stroke-width:4; stroke-opacity:1; fill:none" points="150.598,1343.36 169.496,1343.36 "/>
<polyline clip-path="url(#clip790)" style="stroke:#000000; stroke-linecap:round; stroke-linejoin:round; stroke-width:4; stroke-opacity:1; fill:none" points="150.598,1062.39 169.496,1062.39 "/>
<polyline clip-path="url(#clip790)" style="stroke:#000000; stroke-linecap:round; stroke-linejoin:round; stroke-width:4; stroke-opacity:1; fill:none" points="150.598,781.415 169.496,781.415 "/>
<polyline clip-path="url(#clip790)" style="stroke:#000000; stroke-linecap:round; stroke-linejoin:round; stroke-width:4; stroke-opacity:1; fill:none" points="150.598,500.442 169.496,500.442 "/>
<polyline clip-path="url(#clip790)" style="stroke:#000000; stroke-linecap:round; stroke-linejoin:round; stroke-width:4; stroke-opacity:1; fill:none" points="150.598,219.469 169.496,219.469 "/>
<path clip-path="url(#clip790)" d="M66.4226 1610.13 Q62.8115 1610.13 60.9828 1613.7 Q59.1773 1617.24 59.1773 1624.37 Q59.1773 1631.48 60.9828 1635.04 Q62.8115 1638.58 66.4226 1638.58 Q70.0569 1638.58 71.8624 1635.04 Q73.6911 1631.48 73.6911 1624.37 Q73.6911 1617.24 71.8624 1613.7 Q70.0569 1610.13 66.4226 1610.13 M66.4226 1606.43 Q72.2328 1606.43 75.2883 1611.04 Q78.367 1615.62 78.367 1624.37 Q78.367 1633.1 75.2883 1637.7 Q72.2328 1642.29 66.4226 1642.29 Q60.6125 1642.29 57.5338 1637.7 Q54.4782 1633.1 54.4782 1624.37 Q54.4782 1615.62 57.5338 1611.04 Q60.6125 1606.43 66.4226 1606.43 Z" fill="#000000" fill-rule="nonzero" fill-opacity="1" /><path clip-path="url(#clip790)" d="M86.5845 1635.73 L91.4688 1635.73 L91.4688 1641.61 L86.5845 1641.61 L86.5845 1635.73 Z" fill="#000000" fill-rule="nonzero" fill-opacity="1" /><path clip-path="url(#clip790)" d="M111.654 1610.13 Q108.043 1610.13 106.214 1613.7 Q104.409 1617.24 104.409 1624.37 Q104.409 1631.48 106.214 1635.04 Q108.043 1638.58 111.654 1638.58 Q115.288 1638.58 117.094 1635.04 Q118.922 1631.48 118.922 1624.37 Q118.922 1617.24 117.094 1613.7 Q115.288 1610.13 111.654 1610.13 M111.654 1606.43 Q117.464 1606.43 120.52 1611.04 Q123.598 1615.62 123.598 1624.37 Q123.598 1633.1 120.52 1637.7 Q117.464 1642.29 111.654 1642.29 Q105.844 1642.29 102.765 1637.7 Q99.7095 1633.1 99.7095 1624.37 Q99.7095 1615.62 102.765 1611.04 Q105.844 1606.43 111.654 1606.43 Z" fill="#000000" fill-rule="nonzero" fill-opacity="1" /><path clip-path="url(#clip790)" d="M67.6495 1329.16 Q64.0384 1329.16 62.2097 1332.72 Q60.4041 1336.27 60.4041 1343.4 Q60.4041 1350.5 62.2097 1354.07 Q64.0384 1357.61 67.6495 1357.61 Q71.2837 1357.61 73.0892 1354.07 Q74.9179 1350.5 74.9179 1343.4 Q74.9179 1336.27 73.0892 1332.72 Q71.2837 1329.16 67.6495 1329.16 M67.6495 1325.46 Q73.4596 1325.46 76.5152 1330.06 Q79.5938 1334.65 79.5938 1343.4 Q79.5938 1352.12 76.5152 1356.73 Q73.4596 1361.31 67.6495 1361.31 Q61.8393 1361.31 58.7606 1356.73 Q55.7051 1352.12 55.7051 1343.4 Q55.7051 1334.65 58.7606 1330.06 Q61.8393 1325.46 67.6495 1325.46 Z" fill="#000000" fill-rule="nonzero" fill-opacity="1" /><path clip-path="url(#clip790)" d="M87.8114 1354.76 L92.6956 1354.76 L92.6956 1360.64 L87.8114 1360.64 L87.8114 1354.76 Z" fill="#000000" fill-rule="nonzero" fill-opacity="1" /><path clip-path="url(#clip790)" d="M103.691 1356.71 L111.33 1356.71 L111.33 1330.34 L103.02 1332.01 L103.02 1327.75 L111.283 1326.08 L115.959 1326.08 L115.959 1356.71 L123.598 1356.71 L123.598 1360.64 L103.691 1360.64 L103.691 1356.71 Z" fill="#000000" fill-rule="nonzero" fill-opacity="1" /><path clip-path="url(#clip790)" d="M68.0198 1048.19 Q64.4087 1048.19 62.58 1051.75 Q60.7745 1055.29 60.7745 1062.42 Q60.7745 1069.53 62.58 1073.09 Q64.4087 1076.64 68.0198 1076.64 Q71.6541 1076.64 73.4596 1073.09 Q75.2883 1069.53 75.2883 1062.42 Q75.2883 1055.29 73.4596 1051.75 Q71.6541 1048.19 68.0198 1048.19 M68.0198 1044.48 Q73.83 1044.48 76.8855 1049.09 Q79.9642 1053.67 79.9642 1062.42 Q79.9642 1071.15 76.8855 1075.76 Q73.83 1080.34 68.0198 1080.34 Q62.2097 1080.34 59.131 1075.76 Q56.0754 1071.15 56.0754 1062.42 Q56.0754 1053.67 59.131 1049.09 Q62.2097 1044.48 68.0198 1044.48 Z" fill="#000000" fill-rule="nonzero" fill-opacity="1" /><path clip-path="url(#clip790)" d="M88.1818 1073.79 L93.066 1073.79 L93.066 1079.67 L88.1818 1079.67 L88.1818 1073.79 Z" fill="#000000" fill-rule="nonzero" fill-opacity="1" /><path clip-path="url(#clip790)" d="M107.279 1075.73 L123.598 1075.73 L123.598 1079.67 L101.654 1079.67 L101.654 1075.73 Q104.316 1072.98 108.899 1068.35 Q113.506 1063.7 114.686 1062.35 Q116.932 1059.83 117.811 1058.09 Q118.714 1056.33 118.714 1054.64 Q118.714 1051.89 116.77 1050.15 Q114.848 1048.42 111.746 1048.42 Q109.547 1048.42 107.094 1049.18 Q104.663 1049.95 101.885 1051.5 L101.885 1046.77 Q104.709 1045.64 107.163 1045.06 Q109.617 1044.48 111.654 1044.48 Q117.024 1044.48 120.219 1047.17 Q123.413 1049.85 123.413 1054.34 Q123.413 1056.47 122.603 1058.39 Q121.816 1060.29 119.709 1062.89 Q119.131 1063.56 116.029 1066.77 Q112.927 1069.97 107.279 1075.73 Z" fill="#000000" fill-rule="nonzero" fill-opacity="1" /><path clip-path="url(#clip790)" d="M67.0708 767.214 Q63.4597 767.214 61.631 770.778 Q59.8254 774.32 59.8254 781.45 Q59.8254 788.556 61.631 792.121 Q63.4597 795.662 67.0708 795.662 Q70.705 795.662 72.5105 792.121 Q74.3392 788.556 74.3392 781.45 Q74.3392 774.32 72.5105 770.778 Q70.705 767.214 67.0708 767.214 M67.0708 763.51 Q72.8809 763.51 75.9365 768.116 Q79.0151 772.7 79.0151 781.45 Q79.0151 790.176 75.9365 794.783 Q72.8809 799.366 67.0708 799.366 Q61.2606 799.366 58.1819 794.783 Q55.1264 790.176 55.1264 781.45 Q55.1264 772.7 58.1819 768.116 Q61.2606 763.51 67.0708 763.51 Z" fill="#000000" fill-rule="nonzero" fill-opacity="1" /><path clip-path="url(#clip790)" d="M87.2327 792.815 L92.1169 792.815 L92.1169 798.695 L87.2327 798.695 L87.2327 792.815 Z" fill="#000000" fill-rule="nonzero" fill-opacity="1" /><path clip-path="url(#clip790)" d="M116.469 780.061 Q119.825 780.778 121.7 783.047 Q123.598 785.315 123.598 788.649 Q123.598 793.764 120.08 796.565 Q116.561 799.366 110.08 799.366 Q107.904 799.366 105.589 798.926 Q103.297 798.51 100.844 797.653 L100.844 793.139 Q102.788 794.274 105.103 794.852 Q107.418 795.431 109.941 795.431 Q114.339 795.431 116.631 793.695 Q118.945 791.959 118.945 788.649 Q118.945 785.593 116.793 783.88 Q114.663 782.144 110.844 782.144 L106.816 782.144 L106.816 778.301 L111.029 778.301 Q114.478 778.301 116.307 776.936 Q118.135 775.547 118.135 772.954 Q118.135 770.292 116.237 768.88 Q114.362 767.445 110.844 767.445 Q108.922 767.445 106.723 767.862 Q104.524 768.278 101.885 769.158 L101.885 764.991 Q104.547 764.251 106.862 763.88 Q109.2 763.51 111.26 763.51 Q116.584 763.51 119.686 765.94 Q122.788 768.348 122.788 772.468 Q122.788 775.339 121.145 777.329 Q119.501 779.297 116.469 780.061 Z" fill="#000000" fill-rule="nonzero" fill-opacity="1" /><path clip-path="url(#clip790)" d="M65.9365 486.24 Q62.3254 486.24 60.4967 489.805 Q58.6912 493.347 58.6912 500.476 Q58.6912 507.583 60.4967 511.148 Q62.3254 514.689 65.9365 514.689 Q69.5707 514.689 71.3763 511.148 Q73.205 507.583 73.205 500.476 Q73.205 493.347 71.3763 489.805 Q69.5707 486.24 65.9365 486.24 M65.9365 482.537 Q71.7467 482.537 74.8022 487.143 Q77.8809 491.727 77.8809 500.476 Q77.8809 509.203 74.8022 513.81 Q71.7467 518.393 65.9365 518.393 Q60.1264 518.393 57.0477 513.81 Q53.9921 509.203 53.9921 500.476 Q53.9921 491.727 57.0477 487.143 Q60.1264 482.537 65.9365 482.537 Z" fill="#000000" fill-rule="nonzero" fill-opacity="1" /><path clip-path="url(#clip790)" d="M86.0984 511.842 L90.9827 511.842 L90.9827 517.722 L86.0984 517.722 L86.0984 511.842 Z" fill="#000000" fill-rule="nonzero" fill-opacity="1" /><path clip-path="url(#clip790)" d="M114.015 487.236 L102.209 505.685 L114.015 505.685 L114.015 487.236 M112.788 483.162 L118.668 483.162 L118.668 505.685 L123.598 505.685 L123.598 509.574 L118.668 509.574 L118.668 517.722 L114.015 517.722 L114.015 509.574 L98.4132 509.574 L98.4132 505.06 L112.788 483.162 Z" fill="#000000" fill-rule="nonzero" fill-opacity="1" /><path clip-path="url(#clip790)" d="M67.418 205.267 Q63.8069 205.267 61.9782 208.832 Q60.1726 212.374 60.1726 219.503 Q60.1726 226.61 61.9782 230.175 Q63.8069 233.716 67.418 233.716 Q71.0522 233.716 72.8578 230.175 Q74.6865 226.61 74.6865 219.503 Q74.6865 212.374 72.8578 208.832 Q71.0522 205.267 67.418 205.267 M67.418 201.564 Q73.2281 201.564 76.2837 206.17 Q79.3624 210.753 79.3624 219.503 Q79.3624 228.23 76.2837 232.837 Q73.2281 237.42 67.418 237.42 Q61.6078 237.42 58.5291 232.837 Q55.4736 228.23 55.4736 219.503 Q55.4736 210.753 58.5291 206.17 Q61.6078 201.564 67.418 201.564 Z" fill="#000000" fill-rule="nonzero" fill-opacity="1" /><path clip-path="url(#clip790)" d="M87.5799 230.869 L92.4641 230.869 L92.4641 236.749 L87.5799 236.749 L87.5799 230.869 Z" fill="#000000" fill-rule="nonzero" fill-opacity="1" /><path clip-path="url(#clip790)" d="M102.696 202.189 L121.052 202.189 L121.052 206.124 L106.978 206.124 L106.978 214.596 Q107.996 214.249 109.015 214.087 Q110.033 213.902 111.052 213.902 Q116.839 213.902 120.219 217.073 Q123.598 220.244 123.598 225.661 Q123.598 231.239 120.126 234.341 Q116.654 237.42 110.334 237.42 Q108.159 237.42 105.89 237.05 Q103.645 236.679 101.237 235.938 L101.237 231.239 Q103.321 232.374 105.543 232.929 Q107.765 233.485 110.242 233.485 Q114.246 233.485 116.584 231.378 Q118.922 229.272 118.922 225.661 Q118.922 222.05 116.584 219.943 Q114.246 217.837 110.242 217.837 Q108.367 217.837 106.492 218.253 Q104.64 218.67 102.696 219.55 L102.696 202.189 Z" fill="#000000" fill-rule="nonzero" fill-opacity="1" /><path clip-path="url(#clip790)" d="M787.393 18.8205 L787.393 41.5461 L797.682 41.5461 Q803.394 41.5461 806.513 38.5889 Q809.632 35.6318 809.632 30.163 Q809.632 24.7348 806.513 21.7777 Q803.394 18.8205 797.682 18.8205 L787.393 18.8205 M779.21 12.096 L797.682 12.096 Q807.85 12.096 813.035 16.714 Q818.261 21.2916 818.261 30.163 Q818.261 39.1155 813.035 43.6931 Q807.85 48.2706 797.682 48.2706 L787.393 48.2706 L787.393 72.576 L779.21 72.576 L779.21 12.096 Z" fill="#000000" fill-rule="nonzero" fill-opacity="1" /><path clip-path="url(#clip790)" d="M853.746 34.1734 Q852.491 33.4443 850.992 33.1202 Q849.534 32.7556 847.751 32.7556 Q841.432 32.7556 838.029 36.8875 Q834.667 40.9789 834.667 48.6757 L834.667 72.576 L827.173 72.576 L827.173 27.2059 L834.667 27.2059 L834.667 34.2544 Q837.016 30.1225 840.784 28.1376 Q844.551 26.1121 849.939 26.1121 Q850.708 26.1121 851.64 26.2337 Q852.572 26.3147 853.706 26.5172 L853.746 34.1734 Z" fill="#000000" fill-rule="nonzero" fill-opacity="1" /><path clip-path="url(#clip790)" d="M861.565 27.2059 L869.018 27.2059 L869.018 72.576 L861.565 72.576 L861.565 27.2059 M861.565 9.54393 L869.018 9.54393 L869.018 18.9825 L861.565 18.9825 L861.565 9.54393 Z" fill="#000000" fill-rule="nonzero" fill-opacity="1" /><path clip-path="url(#clip790)" d="M902.195 32.4315 Q896.2 32.4315 892.716 37.1306 Q889.232 41.7891 889.232 49.9314 Q889.232 58.0738 892.676 62.7728 Q896.159 67.4314 902.195 67.4314 Q908.15 67.4314 911.634 62.7323 Q915.118 58.0333 915.118 49.9314 Q915.118 41.8701 911.634 37.1711 Q908.15 32.4315 902.195 32.4315 M902.195 26.1121 Q911.917 26.1121 917.467 32.4315 Q923.017 38.7509 923.017 49.9314 Q923.017 61.0714 917.467 67.4314 Q911.917 73.7508 902.195 73.7508 Q892.433 73.7508 886.883 67.4314 Q881.374 61.0714 881.374 49.9314 Q881.374 38.7509 886.883 32.4315 Q892.433 26.1121 902.195 26.1121 Z" fill="#000000" fill-rule="nonzero" fill-opacity="1" /><path clip-path="url(#clip790)" d="M961.663 34.1734 Q960.407 33.4443 958.908 33.1202 Q957.45 32.7556 955.667 32.7556 Q949.348 32.7556 945.945 36.8875 Q942.583 40.9789 942.583 48.6757 L942.583 72.576 L935.089 72.576 L935.089 27.2059 L942.583 27.2059 L942.583 34.2544 Q944.932 30.1225 948.7 28.1376 Q952.467 26.1121 957.855 26.1121 Q958.624 26.1121 959.556 26.2337 Q960.488 26.3147 961.622 26.5172 L961.663 34.1734 Z" fill="#000000" fill-rule="nonzero" fill-opacity="1" /><path clip-path="url(#clip790)" d="M1003.06 65.7705 L1003.06 89.8329 L995.569 89.8329 L995.569 27.2059 L1003.06 27.2059 L1003.06 34.0924 Q1005.41 30.0415 1008.98 28.0971 Q1012.58 26.1121 1017.57 26.1121 Q1025.83 26.1121 1030.97 32.6746 Q1036.16 39.2371 1036.16 49.9314 Q1036.16 60.6258 1030.97 67.1883 Q1025.83 73.7508 1017.57 73.7508 Q1012.58 73.7508 1008.98 71.8063 Q1005.41 69.8214 1003.06 65.7705 M1028.42 49.9314 Q1028.42 41.7081 1025.02 37.0496 Q1021.66 32.3505 1015.74 32.3505 Q1009.83 32.3505 1006.43 37.0496 Q1003.06 41.7081 1003.06 49.9314 Q1003.06 58.1548 1006.43 62.8538 Q1009.83 67.5124 1015.74 67.5124 Q1021.66 67.5124 1025.02 62.8538 Q1028.42 58.1548 1028.42 49.9314 Z" fill="#000000" fill-rule="nonzero" fill-opacity="1" /><path clip-path="url(#clip790)" d="M1078.37 34.0924 L1078.37 9.54393 L1085.82 9.54393 L1085.82 72.576 L1078.37 72.576 L1078.37 65.7705 Q1076.02 69.8214 1072.41 71.8063 Q1068.85 73.7508 1063.83 73.7508 Q1055.6 73.7508 1050.42 67.1883 Q1045.27 60.6258 1045.27 49.9314 Q1045.27 39.2371 1050.42 32.6746 Q1055.6 26.1121 1063.83 26.1121 Q1068.85 26.1121 1072.41 28.0971 Q1076.02 30.0415 1078.37 34.0924 M1052.97 49.9314 Q1052.97 58.1548 1056.33 62.8538 Q1059.73 67.5124 1065.65 67.5124 Q1071.56 67.5124 1074.97 62.8538 Q1078.37 58.1548 1078.37 49.9314 Q1078.37 41.7081 1074.97 37.0496 Q1071.56 32.3505 1065.65 32.3505 Q1059.73 32.3505 1056.33 37.0496 Q1052.97 41.7081 1052.97 49.9314 Z" fill="#000000" fill-rule="nonzero" fill-opacity="1" /><path clip-path="url(#clip790)" d="M1124.14 9.54393 L1124.14 15.7418 L1117.01 15.7418 Q1113 15.7418 1111.42 17.3622 Q1109.89 18.9825 1109.89 23.1955 L1109.89 27.2059 L1122.16 27.2059 L1122.16 32.9987 L1109.89 32.9987 L1109.89 72.576 L1102.39 72.576 L1102.39 32.9987 L1095.26 32.9987 L1095.26 27.2059 L1102.39 27.2059 L1102.39 24.0462 Q1102.39 16.471 1105.92 13.0277 Q1109.44 9.54393 1117.1 9.54393 L1124.14 9.54393 Z" fill="#000000" fill-rule="nonzero" fill-opacity="1" /><polyline clip-path="url(#clip792)" style="stroke:#009af9; stroke-linecap:round; stroke-linejoin:round; stroke-width:8; stroke-opacity:1; fill:none" points="195.942,1624.33 196.096,1624.33 196.252,1624.33 196.411,1624.33 196.572,1624.33 196.735,1624.33 196.901,1624.33 197.069,1624.33 197.24,1624.33 197.413,1624.33 197.589,1624.33 197.767,1624.33 197.948,1624.33 198.132,1624.33 198.319,1624.33 198.508,1624.33 198.7,1624.33 198.895,1624.33 199.093,1624.33 199.294,1624.33 199.497,1624.33 199.704,1624.33 199.914,1624.33 200.127,1624.33 200.343,1624.33 200.562,1624.33 200.785,1624.33 201.011,1624.33 201.24,1624.33 201.473,1624.33 201.709,1624.33 201.948,1624.33 202.191,1624.33 202.438,1624.33 202.689,1624.33 202.943,1624.33 203.2,1624.33 203.462,1624.33 203.727,1624.33 203.997,1624.33 204.27,1624.33 204.547,1624.33 204.829,1624.33 205.115,1624.33 205.404,1624.33 205.698,1624.33 205.997,1624.33 206.3,1624.33 206.607,1624.33 206.919,1624.33 207.235,1624.33 207.556,1624.33 207.882,1624.33 208.212,1624.33 208.547,1624.33 208.888,1624.33 209.233,1624.33 209.583,1624.33 209.939,1624.33 210.299,1624.33 210.665,1624.33 211.036,1624.33 211.413,1624.33 211.795,1624.33 212.183,1624.33 212.576,1624.33 212.975,1624.33 213.38,1624.33 213.791,1624.33 214.208,1624.33 214.631,1624.33 215.06,1624.33 215.495,1624.33 215.937,1624.33 216.385,1624.33 216.839,1624.33 217.3,1624.33 217.768,1624.33 218.242,1624.33 218.724,1624.33 219.212,1624.33 219.708,1624.33 220.21,1624.33 220.72,1624.33 221.237,1624.33 221.762,1624.33 222.294,1624.33 222.834,1624.33 223.381,1624.33 223.937,1624.33 224.5,1624.33 225.072,1624.33 225.651,1624.33 226.239,1624.33 226.836,1624.33 227.441,1624.33 228.054,1624.33 228.676,1624.33 229.308,1624.33 229.948,1624.33 230.597,1624.33 231.256,1624.33 231.923,1624.33 232.601,1624.33 233.288,1624.33 233.984,1624.33 234.691,1624.33 235.408,1624.33 236.134,1624.33 236.871,1624.33 237.618,1624.33 238.376,1624.33 239.145,1624.33 239.924,1624.33 240.714,1624.33 241.516,1624.33 242.328,1624.33 243.152,1624.33 243.987,1624.33 244.834,1624.33 245.693,1624.33 246.564,1624.33 247.447,1624.33 248.342,1624.33 249.25,1624.33 250.17,1624.33 251.103,1624.33 252.049,1624.33 253.008,1624.33 253.98,1624.33 254.965,1624.33 255.964,1624.33 256.977,1624.33 258.003,1624.33 259.044,1624.33 260.099,1624.33 261.168,1624.33 262.252,1624.33 263.35,1624.33 264.463,1624.33 265.592,1624.33 266.735,1624.33 267.895,1624.32 269.069,1624.32 270.26,1624.32 271.467,1624.32 272.689,1624.32 273.928,1624.32 275.184,1624.32 276.457,1624.32 277.746,1624.31 279.052,1624.31 280.376,1624.31 281.718,1624.31 283.077,1624.3 284.454,1624.3 285.849,1624.3 287.262,1624.3 288.694,1624.29 290.144,1624.29 291.614,1624.28 293.103,1624.28 294.61,1624.28 296.138,1624.27 297.685,1624.26 299.252,1624.26 300.84,1624.25 302.447,1624.24 304.076,1624.24 305.725,1624.23 307.395,1624.22 309.086,1624.21 310.798,1624.2 312.533,1624.19 314.289,1624.17 316.067,1624.16 317.867,1624.15 319.69,1624.13 321.536,1624.11 323.404,1624.09 325.296,1624.07 327.211,1624.05 329.15,1624.03 331.112,1624 333.098,1623.98 335.109,1623.95 337.144,1623.92 339.203,1623.88 341.288,1623.85 343.397,1623.81 345.532,1623.77 347.692,1623.73 349.878,1623.68 352.09,1623.63 354.328,1623.57 356.593,1623.51 358.884,1623.45 361.201,1623.38 363.546,1623.31 365.918,1623.23 368.317,1623.15 370.743,1623.06 373.198,1622.97 375.68,1622.87 378.191,1622.76 380.73,1622.65 383.297,1622.53 385.894,1622.4 388.519,1622.26 391.173,1622.11 393.856,1621.95 396.569,1621.78 399.312,1621.6 402.085,1621.41 404.887,1621.21 407.72,1621 410.583,1620.77 413.476,1620.52 416.401,1620.26 419.356,1619.99 422.341,1619.7 425.359,1619.39 428.407,1619.06 431.487,1618.72 434.598,1618.35 437.741,1617.96 440.915,1617.55 444.122,1617.11 447.361,1616.65 450.631,1616.16 453.934,1615.64 457.27,1615.1 460.638,1614.52 464.038,1613.91 467.471,1613.27 470.937,1612.6 474.435,1611.88 477.967,1611.13 481.531,1610.34 485.128,1609.5 488.758,1608.62 492.422,1607.7 496.118,1606.73 499.848,1605.7 503.61,1604.63 507.406,1603.5 511.235,1602.31 515.097,1601.07 518.993,1599.76 522.921,1598.39 526.883,1596.95 530.877,1595.45 534.905,1593.87 538.966,1592.22 543.06,1590.49 547.186,1588.68 551.346,1586.78 555.538,1584.8 559.763,1582.74 564.02,1580.58 568.31,1578.32 572.632,1575.97 576.986,1573.51 581.373,1570.95 585.791,1568.28 590.241,1565.5 594.723,1562.6 599.236,1559.58 603.78,1556.44 608.356,1553.18 612.962,1549.78 617.599,1546.26 622.267,1542.59 626.964,1538.78 631.692,1534.83 636.449,1530.73 641.236,1526.48 646.052,1522.07 650.897,1517.51 655.77,1512.78 660.672,1507.88 665.602,1502.81 670.56,1497.57 675.545,1492.15 680.556,1486.55 685.595,1480.76 690.66,1474.79 695.751,1468.62 700.867,1462.26 706.009,1455.7 711.176,1448.94 716.367,1441.98 721.581,1434.8 726.82,1427.42 732.081,1419.82 737.366,1412.01 742.672,1403.98 748,1395.73 753.35,1387.26 758.72,1378.57 764.111,1369.64 769.521,1360.49 774.951,1351.11 780.4,1341.51 785.867,1331.67 791.352,1321.59 796.854,1311.29 802.372,1300.75 807.907,1289.99 813.458,1278.98 819.023,1267.75 824.603,1256.29 830.197,1244.59 835.804,1232.67 841.424,1220.52 847.057,1208.15 852.7,1195.55 858.355,1182.73 864.02,1169.7 869.695,1156.45 875.379,1142.99 881.071,1129.33 886.771,1115.46 892.479,1101.4 898.193,1087.14 903.913,1072.7 909.638,1058.07 915.369,1043.27 921.103,1028.3 926.841,1013.17 932.581,997.876 938.324,982.44 944.068,966.863 949.813,951.153 955.558,935.32 961.303,919.372 967.047,903.319 972.789,887.168 978.529,870.931 984.265,854.618 989.998,838.238 995.727,821.803 1001.45,805.323 1007.17,788.81 1012.88,772.275 1018.59,755.729 1024.28,739.186 1029.97,722.657 1035.65,706.155 1041.33,689.691 1046.99,673.28 1052.64,656.934 1058.28,640.666 1063.91,624.49 1069.52,608.418 1075.13,592.465 1080.71,576.644 1086.29,560.969 1091.85,545.453 1097.4,530.11 1102.93,514.954 1108.44,499.999 1113.94,485.258 1119.41,470.745 1124.87,456.474 1130.32,442.457 1135.74,428.709 1141.14,415.242 1146.53,402.07 1151.89,389.205 1157.23,376.661 1162.56,364.449 1167.85,352.582 1173.13,341.072 1178.39,329.93 1183.62,319.168 1188.82,308.797 1194.01,298.827 1199.16,289.27 1204.3,280.134 1209.41,271.43 1214.49,263.166 1219.54,255.352 1224.57,247.995 1229.58,241.104 1234.55,234.686 1239.5,228.748 1244.42,223.296 1249.31,218.335 1254.18,213.873 1259.01,209.912 1263.82,206.459 1268.6,203.515 1273.34,201.085 1278.06,199.172 1282.75,197.776 1287.41,196.901 1292.03,196.546 1296.63,196.712 1301.19,197.4 1305.73,198.607 1310.23,200.334 1314.7,202.577 1319.14,205.336 1323.55,208.605 1327.93,212.383 1332.27,216.665 1336.58,221.446 1340.86,226.721 1345.11,232.484 1349.32,238.729 1353.5,245.45 1357.65,252.64 1361.77,260.289 1365.85,268.391 1369.9,276.937 1373.91,285.918 1377.9,295.325 1381.85,305.146 1385.77,315.374 1389.65,325.996 1393.5,337.001 1397.32,348.38 1401.1,360.119 1404.86,372.208 1408.57,384.633 1412.26,397.384 1415.91,410.446 1419.53,423.808 1423.12,437.456 1426.67,451.377 1430.19,465.558 1433.68,479.985 1437.13,494.645 1440.56,509.525 1443.95,524.61 1447.3,539.887 1450.63,555.341 1453.92,570.961 1457.18,586.731 1460.41,602.638 1463.6,618.668 1466.77,634.808 1469.9,651.044 1473,667.363 1476.07,683.753 1479.11,700.199 1482.11,716.688 1485.09,733.209 1488.03,749.749 1490.95,766.295 1493.83,782.835 1496.68,799.357 1499.51,815.85 1502.3,832.303 1505.06,848.704 1507.79,865.043 1510.5,881.309 1513.17,897.491 1515.82,913.581 1518.43,929.569 1521.02,945.444 1523.58,961.199 1526.11,976.825 1528.61,992.313 1531.08,1007.66 1533.53,1022.85 1535.94,1037.88 1538.33,1052.74 1540.7,1067.43 1543.03,1081.94 1545.34,1096.27 1547.62,1110.4 1549.88,1124.34 1552.11,1138.08 1554.31,1151.61 1556.49,1164.93 1558.64,1178.05 1560.77,1190.94 1562.87,1203.62 1564.94,1216.07 1566.99,1228.3 1569.02,1240.31 1571.02,1252.09 1573,1263.63 1574.96,1274.95 1576.89,1286.04 1578.79,1296.89 1580.68,1307.51 1582.54,1317.9 1584.38,1328.05 1586.19,1337.98 1587.98,1347.67 1589.76,1357.13 1591.5,1366.36 1593.23,1375.37 1594.94,1384.14 1596.62,1392.7 1598.28,1401.03 1599.93,1409.14 1601.55,1417.03 1603.15,1424.7 1604.73,1432.16 1606.29,1439.41 1607.83,1446.45 1609.35,1453.28 1610.85,1459.91 1612.33,1466.35 1613.8,1472.58 1615.24,1478.63 1616.67,1484.48 1618.07,1490.15 1619.46,1495.63 1620.83,1500.94 1622.19,1506.07 1623.52,1511.03 1624.84,1515.82 1626.14,1520.44 1627.43,1524.91 1628.69,1529.21 1629.94,1533.37 1631.18,1537.37 1632.39,1541.23 1633.6,1544.95 1634.78,1548.52 1635.95,1551.97 1637.1,1555.28 1638.24,1558.46 1639.37,1561.52 1640.47,1564.46 1641.57,1567.29 1642.65,1570 1643.71,1572.6 1644.76,1575.09 1645.8,1577.48 1646.82,1579.77 1647.83,1581.97 1648.82,1584.07 1649.8,1586.08 1650.77,1588 1651.72,1589.84 1652.67,1591.6 1653.59,1593.28 1654.51,1594.88 1655.41,1596.42 1656.31,1597.88 1657.18,1599.27 1658.05,1600.6 1658.91,1601.87 1659.75,1603.08 1660.58,1604.23 1661.4,1605.32 1662.21,1606.36 1663.01,1607.35 1663.79,1608.29 1664.57,1609.19 1665.33,1610.04 1666.09,1610.85 1666.83,1611.61 1667.57,1612.34 1668.29,1613.03 1669,1613.69 1669.71,1614.31 1670.4,1614.89 1671.08,1615.45 1671.76,1615.98 1672.42,1616.47 1673.08,1616.95 1673.72,1617.39 1674.36,1617.81 1674.99,1618.21 1675.61,1618.58 1676.22,1618.94 1676.82,1619.27 1677.41,1619.59 1678,1619.89 1678.58,1620.17 1679.15,1620.43 1679.71,1620.68 1680.26,1620.91 1680.8,1621.13 1681.34,1621.34 1681.87,1621.54 1682.39,1621.72 1682.91,1621.89 1683.41,1622.05 1683.91,1622.2 1684.41,1622.35 1684.89,1622.48 1685.37,1622.6 1685.85,1622.72 1686.31,1622.83 1686.77,1622.93 1687.22,1623.03 1687.67,1623.12 1688.11,1623.21 1688.54,1623.28 1688.97,1623.36 1689.39,1623.43 1689.8,1623.49 1690.21,1623.55 1690.61,1623.61 1691.01,1623.66 1691.4,1623.71 1691.79,1623.75 1692.17,1623.8 1692.54,1623.84 1692.91,1623.87 1693.28,1623.91 1693.64,1623.94 1693.99,1623.97 1694.34,1624 1694.68,1624.02 1695.02,1624.04 1695.36,1624.07 1695.68,1624.09 1696.01,1624.11 1696.33,1624.12 1696.64,1624.14 1696.95,1624.15 1697.26,1624.17 1697.56,1624.18 1697.86,1624.19 1698.15,1624.2 1698.44,1624.21 1698.72,1624.22 1699,1624.23 1699.28,1624.24 1699.55,1624.25 1699.82,1624.26 1700.08,1624.26 1700.34,1624.27 1700.6,1624.27 1700.85,1624.28 1701.1,1624.28 1701.35,1624.29 1701.59,1624.29 1701.83,1624.29 1702.06,1624.3 1702.29,1624.3 1702.52,1624.3 1702.75,1624.31 1702.97,1624.31 1703.19,1624.31 1703.4,1624.31 1703.61,1624.31 1703.82,1624.32 1704.03,1624.32 1704.23,1624.32 1704.43,1624.32 1704.63,1624.32 1704.82,1624.32 1705.01,1624.32 1705.2,1624.32 1705.39,1624.33 1705.57,1624.33 1705.75,1624.33 1705.93,1624.33 1706.1,1624.33 1706.27,1624.33 1706.44,1624.33 1706.61,1624.33 1706.78,1624.33 1706.94,1624.33 1707.1,1624.33 1707.26,1624.33 1707.41,1624.33 "/>
<polyline clip-path="url(#clip792)" style="stroke:#e26f46; stroke-linecap:round; stroke-linejoin:round; stroke-width:8; stroke-opacity:1; fill:none" points="1258.14,3180.62 1258.14,-1359.74 "/>
</svg>
