<?xml version="1.0" encoding="utf-8"?>
<svg xmlns="http://www.w3.org/2000/svg" xmlns:xlink="http://www.w3.org/1999/xlink" width="900" height="450" viewBox="0 0 3600 1800">
<defs>
  <clipPath id="clip850">
    <rect x="0" y="0" width="3600" height="1800"/>
  </clipPath>
</defs>
<path clip-path="url(#clip850)" d="M0 1800 L3600 1800 L3600 0 L0 0  Z" fill="#ffffff" fill-rule="evenodd" fill-opacity="1"/>
<defs>
  <clipPath id="clip851">
    <rect x="720" y="0" width="2521" height="1800"/>
  </clipPath>
</defs>
<path clip-path="url(#clip850)" d="M168.598 1693.09 L1752.76 1693.09 L1752.76 108.352 L168.598 108.352  Z" fill="#ffffff" fill-rule="evenodd" fill-opacity="1"/>
<defs>
  <clipPath id="clip852">
    <rect x="168" y="108" width="1585" height="1586"/>
  </clipPath>
</defs>
<polyline clip-path="url(#clip852)" style="stroke:#000000; stroke-linecap:round; stroke-linejoin:round; stroke-width:2; stroke-opacity:0.1; fill:none" points="213.433,1693.09 213.433,108.352 "/>
<polyline clip-path="url(#clip852)" style="stroke:#000000; stroke-linecap:round; stroke-linejoin:round; stroke-width:2; stroke-opacity:0.1; fill:none" points="462.514,1693.09 462.514,108.352 "/>
<polyline clip-path="url(#clip852)" style="stroke:#000000; stroke-linecap:round; stroke-linejoin:round; stroke-width:2; stroke-opacity:0.1; fill:none" points="711.596,1693.09 711.596,108.352 "/>
<polyline clip-path="url(#clip852)" style="stroke:#000000; stroke-linecap:round; stroke-linejoin:round; stroke-width:2; stroke-opacity:0.1; fill:none" points="960.677,1693.09 960.677,108.352 "/>
<polyline clip-path="url(#clip852)" style="stroke:#000000; stroke-linecap:round; stroke-linejoin:round; stroke-width:2; stroke-opacity:0.1; fill:none" points="1209.76,1693.09 1209.76,108.352 "/>
<polyline clip-path="url(#clip852)" style="stroke:#000000; stroke-linecap:round; stroke-linejoin:round; stroke-width:2; stroke-opacity:0.1; fill:none" points="1458.84,1693.09 1458.84,108.352 "/>
<polyline clip-path="url(#clip852)" style="stroke:#000000; stroke-linecap:round; stroke-linejoin:round; stroke-width:2; stroke-opacity:0.1; fill:none" points="1707.92,1693.09 1707.92,108.352 "/>
<polyline clip-path="url(#clip850)" style="stroke:#000000; stroke-linecap:round; stroke-linejoin:round; stroke-width:4; stroke-opacity:1; fill:none" points="168.598,1693.09 1752.76,1693.09 "/>
<polyline clip-path="url(#clip850)" style="stroke:#000000; stroke-linecap:round; stroke-linejoin:round; stroke-width:4; stroke-opacity:1; fill:none" points="213.433,1693.09 213.433,1674.19 "/>
<polyline clip-path="url(#clip850)" style="stroke:#000000; stroke-linecap:round; stroke-linejoin:round; stroke-width:4; stroke-opacity:1; fill:none" points="462.514,1693.09 462.514,1674.19 "/>
<polyline clip-path="url(#clip850)" style="stroke:#000000; stroke-linecap:round; stroke-linejoin:round; stroke-width:4; stroke-opacity:1; fill:none" points="711.596,1693.09 711.596,1674.19 "/>
<polyline clip-path="url(#clip850)" style="stroke:#000000; stroke-linecap:round; stroke-linejoin:round; stroke-width:4; stroke-opacity:1; fill:none" points="960.677,1693.09 960.677,1674.19 "/>
<polyline clip-path="url(#clip850)" style="stroke:#000000; stroke-linecap:round; stroke-linejoin:round; stroke-width:4; stroke-opacity:1; fill:none" points="1209.76,1693.09 1209.76,1674.19 "/>
<polyline clip-path="url(#clip850)" style="stroke:#000000; stroke-linecap:round; stroke-linejoin:round; stroke-width:4; stroke-opacity:1; fill:none" points="1458.84,1693.09 1458.84,1674.19 "/>
<polyline clip-path="url(#clip850)" style="stroke:#000000; stroke-linecap:round; stroke-linejoin:round; stroke-width:4; stroke-opacity:1; fill:none" points="1707.92,1693.09 1707.92,1674.19 "/>
<path clip-path="url(#clip850)" d="M182.901 1748.26 L212.576 1748.26 L212.576 1752.19 L182.901 1752.19 L182.901 1748.26 Z" fill="#000000" fill-rule="nonzero" fill-opacity="1" /><path clip-path="url(#clip850)" d="M236.836 1746.45 Q240.192 1747.17 242.067 1749.44 Q243.965 1751.71 243.965 1755.04 Q243.965 1760.16 240.447 1762.96 Q236.928 1765.76 230.447 1765.76 Q228.271 1765.76 225.956 1765.32 Q223.664 1764.9 221.211 1764.05 L221.211 1759.53 Q223.155 1760.67 225.47 1761.25 Q227.785 1761.82 230.308 1761.82 Q234.706 1761.82 236.998 1760.09 Q239.312 1758.35 239.312 1755.04 Q239.312 1751.99 237.16 1750.27 Q235.03 1748.54 231.211 1748.54 L227.183 1748.54 L227.183 1744.69 L231.396 1744.69 Q234.845 1744.69 236.674 1743.33 Q238.502 1741.94 238.502 1739.35 Q238.502 1736.69 236.604 1735.27 Q234.729 1733.84 231.211 1733.84 Q229.289 1733.84 227.09 1734.25 Q224.891 1734.67 222.252 1735.55 L222.252 1731.38 Q224.914 1730.64 227.229 1730.27 Q229.567 1729.9 231.627 1729.9 Q236.951 1729.9 240.053 1732.33 Q243.155 1734.74 243.155 1738.86 Q243.155 1741.73 241.511 1743.72 Q239.868 1745.69 236.836 1746.45 Z" fill="#000000" fill-rule="nonzero" fill-opacity="1" /><path clip-path="url(#clip850)" d="M432.457 1748.26 L462.132 1748.26 L462.132 1752.19 L432.457 1752.19 L432.457 1748.26 Z" fill="#000000" fill-rule="nonzero" fill-opacity="1" /><path clip-path="url(#clip850)" d="M476.253 1761.15 L492.572 1761.15 L492.572 1765.09 L470.628 1765.09 L470.628 1761.15 Q473.29 1758.4 477.873 1753.77 Q482.479 1749.12 483.66 1747.77 Q485.905 1745.25 486.785 1743.51 Q487.688 1741.75 487.688 1740.06 Q487.688 1737.31 485.743 1735.57 Q483.822 1733.84 480.72 1733.84 Q478.521 1733.84 476.067 1734.6 Q473.637 1735.37 470.859 1736.92 L470.859 1732.19 Q473.683 1731.06 476.137 1730.48 Q478.591 1729.9 480.628 1729.9 Q485.998 1729.9 489.192 1732.59 Q492.387 1735.27 492.387 1739.76 Q492.387 1741.89 491.577 1743.81 Q490.79 1745.71 488.683 1748.31 Q488.104 1748.98 485.003 1752.19 Q481.901 1755.39 476.253 1761.15 Z" fill="#000000" fill-rule="nonzero" fill-opacity="1" /><path clip-path="url(#clip850)" d="M681.353 1748.26 L711.029 1748.26 L711.029 1752.19 L681.353 1752.19 L681.353 1748.26 Z" fill="#000000" fill-rule="nonzero" fill-opacity="1" /><path clip-path="url(#clip850)" d="M721.931 1761.15 L729.57 1761.15 L729.57 1734.79 L721.26 1736.45 L721.26 1732.19 L729.524 1730.53 L734.2 1730.53 L734.2 1761.15 L741.839 1761.15 L741.839 1765.09 L721.931 1765.09 L721.931 1761.15 Z" fill="#000000" fill-rule="nonzero" fill-opacity="1" /><path clip-path="url(#clip850)" d="M960.677 1733.61 Q957.066 1733.61 955.237 1737.17 Q953.432 1740.71 953.432 1747.84 Q953.432 1754.95 955.237 1758.51 Q957.066 1762.06 960.677 1762.06 Q964.311 1762.06 966.117 1758.51 Q967.946 1754.95 967.946 1747.84 Q967.946 1740.71 966.117 1737.17 Q964.311 1733.61 960.677 1733.61 M960.677 1729.9 Q966.487 1729.9 969.543 1734.51 Q972.621 1739.09 972.621 1747.84 Q972.621 1756.57 969.543 1761.18 Q966.487 1765.76 960.677 1765.76 Q954.867 1765.76 951.788 1761.18 Q948.733 1756.57 948.733 1747.84 Q948.733 1739.09 951.788 1734.51 Q954.867 1729.9 960.677 1729.9 Z" fill="#000000" fill-rule="nonzero" fill-opacity="1" /><path clip-path="url(#clip850)" d="M1200.14 1761.15 L1207.78 1761.15 L1207.78 1734.79 L1199.47 1736.45 L1199.47 1732.19 L1207.73 1730.53 L1212.41 1730.53 L1212.41 1761.15 L1220.05 1761.15 L1220.05 1765.09 L1200.14 1765.09 L1200.14 1761.15 Z" fill="#000000" fill-rule="nonzero" fill-opacity="1" /><path clip-path="url(#clip850)" d="M1453.49 1761.15 L1469.81 1761.15 L1469.81 1765.09 L1447.87 1765.09 L1447.87 1761.15 Q1450.53 1758.4 1455.11 1753.77 Q1459.72 1749.12 1460.9 1747.77 Q1463.15 1745.25 1464.03 1743.51 Q1464.93 1741.75 1464.93 1740.06 Q1464.93 1737.31 1462.98 1735.57 Q1461.06 1733.84 1457.96 1733.84 Q1455.76 1733.84 1453.31 1734.6 Q1450.88 1735.37 1448.1 1736.92 L1448.1 1732.19 Q1450.92 1731.06 1453.38 1730.48 Q1455.83 1729.9 1457.87 1729.9 Q1463.24 1729.9 1466.43 1732.59 Q1469.63 1735.27 1469.63 1739.76 Q1469.63 1741.89 1468.82 1743.81 Q1468.03 1745.71 1465.92 1748.31 Q1465.34 1748.98 1462.24 1752.19 Q1459.14 1755.39 1453.49 1761.15 Z" fill="#000000" fill-rule="nonzero" fill-opacity="1" /><path clip-path="url(#clip850)" d="M1712.17 1746.45 Q1715.53 1747.17 1717.4 1749.44 Q1719.3 1751.71 1719.3 1755.04 Q1719.3 1760.16 1715.78 1762.96 Q1712.26 1765.76 1705.78 1765.76 Q1703.6 1765.76 1701.29 1765.32 Q1699 1764.9 1696.54 1764.05 L1696.54 1759.53 Q1698.49 1760.67 1700.8 1761.25 Q1703.12 1761.82 1705.64 1761.82 Q1710.04 1761.82 1712.33 1760.09 Q1714.65 1758.35 1714.65 1755.04 Q1714.65 1751.99 1712.49 1750.27 Q1710.36 1748.54 1706.54 1748.54 L1702.52 1748.54 L1702.52 1744.69 L1706.73 1744.69 Q1710.18 1744.69 1712.01 1743.33 Q1713.84 1741.94 1713.84 1739.35 Q1713.84 1736.69 1711.94 1735.27 Q1710.06 1733.84 1706.54 1733.84 Q1704.62 1733.84 1702.42 1734.25 Q1700.22 1734.67 1697.59 1735.55 L1697.59 1731.38 Q1700.25 1730.64 1702.56 1730.27 Q1704.9 1729.9 1706.96 1729.9 Q1712.28 1729.9 1715.39 1732.33 Q1718.49 1734.74 1718.49 1738.86 Q1718.49 1741.73 1716.84 1743.72 Q1715.2 1745.69 1712.17 1746.45 Z" fill="#000000" fill-rule="nonzero" fill-opacity="1" /><polyline clip-path="url(#clip852)" style="stroke:#000000; stroke-linecap:round; stroke-linejoin:round; stroke-width:2; stroke-opacity:0.1; fill:none" points="168.598,1648.24 1752.76,1648.24 "/>
<polyline clip-path="url(#clip852)" style="stroke:#000000; stroke-linecap:round; stroke-linejoin:round; stroke-width:2; stroke-opacity:0.1; fill:none" points="168.598,1273.47 1752.76,1273.47 "/>
<polyline clip-path="url(#clip852)" style="stroke:#000000; stroke-linecap:round; stroke-linejoin:round; stroke-width:2; stroke-opacity:0.1; fill:none" points="168.598,898.701 1752.76,898.701 "/>
<polyline clip-path="url(#clip852)" style="stroke:#000000; stroke-linecap:round; stroke-linejoin:round; stroke-width:2; stroke-opacity:0.1; fill:none" points="168.598,523.933 1752.76,523.933 "/>
<polyline clip-path="url(#clip852)" style="stroke:#000000; stroke-linecap:round; stroke-linejoin:round; stroke-width:2; stroke-opacity:0.1; fill:none" points="168.598,149.164 1752.76,149.164 "/>
<polyline clip-path="url(#clip850)" style="stroke:#000000; stroke-linecap:round; stroke-linejoin:round; stroke-width:4; stroke-opacity:1; fill:none" points="168.598,1693.09 168.598,108.352 "/>
<polyline clip-path="url(#clip850)" style="stroke:#000000; stroke-linecap:round; stroke-linejoin:round; stroke-width:4; stroke-opacity:1; fill:none" points="168.598,1648.24 187.496,1648.24 "/>
<polyline clip-path="url(#clip850)" style="stroke:#000000; stroke-linecap:round; stroke-linejoin:round; stroke-width:4; stroke-opacity:1; fill:none" points="168.598,1273.47 187.496,1273.47 "/>
<polyline clip-path="url(#clip850)" style="stroke:#000000; stroke-linecap:round; stroke-linejoin:round; stroke-width:4; stroke-opacity:1; fill:none" points="168.598,898.701 187.496,898.701 "/>
<polyline clip-path="url(#clip850)" style="stroke:#000000; stroke-linecap:round; stroke-linejoin:round; stroke-width:4; stroke-opacity:1; fill:none" points="168.598,523.933 187.496,523.933 "/>
<polyline clip-path="url(#clip850)" style="stroke:#000000; stroke-linecap:round; stroke-linejoin:round; stroke-width:4; stroke-opacity:1; fill:none" points="168.598,149.164 187.496,149.164 "/>
<path clip-path="url(#clip850)" d="M57.4226 1634.04 Q53.8115 1634.04 51.9828 1637.6 Q50.1773 1641.14 50.1773 1648.27 Q50.1773 1655.38 51.9828 1658.94 Q53.8115 1662.48 57.4226 1662.48 Q61.0569 1662.48 62.8624 1658.94 Q64.6911 1655.38 64.6911 1648.27 Q64.6911 1641.14 62.8624 1637.6 Q61.0569 1634.04 57.4226 1634.04 M57.4226 1630.33 Q63.2328 1630.33 66.2883 1634.94 Q69.367 1639.52 69.367 1648.27 Q69.367 1657 66.2883 1661.6 Q63.2328 1666.19 57.4226 1666.19 Q51.6125 1666.19 48.5338 1661.6 Q45.4782 1657 45.4782 1648.27 Q45.4782 1639.52 48.5338 1634.94 Q51.6125 1630.33 57.4226 1630.33 Z" fill="#000000" fill-rule="nonzero" fill-opacity="1" /><path clip-path="url(#clip850)" d="M77.5845 1659.64 L82.4688 1659.64 L82.4688 1665.52 L77.5845 1665.52 L77.5845 1659.64 Z" fill="#000000" fill-rule="nonzero" fill-opacity="1" /><path clip-path="url(#clip850)" d="M102.654 1634.04 Q99.0428 1634.04 97.2141 1637.6 Q95.4085 1641.14 95.4085 1648.27 Q95.4085 1655.38 97.2141 1658.94 Q99.0428 1662.48 102.654 1662.48 Q106.288 1662.48 108.094 1658.94 Q109.922 1655.38 109.922 1648.27 Q109.922 1641.14 108.094 1637.6 Q106.288 1634.04 102.654 1634.04 M102.654 1630.33 Q108.464 1630.33 111.52 1634.94 Q114.598 1639.52 114.598 1648.27 Q114.598 1657 111.52 1661.6 Q108.464 1666.19 102.654 1666.19 Q96.8437 1666.19 93.765 1661.6 Q90.7095 1657 90.7095 1648.27 Q90.7095 1639.52 93.765 1634.94 Q96.8437 1630.33 102.654 1630.33 Z" fill="#000000" fill-rule="nonzero" fill-opacity="1" /><path clip-path="url(#clip850)" d="M59.0198 1259.27 Q55.4087 1259.27 53.58 1262.83 Q51.7745 1266.37 51.7745 1273.5 Q51.7745 1280.61 53.58 1284.17 Q55.4087 1287.72 59.0198 1287.72 Q62.6541 1287.72 64.4596 1284.17 Q66.2883 1280.61 66.2883 1273.5 Q66.2883 1266.37 64.4596 1262.83 Q62.6541 1259.27 59.0198 1259.27 M59.0198 1255.56 Q64.83 1255.56 67.8855 1260.17 Q70.9642 1264.75 70.9642 1273.5 Q70.9642 1282.23 67.8855 1286.84 Q64.83 1291.42 59.0198 1291.42 Q53.2097 1291.42 50.131 1286.84 Q47.0754 1282.23 47.0754 1273.5 Q47.0754 1264.75 50.131 1260.17 Q53.2097 1255.56 59.0198 1255.56 Z" fill="#000000" fill-rule="nonzero" fill-opacity="1" /><path clip-path="url(#clip850)" d="M79.1818 1284.87 L84.066 1284.87 L84.066 1290.75 L79.1818 1290.75 L79.1818 1284.87 Z" fill="#000000" fill-rule="nonzero" fill-opacity="1" /><path clip-path="url(#clip850)" d="M98.2789 1286.81 L114.598 1286.81 L114.598 1290.75 L92.6539 1290.75 L92.6539 1286.81 Q95.3159 1284.06 99.8992 1279.43 Q104.506 1274.78 105.686 1273.43 Q107.932 1270.91 108.811 1269.17 Q109.714 1267.42 109.714 1265.73 Q109.714 1262.97 107.77 1261.24 Q105.848 1259.5 102.746 1259.5 Q100.547 1259.5 98.0937 1260.26 Q95.6632 1261.03 92.8854 1262.58 L92.8854 1257.86 Q95.7094 1256.72 98.1631 1256.14 Q100.617 1255.56 102.654 1255.56 Q108.024 1255.56 111.219 1258.25 Q114.413 1260.93 114.413 1265.42 Q114.413 1267.55 113.603 1269.48 Q112.816 1271.37 110.709 1273.97 Q110.131 1274.64 107.029 1277.86 Q103.927 1281.05 98.2789 1286.81 Z" fill="#000000" fill-rule="nonzero" fill-opacity="1" /><path clip-path="url(#clip850)" d="M56.9365 884.499 Q53.3254 884.499 51.4967 888.064 Q49.6912 891.606 49.6912 898.735 Q49.6912 905.842 51.4967 909.407 Q53.3254 912.948 56.9365 912.948 Q60.5707 912.948 62.3763 909.407 Q64.205 905.842 64.205 898.735 Q64.205 891.606 62.3763 888.064 Q60.5707 884.499 56.9365 884.499 M56.9365 880.796 Q62.7467 880.796 65.8022 885.402 Q68.8809 889.985 68.8809 898.735 Q68.8809 907.462 65.8022 912.069 Q62.7467 916.652 56.9365 916.652 Q51.1264 916.652 48.0477 912.069 Q44.9921 907.462 44.9921 898.735 Q44.9921 889.985 48.0477 885.402 Q51.1264 880.796 56.9365 880.796 Z" fill="#000000" fill-rule="nonzero" fill-opacity="1" /><path clip-path="url(#clip850)" d="M77.0984 910.101 L81.9827 910.101 L81.9827 915.981 L77.0984 915.981 L77.0984 910.101 Z" fill="#000000" fill-rule="nonzero" fill-opacity="1" /><path clip-path="url(#clip850)" d="M105.015 885.495 L93.2095 903.944 L105.015 903.944 L105.015 885.495 M103.788 881.421 L109.668 881.421 L109.668 903.944 L114.598 903.944 L114.598 907.833 L109.668 907.833 L109.668 915.981 L105.015 915.981 L105.015 907.833 L89.4132 907.833 L89.4132 903.319 L103.788 881.421 Z" fill="#000000" fill-rule="nonzero" fill-opacity="1" /><path clip-path="url(#clip850)" d="M57.2606 509.731 Q53.6495 509.731 51.8208 513.296 Q50.0152 516.838 50.0152 523.967 Q50.0152 531.074 51.8208 534.638 Q53.6495 538.18 57.2606 538.18 Q60.8948 538.18 62.7004 534.638 Q64.5291 531.074 64.5291 523.967 Q64.5291 516.838 62.7004 513.296 Q60.8948 509.731 57.2606 509.731 M57.2606 506.028 Q63.0707 506.028 66.1263 510.634 Q69.205 515.217 69.205 523.967 Q69.205 532.694 66.1263 537.3 Q63.0707 541.884 57.2606 541.884 Q51.4504 541.884 48.3717 537.3 Q45.3162 532.694 45.3162 523.967 Q45.3162 515.217 48.3717 510.634 Q51.4504 506.028 57.2606 506.028 Z" fill="#000000" fill-rule="nonzero" fill-opacity="1" /><path clip-path="url(#clip850)" d="M77.4225 535.333 L82.3067 535.333 L82.3067 541.213 L77.4225 541.213 L77.4225 535.333 Z" fill="#000000" fill-rule="nonzero" fill-opacity="1" /><path clip-path="url(#clip850)" d="M103.071 522.069 Q99.9224 522.069 98.0705 524.222 Q96.2419 526.375 96.2419 530.125 Q96.2419 533.851 98.0705 536.027 Q99.9224 538.18 103.071 538.18 Q106.219 538.18 108.047 536.027 Q109.899 533.851 109.899 530.125 Q109.899 526.375 108.047 524.222 Q106.219 522.069 103.071 522.069 M112.353 507.416 L112.353 511.676 Q110.594 510.842 108.788 510.402 Q107.006 509.963 105.246 509.963 Q100.617 509.963 98.1631 513.088 Q95.7326 516.213 95.3854 522.532 Q96.7511 520.518 98.8113 519.453 Q100.871 518.365 103.348 518.365 Q108.557 518.365 111.566 521.537 Q114.598 524.685 114.598 530.125 Q114.598 535.449 111.45 538.666 Q108.302 541.884 103.071 541.884 Q97.0752 541.884 93.9039 537.3 Q90.7326 532.694 90.7326 523.967 Q90.7326 515.773 94.6215 510.912 Q98.5104 506.028 105.061 506.028 Q106.82 506.028 108.603 506.375 Q110.408 506.722 112.353 507.416 Z" fill="#000000" fill-rule="nonzero" fill-opacity="1" /><path clip-path="url(#clip850)" d="M57.5152 134.963 Q53.9041 134.963 52.0754 138.528 Q50.2699 142.07 50.2699 149.199 Q50.2699 156.306 52.0754 159.87 Q53.9041 163.412 57.5152 163.412 Q61.1494 163.412 62.955 159.87 Q64.7837 156.306 64.7837 149.199 Q64.7837 142.07 62.955 138.528 Q61.1494 134.963 57.5152 134.963 M57.5152 131.259 Q63.3254 131.259 66.3809 135.866 Q69.4596 140.449 69.4596 149.199 Q69.4596 157.926 66.3809 162.532 Q63.3254 167.116 57.5152 167.116 Q51.7051 167.116 48.6264 162.532 Q45.5708 157.926 45.5708 149.199 Q45.5708 140.449 48.6264 135.866 Q51.7051 131.259 57.5152 131.259 Z" fill="#000000" fill-rule="nonzero" fill-opacity="1" /><path clip-path="url(#clip850)" d="M77.6771 160.565 L82.5614 160.565 L82.5614 166.444 L77.6771 166.444 L77.6771 160.565 Z" fill="#000000" fill-rule="nonzero" fill-opacity="1" /><path clip-path="url(#clip850)" d="M102.746 150.032 Q99.4131 150.032 97.4918 151.815 Q95.5937 153.597 95.5937 156.722 Q95.5937 159.847 97.4918 161.63 Q99.4131 163.412 102.746 163.412 Q106.08 163.412 108.001 161.63 Q109.922 159.824 109.922 156.722 Q109.922 153.597 108.001 151.815 Q106.103 150.032 102.746 150.032 M98.0705 148.042 Q95.0613 147.301 93.3715 145.241 Q91.7048 143.181 91.7048 140.218 Q91.7048 136.074 94.6446 133.667 Q97.6076 131.259 102.746 131.259 Q107.908 131.259 110.848 133.667 Q113.788 136.074 113.788 140.218 Q113.788 143.181 112.098 145.241 Q110.432 147.301 107.445 148.042 Q110.825 148.829 112.7 151.12 Q114.598 153.412 114.598 156.722 Q114.598 161.745 111.52 164.431 Q108.464 167.116 102.746 167.116 Q97.0289 167.116 93.9502 164.431 Q90.8947 161.745 90.8947 156.722 Q90.8947 153.412 92.7928 151.12 Q94.6909 148.829 98.0705 148.042 M96.3576 140.657 Q96.3576 143.343 98.0242 144.847 Q99.7141 146.352 102.746 146.352 Q105.756 146.352 107.445 144.847 Q109.158 143.343 109.158 140.657 Q109.158 137.972 107.445 136.468 Q105.756 134.963 102.746 134.963 Q99.7141 134.963 98.0242 136.468 Q96.3576 137.972 96.3576 140.657 Z" fill="#000000" fill-rule="nonzero" fill-opacity="1" /><path clip-path="url(#clip850)" d="M667.128 12.096 L678.147 12.096 L704.964 62.6918 L704.964 12.096 L712.904 12.096 L712.904 72.576 L701.885 72.576 L675.068 21.9802 L675.068 72.576 L667.128 72.576 L667.128 12.096 Z" fill="#000000" fill-rule="nonzero" fill-opacity="1" /><path clip-path="url(#clip850)" d="M746.445 32.4315 Q740.45 32.4315 736.966 37.1306 Q733.482 41.7891 733.482 49.9314 Q733.482 58.0738 736.925 62.7728 Q740.409 67.4314 746.445 67.4314 Q752.4 67.4314 755.884 62.7323 Q759.367 58.0333 759.367 49.9314 Q759.367 41.8701 755.884 37.1711 Q752.4 32.4315 746.445 32.4315 M746.445 26.1121 Q756.167 26.1121 761.717 32.4315 Q767.267 38.7509 767.267 49.9314 Q767.267 61.0714 761.717 67.4314 Q756.167 73.7508 746.445 73.7508 Q736.682 73.7508 731.133 67.4314 Q725.623 61.0714 725.623 49.9314 Q725.623 38.7509 731.133 32.4315 Q736.682 26.1121 746.445 26.1121 Z" fill="#000000" fill-rule="nonzero" fill-opacity="1" /><path clip-path="url(#clip850)" d="M805.912 34.1734 Q804.656 33.4443 803.158 33.1202 Q801.699 32.7556 799.917 32.7556 Q793.598 32.7556 790.195 36.8875 Q786.833 40.9789 786.833 48.6757 L786.833 72.576 L779.338 72.576 L779.338 27.2059 L786.833 27.2059 L786.833 34.2544 Q789.182 30.1225 792.949 28.1376 Q796.717 26.1121 802.104 26.1121 Q802.874 26.1121 803.806 26.2337 Q804.738 26.3147 805.872 26.5172 L805.912 34.1734 Z" fill="#000000" fill-rule="nonzero" fill-opacity="1" /><path clip-path="url(#clip850)" d="M847.596 35.9153 Q850.391 30.8922 854.28 28.5022 Q858.169 26.1121 863.435 26.1121 Q870.524 26.1121 874.373 31.0947 Q878.221 36.0368 878.221 45.1919 L878.221 72.576 L870.727 72.576 L870.727 45.4349 Q870.727 38.913 868.418 35.7533 Q866.109 32.5936 861.369 32.5936 Q855.576 32.5936 852.214 36.4419 Q848.852 40.2903 848.852 46.9338 L848.852 72.576 L841.358 72.576 L841.358 45.4349 Q841.358 38.8725 839.049 35.7533 Q836.74 32.5936 831.919 32.5936 Q826.207 32.5936 822.845 36.4824 Q819.483 40.3308 819.483 46.9338 L819.483 72.576 L811.989 72.576 L811.989 27.2059 L819.483 27.2059 L819.483 34.2544 Q822.035 30.082 825.6 28.0971 Q829.164 26.1121 834.066 26.1121 Q839.008 26.1121 842.451 28.6237 Q845.935 31.1352 847.596 35.9153 Z" fill="#000000" fill-rule="nonzero" fill-opacity="1" /><path clip-path="url(#clip850)" d="M913.707 49.7694 Q904.673 49.7694 901.19 51.8354 Q897.706 53.9013 897.706 58.8839 Q897.706 62.8538 900.298 65.2034 Q902.931 67.5124 907.428 67.5124 Q913.626 67.5124 917.353 63.1374 Q921.12 58.7219 921.12 51.4303 L921.12 49.7694 L913.707 49.7694 M928.574 46.6907 L928.574 72.576 L921.12 72.576 L921.12 65.6895 Q918.568 69.8214 914.76 71.8063 Q910.952 73.7508 905.443 73.7508 Q898.475 73.7508 894.344 69.8619 Q890.252 65.9325 890.252 59.3701 Q890.252 51.7138 895.356 47.825 Q900.501 43.9361 910.669 43.9361 L921.12 43.9361 L921.12 43.2069 Q921.12 38.0623 917.717 35.2672 Q914.355 32.4315 908.238 32.4315 Q904.349 32.4315 900.663 33.3632 Q896.977 34.295 893.574 36.1584 L893.574 29.2718 Q897.665 27.692 901.514 26.9223 Q905.362 26.1121 909.008 26.1121 Q918.851 26.1121 923.713 31.2163 Q928.574 36.3204 928.574 46.6907 Z" fill="#000000" fill-rule="nonzero" fill-opacity="1" /><path clip-path="url(#clip850)" d="M943.927 9.54393 L951.38 9.54393 L951.38 72.576 L943.927 72.576 L943.927 9.54393 Z" fill="#000000" fill-rule="nonzero" fill-opacity="1" /><path clip-path="url(#clip850)" d="M984.881 9.62495 Q979.453 18.942 976.82 28.0566 Q974.187 37.1711 974.187 46.5287 Q974.187 55.8863 976.82 65.0818 Q979.494 74.2369 984.881 83.5134 L978.4 83.5134 Q972.323 73.9938 969.285 64.7983 Q966.288 55.6027 966.288 46.5287 Q966.288 37.4952 969.285 28.3401 Q972.283 19.1851 978.4 9.62495 L984.881 9.62495 Z" fill="#000000" fill-rule="nonzero" fill-opacity="1" /><path clip-path="url(#clip850)" d="M1001.81 65.6895 L1015.18 65.6895 L1015.18 19.5497 L1000.64 22.4663 L1000.64 15.0127 L1015.1 12.096 L1023.28 12.096 L1023.28 65.6895 L1036.65 65.6895 L1036.65 72.576 L1001.81 72.576 L1001.81 65.6895 Z" fill="#000000" fill-rule="nonzero" fill-opacity="1" /><path clip-path="url(#clip850)" d="M1054.03 62.2867 L1062.58 62.2867 L1062.58 69.2543 L1055.93 82.2172 L1050.71 82.2172 L1054.03 69.2543 L1054.03 62.2867 Z" fill="#000000" fill-rule="nonzero" fill-opacity="1" /><path clip-path="url(#clip850)" d="M1123.42 17.4837 Q1117.1 17.4837 1113.9 23.7221 Q1110.74 29.92 1110.74 42.3968 Q1110.74 54.833 1113.9 61.0714 Q1117.1 67.2693 1123.42 67.2693 Q1129.78 67.2693 1132.94 61.0714 Q1136.14 54.833 1136.14 42.3968 Q1136.14 29.92 1132.94 23.7221 Q1129.78 17.4837 1123.42 17.4837 M1123.42 11.0023 Q1133.59 11.0023 1138.94 19.0636 Q1144.32 27.0843 1144.32 42.3968 Q1144.32 57.6687 1138.94 65.73 Q1133.59 73.7508 1123.42 73.7508 Q1113.25 73.7508 1107.87 65.73 Q1102.52 57.6687 1102.52 42.3968 Q1102.52 27.0843 1107.87 19.0636 Q1113.25 11.0023 1123.42 11.0023 Z" fill="#000000" fill-rule="nonzero" fill-opacity="1" /><path clip-path="url(#clip850)" d="M1158.71 62.2867 L1167.25 62.2867 L1167.25 72.576 L1158.71 72.576 L1158.71 62.2867 Z" fill="#000000" fill-rule="nonzero" fill-opacity="1" /><path clip-path="url(#clip850)" d="M1185.16 12.096 L1217.28 12.096 L1217.28 18.9825 L1192.65 18.9825 L1192.65 33.8088 Q1194.43 33.2012 1196.22 32.9176 Q1198 32.5936 1199.78 32.5936 Q1209.91 32.5936 1215.82 38.1433 Q1221.74 43.6931 1221.74 53.1722 Q1221.74 62.9348 1215.66 68.3631 Q1209.58 73.7508 1198.53 73.7508 Q1194.72 73.7508 1190.75 73.1026 Q1186.82 72.4545 1182.61 71.1582 L1182.61 62.9348 Q1186.25 64.9198 1190.14 65.892 Q1194.03 66.8642 1198.36 66.8642 Q1205.37 66.8642 1209.46 63.1779 Q1213.55 59.4916 1213.55 53.1722 Q1213.55 46.8528 1209.46 43.1664 Q1205.37 39.4801 1198.36 39.4801 Q1195.08 39.4801 1191.8 40.2093 Q1188.56 40.9384 1185.16 42.4778 L1185.16 12.096 Z" fill="#000000" fill-rule="nonzero" fill-opacity="1" /><path clip-path="url(#clip850)" d="M1235.63 9.62495 L1242.11 9.62495 Q1248.19 19.1851 1251.19 28.3401 Q1254.23 37.4952 1254.23 46.5287 Q1254.23 55.6027 1251.19 64.7983 Q1248.19 73.9938 1242.11 83.5134 L1235.63 83.5134 Q1241.02 74.2369 1243.65 65.0818 Q1246.33 55.8863 1246.33 46.5287 Q1246.33 37.1711 1243.65 28.0566 Q1241.02 18.942 1235.63 9.62495 Z" fill="#000000" fill-rule="nonzero" fill-opacity="1" /><polyline clip-path="url(#clip852)" style="stroke:#009af9; stroke-linecap:round; stroke-linejoin:round; stroke-width:8; stroke-opacity:1; fill:none" points="213.433,1648.24 217.169,1648.24 220.905,1648.24 224.642,1648.24 228.378,1648.24 232.114,1648.24 235.85,1648.24 239.586,1648.24 243.323,1648.24 247.059,1648.24 250.795,1648.24 254.531,1648.24 258.268,1648.24 262.004,1648.24 265.74,1648.24 269.476,1648.24 273.212,1648.24 276.949,1648.24 280.685,1648.24 284.421,1648.24 288.157,1648.24 291.894,1648.24 295.63,1648.24 299.366,1648.24 303.102,1648.24 306.838,1648.24 310.575,1648.24 314.311,1648.24 318.047,1648.24 321.783,1648.24 325.52,1648.24 329.256,1648.24 332.992,1648.24 336.728,1648.24 340.464,1648.24 344.201,1648.24 347.937,1648.24 351.673,1648.24 355.409,1648.24 359.146,1648.24 362.882,1648.24 366.618,1648.24 370.354,1648.24 374.09,1648.24 377.827,1648.24 381.563,1648.24 385.299,1648.24 389.035,1648.24 392.771,1648.24 396.508,1648.24 400.244,1648.24 403.98,1648.24 407.716,1648.24 411.453,1648.24 415.189,1648.24 418.925,1648.24 422.661,1648.24 426.397,1648.24 430.134,1648.24 433.87,1648.24 437.606,1648.24 441.342,1648.24 445.079,1648.24 448.815,1648.24 452.551,1648.24 456.287,1648.24 460.023,1648.24 463.76,1648.24 467.496,1648.24 471.232,1648.24 474.968,1648.24 478.705,1648.24 482.441,1648.24 486.177,1648.24 489.913,1648.24 493.649,1648.24 497.386,1648.24 501.122,1648.24 504.858,1648.24 508.594,1648.24 512.331,1648.24 516.067,1648.24 519.803,1648.24 523.539,1648.24 527.275,1648.24 531.012,1648.24 534.748,1648.24 538.484,1648.24 542.22,1648.24 545.957,1648.24 549.693,1648.24 553.429,1648.24 557.165,1648.24 560.901,1648.23 564.638,1648.23 568.374,1648.23 572.11,1648.23 575.846,1648.23 579.583,1648.23 583.319,1648.23 587.055,1648.23 590.791,1648.23 594.527,1648.23 598.264,1648.23 602,1648.23 605.736,1648.23 609.472,1648.22 613.209,1648.22 616.945,1648.22 620.681,1648.22 624.417,1648.21 628.153,1648.21 631.89,1648.21 635.626,1648.2 639.362,1648.2 643.098,1648.19 646.835,1648.18 650.571,1648.17 654.307,1648.17 658.043,1648.15 661.779,1648.14 665.516,1648.13 669.252,1648.12 672.988,1648.1 676.724,1648.08 680.461,1648.06 684.197,1648.03 687.933,1648.01 691.669,1647.98 695.405,1647.94 699.142,1647.9 702.878,1647.86 706.614,1647.81 710.35,1647.75 714.086,1647.69 717.823,1647.63 721.559,1647.55 725.295,1647.46 729.031,1647.37 732.768,1647.26 736.504,1647.14 740.24,1647.01 743.976,1646.87 747.712,1646.7 751.449,1646.52 755.185,1646.32 758.921,1646.1 762.657,1645.86 766.394,1645.59 770.13,1645.29 773.866,1644.97 777.602,1644.61 781.338,1644.21 785.075,1643.77 788.811,1643.29 792.547,1642.77 796.283,1642.19 800.02,1641.56 803.756,1640.88 807.492,1640.12 811.228,1639.3 814.964,1638.41 818.701,1637.43 822.437,1636.37 826.173,1635.21 829.909,1633.96 833.646,1632.6 837.382,1631.12 841.118,1629.53 844.854,1627.8 848.59,1625.93 852.327,1623.91 856.063,1621.74 859.799,1619.39 863.535,1616.87 867.272,1614.16 871.008,1611.24 874.744,1608.12 878.48,1604.76 882.216,1601.17 885.953,1597.33 889.689,1593.23 893.425,1588.85 897.161,1584.17 900.898,1579.19 904.634,1573.89 908.37,1568.26 912.106,1562.27 915.842,1555.93 919.579,1549.2 923.315,1542.08 927.051,1534.54 930.787,1526.59 934.524,1518.19 938.26,1509.34 941.996,1500.02 945.732,1490.21 949.468,1479.91 953.205,1469.1 956.941,1457.77 960.677,1445.9 964.413,1433.48 968.15,1420.51 971.886,1406.97 975.622,1392.86 979.358,1378.16 983.094,1362.88 986.831,1347 990.567,1330.52 994.303,1313.45 998.039,1295.77 1001.78,1277.5 1005.51,1258.62 1009.25,1239.16 1012.98,1219.11 1016.72,1198.48 1020.46,1177.29 1024.19,1155.54 1027.93,1133.24 1031.67,1110.43 1035.4,1087.11 1039.14,1063.3 1042.87,1039.03 1046.61,1014.33 1050.35,989.217 1054.08,963.726 1057.82,937.89 1061.56,911.741 1065.29,885.316 1069.03,858.655 1072.76,831.796 1076.5,804.784 1080.24,777.662 1083.97,750.476 1087.71,723.274 1091.44,696.105 1095.18,669.019 1098.92,642.069 1102.65,615.308 1106.39,588.788 1110.13,562.565 1113.86,536.694 1117.6,511.231 1121.33,486.23 1125.07,461.748 1128.81,437.839 1132.54,414.56 1136.28,391.965 1140.02,370.106 1143.75,349.037 1147.49,328.808 1151.22,309.47 1154.96,291.071 1158.7,273.656 1162.43,257.27 1166.17,241.956 1169.91,227.751 1173.64,214.694 1177.38,202.819 1181.11,192.156 1184.85,182.734 1188.59,174.577 1192.32,167.709 1196.06,162.146 1199.8,157.905 1203.53,154.996 1207.27,153.427 1211,153.203 1214.74,154.324 1218.48,156.787 1222.21,160.585 1225.95,165.709 1229.68,172.144 1233.42,179.873 1237.16,188.876 1240.89,199.128 1244.63,210.603 1248.37,223.27 1252.1,237.096 1255.84,252.045 1259.57,268.078 1263.31,285.154 1267.05,303.23 1270.78,322.261 1274.52,342.198 1278.26,362.993 1281.99,384.594 1285.73,406.95 1289.46,430.007 1293.2,453.712 1296.94,478.009 1300.67,502.843 1304.41,528.158 1308.15,553.9 1311.88,580.011 1315.62,606.438 1319.35,633.125 1323.09,660.018 1326.83,687.064 1330.56,714.211 1334.3,741.408 1338.04,768.605 1341.77,795.753 1345.51,822.807 1349.24,849.722 1352.98,876.453 1356.72,902.961 1360.45,929.206 1364.19,955.151 1367.93,980.76 1371.66,1006 1375.4,1030.84 1379.13,1055.26 1382.87,1079.22 1386.61,1102.71 1390.34,1125.7 1394.08,1148.16 1397.81,1170.1 1401.55,1191.48 1405.29,1212.3 1409.02,1232.54 1412.76,1252.2 1416.5,1271.27 1420.23,1289.75 1423.97,1307.62 1427.7,1324.9 1431.44,1341.57 1435.18,1357.65 1438.91,1373.13 1442.65,1388.02 1446.39,1402.33 1450.12,1416.06 1453.86,1429.22 1457.59,1441.82 1461.33,1453.87 1465.07,1465.38 1468.8,1476.36 1472.54,1486.83 1476.28,1496.8 1480.01,1506.28 1483.75,1515.29 1487.48,1523.84 1491.22,1531.94 1494.96,1539.61 1498.69,1546.87 1502.43,1553.73 1506.17,1560.2 1509.9,1566.3 1513.64,1572.05 1517.37,1577.46 1521.11,1582.55 1524.85,1587.32 1528.58,1591.8 1532.32,1595.99 1536.06,1599.92 1539.79,1603.59 1543.53,1607.02 1547.26,1610.22 1551,1613.21 1554.74,1615.99 1558.47,1618.57 1562.21,1620.97 1565.94,1623.2 1569.68,1625.27 1573.42,1627.19 1577.15,1628.96 1580.89,1630.6 1584.63,1632.12 1588.36,1633.52 1592.1,1634.81 1595.83,1635.99 1599.57,1637.09 1603.31,1638.09 1607.04,1639.01 1610.78,1639.86 1614.52,1640.63 1618.25,1641.34 1621.99,1641.99 1625.72,1642.58 1629.46,1643.13 1633.2,1643.62 1636.93,1644.07 1640.67,1644.48 1644.41,1644.85 1648.14,1645.19 1651.88,1645.49 1655.61,1645.77 1659.35,1646.02 1663.09,1646.25 1666.82,1646.46 1670.56,1646.64 1674.3,1646.81 1678.03,1646.96 1681.77,1647.1 1685.5,1647.22 1689.24,1647.33 1692.98,1647.43 1696.71,1647.52 1700.45,1647.6 1704.19,1647.67 1707.92,1647.74 "/>
<polyline clip-path="url(#clip852)" style="stroke:#e26f46; stroke-linecap:round; stroke-linejoin:round; stroke-width:8; stroke-opacity:1; fill:none" points="1209.76,3277.82 1209.76,-1476.38 "/>
<path clip-path="url(#clip850)" d="M1968.6 1693.09 L3552.76 1693.09 L3552.76 108.352 L1968.6 108.352  Z" fill="#ffffff" fill-rule="evenodd" fill-opacity="1"/>
<defs>
  <clipPath id="clip853">
    <rect x="1968" y="108" width="1585" height="1586"/>
  </clipPath>
</defs>
<polyline clip-path="url(#clip853)" style="stroke:#000000; stroke-linecap:round; stroke-linejoin:round; stroke-width:2; stroke-opacity:0.1; fill:none" points="2265.35,1693.09 2265.35,108.352 "/>
<polyline clip-path="url(#clip853)" style="stroke:#000000; stroke-linecap:round; stroke-linejoin:round; stroke-width:2; stroke-opacity:0.1; fill:none" points="2595.57,1693.09 2595.57,108.352 "/>
<polyline clip-path="url(#clip853)" style="stroke:#000000; stroke-linecap:round; stroke-linejoin:round; stroke-width:2; stroke-opacity:0.1; fill:none" points="2925.79,1693.09 2925.79,108.352 "/>
<polyline clip-path="url(#clip853)" style="stroke:#000000; stroke-linecap:round; stroke-linejoin:round; stroke-width:2; stroke-opacity:0.1; fill:none" points="3256.01,1693.09 3256.01,108.352 "/>
<polyline clip-path="url(#clip850)" style="stroke:#000000; stroke-linecap:round; stroke-linejoin:round; stroke-width:4; stroke-opacity:1; fill:none" points="1968.6,1693.09 3552.76,1693.09 "/>
<polyline clip-path="url(#clip850)" style="stroke:#000000; stroke-linecap:round; stroke-linejoin:round; stroke-width:4; stroke-opacity:1; fill:none" points="2265.35,1693.09 2265.35,1674.19 "/>
<polyline clip-path="url(#clip850)" style="stroke:#000000; stroke-linecap:round; stroke-linejoin:round; stroke-width:4; stroke-opacity:1; fill:none" points="2595.57,1693.09 2595.57,1674.19 "/>
<polyline clip-path="url(#clip850)" style="stroke:#000000; stroke-linecap:round; stroke-linejoin:round; stroke-width:4; stroke-opacity:1; fill:none" points="2925.79,1693.09 2925.79,1674.19 "/>
<polyline clip-path="url(#clip850)" style="stroke:#000000; stroke-linecap:round; stroke-linejoin:round; stroke-width:4; stroke-opacity:1; fill:none" points="3256.01,1693.09 3256.01,1674.19 "/>
<path clip-path="url(#clip850)" d="M2243.53 1733.61 Q2239.92 1733.61 2238.09 1737.17 Q2236.29 1740.71 2236.29 1747.84 Q2236.29 1754.95 2238.09 1758.51 Q2239.92 1762.06 2243.53 1762.06 Q2247.16 1762.06 2248.97 1758.51 Q2250.8 1754.95 2250.8 1747.84 Q2250.8 1740.71 2248.97 1737.17 Q2247.16 1733.61 2243.53 1733.61 M2243.53 1729.9 Q2249.34 1729.9 2252.4 1734.51 Q2255.48 1739.09 2255.48 1747.84 Q2255.48 1756.57 2252.4 1761.18 Q2249.34 1765.76 2243.53 1765.76 Q2237.72 1765.76 2234.64 1761.18 Q2231.59 1756.57 2231.59 1747.84 Q2231.59 1739.09 2234.64 1734.51 Q2237.72 1729.9 2243.53 1729.9 Z" fill="#000000" fill-rule="nonzero" fill-opacity="1" /><path clip-path="url(#clip850)" d="M2263.69 1759.21 L2268.58 1759.21 L2268.58 1765.09 L2263.69 1765.09 L2263.69 1759.21 Z" fill="#000000" fill-rule="nonzero" fill-opacity="1" /><path clip-path="url(#clip850)" d="M2282.79 1761.15 L2299.11 1761.15 L2299.11 1765.09 L2277.16 1765.09 L2277.16 1761.15 Q2279.83 1758.4 2284.41 1753.77 Q2289.02 1749.12 2290.2 1747.77 Q2292.44 1745.25 2293.32 1743.51 Q2294.22 1741.75 2294.22 1740.06 Q2294.22 1737.31 2292.28 1735.57 Q2290.36 1733.84 2287.26 1733.84 Q2285.06 1733.84 2282.6 1734.6 Q2280.17 1735.37 2277.4 1736.92 L2277.4 1732.19 Q2280.22 1731.06 2282.67 1730.48 Q2285.13 1729.9 2287.16 1729.9 Q2292.54 1729.9 2295.73 1732.59 Q2298.92 1735.27 2298.92 1739.76 Q2298.92 1741.89 2298.11 1743.81 Q2297.33 1745.71 2295.22 1748.31 Q2294.64 1748.98 2291.54 1752.19 Q2288.44 1755.39 2282.79 1761.15 Z" fill="#000000" fill-rule="nonzero" fill-opacity="1" /><path clip-path="url(#clip850)" d="M2572.71 1733.61 Q2569.1 1733.61 2567.27 1737.17 Q2565.46 1740.71 2565.46 1747.84 Q2565.46 1754.95 2567.27 1758.51 Q2569.1 1762.06 2572.71 1762.06 Q2576.34 1762.06 2578.15 1758.51 Q2579.98 1754.95 2579.98 1747.84 Q2579.98 1740.71 2578.15 1737.17 Q2576.34 1733.61 2572.71 1733.61 M2572.71 1729.9 Q2578.52 1729.9 2581.57 1734.51 Q2584.65 1739.09 2584.65 1747.84 Q2584.65 1756.57 2581.57 1761.18 Q2578.52 1765.76 2572.71 1765.76 Q2566.9 1765.76 2563.82 1761.18 Q2560.76 1756.57 2560.76 1747.84 Q2560.76 1739.09 2563.82 1734.51 Q2566.9 1729.9 2572.71 1729.9 Z" fill="#000000" fill-rule="nonzero" fill-opacity="1" /><path clip-path="url(#clip850)" d="M2592.87 1759.21 L2597.75 1759.21 L2597.75 1765.09 L2592.87 1765.09 L2592.87 1759.21 Z" fill="#000000" fill-rule="nonzero" fill-opacity="1" /><path clip-path="url(#clip850)" d="M2620.79 1734.6 L2608.98 1753.05 L2620.79 1753.05 L2620.79 1734.6 M2619.56 1730.53 L2625.44 1730.53 L2625.44 1753.05 L2630.37 1753.05 L2630.37 1756.94 L2625.44 1756.94 L2625.44 1765.09 L2620.79 1765.09 L2620.79 1756.94 L2605.19 1756.94 L2605.19 1752.43 L2619.56 1730.53 Z" fill="#000000" fill-rule="nonzero" fill-opacity="1" /><path clip-path="url(#clip850)" d="M2903.09 1733.61 Q2899.48 1733.61 2897.65 1737.17 Q2895.84 1740.71 2895.84 1747.84 Q2895.84 1754.95 2897.65 1758.51 Q2899.48 1762.06 2903.09 1762.06 Q2906.72 1762.06 2908.53 1758.51 Q2910.36 1754.95 2910.36 1747.84 Q2910.36 1740.71 2908.53 1737.17 Q2906.72 1733.61 2903.09 1733.61 M2903.09 1729.9 Q2908.9 1729.9 2911.96 1734.51 Q2915.03 1739.09 2915.03 1747.84 Q2915.03 1756.57 2911.96 1761.18 Q2908.9 1765.76 2903.09 1765.76 Q2897.28 1765.76 2894.2 1761.18 Q2891.15 1756.57 2891.15 1747.84 Q2891.15 1739.09 2894.2 1734.51 Q2897.28 1729.9 2903.09 1729.9 Z" fill="#000000" fill-rule="nonzero" fill-opacity="1" /><path clip-path="url(#clip850)" d="M2923.25 1759.21 L2928.14 1759.21 L2928.14 1765.09 L2923.25 1765.09 L2923.25 1759.21 Z" fill="#000000" fill-rule="nonzero" fill-opacity="1" /><path clip-path="url(#clip850)" d="M2948.9 1745.94 Q2945.75 1745.94 2943.9 1748.1 Q2942.07 1750.25 2942.07 1754 Q2942.07 1757.73 2943.9 1759.9 Q2945.75 1762.06 2948.9 1762.06 Q2952.05 1762.06 2953.88 1759.9 Q2955.73 1757.73 2955.73 1754 Q2955.73 1750.25 2953.88 1748.1 Q2952.05 1745.94 2948.9 1745.94 M2958.18 1731.29 L2958.18 1735.55 Q2956.42 1734.72 2954.62 1734.28 Q2952.84 1733.84 2951.08 1733.84 Q2946.45 1733.84 2943.99 1736.96 Q2941.56 1740.09 2941.22 1746.41 Q2942.58 1744.39 2944.64 1743.33 Q2946.7 1742.24 2949.18 1742.24 Q2954.39 1742.24 2957.4 1745.41 Q2960.43 1748.56 2960.43 1754 Q2960.43 1759.32 2957.28 1762.54 Q2954.13 1765.76 2948.9 1765.76 Q2942.9 1765.76 2939.73 1761.18 Q2936.56 1756.57 2936.56 1747.84 Q2936.56 1739.65 2940.45 1734.79 Q2944.34 1729.9 2950.89 1729.9 Q2952.65 1729.9 2954.43 1730.25 Q2956.24 1730.6 2958.18 1731.29 Z" fill="#000000" fill-rule="nonzero" fill-opacity="1" /><path clip-path="url(#clip850)" d="M3233.44 1733.61 Q3229.83 1733.61 3228 1737.17 Q3226.19 1740.71 3226.19 1747.84 Q3226.19 1754.95 3228 1758.51 Q3229.83 1762.06 3233.44 1762.06 Q3237.07 1762.06 3238.88 1758.51 Q3240.71 1754.95 3240.71 1747.84 Q3240.71 1740.71 3238.88 1737.17 Q3237.07 1733.61 3233.44 1733.61 M3233.44 1729.9 Q3239.25 1729.9 3242.3 1734.51 Q3245.38 1739.09 3245.38 1747.84 Q3245.38 1756.57 3242.3 1761.18 Q3239.25 1765.76 3233.44 1765.76 Q3227.63 1765.76 3224.55 1761.18 Q3221.49 1756.57 3221.49 1747.84 Q3221.49 1739.09 3224.55 1734.51 Q3227.63 1729.9 3233.44 1729.9 Z" fill="#000000" fill-rule="nonzero" fill-opacity="1" /><path clip-path="url(#clip850)" d="M3253.6 1759.21 L3258.48 1759.21 L3258.48 1765.09 L3253.6 1765.09 L3253.6 1759.21 Z" fill="#000000" fill-rule="nonzero" fill-opacity="1" /><path clip-path="url(#clip850)" d="M3278.67 1748.68 Q3275.34 1748.68 3273.41 1750.46 Q3271.52 1752.24 3271.52 1755.37 Q3271.52 1758.49 3273.41 1760.27 Q3275.34 1762.06 3278.67 1762.06 Q3282 1762.06 3283.92 1760.27 Q3285.84 1758.47 3285.84 1755.37 Q3285.84 1752.24 3283.92 1750.46 Q3282.02 1748.68 3278.67 1748.68 M3273.99 1746.69 Q3270.98 1745.94 3269.29 1743.88 Q3267.63 1741.82 3267.63 1738.86 Q3267.63 1734.72 3270.57 1732.31 Q3273.53 1729.9 3278.67 1729.9 Q3283.83 1729.9 3286.77 1732.31 Q3289.71 1734.72 3289.71 1738.86 Q3289.71 1741.82 3288.02 1743.88 Q3286.35 1745.94 3283.37 1746.69 Q3286.75 1747.47 3288.62 1749.76 Q3290.52 1752.06 3290.52 1755.37 Q3290.52 1760.39 3287.44 1763.07 Q3284.39 1765.76 3278.67 1765.76 Q3272.95 1765.76 3269.87 1763.07 Q3266.82 1760.39 3266.82 1755.37 Q3266.82 1752.06 3268.71 1749.76 Q3270.61 1747.47 3273.99 1746.69 M3272.28 1739.3 Q3272.28 1741.99 3273.95 1743.49 Q3275.64 1745 3278.67 1745 Q3281.68 1745 3283.37 1743.49 Q3285.08 1741.99 3285.08 1739.3 Q3285.08 1736.62 3283.37 1735.11 Q3281.68 1733.61 3278.67 1733.61 Q3275.64 1733.61 3273.95 1735.11 Q3272.28 1736.62 3272.28 1739.3 Z" fill="#000000" fill-rule="nonzero" fill-opacity="1" /><polyline clip-path="url(#clip853)" style="stroke:#000000; stroke-linecap:round; stroke-linejoin:round; stroke-width:2; stroke-opacity:0.1; fill:none" points="1968.6,1648.24 3552.76,1648.24 "/>
<polyline clip-path="url(#clip853)" style="stroke:#000000; stroke-linecap:round; stroke-linejoin:round; stroke-width:2; stroke-opacity:0.1; fill:none" points="1968.6,1273.47 3552.76,1273.47 "/>
<polyline clip-path="url(#clip853)" style="stroke:#000000; stroke-linecap:round; stroke-linejoin:round; stroke-width:2; stroke-opacity:0.1; fill:none" points="1968.6,898.701 3552.76,898.701 "/>
<polyline clip-path="url(#clip853)" style="stroke:#000000; stroke-linecap:round; stroke-linejoin:round; stroke-width:2; stroke-opacity:0.1; fill:none" points="1968.6,523.933 3552.76,523.933 "/>
<polyline clip-path="url(#clip853)" style="stroke:#000000; stroke-linecap:round; stroke-linejoin:round; stroke-width:2; stroke-opacity:0.1; fill:none" points="1968.6,149.164 3552.76,149.164 "/>
<polyline clip-path="url(#clip850)" style="stroke:#000000; stroke-linecap:round; stroke-linejoin:round; stroke-width:4; stroke-opacity:1; fill:none" points="1968.6,1693.09 1968.6,108.352 "/>
<polyline clip-path="url(#clip850)" style="stroke:#000000; stroke-linecap:round; stroke-linejoin:round; stroke-width:4; stroke-opacity:1; fill:none" points="1968.6,1648.24 1987.5,1648.24 "/>
<polyline clip-path="url(#clip850)" style="stroke:#000000; stroke-linecap:round; stroke-linejoin:round; stroke-width:4; stroke-opacity:1; fill:none" points="1968.6,1273.47 1987.5,1273.47 "/>
<polyline clip-path="url(#clip850)" style="stroke:#000000; stroke-linecap:round; stroke-linejoin:round; stroke-width:4; stroke-opacity:1; fill:none" points="1968.6,898.701 1987.5,898.701 "/>
<polyline clip-path="url(#clip850)" style="stroke:#000000; stroke-linecap:round; stroke-linejoin:round; stroke-width:4; stroke-opacity:1; fill:none" points="1968.6,523.933 1987.5,523.933 "/>
<polyline clip-path="url(#clip850)" style="stroke:#000000; stroke-linecap:round; stroke-linejoin:round; stroke-width:4; stroke-opacity:1; fill:none" points="1968.6,149.164 1987.5,149.164 "/>
<path clip-path="url(#clip850)" d="M1857.42 1634.04 Q1853.81 1634.04 1851.98 1637.6 Q1850.18 1641.14 1850.18 1648.27 Q1850.18 1655.38 1851.98 1658.94 Q1853.81 1662.48 1857.42 1662.48 Q1861.06 1662.48 1862.86 1658.94 Q1864.69 1655.38 1864.69 1648.27 Q1864.69 1641.14 1862.86 1637.6 Q1861.06 1634.04 1857.42 1634.04 M1857.42 1630.33 Q1863.23 1630.33 1866.29 1634.94 Q1869.37 1639.52 1869.37 1648.27 Q1869.37 1657 1866.29 1661.6 Q1863.23 1666.19 1857.42 1666.19 Q1851.61 1666.19 1848.53 1661.6 Q1845.48 1657 1845.48 1648.27 Q1845.48 1639.52 1848.53 1634.94 Q1851.61 1630.33 1857.42 1630.33 Z" fill="#000000" fill-rule="nonzero" fill-opacity="1" /><path clip-path="url(#clip850)" d="M1877.58 1659.64 L1882.47 1659.64 L1882.47 1665.52 L1877.58 1665.52 L1877.58 1659.64 Z" fill="#000000" fill-rule="nonzero" fill-opacity="1" /><path clip-path="url(#clip850)" d="M1902.65 1634.04 Q1899.04 1634.04 1897.21 1637.6 Q1895.41 1641.14 1895.41 1648.27 Q1895.41 1655.38 1897.21 1658.94 Q1899.04 1662.48 1902.65 1662.48 Q1906.29 1662.48 1908.09 1658.94 Q1909.92 1655.38 1909.92 1648.27 Q1909.92 1641.14 1908.09 1637.6 Q1906.29 1634.04 1902.65 1634.04 M1902.65 1630.33 Q1908.46 1630.33 1911.52 1634.94 Q1914.6 1639.52 1914.6 1648.27 Q1914.6 1657 1911.52 1661.6 Q1908.46 1666.19 1902.65 1666.19 Q1896.84 1666.19 1893.77 1661.6 Q1890.71 1657 1890.71 1648.27 Q1890.71 1639.52 1893.77 1634.94 Q1896.84 1630.33 1902.65 1630.33 Z" fill="#000000" fill-rule="nonzero" fill-opacity="1" /><path clip-path="url(#clip850)" d="M1859.02 1259.27 Q1855.41 1259.27 1853.58 1262.83 Q1851.77 1266.37 1851.77 1273.5 Q1851.77 1280.61 1853.58 1284.17 Q1855.41 1287.72 1859.02 1287.72 Q1862.65 1287.72 1864.46 1284.17 Q1866.29 1280.61 1866.29 1273.5 Q1866.29 1266.37 1864.46 1262.83 Q1862.65 1259.27 1859.02 1259.27 M1859.02 1255.56 Q1864.83 1255.56 1867.89 1260.17 Q1870.96 1264.75 1870.96 1273.5 Q1870.96 1282.23 1867.89 1286.84 Q1864.83 1291.42 1859.02 1291.42 Q1853.21 1291.42 1850.13 1286.84 Q1847.08 1282.23 1847.08 1273.5 Q1847.08 1264.75 1850.13 1260.17 Q1853.21 1255.56 1859.02 1255.56 Z" fill="#000000" fill-rule="nonzero" fill-opacity="1" /><path clip-path="url(#clip850)" d="M1879.18 1284.87 L1884.07 1284.87 L1884.07 1290.75 L1879.18 1290.75 L1879.18 1284.87 Z" fill="#000000" fill-rule="nonzero" fill-opacity="1" /><path clip-path="url(#clip850)" d="M1898.28 1286.81 L1914.6 1286.81 L1914.6 1290.75 L1892.65 1290.75 L1892.65 1286.81 Q1895.32 1284.06 1899.9 1279.43 Q1904.51 1274.78 1905.69 1273.43 Q1907.93 1270.91 1908.81 1269.17 Q1909.71 1267.42 1909.71 1265.73 Q1909.71 1262.97 1907.77 1261.24 Q1905.85 1259.5 1902.75 1259.5 Q1900.55 1259.5 1898.09 1260.26 Q1895.66 1261.03 1892.89 1262.58 L1892.89 1257.86 Q1895.71 1256.72 1898.16 1256.14 Q1900.62 1255.56 1902.65 1255.56 Q1908.02 1255.56 1911.22 1258.25 Q1914.41 1260.93 1914.41 1265.42 Q1914.41 1267.55 1913.6 1269.48 Q1912.82 1271.37 1910.71 1273.97 Q1910.13 1274.64 1907.03 1277.86 Q1903.93 1281.05 1898.28 1286.81 Z" fill="#000000" fill-rule="nonzero" fill-opacity="1" /><path clip-path="url(#clip850)" d="M1856.94 884.499 Q1853.33 884.499 1851.5 888.064 Q1849.69 891.606 1849.69 898.735 Q1849.69 905.842 1851.5 909.407 Q1853.33 912.948 1856.94 912.948 Q1860.57 912.948 1862.38 909.407 Q1864.2 905.842 1864.2 898.735 Q1864.2 891.606 1862.38 888.064 Q1860.57 884.499 1856.94 884.499 M1856.94 880.796 Q1862.75 880.796 1865.8 885.402 Q1868.88 889.985 1868.88 898.735 Q1868.88 907.462 1865.8 912.069 Q1862.75 916.652 1856.94 916.652 Q1851.13 916.652 1848.05 912.069 Q1844.99 907.462 1844.99 898.735 Q1844.99 889.985 1848.05 885.402 Q1851.13 880.796 1856.94 880.796 Z" fill="#000000" fill-rule="nonzero" fill-opacity="1" /><path clip-path="url(#clip850)" d="M1877.1 910.101 L1881.98 910.101 L1881.98 915.981 L1877.1 915.981 L1877.1 910.101 Z" fill="#000000" fill-rule="nonzero" fill-opacity="1" /><path clip-path="url(#clip850)" d="M1905.01 885.495 L1893.21 903.944 L1905.01 903.944 L1905.01 885.495 M1903.79 881.421 L1909.67 881.421 L1909.67 903.944 L1914.6 903.944 L1914.6 907.833 L1909.67 907.833 L1909.67 915.981 L1905.01 915.981 L1905.01 907.833 L1889.41 907.833 L1889.41 903.319 L1903.79 881.421 Z" fill="#000000" fill-rule="nonzero" fill-opacity="1" /><path clip-path="url(#clip850)" d="M1857.26 509.731 Q1853.65 509.731 1851.82 513.296 Q1850.02 516.838 1850.02 523.967 Q1850.02 531.074 1851.82 534.638 Q1853.65 538.18 1857.26 538.18 Q1860.89 538.18 1862.7 534.638 Q1864.53 531.074 1864.53 523.967 Q1864.53 516.838 1862.7 513.296 Q1860.89 509.731 1857.26 509.731 M1857.26 506.028 Q1863.07 506.028 1866.13 510.634 Q1869.2 515.217 1869.2 523.967 Q1869.2 532.694 1866.13 537.3 Q1863.07 541.884 1857.26 541.884 Q1851.45 541.884 1848.37 537.3 Q1845.32 532.694 1845.32 523.967 Q1845.32 515.217 1848.37 510.634 Q1851.45 506.028 1857.26 506.028 Z" fill="#000000" fill-rule="nonzero" fill-opacity="1" /><path clip-path="url(#clip850)" d="M1877.42 535.333 L1882.31 535.333 L1882.31 541.213 L1877.42 541.213 L1877.42 535.333 Z" fill="#000000" fill-rule="nonzero" fill-opacity="1" /><path clip-path="url(#clip850)" d="M1903.07 522.069 Q1899.92 522.069 1898.07 524.222 Q1896.24 526.375 1896.24 530.125 Q1896.24 533.851 1898.07 536.027 Q1899.92 538.18 1903.07 538.18 Q1906.22 538.18 1908.05 536.027 Q1909.9 533.851 1909.9 530.125 Q1909.9 526.375 1908.05 524.222 Q1906.22 522.069 1903.07 522.069 M1912.35 507.416 L1912.35 511.676 Q1910.59 510.842 1908.79 510.402 Q1907.01 509.963 1905.25 509.963 Q1900.62 509.963 1898.16 513.088 Q1895.73 516.213 1895.39 522.532 Q1896.75 520.518 1898.81 519.453 Q1900.87 518.365 1903.35 518.365 Q1908.56 518.365 1911.57 521.537 Q1914.6 524.685 1914.6 530.125 Q1914.6 535.449 1911.45 538.666 Q1908.3 541.884 1903.07 541.884 Q1897.08 541.884 1893.9 537.3 Q1890.73 532.694 1890.73 523.967 Q1890.73 515.773 1894.62 510.912 Q1898.51 506.028 1905.06 506.028 Q1906.82 506.028 1908.6 506.375 Q1910.41 506.722 1912.35 507.416 Z" fill="#000000" fill-rule="nonzero" fill-opacity="1" /><path clip-path="url(#clip850)" d="M1857.52 134.963 Q1853.9 134.963 1852.08 138.528 Q1850.27 142.07 1850.27 149.199 Q1850.27 156.306 1852.08 159.87 Q1853.9 163.412 1857.52 163.412 Q1861.15 163.412 1862.95 159.87 Q1864.78 156.306 1864.78 149.199 Q1864.78 142.07 1862.95 138.528 Q1861.15 134.963 1857.52 134.963 M1857.52 131.259 Q1863.33 131.259 1866.38 135.866 Q1869.46 140.449 1869.46 149.199 Q1869.46 157.926 1866.38 162.532 Q1863.33 167.116 1857.52 167.116 Q1851.71 167.116 1848.63 162.532 Q1845.57 157.926 1845.57 149.199 Q1845.57 140.449 1848.63 135.866 Q1851.71 131.259 1857.52 131.259 Z" fill="#000000" fill-rule="nonzero" fill-opacity="1" /><path clip-path="url(#clip850)" d="M1877.68 160.565 L1882.56 160.565 L1882.56 166.444 L1877.68 166.444 L1877.68 160.565 Z" fill="#000000" fill-rule="nonzero" fill-opacity="1" /><path clip-path="url(#clip850)" d="M1902.75 150.032 Q1899.41 150.032 1897.49 151.815 Q1895.59 153.597 1895.59 156.722 Q1895.59 159.847 1897.49 161.63 Q1899.41 163.412 1902.75 163.412 Q1906.08 163.412 1908 161.63 Q1909.92 159.824 1909.92 156.722 Q1909.92 153.597 1908 151.815 Q1906.1 150.032 1902.75 150.032 M1898.07 148.042 Q1895.06 147.301 1893.37 145.241 Q1891.7 143.181 1891.7 140.218 Q1891.7 136.074 1894.64 133.667 Q1897.61 131.259 1902.75 131.259 Q1907.91 131.259 1910.85 133.667 Q1913.79 136.074 1913.79 140.218 Q1913.79 143.181 1912.1 145.241 Q1910.43 147.301 1907.45 148.042 Q1910.83 148.829 1912.7 151.12 Q1914.6 153.412 1914.6 156.722 Q1914.6 161.745 1911.52 164.431 Q1908.46 167.116 1902.75 167.116 Q1897.03 167.116 1893.95 164.431 Q1890.89 161.745 1890.89 156.722 Q1890.89 153.412 1892.79 151.12 Q1894.69 148.829 1898.07 148.042 M1896.36 140.657 Q1896.36 143.343 1898.02 144.847 Q1899.71 146.352 1902.75 146.352 Q1905.76 146.352 1907.45 144.847 Q1909.16 143.343 1909.16 140.657 Q1909.16 137.972 1907.45 136.468 Q1905.76 134.963 1902.75 134.963 Q1899.71 134.963 1898.02 136.468 Q1896.36 137.972 1896.36 140.657 Z" fill="#000000" fill-rule="nonzero" fill-opacity="1" /><path clip-path="url(#clip850)" d="M2250.32 16.7545 L2250.32 25.383 Q2246.19 21.5346 2241.49 19.6307 Q2236.83 17.7268 2231.57 17.7268 Q2221.2 17.7268 2215.69 24.0867 Q2210.18 30.4061 2210.18 42.3968 Q2210.18 54.3469 2215.69 60.7069 Q2221.2 67.0263 2231.57 67.0263 Q2236.83 67.0263 2241.49 65.1223 Q2246.19 63.2184 2250.32 59.3701 L2250.32 67.9175 Q2246.03 70.8341 2241.21 72.2924 Q2236.43 73.7508 2231.08 73.7508 Q2217.35 73.7508 2209.45 65.3654 Q2201.55 56.9395 2201.55 42.3968 Q2201.55 27.8135 2209.45 19.4281 Q2217.35 11.0023 2231.08 11.0023 Q2236.51 11.0023 2241.29 12.4606 Q2246.11 13.8784 2250.32 16.7545 Z" fill="#000000" fill-rule="nonzero" fill-opacity="1" /><path clip-path="url(#clip850)" d="M2280.22 32.4315 Q2274.22 32.4315 2270.74 37.1306 Q2267.26 41.7891 2267.26 49.9314 Q2267.26 58.0738 2270.7 62.7728 Q2274.18 67.4314 2280.22 67.4314 Q2286.17 67.4314 2289.66 62.7323 Q2293.14 58.0333 2293.14 49.9314 Q2293.14 41.8701 2289.66 37.1711 Q2286.17 32.4315 2280.22 32.4315 M2280.22 26.1121 Q2289.94 26.1121 2295.49 32.4315 Q2301.04 38.7509 2301.04 49.9314 Q2301.04 61.0714 2295.49 67.4314 Q2289.94 73.7508 2280.22 73.7508 Q2270.46 73.7508 2264.91 67.4314 Q2259.4 61.0714 2259.4 49.9314 Q2259.4 38.7509 2264.91 32.4315 Q2270.46 26.1121 2280.22 26.1121 Z" fill="#000000" fill-rule="nonzero" fill-opacity="1" /><path clip-path="url(#clip850)" d="M2351.11 45.1919 L2351.11 72.576 L2343.66 72.576 L2343.66 45.4349 Q2343.66 38.994 2341.15 35.7938 Q2338.63 32.5936 2333.61 32.5936 Q2327.57 32.5936 2324.09 36.4419 Q2320.61 40.2903 2320.61 46.9338 L2320.61 72.576 L2313.11 72.576 L2313.11 27.2059 L2320.61 27.2059 L2320.61 34.2544 Q2323.28 30.163 2326.89 28.1376 Q2330.53 26.1121 2335.27 26.1121 Q2343.09 26.1121 2347.1 30.9732 Q2351.11 35.7938 2351.11 45.1919 Z" fill="#000000" fill-rule="nonzero" fill-opacity="1" /><path clip-path="url(#clip850)" d="M2394.9 28.5427 L2394.9 35.5912 Q2391.74 33.9709 2388.34 33.1607 Q2384.94 32.3505 2381.29 32.3505 Q2375.74 32.3505 2372.94 34.0519 Q2370.19 35.7533 2370.19 39.156 Q2370.19 41.7486 2372.18 43.2475 Q2374.16 44.7058 2380.16 46.0426 L2382.71 46.6097 Q2390.65 48.3111 2393.97 51.4303 Q2397.33 54.509 2397.33 60.0587 Q2397.33 66.3781 2392.31 70.0644 Q2387.33 73.7508 2378.58 73.7508 Q2374.93 73.7508 2370.96 73.0216 Q2367.03 72.3329 2362.66 70.9151 L2362.66 63.2184 Q2366.79 65.3654 2370.8 66.4591 Q2374.81 67.5124 2378.74 67.5124 Q2384 67.5124 2386.84 65.73 Q2389.68 63.9071 2389.68 60.6258 Q2389.68 57.5877 2387.61 55.9673 Q2385.58 54.3469 2378.66 52.8481 L2376.06 52.2405 Q2369.14 50.7821 2366.06 47.7845 Q2362.98 44.7463 2362.98 39.4801 Q2362.98 33.0797 2367.52 29.5959 Q2372.05 26.1121 2380.4 26.1121 Q2384.53 26.1121 2388.18 26.7198 Q2391.82 27.3274 2394.9 28.5427 Z" fill="#000000" fill-rule="nonzero" fill-opacity="1" /><path clip-path="url(#clip850)" d="M2416.57 14.324 L2416.57 27.2059 L2431.93 27.2059 L2431.93 32.9987 L2416.57 32.9987 L2416.57 57.6282 Q2416.57 63.1779 2418.07 64.7578 Q2419.61 66.3376 2424.27 66.3376 L2431.93 66.3376 L2431.93 72.576 L2424.27 72.576 Q2415.64 72.576 2412.36 69.3758 Q2409.08 66.1351 2409.08 57.6282 L2409.08 32.9987 L2403.61 32.9987 L2403.61 27.2059 L2409.08 27.2059 L2409.08 14.324 L2416.57 14.324 Z" fill="#000000" fill-rule="nonzero" fill-opacity="1" /><path clip-path="url(#clip850)" d="M2468.02 34.1734 Q2466.76 33.4443 2465.26 33.1202 Q2463.81 32.7556 2462.02 32.7556 Q2455.7 32.7556 2452.3 36.8875 Q2448.94 40.9789 2448.94 48.6757 L2448.94 72.576 L2441.45 72.576 L2441.45 27.2059 L2448.94 27.2059 L2448.94 34.2544 Q2451.29 30.1225 2455.06 28.1376 Q2458.82 26.1121 2464.21 26.1121 Q2464.98 26.1121 2465.91 26.2337 Q2466.84 26.3147 2467.98 26.5172 L2468.02 34.1734 Z" fill="#000000" fill-rule="nonzero" fill-opacity="1" /><path clip-path="url(#clip850)" d="M2496.46 49.7694 Q2487.42 49.7694 2483.94 51.8354 Q2480.46 53.9013 2480.46 58.8839 Q2480.46 62.8538 2483.05 65.2034 Q2485.68 67.5124 2490.18 67.5124 Q2496.38 67.5124 2500.1 63.1374 Q2503.87 58.7219 2503.87 51.4303 L2503.87 49.7694 L2496.46 49.7694 M2511.32 46.6907 L2511.32 72.576 L2503.87 72.576 L2503.87 65.6895 Q2501.32 69.8214 2497.51 71.8063 Q2493.7 73.7508 2488.19 73.7508 Q2481.23 73.7508 2477.09 69.8619 Q2473 65.9325 2473 59.3701 Q2473 51.7138 2478.11 47.825 Q2483.25 43.9361 2493.42 43.9361 L2503.87 43.9361 L2503.87 43.2069 Q2503.87 38.0623 2500.47 35.2672 Q2497.1 32.4315 2490.99 32.4315 Q2487.1 32.4315 2483.41 33.3632 Q2479.73 34.295 2476.32 36.1584 L2476.32 29.2718 Q2480.42 27.692 2484.26 26.9223 Q2488.11 26.1121 2491.76 26.1121 Q2501.6 26.1121 2506.46 31.2163 Q2511.32 36.3204 2511.32 46.6907 Z" fill="#000000" fill-rule="nonzero" fill-opacity="1" /><path clip-path="url(#clip850)" d="M2526.68 27.2059 L2534.13 27.2059 L2534.13 72.576 L2526.68 72.576 L2526.68 27.2059 M2526.68 9.54393 L2534.13 9.54393 L2534.13 18.9825 L2526.68 18.9825 L2526.68 9.54393 Z" fill="#000000" fill-rule="nonzero" fill-opacity="1" /><path clip-path="url(#clip850)" d="M2587.44 45.1919 L2587.44 72.576 L2579.99 72.576 L2579.99 45.4349 Q2579.99 38.994 2577.47 35.7938 Q2574.96 32.5936 2569.94 32.5936 Q2563.9 32.5936 2560.42 36.4419 Q2556.94 40.2903 2556.94 46.9338 L2556.94 72.576 L2549.44 72.576 L2549.44 27.2059 L2556.94 27.2059 L2556.94 34.2544 Q2559.61 30.163 2563.22 28.1376 Q2566.86 26.1121 2571.6 26.1121 Q2579.42 26.1121 2583.43 30.9732 Q2587.44 35.7938 2587.44 45.1919 Z" fill="#000000" fill-rule="nonzero" fill-opacity="1" /><path clip-path="url(#clip850)" d="M2641.11 48.0275 L2641.11 51.6733 L2606.84 51.6733 Q2607.33 59.3701 2611.46 63.421 Q2615.63 67.4314 2623.05 67.4314 Q2627.34 67.4314 2631.35 66.3781 Q2635.4 65.3249 2639.37 63.2184 L2639.37 70.267 Q2635.36 71.9684 2631.15 72.8596 Q2626.94 73.7508 2622.6 73.7508 Q2611.75 73.7508 2605.39 67.4314 Q2599.07 61.1119 2599.07 50.3365 Q2599.07 39.1965 2605.06 32.6746 Q2611.1 26.1121 2621.31 26.1121 Q2630.46 26.1121 2635.77 32.0264 Q2641.11 37.9003 2641.11 48.0275 M2633.66 45.84 Q2633.58 39.7232 2630.22 36.0774 Q2626.9 32.4315 2621.39 32.4315 Q2615.15 32.4315 2611.38 35.9558 Q2607.65 39.4801 2607.09 45.8805 L2633.66 45.84 Z" fill="#000000" fill-rule="nonzero" fill-opacity="1" /><path clip-path="url(#clip850)" d="M2683.2 34.0924 L2683.2 9.54393 L2690.66 9.54393 L2690.66 72.576 L2683.2 72.576 L2683.2 65.7705 Q2680.85 69.8214 2677.25 71.8063 Q2673.68 73.7508 2668.66 73.7508 Q2660.44 73.7508 2655.25 67.1883 Q2650.11 60.6258 2650.11 49.9314 Q2650.11 39.2371 2655.25 32.6746 Q2660.44 26.1121 2668.66 26.1121 Q2673.68 26.1121 2677.25 28.0971 Q2680.85 30.0415 2683.2 34.0924 M2657.8 49.9314 Q2657.8 58.1548 2661.17 62.8538 Q2664.57 67.5124 2670.48 67.5124 Q2676.4 67.5124 2679.8 62.8538 Q2683.2 58.1548 2683.2 49.9314 Q2683.2 41.7081 2679.8 37.0496 Q2676.4 32.3505 2670.48 32.3505 Q2664.57 32.3505 2661.17 37.0496 Q2657.8 41.7081 2657.8 49.9314 Z" fill="#000000" fill-rule="nonzero" fill-opacity="1" /><path clip-path="url(#clip850)" d="M2732.71 12.096 L2743.72 12.096 L2770.54 62.6918 L2770.54 12.096 L2778.48 12.096 L2778.48 72.576 L2767.46 72.576 L2740.65 21.9802 L2740.65 72.576 L2732.71 72.576 L2732.71 12.096 Z" fill="#000000" fill-rule="nonzero" fill-opacity="1" /><path clip-path="url(#clip850)" d="M2812.02 32.4315 Q2806.03 32.4315 2802.54 37.1306 Q2799.06 41.7891 2799.06 49.9314 Q2799.06 58.0738 2802.5 62.7728 Q2805.99 67.4314 2812.02 67.4314 Q2817.98 67.4314 2821.46 62.7323 Q2824.94 58.0333 2824.94 49.9314 Q2824.94 41.8701 2821.46 37.1711 Q2817.98 32.4315 2812.02 32.4315 M2812.02 26.1121 Q2821.74 26.1121 2827.29 32.4315 Q2832.84 38.7509 2832.84 49.9314 Q2832.84 61.0714 2827.29 67.4314 Q2821.74 73.7508 2812.02 73.7508 Q2802.26 73.7508 2796.71 67.4314 Q2791.2 61.0714 2791.2 49.9314 Q2791.2 38.7509 2796.71 32.4315 Q2802.26 26.1121 2812.02 26.1121 Z" fill="#000000" fill-rule="nonzero" fill-opacity="1" /><path clip-path="url(#clip850)" d="M2871.49 34.1734 Q2870.23 33.4443 2868.73 33.1202 Q2867.28 32.7556 2865.49 32.7556 Q2859.17 32.7556 2855.77 36.8875 Q2852.41 40.9789 2852.41 48.6757 L2852.41 72.576 L2844.92 72.576 L2844.92 27.2059 L2852.41 27.2059 L2852.41 34.2544 Q2854.76 30.1225 2858.53 28.1376 Q2862.29 26.1121 2867.68 26.1121 Q2868.45 26.1121 2869.38 26.2337 Q2870.31 26.3147 2871.45 26.5172 L2871.49 34.1734 Z" fill="#000000" fill-rule="nonzero" fill-opacity="1" /><path clip-path="url(#clip850)" d="M2913.17 35.9153 Q2915.97 30.8922 2919.86 28.5022 Q2923.75 26.1121 2929.01 26.1121 Q2936.1 26.1121 2939.95 31.0947 Q2943.8 36.0368 2943.8 45.1919 L2943.8 72.576 L2936.3 72.576 L2936.3 45.4349 Q2936.3 38.913 2934 35.7533 Q2931.69 32.5936 2926.95 32.5936 Q2921.15 32.5936 2917.79 36.4419 Q2914.43 40.2903 2914.43 46.9338 L2914.43 72.576 L2906.93 72.576 L2906.93 45.4349 Q2906.93 38.8725 2904.63 35.7533 Q2902.32 32.5936 2897.5 32.5936 Q2891.78 32.5936 2888.42 36.4824 Q2885.06 40.3308 2885.06 46.9338 L2885.06 72.576 L2877.57 72.576 L2877.57 27.2059 L2885.06 27.2059 L2885.06 34.2544 Q2887.61 30.082 2891.18 28.0971 Q2894.74 26.1121 2899.64 26.1121 Q2904.59 26.1121 2908.03 28.6237 Q2911.51 31.1352 2913.17 35.9153 Z" fill="#000000" fill-rule="nonzero" fill-opacity="1" /><path clip-path="url(#clip850)" d="M2979.28 49.7694 Q2970.25 49.7694 2966.77 51.8354 Q2963.28 53.9013 2963.28 58.8839 Q2963.28 62.8538 2965.88 65.2034 Q2968.51 67.5124 2973.01 67.5124 Q2979.2 67.5124 2982.93 63.1374 Q2986.7 58.7219 2986.7 51.4303 L2986.7 49.7694 L2979.28 49.7694 M2994.15 46.6907 L2994.15 72.576 L2986.7 72.576 L2986.7 65.6895 Q2984.15 69.8214 2980.34 71.8063 Q2976.53 73.7508 2971.02 73.7508 Q2964.05 73.7508 2959.92 69.8619 Q2955.83 65.9325 2955.83 59.3701 Q2955.83 51.7138 2960.93 47.825 Q2966.08 43.9361 2976.25 43.9361 L2986.7 43.9361 L2986.7 43.2069 Q2986.7 38.0623 2983.29 35.2672 Q2979.93 32.4315 2973.82 32.4315 Q2969.93 32.4315 2966.24 33.3632 Q2962.55 34.295 2959.15 36.1584 L2959.15 29.2718 Q2963.24 27.692 2967.09 26.9223 Q2970.94 26.1121 2974.59 26.1121 Q2984.43 26.1121 2989.29 31.2163 Q2994.15 36.3204 2994.15 46.6907 Z" fill="#000000" fill-rule="nonzero" fill-opacity="1" /><path clip-path="url(#clip850)" d="M3009.5 9.54393 L3016.96 9.54393 L3016.96 72.576 L3009.5 72.576 L3009.5 9.54393 Z" fill="#000000" fill-rule="nonzero" fill-opacity="1" /><path clip-path="url(#clip850)" d="M3050.46 9.62495 Q3045.03 18.942 3042.4 28.0566 Q3039.76 37.1711 3039.76 46.5287 Q3039.76 55.8863 3042.4 65.0818 Q3045.07 74.2369 3050.46 83.5134 L3043.98 83.5134 Q3037.9 73.9938 3034.86 64.7983 Q3031.86 55.6027 3031.86 46.5287 Q3031.86 37.4952 3034.86 28.3401 Q3037.86 19.1851 3043.98 9.62495 L3050.46 9.62495 Z" fill="#000000" fill-rule="nonzero" fill-opacity="1" /><path clip-path="url(#clip850)" d="M3067.39 65.6895 L3080.76 65.6895 L3080.76 19.5497 L3066.22 22.4663 L3066.22 15.0127 L3080.68 12.096 L3088.86 12.096 L3088.86 65.6895 L3102.23 65.6895 L3102.23 72.576 L3067.39 72.576 L3067.39 65.6895 Z" fill="#000000" fill-rule="nonzero" fill-opacity="1" /><path clip-path="url(#clip850)" d="M3119.61 62.2867 L3128.15 62.2867 L3128.15 69.2543 L3121.51 82.2172 L3116.29 82.2172 L3119.61 69.2543 L3119.61 62.2867 Z" fill="#000000" fill-rule="nonzero" fill-opacity="1" /><path clip-path="url(#clip850)" d="M3189 17.4837 Q3182.68 17.4837 3179.48 23.7221 Q3176.32 29.92 3176.32 42.3968 Q3176.32 54.833 3179.48 61.0714 Q3182.68 67.2693 3189 67.2693 Q3195.36 67.2693 3198.52 61.0714 Q3201.72 54.833 3201.72 42.3968 Q3201.72 29.92 3198.52 23.7221 Q3195.36 17.4837 3189 17.4837 M3189 11.0023 Q3199.17 11.0023 3204.51 19.0636 Q3209.9 27.0843 3209.9 42.3968 Q3209.9 57.6687 3204.51 65.73 Q3199.17 73.7508 3189 73.7508 Q3178.83 73.7508 3173.44 65.73 Q3168.1 57.6687 3168.1 42.3968 Q3168.1 27.0843 3173.44 19.0636 Q3178.83 11.0023 3189 11.0023 Z" fill="#000000" fill-rule="nonzero" fill-opacity="1" /><path clip-path="url(#clip850)" d="M3224.28 62.2867 L3232.83 62.2867 L3232.83 72.576 L3224.28 72.576 L3224.28 62.2867 Z" fill="#000000" fill-rule="nonzero" fill-opacity="1" /><path clip-path="url(#clip850)" d="M3250.74 12.096 L3282.86 12.096 L3282.86 18.9825 L3258.23 18.9825 L3258.23 33.8088 Q3260.01 33.2012 3261.79 32.9176 Q3263.58 32.5936 3265.36 32.5936 Q3275.49 32.5936 3281.4 38.1433 Q3287.31 43.6931 3287.31 53.1722 Q3287.31 62.9348 3281.24 68.3631 Q3275.16 73.7508 3264.1 73.7508 Q3260.3 73.7508 3256.33 73.1026 Q3252.4 72.4545 3248.18 71.1582 L3248.18 62.9348 Q3251.83 64.9198 3255.72 65.892 Q3259.61 66.8642 3263.94 66.8642 Q3270.95 66.8642 3275.04 63.1779 Q3279.13 59.4916 3279.13 53.1722 Q3279.13 46.8528 3275.04 43.1664 Q3270.95 39.4801 3263.94 39.4801 Q3260.66 39.4801 3257.38 40.2093 Q3254.14 40.9384 3250.74 42.4778 L3250.74 12.096 Z" fill="#000000" fill-rule="nonzero" fill-opacity="1" /><path clip-path="url(#clip850)" d="M3301.21 9.62495 L3307.69 9.62495 Q3313.77 19.1851 3316.76 28.3401 Q3319.8 37.4952 3319.8 46.5287 Q3319.8 55.6027 3316.76 64.7983 Q3313.77 73.9938 3307.69 83.5134 L3301.21 83.5134 Q3306.6 74.2369 3309.23 65.0818 Q3311.9 55.8863 3311.9 46.5287 Q3311.9 37.1711 3309.23 28.0566 Q3306.6 18.942 3301.21 9.62495 Z" fill="#000000" fill-rule="nonzero" fill-opacity="1" /><polyline clip-path="url(#clip853)" style="stroke:#009af9; stroke-linecap:round; stroke-linejoin:round; stroke-width:8; stroke-opacity:1; fill:none" points="2013.43,1648.24 2014.56,1648.24 2015.7,1648.24 2016.86,1648.24 2018.03,1648.24 2019.22,1648.24 2020.43,1648.24 2021.65,1648.24 2022.89,1648.24 2024.14,1648.24 2025.41,1648.24 2026.7,1648.24 2028.01,1648.24 2029.33,1648.24 2030.67,1648.24 2032.03,1648.24 2033.41,1648.24 2034.8,1648.24 2036.22,1648.24 2037.65,1648.24 2039.1,1648.24 2040.57,1648.24 2042.06,1648.24 2043.57,1648.24 2045.1,1648.24 2046.65,1648.24 2048.22,1648.24 2049.81,1648.24 2051.43,1648.24 2053.06,1648.24 2054.71,1648.24 2056.39,1648.24 2058.08,1648.24 2059.8,1648.24 2061.54,1648.24 2063.3,1648.24 2065.09,1648.24 2066.89,1648.24 2068.72,1648.24 2070.58,1648.24 2072.45,1648.24 2074.35,1648.24 2076.28,1648.24 2078.23,1648.24 2080.2,1648.24 2082.2,1648.24 2084.22,1648.24 2086.27,1648.24 2088.34,1648.24 2090.44,1648.24 2092.56,1648.24 2094.71,1648.24 2096.88,1648.24 2099.09,1648.24 2101.31,1648.24 2103.57,1648.24 2105.85,1648.24 2108.16,1648.24 2110.5,1648.24 2112.86,1648.24 2115.26,1648.24 2117.68,1648.24 2120.13,1648.24 2122.61,1648.24 2125.11,1648.24 2127.65,1648.24 2130.22,1648.24 2132.81,1648.24 2135.44,1648.24 2138.09,1648.24 2140.78,1648.24 2143.49,1648.24 2146.24,1648.24 2149.02,1648.24 2151.83,1648.24 2154.67,1648.24 2157.54,1648.24 2160.44,1648.24 2163.37,1648.24 2166.34,1648.24 2169.34,1648.24 2172.37,1648.24 2175.43,1648.24 2178.53,1648.24 2181.66,1648.24 2184.82,1648.24 2188.02,1648.24 2191.25,1648.24 2194.51,1648.24 2197.8,1648.24 2201.13,1648.24 2204.5,1648.24 2207.9,1648.24 2211.33,1648.23 2214.8,1648.23 2218.3,1648.23 2221.84,1648.23 2225.41,1648.23 2229.01,1648.23 2232.65,1648.23 2236.33,1648.23 2240.04,1648.23 2243.79,1648.23 2247.57,1648.23 2251.39,1648.23 2255.24,1648.23 2259.13,1648.22 2263.05,1648.22 2267.01,1648.22 2271.01,1648.22 2275.04,1648.21 2279.11,1648.21 2283.21,1648.21 2287.35,1648.2 2291.52,1648.2 2295.73,1648.19 2299.98,1648.18 2304.26,1648.17 2308.58,1648.17 2312.93,1648.15 2317.32,1648.14 2321.74,1648.13 2326.2,1648.12 2330.69,1648.1 2335.22,1648.08 2339.79,1648.06 2344.39,1648.03 2349.02,1648.01 2353.69,1647.98 2358.4,1647.94 2363.13,1647.9 2367.91,1647.86 2372.71,1647.81 2377.56,1647.75 2382.43,1647.69 2387.34,1647.63 2392.28,1647.55 2397.26,1647.46 2402.26,1647.37 2407.31,1647.26 2412.38,1647.14 2417.48,1647.01 2422.62,1646.87 2427.79,1646.7 2432.99,1646.52 2438.22,1646.32 2443.49,1646.1 2448.78,1645.86 2454.1,1645.59 2459.45,1645.29 2464.84,1644.97 2470.25,1644.61 2475.69,1644.21 2481.15,1643.77 2486.65,1643.29 2492.17,1642.77 2497.72,1642.19 2503.3,1641.56 2508.9,1640.88 2514.53,1640.12 2520.18,1639.3 2525.86,1638.41 2531.57,1637.43 2537.29,1636.37 2543.04,1635.21 2548.81,1633.96 2554.61,1632.6 2560.43,1631.12 2566.26,1629.53 2572.12,1627.8 2578,1625.93 2583.9,1623.91 2589.82,1621.74 2595.75,1619.39 2601.7,1616.87 2607.68,1614.16 2613.66,1611.24 2619.67,1608.12 2625.68,1604.76 2631.72,1601.17 2637.77,1597.33 2643.83,1593.23 2649.9,1588.85 2655.99,1584.17 2662.08,1579.19 2668.19,1573.89 2674.31,1568.26 2680.44,1562.27 2686.58,1555.93 2692.72,1549.2 2698.88,1542.08 2705.04,1534.54 2711.2,1526.59 2717.38,1518.19 2723.55,1509.34 2729.73,1500.02 2735.92,1490.21 2742.11,1479.91 2748.29,1469.1 2754.49,1457.77 2760.68,1445.9 2766.87,1433.48 2773.06,1420.51 2779.25,1406.97 2785.44,1392.86 2791.62,1378.16 2797.8,1362.88 2803.98,1347 2810.15,1330.52 2816.32,1313.45 2822.48,1295.77 2828.63,1277.5 2834.78,1258.62 2840.91,1239.16 2847.04,1219.11 2853.16,1198.48 2859.27,1177.29 2865.37,1155.54 2871.45,1133.24 2877.53,1110.43 2883.59,1087.11 2889.64,1063.3 2895.67,1039.03 2901.69,1014.33 2907.69,989.217 2913.68,963.726 2919.65,937.89 2925.6,911.741 2931.54,885.316 2937.46,858.655 2943.35,831.796 2949.23,804.784 2955.09,777.662 2960.93,750.476 2966.74,723.274 2972.54,696.105 2978.31,669.019 2984.06,642.069 2989.79,615.308 2995.49,588.788 3001.17,562.565 3006.82,536.694 3012.45,511.231 3018.05,486.23 3023.63,461.748 3029.18,437.839 3034.7,414.56 3040.2,391.965 3045.67,370.106 3051.11,349.037 3056.52,328.808 3061.9,309.47 3067.25,291.071 3072.58,273.656 3077.87,257.27 3083.13,241.956 3088.36,227.751 3093.56,214.694 3098.73,202.819 3103.87,192.156 3108.98,182.734 3114.05,174.577 3119.09,167.709 3124.1,162.146 3129.07,157.905 3134.02,154.996 3138.92,153.427 3143.8,153.203 3148.64,154.324 3153.45,156.787 3158.22,160.585 3162.96,165.709 3167.66,172.144 3172.33,179.873 3176.97,188.876 3181.57,199.128 3186.13,210.603 3190.66,223.27 3195.16,237.096 3199.61,252.045 3204.04,268.078 3208.43,285.154 3212.78,303.23 3217.1,322.261 3221.38,342.198 3225.62,362.993 3229.83,384.594 3234.01,406.95 3238.14,430.007 3242.25,453.712 3246.31,478.009 3250.35,502.843 3254.34,528.158 3258.3,553.9 3262.22,580.011 3266.11,606.438 3269.97,633.125 3273.78,660.018 3277.57,687.064 3281.31,714.211 3285.02,741.408 3288.7,768.605 3292.34,795.753 3295.95,822.807 3299.52,849.722 3303.05,876.453 3306.56,902.961 3310.02,929.206 3313.46,955.151 3316.86,980.76 3320.22,1006 3323.55,1030.84 3326.85,1055.26 3330.11,1079.22 3333.34,1102.71 3336.53,1125.7 3339.7,1148.16 3342.83,1170.1 3345.92,1191.48 3348.98,1212.3 3352.02,1232.54 3355.01,1252.2 3357.98,1271.27 3360.92,1289.75 3363.82,1307.62 3366.69,1324.9 3369.53,1341.57 3372.34,1357.65 3375.11,1373.13 3377.86,1388.02 3380.58,1402.33 3383.26,1416.06 3385.92,1429.22 3388.54,1441.82 3391.14,1453.87 3393.7,1465.38 3396.24,1476.36 3398.75,1486.83 3401.23,1496.8 3403.68,1506.28 3406.1,1515.29 3408.49,1523.84 3410.85,1531.94 3413.19,1539.61 3415.5,1546.87 3417.78,1553.73 3420.04,1560.2 3422.27,1566.3 3424.47,1572.05 3426.65,1577.46 3428.79,1582.55 3430.92,1587.32 3433.02,1591.8 3435.09,1595.99 3437.13,1599.92 3439.16,1603.59 3441.15,1607.02 3443.13,1610.22 3445.08,1613.21 3447,1615.99 3448.9,1618.57 3450.78,1620.97 3452.63,1623.2 3454.46,1625.27 3456.27,1627.19 3458.05,1628.96 3459.81,1630.6 3461.55,1632.12 3463.27,1633.52 3464.97,1634.81 3466.64,1635.99 3468.3,1637.09 3469.93,1638.09 3471.54,1639.01 3473.13,1639.86 3474.7,1640.63 3476.25,1641.34 3477.78,1641.99 3479.29,1642.58 3480.78,1643.13 3482.25,1643.62 3483.7,1644.07 3485.14,1644.48 3486.55,1644.85 3487.95,1645.19 3489.32,1645.49 3490.68,1645.77 3492.02,1646.02 3493.35,1646.25 3494.65,1646.46 3495.94,1646.64 3497.21,1646.81 3498.47,1646.96 3499.71,1647.1 3500.93,1647.22 3502.13,1647.33 3503.32,1647.43 3504.5,1647.52 3505.65,1647.6 3506.79,1647.67 3507.92,1647.74 "/>
<polyline clip-path="url(#clip853)" style="stroke:#e26f46; stroke-linecap:round; stroke-linejoin:round; stroke-width:8; stroke-opacity:1; fill:none" points="3142.18,3277.82 3142.18,-1476.38 "/>
</svg>
