<?xml version="1.0" encoding="utf-8"?>
<svg xmlns="http://www.w3.org/2000/svg" xmlns:xlink="http://www.w3.org/1999/xlink" width="450" height="450" viewBox="0 0 1800 1800">
<defs>
  <clipPath id="clip350">
    <rect x="0" y="0" width="1800" height="1800"/>
  </clipPath>
</defs>
<path clip-path="url(#clip350)" d="M0 1800 L1800 1800 L1800 0 L0 0  Z" fill="#ffffff" fill-rule="evenodd" fill-opacity="1"/>
<defs>
  <clipPath id="clip351">
    <rect x="360" y="180" width="1261" height="1261"/>
  </clipPath>
</defs>
<path clip-path="url(#clip350)" d="M164.857 1667.17 L1752.76 1667.17 L1752.76 153.712 L164.857 153.712  Z" fill="#ffffff" fill-rule="evenodd" fill-opacity="1"/>
<defs>
  <clipPath id="clip352">
    <rect x="164" y="153" width="1589" height="1514"/>
  </clipPath>
</defs>
<polyline clip-path="url(#clip352)" style="stroke:#000000; stroke-linecap:round; stroke-linejoin:round; stroke-width:2; stroke-opacity:0.1; fill:none" points="350.792,1667.17 350.792,153.712 "/>
<polyline clip-path="url(#clip352)" style="stroke:#000000; stroke-linecap:round; stroke-linejoin:round; stroke-width:2; stroke-opacity:0.1; fill:none" points="679.448,1667.17 679.448,153.712 "/>
<polyline clip-path="url(#clip352)" style="stroke:#000000; stroke-linecap:round; stroke-linejoin:round; stroke-width:2; stroke-opacity:0.1; fill:none" points="1008.11,1667.17 1008.11,153.712 "/>
<polyline clip-path="url(#clip352)" style="stroke:#000000; stroke-linecap:round; stroke-linejoin:round; stroke-width:2; stroke-opacity:0.1; fill:none" points="1336.76,1667.17 1336.76,153.712 "/>
<polyline clip-path="url(#clip352)" style="stroke:#000000; stroke-linecap:round; stroke-linejoin:round; stroke-width:2; stroke-opacity:0.1; fill:none" points="1665.42,1667.17 1665.42,153.712 "/>
<polyline clip-path="url(#clip352)" style="stroke:#000000; stroke-linecap:round; stroke-linejoin:round; stroke-width:2; stroke-opacity:0.1; fill:none" points="164.857,1667.17 1752.76,1667.17 "/>
<polyline clip-path="url(#clip352)" style="stroke:#000000; stroke-linecap:round; stroke-linejoin:round; stroke-width:2; stroke-opacity:0.1; fill:none" points="164.857,1177.38 1752.76,1177.38 "/>
<polyline clip-path="url(#clip352)" style="stroke:#000000; stroke-linecap:round; stroke-linejoin:round; stroke-width:2; stroke-opacity:0.1; fill:none" points="164.857,687.585 1752.76,687.585 "/>
<polyline clip-path="url(#clip352)" style="stroke:#000000; stroke-linecap:round; stroke-linejoin:round; stroke-width:2; stroke-opacity:0.1; fill:none" points="164.857,197.793 1752.76,197.793 "/>
<polyline clip-path="url(#clip350)" style="stroke:#000000; stroke-linecap:round; stroke-linejoin:round; stroke-width:4; stroke-opacity:1; fill:none" points="164.857,1667.17 1752.76,1667.17 "/>
<polyline clip-path="url(#clip350)" style="stroke:#000000; stroke-linecap:round; stroke-linejoin:round; stroke-width:4; stroke-opacity:1; fill:none" points="350.792,1667.17 350.792,1648.27 "/>
<polyline clip-path="url(#clip350)" style="stroke:#000000; stroke-linecap:round; stroke-linejoin:round; stroke-width:4; stroke-opacity:1; fill:none" points="679.448,1667.17 679.448,1648.27 "/>
<polyline clip-path="url(#clip350)" style="stroke:#000000; stroke-linecap:round; stroke-linejoin:round; stroke-width:4; stroke-opacity:1; fill:none" points="1008.11,1667.17 1008.11,1648.27 "/>
<polyline clip-path="url(#clip350)" style="stroke:#000000; stroke-linecap:round; stroke-linejoin:round; stroke-width:4; stroke-opacity:1; fill:none" points="1336.76,1667.17 1336.76,1648.27 "/>
<polyline clip-path="url(#clip350)" style="stroke:#000000; stroke-linecap:round; stroke-linejoin:round; stroke-width:4; stroke-opacity:1; fill:none" points="1665.42,1667.17 1665.42,1648.27 "/>
<path clip-path="url(#clip350)" d="M328.975 1693.29 Q325.364 1693.29 323.535 1696.85 Q321.729 1700.39 321.729 1707.52 Q321.729 1714.63 323.535 1718.19 Q325.364 1721.74 328.975 1721.74 Q332.609 1721.74 334.414 1718.19 Q336.243 1714.63 336.243 1707.52 Q336.243 1700.39 334.414 1696.85 Q332.609 1693.29 328.975 1693.29 M328.975 1689.58 Q334.785 1689.58 337.84 1694.19 Q340.919 1698.77 340.919 1707.52 Q340.919 1716.25 337.84 1720.86 Q334.785 1725.44 328.975 1725.44 Q323.165 1725.44 320.086 1720.86 Q317.03 1716.25 317.03 1707.52 Q317.03 1698.77 320.086 1694.19 Q323.165 1689.58 328.975 1689.58 Z" fill="#000000" fill-rule="nonzero" fill-opacity="1" /><path clip-path="url(#clip350)" d="M349.137 1718.89 L354.021 1718.89 L354.021 1724.77 L349.137 1724.77 L349.137 1718.89 Z" fill="#000000" fill-rule="nonzero" fill-opacity="1" /><path clip-path="url(#clip350)" d="M368.234 1720.83 L384.553 1720.83 L384.553 1724.77 L362.609 1724.77 L362.609 1720.83 Q365.271 1718.08 369.854 1713.45 Q374.461 1708.8 375.641 1707.45 Q377.886 1704.93 378.766 1703.19 Q379.669 1701.43 379.669 1699.74 Q379.669 1696.99 377.724 1695.25 Q375.803 1693.52 372.701 1693.52 Q370.502 1693.52 368.049 1694.28 Q365.618 1695.05 362.84 1696.6 L362.84 1691.87 Q365.664 1690.74 368.118 1690.16 Q370.572 1689.58 372.609 1689.58 Q377.979 1689.58 381.173 1692.27 Q384.368 1694.95 384.368 1699.44 Q384.368 1701.57 383.558 1703.49 Q382.771 1705.39 380.664 1707.99 Q380.086 1708.66 376.984 1711.87 Q373.882 1715.07 368.234 1720.83 Z" fill="#000000" fill-rule="nonzero" fill-opacity="1" /><path clip-path="url(#clip350)" d="M656.59 1693.29 Q652.979 1693.29 651.15 1696.85 Q649.344 1700.39 649.344 1707.52 Q649.344 1714.63 651.15 1718.19 Q652.979 1721.74 656.59 1721.74 Q660.224 1721.74 662.03 1718.19 Q663.858 1714.63 663.858 1707.52 Q663.858 1700.39 662.03 1696.85 Q660.224 1693.29 656.59 1693.29 M656.59 1689.58 Q662.4 1689.58 665.455 1694.19 Q668.534 1698.77 668.534 1707.52 Q668.534 1716.25 665.455 1720.86 Q662.4 1725.44 656.59 1725.44 Q650.78 1725.44 647.701 1720.86 Q644.645 1716.25 644.645 1707.52 Q644.645 1698.77 647.701 1694.19 Q650.78 1689.58 656.59 1689.58 Z" fill="#000000" fill-rule="nonzero" fill-opacity="1" /><path clip-path="url(#clip350)" d="M676.752 1718.89 L681.636 1718.89 L681.636 1724.77 L676.752 1724.77 L676.752 1718.89 Z" fill="#000000" fill-rule="nonzero" fill-opacity="1" /><path clip-path="url(#clip350)" d="M704.668 1694.28 L692.863 1712.73 L704.668 1712.73 L704.668 1694.28 M703.441 1690.21 L709.321 1690.21 L709.321 1712.73 L714.251 1712.73 L714.251 1716.62 L709.321 1716.62 L709.321 1724.77 L704.668 1724.77 L704.668 1716.62 L689.066 1716.62 L689.066 1712.11 L703.441 1690.21 Z" fill="#000000" fill-rule="nonzero" fill-opacity="1" /><path clip-path="url(#clip350)" d="M985.409 1693.29 Q981.797 1693.29 979.969 1696.85 Q978.163 1700.39 978.163 1707.52 Q978.163 1714.63 979.969 1718.19 Q981.797 1721.74 985.409 1721.74 Q989.043 1721.74 990.848 1718.19 Q992.677 1714.63 992.677 1707.52 Q992.677 1700.39 990.848 1696.85 Q989.043 1693.29 985.409 1693.29 M985.409 1689.58 Q991.219 1689.58 994.274 1694.19 Q997.353 1698.77 997.353 1707.52 Q997.353 1716.25 994.274 1720.86 Q991.219 1725.44 985.409 1725.44 Q979.598 1725.44 976.52 1720.86 Q973.464 1716.25 973.464 1707.52 Q973.464 1698.77 976.52 1694.19 Q979.598 1689.58 985.409 1689.58 Z" fill="#000000" fill-rule="nonzero" fill-opacity="1" /><path clip-path="url(#clip350)" d="M1005.57 1718.89 L1010.45 1718.89 L1010.45 1724.77 L1005.57 1724.77 L1005.57 1718.89 Z" fill="#000000" fill-rule="nonzero" fill-opacity="1" /><path clip-path="url(#clip350)" d="M1031.22 1705.62 Q1028.07 1705.62 1026.22 1707.78 Q1024.39 1709.93 1024.39 1713.68 Q1024.39 1717.41 1026.22 1719.58 Q1028.07 1721.74 1031.22 1721.74 Q1034.37 1721.74 1036.2 1719.58 Q1038.05 1717.41 1038.05 1713.68 Q1038.05 1709.93 1036.2 1707.78 Q1034.37 1705.62 1031.22 1705.62 M1040.5 1690.97 L1040.5 1695.23 Q1038.74 1694.4 1036.94 1693.96 Q1035.15 1693.52 1033.39 1693.52 Q1028.76 1693.52 1026.31 1696.64 Q1023.88 1699.77 1023.53 1706.09 Q1024.9 1704.07 1026.96 1703.01 Q1029.02 1701.92 1031.5 1701.92 Q1036.7 1701.92 1039.71 1705.09 Q1042.75 1708.24 1042.75 1713.68 Q1042.75 1719 1039.6 1722.22 Q1036.45 1725.44 1031.22 1725.44 Q1025.22 1725.44 1022.05 1720.86 Q1018.88 1716.25 1018.88 1707.52 Q1018.88 1699.33 1022.77 1694.47 Q1026.66 1689.58 1033.21 1689.58 Q1034.97 1689.58 1036.75 1689.93 Q1038.56 1690.28 1040.5 1690.97 Z" fill="#000000" fill-rule="nonzero" fill-opacity="1" /><path clip-path="url(#clip350)" d="M1314.19 1693.29 Q1310.58 1693.29 1308.75 1696.85 Q1306.95 1700.39 1306.95 1707.52 Q1306.95 1714.63 1308.75 1718.19 Q1310.58 1721.74 1314.19 1721.74 Q1317.83 1721.74 1319.63 1718.19 Q1321.46 1714.63 1321.46 1707.52 Q1321.46 1700.39 1319.63 1696.85 Q1317.83 1693.29 1314.19 1693.29 M1314.19 1689.58 Q1320 1689.58 1323.06 1694.19 Q1326.14 1698.77 1326.14 1707.52 Q1326.14 1716.25 1323.06 1720.86 Q1320 1725.44 1314.19 1725.44 Q1308.38 1725.44 1305.3 1720.86 Q1302.25 1716.25 1302.25 1707.52 Q1302.25 1698.77 1305.3 1694.19 Q1308.38 1689.58 1314.19 1689.58 Z" fill="#000000" fill-rule="nonzero" fill-opacity="1" /><path clip-path="url(#clip350)" d="M1334.35 1718.89 L1339.24 1718.89 L1339.24 1724.77 L1334.35 1724.77 L1334.35 1718.89 Z" fill="#000000" fill-rule="nonzero" fill-opacity="1" /><path clip-path="url(#clip350)" d="M1359.42 1708.36 Q1356.09 1708.36 1354.17 1710.14 Q1352.27 1711.92 1352.27 1715.05 Q1352.27 1718.17 1354.17 1719.95 Q1356.09 1721.74 1359.42 1721.74 Q1362.76 1721.74 1364.68 1719.95 Q1366.6 1718.15 1366.6 1715.05 Q1366.6 1711.92 1364.68 1710.14 Q1362.78 1708.36 1359.42 1708.36 M1354.75 1706.37 Q1351.74 1705.62 1350.05 1703.56 Q1348.38 1701.5 1348.38 1698.54 Q1348.38 1694.4 1351.32 1691.99 Q1354.28 1689.58 1359.42 1689.58 Q1364.59 1689.58 1367.53 1691.99 Q1370.47 1694.4 1370.47 1698.54 Q1370.47 1701.5 1368.78 1703.56 Q1367.11 1705.62 1364.12 1706.37 Q1367.5 1707.15 1369.38 1709.44 Q1371.28 1711.74 1371.28 1715.05 Q1371.28 1720.07 1368.2 1722.75 Q1365.14 1725.44 1359.42 1725.44 Q1353.71 1725.44 1350.63 1722.75 Q1347.57 1720.07 1347.57 1715.05 Q1347.57 1711.74 1349.47 1709.44 Q1351.37 1707.15 1354.75 1706.37 M1353.03 1698.98 Q1353.03 1701.67 1354.7 1703.17 Q1356.39 1704.68 1359.42 1704.68 Q1362.43 1704.68 1364.12 1703.17 Q1365.84 1701.67 1365.84 1698.98 Q1365.84 1696.3 1364.12 1694.79 Q1362.43 1693.29 1359.42 1693.29 Q1356.39 1693.29 1354.7 1694.79 Q1353.03 1696.3 1353.03 1698.98 Z" fill="#000000" fill-rule="nonzero" fill-opacity="1" /><path clip-path="url(#clip350)" d="M1632.57 1720.83 L1640.21 1720.83 L1640.21 1694.47 L1631.9 1696.13 L1631.9 1691.87 L1640.16 1690.21 L1644.84 1690.21 L1644.84 1720.83 L1652.48 1720.83 L1652.48 1724.77 L1632.57 1724.77 L1632.57 1720.83 Z" fill="#000000" fill-rule="nonzero" fill-opacity="1" /><path clip-path="url(#clip350)" d="M1661.92 1718.89 L1666.81 1718.89 L1666.81 1724.77 L1661.92 1724.77 L1661.92 1718.89 Z" fill="#000000" fill-rule="nonzero" fill-opacity="1" /><path clip-path="url(#clip350)" d="M1686.99 1693.29 Q1683.38 1693.29 1681.55 1696.85 Q1679.75 1700.39 1679.75 1707.52 Q1679.75 1714.63 1681.55 1718.19 Q1683.38 1721.74 1686.99 1721.74 Q1690.63 1721.74 1692.43 1718.19 Q1694.26 1714.63 1694.26 1707.52 Q1694.26 1700.39 1692.43 1696.85 Q1690.63 1693.29 1686.99 1693.29 M1686.99 1689.58 Q1692.8 1689.58 1695.86 1694.19 Q1698.94 1698.77 1698.94 1707.52 Q1698.94 1716.25 1695.86 1720.86 Q1692.8 1725.44 1686.99 1725.44 Q1681.18 1725.44 1678.1 1720.86 Q1675.05 1716.25 1675.05 1707.52 Q1675.05 1698.77 1678.1 1694.19 Q1681.18 1689.58 1686.99 1689.58 Z" fill="#000000" fill-rule="nonzero" fill-opacity="1" /><polyline clip-path="url(#clip350)" style="stroke:#000000; stroke-linecap:round; stroke-linejoin:round; stroke-width:4; stroke-opacity:1; fill:none" points="164.857,1667.17 164.857,153.712 "/>
<polyline clip-path="url(#clip350)" style="stroke:#000000; stroke-linecap:round; stroke-linejoin:round; stroke-width:4; stroke-opacity:1; fill:none" points="164.857,1667.17 183.755,1667.17 "/>
<polyline clip-path="url(#clip350)" style="stroke:#000000; stroke-linecap:round; stroke-linejoin:round; stroke-width:4; stroke-opacity:1; fill:none" points="164.857,1177.38 183.755,1177.38 "/>
<polyline clip-path="url(#clip350)" style="stroke:#000000; stroke-linecap:round; stroke-linejoin:round; stroke-width:4; stroke-opacity:1; fill:none" points="164.857,687.585 183.755,687.585 "/>
<polyline clip-path="url(#clip350)" style="stroke:#000000; stroke-linecap:round; stroke-linejoin:round; stroke-width:4; stroke-opacity:1; fill:none" points="164.857,197.793 183.755,197.793 "/>
<path clip-path="url(#clip350)" d="M125.913 1652.97 Q122.302 1652.97 120.473 1656.53 Q118.668 1660.07 118.668 1667.2 Q118.668 1674.31 120.473 1677.87 Q122.302 1681.42 125.913 1681.42 Q129.547 1681.42 131.353 1677.87 Q133.182 1674.31 133.182 1667.2 Q133.182 1660.07 131.353 1656.53 Q129.547 1652.97 125.913 1652.97 M125.913 1649.26 Q131.723 1649.26 134.779 1653.87 Q137.857 1658.45 137.857 1667.2 Q137.857 1675.93 134.779 1680.54 Q131.723 1685.12 125.913 1685.12 Q120.103 1685.12 117.024 1680.54 Q113.969 1675.93 113.969 1667.2 Q113.969 1658.45 117.024 1653.87 Q120.103 1649.26 125.913 1649.26 Z" fill="#000000" fill-rule="nonzero" fill-opacity="1" /><path clip-path="url(#clip350)" d="M56.3995 1190.72 L64.0384 1190.72 L64.0384 1164.36 L55.7282 1166.02 L55.7282 1161.76 L63.9921 1160.1 L68.668 1160.1 L68.668 1190.72 L76.3068 1190.72 L76.3068 1194.66 L56.3995 1194.66 L56.3995 1190.72 Z" fill="#000000" fill-rule="nonzero" fill-opacity="1" /><path clip-path="url(#clip350)" d="M95.7512 1163.18 Q92.1401 1163.18 90.3114 1166.74 Q88.5058 1170.28 88.5058 1177.41 Q88.5058 1184.52 90.3114 1188.08 Q92.1401 1191.62 95.7512 1191.62 Q99.3854 1191.62 101.191 1188.08 Q103.02 1184.52 103.02 1177.41 Q103.02 1170.28 101.191 1166.74 Q99.3854 1163.18 95.7512 1163.18 M95.7512 1159.47 Q101.561 1159.47 104.617 1164.08 Q107.696 1168.66 107.696 1177.41 Q107.696 1186.14 104.617 1190.74 Q101.561 1195.33 95.7512 1195.33 Q89.941 1195.33 86.8623 1190.74 Q83.8068 1186.14 83.8068 1177.41 Q83.8068 1168.66 86.8623 1164.08 Q89.941 1159.47 95.7512 1159.47 Z" fill="#000000" fill-rule="nonzero" fill-opacity="1" /><path clip-path="url(#clip350)" d="M125.913 1163.18 Q122.302 1163.18 120.473 1166.74 Q118.668 1170.28 118.668 1177.41 Q118.668 1184.52 120.473 1188.08 Q122.302 1191.62 125.913 1191.62 Q129.547 1191.62 131.353 1188.08 Q133.182 1184.52 133.182 1177.41 Q133.182 1170.28 131.353 1166.74 Q129.547 1163.18 125.913 1163.18 M125.913 1159.47 Q131.723 1159.47 134.779 1164.08 Q137.857 1168.66 137.857 1177.41 Q137.857 1186.14 134.779 1190.74 Q131.723 1195.33 125.913 1195.33 Q120.103 1195.33 117.024 1190.74 Q113.969 1186.14 113.969 1177.41 Q113.969 1168.66 117.024 1164.08 Q120.103 1159.47 125.913 1159.47 Z" fill="#000000" fill-rule="nonzero" fill-opacity="1" /><path clip-path="url(#clip350)" d="M59.6171 700.93 L75.9365 700.93 L75.9365 704.865 L53.9921 704.865 L53.9921 700.93 Q56.6541 698.175 61.2375 693.545 Q65.8439 688.893 67.0245 687.55 Q69.2698 685.027 70.1494 683.291 Q71.0522 681.532 71.0522 679.842 Q71.0522 677.087 69.1078 675.351 Q67.1865 673.615 64.0847 673.615 Q61.8856 673.615 59.4319 674.379 Q57.0014 675.143 54.2236 676.694 L54.2236 671.972 Q57.0477 670.837 59.5014 670.259 Q61.955 669.68 63.9921 669.68 Q69.3624 669.68 72.5568 672.365 Q75.7513 675.05 75.7513 679.541 Q75.7513 681.671 74.9411 683.592 Q74.1541 685.49 72.0476 688.083 Q71.4689 688.754 68.367 691.971 Q65.2652 695.166 59.6171 700.93 Z" fill="#000000" fill-rule="nonzero" fill-opacity="1" /><path clip-path="url(#clip350)" d="M95.7512 673.384 Q92.1401 673.384 90.3114 676.948 Q88.5058 680.49 88.5058 687.62 Q88.5058 694.726 90.3114 698.291 Q92.1401 701.832 95.7512 701.832 Q99.3854 701.832 101.191 698.291 Q103.02 694.726 103.02 687.62 Q103.02 680.49 101.191 676.948 Q99.3854 673.384 95.7512 673.384 M95.7512 669.68 Q101.561 669.68 104.617 674.286 Q107.696 678.87 107.696 687.62 Q107.696 696.346 104.617 700.953 Q101.561 705.536 95.7512 705.536 Q89.941 705.536 86.8623 700.953 Q83.8068 696.346 83.8068 687.62 Q83.8068 678.87 86.8623 674.286 Q89.941 669.68 95.7512 669.68 Z" fill="#000000" fill-rule="nonzero" fill-opacity="1" /><path clip-path="url(#clip350)" d="M125.913 673.384 Q122.302 673.384 120.473 676.948 Q118.668 680.49 118.668 687.62 Q118.668 694.726 120.473 698.291 Q122.302 701.832 125.913 701.832 Q129.547 701.832 131.353 698.291 Q133.182 694.726 133.182 687.62 Q133.182 680.49 131.353 676.948 Q129.547 673.384 125.913 673.384 M125.913 669.68 Q131.723 669.68 134.779 674.286 Q137.857 678.87 137.857 687.62 Q137.857 696.346 134.779 700.953 Q131.723 705.536 125.913 705.536 Q120.103 705.536 117.024 700.953 Q113.969 696.346 113.969 687.62 Q113.969 678.87 117.024 674.286 Q120.103 669.68 125.913 669.68 Z" fill="#000000" fill-rule="nonzero" fill-opacity="1" /><path clip-path="url(#clip350)" d="M69.7559 196.439 Q73.1124 197.157 74.9874 199.425 Q76.8855 201.694 76.8855 205.027 Q76.8855 210.143 73.367 212.944 Q69.8485 215.745 63.3671 215.745 Q61.1912 215.745 58.8764 215.305 Q56.5847 214.888 54.131 214.032 L54.131 209.518 Q56.0754 210.652 58.3903 211.231 Q60.7051 211.809 63.2282 211.809 Q67.6263 211.809 69.918 210.073 Q72.2328 208.337 72.2328 205.027 Q72.2328 201.972 70.08 200.259 Q67.9504 198.523 64.131 198.523 L60.1032 198.523 L60.1032 194.68 L64.3161 194.68 Q67.7652 194.68 69.5939 193.314 Q71.4226 191.925 71.4226 189.333 Q71.4226 186.671 69.5245 185.259 Q67.6495 183.824 64.131 183.824 Q62.2097 183.824 60.0106 184.24 Q57.8115 184.657 55.1727 185.536 L55.1727 181.37 Q57.8347 180.629 60.1495 180.259 Q62.4875 179.888 64.5476 179.888 Q69.8717 179.888 72.9735 182.319 Q76.0753 184.726 76.0753 188.847 Q76.0753 191.717 74.4318 193.708 Q72.7883 195.675 69.7559 196.439 Z" fill="#000000" fill-rule="nonzero" fill-opacity="1" /><path clip-path="url(#clip350)" d="M95.7512 183.592 Q92.1401 183.592 90.3114 187.157 Q88.5058 190.698 88.5058 197.828 Q88.5058 204.935 90.3114 208.499 Q92.1401 212.041 95.7512 212.041 Q99.3854 212.041 101.191 208.499 Q103.02 204.935 103.02 197.828 Q103.02 190.698 101.191 187.157 Q99.3854 183.592 95.7512 183.592 M95.7512 179.888 Q101.561 179.888 104.617 184.495 Q107.696 189.078 107.696 197.828 Q107.696 206.555 104.617 211.161 Q101.561 215.745 95.7512 215.745 Q89.941 215.745 86.8623 211.161 Q83.8068 206.555 83.8068 197.828 Q83.8068 189.078 86.8623 184.495 Q89.941 179.888 95.7512 179.888 Z" fill="#000000" fill-rule="nonzero" fill-opacity="1" /><path clip-path="url(#clip350)" d="M125.913 183.592 Q122.302 183.592 120.473 187.157 Q118.668 190.698 118.668 197.828 Q118.668 204.935 120.473 208.499 Q122.302 212.041 125.913 212.041 Q129.547 212.041 131.353 208.499 Q133.182 204.935 133.182 197.828 Q133.182 190.698 131.353 187.157 Q129.547 183.592 125.913 183.592 M125.913 179.888 Q131.723 179.888 134.779 184.495 Q137.857 189.078 137.857 197.828 Q137.857 206.555 134.779 211.161 Q131.723 215.745 125.913 215.745 Q120.103 215.745 117.024 211.161 Q113.969 206.555 113.969 197.828 Q113.969 189.078 117.024 184.495 Q120.103 179.888 125.913 179.888 Z" fill="#000000" fill-rule="nonzero" fill-opacity="1" /><path clip-path="url(#clip350)" d="M639.008 18.8205 L639.008 41.5461 L649.297 41.5461 Q655.009 41.5461 658.128 38.5889 Q661.247 35.6318 661.247 30.163 Q661.247 24.7348 658.128 21.7777 Q655.009 18.8205 649.297 18.8205 L639.008 18.8205 M630.825 12.096 L649.297 12.096 Q659.465 12.096 664.65 16.714 Q669.876 21.2916 669.876 30.163 Q669.876 39.1155 664.65 43.6931 Q659.465 48.2706 649.297 48.2706 L639.008 48.2706 L639.008 72.576 L630.825 72.576 L630.825 12.096 Z" fill="#000000" fill-rule="nonzero" fill-opacity="1" /><path clip-path="url(#clip350)" d="M705.362 34.1734 Q704.106 33.4443 702.607 33.1202 Q701.149 32.7556 699.367 32.7556 Q693.047 32.7556 689.644 36.8875 Q686.282 40.9789 686.282 48.6757 L686.282 72.576 L678.788 72.576 L678.788 27.2059 L686.282 27.2059 L686.282 34.2544 Q688.632 30.1225 692.399 28.1376 Q696.166 26.1121 701.554 26.1121 Q702.324 26.1121 703.255 26.2337 Q704.187 26.3147 705.321 26.5172 L705.362 34.1734 Z" fill="#000000" fill-rule="nonzero" fill-opacity="1" /><path clip-path="url(#clip350)" d="M713.18 27.2059 L720.634 27.2059 L720.634 72.576 L713.18 72.576 L713.18 27.2059 M713.18 9.54393 L720.634 9.54393 L720.634 18.9825 L713.18 18.9825 L713.18 9.54393 Z" fill="#000000" fill-rule="nonzero" fill-opacity="1" /><path clip-path="url(#clip350)" d="M753.811 32.4315 Q747.815 32.4315 744.332 37.1306 Q740.848 41.7891 740.848 49.9314 Q740.848 58.0738 744.291 62.7728 Q747.775 67.4314 753.811 67.4314 Q759.765 67.4314 763.249 62.7323 Q766.733 58.0333 766.733 49.9314 Q766.733 41.8701 763.249 37.1711 Q759.765 32.4315 753.811 32.4315 M753.811 26.1121 Q763.533 26.1121 769.083 32.4315 Q774.632 38.7509 774.632 49.9314 Q774.632 61.0714 769.083 67.4314 Q763.533 73.7508 753.811 73.7508 Q744.048 73.7508 738.498 67.4314 Q732.989 61.0714 732.989 49.9314 Q732.989 38.7509 738.498 32.4315 Q744.048 26.1121 753.811 26.1121 Z" fill="#000000" fill-rule="nonzero" fill-opacity="1" /><path clip-path="url(#clip350)" d="M813.278 34.1734 Q812.022 33.4443 810.523 33.1202 Q809.065 32.7556 807.283 32.7556 Q800.963 32.7556 797.56 36.8875 Q794.198 40.9789 794.198 48.6757 L794.198 72.576 L786.704 72.576 L786.704 27.2059 L794.198 27.2059 L794.198 34.2544 Q796.548 30.1225 800.315 28.1376 Q804.082 26.1121 809.47 26.1121 Q810.24 26.1121 811.171 26.2337 Q812.103 26.3147 813.237 26.5172 L813.278 34.1734 Z" fill="#000000" fill-rule="nonzero" fill-opacity="1" /><path clip-path="url(#clip350)" d="M865.048 32.4315 Q859.053 32.4315 855.569 37.1306 Q852.086 41.7891 852.086 49.9314 Q852.086 58.0738 855.529 62.7728 Q859.013 67.4314 865.048 67.4314 Q871.003 67.4314 874.487 62.7323 Q877.971 58.0333 877.971 49.9314 Q877.971 41.8701 874.487 37.1711 Q871.003 32.4315 865.048 32.4315 M865.048 26.1121 Q874.771 26.1121 880.32 32.4315 Q885.87 38.7509 885.87 49.9314 Q885.87 61.0714 880.32 67.4314 Q874.771 73.7508 865.048 73.7508 Q855.286 73.7508 849.736 67.4314 Q844.227 61.0714 844.227 49.9314 Q844.227 38.7509 849.736 32.4315 Q855.286 26.1121 865.048 26.1121 Z" fill="#000000" fill-rule="nonzero" fill-opacity="1" /><path clip-path="url(#clip350)" d="M921.194 9.54393 L921.194 15.7418 L914.064 15.7418 Q910.054 15.7418 908.474 17.3622 Q906.935 18.9825 906.935 23.1955 L906.935 27.2059 L919.209 27.2059 L919.209 32.9987 L906.935 32.9987 L906.935 72.576 L899.441 72.576 L899.441 32.9987 L892.311 32.9987 L892.311 27.2059 L899.441 27.2059 L899.441 24.0462 Q899.441 16.471 902.965 13.0277 Q906.489 9.54393 914.145 9.54393 L921.194 9.54393 Z" fill="#000000" fill-rule="nonzero" fill-opacity="1" /><path clip-path="url(#clip350)" d="M982.727 28.5427 L982.727 35.5912 Q979.568 33.9709 976.165 33.1607 Q972.762 32.3505 969.116 32.3505 Q963.566 32.3505 960.771 34.0519 Q958.017 35.7533 958.017 39.156 Q958.017 41.7486 960.002 43.2475 Q961.987 44.7058 967.982 46.0426 L970.534 46.6097 Q978.474 48.3111 981.796 51.4303 Q985.158 54.509 985.158 60.0587 Q985.158 66.3781 980.135 70.0644 Q975.152 73.7508 966.402 73.7508 Q962.756 73.7508 958.786 73.0216 Q954.857 72.3329 950.482 70.9151 L950.482 63.2184 Q954.614 65.3654 958.624 66.4591 Q962.635 67.5124 966.564 67.5124 Q971.83 67.5124 974.666 65.73 Q977.502 63.9071 977.502 60.6258 Q977.502 57.5877 975.436 55.9673 Q973.41 54.3469 966.483 52.8481 L963.891 52.2405 Q956.964 50.7821 953.885 47.7845 Q950.806 44.7463 950.806 39.4801 Q950.806 33.0797 955.343 29.5959 Q959.88 26.1121 968.225 26.1121 Q972.357 26.1121 976.003 26.7198 Q979.649 27.3274 982.727 28.5427 Z" fill="#000000" fill-rule="nonzero" fill-opacity="1" /><path clip-path="url(#clip350)" d="M1017.65 49.7694 Q1008.61 49.7694 1005.13 51.8354 Q1001.64 53.9013 1001.64 58.8839 Q1001.64 62.8538 1004.24 65.2034 Q1006.87 67.5124 1011.37 67.5124 Q1017.57 67.5124 1021.29 63.1374 Q1025.06 58.7219 1025.06 51.4303 L1025.06 49.7694 L1017.65 49.7694 M1032.51 46.6907 L1032.51 72.576 L1025.06 72.576 L1025.06 65.6895 Q1022.51 69.8214 1018.7 71.8063 Q1014.89 73.7508 1009.38 73.7508 Q1002.41 73.7508 998.283 69.8619 Q994.191 65.9325 994.191 59.3701 Q994.191 51.7138 999.295 47.825 Q1004.44 43.9361 1014.61 43.9361 L1025.06 43.9361 L1025.06 43.2069 Q1025.06 38.0623 1021.66 35.2672 Q1018.29 32.4315 1012.18 32.4315 Q1008.29 32.4315 1004.6 33.3632 Q1000.92 34.295 997.513 36.1584 L997.513 29.2718 Q1001.6 27.692 1005.45 26.9223 Q1009.3 26.1121 1012.95 26.1121 Q1022.79 26.1121 1027.65 31.2163 Q1032.51 36.3204 1032.51 46.6907 Z" fill="#000000" fill-rule="nonzero" fill-opacity="1" /><path clip-path="url(#clip350)" d="M1083.19 35.9153 Q1085.98 30.8922 1089.87 28.5022 Q1093.76 26.1121 1099.03 26.1121 Q1106.12 26.1121 1109.97 31.0947 Q1113.81 36.0368 1113.81 45.1919 L1113.81 72.576 L1106.32 72.576 L1106.32 45.4349 Q1106.32 38.913 1104.01 35.7533 Q1101.7 32.5936 1096.96 32.5936 Q1091.17 32.5936 1087.81 36.4419 Q1084.45 40.2903 1084.45 46.9338 L1084.45 72.576 L1076.95 72.576 L1076.95 45.4349 Q1076.95 38.8725 1074.64 35.7533 Q1072.33 32.5936 1067.51 32.5936 Q1061.8 32.5936 1058.44 36.4824 Q1055.08 40.3308 1055.08 46.9338 L1055.08 72.576 L1047.58 72.576 L1047.58 27.2059 L1055.08 27.2059 L1055.08 34.2544 Q1057.63 30.082 1061.19 28.0971 Q1064.76 26.1121 1069.66 26.1121 Q1074.6 26.1121 1078.05 28.6237 Q1081.53 31.1352 1083.19 35.9153 Z" fill="#000000" fill-rule="nonzero" fill-opacity="1" /><path clip-path="url(#clip350)" d="M1135.89 65.7705 L1135.89 89.8329 L1128.4 89.8329 L1128.4 27.2059 L1135.89 27.2059 L1135.89 34.0924 Q1138.24 30.0415 1141.81 28.0971 Q1145.41 26.1121 1150.39 26.1121 Q1158.66 26.1121 1163.8 32.6746 Q1168.99 39.2371 1168.99 49.9314 Q1168.99 60.6258 1163.8 67.1883 Q1158.66 73.7508 1150.39 73.7508 Q1145.41 73.7508 1141.81 71.8063 Q1138.24 69.8214 1135.89 65.7705 M1161.25 49.9314 Q1161.25 41.7081 1157.85 37.0496 Q1154.49 32.3505 1148.57 32.3505 Q1142.66 32.3505 1139.25 37.0496 Q1135.89 41.7081 1135.89 49.9314 Q1135.89 58.1548 1139.25 62.8538 Q1142.66 67.5124 1148.57 67.5124 Q1154.49 67.5124 1157.85 62.8538 Q1161.25 58.1548 1161.25 49.9314 Z" fill="#000000" fill-rule="nonzero" fill-opacity="1" /><path clip-path="url(#clip350)" d="M1181.34 9.54393 L1188.8 9.54393 L1188.8 72.576 L1181.34 72.576 L1181.34 9.54393 Z" fill="#000000" fill-rule="nonzero" fill-opacity="1" /><path clip-path="url(#clip350)" d="M1243.2 48.0275 L1243.2 51.6733 L1208.93 51.6733 Q1209.42 59.3701 1213.55 63.421 Q1217.72 67.4314 1225.13 67.4314 Q1229.43 67.4314 1233.44 66.3781 Q1237.49 65.3249 1241.46 63.2184 L1241.46 70.267 Q1237.45 71.9684 1233.24 72.8596 Q1229.02 73.7508 1224.69 73.7508 Q1213.83 73.7508 1207.47 67.4314 Q1201.15 61.1119 1201.15 50.3365 Q1201.15 39.1965 1207.15 32.6746 Q1213.18 26.1121 1223.39 26.1121 Q1232.55 26.1121 1237.85 32.0264 Q1243.2 37.9003 1243.2 48.0275 M1235.75 45.84 Q1235.67 39.7232 1232.3 36.0774 Q1228.98 32.4315 1223.47 32.4315 Q1217.23 32.4315 1213.47 35.9558 Q1209.74 39.4801 1209.17 45.8805 L1235.75 45.84 Z" fill="#000000" fill-rule="nonzero" fill-opacity="1" /><path clip-path="url(#clip350)" d="M1284.36 28.5427 L1284.36 35.5912 Q1281.2 33.9709 1277.8 33.1607 Q1274.39 32.3505 1270.75 32.3505 Q1265.2 32.3505 1262.4 34.0519 Q1259.65 35.7533 1259.65 39.156 Q1259.65 41.7486 1261.63 43.2475 Q1263.62 44.7058 1269.61 46.0426 L1272.16 46.6097 Q1280.1 48.3111 1283.43 51.4303 Q1286.79 54.509 1286.79 60.0587 Q1286.79 66.3781 1281.77 70.0644 Q1276.78 73.7508 1268.03 73.7508 Q1264.39 73.7508 1260.42 73.0216 Q1256.49 72.3329 1252.11 70.9151 L1252.11 63.2184 Q1256.24 65.3654 1260.25 66.4591 Q1264.27 67.5124 1268.19 67.5124 Q1273.46 67.5124 1276.3 65.73 Q1279.13 63.9071 1279.13 60.6258 Q1279.13 57.5877 1277.07 55.9673 Q1275.04 54.3469 1268.11 52.8481 L1265.52 52.2405 Q1258.59 50.7821 1255.52 47.7845 Q1252.44 44.7463 1252.44 39.4801 Q1252.44 33.0797 1256.97 29.5959 Q1261.51 26.1121 1269.86 26.1121 Q1273.99 26.1121 1277.63 26.7198 Q1281.28 27.3274 1284.36 28.5427 Z" fill="#000000" fill-rule="nonzero" fill-opacity="1" /><path clip-path="url(#clip352)" d="M252.195 1657.37 L252.195 1667.17 L285.06 1667.17 L285.06 1657.37 L252.195 1657.37 L252.195 1657.37  Z" fill="#009af9" fill-rule="evenodd" fill-opacity="1"/>
<polyline clip-path="url(#clip352)" style="stroke:#000000; stroke-linecap:round; stroke-linejoin:round; stroke-width:8; stroke-opacity:1; fill:none" points="252.195,1657.37 252.195,1667.17 285.06,1667.17 285.06,1657.37 252.195,1657.37 "/>
<path clip-path="url(#clip352)" d="M285.06 1667.17 L285.06 1667.17 L317.926 1667.17 L317.926 1667.17 L285.06 1667.17 L285.06 1667.17  Z" fill="#009af9" fill-rule="evenodd" fill-opacity="1"/>
<polyline clip-path="url(#clip352)" style="stroke:#000000; stroke-linecap:round; stroke-linejoin:round; stroke-width:8; stroke-opacity:1; fill:none" points="285.06,1667.17 285.06,1667.17 317.926,1667.17 285.06,1667.17 "/>
<path clip-path="url(#clip352)" d="M317.926 1657.37 L317.926 1667.17 L350.792 1667.17 L350.792 1657.37 L317.926 1657.37 L317.926 1657.37  Z" fill="#009af9" fill-rule="evenodd" fill-opacity="1"/>
<polyline clip-path="url(#clip352)" style="stroke:#000000; stroke-linecap:round; stroke-linejoin:round; stroke-width:8; stroke-opacity:1; fill:none" points="317.926,1657.37 317.926,1667.17 350.792,1667.17 350.792,1657.37 317.926,1657.37 "/>
<path clip-path="url(#clip352)" d="M350.792 1642.68 L350.792 1667.17 L383.657 1667.17 L383.657 1642.68 L350.792 1642.68 L350.792 1642.68  Z" fill="#009af9" fill-rule="evenodd" fill-opacity="1"/>
<polyline clip-path="url(#clip352)" style="stroke:#000000; stroke-linecap:round; stroke-linejoin:round; stroke-width:8; stroke-opacity:1; fill:none" points="350.792,1642.68 350.792,1667.17 383.657,1667.17 383.657,1642.68 350.792,1642.68 "/>
<path clip-path="url(#clip352)" d="M383.657 1642.68 L383.657 1667.17 L416.523 1667.17 L416.523 1642.68 L383.657 1642.68 L383.657 1642.68  Z" fill="#009af9" fill-rule="evenodd" fill-opacity="1"/>
<polyline clip-path="url(#clip352)" style="stroke:#000000; stroke-linecap:round; stroke-linejoin:round; stroke-width:8; stroke-opacity:1; fill:none" points="383.657,1642.68 383.657,1667.17 416.523,1667.17 416.523,1642.68 383.657,1642.68 "/>
<path clip-path="url(#clip352)" d="M416.523 1627.98 L416.523 1667.17 L449.389 1667.17 L449.389 1627.98 L416.523 1627.98 L416.523 1627.98  Z" fill="#009af9" fill-rule="evenodd" fill-opacity="1"/>
<polyline clip-path="url(#clip352)" style="stroke:#000000; stroke-linecap:round; stroke-linejoin:round; stroke-width:8; stroke-opacity:1; fill:none" points="416.523,1627.98 416.523,1667.17 449.389,1667.17 449.389,1627.98 416.523,1627.98 "/>
<path clip-path="url(#clip352)" d="M449.389 1623.09 L449.389 1667.17 L482.254 1667.17 L482.254 1623.09 L449.389 1623.09 L449.389 1623.09  Z" fill="#009af9" fill-rule="evenodd" fill-opacity="1"/>
<polyline clip-path="url(#clip352)" style="stroke:#000000; stroke-linecap:round; stroke-linejoin:round; stroke-width:8; stroke-opacity:1; fill:none" points="449.389,1623.09 449.389,1667.17 482.254,1667.17 482.254,1623.09 449.389,1623.09 "/>
<path clip-path="url(#clip352)" d="M482.254 1603.49 L482.254 1667.17 L515.12 1667.17 L515.12 1603.49 L482.254 1603.49 L482.254 1603.49  Z" fill="#009af9" fill-rule="evenodd" fill-opacity="1"/>
<polyline clip-path="url(#clip352)" style="stroke:#000000; stroke-linecap:round; stroke-linejoin:round; stroke-width:8; stroke-opacity:1; fill:none" points="482.254,1603.49 482.254,1667.17 515.12,1667.17 515.12,1603.49 482.254,1603.49 "/>
<path clip-path="url(#clip352)" d="M515.12 1603.49 L515.12 1667.17 L547.986 1667.17 L547.986 1603.49 L515.12 1603.49 L515.12 1603.49  Z" fill="#009af9" fill-rule="evenodd" fill-opacity="1"/>
<polyline clip-path="url(#clip352)" style="stroke:#000000; stroke-linecap:round; stroke-linejoin:round; stroke-width:8; stroke-opacity:1; fill:none" points="515.12,1603.49 515.12,1667.17 547.986,1667.17 547.986,1603.49 515.12,1603.49 "/>
<path clip-path="url(#clip352)" d="M547.986 1554.52 L547.986 1667.17 L580.851 1667.17 L580.851 1554.52 L547.986 1554.52 L547.986 1554.52  Z" fill="#009af9" fill-rule="evenodd" fill-opacity="1"/>
<polyline clip-path="url(#clip352)" style="stroke:#000000; stroke-linecap:round; stroke-linejoin:round; stroke-width:8; stroke-opacity:1; fill:none" points="547.986,1554.52 547.986,1667.17 580.851,1667.17 580.851,1554.52 547.986,1554.52 "/>
<path clip-path="url(#clip352)" d="M580.851 1525.13 L580.851 1667.17 L613.717 1667.17 L613.717 1525.13 L580.851 1525.13 L580.851 1525.13  Z" fill="#009af9" fill-rule="evenodd" fill-opacity="1"/>
<polyline clip-path="url(#clip352)" style="stroke:#000000; stroke-linecap:round; stroke-linejoin:round; stroke-width:8; stroke-opacity:1; fill:none" points="580.851,1525.13 580.851,1667.17 613.717,1667.17 613.717,1525.13 580.851,1525.13 "/>
<path clip-path="url(#clip352)" d="M613.717 1461.46 L613.717 1667.17 L646.583 1667.17 L646.583 1461.46 L613.717 1461.46 L613.717 1461.46  Z" fill="#009af9" fill-rule="evenodd" fill-opacity="1"/>
<polyline clip-path="url(#clip352)" style="stroke:#000000; stroke-linecap:round; stroke-linejoin:round; stroke-width:8; stroke-opacity:1; fill:none" points="613.717,1461.46 613.717,1667.17 646.583,1667.17 646.583,1461.46 613.717,1461.46 "/>
<path clip-path="url(#clip352)" d="M646.583 1490.84 L646.583 1667.17 L679.448 1667.17 L679.448 1490.84 L646.583 1490.84 L646.583 1490.84  Z" fill="#009af9" fill-rule="evenodd" fill-opacity="1"/>
<polyline clip-path="url(#clip352)" style="stroke:#000000; stroke-linecap:round; stroke-linejoin:round; stroke-width:8; stroke-opacity:1; fill:none" points="646.583,1490.84 646.583,1667.17 679.448,1667.17 679.448,1490.84 646.583,1490.84 "/>
<path clip-path="url(#clip352)" d="M679.448 1402.68 L679.448 1667.17 L712.314 1667.17 L712.314 1402.68 L679.448 1402.68 L679.448 1402.68  Z" fill="#009af9" fill-rule="evenodd" fill-opacity="1"/>
<polyline clip-path="url(#clip352)" style="stroke:#000000; stroke-linecap:round; stroke-linejoin:round; stroke-width:8; stroke-opacity:1; fill:none" points="679.448,1402.68 679.448,1667.17 712.314,1667.17 712.314,1402.68 679.448,1402.68 "/>
<path clip-path="url(#clip352)" d="M712.314 1378.19 L712.314 1667.17 L745.18 1667.17 L745.18 1378.19 L712.314 1378.19 L712.314 1378.19  Z" fill="#009af9" fill-rule="evenodd" fill-opacity="1"/>
<polyline clip-path="url(#clip352)" style="stroke:#000000; stroke-linecap:round; stroke-linejoin:round; stroke-width:8; stroke-opacity:1; fill:none" points="712.314,1378.19 712.314,1667.17 745.18,1667.17 745.18,1378.19 712.314,1378.19 "/>
<path clip-path="url(#clip352)" d="M745.18 1358.6 L745.18 1667.17 L778.045 1667.17 L778.045 1358.6 L745.18 1358.6 L745.18 1358.6  Z" fill="#009af9" fill-rule="evenodd" fill-opacity="1"/>
<polyline clip-path="url(#clip352)" style="stroke:#000000; stroke-linecap:round; stroke-linejoin:round; stroke-width:8; stroke-opacity:1; fill:none" points="745.18,1358.6 745.18,1667.17 778.045,1667.17 778.045,1358.6 745.18,1358.6 "/>
<path clip-path="url(#clip352)" d="M778.045 1334.11 L778.045 1667.17 L810.911 1667.17 L810.911 1334.11 L778.045 1334.11 L778.045 1334.11  Z" fill="#009af9" fill-rule="evenodd" fill-opacity="1"/>
<polyline clip-path="url(#clip352)" style="stroke:#000000; stroke-linecap:round; stroke-linejoin:round; stroke-width:8; stroke-opacity:1; fill:none" points="778.045,1334.11 778.045,1667.17 810.911,1667.17 810.911,1334.11 778.045,1334.11 "/>
<path clip-path="url(#clip352)" d="M810.911 1275.33 L810.911 1667.17 L843.777 1667.17 L843.777 1275.33 L810.911 1275.33 L810.911 1275.33  Z" fill="#009af9" fill-rule="evenodd" fill-opacity="1"/>
<polyline clip-path="url(#clip352)" style="stroke:#000000; stroke-linecap:round; stroke-linejoin:round; stroke-width:8; stroke-opacity:1; fill:none" points="810.911,1275.33 810.911,1667.17 843.777,1667.17 843.777,1275.33 810.911,1275.33 "/>
<path clip-path="url(#clip352)" d="M843.777 1099.01 L843.777 1667.17 L876.642 1667.17 L876.642 1099.01 L843.777 1099.01 L843.777 1099.01  Z" fill="#009af9" fill-rule="evenodd" fill-opacity="1"/>
<polyline clip-path="url(#clip352)" style="stroke:#000000; stroke-linecap:round; stroke-linejoin:round; stroke-width:8; stroke-opacity:1; fill:none" points="843.777,1099.01 843.777,1667.17 876.642,1667.17 876.642,1099.01 843.777,1099.01 "/>
<path clip-path="url(#clip352)" d="M876.642 1074.52 L876.642 1667.17 L909.508 1667.17 L909.508 1074.52 L876.642 1074.52 L876.642 1074.52  Z" fill="#009af9" fill-rule="evenodd" fill-opacity="1"/>
<polyline clip-path="url(#clip352)" style="stroke:#000000; stroke-linecap:round; stroke-linejoin:round; stroke-width:8; stroke-opacity:1; fill:none" points="876.642,1074.52 876.642,1667.17 909.508,1667.17 909.508,1074.52 876.642,1074.52 "/>
<path clip-path="url(#clip352)" d="M909.508 986.358 L909.508 1667.17 L942.374 1667.17 L942.374 986.358 L909.508 986.358 L909.508 986.358  Z" fill="#009af9" fill-rule="evenodd" fill-opacity="1"/>
<polyline clip-path="url(#clip352)" style="stroke:#000000; stroke-linecap:round; stroke-linejoin:round; stroke-width:8; stroke-opacity:1; fill:none" points="909.508,986.358 909.508,1667.17 942.374,1667.17 942.374,986.358 909.508,986.358 "/>
<path clip-path="url(#clip352)" d="M942.374 1035.34 L942.374 1667.17 L975.239 1667.17 L975.239 1035.34 L942.374 1035.34 L942.374 1035.34  Z" fill="#009af9" fill-rule="evenodd" fill-opacity="1"/>
<polyline clip-path="url(#clip352)" style="stroke:#000000; stroke-linecap:round; stroke-linejoin:round; stroke-width:8; stroke-opacity:1; fill:none" points="942.374,1035.34 942.374,1667.17 975.239,1667.17 975.239,1035.34 942.374,1035.34 "/>
<path clip-path="url(#clip352)" d="M975.239 863.91 L975.239 1667.17 L1008.11 1667.17 L1008.11 863.91 L975.239 863.91 L975.239 863.91  Z" fill="#009af9" fill-rule="evenodd" fill-opacity="1"/>
<polyline clip-path="url(#clip352)" style="stroke:#000000; stroke-linecap:round; stroke-linejoin:round; stroke-width:8; stroke-opacity:1; fill:none" points="975.239,863.91 975.239,1667.17 1008.11,1667.17 1008.11,863.91 975.239,863.91 "/>
<path clip-path="url(#clip352)" d="M1008.11 770.849 L1008.11 1667.17 L1040.97 1667.17 L1040.97 770.849 L1008.11 770.849 L1008.11 770.849  Z" fill="#009af9" fill-rule="evenodd" fill-opacity="1"/>
<polyline clip-path="url(#clip352)" style="stroke:#000000; stroke-linecap:round; stroke-linejoin:round; stroke-width:8; stroke-opacity:1; fill:none" points="1008.11,770.849 1008.11,1667.17 1040.97,1667.17 1040.97,770.849 1008.11,770.849 "/>
<path clip-path="url(#clip352)" d="M1040.97 653.299 L1040.97 1667.17 L1073.84 1667.17 L1073.84 653.299 L1040.97 653.299 L1040.97 653.299  Z" fill="#009af9" fill-rule="evenodd" fill-opacity="1"/>
<polyline clip-path="url(#clip352)" style="stroke:#000000; stroke-linecap:round; stroke-linejoin:round; stroke-width:8; stroke-opacity:1; fill:none" points="1040.97,653.299 1040.97,1667.17 1073.84,1667.17 1073.84,653.299 1040.97,653.299 "/>
<path clip-path="url(#clip352)" d="M1073.84 726.768 L1073.84 1667.17 L1106.7 1667.17 L1106.7 726.768 L1073.84 726.768 L1073.84 726.768  Z" fill="#009af9" fill-rule="evenodd" fill-opacity="1"/>
<polyline clip-path="url(#clip352)" style="stroke:#000000; stroke-linecap:round; stroke-linejoin:round; stroke-width:8; stroke-opacity:1; fill:none" points="1073.84,726.768 1073.84,1667.17 1106.7,1667.17 1106.7,726.768 1073.84,726.768 "/>
<path clip-path="url(#clip352)" d="M1106.7 574.933 L1106.7 1667.17 L1139.57 1667.17 L1139.57 574.933 L1106.7 574.933 L1106.7 574.933  Z" fill="#009af9" fill-rule="evenodd" fill-opacity="1"/>
<polyline clip-path="url(#clip352)" style="stroke:#000000; stroke-linecap:round; stroke-linejoin:round; stroke-width:8; stroke-opacity:1; fill:none" points="1106.7,574.933 1106.7,1667.17 1139.57,1667.17 1139.57,574.933 1106.7,574.933 "/>
<path clip-path="url(#clip352)" d="M1139.57 442.689 L1139.57 1667.17 L1172.43 1667.17 L1172.43 442.689 L1139.57 442.689 L1139.57 442.689  Z" fill="#009af9" fill-rule="evenodd" fill-opacity="1"/>
<polyline clip-path="url(#clip352)" style="stroke:#000000; stroke-linecap:round; stroke-linejoin:round; stroke-width:8; stroke-opacity:1; fill:none" points="1139.57,442.689 1139.57,1667.17 1172.43,1667.17 1172.43,442.689 1139.57,442.689 "/>
<path clip-path="url(#clip352)" d="M1172.43 369.22 L1172.43 1667.17 L1205.3 1667.17 L1205.3 369.22 L1172.43 369.22 L1172.43 369.22  Z" fill="#009af9" fill-rule="evenodd" fill-opacity="1"/>
<polyline clip-path="url(#clip352)" style="stroke:#000000; stroke-linecap:round; stroke-linejoin:round; stroke-width:8; stroke-opacity:1; fill:none" points="1172.43,369.22 1172.43,1667.17 1205.3,1667.17 1205.3,369.22 1172.43,369.22 "/>
<path clip-path="url(#clip352)" d="M1205.3 565.137 L1205.3 1667.17 L1238.16 1667.17 L1238.16 565.137 L1205.3 565.137 L1205.3 565.137  Z" fill="#009af9" fill-rule="evenodd" fill-opacity="1"/>
<polyline clip-path="url(#clip352)" style="stroke:#000000; stroke-linecap:round; stroke-linejoin:round; stroke-width:8; stroke-opacity:1; fill:none" points="1205.3,565.137 1205.3,1667.17 1238.16,1667.17 1238.16,565.137 1205.3,565.137 "/>
<path clip-path="url(#clip352)" d="M1238.16 413.302 L1238.16 1667.17 L1271.03 1667.17 L1271.03 413.302 L1238.16 413.302 L1238.16 413.302  Z" fill="#009af9" fill-rule="evenodd" fill-opacity="1"/>
<polyline clip-path="url(#clip352)" style="stroke:#000000; stroke-linecap:round; stroke-linejoin:round; stroke-width:8; stroke-opacity:1; fill:none" points="1238.16,413.302 1238.16,1667.17 1271.03,1667.17 1271.03,413.302 1238.16,413.302 "/>
<path clip-path="url(#clip352)" d="M1271.03 462.281 L1271.03 1667.17 L1303.9 1667.17 L1303.9 462.281 L1271.03 462.281 L1271.03 462.281  Z" fill="#009af9" fill-rule="evenodd" fill-opacity="1"/>
<polyline clip-path="url(#clip352)" style="stroke:#000000; stroke-linecap:round; stroke-linejoin:round; stroke-width:8; stroke-opacity:1; fill:none" points="1271.03,462.281 1271.03,1667.17 1303.9,1667.17 1303.9,462.281 1271.03,462.281 "/>
<path clip-path="url(#clip352)" d="M1303.9 354.527 L1303.9 1667.17 L1336.76 1667.17 L1336.76 354.527 L1303.9 354.527 L1303.9 354.527  Z" fill="#009af9" fill-rule="evenodd" fill-opacity="1"/>
<polyline clip-path="url(#clip352)" style="stroke:#000000; stroke-linecap:round; stroke-linejoin:round; stroke-width:8; stroke-opacity:1; fill:none" points="1303.9,354.527 1303.9,1667.17 1336.76,1667.17 1336.76,354.527 1303.9,354.527 "/>
<path clip-path="url(#clip352)" d="M1336.76 153.712 L1336.76 1667.17 L1369.63 1667.17 L1369.63 153.712 L1336.76 153.712 L1336.76 153.712  Z" fill="#009af9" fill-rule="evenodd" fill-opacity="1"/>
<polyline clip-path="url(#clip352)" style="stroke:#000000; stroke-linecap:round; stroke-linejoin:round; stroke-width:8; stroke-opacity:1; fill:none" points="1336.76,153.712 1336.76,1667.17 1369.63,1667.17 1369.63,153.712 1336.76,153.712 "/>
<path clip-path="url(#clip352)" d="M1369.63 374.118 L1369.63 1667.17 L1402.49 1667.17 L1402.49 374.118 L1369.63 374.118 L1369.63 374.118  Z" fill="#009af9" fill-rule="evenodd" fill-opacity="1"/>
<polyline clip-path="url(#clip352)" style="stroke:#000000; stroke-linecap:round; stroke-linejoin:round; stroke-width:8; stroke-opacity:1; fill:none" points="1369.63,374.118 1369.63,1667.17 1402.49,1667.17 1402.49,374.118 1369.63,374.118 "/>
<path clip-path="url(#clip352)" d="M1402.49 388.812 L1402.49 1667.17 L1435.36 1667.17 L1435.36 388.812 L1402.49 388.812 L1402.49 388.812  Z" fill="#009af9" fill-rule="evenodd" fill-opacity="1"/>
<polyline clip-path="url(#clip352)" style="stroke:#000000; stroke-linecap:round; stroke-linejoin:round; stroke-width:8; stroke-opacity:1; fill:none" points="1402.49,388.812 1402.49,1667.17 1435.36,1667.17 1435.36,388.812 1402.49,388.812 "/>
<path clip-path="url(#clip352)" d="M1435.36 707.177 L1435.36 1667.17 L1468.22 1667.17 L1468.22 707.177 L1435.36 707.177 L1435.36 707.177  Z" fill="#009af9" fill-rule="evenodd" fill-opacity="1"/>
<polyline clip-path="url(#clip352)" style="stroke:#000000; stroke-linecap:round; stroke-linejoin:round; stroke-width:8; stroke-opacity:1; fill:none" points="1435.36,707.177 1435.36,1667.17 1468.22,1667.17 1468.22,707.177 1435.36,707.177 "/>
<path clip-path="url(#clip352)" d="M1468.22 775.747 L1468.22 1667.17 L1501.09 1667.17 L1501.09 775.747 L1468.22 775.747 L1468.22 775.747  Z" fill="#009af9" fill-rule="evenodd" fill-opacity="1"/>
<polyline clip-path="url(#clip352)" style="stroke:#000000; stroke-linecap:round; stroke-linejoin:round; stroke-width:8; stroke-opacity:1; fill:none" points="1468.22,775.747 1468.22,1667.17 1501.09,1667.17 1501.09,775.747 1468.22,775.747 "/>
<path clip-path="url(#clip352)" d="M1501.09 981.46 L1501.09 1667.17 L1533.96 1667.17 L1533.96 981.46 L1501.09 981.46 L1501.09 981.46  Z" fill="#009af9" fill-rule="evenodd" fill-opacity="1"/>
<polyline clip-path="url(#clip352)" style="stroke:#000000; stroke-linecap:round; stroke-linejoin:round; stroke-width:8; stroke-opacity:1; fill:none" points="1501.09,981.46 1501.09,1667.17 1533.96,1667.17 1533.96,981.46 1501.09,981.46 "/>
<path clip-path="url(#clip352)" d="M1533.96 1226.36 L1533.96 1667.17 L1566.82 1667.17 L1566.82 1226.36 L1533.96 1226.36 L1533.96 1226.36  Z" fill="#009af9" fill-rule="evenodd" fill-opacity="1"/>
<polyline clip-path="url(#clip352)" style="stroke:#000000; stroke-linecap:round; stroke-linejoin:round; stroke-width:8; stroke-opacity:1; fill:none" points="1533.96,1226.36 1533.96,1667.17 1566.82,1667.17 1566.82,1226.36 1533.96,1226.36 "/>
<path clip-path="url(#clip352)" d="M1566.82 1422.27 L1566.82 1667.17 L1599.69 1667.17 L1599.69 1422.27 L1566.82 1422.27 L1566.82 1422.27  Z" fill="#009af9" fill-rule="evenodd" fill-opacity="1"/>
<polyline clip-path="url(#clip352)" style="stroke:#000000; stroke-linecap:round; stroke-linejoin:round; stroke-width:8; stroke-opacity:1; fill:none" points="1566.82,1422.27 1566.82,1667.17 1599.69,1667.17 1599.69,1422.27 1566.82,1422.27 "/>
<path clip-path="url(#clip352)" d="M1599.69 1608.39 L1599.69 1667.17 L1632.55 1667.17 L1632.55 1608.39 L1599.69 1608.39 L1599.69 1608.39  Z" fill="#009af9" fill-rule="evenodd" fill-opacity="1"/>
<polyline clip-path="url(#clip352)" style="stroke:#000000; stroke-linecap:round; stroke-linejoin:round; stroke-width:8; stroke-opacity:1; fill:none" points="1599.69,1608.39 1599.69,1667.17 1632.55,1667.17 1632.55,1608.39 1599.69,1608.39 "/>
<path clip-path="url(#clip352)" d="M1632.55 1662.27 L1632.55 1667.17 L1665.42 1667.17 L1665.42 1662.27 L1632.55 1662.27 L1632.55 1662.27  Z" fill="#009af9" fill-rule="evenodd" fill-opacity="1"/>
<polyline clip-path="url(#clip352)" style="stroke:#000000; stroke-linecap:round; stroke-linejoin:round; stroke-width:8; stroke-opacity:1; fill:none" points="1632.55,1662.27 1632.55,1667.17 1665.42,1667.17 1665.42,1662.27 1632.55,1662.27 "/>
<circle clip-path="url(#clip352)" style="fill:#009af9; stroke:none; fill-opacity:0" cx="268.627" cy="1657.37" r="2"/>
<circle clip-path="url(#clip352)" style="fill:#009af9; stroke:none; fill-opacity:0" cx="301.493" cy="1667.17" r="2"/>
<circle clip-path="url(#clip352)" style="fill:#009af9; stroke:none; fill-opacity:0" cx="334.359" cy="1657.37" r="2"/>
<circle clip-path="url(#clip352)" style="fill:#009af9; stroke:none; fill-opacity:0" cx="367.225" cy="1642.68" r="2"/>
<circle clip-path="url(#clip352)" style="fill:#009af9; stroke:none; fill-opacity:0" cx="400.09" cy="1642.68" r="2"/>
<circle clip-path="url(#clip352)" style="fill:#009af9; stroke:none; fill-opacity:0" cx="432.956" cy="1627.98" r="2"/>
<circle clip-path="url(#clip352)" style="fill:#009af9; stroke:none; fill-opacity:0" cx="465.822" cy="1623.09" r="2"/>
<circle clip-path="url(#clip352)" style="fill:#009af9; stroke:none; fill-opacity:0" cx="498.687" cy="1603.49" r="2"/>
<circle clip-path="url(#clip352)" style="fill:#009af9; stroke:none; fill-opacity:0" cx="531.553" cy="1603.49" r="2"/>
<circle clip-path="url(#clip352)" style="fill:#009af9; stroke:none; fill-opacity:0" cx="564.419" cy="1554.52" r="2"/>
<circle clip-path="url(#clip352)" style="fill:#009af9; stroke:none; fill-opacity:0" cx="597.284" cy="1525.13" r="2"/>
<circle clip-path="url(#clip352)" style="fill:#009af9; stroke:none; fill-opacity:0" cx="630.15" cy="1461.46" r="2"/>
<circle clip-path="url(#clip352)" style="fill:#009af9; stroke:none; fill-opacity:0" cx="663.016" cy="1490.84" r="2"/>
<circle clip-path="url(#clip352)" style="fill:#009af9; stroke:none; fill-opacity:0" cx="695.881" cy="1402.68" r="2"/>
<circle clip-path="url(#clip352)" style="fill:#009af9; stroke:none; fill-opacity:0" cx="728.747" cy="1378.19" r="2"/>
<circle clip-path="url(#clip352)" style="fill:#009af9; stroke:none; fill-opacity:0" cx="761.613" cy="1358.6" r="2"/>
<circle clip-path="url(#clip352)" style="fill:#009af9; stroke:none; fill-opacity:0" cx="794.478" cy="1334.11" r="2"/>
<circle clip-path="url(#clip352)" style="fill:#009af9; stroke:none; fill-opacity:0" cx="827.344" cy="1275.33" r="2"/>
<circle clip-path="url(#clip352)" style="fill:#009af9; stroke:none; fill-opacity:0" cx="860.21" cy="1099.01" r="2"/>
<circle clip-path="url(#clip352)" style="fill:#009af9; stroke:none; fill-opacity:0" cx="893.075" cy="1074.52" r="2"/>
<circle clip-path="url(#clip352)" style="fill:#009af9; stroke:none; fill-opacity:0" cx="925.941" cy="986.358" r="2"/>
<circle clip-path="url(#clip352)" style="fill:#009af9; stroke:none; fill-opacity:0" cx="958.807" cy="1035.34" r="2"/>
<circle clip-path="url(#clip352)" style="fill:#009af9; stroke:none; fill-opacity:0" cx="991.672" cy="863.91" r="2"/>
<circle clip-path="url(#clip352)" style="fill:#009af9; stroke:none; fill-opacity:0" cx="1024.54" cy="770.849" r="2"/>
<circle clip-path="url(#clip352)" style="fill:#009af9; stroke:none; fill-opacity:0" cx="1057.4" cy="653.299" r="2"/>
<circle clip-path="url(#clip352)" style="fill:#009af9; stroke:none; fill-opacity:0" cx="1090.27" cy="726.768" r="2"/>
<circle clip-path="url(#clip352)" style="fill:#009af9; stroke:none; fill-opacity:0" cx="1123.14" cy="574.933" r="2"/>
<circle clip-path="url(#clip352)" style="fill:#009af9; stroke:none; fill-opacity:0" cx="1156" cy="442.689" r="2"/>
<circle clip-path="url(#clip352)" style="fill:#009af9; stroke:none; fill-opacity:0" cx="1188.87" cy="369.22" r="2"/>
<circle clip-path="url(#clip352)" style="fill:#009af9; stroke:none; fill-opacity:0" cx="1221.73" cy="565.137" r="2"/>
<circle clip-path="url(#clip352)" style="fill:#009af9; stroke:none; fill-opacity:0" cx="1254.6" cy="413.302" r="2"/>
<circle clip-path="url(#clip352)" style="fill:#009af9; stroke:none; fill-opacity:0" cx="1287.46" cy="462.281" r="2"/>
<circle clip-path="url(#clip352)" style="fill:#009af9; stroke:none; fill-opacity:0" cx="1320.33" cy="354.527" r="2"/>
<circle clip-path="url(#clip352)" style="fill:#009af9; stroke:none; fill-opacity:0" cx="1353.19" cy="153.712" r="2"/>
<circle clip-path="url(#clip352)" style="fill:#009af9; stroke:none; fill-opacity:0" cx="1386.06" cy="374.118" r="2"/>
<circle clip-path="url(#clip352)" style="fill:#009af9; stroke:none; fill-opacity:0" cx="1418.93" cy="388.812" r="2"/>
<circle clip-path="url(#clip352)" style="fill:#009af9; stroke:none; fill-opacity:0" cx="1451.79" cy="707.177" r="2"/>
<circle clip-path="url(#clip352)" style="fill:#009af9; stroke:none; fill-opacity:0" cx="1484.66" cy="775.747" r="2"/>
<circle clip-path="url(#clip352)" style="fill:#009af9; stroke:none; fill-opacity:0" cx="1517.52" cy="981.46" r="2"/>
<circle clip-path="url(#clip352)" style="fill:#009af9; stroke:none; fill-opacity:0" cx="1550.39" cy="1226.36" r="2"/>
<circle clip-path="url(#clip352)" style="fill:#009af9; stroke:none; fill-opacity:0" cx="1583.25" cy="1422.27" r="2"/>
<circle clip-path="url(#clip352)" style="fill:#009af9; stroke:none; fill-opacity:0" cx="1616.12" cy="1608.39" r="2"/>
<circle clip-path="url(#clip352)" style="fill:#009af9; stroke:none; fill-opacity:0" cx="1648.99" cy="1662.27" r="2"/>
<polyline clip-path="url(#clip352)" style="stroke:#e26f46; stroke-linecap:round; stroke-linejoin:round; stroke-width:8; stroke-opacity:1; fill:none" points="1172.43,3180.62 1172.43,-1359.74 "/>
</svg>
