<?xml version="1.0" encoding="utf-8"?>
<svg xmlns="http://www.w3.org/2000/svg" xmlns:xlink="http://www.w3.org/1999/xlink" width="450" height="450" viewBox="0 0 1800 1800">
<defs>
  <clipPath id="clip890">
    <rect x="0" y="0" width="1800" height="1800"/>
  </clipPath>
</defs>
<path clip-path="url(#clip890)" d="M0 1800 L1800 1800 L1800 0 L0 0  Z" fill="#ffffff" fill-rule="evenodd" fill-opacity="1"/>
<defs>
  <clipPath id="clip891">
    <rect x="360" y="180" width="1261" height="1261"/>
  </clipPath>
</defs>
<path clip-path="url(#clip890)" d="M164.857 1667.17 L1752.76 1667.17 L1752.76 153.712 L164.857 153.712  Z" fill="#ffffff" fill-rule="evenodd" fill-opacity="1"/>
<defs>
  <clipPath id="clip892">
    <rect x="164" y="153" width="1589" height="1514"/>
  </clipPath>
</defs>
<polyline clip-path="url(#clip892)" style="stroke:#000000; stroke-linecap:round; stroke-linejoin:round; stroke-width:2; stroke-opacity:0.1; fill:none" points="462.675,1667.17 462.675,153.712 "/>
<polyline clip-path="url(#clip892)" style="stroke:#000000; stroke-linecap:round; stroke-linejoin:round; stroke-width:2; stroke-opacity:0.1; fill:none" points="763.361,1667.17 763.361,153.712 "/>
<polyline clip-path="url(#clip892)" style="stroke:#000000; stroke-linecap:round; stroke-linejoin:round; stroke-width:2; stroke-opacity:0.1; fill:none" points="1064.05,1667.17 1064.05,153.712 "/>
<polyline clip-path="url(#clip892)" style="stroke:#000000; stroke-linecap:round; stroke-linejoin:round; stroke-width:2; stroke-opacity:0.1; fill:none" points="1364.73,1667.17 1364.73,153.712 "/>
<polyline clip-path="url(#clip892)" style="stroke:#000000; stroke-linecap:round; stroke-linejoin:round; stroke-width:2; stroke-opacity:0.1; fill:none" points="1665.42,1667.17 1665.42,153.712 "/>
<polyline clip-path="url(#clip890)" style="stroke:#000000; stroke-linecap:round; stroke-linejoin:round; stroke-width:4; stroke-opacity:1; fill:none" points="164.857,1667.17 1752.76,1667.17 "/>
<polyline clip-path="url(#clip890)" style="stroke:#000000; stroke-linecap:round; stroke-linejoin:round; stroke-width:4; stroke-opacity:1; fill:none" points="462.675,1667.17 462.675,1648.27 "/>
<polyline clip-path="url(#clip890)" style="stroke:#000000; stroke-linecap:round; stroke-linejoin:round; stroke-width:4; stroke-opacity:1; fill:none" points="763.361,1667.17 763.361,1648.27 "/>
<polyline clip-path="url(#clip890)" style="stroke:#000000; stroke-linecap:round; stroke-linejoin:round; stroke-width:4; stroke-opacity:1; fill:none" points="1064.05,1667.17 1064.05,1648.27 "/>
<polyline clip-path="url(#clip890)" style="stroke:#000000; stroke-linecap:round; stroke-linejoin:round; stroke-width:4; stroke-opacity:1; fill:none" points="1364.73,1667.17 1364.73,1648.27 "/>
<polyline clip-path="url(#clip890)" style="stroke:#000000; stroke-linecap:round; stroke-linejoin:round; stroke-width:4; stroke-opacity:1; fill:none" points="1665.42,1667.17 1665.42,1648.27 "/>
<path clip-path="url(#clip890)" d="M440.858 1693.29 Q437.247 1693.29 435.418 1696.85 Q433.612 1700.39 433.612 1707.52 Q433.612 1714.63 435.418 1718.19 Q437.247 1721.74 440.858 1721.74 Q444.492 1721.74 446.298 1718.19 Q448.126 1714.63 448.126 1707.52 Q448.126 1700.39 446.298 1696.85 Q444.492 1693.29 440.858 1693.29 M440.858 1689.58 Q446.668 1689.58 449.724 1694.19 Q452.802 1698.77 452.802 1707.52 Q452.802 1716.25 449.724 1720.86 Q446.668 1725.44 440.858 1725.44 Q435.048 1725.44 431.969 1720.86 Q428.913 1716.25 428.913 1707.52 Q428.913 1698.77 431.969 1694.19 Q435.048 1689.58 440.858 1689.58 Z" fill="#000000" fill-rule="nonzero" fill-opacity="1" /><path clip-path="url(#clip890)" d="M461.02 1718.89 L465.904 1718.89 L465.904 1724.77 L461.02 1724.77 L461.02 1718.89 Z" fill="#000000" fill-rule="nonzero" fill-opacity="1" /><path clip-path="url(#clip890)" d="M480.117 1720.83 L496.436 1720.83 L496.436 1724.77 L474.492 1724.77 L474.492 1720.83 Q477.154 1718.08 481.737 1713.45 Q486.344 1708.8 487.524 1707.45 Q489.77 1704.93 490.649 1703.19 Q491.552 1701.43 491.552 1699.74 Q491.552 1696.99 489.608 1695.25 Q487.686 1693.52 484.584 1693.52 Q482.385 1693.52 479.932 1694.28 Q477.501 1695.05 474.723 1696.6 L474.723 1691.87 Q477.547 1690.74 480.001 1690.16 Q482.455 1689.58 484.492 1689.58 Q489.862 1689.58 493.057 1692.27 Q496.251 1694.95 496.251 1699.44 Q496.251 1701.57 495.441 1703.49 Q494.654 1705.39 492.547 1707.99 Q491.969 1708.66 488.867 1711.87 Q485.765 1715.07 480.117 1720.83 Z" fill="#000000" fill-rule="nonzero" fill-opacity="1" /><path clip-path="url(#clip890)" d="M740.502 1693.29 Q736.891 1693.29 735.062 1696.85 Q733.257 1700.39 733.257 1707.52 Q733.257 1714.63 735.062 1718.19 Q736.891 1721.74 740.502 1721.74 Q744.136 1721.74 745.942 1718.19 Q747.771 1714.63 747.771 1707.52 Q747.771 1700.39 745.942 1696.85 Q744.136 1693.29 740.502 1693.29 M740.502 1689.58 Q746.312 1689.58 749.368 1694.19 Q752.446 1698.77 752.446 1707.52 Q752.446 1716.25 749.368 1720.86 Q746.312 1725.44 740.502 1725.44 Q734.692 1725.44 731.613 1720.86 Q728.558 1716.25 728.558 1707.52 Q728.558 1698.77 731.613 1694.19 Q734.692 1689.58 740.502 1689.58 Z" fill="#000000" fill-rule="nonzero" fill-opacity="1" /><path clip-path="url(#clip890)" d="M760.664 1718.89 L765.548 1718.89 L765.548 1724.77 L760.664 1724.77 L760.664 1718.89 Z" fill="#000000" fill-rule="nonzero" fill-opacity="1" /><path clip-path="url(#clip890)" d="M788.581 1694.28 L776.775 1712.73 L788.581 1712.73 L788.581 1694.28 M787.354 1690.21 L793.233 1690.21 L793.233 1712.73 L798.164 1712.73 L798.164 1716.62 L793.233 1716.62 L793.233 1724.77 L788.581 1724.77 L788.581 1716.62 L772.979 1716.62 L772.979 1712.11 L787.354 1690.21 Z" fill="#000000" fill-rule="nonzero" fill-opacity="1" /><path clip-path="url(#clip890)" d="M1041.35 1693.29 Q1037.74 1693.29 1035.91 1696.85 Q1034.1 1700.39 1034.1 1707.52 Q1034.1 1714.63 1035.91 1718.19 Q1037.74 1721.74 1041.35 1721.74 Q1044.98 1721.74 1046.79 1718.19 Q1048.62 1714.63 1048.62 1707.52 Q1048.62 1700.39 1046.79 1696.85 Q1044.98 1693.29 1041.35 1693.29 M1041.35 1689.58 Q1047.16 1689.58 1050.22 1694.19 Q1053.29 1698.77 1053.29 1707.52 Q1053.29 1716.25 1050.22 1720.86 Q1047.16 1725.44 1041.35 1725.44 Q1035.54 1725.44 1032.46 1720.86 Q1029.41 1716.25 1029.41 1707.52 Q1029.41 1698.77 1032.46 1694.19 Q1035.54 1689.58 1041.35 1689.58 Z" fill="#000000" fill-rule="nonzero" fill-opacity="1" /><path clip-path="url(#clip890)" d="M1061.51 1718.89 L1066.4 1718.89 L1066.4 1724.77 L1061.51 1724.77 L1061.51 1718.89 Z" fill="#000000" fill-rule="nonzero" fill-opacity="1" /><path clip-path="url(#clip890)" d="M1087.16 1705.62 Q1084.01 1705.62 1082.16 1707.78 Q1080.33 1709.93 1080.33 1713.68 Q1080.33 1717.41 1082.16 1719.58 Q1084.01 1721.74 1087.16 1721.74 Q1090.31 1721.74 1092.14 1719.58 Q1093.99 1717.41 1093.99 1713.68 Q1093.99 1709.93 1092.14 1707.78 Q1090.31 1705.62 1087.16 1705.62 M1096.44 1690.97 L1096.44 1695.23 Q1094.68 1694.4 1092.88 1693.96 Q1091.1 1693.52 1089.34 1693.52 Q1084.71 1693.52 1082.25 1696.64 Q1079.82 1699.77 1079.47 1706.09 Q1080.84 1704.07 1082.9 1703.01 Q1084.96 1701.92 1087.44 1701.92 Q1092.65 1701.92 1095.66 1705.09 Q1098.69 1708.24 1098.69 1713.68 Q1098.69 1719 1095.54 1722.22 Q1092.39 1725.44 1087.16 1725.44 Q1081.16 1725.44 1077.99 1720.86 Q1074.82 1716.25 1074.82 1707.52 Q1074.82 1699.33 1078.71 1694.47 Q1082.6 1689.58 1089.15 1689.58 Q1090.91 1689.58 1092.69 1689.93 Q1094.5 1690.28 1096.44 1690.97 Z" fill="#000000" fill-rule="nonzero" fill-opacity="1" /><path clip-path="url(#clip890)" d="M1342.16 1693.29 Q1338.55 1693.29 1336.72 1696.85 Q1334.92 1700.39 1334.92 1707.52 Q1334.92 1714.63 1336.72 1718.19 Q1338.55 1721.74 1342.16 1721.74 Q1345.8 1721.74 1347.6 1718.19 Q1349.43 1714.63 1349.43 1707.52 Q1349.43 1700.39 1347.6 1696.85 Q1345.8 1693.29 1342.16 1693.29 M1342.16 1689.58 Q1347.97 1689.58 1351.03 1694.19 Q1354.11 1698.77 1354.11 1707.52 Q1354.11 1716.25 1351.03 1720.86 Q1347.97 1725.44 1342.16 1725.44 Q1336.35 1725.44 1333.27 1720.86 Q1330.22 1716.25 1330.22 1707.52 Q1330.22 1698.77 1333.27 1694.19 Q1336.35 1689.58 1342.16 1689.58 Z" fill="#000000" fill-rule="nonzero" fill-opacity="1" /><path clip-path="url(#clip890)" d="M1362.33 1718.89 L1367.21 1718.89 L1367.21 1724.77 L1362.33 1724.77 L1362.33 1718.89 Z" fill="#000000" fill-rule="nonzero" fill-opacity="1" /><path clip-path="url(#clip890)" d="M1387.39 1708.36 Q1384.06 1708.36 1382.14 1710.14 Q1380.24 1711.92 1380.24 1715.05 Q1380.24 1718.17 1382.14 1719.95 Q1384.06 1721.74 1387.39 1721.74 Q1390.73 1721.74 1392.65 1719.95 Q1394.57 1718.15 1394.57 1715.05 Q1394.57 1711.92 1392.65 1710.14 Q1390.75 1708.36 1387.39 1708.36 M1382.72 1706.37 Q1379.71 1705.62 1378.02 1703.56 Q1376.35 1701.5 1376.35 1698.54 Q1376.35 1694.4 1379.29 1691.99 Q1382.26 1689.58 1387.39 1689.58 Q1392.56 1689.58 1395.5 1691.99 Q1398.44 1694.4 1398.44 1698.54 Q1398.44 1701.5 1396.75 1703.56 Q1395.08 1705.62 1392.09 1706.37 Q1395.47 1707.15 1397.35 1709.44 Q1399.25 1711.74 1399.25 1715.05 Q1399.25 1720.07 1396.17 1722.75 Q1393.11 1725.44 1387.39 1725.44 Q1381.68 1725.44 1378.6 1722.75 Q1375.54 1720.07 1375.54 1715.05 Q1375.54 1711.74 1377.44 1709.44 Q1379.34 1707.15 1382.72 1706.37 M1381.01 1698.98 Q1381.01 1701.67 1382.67 1703.17 Q1384.36 1704.68 1387.39 1704.68 Q1390.4 1704.68 1392.09 1703.17 Q1393.81 1701.67 1393.81 1698.98 Q1393.81 1696.3 1392.09 1694.79 Q1390.4 1693.29 1387.39 1693.29 Q1384.36 1693.29 1382.67 1694.79 Q1381.01 1696.3 1381.01 1698.98 Z" fill="#000000" fill-rule="nonzero" fill-opacity="1" /><path clip-path="url(#clip890)" d="M1632.57 1720.83 L1640.21 1720.83 L1640.21 1694.47 L1631.9 1696.13 L1631.9 1691.87 L1640.16 1690.21 L1644.84 1690.21 L1644.84 1720.83 L1652.48 1720.83 L1652.48 1724.77 L1632.57 1724.77 L1632.57 1720.83 Z" fill="#000000" fill-rule="nonzero" fill-opacity="1" /><path clip-path="url(#clip890)" d="M1661.92 1718.89 L1666.81 1718.89 L1666.81 1724.77 L1661.92 1724.77 L1661.92 1718.89 Z" fill="#000000" fill-rule="nonzero" fill-opacity="1" /><path clip-path="url(#clip890)" d="M1686.99 1693.29 Q1683.38 1693.29 1681.55 1696.85 Q1679.75 1700.39 1679.75 1707.52 Q1679.75 1714.63 1681.55 1718.19 Q1683.38 1721.74 1686.99 1721.74 Q1690.63 1721.74 1692.43 1718.19 Q1694.26 1714.63 1694.26 1707.52 Q1694.26 1700.39 1692.43 1696.85 Q1690.63 1693.29 1686.99 1693.29 M1686.99 1689.58 Q1692.8 1689.58 1695.86 1694.19 Q1698.94 1698.77 1698.94 1707.52 Q1698.94 1716.25 1695.86 1720.86 Q1692.8 1725.44 1686.99 1725.44 Q1681.18 1725.44 1678.1 1720.86 Q1675.05 1716.25 1675.05 1707.52 Q1675.05 1698.77 1678.1 1694.19 Q1681.18 1689.58 1686.99 1689.58 Z" fill="#000000" fill-rule="nonzero" fill-opacity="1" /><polyline clip-path="url(#clip892)" style="stroke:#000000; stroke-linecap:round; stroke-linejoin:round; stroke-width:2; stroke-opacity:0.1; fill:none" points="164.857,1667.17 1752.76,1667.17 "/>
<polyline clip-path="url(#clip892)" style="stroke:#000000; stroke-linecap:round; stroke-linejoin:round; stroke-width:2; stroke-opacity:0.1; fill:none" points="164.857,1397.87 1752.76,1397.87 "/>
<polyline clip-path="url(#clip892)" style="stroke:#000000; stroke-linecap:round; stroke-linejoin:round; stroke-width:2; stroke-opacity:0.1; fill:none" points="164.857,1128.57 1752.76,1128.57 "/>
<polyline clip-path="url(#clip892)" style="stroke:#000000; stroke-linecap:round; stroke-linejoin:round; stroke-width:2; stroke-opacity:0.1; fill:none" points="164.857,859.273 1752.76,859.273 "/>
<polyline clip-path="url(#clip892)" style="stroke:#000000; stroke-linecap:round; stroke-linejoin:round; stroke-width:2; stroke-opacity:0.1; fill:none" points="164.857,589.975 1752.76,589.975 "/>
<polyline clip-path="url(#clip892)" style="stroke:#000000; stroke-linecap:round; stroke-linejoin:round; stroke-width:2; stroke-opacity:0.1; fill:none" points="164.857,320.677 1752.76,320.677 "/>
<polyline clip-path="url(#clip890)" style="stroke:#000000; stroke-linecap:round; stroke-linejoin:round; stroke-width:4; stroke-opacity:1; fill:none" points="164.857,1667.17 164.857,153.712 "/>
<polyline clip-path="url(#clip890)" style="stroke:#000000; stroke-linecap:round; stroke-linejoin:round; stroke-width:4; stroke-opacity:1; fill:none" points="164.857,1667.17 183.755,1667.17 "/>
<polyline clip-path="url(#clip890)" style="stroke:#000000; stroke-linecap:round; stroke-linejoin:round; stroke-width:4; stroke-opacity:1; fill:none" points="164.857,1397.87 183.755,1397.87 "/>
<polyline clip-path="url(#clip890)" style="stroke:#000000; stroke-linecap:round; stroke-linejoin:round; stroke-width:4; stroke-opacity:1; fill:none" points="164.857,1128.57 183.755,1128.57 "/>
<polyline clip-path="url(#clip890)" style="stroke:#000000; stroke-linecap:round; stroke-linejoin:round; stroke-width:4; stroke-opacity:1; fill:none" points="164.857,859.273 183.755,859.273 "/>
<polyline clip-path="url(#clip890)" style="stroke:#000000; stroke-linecap:round; stroke-linejoin:round; stroke-width:4; stroke-opacity:1; fill:none" points="164.857,589.975 183.755,589.975 "/>
<polyline clip-path="url(#clip890)" style="stroke:#000000; stroke-linecap:round; stroke-linejoin:round; stroke-width:4; stroke-opacity:1; fill:none" points="164.857,320.677 183.755,320.677 "/>
<path clip-path="url(#clip890)" d="M125.913 1652.97 Q122.302 1652.97 120.473 1656.53 Q118.668 1660.07 118.668 1667.2 Q118.668 1674.31 120.473 1677.87 Q122.302 1681.42 125.913 1681.42 Q129.547 1681.42 131.353 1677.87 Q133.182 1674.31 133.182 1667.2 Q133.182 1660.07 131.353 1656.53 Q129.547 1652.97 125.913 1652.97 M125.913 1649.26 Q131.723 1649.26 134.779 1653.87 Q137.857 1658.45 137.857 1667.2 Q137.857 1675.93 134.779 1680.54 Q131.723 1685.12 125.913 1685.12 Q120.103 1685.12 117.024 1680.54 Q113.969 1675.93 113.969 1667.2 Q113.969 1658.45 117.024 1653.87 Q120.103 1649.26 125.913 1649.26 Z" fill="#000000" fill-rule="nonzero" fill-opacity="1" /><path clip-path="url(#clip890)" d="M85.7975 1380.59 L104.154 1380.59 L104.154 1384.52 L90.0799 1384.52 L90.0799 1393 Q91.0984 1392.65 92.1169 1392.49 Q93.1354 1392.3 94.1539 1392.3 Q99.941 1392.3 103.321 1395.47 Q106.7 1398.65 106.7 1404.06 Q106.7 1409.64 103.228 1412.74 Q99.7558 1415.82 93.4364 1415.82 Q91.2604 1415.82 88.9919 1415.45 Q86.7466 1415.08 84.3392 1414.34 L84.3392 1409.64 Q86.4225 1410.77 88.6447 1411.33 Q90.8669 1411.89 93.3438 1411.89 Q97.3484 1411.89 99.6863 1409.78 Q102.024 1407.67 102.024 1404.06 Q102.024 1400.45 99.6863 1398.34 Q97.3484 1396.24 93.3438 1396.24 Q91.4688 1396.24 89.5938 1396.65 Q87.7419 1397.07 85.7975 1397.95 L85.7975 1380.59 Z" fill="#000000" fill-rule="nonzero" fill-opacity="1" /><path clip-path="url(#clip890)" d="M125.913 1383.67 Q122.302 1383.67 120.473 1387.23 Q118.668 1390.77 118.668 1397.9 Q118.668 1405.01 120.473 1408.58 Q122.302 1412.12 125.913 1412.12 Q129.547 1412.12 131.353 1408.58 Q133.182 1405.01 133.182 1397.9 Q133.182 1390.77 131.353 1387.23 Q129.547 1383.67 125.913 1383.67 M125.913 1379.96 Q131.723 1379.96 134.779 1384.57 Q137.857 1389.15 137.857 1397.9 Q137.857 1406.63 134.779 1411.24 Q131.723 1415.82 125.913 1415.82 Q120.103 1415.82 117.024 1411.24 Q113.969 1406.63 113.969 1397.9 Q113.969 1389.15 117.024 1384.57 Q120.103 1379.96 125.913 1379.96 Z" fill="#000000" fill-rule="nonzero" fill-opacity="1" /><path clip-path="url(#clip890)" d="M56.3995 1141.92 L64.0384 1141.92 L64.0384 1115.55 L55.7282 1117.22 L55.7282 1112.96 L63.9921 1111.29 L68.668 1111.29 L68.668 1141.92 L76.3068 1141.92 L76.3068 1145.85 L56.3995 1145.85 L56.3995 1141.92 Z" fill="#000000" fill-rule="nonzero" fill-opacity="1" /><path clip-path="url(#clip890)" d="M95.7512 1114.37 Q92.1401 1114.37 90.3114 1117.94 Q88.5058 1121.48 88.5058 1128.61 Q88.5058 1135.71 90.3114 1139.28 Q92.1401 1142.82 95.7512 1142.82 Q99.3854 1142.82 101.191 1139.28 Q103.02 1135.71 103.02 1128.61 Q103.02 1121.48 101.191 1117.94 Q99.3854 1114.37 95.7512 1114.37 M95.7512 1110.67 Q101.561 1110.67 104.617 1115.27 Q107.696 1119.86 107.696 1128.61 Q107.696 1137.33 104.617 1141.94 Q101.561 1146.52 95.7512 1146.52 Q89.941 1146.52 86.8623 1141.94 Q83.8068 1137.33 83.8068 1128.61 Q83.8068 1119.86 86.8623 1115.27 Q89.941 1110.67 95.7512 1110.67 Z" fill="#000000" fill-rule="nonzero" fill-opacity="1" /><path clip-path="url(#clip890)" d="M125.913 1114.37 Q122.302 1114.37 120.473 1117.94 Q118.668 1121.48 118.668 1128.61 Q118.668 1135.71 120.473 1139.28 Q122.302 1142.82 125.913 1142.82 Q129.547 1142.82 131.353 1139.28 Q133.182 1135.71 133.182 1128.61 Q133.182 1121.48 131.353 1117.94 Q129.547 1114.37 125.913 1114.37 M125.913 1110.67 Q131.723 1110.67 134.779 1115.27 Q137.857 1119.86 137.857 1128.61 Q137.857 1137.33 134.779 1141.94 Q131.723 1146.52 125.913 1146.52 Q120.103 1146.52 117.024 1141.94 Q113.969 1137.33 113.969 1128.61 Q113.969 1119.86 117.024 1115.27 Q120.103 1110.67 125.913 1110.67 Z" fill="#000000" fill-rule="nonzero" fill-opacity="1" /><path clip-path="url(#clip890)" d="M56.3995 872.618 L64.0384 872.618 L64.0384 846.253 L55.7282 847.919 L55.7282 843.66 L63.9921 841.993 L68.668 841.993 L68.668 872.618 L76.3068 872.618 L76.3068 876.553 L56.3995 876.553 L56.3995 872.618 Z" fill="#000000" fill-rule="nonzero" fill-opacity="1" /><path clip-path="url(#clip890)" d="M85.7975 841.993 L104.154 841.993 L104.154 845.929 L90.0799 845.929 L90.0799 854.401 Q91.0984 854.053 92.1169 853.891 Q93.1354 853.706 94.1539 853.706 Q99.941 853.706 103.321 856.878 Q106.7 860.049 106.7 865.465 Q106.7 871.044 103.228 874.146 Q99.7558 877.225 93.4364 877.225 Q91.2604 877.225 88.9919 876.854 Q86.7466 876.484 84.3392 875.743 L84.3392 871.044 Q86.4225 872.178 88.6447 872.734 Q90.8669 873.289 93.3438 873.289 Q97.3484 873.289 99.6863 871.183 Q102.024 869.077 102.024 865.465 Q102.024 861.854 99.6863 859.748 Q97.3484 857.641 93.3438 857.641 Q91.4688 857.641 89.5938 858.058 Q87.7419 858.475 85.7975 859.354 L85.7975 841.993 Z" fill="#000000" fill-rule="nonzero" fill-opacity="1" /><path clip-path="url(#clip890)" d="M125.913 845.072 Q122.302 845.072 120.473 848.637 Q118.668 852.178 118.668 859.308 Q118.668 866.415 120.473 869.979 Q122.302 873.521 125.913 873.521 Q129.547 873.521 131.353 869.979 Q133.182 866.415 133.182 859.308 Q133.182 852.178 131.353 848.637 Q129.547 845.072 125.913 845.072 M125.913 841.368 Q131.723 841.368 134.779 845.975 Q137.857 850.558 137.857 859.308 Q137.857 868.035 134.779 872.641 Q131.723 877.225 125.913 877.225 Q120.103 877.225 117.024 872.641 Q113.969 868.035 113.969 859.308 Q113.969 850.558 117.024 845.975 Q120.103 841.368 125.913 841.368 Z" fill="#000000" fill-rule="nonzero" fill-opacity="1" /><path clip-path="url(#clip890)" d="M59.6171 603.32 L75.9365 603.32 L75.9365 607.255 L53.9921 607.255 L53.9921 603.32 Q56.6541 600.565 61.2375 595.936 Q65.8439 591.283 67.0245 589.94 Q69.2698 587.417 70.1494 585.681 Q71.0522 583.922 71.0522 582.232 Q71.0522 579.478 69.1078 577.741 Q67.1865 576.005 64.0847 576.005 Q61.8856 576.005 59.4319 576.769 Q57.0014 577.533 54.2236 579.084 L54.2236 574.362 Q57.0477 573.228 59.5014 572.649 Q61.955 572.07 63.9921 572.07 Q69.3624 572.07 72.5568 574.755 Q75.7513 577.441 75.7513 581.931 Q75.7513 584.061 74.9411 585.982 Q74.1541 587.88 72.0476 590.473 Q71.4689 591.144 68.367 594.362 Q65.2652 597.556 59.6171 603.32 Z" fill="#000000" fill-rule="nonzero" fill-opacity="1" /><path clip-path="url(#clip890)" d="M95.7512 575.774 Q92.1401 575.774 90.3114 579.339 Q88.5058 582.88 88.5058 590.01 Q88.5058 597.116 90.3114 600.681 Q92.1401 604.223 95.7512 604.223 Q99.3854 604.223 101.191 600.681 Q103.02 597.116 103.02 590.01 Q103.02 582.88 101.191 579.339 Q99.3854 575.774 95.7512 575.774 M95.7512 572.07 Q101.561 572.07 104.617 576.677 Q107.696 581.26 107.696 590.01 Q107.696 598.737 104.617 603.343 Q101.561 607.926 95.7512 607.926 Q89.941 607.926 86.8623 603.343 Q83.8068 598.737 83.8068 590.01 Q83.8068 581.26 86.8623 576.677 Q89.941 572.07 95.7512 572.07 Z" fill="#000000" fill-rule="nonzero" fill-opacity="1" /><path clip-path="url(#clip890)" d="M125.913 575.774 Q122.302 575.774 120.473 579.339 Q118.668 582.88 118.668 590.01 Q118.668 597.116 120.473 600.681 Q122.302 604.223 125.913 604.223 Q129.547 604.223 131.353 600.681 Q133.182 597.116 133.182 590.01 Q133.182 582.88 131.353 579.339 Q129.547 575.774 125.913 575.774 M125.913 572.07 Q131.723 572.07 134.779 576.677 Q137.857 581.26 137.857 590.01 Q137.857 598.737 134.779 603.343 Q131.723 607.926 125.913 607.926 Q120.103 607.926 117.024 603.343 Q113.969 598.737 113.969 590.01 Q113.969 581.26 117.024 576.677 Q120.103 572.07 125.913 572.07 Z" fill="#000000" fill-rule="nonzero" fill-opacity="1" /><path clip-path="url(#clip890)" d="M59.6171 334.022 L75.9365 334.022 L75.9365 337.957 L53.9921 337.957 L53.9921 334.022 Q56.6541 331.267 61.2375 326.638 Q65.8439 321.985 67.0245 320.642 Q69.2698 318.119 70.1494 316.383 Q71.0522 314.624 71.0522 312.934 Q71.0522 310.179 69.1078 308.443 Q67.1865 306.707 64.0847 306.707 Q61.8856 306.707 59.4319 307.471 Q57.0014 308.235 54.2236 309.786 L54.2236 305.064 Q57.0477 303.929 59.5014 303.351 Q61.955 302.772 63.9921 302.772 Q69.3624 302.772 72.5568 305.457 Q75.7513 308.142 75.7513 312.633 Q75.7513 314.763 74.9411 316.684 Q74.1541 318.582 72.0476 321.175 Q71.4689 321.846 68.367 325.064 Q65.2652 328.258 59.6171 334.022 Z" fill="#000000" fill-rule="nonzero" fill-opacity="1" /><path clip-path="url(#clip890)" d="M85.7975 303.397 L104.154 303.397 L104.154 307.332 L90.0799 307.332 L90.0799 315.804 Q91.0984 315.457 92.1169 315.295 Q93.1354 315.11 94.1539 315.11 Q99.941 315.11 103.321 318.281 Q106.7 321.452 106.7 326.869 Q106.7 332.448 103.228 335.55 Q99.7558 338.628 93.4364 338.628 Q91.2604 338.628 88.9919 338.258 Q86.7466 337.888 84.3392 337.147 L84.3392 332.448 Q86.4225 333.582 88.6447 334.138 Q90.8669 334.693 93.3438 334.693 Q97.3484 334.693 99.6863 332.587 Q102.024 330.48 102.024 326.869 Q102.024 323.258 99.6863 321.152 Q97.3484 319.045 93.3438 319.045 Q91.4688 319.045 89.5938 319.462 Q87.7419 319.878 85.7975 320.758 L85.7975 303.397 Z" fill="#000000" fill-rule="nonzero" fill-opacity="1" /><path clip-path="url(#clip890)" d="M125.913 306.476 Q122.302 306.476 120.473 310.04 Q118.668 313.582 118.668 320.712 Q118.668 327.818 120.473 331.383 Q122.302 334.925 125.913 334.925 Q129.547 334.925 131.353 331.383 Q133.182 327.818 133.182 320.712 Q133.182 313.582 131.353 310.04 Q129.547 306.476 125.913 306.476 M125.913 302.772 Q131.723 302.772 134.779 307.378 Q137.857 311.962 137.857 320.712 Q137.857 329.439 134.779 334.045 Q131.723 338.628 125.913 338.628 Q120.103 338.628 117.024 334.045 Q113.969 329.439 113.969 320.712 Q113.969 311.962 117.024 307.378 Q120.103 302.772 125.913 302.772 Z" fill="#000000" fill-rule="nonzero" fill-opacity="1" /><path clip-path="url(#clip890)" d="M639.008 18.8205 L639.008 41.5461 L649.297 41.5461 Q655.009 41.5461 658.128 38.5889 Q661.247 35.6318 661.247 30.163 Q661.247 24.7348 658.128 21.7777 Q655.009 18.8205 649.297 18.8205 L639.008 18.8205 M630.825 12.096 L649.297 12.096 Q659.465 12.096 664.65 16.714 Q669.876 21.2916 669.876 30.163 Q669.876 39.1155 664.65 43.6931 Q659.465 48.2706 649.297 48.2706 L639.008 48.2706 L639.008 72.576 L630.825 72.576 L630.825 12.096 Z" fill="#000000" fill-rule="nonzero" fill-opacity="1" /><path clip-path="url(#clip890)" d="M705.362 34.1734 Q704.106 33.4443 702.607 33.1202 Q701.149 32.7556 699.367 32.7556 Q693.047 32.7556 689.644 36.8875 Q686.282 40.9789 686.282 48.6757 L686.282 72.576 L678.788 72.576 L678.788 27.2059 L686.282 27.2059 L686.282 34.2544 Q688.632 30.1225 692.399 28.1376 Q696.166 26.1121 701.554 26.1121 Q702.324 26.1121 703.255 26.2337 Q704.187 26.3147 705.321 26.5172 L705.362 34.1734 Z" fill="#000000" fill-rule="nonzero" fill-opacity="1" /><path clip-path="url(#clip890)" d="M713.18 27.2059 L720.634 27.2059 L720.634 72.576 L713.18 72.576 L713.18 27.2059 M713.18 9.54393 L720.634 9.54393 L720.634 18.9825 L713.18 18.9825 L713.18 9.54393 Z" fill="#000000" fill-rule="nonzero" fill-opacity="1" /><path clip-path="url(#clip890)" d="M753.811 32.4315 Q747.815 32.4315 744.332 37.1306 Q740.848 41.7891 740.848 49.9314 Q740.848 58.0738 744.291 62.7728 Q747.775 67.4314 753.811 67.4314 Q759.765 67.4314 763.249 62.7323 Q766.733 58.0333 766.733 49.9314 Q766.733 41.8701 763.249 37.1711 Q759.765 32.4315 753.811 32.4315 M753.811 26.1121 Q763.533 26.1121 769.083 32.4315 Q774.632 38.7509 774.632 49.9314 Q774.632 61.0714 769.083 67.4314 Q763.533 73.7508 753.811 73.7508 Q744.048 73.7508 738.498 67.4314 Q732.989 61.0714 732.989 49.9314 Q732.989 38.7509 738.498 32.4315 Q744.048 26.1121 753.811 26.1121 Z" fill="#000000" fill-rule="nonzero" fill-opacity="1" /><path clip-path="url(#clip890)" d="M813.278 34.1734 Q812.022 33.4443 810.523 33.1202 Q809.065 32.7556 807.283 32.7556 Q800.963 32.7556 797.56 36.8875 Q794.198 40.9789 794.198 48.6757 L794.198 72.576 L786.704 72.576 L786.704 27.2059 L794.198 27.2059 L794.198 34.2544 Q796.548 30.1225 800.315 28.1376 Q804.082 26.1121 809.47 26.1121 Q810.24 26.1121 811.171 26.2337 Q812.103 26.3147 813.237 26.5172 L813.278 34.1734 Z" fill="#000000" fill-rule="nonzero" fill-opacity="1" /><path clip-path="url(#clip890)" d="M865.048 32.4315 Q859.053 32.4315 855.569 37.1306 Q852.086 41.7891 852.086 49.9314 Q852.086 58.0738 855.529 62.7728 Q859.013 67.4314 865.048 67.4314 Q871.003 67.4314 874.487 62.7323 Q877.971 58.0333 877.971 49.9314 Q877.971 41.8701 874.487 37.1711 Q871.003 32.4315 865.048 32.4315 M865.048 26.1121 Q874.771 26.1121 880.32 32.4315 Q885.87 38.7509 885.87 49.9314 Q885.87 61.0714 880.32 67.4314 Q874.771 73.7508 865.048 73.7508 Q855.286 73.7508 849.736 67.4314 Q844.227 61.0714 844.227 49.9314 Q844.227 38.7509 849.736 32.4315 Q855.286 26.1121 865.048 26.1121 Z" fill="#000000" fill-rule="nonzero" fill-opacity="1" /><path clip-path="url(#clip890)" d="M921.194 9.54393 L921.194 15.7418 L914.064 15.7418 Q910.054 15.7418 908.474 17.3622 Q906.935 18.9825 906.935 23.1955 L906.935 27.2059 L919.209 27.2059 L919.209 32.9987 L906.935 32.9987 L906.935 72.576 L899.441 72.576 L899.441 32.9987 L892.311 32.9987 L892.311 27.2059 L899.441 27.2059 L899.441 24.0462 Q899.441 16.471 902.965 13.0277 Q906.489 9.54393 914.145 9.54393 L921.194 9.54393 Z" fill="#000000" fill-rule="nonzero" fill-opacity="1" /><path clip-path="url(#clip890)" d="M982.727 28.5427 L982.727 35.5912 Q979.568 33.9709 976.165 33.1607 Q972.762 32.3505 969.116 32.3505 Q963.566 32.3505 960.771 34.0519 Q958.017 35.7533 958.017 39.156 Q958.017 41.7486 960.002 43.2475 Q961.987 44.7058 967.982 46.0426 L970.534 46.6097 Q978.474 48.3111 981.796 51.4303 Q985.158 54.509 985.158 60.0587 Q985.158 66.3781 980.135 70.0644 Q975.152 73.7508 966.402 73.7508 Q962.756 73.7508 958.786 73.0216 Q954.857 72.3329 950.482 70.9151 L950.482 63.2184 Q954.614 65.3654 958.624 66.4591 Q962.635 67.5124 966.564 67.5124 Q971.83 67.5124 974.666 65.73 Q977.502 63.9071 977.502 60.6258 Q977.502 57.5877 975.436 55.9673 Q973.41 54.3469 966.483 52.8481 L963.891 52.2405 Q956.964 50.7821 953.885 47.7845 Q950.806 44.7463 950.806 39.4801 Q950.806 33.0797 955.343 29.5959 Q959.88 26.1121 968.225 26.1121 Q972.357 26.1121 976.003 26.7198 Q979.649 27.3274 982.727 28.5427 Z" fill="#000000" fill-rule="nonzero" fill-opacity="1" /><path clip-path="url(#clip890)" d="M1017.65 49.7694 Q1008.61 49.7694 1005.13 51.8354 Q1001.64 53.9013 1001.64 58.8839 Q1001.64 62.8538 1004.24 65.2034 Q1006.87 67.5124 1011.37 67.5124 Q1017.57 67.5124 1021.29 63.1374 Q1025.06 58.7219 1025.06 51.4303 L1025.06 49.7694 L1017.65 49.7694 M1032.51 46.6907 L1032.51 72.576 L1025.06 72.576 L1025.06 65.6895 Q1022.51 69.8214 1018.7 71.8063 Q1014.89 73.7508 1009.38 73.7508 Q1002.41 73.7508 998.283 69.8619 Q994.191 65.9325 994.191 59.3701 Q994.191 51.7138 999.295 47.825 Q1004.44 43.9361 1014.61 43.9361 L1025.06 43.9361 L1025.06 43.2069 Q1025.06 38.0623 1021.66 35.2672 Q1018.29 32.4315 1012.18 32.4315 Q1008.29 32.4315 1004.6 33.3632 Q1000.92 34.295 997.513 36.1584 L997.513 29.2718 Q1001.6 27.692 1005.45 26.9223 Q1009.3 26.1121 1012.95 26.1121 Q1022.79 26.1121 1027.65 31.2163 Q1032.51 36.3204 1032.51 46.6907 Z" fill="#000000" fill-rule="nonzero" fill-opacity="1" /><path clip-path="url(#clip890)" d="M1083.19 35.9153 Q1085.98 30.8922 1089.87 28.5022 Q1093.76 26.1121 1099.03 26.1121 Q1106.12 26.1121 1109.97 31.0947 Q1113.81 36.0368 1113.81 45.1919 L1113.81 72.576 L1106.32 72.576 L1106.32 45.4349 Q1106.32 38.913 1104.01 35.7533 Q1101.7 32.5936 1096.96 32.5936 Q1091.17 32.5936 1087.81 36.4419 Q1084.45 40.2903 1084.45 46.9338 L1084.45 72.576 L1076.95 72.576 L1076.95 45.4349 Q1076.95 38.8725 1074.64 35.7533 Q1072.33 32.5936 1067.51 32.5936 Q1061.8 32.5936 1058.44 36.4824 Q1055.08 40.3308 1055.08 46.9338 L1055.08 72.576 L1047.58 72.576 L1047.58 27.2059 L1055.08 27.2059 L1055.08 34.2544 Q1057.63 30.082 1061.19 28.0971 Q1064.76 26.1121 1069.66 26.1121 Q1074.6 26.1121 1078.05 28.6237 Q1081.53 31.1352 1083.19 35.9153 Z" fill="#000000" fill-rule="nonzero" fill-opacity="1" /><path clip-path="url(#clip890)" d="M1135.89 65.7705 L1135.89 89.8329 L1128.4 89.8329 L1128.4 27.2059 L1135.89 27.2059 L1135.89 34.0924 Q1138.24 30.0415 1141.81 28.0971 Q1145.41 26.1121 1150.39 26.1121 Q1158.66 26.1121 1163.8 32.6746 Q1168.99 39.2371 1168.99 49.9314 Q1168.99 60.6258 1163.8 67.1883 Q1158.66 73.7508 1150.39 73.7508 Q1145.41 73.7508 1141.81 71.8063 Q1138.24 69.8214 1135.89 65.7705 M1161.25 49.9314 Q1161.25 41.7081 1157.85 37.0496 Q1154.49 32.3505 1148.57 32.3505 Q1142.66 32.3505 1139.25 37.0496 Q1135.89 41.7081 1135.89 49.9314 Q1135.89 58.1548 1139.25 62.8538 Q1142.66 67.5124 1148.57 67.5124 Q1154.49 67.5124 1157.85 62.8538 Q1161.25 58.1548 1161.25 49.9314 Z" fill="#000000" fill-rule="nonzero" fill-opacity="1" /><path clip-path="url(#clip890)" d="M1181.34 9.54393 L1188.8 9.54393 L1188.8 72.576 L1181.34 72.576 L1181.34 9.54393 Z" fill="#000000" fill-rule="nonzero" fill-opacity="1" /><path clip-path="url(#clip890)" d="M1243.2 48.0275 L1243.2 51.6733 L1208.93 51.6733 Q1209.42 59.3701 1213.55 63.421 Q1217.72 67.4314 1225.13 67.4314 Q1229.43 67.4314 1233.44 66.3781 Q1237.49 65.3249 1241.46 63.2184 L1241.46 70.267 Q1237.45 71.9684 1233.24 72.8596 Q1229.02 73.7508 1224.69 73.7508 Q1213.83 73.7508 1207.47 67.4314 Q1201.15 61.1119 1201.15 50.3365 Q1201.15 39.1965 1207.15 32.6746 Q1213.18 26.1121 1223.39 26.1121 Q1232.55 26.1121 1237.85 32.0264 Q1243.2 37.9003 1243.2 48.0275 M1235.75 45.84 Q1235.67 39.7232 1232.3 36.0774 Q1228.98 32.4315 1223.47 32.4315 Q1217.23 32.4315 1213.47 35.9558 Q1209.74 39.4801 1209.17 45.8805 L1235.75 45.84 Z" fill="#000000" fill-rule="nonzero" fill-opacity="1" /><path clip-path="url(#clip890)" d="M1284.36 28.5427 L1284.36 35.5912 Q1281.2 33.9709 1277.8 33.1607 Q1274.39 32.3505 1270.75 32.3505 Q1265.2 32.3505 1262.4 34.0519 Q1259.65 35.7533 1259.65 39.156 Q1259.65 41.7486 1261.63 43.2475 Q1263.62 44.7058 1269.61 46.0426 L1272.16 46.6097 Q1280.1 48.3111 1283.43 51.4303 Q1286.79 54.509 1286.79 60.0587 Q1286.79 66.3781 1281.77 70.0644 Q1276.78 73.7508 1268.03 73.7508 Q1264.39 73.7508 1260.42 73.0216 Q1256.49 72.3329 1252.11 70.9151 L1252.11 63.2184 Q1256.24 65.3654 1260.25 66.4591 Q1264.27 67.5124 1268.19 67.5124 Q1273.46 67.5124 1276.3 65.73 Q1279.13 63.9071 1279.13 60.6258 Q1279.13 57.5877 1277.07 55.9673 Q1275.04 54.3469 1268.11 52.8481 L1265.52 52.2405 Q1258.59 50.7821 1255.52 47.7845 Q1252.44 44.7463 1252.44 39.4801 Q1252.44 33.0797 1256.97 29.5959 Q1261.51 26.1121 1269.86 26.1121 Q1273.99 26.1121 1277.63 26.7198 Q1281.28 27.3274 1284.36 28.5427 Z" fill="#000000" fill-rule="nonzero" fill-opacity="1" /><path clip-path="url(#clip892)" d="M252.195 1661.78 L252.195 1667.17 L282.263 1667.17 L282.263 1661.78 L252.195 1661.78 L252.195 1661.78  Z" fill="#009af9" fill-rule="evenodd" fill-opacity="1"/>
<polyline clip-path="url(#clip892)" style="stroke:#000000; stroke-linecap:round; stroke-linejoin:round; stroke-width:8; stroke-opacity:1; fill:none" points="252.195,1661.78 252.195,1667.17 282.263,1667.17 282.263,1661.78 252.195,1661.78 "/>
<path clip-path="url(#clip892)" d="M282.263 1667.17 L282.263 1667.17 L312.332 1667.17 L312.332 1667.17 L282.263 1667.17 L282.263 1667.17  Z" fill="#009af9" fill-rule="evenodd" fill-opacity="1"/>
<polyline clip-path="url(#clip892)" style="stroke:#000000; stroke-linecap:round; stroke-linejoin:round; stroke-width:8; stroke-opacity:1; fill:none" points="282.263,1667.17 282.263,1667.17 312.332,1667.17 282.263,1667.17 "/>
<path clip-path="url(#clip892)" d="M312.332 1661.78 L312.332 1667.17 L342.4 1667.17 L342.4 1661.78 L312.332 1661.78 L312.332 1661.78  Z" fill="#009af9" fill-rule="evenodd" fill-opacity="1"/>
<polyline clip-path="url(#clip892)" style="stroke:#000000; stroke-linecap:round; stroke-linejoin:round; stroke-width:8; stroke-opacity:1; fill:none" points="312.332,1661.78 312.332,1667.17 342.4,1667.17 342.4,1661.78 312.332,1661.78 "/>
<path clip-path="url(#clip892)" d="M342.4 1667.17 L342.4 1667.17 L372.469 1667.17 L372.469 1667.17 L342.4 1667.17 L342.4 1667.17  Z" fill="#009af9" fill-rule="evenodd" fill-opacity="1"/>
<polyline clip-path="url(#clip892)" style="stroke:#000000; stroke-linecap:round; stroke-linejoin:round; stroke-width:8; stroke-opacity:1; fill:none" points="342.4,1667.17 342.4,1667.17 372.469,1667.17 342.4,1667.17 "/>
<path clip-path="url(#clip892)" d="M372.469 1656.4 L372.469 1667.17 L402.538 1667.17 L402.538 1656.4 L372.469 1656.4 L372.469 1656.4  Z" fill="#009af9" fill-rule="evenodd" fill-opacity="1"/>
<polyline clip-path="url(#clip892)" style="stroke:#000000; stroke-linecap:round; stroke-linejoin:round; stroke-width:8; stroke-opacity:1; fill:none" points="372.469,1656.4 372.469,1667.17 402.538,1667.17 402.538,1656.4 372.469,1656.4 "/>
<path clip-path="url(#clip892)" d="M402.538 1661.78 L402.538 1667.17 L432.606 1667.17 L432.606 1661.78 L402.538 1661.78 L402.538 1661.78  Z" fill="#009af9" fill-rule="evenodd" fill-opacity="1"/>
<polyline clip-path="url(#clip892)" style="stroke:#000000; stroke-linecap:round; stroke-linejoin:round; stroke-width:8; stroke-opacity:1; fill:none" points="402.538,1661.78 402.538,1667.17 432.606,1667.17 432.606,1661.78 402.538,1661.78 "/>
<path clip-path="url(#clip892)" d="M432.606 1634.85 L432.606 1667.17 L462.675 1667.17 L462.675 1634.85 L432.606 1634.85 L432.606 1634.85  Z" fill="#009af9" fill-rule="evenodd" fill-opacity="1"/>
<polyline clip-path="url(#clip892)" style="stroke:#000000; stroke-linecap:round; stroke-linejoin:round; stroke-width:8; stroke-opacity:1; fill:none" points="432.606,1634.85 432.606,1667.17 462.675,1667.17 462.675,1634.85 432.606,1634.85 "/>
<path clip-path="url(#clip892)" d="M462.675 1634.85 L462.675 1667.17 L492.743 1667.17 L492.743 1634.85 L462.675 1634.85 L462.675 1634.85  Z" fill="#009af9" fill-rule="evenodd" fill-opacity="1"/>
<polyline clip-path="url(#clip892)" style="stroke:#000000; stroke-linecap:round; stroke-linejoin:round; stroke-width:8; stroke-opacity:1; fill:none" points="462.675,1634.85 462.675,1667.17 492.743,1667.17 492.743,1634.85 462.675,1634.85 "/>
<path clip-path="url(#clip892)" d="M492.743 1645.62 L492.743 1667.17 L522.812 1667.17 L522.812 1645.62 L492.743 1645.62 L492.743 1645.62  Z" fill="#009af9" fill-rule="evenodd" fill-opacity="1"/>
<polyline clip-path="url(#clip892)" style="stroke:#000000; stroke-linecap:round; stroke-linejoin:round; stroke-width:8; stroke-opacity:1; fill:none" points="492.743,1645.62 492.743,1667.17 522.812,1667.17 522.812,1645.62 492.743,1645.62 "/>
<path clip-path="url(#clip892)" d="M522.812 1618.69 L522.812 1667.17 L552.881 1667.17 L552.881 1618.69 L522.812 1618.69 L522.812 1618.69  Z" fill="#009af9" fill-rule="evenodd" fill-opacity="1"/>
<polyline clip-path="url(#clip892)" style="stroke:#000000; stroke-linecap:round; stroke-linejoin:round; stroke-width:8; stroke-opacity:1; fill:none" points="522.812,1618.69 522.812,1667.17 552.881,1667.17 552.881,1618.69 522.812,1618.69 "/>
<path clip-path="url(#clip892)" d="M552.881 1602.54 L552.881 1667.17 L582.949 1667.17 L582.949 1602.54 L552.881 1602.54 L552.881 1602.54  Z" fill="#009af9" fill-rule="evenodd" fill-opacity="1"/>
<polyline clip-path="url(#clip892)" style="stroke:#000000; stroke-linecap:round; stroke-linejoin:round; stroke-width:8; stroke-opacity:1; fill:none" points="552.881,1602.54 552.881,1667.17 582.949,1667.17 582.949,1602.54 552.881,1602.54 "/>
<path clip-path="url(#clip892)" d="M582.949 1586.38 L582.949 1667.17 L613.018 1667.17 L613.018 1586.38 L582.949 1586.38 L582.949 1586.38  Z" fill="#009af9" fill-rule="evenodd" fill-opacity="1"/>
<polyline clip-path="url(#clip892)" style="stroke:#000000; stroke-linecap:round; stroke-linejoin:round; stroke-width:8; stroke-opacity:1; fill:none" points="582.949,1586.38 582.949,1667.17 613.018,1667.17 613.018,1586.38 582.949,1586.38 "/>
<path clip-path="url(#clip892)" d="M613.018 1580.99 L613.018 1667.17 L643.086 1667.17 L643.086 1580.99 L613.018 1580.99 L613.018 1580.99  Z" fill="#009af9" fill-rule="evenodd" fill-opacity="1"/>
<polyline clip-path="url(#clip892)" style="stroke:#000000; stroke-linecap:round; stroke-linejoin:round; stroke-width:8; stroke-opacity:1; fill:none" points="613.018,1580.99 613.018,1667.17 643.086,1667.17 643.086,1580.99 613.018,1580.99 "/>
<path clip-path="url(#clip892)" d="M643.086 1543.29 L643.086 1667.17 L673.155 1667.17 L673.155 1543.29 L643.086 1543.29 L643.086 1543.29  Z" fill="#009af9" fill-rule="evenodd" fill-opacity="1"/>
<polyline clip-path="url(#clip892)" style="stroke:#000000; stroke-linecap:round; stroke-linejoin:round; stroke-width:8; stroke-opacity:1; fill:none" points="643.086,1543.29 643.086,1667.17 673.155,1667.17 673.155,1543.29 643.086,1543.29 "/>
<path clip-path="url(#clip892)" d="M673.155 1500.2 L673.155 1667.17 L703.224 1667.17 L703.224 1500.2 L673.155 1500.2 L673.155 1500.2  Z" fill="#009af9" fill-rule="evenodd" fill-opacity="1"/>
<polyline clip-path="url(#clip892)" style="stroke:#000000; stroke-linecap:round; stroke-linejoin:round; stroke-width:8; stroke-opacity:1; fill:none" points="673.155,1500.2 673.155,1667.17 703.224,1667.17 703.224,1500.2 673.155,1500.2 "/>
<path clip-path="url(#clip892)" d="M703.224 1478.66 L703.224 1667.17 L733.292 1667.17 L733.292 1478.66 L703.224 1478.66 L703.224 1478.66  Z" fill="#009af9" fill-rule="evenodd" fill-opacity="1"/>
<polyline clip-path="url(#clip892)" style="stroke:#000000; stroke-linecap:round; stroke-linejoin:round; stroke-width:8; stroke-opacity:1; fill:none" points="703.224,1478.66 703.224,1667.17 733.292,1667.17 733.292,1478.66 703.224,1478.66 "/>
<path clip-path="url(#clip892)" d="M733.292 1387.1 L733.292 1667.17 L763.361 1667.17 L763.361 1387.1 L733.292 1387.1 L733.292 1387.1  Z" fill="#009af9" fill-rule="evenodd" fill-opacity="1"/>
<polyline clip-path="url(#clip892)" style="stroke:#000000; stroke-linecap:round; stroke-linejoin:round; stroke-width:8; stroke-opacity:1; fill:none" points="733.292,1387.1 733.292,1667.17 763.361,1667.17 763.361,1387.1 733.292,1387.1 "/>
<path clip-path="url(#clip892)" d="M763.361 1414.03 L763.361 1667.17 L793.429 1667.17 L793.429 1414.03 L763.361 1414.03 L763.361 1414.03  Z" fill="#009af9" fill-rule="evenodd" fill-opacity="1"/>
<polyline clip-path="url(#clip892)" style="stroke:#000000; stroke-linecap:round; stroke-linejoin:round; stroke-width:8; stroke-opacity:1; fill:none" points="763.361,1414.03 763.361,1667.17 793.429,1667.17 793.429,1414.03 763.361,1414.03 "/>
<path clip-path="url(#clip892)" d="M793.429 1354.78 L793.429 1667.17 L823.498 1667.17 L823.498 1354.78 L793.429 1354.78 L793.429 1354.78  Z" fill="#009af9" fill-rule="evenodd" fill-opacity="1"/>
<polyline clip-path="url(#clip892)" style="stroke:#000000; stroke-linecap:round; stroke-linejoin:round; stroke-width:8; stroke-opacity:1; fill:none" points="793.429,1354.78 793.429,1667.17 823.498,1667.17 823.498,1354.78 793.429,1354.78 "/>
<path clip-path="url(#clip892)" d="M823.498 1317.08 L823.498 1667.17 L853.567 1667.17 L853.567 1317.08 L823.498 1317.08 L823.498 1317.08  Z" fill="#009af9" fill-rule="evenodd" fill-opacity="1"/>
<polyline clip-path="url(#clip892)" style="stroke:#000000; stroke-linecap:round; stroke-linejoin:round; stroke-width:8; stroke-opacity:1; fill:none" points="823.498,1317.08 823.498,1667.17 853.567,1667.17 853.567,1317.08 823.498,1317.08 "/>
<path clip-path="url(#clip892)" d="M853.567 1182.43 L853.567 1667.17 L883.635 1667.17 L883.635 1182.43 L853.567 1182.43 L853.567 1182.43  Z" fill="#009af9" fill-rule="evenodd" fill-opacity="1"/>
<polyline clip-path="url(#clip892)" style="stroke:#000000; stroke-linecap:round; stroke-linejoin:round; stroke-width:8; stroke-opacity:1; fill:none" points="853.567,1182.43 853.567,1667.17 883.635,1667.17 883.635,1182.43 853.567,1182.43 "/>
<path clip-path="url(#clip892)" d="M883.635 1193.2 L883.635 1667.17 L913.704 1667.17 L913.704 1193.2 L883.635 1193.2 L883.635 1193.2  Z" fill="#009af9" fill-rule="evenodd" fill-opacity="1"/>
<polyline clip-path="url(#clip892)" style="stroke:#000000; stroke-linecap:round; stroke-linejoin:round; stroke-width:8; stroke-opacity:1; fill:none" points="883.635,1193.2 883.635,1667.17 913.704,1667.17 913.704,1193.2 883.635,1193.2 "/>
<path clip-path="url(#clip892)" d="M913.704 983.151 L913.704 1667.17 L943.772 1667.17 L943.772 983.151 L913.704 983.151 L913.704 983.151  Z" fill="#009af9" fill-rule="evenodd" fill-opacity="1"/>
<polyline clip-path="url(#clip892)" style="stroke:#000000; stroke-linecap:round; stroke-linejoin:round; stroke-width:8; stroke-opacity:1; fill:none" points="913.704,983.151 913.704,1667.17 943.772,1667.17 943.772,983.151 913.704,983.151 "/>
<path clip-path="url(#clip892)" d="M943.772 1177.05 L943.772 1667.17 L973.841 1667.17 L973.841 1177.05 L943.772 1177.05 L943.772 1177.05  Z" fill="#009af9" fill-rule="evenodd" fill-opacity="1"/>
<polyline clip-path="url(#clip892)" style="stroke:#000000; stroke-linecap:round; stroke-linejoin:round; stroke-width:8; stroke-opacity:1; fill:none" points="943.772,1177.05 943.772,1667.17 973.841,1667.17 973.841,1177.05 943.772,1177.05 "/>
<path clip-path="url(#clip892)" d="M973.841 1058.55 L973.841 1667.17 L1003.91 1667.17 L1003.91 1058.55 L973.841 1058.55 L973.841 1058.55  Z" fill="#009af9" fill-rule="evenodd" fill-opacity="1"/>
<polyline clip-path="url(#clip892)" style="stroke:#000000; stroke-linecap:round; stroke-linejoin:round; stroke-width:8; stroke-opacity:1; fill:none" points="973.841,1058.55 973.841,1667.17 1003.91,1667.17 1003.91,1058.55 973.841,1058.55 "/>
<path clip-path="url(#clip892)" d="M1003.91 875.431 L1003.91 1667.17 L1033.98 1667.17 L1033.98 875.431 L1003.91 875.431 L1003.91 875.431  Z" fill="#009af9" fill-rule="evenodd" fill-opacity="1"/>
<polyline clip-path="url(#clip892)" style="stroke:#000000; stroke-linecap:round; stroke-linejoin:round; stroke-width:8; stroke-opacity:1; fill:none" points="1003.91,875.431 1003.91,1667.17 1033.98,1667.17 1033.98,875.431 1003.91,875.431 "/>
<path clip-path="url(#clip892)" d="M1033.98 826.958 L1033.98 1667.17 L1064.05 1667.17 L1064.05 826.958 L1033.98 826.958 L1033.98 826.958  Z" fill="#009af9" fill-rule="evenodd" fill-opacity="1"/>
<polyline clip-path="url(#clip892)" style="stroke:#000000; stroke-linecap:round; stroke-linejoin:round; stroke-width:8; stroke-opacity:1; fill:none" points="1033.98,826.958 1033.98,1667.17 1064.05,1667.17 1064.05,826.958 1033.98,826.958 "/>
<path clip-path="url(#clip892)" d="M1064.05 762.326 L1064.05 1667.17 L1094.12 1667.17 L1094.12 762.326 L1064.05 762.326 L1064.05 762.326  Z" fill="#009af9" fill-rule="evenodd" fill-opacity="1"/>
<polyline clip-path="url(#clip892)" style="stroke:#000000; stroke-linecap:round; stroke-linejoin:round; stroke-width:8; stroke-opacity:1; fill:none" points="1064.05,762.326 1064.05,1667.17 1094.12,1667.17 1094.12,762.326 1064.05,762.326 "/>
<path clip-path="url(#clip892)" d="M1094.12 622.291 L1094.12 1667.17 L1124.18 1667.17 L1124.18 622.291 L1094.12 622.291 L1094.12 622.291  Z" fill="#009af9" fill-rule="evenodd" fill-opacity="1"/>
<polyline clip-path="url(#clip892)" style="stroke:#000000; stroke-linecap:round; stroke-linejoin:round; stroke-width:8; stroke-opacity:1; fill:none" points="1094.12,622.291 1094.12,1667.17 1124.18,1667.17 1124.18,622.291 1094.12,622.291 "/>
<path clip-path="url(#clip892)" d="M1124.18 509.186 L1124.18 1667.17 L1154.25 1667.17 L1154.25 509.186 L1124.18 509.186 L1124.18 509.186  Z" fill="#009af9" fill-rule="evenodd" fill-opacity="1"/>
<polyline clip-path="url(#clip892)" style="stroke:#000000; stroke-linecap:round; stroke-linejoin:round; stroke-width:8; stroke-opacity:1; fill:none" points="1124.18,509.186 1124.18,1667.17 1154.25,1667.17 1154.25,509.186 1124.18,509.186 "/>
<path clip-path="url(#clip892)" d="M1154.25 525.344 L1154.25 1667.17 L1184.32 1667.17 L1184.32 525.344 L1154.25 525.344 L1154.25 525.344  Z" fill="#009af9" fill-rule="evenodd" fill-opacity="1"/>
<polyline clip-path="url(#clip892)" style="stroke:#000000; stroke-linecap:round; stroke-linejoin:round; stroke-width:8; stroke-opacity:1; fill:none" points="1154.25,525.344 1154.25,1667.17 1184.32,1667.17 1184.32,525.344 1154.25,525.344 "/>
<path clip-path="url(#clip892)" d="M1184.32 476.87 L1184.32 1667.17 L1214.39 1667.17 L1214.39 476.87 L1184.32 476.87 L1184.32 476.87  Z" fill="#009af9" fill-rule="evenodd" fill-opacity="1"/>
<polyline clip-path="url(#clip892)" style="stroke:#000000; stroke-linecap:round; stroke-linejoin:round; stroke-width:8; stroke-opacity:1; fill:none" points="1184.32,476.87 1184.32,1667.17 1214.39,1667.17 1214.39,476.87 1184.32,476.87 "/>
<path clip-path="url(#clip892)" d="M1214.39 212.958 L1214.39 1667.17 L1244.46 1667.17 L1244.46 212.958 L1214.39 212.958 L1214.39 212.958  Z" fill="#009af9" fill-rule="evenodd" fill-opacity="1"/>
<polyline clip-path="url(#clip892)" style="stroke:#000000; stroke-linecap:round; stroke-linejoin:round; stroke-width:8; stroke-opacity:1; fill:none" points="1214.39,212.958 1214.39,1667.17 1244.46,1667.17 1244.46,212.958 1214.39,212.958 "/>
<path clip-path="url(#clip892)" d="M1244.46 196.8 L1244.46 1667.17 L1274.53 1667.17 L1274.53 196.8 L1244.46 196.8 L1244.46 196.8  Z" fill="#009af9" fill-rule="evenodd" fill-opacity="1"/>
<polyline clip-path="url(#clip892)" style="stroke:#000000; stroke-linecap:round; stroke-linejoin:round; stroke-width:8; stroke-opacity:1; fill:none" points="1244.46,196.8 1244.46,1667.17 1274.53,1667.17 1274.53,196.8 1244.46,196.8 "/>
<path clip-path="url(#clip892)" d="M1274.53 293.747 L1274.53 1667.17 L1304.6 1667.17 L1304.6 293.747 L1274.53 293.747 L1274.53 293.747  Z" fill="#009af9" fill-rule="evenodd" fill-opacity="1"/>
<polyline clip-path="url(#clip892)" style="stroke:#000000; stroke-linecap:round; stroke-linejoin:round; stroke-width:8; stroke-opacity:1; fill:none" points="1274.53,293.747 1274.53,1667.17 1304.6,1667.17 1304.6,293.747 1274.53,293.747 "/>
<path clip-path="url(#clip892)" d="M1304.6 153.712 L1304.6 1667.17 L1334.66 1667.17 L1334.66 153.712 L1304.6 153.712 L1304.6 153.712  Z" fill="#009af9" fill-rule="evenodd" fill-opacity="1"/>
<polyline clip-path="url(#clip892)" style="stroke:#000000; stroke-linecap:round; stroke-linejoin:round; stroke-width:8; stroke-opacity:1; fill:none" points="1304.6,153.712 1304.6,1667.17 1334.66,1667.17 1334.66,153.712 1304.6,153.712 "/>
<path clip-path="url(#clip892)" d="M1334.66 250.659 L1334.66 1667.17 L1364.73 1667.17 L1364.73 250.659 L1334.66 250.659 L1334.66 250.659  Z" fill="#009af9" fill-rule="evenodd" fill-opacity="1"/>
<polyline clip-path="url(#clip892)" style="stroke:#000000; stroke-linecap:round; stroke-linejoin:round; stroke-width:8; stroke-opacity:1; fill:none" points="1334.66,250.659 1334.66,1667.17 1364.73,1667.17 1364.73,250.659 1334.66,250.659 "/>
<path clip-path="url(#clip892)" d="M1364.73 169.87 L1364.73 1667.17 L1394.8 1667.17 L1394.8 169.87 L1364.73 169.87 L1364.73 169.87  Z" fill="#009af9" fill-rule="evenodd" fill-opacity="1"/>
<polyline clip-path="url(#clip892)" style="stroke:#000000; stroke-linecap:round; stroke-linejoin:round; stroke-width:8; stroke-opacity:1; fill:none" points="1364.73,169.87 1364.73,1667.17 1394.8,1667.17 1394.8,169.87 1364.73,169.87 "/>
<path clip-path="url(#clip892)" d="M1394.8 191.414 L1394.8 1667.17 L1424.87 1667.17 L1424.87 191.414 L1394.8 191.414 L1394.8 191.414  Z" fill="#009af9" fill-rule="evenodd" fill-opacity="1"/>
<polyline clip-path="url(#clip892)" style="stroke:#000000; stroke-linecap:round; stroke-linejoin:round; stroke-width:8; stroke-opacity:1; fill:none" points="1394.8,191.414 1394.8,1667.17 1424.87,1667.17 1424.87,191.414 1394.8,191.414 "/>
<path clip-path="url(#clip892)" d="M1424.87 606.133 L1424.87 1667.17 L1454.94 1667.17 L1454.94 606.133 L1424.87 606.133 L1424.87 606.133  Z" fill="#009af9" fill-rule="evenodd" fill-opacity="1"/>
<polyline clip-path="url(#clip892)" style="stroke:#000000; stroke-linecap:round; stroke-linejoin:round; stroke-width:8; stroke-opacity:1; fill:none" points="1424.87,606.133 1424.87,1667.17 1454.94,1667.17 1454.94,606.133 1424.87,606.133 "/>
<path clip-path="url(#clip892)" d="M1454.94 514.572 L1454.94 1667.17 L1485.01 1667.17 L1485.01 514.572 L1454.94 514.572 L1454.94 514.572  Z" fill="#009af9" fill-rule="evenodd" fill-opacity="1"/>
<polyline clip-path="url(#clip892)" style="stroke:#000000; stroke-linecap:round; stroke-linejoin:round; stroke-width:8; stroke-opacity:1; fill:none" points="1454.94,514.572 1454.94,1667.17 1485.01,1667.17 1485.01,514.572 1454.94,514.572 "/>
<path clip-path="url(#clip892)" d="M1485.01 649.221 L1485.01 1667.17 L1515.08 1667.17 L1515.08 649.221 L1485.01 649.221 L1485.01 649.221  Z" fill="#009af9" fill-rule="evenodd" fill-opacity="1"/>
<polyline clip-path="url(#clip892)" style="stroke:#000000; stroke-linecap:round; stroke-linejoin:round; stroke-width:8; stroke-opacity:1; fill:none" points="1485.01,649.221 1485.01,1667.17 1515.08,1667.17 1515.08,649.221 1485.01,649.221 "/>
<path clip-path="url(#clip892)" d="M1515.08 940.063 L1515.08 1667.17 L1545.14 1667.17 L1545.14 940.063 L1515.08 940.063 L1515.08 940.063  Z" fill="#009af9" fill-rule="evenodd" fill-opacity="1"/>
<polyline clip-path="url(#clip892)" style="stroke:#000000; stroke-linecap:round; stroke-linejoin:round; stroke-width:8; stroke-opacity:1; fill:none" points="1515.08,940.063 1515.08,1667.17 1545.14,1667.17 1545.14,940.063 1515.08,940.063 "/>
<path clip-path="url(#clip892)" d="M1545.14 1090.87 L1545.14 1667.17 L1575.21 1667.17 L1575.21 1090.87 L1545.14 1090.87 L1545.14 1090.87  Z" fill="#009af9" fill-rule="evenodd" fill-opacity="1"/>
<polyline clip-path="url(#clip892)" style="stroke:#000000; stroke-linecap:round; stroke-linejoin:round; stroke-width:8; stroke-opacity:1; fill:none" points="1545.14,1090.87 1545.14,1667.17 1575.21,1667.17 1575.21,1090.87 1545.14,1090.87 "/>
<path clip-path="url(#clip892)" d="M1575.21 1419.41 L1575.21 1667.17 L1605.28 1667.17 L1605.28 1419.41 L1575.21 1419.41 L1575.21 1419.41  Z" fill="#009af9" fill-rule="evenodd" fill-opacity="1"/>
<polyline clip-path="url(#clip892)" style="stroke:#000000; stroke-linecap:round; stroke-linejoin:round; stroke-width:8; stroke-opacity:1; fill:none" points="1575.21,1419.41 1575.21,1667.17 1605.28,1667.17 1605.28,1419.41 1575.21,1419.41 "/>
<path clip-path="url(#clip892)" d="M1605.28 1607.92 L1605.28 1667.17 L1635.35 1667.17 L1635.35 1607.92 L1605.28 1607.92 L1605.28 1607.92  Z" fill="#009af9" fill-rule="evenodd" fill-opacity="1"/>
<polyline clip-path="url(#clip892)" style="stroke:#000000; stroke-linecap:round; stroke-linejoin:round; stroke-width:8; stroke-opacity:1; fill:none" points="1605.28,1607.92 1605.28,1667.17 1635.35,1667.17 1635.35,1607.92 1605.28,1607.92 "/>
<path clip-path="url(#clip892)" d="M1635.35 1661.78 L1635.35 1667.17 L1665.42 1667.17 L1665.42 1661.78 L1635.35 1661.78 L1635.35 1661.78  Z" fill="#009af9" fill-rule="evenodd" fill-opacity="1"/>
<polyline clip-path="url(#clip892)" style="stroke:#000000; stroke-linecap:round; stroke-linejoin:round; stroke-width:8; stroke-opacity:1; fill:none" points="1635.35,1661.78 1635.35,1667.17 1665.42,1667.17 1665.42,1661.78 1635.35,1661.78 "/>
<circle clip-path="url(#clip892)" style="fill:#009af9; stroke:none; fill-opacity:0" cx="267.229" cy="1661.78" r="2"/>
<circle clip-path="url(#clip892)" style="fill:#009af9; stroke:none; fill-opacity:0" cx="297.298" cy="1667.17" r="2"/>
<circle clip-path="url(#clip892)" style="fill:#009af9; stroke:none; fill-opacity:0" cx="327.366" cy="1661.78" r="2"/>
<circle clip-path="url(#clip892)" style="fill:#009af9; stroke:none; fill-opacity:0" cx="357.435" cy="1667.17" r="2"/>
<circle clip-path="url(#clip892)" style="fill:#009af9; stroke:none; fill-opacity:0" cx="387.503" cy="1656.4" r="2"/>
<circle clip-path="url(#clip892)" style="fill:#009af9; stroke:none; fill-opacity:0" cx="417.572" cy="1661.78" r="2"/>
<circle clip-path="url(#clip892)" style="fill:#009af9; stroke:none; fill-opacity:0" cx="447.641" cy="1634.85" r="2"/>
<circle clip-path="url(#clip892)" style="fill:#009af9; stroke:none; fill-opacity:0" cx="477.709" cy="1634.85" r="2"/>
<circle clip-path="url(#clip892)" style="fill:#009af9; stroke:none; fill-opacity:0" cx="507.778" cy="1645.62" r="2"/>
<circle clip-path="url(#clip892)" style="fill:#009af9; stroke:none; fill-opacity:0" cx="537.846" cy="1618.69" r="2"/>
<circle clip-path="url(#clip892)" style="fill:#009af9; stroke:none; fill-opacity:0" cx="567.915" cy="1602.54" r="2"/>
<circle clip-path="url(#clip892)" style="fill:#009af9; stroke:none; fill-opacity:0" cx="597.984" cy="1586.38" r="2"/>
<circle clip-path="url(#clip892)" style="fill:#009af9; stroke:none; fill-opacity:0" cx="628.052" cy="1580.99" r="2"/>
<circle clip-path="url(#clip892)" style="fill:#009af9; stroke:none; fill-opacity:0" cx="658.121" cy="1543.29" r="2"/>
<circle clip-path="url(#clip892)" style="fill:#009af9; stroke:none; fill-opacity:0" cx="688.189" cy="1500.2" r="2"/>
<circle clip-path="url(#clip892)" style="fill:#009af9; stroke:none; fill-opacity:0" cx="718.258" cy="1478.66" r="2"/>
<circle clip-path="url(#clip892)" style="fill:#009af9; stroke:none; fill-opacity:0" cx="748.326" cy="1387.1" r="2"/>
<circle clip-path="url(#clip892)" style="fill:#009af9; stroke:none; fill-opacity:0" cx="778.395" cy="1414.03" r="2"/>
<circle clip-path="url(#clip892)" style="fill:#009af9; stroke:none; fill-opacity:0" cx="808.464" cy="1354.78" r="2"/>
<circle clip-path="url(#clip892)" style="fill:#009af9; stroke:none; fill-opacity:0" cx="838.532" cy="1317.08" r="2"/>
<circle clip-path="url(#clip892)" style="fill:#009af9; stroke:none; fill-opacity:0" cx="868.601" cy="1182.43" r="2"/>
<circle clip-path="url(#clip892)" style="fill:#009af9; stroke:none; fill-opacity:0" cx="898.669" cy="1193.2" r="2"/>
<circle clip-path="url(#clip892)" style="fill:#009af9; stroke:none; fill-opacity:0" cx="928.738" cy="983.151" r="2"/>
<circle clip-path="url(#clip892)" style="fill:#009af9; stroke:none; fill-opacity:0" cx="958.807" cy="1177.05" r="2"/>
<circle clip-path="url(#clip892)" style="fill:#009af9; stroke:none; fill-opacity:0" cx="988.875" cy="1058.55" r="2"/>
<circle clip-path="url(#clip892)" style="fill:#009af9; stroke:none; fill-opacity:0" cx="1018.94" cy="875.431" r="2"/>
<circle clip-path="url(#clip892)" style="fill:#009af9; stroke:none; fill-opacity:0" cx="1049.01" cy="826.958" r="2"/>
<circle clip-path="url(#clip892)" style="fill:#009af9; stroke:none; fill-opacity:0" cx="1079.08" cy="762.326" r="2"/>
<circle clip-path="url(#clip892)" style="fill:#009af9; stroke:none; fill-opacity:0" cx="1109.15" cy="622.291" r="2"/>
<circle clip-path="url(#clip892)" style="fill:#009af9; stroke:none; fill-opacity:0" cx="1139.22" cy="509.186" r="2"/>
<circle clip-path="url(#clip892)" style="fill:#009af9; stroke:none; fill-opacity:0" cx="1169.29" cy="525.344" r="2"/>
<circle clip-path="url(#clip892)" style="fill:#009af9; stroke:none; fill-opacity:0" cx="1199.36" cy="476.87" r="2"/>
<circle clip-path="url(#clip892)" style="fill:#009af9; stroke:none; fill-opacity:0" cx="1229.42" cy="212.958" r="2"/>
<circle clip-path="url(#clip892)" style="fill:#009af9; stroke:none; fill-opacity:0" cx="1259.49" cy="196.8" r="2"/>
<circle clip-path="url(#clip892)" style="fill:#009af9; stroke:none; fill-opacity:0" cx="1289.56" cy="293.747" r="2"/>
<circle clip-path="url(#clip892)" style="fill:#009af9; stroke:none; fill-opacity:0" cx="1319.63" cy="153.712" r="2"/>
<circle clip-path="url(#clip892)" style="fill:#009af9; stroke:none; fill-opacity:0" cx="1349.7" cy="250.659" r="2"/>
<circle clip-path="url(#clip892)" style="fill:#009af9; stroke:none; fill-opacity:0" cx="1379.77" cy="169.87" r="2"/>
<circle clip-path="url(#clip892)" style="fill:#009af9; stroke:none; fill-opacity:0" cx="1409.84" cy="191.414" r="2"/>
<circle clip-path="url(#clip892)" style="fill:#009af9; stroke:none; fill-opacity:0" cx="1439.9" cy="606.133" r="2"/>
<circle clip-path="url(#clip892)" style="fill:#009af9; stroke:none; fill-opacity:0" cx="1469.97" cy="514.572" r="2"/>
<circle clip-path="url(#clip892)" style="fill:#009af9; stroke:none; fill-opacity:0" cx="1500.04" cy="649.221" r="2"/>
<circle clip-path="url(#clip892)" style="fill:#009af9; stroke:none; fill-opacity:0" cx="1530.11" cy="940.063" r="2"/>
<circle clip-path="url(#clip892)" style="fill:#009af9; stroke:none; fill-opacity:0" cx="1560.18" cy="1090.87" r="2"/>
<circle clip-path="url(#clip892)" style="fill:#009af9; stroke:none; fill-opacity:0" cx="1590.25" cy="1419.41" r="2"/>
<circle clip-path="url(#clip892)" style="fill:#009af9; stroke:none; fill-opacity:0" cx="1620.32" cy="1607.92" r="2"/>
<circle clip-path="url(#clip892)" style="fill:#009af9; stroke:none; fill-opacity:0" cx="1650.38" cy="1661.78" r="2"/>
<polyline clip-path="url(#clip892)" style="stroke:#e26f46; stroke-linecap:round; stroke-linejoin:round; stroke-width:8; stroke-opacity:1; fill:none" points="1214.39,3180.62 1214.39,-1359.74 "/>
</svg>
