<?xml version="1.0" encoding="utf-8"?>
<svg xmlns="http://www.w3.org/2000/svg" xmlns:xlink="http://www.w3.org/1999/xlink" width="450" height="450" viewBox="0 0 1800 1800">
<defs>
  <clipPath id="clip950">
    <rect x="0" y="0" width="1800" height="1800"/>
  </clipPath>
</defs>
<path clip-path="url(#clip950)" d="M0 1800 L1800 1800 L1800 0 L0 0  Z" fill="#ffffff" fill-rule="evenodd" fill-opacity="1"/>
<defs>
  <clipPath id="clip951">
    <rect x="360" y="180" width="1261" height="1261"/>
  </clipPath>
</defs>
<path clip-path="url(#clip950)" d="M166.015 1667.17 L1752.76 1667.17 L1752.76 153.712 L166.015 153.712  Z" fill="#ffffff" fill-rule="evenodd" fill-opacity="1"/>
<defs>
  <clipPath id="clip952">
    <rect x="166" y="153" width="1588" height="1514"/>
  </clipPath>
</defs>
<polyline clip-path="url(#clip952)" style="stroke:#000000; stroke-linecap:round; stroke-linejoin:round; stroke-width:2; stroke-opacity:0.1; fill:none" points="202.853,1667.17 202.853,153.712 "/>
<polyline clip-path="url(#clip952)" style="stroke:#000000; stroke-linecap:round; stroke-linejoin:round; stroke-width:2; stroke-opacity:0.1; fill:none" points="455.03,1667.17 455.03,153.712 "/>
<polyline clip-path="url(#clip952)" style="stroke:#000000; stroke-linecap:round; stroke-linejoin:round; stroke-width:2; stroke-opacity:0.1; fill:none" points="707.208,1667.17 707.208,153.712 "/>
<polyline clip-path="url(#clip952)" style="stroke:#000000; stroke-linecap:round; stroke-linejoin:round; stroke-width:2; stroke-opacity:0.1; fill:none" points="959.385,1667.17 959.385,153.712 "/>
<polyline clip-path="url(#clip952)" style="stroke:#000000; stroke-linecap:round; stroke-linejoin:round; stroke-width:2; stroke-opacity:0.1; fill:none" points="1211.56,1667.17 1211.56,153.712 "/>
<polyline clip-path="url(#clip952)" style="stroke:#000000; stroke-linecap:round; stroke-linejoin:round; stroke-width:2; stroke-opacity:0.1; fill:none" points="1463.74,1667.17 1463.74,153.712 "/>
<polyline clip-path="url(#clip952)" style="stroke:#000000; stroke-linecap:round; stroke-linejoin:round; stroke-width:2; stroke-opacity:0.1; fill:none" points="1715.92,1667.17 1715.92,153.712 "/>
<polyline clip-path="url(#clip950)" style="stroke:#000000; stroke-linecap:round; stroke-linejoin:round; stroke-width:4; stroke-opacity:1; fill:none" points="166.015,1667.17 1752.76,1667.17 "/>
<polyline clip-path="url(#clip950)" style="stroke:#000000; stroke-linecap:round; stroke-linejoin:round; stroke-width:4; stroke-opacity:1; fill:none" points="202.853,1667.17 202.853,1648.27 "/>
<polyline clip-path="url(#clip950)" style="stroke:#000000; stroke-linecap:round; stroke-linejoin:round; stroke-width:4; stroke-opacity:1; fill:none" points="455.03,1667.17 455.03,1648.27 "/>
<polyline clip-path="url(#clip950)" style="stroke:#000000; stroke-linecap:round; stroke-linejoin:round; stroke-width:4; stroke-opacity:1; fill:none" points="707.208,1667.17 707.208,1648.27 "/>
<polyline clip-path="url(#clip950)" style="stroke:#000000; stroke-linecap:round; stroke-linejoin:round; stroke-width:4; stroke-opacity:1; fill:none" points="959.385,1667.17 959.385,1648.27 "/>
<polyline clip-path="url(#clip950)" style="stroke:#000000; stroke-linecap:round; stroke-linejoin:round; stroke-width:4; stroke-opacity:1; fill:none" points="1211.56,1667.17 1211.56,1648.27 "/>
<polyline clip-path="url(#clip950)" style="stroke:#000000; stroke-linecap:round; stroke-linejoin:round; stroke-width:4; stroke-opacity:1; fill:none" points="1463.74,1667.17 1463.74,1648.27 "/>
<polyline clip-path="url(#clip950)" style="stroke:#000000; stroke-linecap:round; stroke-linejoin:round; stroke-width:4; stroke-opacity:1; fill:none" points="1715.92,1667.17 1715.92,1648.27 "/>
<path clip-path="url(#clip950)" d="M172.795 1707.94 L202.471 1707.94 L202.471 1711.87 L172.795 1711.87 L172.795 1707.94 Z" fill="#000000" fill-rule="nonzero" fill-opacity="1" /><path clip-path="url(#clip950)" d="M216.591 1720.83 L232.911 1720.83 L232.911 1724.77 L210.966 1724.77 L210.966 1720.83 Q213.628 1718.08 218.212 1713.45 Q222.818 1708.8 223.999 1707.45 Q226.244 1704.93 227.124 1703.19 Q228.026 1701.43 228.026 1699.74 Q228.026 1696.99 226.082 1695.25 Q224.161 1693.52 221.059 1693.52 Q218.86 1693.52 216.406 1694.28 Q213.976 1695.05 211.198 1696.6 L211.198 1691.87 Q214.022 1690.74 216.476 1690.16 Q218.929 1689.58 220.966 1689.58 Q226.337 1689.58 229.531 1692.27 Q232.725 1694.95 232.725 1699.44 Q232.725 1701.57 231.915 1703.49 Q231.128 1705.39 229.022 1707.99 Q228.443 1708.66 225.341 1711.87 Q222.239 1715.07 216.591 1720.83 Z" fill="#000000" fill-rule="nonzero" fill-opacity="1" /><path clip-path="url(#clip950)" d="M424.787 1707.94 L454.463 1707.94 L454.463 1711.87 L424.787 1711.87 L424.787 1707.94 Z" fill="#000000" fill-rule="nonzero" fill-opacity="1" /><path clip-path="url(#clip950)" d="M465.366 1720.83 L473.005 1720.83 L473.005 1694.47 L464.695 1696.13 L464.695 1691.87 L472.959 1690.21 L477.634 1690.21 L477.634 1720.83 L485.273 1720.83 L485.273 1724.77 L465.366 1724.77 L465.366 1720.83 Z" fill="#000000" fill-rule="nonzero" fill-opacity="1" /><path clip-path="url(#clip950)" d="M707.208 1693.29 Q703.597 1693.29 701.768 1696.85 Q699.963 1700.39 699.963 1707.52 Q699.963 1714.63 701.768 1718.19 Q703.597 1721.74 707.208 1721.74 Q710.842 1721.74 712.648 1718.19 Q714.476 1714.63 714.476 1707.52 Q714.476 1700.39 712.648 1696.85 Q710.842 1693.29 707.208 1693.29 M707.208 1689.58 Q713.018 1689.58 716.074 1694.19 Q719.152 1698.77 719.152 1707.52 Q719.152 1716.25 716.074 1720.86 Q713.018 1725.44 707.208 1725.44 Q701.398 1725.44 698.319 1720.86 Q695.263 1716.25 695.263 1707.52 Q695.263 1698.77 698.319 1694.19 Q701.398 1689.58 707.208 1689.58 Z" fill="#000000" fill-rule="nonzero" fill-opacity="1" /><path clip-path="url(#clip950)" d="M949.767 1720.83 L957.406 1720.83 L957.406 1694.47 L949.096 1696.13 L949.096 1691.87 L957.36 1690.21 L962.036 1690.21 L962.036 1720.83 L969.675 1720.83 L969.675 1724.77 L949.767 1724.77 L949.767 1720.83 Z" fill="#000000" fill-rule="nonzero" fill-opacity="1" /><path clip-path="url(#clip950)" d="M1206.22 1720.83 L1222.54 1720.83 L1222.54 1724.77 L1200.59 1724.77 L1200.59 1720.83 Q1203.25 1718.08 1207.84 1713.45 Q1212.44 1708.8 1213.62 1707.45 Q1215.87 1704.93 1216.75 1703.19 Q1217.65 1701.43 1217.65 1699.74 Q1217.65 1696.99 1215.71 1695.25 Q1213.79 1693.52 1210.68 1693.52 Q1208.48 1693.52 1206.03 1694.28 Q1203.6 1695.05 1200.82 1696.6 L1200.82 1691.87 Q1203.65 1690.74 1206.1 1690.16 Q1208.55 1689.58 1210.59 1689.58 Q1215.96 1689.58 1219.16 1692.27 Q1222.35 1694.95 1222.35 1699.44 Q1222.35 1701.57 1221.54 1703.49 Q1220.75 1705.39 1218.65 1707.99 Q1218.07 1708.66 1214.97 1711.87 Q1211.86 1715.07 1206.22 1720.83 Z" fill="#000000" fill-rule="nonzero" fill-opacity="1" /><path clip-path="url(#clip950)" d="M1467.99 1706.13 Q1471.34 1706.85 1473.22 1709.12 Q1475.12 1711.39 1475.12 1714.72 Q1475.12 1719.84 1471.6 1722.64 Q1468.08 1725.44 1461.6 1725.44 Q1459.42 1725.44 1457.11 1725 Q1454.82 1724.58 1452.36 1723.73 L1452.36 1719.21 Q1454.31 1720.35 1456.62 1720.93 Q1458.94 1721.5 1461.46 1721.5 Q1465.86 1721.5 1468.15 1719.77 Q1470.46 1718.03 1470.46 1714.72 Q1470.46 1711.67 1468.31 1709.95 Q1466.18 1708.22 1462.36 1708.22 L1458.34 1708.22 L1458.34 1704.37 L1462.55 1704.37 Q1466 1704.37 1467.83 1703.01 Q1469.65 1701.62 1469.65 1699.03 Q1469.65 1696.37 1467.76 1694.95 Q1465.88 1693.52 1462.36 1693.52 Q1460.44 1693.52 1458.24 1693.93 Q1456.04 1694.35 1453.4 1695.23 L1453.4 1691.06 Q1456.07 1690.32 1458.38 1689.95 Q1460.72 1689.58 1462.78 1689.58 Q1468.1 1689.58 1471.21 1692.01 Q1474.31 1694.42 1474.31 1698.54 Q1474.31 1701.41 1472.66 1703.4 Q1471.02 1705.37 1467.99 1706.13 Z" fill="#000000" fill-rule="nonzero" fill-opacity="1" /><path clip-path="url(#clip950)" d="M1718.93 1694.28 L1707.12 1712.73 L1718.93 1712.73 L1718.93 1694.28 M1717.7 1690.21 L1723.58 1690.21 L1723.58 1712.73 L1728.51 1712.73 L1728.51 1716.62 L1723.58 1716.62 L1723.58 1724.77 L1718.93 1724.77 L1718.93 1716.62 L1703.33 1716.62 L1703.33 1712.11 L1717.7 1690.21 Z" fill="#000000" fill-rule="nonzero" fill-opacity="1" /><polyline clip-path="url(#clip952)" style="stroke:#000000; stroke-linecap:round; stroke-linejoin:round; stroke-width:2; stroke-opacity:0.1; fill:none" points="166.015,1667.17 1752.76,1667.17 "/>
<polyline clip-path="url(#clip952)" style="stroke:#000000; stroke-linecap:round; stroke-linejoin:round; stroke-width:2; stroke-opacity:0.1; fill:none" points="166.015,1391.49 1752.76,1391.49 "/>
<polyline clip-path="url(#clip952)" style="stroke:#000000; stroke-linecap:round; stroke-linejoin:round; stroke-width:2; stroke-opacity:0.1; fill:none" points="166.015,1115.82 1752.76,1115.82 "/>
<polyline clip-path="url(#clip952)" style="stroke:#000000; stroke-linecap:round; stroke-linejoin:round; stroke-width:2; stroke-opacity:0.1; fill:none" points="166.015,840.143 1752.76,840.143 "/>
<polyline clip-path="url(#clip952)" style="stroke:#000000; stroke-linecap:round; stroke-linejoin:round; stroke-width:2; stroke-opacity:0.1; fill:none" points="166.015,564.468 1752.76,564.468 "/>
<polyline clip-path="url(#clip952)" style="stroke:#000000; stroke-linecap:round; stroke-linejoin:round; stroke-width:2; stroke-opacity:0.1; fill:none" points="166.015,288.793 1752.76,288.793 "/>
<polyline clip-path="url(#clip950)" style="stroke:#000000; stroke-linecap:round; stroke-linejoin:round; stroke-width:4; stroke-opacity:1; fill:none" points="166.015,1667.17 166.015,153.712 "/>
<polyline clip-path="url(#clip950)" style="stroke:#000000; stroke-linecap:round; stroke-linejoin:round; stroke-width:4; stroke-opacity:1; fill:none" points="166.015,1667.17 184.912,1667.17 "/>
<polyline clip-path="url(#clip950)" style="stroke:#000000; stroke-linecap:round; stroke-linejoin:round; stroke-width:4; stroke-opacity:1; fill:none" points="166.015,1391.49 184.912,1391.49 "/>
<polyline clip-path="url(#clip950)" style="stroke:#000000; stroke-linecap:round; stroke-linejoin:round; stroke-width:4; stroke-opacity:1; fill:none" points="166.015,1115.82 184.912,1115.82 "/>
<polyline clip-path="url(#clip950)" style="stroke:#000000; stroke-linecap:round; stroke-linejoin:round; stroke-width:4; stroke-opacity:1; fill:none" points="166.015,840.143 184.912,840.143 "/>
<polyline clip-path="url(#clip950)" style="stroke:#000000; stroke-linecap:round; stroke-linejoin:round; stroke-width:4; stroke-opacity:1; fill:none" points="166.015,564.468 184.912,564.468 "/>
<polyline clip-path="url(#clip950)" style="stroke:#000000; stroke-linecap:round; stroke-linejoin:round; stroke-width:4; stroke-opacity:1; fill:none" points="166.015,288.793 184.912,288.793 "/>
<path clip-path="url(#clip950)" d="M127.07 1652.97 Q123.459 1652.97 121.631 1656.53 Q119.825 1660.07 119.825 1667.2 Q119.825 1674.31 121.631 1677.87 Q123.459 1681.42 127.07 1681.42 Q130.705 1681.42 132.51 1677.87 Q134.339 1674.31 134.339 1667.2 Q134.339 1660.07 132.51 1656.53 Q130.705 1652.97 127.07 1652.97 M127.07 1649.26 Q132.881 1649.26 135.936 1653.87 Q139.015 1658.45 139.015 1667.2 Q139.015 1675.93 135.936 1680.54 Q132.881 1685.12 127.07 1685.12 Q121.26 1685.12 118.182 1680.54 Q115.126 1675.93 115.126 1667.2 Q115.126 1658.45 118.182 1653.87 Q121.26 1649.26 127.07 1649.26 Z" fill="#000000" fill-rule="nonzero" fill-opacity="1" /><path clip-path="url(#clip950)" d="M57.5569 1404.84 L65.1958 1404.84 L65.1958 1378.47 L56.8856 1380.14 L56.8856 1375.88 L65.1495 1374.21 L69.8254 1374.21 L69.8254 1404.84 L77.4642 1404.84 L77.4642 1408.77 L57.5569 1408.77 L57.5569 1404.84 Z" fill="#000000" fill-rule="nonzero" fill-opacity="1" /><path clip-path="url(#clip950)" d="M96.9086 1377.29 Q93.2975 1377.29 91.4688 1380.86 Q89.6632 1384.4 89.6632 1391.53 Q89.6632 1398.63 91.4688 1402.2 Q93.2975 1405.74 96.9086 1405.74 Q100.543 1405.74 102.348 1402.2 Q104.177 1398.63 104.177 1391.53 Q104.177 1384.4 102.348 1380.86 Q100.543 1377.29 96.9086 1377.29 M96.9086 1373.59 Q102.719 1373.59 105.774 1378.19 Q108.853 1382.78 108.853 1391.53 Q108.853 1400.25 105.774 1404.86 Q102.719 1409.44 96.9086 1409.44 Q91.0984 1409.44 88.0197 1404.86 Q84.9642 1400.25 84.9642 1391.53 Q84.9642 1382.78 88.0197 1378.19 Q91.0984 1373.59 96.9086 1373.59 Z" fill="#000000" fill-rule="nonzero" fill-opacity="1" /><path clip-path="url(#clip950)" d="M127.07 1377.29 Q123.459 1377.29 121.631 1380.86 Q119.825 1384.4 119.825 1391.53 Q119.825 1398.63 121.631 1402.2 Q123.459 1405.74 127.07 1405.74 Q130.705 1405.74 132.51 1402.2 Q134.339 1398.63 134.339 1391.53 Q134.339 1384.4 132.51 1380.86 Q130.705 1377.29 127.07 1377.29 M127.07 1373.59 Q132.881 1373.59 135.936 1378.19 Q139.015 1382.78 139.015 1391.53 Q139.015 1400.25 135.936 1404.86 Q132.881 1409.44 127.07 1409.44 Q121.26 1409.44 118.182 1404.86 Q115.126 1400.25 115.126 1391.53 Q115.126 1382.78 118.182 1378.19 Q121.26 1373.59 127.07 1373.59 Z" fill="#000000" fill-rule="nonzero" fill-opacity="1" /><path clip-path="url(#clip950)" d="M60.7745 1129.16 L77.0939 1129.16 L77.0939 1133.1 L55.1495 1133.1 L55.1495 1129.16 Q57.8115 1126.41 62.3949 1121.78 Q67.0013 1117.13 68.1819 1115.78 Q70.4272 1113.26 71.3068 1111.52 Q72.2096 1109.76 72.2096 1108.07 Q72.2096 1105.32 70.2652 1103.58 Q68.3439 1101.85 65.2421 1101.85 Q63.043 1101.85 60.5893 1102.61 Q58.1588 1103.38 55.381 1104.93 L55.381 1100.2 Q58.2051 1099.07 60.6588 1098.49 Q63.1124 1097.91 65.1495 1097.91 Q70.5198 1097.91 73.7142 1100.6 Q76.9087 1103.28 76.9087 1107.77 Q76.9087 1109.9 76.0985 1111.82 Q75.3115 1113.72 73.205 1116.32 Q72.6263 1116.99 69.5245 1120.2 Q66.4226 1123.4 60.7745 1129.16 Z" fill="#000000" fill-rule="nonzero" fill-opacity="1" /><path clip-path="url(#clip950)" d="M96.9086 1101.62 Q93.2975 1101.62 91.4688 1105.18 Q89.6632 1108.72 89.6632 1115.85 Q89.6632 1122.96 91.4688 1126.52 Q93.2975 1130.07 96.9086 1130.07 Q100.543 1130.07 102.348 1126.52 Q104.177 1122.96 104.177 1115.85 Q104.177 1108.72 102.348 1105.18 Q100.543 1101.62 96.9086 1101.62 M96.9086 1097.91 Q102.719 1097.91 105.774 1102.52 Q108.853 1107.1 108.853 1115.85 Q108.853 1124.58 105.774 1129.19 Q102.719 1133.77 96.9086 1133.77 Q91.0984 1133.77 88.0197 1129.19 Q84.9642 1124.58 84.9642 1115.85 Q84.9642 1107.1 88.0197 1102.52 Q91.0984 1097.91 96.9086 1097.91 Z" fill="#000000" fill-rule="nonzero" fill-opacity="1" /><path clip-path="url(#clip950)" d="M127.07 1101.62 Q123.459 1101.62 121.631 1105.18 Q119.825 1108.72 119.825 1115.85 Q119.825 1122.96 121.631 1126.52 Q123.459 1130.07 127.07 1130.07 Q130.705 1130.07 132.51 1126.52 Q134.339 1122.96 134.339 1115.85 Q134.339 1108.72 132.51 1105.18 Q130.705 1101.62 127.07 1101.62 M127.07 1097.91 Q132.881 1097.91 135.936 1102.52 Q139.015 1107.1 139.015 1115.85 Q139.015 1124.58 135.936 1129.19 Q132.881 1133.77 127.07 1133.77 Q121.26 1133.77 118.182 1129.19 Q115.126 1124.58 115.126 1115.85 Q115.126 1107.1 118.182 1102.52 Q121.26 1097.91 127.07 1097.91 Z" fill="#000000" fill-rule="nonzero" fill-opacity="1" /><path clip-path="url(#clip950)" d="M70.9133 838.789 Q74.2698 839.506 76.1448 841.775 Q78.0429 844.043 78.0429 847.377 Q78.0429 852.492 74.5244 855.293 Q71.0059 858.094 64.5245 858.094 Q62.3486 858.094 60.0338 857.654 Q57.7421 857.238 55.2884 856.381 L55.2884 851.867 Q57.2328 853.002 59.5477 853.58 Q61.8625 854.159 64.3856 854.159 Q68.7837 854.159 71.0754 852.423 Q73.3902 850.687 73.3902 847.377 Q73.3902 844.321 71.2374 842.608 Q69.1078 840.872 65.2884 840.872 L61.2606 840.872 L61.2606 837.029 L65.4735 837.029 Q68.9226 837.029 70.7513 835.664 Q72.58 834.275 72.58 831.682 Q72.58 829.02 70.6819 827.608 Q68.8069 826.173 65.2884 826.173 Q63.3671 826.173 61.168 826.59 Q58.969 827.006 56.3301 827.886 L56.3301 823.719 Q58.9921 822.979 61.3069 822.608 Q63.6449 822.238 65.705 822.238 Q71.0291 822.238 74.1309 824.668 Q77.2327 827.076 77.2327 831.196 Q77.2327 834.067 75.5892 836.057 Q73.9457 838.025 70.9133 838.789 Z" fill="#000000" fill-rule="nonzero" fill-opacity="1" /><path clip-path="url(#clip950)" d="M96.9086 825.942 Q93.2975 825.942 91.4688 829.506 Q89.6632 833.048 89.6632 840.178 Q89.6632 847.284 91.4688 850.849 Q93.2975 854.39 96.9086 854.39 Q100.543 854.39 102.348 850.849 Q104.177 847.284 104.177 840.178 Q104.177 833.048 102.348 829.506 Q100.543 825.942 96.9086 825.942 M96.9086 822.238 Q102.719 822.238 105.774 826.844 Q108.853 831.428 108.853 840.178 Q108.853 848.904 105.774 853.511 Q102.719 858.094 96.9086 858.094 Q91.0984 858.094 88.0197 853.511 Q84.9642 848.904 84.9642 840.178 Q84.9642 831.428 88.0197 826.844 Q91.0984 822.238 96.9086 822.238 Z" fill="#000000" fill-rule="nonzero" fill-opacity="1" /><path clip-path="url(#clip950)" d="M127.07 825.942 Q123.459 825.942 121.631 829.506 Q119.825 833.048 119.825 840.178 Q119.825 847.284 121.631 850.849 Q123.459 854.39 127.07 854.39 Q130.705 854.39 132.51 850.849 Q134.339 847.284 134.339 840.178 Q134.339 833.048 132.51 829.506 Q130.705 825.942 127.07 825.942 M127.07 822.238 Q132.881 822.238 135.936 826.844 Q139.015 831.428 139.015 840.178 Q139.015 848.904 135.936 853.511 Q132.881 858.094 127.07 858.094 Q121.26 858.094 118.182 853.511 Q115.126 848.904 115.126 840.178 Q115.126 831.428 118.182 826.844 Q121.26 822.238 127.07 822.238 Z" fill="#000000" fill-rule="nonzero" fill-opacity="1" /><path clip-path="url(#clip950)" d="M69.5939 551.262 L57.7884 569.711 L69.5939 569.711 L69.5939 551.262 M68.367 547.188 L74.2466 547.188 L74.2466 569.711 L79.1772 569.711 L79.1772 573.6 L74.2466 573.6 L74.2466 581.748 L69.5939 581.748 L69.5939 573.6 L53.9921 573.6 L53.9921 569.086 L68.367 547.188 Z" fill="#000000" fill-rule="nonzero" fill-opacity="1" /><path clip-path="url(#clip950)" d="M96.9086 550.267 Q93.2975 550.267 91.4688 553.831 Q89.6632 557.373 89.6632 564.503 Q89.6632 571.609 91.4688 575.174 Q93.2975 578.715 96.9086 578.715 Q100.543 578.715 102.348 575.174 Q104.177 571.609 104.177 564.503 Q104.177 557.373 102.348 553.831 Q100.543 550.267 96.9086 550.267 M96.9086 546.563 Q102.719 546.563 105.774 551.169 Q108.853 555.753 108.853 564.503 Q108.853 573.229 105.774 577.836 Q102.719 582.419 96.9086 582.419 Q91.0984 582.419 88.0197 577.836 Q84.9642 573.229 84.9642 564.503 Q84.9642 555.753 88.0197 551.169 Q91.0984 546.563 96.9086 546.563 Z" fill="#000000" fill-rule="nonzero" fill-opacity="1" /><path clip-path="url(#clip950)" d="M127.07 550.267 Q123.459 550.267 121.631 553.831 Q119.825 557.373 119.825 564.503 Q119.825 571.609 121.631 575.174 Q123.459 578.715 127.07 578.715 Q130.705 578.715 132.51 575.174 Q134.339 571.609 134.339 564.503 Q134.339 557.373 132.51 553.831 Q130.705 550.267 127.07 550.267 M127.07 546.563 Q132.881 546.563 135.936 551.169 Q139.015 555.753 139.015 564.503 Q139.015 573.229 135.936 577.836 Q132.881 582.419 127.07 582.419 Q121.26 582.419 118.182 577.836 Q115.126 573.229 115.126 564.503 Q115.126 555.753 118.182 551.169 Q121.26 546.563 127.07 546.563 Z" fill="#000000" fill-rule="nonzero" fill-opacity="1" /><path clip-path="url(#clip950)" d="M56.793 271.513 L75.1494 271.513 L75.1494 275.448 L61.0754 275.448 L61.0754 283.92 Q62.0939 283.573 63.1124 283.411 Q64.131 283.226 65.1495 283.226 Q70.9365 283.226 74.3161 286.397 Q77.6957 289.568 77.6957 294.985 Q77.6957 300.564 74.2235 303.665 Q70.7513 306.744 64.4319 306.744 Q62.256 306.744 59.9875 306.374 Q57.7421 306.003 55.3347 305.263 L55.3347 300.564 Q57.418 301.698 59.6402 302.253 Q61.8625 302.809 64.3393 302.809 Q68.3439 302.809 70.6819 300.703 Q73.0198 298.596 73.0198 294.985 Q73.0198 291.374 70.6819 289.267 Q68.3439 287.161 64.3393 287.161 Q62.4643 287.161 60.5893 287.578 Q58.7375 287.994 56.793 288.874 L56.793 271.513 Z" fill="#000000" fill-rule="nonzero" fill-opacity="1" /><path clip-path="url(#clip950)" d="M96.9086 274.592 Q93.2975 274.592 91.4688 278.156 Q89.6632 281.698 89.6632 288.828 Q89.6632 295.934 91.4688 299.499 Q93.2975 303.04 96.9086 303.04 Q100.543 303.04 102.348 299.499 Q104.177 295.934 104.177 288.828 Q104.177 281.698 102.348 278.156 Q100.543 274.592 96.9086 274.592 M96.9086 270.888 Q102.719 270.888 105.774 275.494 Q108.853 280.078 108.853 288.828 Q108.853 297.554 105.774 302.161 Q102.719 306.744 96.9086 306.744 Q91.0984 306.744 88.0197 302.161 Q84.9642 297.554 84.9642 288.828 Q84.9642 280.078 88.0197 275.494 Q91.0984 270.888 96.9086 270.888 Z" fill="#000000" fill-rule="nonzero" fill-opacity="1" /><path clip-path="url(#clip950)" d="M127.07 274.592 Q123.459 274.592 121.631 278.156 Q119.825 281.698 119.825 288.828 Q119.825 295.934 121.631 299.499 Q123.459 303.04 127.07 303.04 Q130.705 303.04 132.51 299.499 Q134.339 295.934 134.339 288.828 Q134.339 281.698 132.51 278.156 Q130.705 274.592 127.07 274.592 M127.07 270.888 Q132.881 270.888 135.936 275.494 Q139.015 280.078 139.015 288.828 Q139.015 297.554 135.936 302.161 Q132.881 306.744 127.07 306.744 Q121.26 306.744 118.182 302.161 Q115.126 297.554 115.126 288.828 Q115.126 280.078 118.182 275.494 Q121.26 270.888 127.07 270.888 Z" fill="#000000" fill-rule="nonzero" fill-opacity="1" /><path clip-path="url(#clip950)" d="M639.587 18.8205 L639.587 41.5461 L649.876 41.5461 Q655.588 41.5461 658.707 38.5889 Q661.826 35.6318 661.826 30.163 Q661.826 24.7348 658.707 21.7777 Q655.588 18.8205 649.876 18.8205 L639.587 18.8205 M631.404 12.096 L649.876 12.096 Q660.044 12.096 665.229 16.714 Q670.455 21.2916 670.455 30.163 Q670.455 39.1155 665.229 43.6931 Q660.044 48.2706 649.876 48.2706 L639.587 48.2706 L639.587 72.576 L631.404 72.576 L631.404 12.096 Z" fill="#000000" fill-rule="nonzero" fill-opacity="1" /><path clip-path="url(#clip950)" d="M705.941 34.1734 Q704.685 33.4443 703.186 33.1202 Q701.728 32.7556 699.945 32.7556 Q693.626 32.7556 690.223 36.8875 Q686.861 40.9789 686.861 48.6757 L686.861 72.576 L679.367 72.576 L679.367 27.2059 L686.861 27.2059 L686.861 34.2544 Q689.21 30.1225 692.978 28.1376 Q696.745 26.1121 702.133 26.1121 Q702.902 26.1121 703.834 26.2337 Q704.766 26.3147 705.9 26.5172 L705.941 34.1734 Z" fill="#000000" fill-rule="nonzero" fill-opacity="1" /><path clip-path="url(#clip950)" d="M713.759 27.2059 L721.212 27.2059 L721.212 72.576 L713.759 72.576 L713.759 27.2059 M713.759 9.54393 L721.212 9.54393 L721.212 18.9825 L713.759 18.9825 L713.759 9.54393 Z" fill="#000000" fill-rule="nonzero" fill-opacity="1" /><path clip-path="url(#clip950)" d="M754.389 32.4315 Q748.394 32.4315 744.91 37.1306 Q741.426 41.7891 741.426 49.9314 Q741.426 58.0738 744.87 62.7728 Q748.354 67.4314 754.389 67.4314 Q760.344 67.4314 763.828 62.7323 Q767.312 58.0333 767.312 49.9314 Q767.312 41.8701 763.828 37.1711 Q760.344 32.4315 754.389 32.4315 M754.389 26.1121 Q764.112 26.1121 769.661 32.4315 Q775.211 38.7509 775.211 49.9314 Q775.211 61.0714 769.661 67.4314 Q764.112 73.7508 754.389 73.7508 Q744.627 73.7508 739.077 67.4314 Q733.568 61.0714 733.568 49.9314 Q733.568 38.7509 739.077 32.4315 Q744.627 26.1121 754.389 26.1121 Z" fill="#000000" fill-rule="nonzero" fill-opacity="1" /><path clip-path="url(#clip950)" d="M813.857 34.1734 Q812.601 33.4443 811.102 33.1202 Q809.644 32.7556 807.861 32.7556 Q801.542 32.7556 798.139 36.8875 Q794.777 40.9789 794.777 48.6757 L794.777 72.576 L787.283 72.576 L787.283 27.2059 L794.777 27.2059 L794.777 34.2544 Q797.126 30.1225 800.894 28.1376 Q804.661 26.1121 810.049 26.1121 Q810.818 26.1121 811.75 26.2337 Q812.682 26.3147 813.816 26.5172 L813.857 34.1734 Z" fill="#000000" fill-rule="nonzero" fill-opacity="1" /><path clip-path="url(#clip950)" d="M865.627 32.4315 Q859.632 32.4315 856.148 37.1306 Q852.664 41.7891 852.664 49.9314 Q852.664 58.0738 856.108 62.7728 Q859.591 67.4314 865.627 67.4314 Q871.582 67.4314 875.066 62.7323 Q878.55 58.0333 878.55 49.9314 Q878.55 41.8701 875.066 37.1711 Q871.582 32.4315 865.627 32.4315 M865.627 26.1121 Q875.349 26.1121 880.899 32.4315 Q886.449 38.7509 886.449 49.9314 Q886.449 61.0714 880.899 67.4314 Q875.349 73.7508 865.627 73.7508 Q855.865 73.7508 850.315 67.4314 Q844.806 61.0714 844.806 49.9314 Q844.806 38.7509 850.315 32.4315 Q855.865 26.1121 865.627 26.1121 Z" fill="#000000" fill-rule="nonzero" fill-opacity="1" /><path clip-path="url(#clip950)" d="M921.773 9.54393 L921.773 15.7418 L914.643 15.7418 Q910.633 15.7418 909.053 17.3622 Q907.514 18.9825 907.514 23.1955 L907.514 27.2059 L919.788 27.2059 L919.788 32.9987 L907.514 32.9987 L907.514 72.576 L900.019 72.576 L900.019 32.9987 L892.89 32.9987 L892.89 27.2059 L900.019 27.2059 L900.019 24.0462 Q900.019 16.471 903.544 13.0277 Q907.068 9.54393 914.724 9.54393 L921.773 9.54393 Z" fill="#000000" fill-rule="nonzero" fill-opacity="1" /><path clip-path="url(#clip950)" d="M983.306 28.5427 L983.306 35.5912 Q980.146 33.9709 976.743 33.1607 Q973.341 32.3505 969.695 32.3505 Q964.145 32.3505 961.35 34.0519 Q958.595 35.7533 958.595 39.156 Q958.595 41.7486 960.58 43.2475 Q962.565 44.7058 968.561 46.0426 L971.113 46.6097 Q979.053 48.3111 982.374 51.4303 Q985.736 54.509 985.736 60.0587 Q985.736 66.3781 980.713 70.0644 Q975.731 73.7508 966.981 73.7508 Q963.335 73.7508 959.365 73.0216 Q955.436 72.3329 951.061 70.9151 L951.061 63.2184 Q955.193 65.3654 959.203 66.4591 Q963.213 67.5124 967.143 67.5124 Q972.409 67.5124 975.245 65.73 Q978.08 63.9071 978.08 60.6258 Q978.08 57.5877 976.014 55.9673 Q973.989 54.3469 967.062 52.8481 L964.469 52.2405 Q957.542 50.7821 954.464 47.7845 Q951.385 44.7463 951.385 39.4801 Q951.385 33.0797 955.922 29.5959 Q960.459 26.1121 968.804 26.1121 Q972.936 26.1121 976.581 26.7198 Q980.227 27.3274 983.306 28.5427 Z" fill="#000000" fill-rule="nonzero" fill-opacity="1" /><path clip-path="url(#clip950)" d="M1018.22 49.7694 Q1009.19 49.7694 1005.71 51.8354 Q1002.22 53.9013 1002.22 58.8839 Q1002.22 62.8538 1004.82 65.2034 Q1007.45 67.5124 1011.95 67.5124 Q1018.14 67.5124 1021.87 63.1374 Q1025.64 58.7219 1025.64 51.4303 L1025.64 49.7694 L1018.22 49.7694 M1033.09 46.6907 L1033.09 72.576 L1025.64 72.576 L1025.64 65.6895 Q1023.09 69.8214 1019.28 71.8063 Q1015.47 73.7508 1009.96 73.7508 Q1002.99 73.7508 998.861 69.8619 Q994.77 65.9325 994.77 59.3701 Q994.77 51.7138 999.874 47.825 Q1005.02 43.9361 1015.19 43.9361 L1025.64 43.9361 L1025.64 43.2069 Q1025.64 38.0623 1022.24 35.2672 Q1018.87 32.4315 1012.76 32.4315 Q1008.87 32.4315 1005.18 33.3632 Q1001.49 34.295 998.092 36.1584 L998.092 29.2718 Q1002.18 27.692 1006.03 26.9223 Q1009.88 26.1121 1013.53 26.1121 Q1023.37 26.1121 1028.23 31.2163 Q1033.09 36.3204 1033.09 46.6907 Z" fill="#000000" fill-rule="nonzero" fill-opacity="1" /><path clip-path="url(#clip950)" d="M1083.77 35.9153 Q1086.56 30.8922 1090.45 28.5022 Q1094.34 26.1121 1099.61 26.1121 Q1106.7 26.1121 1110.54 31.0947 Q1114.39 36.0368 1114.39 45.1919 L1114.39 72.576 L1106.9 72.576 L1106.9 45.4349 Q1106.9 38.913 1104.59 35.7533 Q1102.28 32.5936 1097.54 32.5936 Q1091.75 32.5936 1088.39 36.4419 Q1085.02 40.2903 1085.02 46.9338 L1085.02 72.576 L1077.53 72.576 L1077.53 45.4349 Q1077.53 38.8725 1075.22 35.7533 Q1072.91 32.5936 1068.09 32.5936 Q1062.38 32.5936 1059.02 36.4824 Q1055.66 40.3308 1055.66 46.9338 L1055.66 72.576 L1048.16 72.576 L1048.16 27.2059 L1055.66 27.2059 L1055.66 34.2544 Q1058.21 30.082 1061.77 28.0971 Q1065.34 26.1121 1070.24 26.1121 Q1075.18 26.1121 1078.62 28.6237 Q1082.11 31.1352 1083.77 35.9153 Z" fill="#000000" fill-rule="nonzero" fill-opacity="1" /><path clip-path="url(#clip950)" d="M1136.47 65.7705 L1136.47 89.8329 L1128.98 89.8329 L1128.98 27.2059 L1136.47 27.2059 L1136.47 34.0924 Q1138.82 30.0415 1142.38 28.0971 Q1145.99 26.1121 1150.97 26.1121 Q1159.24 26.1121 1164.38 32.6746 Q1169.57 39.2371 1169.57 49.9314 Q1169.57 60.6258 1164.38 67.1883 Q1159.24 73.7508 1150.97 73.7508 Q1145.99 73.7508 1142.38 71.8063 Q1138.82 69.8214 1136.47 65.7705 M1161.83 49.9314 Q1161.83 41.7081 1158.43 37.0496 Q1155.06 32.3505 1149.15 32.3505 Q1143.24 32.3505 1139.83 37.0496 Q1136.47 41.7081 1136.47 49.9314 Q1136.47 58.1548 1139.83 62.8538 Q1143.24 67.5124 1149.15 67.5124 Q1155.06 67.5124 1158.43 62.8538 Q1161.83 58.1548 1161.83 49.9314 Z" fill="#000000" fill-rule="nonzero" fill-opacity="1" /><path clip-path="url(#clip950)" d="M1181.92 9.54393 L1189.38 9.54393 L1189.38 72.576 L1181.92 72.576 L1181.92 9.54393 Z" fill="#000000" fill-rule="nonzero" fill-opacity="1" /><path clip-path="url(#clip950)" d="M1243.78 48.0275 L1243.78 51.6733 L1209.51 51.6733 Q1209.99 59.3701 1214.13 63.421 Q1218.3 67.4314 1225.71 67.4314 Q1230.01 67.4314 1234.02 66.3781 Q1238.07 65.3249 1242.04 63.2184 L1242.04 70.267 Q1238.03 71.9684 1233.81 72.8596 Q1229.6 73.7508 1225.27 73.7508 Q1214.41 73.7508 1208.05 67.4314 Q1201.73 61.1119 1201.73 50.3365 Q1201.73 39.1965 1207.73 32.6746 Q1213.76 26.1121 1223.97 26.1121 Q1233.13 26.1121 1238.43 32.0264 Q1243.78 37.9003 1243.78 48.0275 M1236.33 45.84 Q1236.24 39.7232 1232.88 36.0774 Q1229.56 32.4315 1224.05 32.4315 Q1217.81 32.4315 1214.05 35.9558 Q1210.32 39.4801 1209.75 45.8805 L1236.33 45.84 Z" fill="#000000" fill-rule="nonzero" fill-opacity="1" /><path clip-path="url(#clip950)" d="M1284.94 28.5427 L1284.94 35.5912 Q1281.78 33.9709 1278.37 33.1607 Q1274.97 32.3505 1271.33 32.3505 Q1265.78 32.3505 1262.98 34.0519 Q1260.23 35.7533 1260.23 39.156 Q1260.23 41.7486 1262.21 43.2475 Q1264.2 44.7058 1270.19 46.0426 L1272.74 46.6097 Q1280.68 48.3111 1284 51.4303 Q1287.37 54.509 1287.37 60.0587 Q1287.37 66.3781 1282.34 70.0644 Q1277.36 73.7508 1268.61 73.7508 Q1264.97 73.7508 1261 73.0216 Q1257.07 72.3329 1252.69 70.9151 L1252.69 63.2184 Q1256.82 65.3654 1260.83 66.4591 Q1264.84 67.5124 1268.77 67.5124 Q1274.04 67.5124 1276.87 65.73 Q1279.71 63.9071 1279.71 60.6258 Q1279.71 57.5877 1277.64 55.9673 Q1275.62 54.3469 1268.69 52.8481 L1266.1 52.2405 Q1259.17 50.7821 1256.09 47.7845 Q1253.02 44.7463 1253.02 39.4801 Q1253.02 33.0797 1257.55 29.5959 Q1262.09 26.1121 1270.43 26.1121 Q1274.57 26.1121 1278.21 26.7198 Q1281.86 27.3274 1284.94 28.5427 Z" fill="#000000" fill-rule="nonzero" fill-opacity="1" /><path clip-path="url(#clip952)" d="M253.288 1658.9 L253.288 1667.17 L303.724 1667.17 L303.724 1658.9 L253.288 1658.9 L253.288 1658.9  Z" fill="#009af9" fill-rule="evenodd" fill-opacity="1"/>
<polyline clip-path="url(#clip952)" style="stroke:#000000; stroke-linecap:round; stroke-linejoin:round; stroke-width:8; stroke-opacity:1; fill:none" points="253.288,1658.9 253.288,1667.17 303.724,1667.17 303.724,1658.9 253.288,1658.9 "/>
<path clip-path="url(#clip952)" d="M303.724 1658.9 L303.724 1667.17 L354.159 1667.17 L354.159 1658.9 L303.724 1658.9 L303.724 1658.9  Z" fill="#009af9" fill-rule="evenodd" fill-opacity="1"/>
<polyline clip-path="url(#clip952)" style="stroke:#000000; stroke-linecap:round; stroke-linejoin:round; stroke-width:8; stroke-opacity:1; fill:none" points="303.724,1658.9 303.724,1667.17 354.159,1667.17 354.159,1658.9 303.724,1658.9 "/>
<path clip-path="url(#clip952)" d="M354.159 1656.14 L354.159 1667.17 L404.595 1667.17 L404.595 1656.14 L354.159 1656.14 L354.159 1656.14  Z" fill="#009af9" fill-rule="evenodd" fill-opacity="1"/>
<polyline clip-path="url(#clip952)" style="stroke:#000000; stroke-linecap:round; stroke-linejoin:round; stroke-width:8; stroke-opacity:1; fill:none" points="354.159,1656.14 354.159,1667.17 404.595,1667.17 404.595,1656.14 354.159,1656.14 "/>
<path clip-path="url(#clip952)" d="M404.595 1631.33 L404.595 1667.17 L455.03 1667.17 L455.03 1631.33 L404.595 1631.33 L404.595 1631.33  Z" fill="#009af9" fill-rule="evenodd" fill-opacity="1"/>
<polyline clip-path="url(#clip952)" style="stroke:#000000; stroke-linecap:round; stroke-linejoin:round; stroke-width:8; stroke-opacity:1; fill:none" points="404.595,1631.33 404.595,1667.17 455.03,1667.17 455.03,1631.33 404.595,1631.33 "/>
<path clip-path="url(#clip952)" d="M455.03 1567.92 L455.03 1667.17 L505.466 1667.17 L505.466 1567.92 L455.03 1567.92 L455.03 1567.92  Z" fill="#009af9" fill-rule="evenodd" fill-opacity="1"/>
<polyline clip-path="url(#clip952)" style="stroke:#000000; stroke-linecap:round; stroke-linejoin:round; stroke-width:8; stroke-opacity:1; fill:none" points="455.03,1567.92 455.03,1667.17 505.466,1667.17 505.466,1567.92 455.03,1567.92 "/>
<path clip-path="url(#clip952)" d="M505.466 1551.38 L505.466 1667.17 L555.901 1667.17 L555.901 1551.38 L505.466 1551.38 L505.466 1551.38  Z" fill="#009af9" fill-rule="evenodd" fill-opacity="1"/>
<polyline clip-path="url(#clip952)" style="stroke:#000000; stroke-linecap:round; stroke-linejoin:round; stroke-width:8; stroke-opacity:1; fill:none" points="505.466,1551.38 505.466,1667.17 555.901,1667.17 555.901,1551.38 505.466,1551.38 "/>
<path clip-path="url(#clip952)" d="M555.901 1391.49 L555.901 1667.17 L606.337 1667.17 L606.337 1391.49 L555.901 1391.49 L555.901 1391.49  Z" fill="#009af9" fill-rule="evenodd" fill-opacity="1"/>
<polyline clip-path="url(#clip952)" style="stroke:#000000; stroke-linecap:round; stroke-linejoin:round; stroke-width:8; stroke-opacity:1; fill:none" points="555.901,1391.49 555.901,1667.17 606.337,1667.17 606.337,1391.49 555.901,1391.49 "/>
<path clip-path="url(#clip952)" d="M606.337 1270.2 L606.337 1667.17 L656.772 1667.17 L656.772 1270.2 L606.337 1270.2 L606.337 1270.2  Z" fill="#009af9" fill-rule="evenodd" fill-opacity="1"/>
<polyline clip-path="url(#clip952)" style="stroke:#000000; stroke-linecap:round; stroke-linejoin:round; stroke-width:8; stroke-opacity:1; fill:none" points="606.337,1270.2 606.337,1667.17 656.772,1667.17 656.772,1270.2 606.337,1270.2 "/>
<path clip-path="url(#clip952)" d="M656.772 1082.74 L656.772 1667.17 L707.208 1667.17 L707.208 1082.74 L656.772 1082.74 L656.772 1082.74  Z" fill="#009af9" fill-rule="evenodd" fill-opacity="1"/>
<polyline clip-path="url(#clip952)" style="stroke:#000000; stroke-linecap:round; stroke-linejoin:round; stroke-width:8; stroke-opacity:1; fill:none" points="656.772,1082.74 656.772,1667.17 707.208,1667.17 707.208,1082.74 656.772,1082.74 "/>
<path clip-path="url(#clip952)" d="M707.208 881.494 L707.208 1667.17 L757.643 1667.17 L757.643 881.494 L707.208 881.494 L707.208 881.494  Z" fill="#009af9" fill-rule="evenodd" fill-opacity="1"/>
<polyline clip-path="url(#clip952)" style="stroke:#000000; stroke-linecap:round; stroke-linejoin:round; stroke-width:8; stroke-opacity:1; fill:none" points="707.208,881.494 707.208,1667.17 757.643,1667.17 757.643,881.494 707.208,881.494 "/>
<path clip-path="url(#clip952)" d="M757.643 677.495 L757.643 1667.17 L808.079 1667.17 L808.079 677.495 L757.643 677.495 L757.643 677.495  Z" fill="#009af9" fill-rule="evenodd" fill-opacity="1"/>
<polyline clip-path="url(#clip952)" style="stroke:#000000; stroke-linecap:round; stroke-linejoin:round; stroke-width:8; stroke-opacity:1; fill:none" points="757.643,677.495 757.643,1667.17 808.079,1667.17 808.079,677.495 757.643,677.495 "/>
<path clip-path="url(#clip952)" d="M808.079 578.252 L808.079 1667.17 L858.514 1667.17 L858.514 578.252 L808.079 578.252 L808.079 578.252  Z" fill="#009af9" fill-rule="evenodd" fill-opacity="1"/>
<polyline clip-path="url(#clip952)" style="stroke:#000000; stroke-linecap:round; stroke-linejoin:round; stroke-width:8; stroke-opacity:1; fill:none" points="808.079,578.252 808.079,1667.17 858.514,1667.17 858.514,578.252 808.079,578.252 "/>
<path clip-path="url(#clip952)" d="M858.514 153.712 L858.514 1667.17 L908.95 1667.17 L908.95 153.712 L858.514 153.712 L858.514 153.712  Z" fill="#009af9" fill-rule="evenodd" fill-opacity="1"/>
<polyline clip-path="url(#clip952)" style="stroke:#000000; stroke-linecap:round; stroke-linejoin:round; stroke-width:8; stroke-opacity:1; fill:none" points="858.514,153.712 858.514,1667.17 908.95,1667.17 908.95,153.712 858.514,153.712 "/>
<path clip-path="url(#clip952)" d="M908.95 341.171 L908.95 1667.17 L959.385 1667.17 L959.385 341.171 L908.95 341.171 L908.95 341.171  Z" fill="#009af9" fill-rule="evenodd" fill-opacity="1"/>
<polyline clip-path="url(#clip952)" style="stroke:#000000; stroke-linecap:round; stroke-linejoin:round; stroke-width:8; stroke-opacity:1; fill:none" points="908.95,341.171 908.95,1667.17 959.385,1667.17 959.385,341.171 908.95,341.171 "/>
<path clip-path="url(#clip952)" d="M959.385 407.333 L959.385 1667.17 L1009.82 1667.17 L1009.82 407.333 L959.385 407.333 L959.385 407.333  Z" fill="#009af9" fill-rule="evenodd" fill-opacity="1"/>
<polyline clip-path="url(#clip952)" style="stroke:#000000; stroke-linecap:round; stroke-linejoin:round; stroke-width:8; stroke-opacity:1; fill:none" points="959.385,407.333 959.385,1667.17 1009.82,1667.17 1009.82,407.333 959.385,407.333 "/>
<path clip-path="url(#clip952)" d="M1009.82 401.82 L1009.82 1667.17 L1060.26 1667.17 L1060.26 401.82 L1009.82 401.82 L1009.82 401.82  Z" fill="#009af9" fill-rule="evenodd" fill-opacity="1"/>
<polyline clip-path="url(#clip952)" style="stroke:#000000; stroke-linecap:round; stroke-linejoin:round; stroke-width:8; stroke-opacity:1; fill:none" points="1009.82,401.82 1009.82,1667.17 1060.26,1667.17 1060.26,401.82 1009.82,401.82 "/>
<path clip-path="url(#clip952)" d="M1060.26 523.117 L1060.26 1667.17 L1110.69 1667.17 L1110.69 523.117 L1060.26 523.117 L1060.26 523.117  Z" fill="#009af9" fill-rule="evenodd" fill-opacity="1"/>
<polyline clip-path="url(#clip952)" style="stroke:#000000; stroke-linecap:round; stroke-linejoin:round; stroke-width:8; stroke-opacity:1; fill:none" points="1060.26,523.117 1060.26,1667.17 1110.69,1667.17 1110.69,523.117 1060.26,523.117 "/>
<path clip-path="url(#clip952)" d="M1110.69 809.819 L1110.69 1667.17 L1161.13 1667.17 L1161.13 809.819 L1110.69 809.819 L1110.69 809.819  Z" fill="#009af9" fill-rule="evenodd" fill-opacity="1"/>
<polyline clip-path="url(#clip952)" style="stroke:#000000; stroke-linecap:round; stroke-linejoin:round; stroke-width:8; stroke-opacity:1; fill:none" points="1110.69,809.819 1110.69,1667.17 1161.13,1667.17 1161.13,809.819 1110.69,809.819 "/>
<path clip-path="url(#clip952)" d="M1161.13 975.224 L1161.13 1667.17 L1211.56 1667.17 L1211.56 975.224 L1161.13 975.224 L1161.13 975.224  Z" fill="#009af9" fill-rule="evenodd" fill-opacity="1"/>
<polyline clip-path="url(#clip952)" style="stroke:#000000; stroke-linecap:round; stroke-linejoin:round; stroke-width:8; stroke-opacity:1; fill:none" points="1161.13,975.224 1161.13,1667.17 1211.56,1667.17 1211.56,975.224 1161.13,975.224 "/>
<path clip-path="url(#clip952)" d="M1211.56 1143.39 L1211.56 1667.17 L1262 1667.17 L1262 1143.39 L1211.56 1143.39 L1211.56 1143.39  Z" fill="#009af9" fill-rule="evenodd" fill-opacity="1"/>
<polyline clip-path="url(#clip952)" style="stroke:#000000; stroke-linecap:round; stroke-linejoin:round; stroke-width:8; stroke-opacity:1; fill:none" points="1211.56,1143.39 1211.56,1667.17 1262,1667.17 1262,1143.39 1211.56,1143.39 "/>
<path clip-path="url(#clip952)" d="M1262 1355.66 L1262 1667.17 L1312.43 1667.17 L1312.43 1355.66 L1262 1355.66 L1262 1355.66  Z" fill="#009af9" fill-rule="evenodd" fill-opacity="1"/>
<polyline clip-path="url(#clip952)" style="stroke:#000000; stroke-linecap:round; stroke-linejoin:round; stroke-width:8; stroke-opacity:1; fill:none" points="1262,1355.66 1262,1667.17 1312.43,1667.17 1312.43,1355.66 1262,1355.66 "/>
<path clip-path="url(#clip952)" d="M1312.43 1471.44 L1312.43 1667.17 L1362.87 1667.17 L1362.87 1471.44 L1312.43 1471.44 L1312.43 1471.44  Z" fill="#009af9" fill-rule="evenodd" fill-opacity="1"/>
<polyline clip-path="url(#clip952)" style="stroke:#000000; stroke-linecap:round; stroke-linejoin:round; stroke-width:8; stroke-opacity:1; fill:none" points="1312.43,1471.44 1312.43,1667.17 1362.87,1667.17 1362.87,1471.44 1312.43,1471.44 "/>
<path clip-path="url(#clip952)" d="M1362.87 1548.63 L1362.87 1667.17 L1413.3 1667.17 L1413.3 1548.63 L1362.87 1548.63 L1362.87 1548.63  Z" fill="#009af9" fill-rule="evenodd" fill-opacity="1"/>
<polyline clip-path="url(#clip952)" style="stroke:#000000; stroke-linecap:round; stroke-linejoin:round; stroke-width:8; stroke-opacity:1; fill:none" points="1362.87,1548.63 1362.87,1667.17 1413.3,1667.17 1413.3,1548.63 1362.87,1548.63 "/>
<path clip-path="url(#clip952)" d="M1413.3 1581.71 L1413.3 1667.17 L1463.74 1667.17 L1463.74 1581.71 L1413.3 1581.71 L1413.3 1581.71  Z" fill="#009af9" fill-rule="evenodd" fill-opacity="1"/>
<polyline clip-path="url(#clip952)" style="stroke:#000000; stroke-linecap:round; stroke-linejoin:round; stroke-width:8; stroke-opacity:1; fill:none" points="1413.3,1581.71 1413.3,1667.17 1463.74,1667.17 1463.74,1581.71 1413.3,1581.71 "/>
<path clip-path="url(#clip952)" d="M1463.74 1609.28 L1463.74 1667.17 L1514.18 1667.17 L1514.18 1609.28 L1463.74 1609.28 L1463.74 1609.28  Z" fill="#009af9" fill-rule="evenodd" fill-opacity="1"/>
<polyline clip-path="url(#clip952)" style="stroke:#000000; stroke-linecap:round; stroke-linejoin:round; stroke-width:8; stroke-opacity:1; fill:none" points="1463.74,1609.28 1463.74,1667.17 1514.18,1667.17 1514.18,1609.28 1463.74,1609.28 "/>
<path clip-path="url(#clip952)" d="M1514.18 1650.63 L1514.18 1667.17 L1564.61 1667.17 L1564.61 1650.63 L1514.18 1650.63 L1514.18 1650.63  Z" fill="#009af9" fill-rule="evenodd" fill-opacity="1"/>
<polyline clip-path="url(#clip952)" style="stroke:#000000; stroke-linecap:round; stroke-linejoin:round; stroke-width:8; stroke-opacity:1; fill:none" points="1514.18,1650.63 1514.18,1667.17 1564.61,1667.17 1564.61,1650.63 1514.18,1650.63 "/>
<path clip-path="url(#clip952)" d="M1564.61 1653.38 L1564.61 1667.17 L1615.05 1667.17 L1615.05 1653.38 L1564.61 1653.38 L1564.61 1653.38  Z" fill="#009af9" fill-rule="evenodd" fill-opacity="1"/>
<polyline clip-path="url(#clip952)" style="stroke:#000000; stroke-linecap:round; stroke-linejoin:round; stroke-width:8; stroke-opacity:1; fill:none" points="1564.61,1653.38 1564.61,1667.17 1615.05,1667.17 1615.05,1653.38 1564.61,1653.38 "/>
<path clip-path="url(#clip952)" d="M1615.05 1664.41 L1615.05 1667.17 L1665.48 1667.17 L1665.48 1664.41 L1615.05 1664.41 L1615.05 1664.41  Z" fill="#009af9" fill-rule="evenodd" fill-opacity="1"/>
<polyline clip-path="url(#clip952)" style="stroke:#000000; stroke-linecap:round; stroke-linejoin:round; stroke-width:8; stroke-opacity:1; fill:none" points="1615.05,1664.41 1615.05,1667.17 1665.48,1667.17 1665.48,1664.41 1615.05,1664.41 "/>
<circle clip-path="url(#clip952)" style="fill:#009af9; stroke:none; fill-opacity:0" cx="278.506" cy="1658.9" r="2"/>
<circle clip-path="url(#clip952)" style="fill:#009af9; stroke:none; fill-opacity:0" cx="328.942" cy="1658.9" r="2"/>
<circle clip-path="url(#clip952)" style="fill:#009af9; stroke:none; fill-opacity:0" cx="379.377" cy="1656.14" r="2"/>
<circle clip-path="url(#clip952)" style="fill:#009af9; stroke:none; fill-opacity:0" cx="429.813" cy="1631.33" r="2"/>
<circle clip-path="url(#clip952)" style="fill:#009af9; stroke:none; fill-opacity:0" cx="480.248" cy="1567.92" r="2"/>
<circle clip-path="url(#clip952)" style="fill:#009af9; stroke:none; fill-opacity:0" cx="530.684" cy="1551.38" r="2"/>
<circle clip-path="url(#clip952)" style="fill:#009af9; stroke:none; fill-opacity:0" cx="581.119" cy="1391.49" r="2"/>
<circle clip-path="url(#clip952)" style="fill:#009af9; stroke:none; fill-opacity:0" cx="631.555" cy="1270.2" r="2"/>
<circle clip-path="url(#clip952)" style="fill:#009af9; stroke:none; fill-opacity:0" cx="681.99" cy="1082.74" r="2"/>
<circle clip-path="url(#clip952)" style="fill:#009af9; stroke:none; fill-opacity:0" cx="732.426" cy="881.494" r="2"/>
<circle clip-path="url(#clip952)" style="fill:#009af9; stroke:none; fill-opacity:0" cx="782.861" cy="677.495" r="2"/>
<circle clip-path="url(#clip952)" style="fill:#009af9; stroke:none; fill-opacity:0" cx="833.297" cy="578.252" r="2"/>
<circle clip-path="url(#clip952)" style="fill:#009af9; stroke:none; fill-opacity:0" cx="883.732" cy="153.712" r="2"/>
<circle clip-path="url(#clip952)" style="fill:#009af9; stroke:none; fill-opacity:0" cx="934.168" cy="341.171" r="2"/>
<circle clip-path="url(#clip952)" style="fill:#009af9; stroke:none; fill-opacity:0" cx="984.603" cy="407.333" r="2"/>
<circle clip-path="url(#clip952)" style="fill:#009af9; stroke:none; fill-opacity:0" cx="1035.04" cy="401.82" r="2"/>
<circle clip-path="url(#clip952)" style="fill:#009af9; stroke:none; fill-opacity:0" cx="1085.47" cy="523.117" r="2"/>
<circle clip-path="url(#clip952)" style="fill:#009af9; stroke:none; fill-opacity:0" cx="1135.91" cy="809.819" r="2"/>
<circle clip-path="url(#clip952)" style="fill:#009af9; stroke:none; fill-opacity:0" cx="1186.35" cy="975.224" r="2"/>
<circle clip-path="url(#clip952)" style="fill:#009af9; stroke:none; fill-opacity:0" cx="1236.78" cy="1143.39" r="2"/>
<circle clip-path="url(#clip952)" style="fill:#009af9; stroke:none; fill-opacity:0" cx="1287.22" cy="1355.66" r="2"/>
<circle clip-path="url(#clip952)" style="fill:#009af9; stroke:none; fill-opacity:0" cx="1337.65" cy="1471.44" r="2"/>
<circle clip-path="url(#clip952)" style="fill:#009af9; stroke:none; fill-opacity:0" cx="1388.09" cy="1548.63" r="2"/>
<circle clip-path="url(#clip952)" style="fill:#009af9; stroke:none; fill-opacity:0" cx="1438.52" cy="1581.71" r="2"/>
<circle clip-path="url(#clip952)" style="fill:#009af9; stroke:none; fill-opacity:0" cx="1488.96" cy="1609.28" r="2"/>
<circle clip-path="url(#clip952)" style="fill:#009af9; stroke:none; fill-opacity:0" cx="1539.39" cy="1650.63" r="2"/>
<circle clip-path="url(#clip952)" style="fill:#009af9; stroke:none; fill-opacity:0" cx="1589.83" cy="1653.38" r="2"/>
<circle clip-path="url(#clip952)" style="fill:#009af9; stroke:none; fill-opacity:0" cx="1640.26" cy="1664.41" r="2"/>
<polyline clip-path="url(#clip952)" style="stroke:#e26f46; stroke-linecap:round; stroke-linejoin:round; stroke-width:8; stroke-opacity:1; fill:none" points="920.877,3180.62 920.877,-1359.74 "/>
</svg>
