<?xml version="1.0" encoding="utf-8"?>
<svg xmlns="http://www.w3.org/2000/svg" xmlns:xlink="http://www.w3.org/1999/xlink" width="450" height="450" viewBox="0 0 1800 1800">
<defs>
  <clipPath id="clip280">
    <rect x="0" y="0" width="1800" height="1800"/>
  </clipPath>
</defs>
<path clip-path="url(#clip280)" d="M0 1800 L1800 1800 L1800 0 L0 0  Z" fill="#ffffff" fill-rule="evenodd" fill-opacity="1"/>
<defs>
  <clipPath id="clip281">
    <rect x="360" y="180" width="1261" height="1261"/>
  </clipPath>
</defs>
<path clip-path="url(#clip280)" d="M166.015 1667.17 L1752.76 1667.17 L1752.76 153.712 L166.015 153.712  Z" fill="#ffffff" fill-rule="evenodd" fill-opacity="1"/>
<defs>
  <clipPath id="clip282">
    <rect x="166" y="153" width="1588" height="1514"/>
  </clipPath>
</defs>
<polyline clip-path="url(#clip282)" style="stroke:#000000; stroke-linecap:round; stroke-linejoin:round; stroke-width:2; stroke-opacity:0.1; fill:none" points="344.398,1667.17 344.398,153.712 "/>
<polyline clip-path="url(#clip282)" style="stroke:#000000; stroke-linecap:round; stroke-linejoin:round; stroke-width:2; stroke-opacity:0.1; fill:none" points="572.171,1667.17 572.171,153.712 "/>
<polyline clip-path="url(#clip282)" style="stroke:#000000; stroke-linecap:round; stroke-linejoin:round; stroke-width:2; stroke-opacity:0.1; fill:none" points="799.944,1667.17 799.944,153.712 "/>
<polyline clip-path="url(#clip282)" style="stroke:#000000; stroke-linecap:round; stroke-linejoin:round; stroke-width:2; stroke-opacity:0.1; fill:none" points="1027.72,1667.17 1027.72,153.712 "/>
<polyline clip-path="url(#clip282)" style="stroke:#000000; stroke-linecap:round; stroke-linejoin:round; stroke-width:2; stroke-opacity:0.1; fill:none" points="1255.49,1667.17 1255.49,153.712 "/>
<polyline clip-path="url(#clip282)" style="stroke:#000000; stroke-linecap:round; stroke-linejoin:round; stroke-width:2; stroke-opacity:0.1; fill:none" points="1483.26,1667.17 1483.26,153.712 "/>
<polyline clip-path="url(#clip282)" style="stroke:#000000; stroke-linecap:round; stroke-linejoin:round; stroke-width:2; stroke-opacity:0.1; fill:none" points="1711.04,1667.17 1711.04,153.712 "/>
<polyline clip-path="url(#clip280)" style="stroke:#000000; stroke-linecap:round; stroke-linejoin:round; stroke-width:4; stroke-opacity:1; fill:none" points="166.015,1667.17 1752.76,1667.17 "/>
<polyline clip-path="url(#clip280)" style="stroke:#000000; stroke-linecap:round; stroke-linejoin:round; stroke-width:4; stroke-opacity:1; fill:none" points="344.398,1667.17 344.398,1648.27 "/>
<polyline clip-path="url(#clip280)" style="stroke:#000000; stroke-linecap:round; stroke-linejoin:round; stroke-width:4; stroke-opacity:1; fill:none" points="572.171,1667.17 572.171,1648.27 "/>
<polyline clip-path="url(#clip280)" style="stroke:#000000; stroke-linecap:round; stroke-linejoin:round; stroke-width:4; stroke-opacity:1; fill:none" points="799.944,1667.17 799.944,1648.27 "/>
<polyline clip-path="url(#clip280)" style="stroke:#000000; stroke-linecap:round; stroke-linejoin:round; stroke-width:4; stroke-opacity:1; fill:none" points="1027.72,1667.17 1027.72,1648.27 "/>
<polyline clip-path="url(#clip280)" style="stroke:#000000; stroke-linecap:round; stroke-linejoin:round; stroke-width:4; stroke-opacity:1; fill:none" points="1255.49,1667.17 1255.49,1648.27 "/>
<polyline clip-path="url(#clip280)" style="stroke:#000000; stroke-linecap:round; stroke-linejoin:round; stroke-width:4; stroke-opacity:1; fill:none" points="1483.26,1667.17 1483.26,1648.27 "/>
<polyline clip-path="url(#clip280)" style="stroke:#000000; stroke-linecap:round; stroke-linejoin:round; stroke-width:4; stroke-opacity:1; fill:none" points="1711.04,1667.17 1711.04,1648.27 "/>
<path clip-path="url(#clip280)" d="M314.34 1707.94 L344.016 1707.94 L344.016 1711.87 L314.34 1711.87 L314.34 1707.94 Z" fill="#000000" fill-rule="nonzero" fill-opacity="1" /><path clip-path="url(#clip280)" d="M358.136 1720.83 L374.455 1720.83 L374.455 1724.77 L352.511 1724.77 L352.511 1720.83 Q355.173 1718.08 359.756 1713.45 Q364.363 1708.8 365.543 1707.45 Q367.789 1704.93 368.668 1703.19 Q369.571 1701.43 369.571 1699.74 Q369.571 1696.99 367.627 1695.25 Q365.705 1693.52 362.604 1693.52 Q360.405 1693.52 357.951 1694.28 Q355.52 1695.05 352.743 1696.6 L352.743 1691.87 Q355.567 1690.74 358.02 1690.16 Q360.474 1689.58 362.511 1689.58 Q367.881 1689.58 371.076 1692.27 Q374.27 1694.95 374.27 1699.44 Q374.27 1701.57 373.46 1703.49 Q372.673 1705.39 370.567 1707.99 Q369.988 1708.66 366.886 1711.87 Q363.784 1715.07 358.136 1720.83 Z" fill="#000000" fill-rule="nonzero" fill-opacity="1" /><path clip-path="url(#clip280)" d="M541.928 1707.94 L571.604 1707.94 L571.604 1711.87 L541.928 1711.87 L541.928 1707.94 Z" fill="#000000" fill-rule="nonzero" fill-opacity="1" /><path clip-path="url(#clip280)" d="M582.506 1720.83 L590.145 1720.83 L590.145 1694.47 L581.835 1696.13 L581.835 1691.87 L590.099 1690.21 L594.775 1690.21 L594.775 1720.83 L602.414 1720.83 L602.414 1724.77 L582.506 1724.77 L582.506 1720.83 Z" fill="#000000" fill-rule="nonzero" fill-opacity="1" /><path clip-path="url(#clip280)" d="M799.944 1693.29 Q796.333 1693.29 794.504 1696.85 Q792.699 1700.39 792.699 1707.52 Q792.699 1714.63 794.504 1718.19 Q796.333 1721.74 799.944 1721.74 Q803.578 1721.74 805.384 1718.19 Q807.213 1714.63 807.213 1707.52 Q807.213 1700.39 805.384 1696.85 Q803.578 1693.29 799.944 1693.29 M799.944 1689.58 Q805.754 1689.58 808.81 1694.19 Q811.888 1698.77 811.888 1707.52 Q811.888 1716.25 808.81 1720.86 Q805.754 1725.44 799.944 1725.44 Q794.134 1725.44 791.055 1720.86 Q788 1716.25 788 1707.52 Q788 1698.77 791.055 1694.19 Q794.134 1689.58 799.944 1689.58 Z" fill="#000000" fill-rule="nonzero" fill-opacity="1" /><path clip-path="url(#clip280)" d="M1018.1 1720.83 L1025.74 1720.83 L1025.74 1694.47 L1017.43 1696.13 L1017.43 1691.87 L1025.69 1690.21 L1030.37 1690.21 L1030.37 1720.83 L1038.01 1720.83 L1038.01 1724.77 L1018.1 1724.77 L1018.1 1720.83 Z" fill="#000000" fill-rule="nonzero" fill-opacity="1" /><path clip-path="url(#clip280)" d="M1250.14 1720.83 L1266.46 1720.83 L1266.46 1724.77 L1244.52 1724.77 L1244.52 1720.83 Q1247.18 1718.08 1251.76 1713.45 Q1256.37 1708.8 1257.55 1707.45 Q1259.8 1704.93 1260.68 1703.19 Q1261.58 1701.43 1261.58 1699.74 Q1261.58 1696.99 1259.63 1695.25 Q1257.71 1693.52 1254.61 1693.52 Q1252.41 1693.52 1249.96 1694.28 Q1247.53 1695.05 1244.75 1696.6 L1244.75 1691.87 Q1247.57 1690.74 1250.03 1690.16 Q1252.48 1689.58 1254.52 1689.58 Q1259.89 1689.58 1263.08 1692.27 Q1266.28 1694.95 1266.28 1699.44 Q1266.28 1701.57 1265.47 1703.49 Q1264.68 1705.39 1262.57 1707.99 Q1262 1708.66 1258.89 1711.87 Q1255.79 1715.07 1250.14 1720.83 Z" fill="#000000" fill-rule="nonzero" fill-opacity="1" /><path clip-path="url(#clip280)" d="M1487.51 1706.13 Q1490.87 1706.85 1492.74 1709.12 Q1494.64 1711.39 1494.64 1714.72 Q1494.64 1719.84 1491.12 1722.64 Q1487.6 1725.44 1481.12 1725.44 Q1478.95 1725.44 1476.63 1725 Q1474.34 1724.58 1471.89 1723.73 L1471.89 1719.21 Q1473.83 1720.35 1476.15 1720.93 Q1478.46 1721.5 1480.98 1721.5 Q1485.38 1721.5 1487.67 1719.77 Q1489.99 1718.03 1489.99 1714.72 Q1489.99 1711.67 1487.84 1709.95 Q1485.71 1708.22 1481.89 1708.22 L1477.86 1708.22 L1477.86 1704.37 L1482.07 1704.37 Q1485.52 1704.37 1487.35 1703.01 Q1489.18 1701.62 1489.18 1699.03 Q1489.18 1696.37 1487.28 1694.95 Q1485.4 1693.52 1481.89 1693.52 Q1479.97 1693.52 1477.77 1693.93 Q1475.57 1694.35 1472.93 1695.23 L1472.93 1691.06 Q1475.59 1690.32 1477.9 1689.95 Q1480.24 1689.58 1482.3 1689.58 Q1487.63 1689.58 1490.73 1692.01 Q1493.83 1694.42 1493.83 1698.54 Q1493.83 1701.41 1492.19 1703.4 Q1490.54 1705.37 1487.51 1706.13 Z" fill="#000000" fill-rule="nonzero" fill-opacity="1" /><path clip-path="url(#clip280)" d="M1714.05 1694.28 L1702.24 1712.73 L1714.05 1712.73 L1714.05 1694.28 M1712.82 1690.21 L1718.7 1690.21 L1718.7 1712.73 L1723.63 1712.73 L1723.63 1716.62 L1718.7 1716.62 L1718.7 1724.77 L1714.05 1724.77 L1714.05 1716.62 L1698.44 1716.62 L1698.44 1712.11 L1712.82 1690.21 Z" fill="#000000" fill-rule="nonzero" fill-opacity="1" /><polyline clip-path="url(#clip282)" style="stroke:#000000; stroke-linecap:round; stroke-linejoin:round; stroke-width:2; stroke-opacity:0.1; fill:none" points="166.015,1667.17 1752.76,1667.17 "/>
<polyline clip-path="url(#clip282)" style="stroke:#000000; stroke-linecap:round; stroke-linejoin:round; stroke-width:2; stroke-opacity:0.1; fill:none" points="166.015,1363.26 1752.76,1363.26 "/>
<polyline clip-path="url(#clip282)" style="stroke:#000000; stroke-linecap:round; stroke-linejoin:round; stroke-width:2; stroke-opacity:0.1; fill:none" points="166.015,1059.35 1752.76,1059.35 "/>
<polyline clip-path="url(#clip282)" style="stroke:#000000; stroke-linecap:round; stroke-linejoin:round; stroke-width:2; stroke-opacity:0.1; fill:none" points="166.015,755.448 1752.76,755.448 "/>
<polyline clip-path="url(#clip282)" style="stroke:#000000; stroke-linecap:round; stroke-linejoin:round; stroke-width:2; stroke-opacity:0.1; fill:none" points="166.015,451.541 1752.76,451.541 "/>
<polyline clip-path="url(#clip280)" style="stroke:#000000; stroke-linecap:round; stroke-linejoin:round; stroke-width:4; stroke-opacity:1; fill:none" points="166.015,1667.17 166.015,153.712 "/>
<polyline clip-path="url(#clip280)" style="stroke:#000000; stroke-linecap:round; stroke-linejoin:round; stroke-width:4; stroke-opacity:1; fill:none" points="166.015,1667.17 184.912,1667.17 "/>
<polyline clip-path="url(#clip280)" style="stroke:#000000; stroke-linecap:round; stroke-linejoin:round; stroke-width:4; stroke-opacity:1; fill:none" points="166.015,1363.26 184.912,1363.26 "/>
<polyline clip-path="url(#clip280)" style="stroke:#000000; stroke-linecap:round; stroke-linejoin:round; stroke-width:4; stroke-opacity:1; fill:none" points="166.015,1059.35 184.912,1059.35 "/>
<polyline clip-path="url(#clip280)" style="stroke:#000000; stroke-linecap:round; stroke-linejoin:round; stroke-width:4; stroke-opacity:1; fill:none" points="166.015,755.448 184.912,755.448 "/>
<polyline clip-path="url(#clip280)" style="stroke:#000000; stroke-linecap:round; stroke-linejoin:round; stroke-width:4; stroke-opacity:1; fill:none" points="166.015,451.541 184.912,451.541 "/>
<path clip-path="url(#clip280)" d="M127.07 1652.97 Q123.459 1652.97 121.631 1656.53 Q119.825 1660.07 119.825 1667.2 Q119.825 1674.31 121.631 1677.87 Q123.459 1681.42 127.07 1681.42 Q130.705 1681.42 132.51 1677.87 Q134.339 1674.31 134.339 1667.2 Q134.339 1660.07 132.51 1656.53 Q130.705 1652.97 127.07 1652.97 M127.07 1649.26 Q132.881 1649.26 135.936 1653.87 Q139.015 1658.45 139.015 1667.2 Q139.015 1675.93 135.936 1680.54 Q132.881 1685.12 127.07 1685.12 Q121.26 1685.12 118.182 1680.54 Q115.126 1675.93 115.126 1667.2 Q115.126 1658.45 118.182 1653.87 Q121.26 1649.26 127.07 1649.26 Z" fill="#000000" fill-rule="nonzero" fill-opacity="1" /><path clip-path="url(#clip280)" d="M57.5569 1376.61 L65.1958 1376.61 L65.1958 1350.24 L56.8856 1351.91 L56.8856 1347.65 L65.1495 1345.98 L69.8254 1345.98 L69.8254 1376.61 L77.4642 1376.61 L77.4642 1380.54 L57.5569 1380.54 L57.5569 1376.61 Z" fill="#000000" fill-rule="nonzero" fill-opacity="1" /><path clip-path="url(#clip280)" d="M96.9086 1349.06 Q93.2975 1349.06 91.4688 1352.62 Q89.6632 1356.17 89.6632 1363.3 Q89.6632 1370.4 91.4688 1373.97 Q93.2975 1377.51 96.9086 1377.51 Q100.543 1377.51 102.348 1373.97 Q104.177 1370.4 104.177 1363.3 Q104.177 1356.17 102.348 1352.62 Q100.543 1349.06 96.9086 1349.06 M96.9086 1345.36 Q102.719 1345.36 105.774 1349.96 Q108.853 1354.55 108.853 1363.3 Q108.853 1372.02 105.774 1376.63 Q102.719 1381.21 96.9086 1381.21 Q91.0984 1381.21 88.0197 1376.63 Q84.9642 1372.02 84.9642 1363.3 Q84.9642 1354.55 88.0197 1349.96 Q91.0984 1345.36 96.9086 1345.36 Z" fill="#000000" fill-rule="nonzero" fill-opacity="1" /><path clip-path="url(#clip280)" d="M127.07 1349.06 Q123.459 1349.06 121.631 1352.62 Q119.825 1356.17 119.825 1363.3 Q119.825 1370.4 121.631 1373.97 Q123.459 1377.51 127.07 1377.51 Q130.705 1377.51 132.51 1373.97 Q134.339 1370.4 134.339 1363.3 Q134.339 1356.17 132.51 1352.62 Q130.705 1349.06 127.07 1349.06 M127.07 1345.36 Q132.881 1345.36 135.936 1349.96 Q139.015 1354.55 139.015 1363.3 Q139.015 1372.02 135.936 1376.63 Q132.881 1381.21 127.07 1381.21 Q121.26 1381.21 118.182 1376.63 Q115.126 1372.02 115.126 1363.3 Q115.126 1354.55 118.182 1349.96 Q121.26 1345.36 127.07 1345.36 Z" fill="#000000" fill-rule="nonzero" fill-opacity="1" /><path clip-path="url(#clip280)" d="M60.7745 1072.7 L77.0939 1072.7 L77.0939 1076.63 L55.1495 1076.63 L55.1495 1072.7 Q57.8115 1069.94 62.3949 1065.31 Q67.0013 1060.66 68.1819 1059.32 Q70.4272 1056.8 71.3068 1055.06 Q72.2096 1053.3 72.2096 1051.61 Q72.2096 1048.86 70.2652 1047.12 Q68.3439 1045.38 65.2421 1045.38 Q63.043 1045.38 60.5893 1046.15 Q58.1588 1046.91 55.381 1048.46 L55.381 1043.74 Q58.2051 1042.61 60.6588 1042.03 Q63.1124 1041.45 65.1495 1041.45 Q70.5198 1041.45 73.7142 1044.13 Q76.9087 1046.82 76.9087 1051.31 Q76.9087 1053.44 76.0985 1055.36 Q75.3115 1057.26 73.205 1059.85 Q72.6263 1060.52 69.5245 1063.74 Q66.4226 1066.94 60.7745 1072.7 Z" fill="#000000" fill-rule="nonzero" fill-opacity="1" /><path clip-path="url(#clip280)" d="M96.9086 1045.15 Q93.2975 1045.15 91.4688 1048.72 Q89.6632 1052.26 89.6632 1059.39 Q89.6632 1066.5 91.4688 1070.06 Q93.2975 1073.6 96.9086 1073.6 Q100.543 1073.6 102.348 1070.06 Q104.177 1066.5 104.177 1059.39 Q104.177 1052.26 102.348 1048.72 Q100.543 1045.15 96.9086 1045.15 M96.9086 1041.45 Q102.719 1041.45 105.774 1046.06 Q108.853 1050.64 108.853 1059.39 Q108.853 1068.12 105.774 1072.72 Q102.719 1077.31 96.9086 1077.31 Q91.0984 1077.31 88.0197 1072.72 Q84.9642 1068.12 84.9642 1059.39 Q84.9642 1050.64 88.0197 1046.06 Q91.0984 1041.45 96.9086 1041.45 Z" fill="#000000" fill-rule="nonzero" fill-opacity="1" /><path clip-path="url(#clip280)" d="M127.07 1045.15 Q123.459 1045.15 121.631 1048.72 Q119.825 1052.26 119.825 1059.39 Q119.825 1066.5 121.631 1070.06 Q123.459 1073.6 127.07 1073.6 Q130.705 1073.6 132.51 1070.06 Q134.339 1066.5 134.339 1059.39 Q134.339 1052.26 132.51 1048.72 Q130.705 1045.15 127.07 1045.15 M127.07 1041.45 Q132.881 1041.45 135.936 1046.06 Q139.015 1050.64 139.015 1059.39 Q139.015 1068.12 135.936 1072.72 Q132.881 1077.31 127.07 1077.31 Q121.26 1077.31 118.182 1072.72 Q115.126 1068.12 115.126 1059.39 Q115.126 1050.64 118.182 1046.06 Q121.26 1041.45 127.07 1041.45 Z" fill="#000000" fill-rule="nonzero" fill-opacity="1" /><path clip-path="url(#clip280)" d="M70.9133 754.093 Q74.2698 754.811 76.1448 757.079 Q78.0429 759.348 78.0429 762.681 Q78.0429 767.797 74.5244 770.598 Q71.0059 773.399 64.5245 773.399 Q62.3486 773.399 60.0338 772.959 Q57.7421 772.542 55.2884 771.686 L55.2884 767.172 Q57.2328 768.306 59.5477 768.885 Q61.8625 769.464 64.3856 769.464 Q68.7837 769.464 71.0754 767.728 Q73.3902 765.991 73.3902 762.681 Q73.3902 759.626 71.2374 757.913 Q69.1078 756.177 65.2884 756.177 L61.2606 756.177 L61.2606 752.334 L65.4735 752.334 Q68.9226 752.334 70.7513 750.968 Q72.58 749.58 72.58 746.987 Q72.58 744.325 70.6819 742.913 Q68.8069 741.478 65.2884 741.478 Q63.3671 741.478 61.168 741.894 Q58.969 742.311 56.3301 743.191 L56.3301 739.024 Q58.9921 738.283 61.3069 737.913 Q63.6449 737.543 65.705 737.543 Q71.0291 737.543 74.1309 739.973 Q77.2327 742.38 77.2327 746.501 Q77.2327 749.371 75.5892 751.362 Q73.9457 753.329 70.9133 754.093 Z" fill="#000000" fill-rule="nonzero" fill-opacity="1" /><path clip-path="url(#clip280)" d="M96.9086 741.246 Q93.2975 741.246 91.4688 744.811 Q89.6632 748.353 89.6632 755.482 Q89.6632 762.589 91.4688 766.154 Q93.2975 769.695 96.9086 769.695 Q100.543 769.695 102.348 766.154 Q104.177 762.589 104.177 755.482 Q104.177 748.353 102.348 744.811 Q100.543 741.246 96.9086 741.246 M96.9086 737.543 Q102.719 737.543 105.774 742.149 Q108.853 746.732 108.853 755.482 Q108.853 764.209 105.774 768.816 Q102.719 773.399 96.9086 773.399 Q91.0984 773.399 88.0197 768.816 Q84.9642 764.209 84.9642 755.482 Q84.9642 746.732 88.0197 742.149 Q91.0984 737.543 96.9086 737.543 Z" fill="#000000" fill-rule="nonzero" fill-opacity="1" /><path clip-path="url(#clip280)" d="M127.07 741.246 Q123.459 741.246 121.631 744.811 Q119.825 748.353 119.825 755.482 Q119.825 762.589 121.631 766.154 Q123.459 769.695 127.07 769.695 Q130.705 769.695 132.51 766.154 Q134.339 762.589 134.339 755.482 Q134.339 748.353 132.51 744.811 Q130.705 741.246 127.07 741.246 M127.07 737.543 Q132.881 737.543 135.936 742.149 Q139.015 746.732 139.015 755.482 Q139.015 764.209 135.936 768.816 Q132.881 773.399 127.07 773.399 Q121.26 773.399 118.182 768.816 Q115.126 764.209 115.126 755.482 Q115.126 746.732 118.182 742.149 Q121.26 737.543 127.07 737.543 Z" fill="#000000" fill-rule="nonzero" fill-opacity="1" /><path clip-path="url(#clip280)" d="M69.5939 438.335 L57.7884 456.784 L69.5939 456.784 L69.5939 438.335 M68.367 434.261 L74.2466 434.261 L74.2466 456.784 L79.1772 456.784 L79.1772 460.673 L74.2466 460.673 L74.2466 468.821 L69.5939 468.821 L69.5939 460.673 L53.9921 460.673 L53.9921 456.159 L68.367 434.261 Z" fill="#000000" fill-rule="nonzero" fill-opacity="1" /><path clip-path="url(#clip280)" d="M96.9086 437.339 Q93.2975 437.339 91.4688 440.904 Q89.6632 444.446 89.6632 451.575 Q89.6632 458.682 91.4688 462.247 Q93.2975 465.788 96.9086 465.788 Q100.543 465.788 102.348 462.247 Q104.177 458.682 104.177 451.575 Q104.177 444.446 102.348 440.904 Q100.543 437.339 96.9086 437.339 M96.9086 433.636 Q102.719 433.636 105.774 438.242 Q108.853 442.826 108.853 451.575 Q108.853 460.302 105.774 464.909 Q102.719 469.492 96.9086 469.492 Q91.0984 469.492 88.0197 464.909 Q84.9642 460.302 84.9642 451.575 Q84.9642 442.826 88.0197 438.242 Q91.0984 433.636 96.9086 433.636 Z" fill="#000000" fill-rule="nonzero" fill-opacity="1" /><path clip-path="url(#clip280)" d="M127.07 437.339 Q123.459 437.339 121.631 440.904 Q119.825 444.446 119.825 451.575 Q119.825 458.682 121.631 462.247 Q123.459 465.788 127.07 465.788 Q130.705 465.788 132.51 462.247 Q134.339 458.682 134.339 451.575 Q134.339 444.446 132.51 440.904 Q130.705 437.339 127.07 437.339 M127.07 433.636 Q132.881 433.636 135.936 438.242 Q139.015 442.826 139.015 451.575 Q139.015 460.302 135.936 464.909 Q132.881 469.492 127.07 469.492 Q121.26 469.492 118.182 464.909 Q115.126 460.302 115.126 451.575 Q115.126 442.826 118.182 438.242 Q121.26 433.636 127.07 433.636 Z" fill="#000000" fill-rule="nonzero" fill-opacity="1" /><path clip-path="url(#clip280)" d="M639.587 18.8205 L639.587 41.5461 L649.876 41.5461 Q655.588 41.5461 658.707 38.5889 Q661.826 35.6318 661.826 30.163 Q661.826 24.7348 658.707 21.7777 Q655.588 18.8205 649.876 18.8205 L639.587 18.8205 M631.404 12.096 L649.876 12.096 Q660.044 12.096 665.229 16.714 Q670.455 21.2916 670.455 30.163 Q670.455 39.1155 665.229 43.6931 Q660.044 48.2706 649.876 48.2706 L639.587 48.2706 L639.587 72.576 L631.404 72.576 L631.404 12.096 Z" fill="#000000" fill-rule="nonzero" fill-opacity="1" /><path clip-path="url(#clip280)" d="M705.941 34.1734 Q704.685 33.4443 703.186 33.1202 Q701.728 32.7556 699.945 32.7556 Q693.626 32.7556 690.223 36.8875 Q686.861 40.9789 686.861 48.6757 L686.861 72.576 L679.367 72.576 L679.367 27.2059 L686.861 27.2059 L686.861 34.2544 Q689.21 30.1225 692.978 28.1376 Q696.745 26.1121 702.133 26.1121 Q702.902 26.1121 703.834 26.2337 Q704.766 26.3147 705.9 26.5172 L705.941 34.1734 Z" fill="#000000" fill-rule="nonzero" fill-opacity="1" /><path clip-path="url(#clip280)" d="M713.759 27.2059 L721.212 27.2059 L721.212 72.576 L713.759 72.576 L713.759 27.2059 M713.759 9.54393 L721.212 9.54393 L721.212 18.9825 L713.759 18.9825 L713.759 9.54393 Z" fill="#000000" fill-rule="nonzero" fill-opacity="1" /><path clip-path="url(#clip280)" d="M754.389 32.4315 Q748.394 32.4315 744.91 37.1306 Q741.426 41.7891 741.426 49.9314 Q741.426 58.0738 744.87 62.7728 Q748.354 67.4314 754.389 67.4314 Q760.344 67.4314 763.828 62.7323 Q767.312 58.0333 767.312 49.9314 Q767.312 41.8701 763.828 37.1711 Q760.344 32.4315 754.389 32.4315 M754.389 26.1121 Q764.112 26.1121 769.661 32.4315 Q775.211 38.7509 775.211 49.9314 Q775.211 61.0714 769.661 67.4314 Q764.112 73.7508 754.389 73.7508 Q744.627 73.7508 739.077 67.4314 Q733.568 61.0714 733.568 49.9314 Q733.568 38.7509 739.077 32.4315 Q744.627 26.1121 754.389 26.1121 Z" fill="#000000" fill-rule="nonzero" fill-opacity="1" /><path clip-path="url(#clip280)" d="M813.857 34.1734 Q812.601 33.4443 811.102 33.1202 Q809.644 32.7556 807.861 32.7556 Q801.542 32.7556 798.139 36.8875 Q794.777 40.9789 794.777 48.6757 L794.777 72.576 L787.283 72.576 L787.283 27.2059 L794.777 27.2059 L794.777 34.2544 Q797.126 30.1225 800.894 28.1376 Q804.661 26.1121 810.049 26.1121 Q810.818 26.1121 811.75 26.2337 Q812.682 26.3147 813.816 26.5172 L813.857 34.1734 Z" fill="#000000" fill-rule="nonzero" fill-opacity="1" /><path clip-path="url(#clip280)" d="M865.627 32.4315 Q859.632 32.4315 856.148 37.1306 Q852.664 41.7891 852.664 49.9314 Q852.664 58.0738 856.108 62.7728 Q859.591 67.4314 865.627 67.4314 Q871.582 67.4314 875.066 62.7323 Q878.55 58.0333 878.55 49.9314 Q878.55 41.8701 875.066 37.1711 Q871.582 32.4315 865.627 32.4315 M865.627 26.1121 Q875.349 26.1121 880.899 32.4315 Q886.449 38.7509 886.449 49.9314 Q886.449 61.0714 880.899 67.4314 Q875.349 73.7508 865.627 73.7508 Q855.865 73.7508 850.315 67.4314 Q844.806 61.0714 844.806 49.9314 Q844.806 38.7509 850.315 32.4315 Q855.865 26.1121 865.627 26.1121 Z" fill="#000000" fill-rule="nonzero" fill-opacity="1" /><path clip-path="url(#clip280)" d="M921.773 9.54393 L921.773 15.7418 L914.643 15.7418 Q910.633 15.7418 909.053 17.3622 Q907.514 18.9825 907.514 23.1955 L907.514 27.2059 L919.788 27.2059 L919.788 32.9987 L907.514 32.9987 L907.514 72.576 L900.019 72.576 L900.019 32.9987 L892.89 32.9987 L892.89 27.2059 L900.019 27.2059 L900.019 24.0462 Q900.019 16.471 903.544 13.0277 Q907.068 9.54393 914.724 9.54393 L921.773 9.54393 Z" fill="#000000" fill-rule="nonzero" fill-opacity="1" /><path clip-path="url(#clip280)" d="M983.306 28.5427 L983.306 35.5912 Q980.146 33.9709 976.743 33.1607 Q973.341 32.3505 969.695 32.3505 Q964.145 32.3505 961.35 34.0519 Q958.595 35.7533 958.595 39.156 Q958.595 41.7486 960.58 43.2475 Q962.565 44.7058 968.561 46.0426 L971.113 46.6097 Q979.053 48.3111 982.374 51.4303 Q985.736 54.509 985.736 60.0587 Q985.736 66.3781 980.713 70.0644 Q975.731 73.7508 966.981 73.7508 Q963.335 73.7508 959.365 73.0216 Q955.436 72.3329 951.061 70.9151 L951.061 63.2184 Q955.193 65.3654 959.203 66.4591 Q963.213 67.5124 967.143 67.5124 Q972.409 67.5124 975.245 65.73 Q978.08 63.9071 978.08 60.6258 Q978.08 57.5877 976.014 55.9673 Q973.989 54.3469 967.062 52.8481 L964.469 52.2405 Q957.542 50.7821 954.464 47.7845 Q951.385 44.7463 951.385 39.4801 Q951.385 33.0797 955.922 29.5959 Q960.459 26.1121 968.804 26.1121 Q972.936 26.1121 976.581 26.7198 Q980.227 27.3274 983.306 28.5427 Z" fill="#000000" fill-rule="nonzero" fill-opacity="1" /><path clip-path="url(#clip280)" d="M1018.22 49.7694 Q1009.19 49.7694 1005.71 51.8354 Q1002.22 53.9013 1002.22 58.8839 Q1002.22 62.8538 1004.82 65.2034 Q1007.45 67.5124 1011.95 67.5124 Q1018.14 67.5124 1021.87 63.1374 Q1025.64 58.7219 1025.64 51.4303 L1025.64 49.7694 L1018.22 49.7694 M1033.09 46.6907 L1033.09 72.576 L1025.64 72.576 L1025.64 65.6895 Q1023.09 69.8214 1019.28 71.8063 Q1015.47 73.7508 1009.96 73.7508 Q1002.99 73.7508 998.861 69.8619 Q994.77 65.9325 994.77 59.3701 Q994.77 51.7138 999.874 47.825 Q1005.02 43.9361 1015.19 43.9361 L1025.64 43.9361 L1025.64 43.2069 Q1025.64 38.0623 1022.24 35.2672 Q1018.87 32.4315 1012.76 32.4315 Q1008.87 32.4315 1005.18 33.3632 Q1001.49 34.295 998.092 36.1584 L998.092 29.2718 Q1002.18 27.692 1006.03 26.9223 Q1009.88 26.1121 1013.53 26.1121 Q1023.37 26.1121 1028.23 31.2163 Q1033.09 36.3204 1033.09 46.6907 Z" fill="#000000" fill-rule="nonzero" fill-opacity="1" /><path clip-path="url(#clip280)" d="M1083.77 35.9153 Q1086.56 30.8922 1090.45 28.5022 Q1094.34 26.1121 1099.61 26.1121 Q1106.7 26.1121 1110.54 31.0947 Q1114.39 36.0368 1114.39 45.1919 L1114.39 72.576 L1106.9 72.576 L1106.9 45.4349 Q1106.9 38.913 1104.59 35.7533 Q1102.28 32.5936 1097.54 32.5936 Q1091.75 32.5936 1088.39 36.4419 Q1085.02 40.2903 1085.02 46.9338 L1085.02 72.576 L1077.53 72.576 L1077.53 45.4349 Q1077.53 38.8725 1075.22 35.7533 Q1072.91 32.5936 1068.09 32.5936 Q1062.38 32.5936 1059.02 36.4824 Q1055.66 40.3308 1055.66 46.9338 L1055.66 72.576 L1048.16 72.576 L1048.16 27.2059 L1055.66 27.2059 L1055.66 34.2544 Q1058.21 30.082 1061.77 28.0971 Q1065.34 26.1121 1070.24 26.1121 Q1075.18 26.1121 1078.62 28.6237 Q1082.11 31.1352 1083.77 35.9153 Z" fill="#000000" fill-rule="nonzero" fill-opacity="1" /><path clip-path="url(#clip280)" d="M1136.47 65.7705 L1136.47 89.8329 L1128.98 89.8329 L1128.98 27.2059 L1136.47 27.2059 L1136.47 34.0924 Q1138.82 30.0415 1142.38 28.0971 Q1145.99 26.1121 1150.97 26.1121 Q1159.24 26.1121 1164.38 32.6746 Q1169.57 39.2371 1169.57 49.9314 Q1169.57 60.6258 1164.38 67.1883 Q1159.24 73.7508 1150.97 73.7508 Q1145.99 73.7508 1142.38 71.8063 Q1138.82 69.8214 1136.47 65.7705 M1161.83 49.9314 Q1161.83 41.7081 1158.43 37.0496 Q1155.06 32.3505 1149.15 32.3505 Q1143.24 32.3505 1139.83 37.0496 Q1136.47 41.7081 1136.47 49.9314 Q1136.47 58.1548 1139.83 62.8538 Q1143.24 67.5124 1149.15 67.5124 Q1155.06 67.5124 1158.43 62.8538 Q1161.83 58.1548 1161.83 49.9314 Z" fill="#000000" fill-rule="nonzero" fill-opacity="1" /><path clip-path="url(#clip280)" d="M1181.92 9.54393 L1189.38 9.54393 L1189.38 72.576 L1181.92 72.576 L1181.92 9.54393 Z" fill="#000000" fill-rule="nonzero" fill-opacity="1" /><path clip-path="url(#clip280)" d="M1243.78 48.0275 L1243.78 51.6733 L1209.51 51.6733 Q1209.99 59.3701 1214.13 63.421 Q1218.3 67.4314 1225.71 67.4314 Q1230.01 67.4314 1234.02 66.3781 Q1238.07 65.3249 1242.04 63.2184 L1242.04 70.267 Q1238.03 71.9684 1233.81 72.8596 Q1229.6 73.7508 1225.27 73.7508 Q1214.41 73.7508 1208.05 67.4314 Q1201.73 61.1119 1201.73 50.3365 Q1201.73 39.1965 1207.73 32.6746 Q1213.76 26.1121 1223.97 26.1121 Q1233.13 26.1121 1238.43 32.0264 Q1243.78 37.9003 1243.78 48.0275 M1236.33 45.84 Q1236.24 39.7232 1232.88 36.0774 Q1229.56 32.4315 1224.05 32.4315 Q1217.81 32.4315 1214.05 35.9558 Q1210.32 39.4801 1209.75 45.8805 L1236.33 45.84 Z" fill="#000000" fill-rule="nonzero" fill-opacity="1" /><path clip-path="url(#clip280)" d="M1284.94 28.5427 L1284.94 35.5912 Q1281.78 33.9709 1278.37 33.1607 Q1274.97 32.3505 1271.33 32.3505 Q1265.78 32.3505 1262.98 34.0519 Q1260.23 35.7533 1260.23 39.156 Q1260.23 41.7486 1262.21 43.2475 Q1264.2 44.7058 1270.19 46.0426 L1272.74 46.6097 Q1280.68 48.3111 1284 51.4303 Q1287.37 54.509 1287.37 60.0587 Q1287.37 66.3781 1282.34 70.0644 Q1277.36 73.7508 1268.61 73.7508 Q1264.97 73.7508 1261 73.0216 Q1257.07 72.3329 1252.69 70.9151 L1252.69 63.2184 Q1256.82 65.3654 1260.83 66.4591 Q1264.84 67.5124 1268.77 67.5124 Q1274.04 67.5124 1276.87 65.73 Q1279.71 63.9071 1279.71 60.6258 Q1279.71 57.5877 1277.64 55.9673 Q1275.62 54.3469 1268.69 52.8481 L1266.1 52.2405 Q1259.17 50.7821 1256.09 47.7845 Q1253.02 44.7463 1253.02 39.4801 Q1253.02 33.0797 1257.55 29.5959 Q1262.09 26.1121 1270.43 26.1121 Q1274.57 26.1121 1278.21 26.7198 Q1281.86 27.3274 1284.94 28.5427 Z" fill="#000000" fill-rule="nonzero" fill-opacity="1" /><path clip-path="url(#clip282)" d="M253.288 1664.13 L253.288 1667.17 L298.843 1667.17 L298.843 1664.13 L253.288 1664.13 L253.288 1664.13  Z" fill="#009af9" fill-rule="evenodd" fill-opacity="1"/>
<polyline clip-path="url(#clip282)" style="stroke:#000000; stroke-linecap:round; stroke-linejoin:round; stroke-width:8; stroke-opacity:1; fill:none" points="253.288,1664.13 253.288,1667.17 298.843,1667.17 298.843,1664.13 253.288,1664.13 "/>
<path clip-path="url(#clip282)" d="M298.843 1664.13 L298.843 1667.17 L344.398 1667.17 L344.398 1664.13 L298.843 1664.13 L298.843 1664.13  Z" fill="#009af9" fill-rule="evenodd" fill-opacity="1"/>
<polyline clip-path="url(#clip282)" style="stroke:#000000; stroke-linecap:round; stroke-linejoin:round; stroke-width:8; stroke-opacity:1; fill:none" points="298.843,1664.13 298.843,1667.17 344.398,1667.17 344.398,1664.13 298.843,1664.13 "/>
<path clip-path="url(#clip282)" d="M344.398 1661.09 L344.398 1667.17 L389.952 1667.17 L389.952 1661.09 L344.398 1661.09 L344.398 1661.09  Z" fill="#009af9" fill-rule="evenodd" fill-opacity="1"/>
<polyline clip-path="url(#clip282)" style="stroke:#000000; stroke-linecap:round; stroke-linejoin:round; stroke-width:8; stroke-opacity:1; fill:none" points="344.398,1661.09 344.398,1667.17 389.952,1667.17 389.952,1661.09 344.398,1661.09 "/>
<path clip-path="url(#clip282)" d="M389.952 1661.09 L389.952 1667.17 L435.507 1667.17 L435.507 1661.09 L389.952 1661.09 L389.952 1661.09  Z" fill="#009af9" fill-rule="evenodd" fill-opacity="1"/>
<polyline clip-path="url(#clip282)" style="stroke:#000000; stroke-linecap:round; stroke-linejoin:round; stroke-width:8; stroke-opacity:1; fill:none" points="389.952,1661.09 389.952,1667.17 435.507,1667.17 435.507,1661.09 389.952,1661.09 "/>
<path clip-path="url(#clip282)" d="M435.507 1655.01 L435.507 1667.17 L481.062 1667.17 L481.062 1655.01 L435.507 1655.01 L435.507 1655.01  Z" fill="#009af9" fill-rule="evenodd" fill-opacity="1"/>
<polyline clip-path="url(#clip282)" style="stroke:#000000; stroke-linecap:round; stroke-linejoin:round; stroke-width:8; stroke-opacity:1; fill:none" points="435.507,1655.01 435.507,1667.17 481.062,1667.17 481.062,1655.01 435.507,1655.01 "/>
<path clip-path="url(#clip282)" d="M481.062 1642.86 L481.062 1667.17 L526.616 1667.17 L526.616 1642.86 L481.062 1642.86 L481.062 1642.86  Z" fill="#009af9" fill-rule="evenodd" fill-opacity="1"/>
<polyline clip-path="url(#clip282)" style="stroke:#000000; stroke-linecap:round; stroke-linejoin:round; stroke-width:8; stroke-opacity:1; fill:none" points="481.062,1642.86 481.062,1667.17 526.616,1667.17 526.616,1642.86 481.062,1642.86 "/>
<path clip-path="url(#clip282)" d="M526.616 1612.46 L526.616 1667.17 L572.171 1667.17 L572.171 1612.46 L526.616 1612.46 L526.616 1612.46  Z" fill="#009af9" fill-rule="evenodd" fill-opacity="1"/>
<polyline clip-path="url(#clip282)" style="stroke:#000000; stroke-linecap:round; stroke-linejoin:round; stroke-width:8; stroke-opacity:1; fill:none" points="526.616,1612.46 526.616,1667.17 572.171,1667.17 572.171,1612.46 526.616,1612.46 "/>
<path clip-path="url(#clip282)" d="M572.171 1560.8 L572.171 1667.17 L617.726 1667.17 L617.726 1560.8 L572.171 1560.8 L572.171 1560.8  Z" fill="#009af9" fill-rule="evenodd" fill-opacity="1"/>
<polyline clip-path="url(#clip282)" style="stroke:#000000; stroke-linecap:round; stroke-linejoin:round; stroke-width:8; stroke-opacity:1; fill:none" points="572.171,1560.8 572.171,1667.17 617.726,1667.17 617.726,1560.8 572.171,1560.8 "/>
<path clip-path="url(#clip282)" d="M617.726 1487.86 L617.726 1667.17 L663.28 1667.17 L663.28 1487.86 L617.726 1487.86 L617.726 1487.86  Z" fill="#009af9" fill-rule="evenodd" fill-opacity="1"/>
<polyline clip-path="url(#clip282)" style="stroke:#000000; stroke-linecap:round; stroke-linejoin:round; stroke-width:8; stroke-opacity:1; fill:none" points="617.726,1487.86 617.726,1667.17 663.28,1667.17 663.28,1487.86 617.726,1487.86 "/>
<path clip-path="url(#clip282)" d="M663.28 1405.81 L663.28 1667.17 L708.835 1667.17 L708.835 1405.81 L663.28 1405.81 L663.28 1405.81  Z" fill="#009af9" fill-rule="evenodd" fill-opacity="1"/>
<polyline clip-path="url(#clip282)" style="stroke:#000000; stroke-linecap:round; stroke-linejoin:round; stroke-width:8; stroke-opacity:1; fill:none" points="663.28,1405.81 663.28,1667.17 708.835,1667.17 708.835,1405.81 663.28,1405.81 "/>
<path clip-path="url(#clip282)" d="M708.835 1278.17 L708.835 1667.17 L754.389 1667.17 L754.389 1278.17 L708.835 1278.17 L708.835 1278.17  Z" fill="#009af9" fill-rule="evenodd" fill-opacity="1"/>
<polyline clip-path="url(#clip282)" style="stroke:#000000; stroke-linecap:round; stroke-linejoin:round; stroke-width:8; stroke-opacity:1; fill:none" points="708.835,1278.17 708.835,1667.17 754.389,1667.17 754.389,1278.17 708.835,1278.17 "/>
<path clip-path="url(#clip282)" d="M754.389 1013.77 L754.389 1667.17 L799.944 1667.17 L799.944 1013.77 L754.389 1013.77 L754.389 1013.77  Z" fill="#009af9" fill-rule="evenodd" fill-opacity="1"/>
<polyline clip-path="url(#clip282)" style="stroke:#000000; stroke-linecap:round; stroke-linejoin:round; stroke-width:8; stroke-opacity:1; fill:none" points="754.389,1013.77 754.389,1667.17 799.944,1667.17 799.944,1013.77 754.389,1013.77 "/>
<path clip-path="url(#clip282)" d="M799.944 749.369 L799.944 1667.17 L845.499 1667.17 L845.499 749.369 L799.944 749.369 L799.944 749.369  Z" fill="#009af9" fill-rule="evenodd" fill-opacity="1"/>
<polyline clip-path="url(#clip282)" style="stroke:#000000; stroke-linecap:round; stroke-linejoin:round; stroke-width:8; stroke-opacity:1; fill:none" points="799.944,749.369 799.944,1667.17 845.499,1667.17 845.499,749.369 799.944,749.369 "/>
<path clip-path="url(#clip282)" d="M845.499 685.549 L845.499 1667.17 L891.053 1667.17 L891.053 685.549 L845.499 685.549 L845.499 685.549  Z" fill="#009af9" fill-rule="evenodd" fill-opacity="1"/>
<polyline clip-path="url(#clip282)" style="stroke:#000000; stroke-linecap:round; stroke-linejoin:round; stroke-width:8; stroke-opacity:1; fill:none" points="845.499,685.549 845.499,1667.17 891.053,1667.17 891.053,685.549 845.499,685.549 "/>
<path clip-path="url(#clip282)" d="M891.053 336.056 L891.053 1667.17 L936.608 1667.17 L936.608 336.056 L891.053 336.056 L891.053 336.056  Z" fill="#009af9" fill-rule="evenodd" fill-opacity="1"/>
<polyline clip-path="url(#clip282)" style="stroke:#000000; stroke-linecap:round; stroke-linejoin:round; stroke-width:8; stroke-opacity:1; fill:none" points="891.053,336.056 891.053,1667.17 936.608,1667.17 936.608,336.056 891.053,336.056 "/>
<path clip-path="url(#clip282)" d="M936.608 168.907 L936.608 1667.17 L982.163 1667.17 L982.163 168.907 L936.608 168.907 L936.608 168.907  Z" fill="#009af9" fill-rule="evenodd" fill-opacity="1"/>
<polyline clip-path="url(#clip282)" style="stroke:#000000; stroke-linecap:round; stroke-linejoin:round; stroke-width:8; stroke-opacity:1; fill:none" points="936.608,168.907 936.608,1667.17 982.163,1667.17 982.163,168.907 936.608,168.907 "/>
<path clip-path="url(#clip282)" d="M982.163 223.611 L982.163 1667.17 L1027.72 1667.17 L1027.72 223.611 L982.163 223.611 L982.163 223.611  Z" fill="#009af9" fill-rule="evenodd" fill-opacity="1"/>
<polyline clip-path="url(#clip282)" style="stroke:#000000; stroke-linecap:round; stroke-linejoin:round; stroke-width:8; stroke-opacity:1; fill:none" points="982.163,223.611 982.163,1667.17 1027.72,1667.17 1027.72,223.611 982.163,223.611 "/>
<path clip-path="url(#clip282)" d="M1027.72 254.001 L1027.72 1667.17 L1073.27 1667.17 L1073.27 254.001 L1027.72 254.001 L1027.72 254.001  Z" fill="#009af9" fill-rule="evenodd" fill-opacity="1"/>
<polyline clip-path="url(#clip282)" style="stroke:#000000; stroke-linecap:round; stroke-linejoin:round; stroke-width:8; stroke-opacity:1; fill:none" points="1027.72,254.001 1027.72,1667.17 1073.27,1667.17 1073.27,254.001 1027.72,254.001 "/>
<path clip-path="url(#clip282)" d="M1073.27 153.712 L1073.27 1667.17 L1118.83 1667.17 L1118.83 153.712 L1073.27 153.712 L1073.27 153.712  Z" fill="#009af9" fill-rule="evenodd" fill-opacity="1"/>
<polyline clip-path="url(#clip282)" style="stroke:#000000; stroke-linecap:round; stroke-linejoin:round; stroke-width:8; stroke-opacity:1; fill:none" points="1073.27,153.712 1073.27,1667.17 1118.83,1667.17 1118.83,153.712 1073.27,153.712 "/>
<path clip-path="url(#clip282)" d="M1118.83 433.306 L1118.83 1667.17 L1164.38 1667.17 L1164.38 433.306 L1118.83 433.306 L1118.83 433.306  Z" fill="#009af9" fill-rule="evenodd" fill-opacity="1"/>
<polyline clip-path="url(#clip282)" style="stroke:#000000; stroke-linecap:round; stroke-linejoin:round; stroke-width:8; stroke-opacity:1; fill:none" points="1118.83,433.306 1118.83,1667.17 1164.38,1667.17 1164.38,433.306 1118.83,433.306 "/>
<path clip-path="url(#clip282)" d="M1164.38 740.252 L1164.38 1667.17 L1209.94 1667.17 L1209.94 740.252 L1164.38 740.252 L1164.38 740.252  Z" fill="#009af9" fill-rule="evenodd" fill-opacity="1"/>
<polyline clip-path="url(#clip282)" style="stroke:#000000; stroke-linecap:round; stroke-linejoin:round; stroke-width:8; stroke-opacity:1; fill:none" points="1164.38,740.252 1164.38,1667.17 1209.94,1667.17 1209.94,740.252 1164.38,740.252 "/>
<path clip-path="url(#clip282)" d="M1209.94 946.909 L1209.94 1667.17 L1255.49 1667.17 L1255.49 946.909 L1209.94 946.909 L1209.94 946.909  Z" fill="#009af9" fill-rule="evenodd" fill-opacity="1"/>
<polyline clip-path="url(#clip282)" style="stroke:#000000; stroke-linecap:round; stroke-linejoin:round; stroke-width:8; stroke-opacity:1; fill:none" points="1209.94,946.909 1209.94,1667.17 1255.49,1667.17 1255.49,946.909 1209.94,946.909 "/>
<path clip-path="url(#clip282)" d="M1255.49 1138.37 L1255.49 1667.17 L1301.05 1667.17 L1301.05 1138.37 L1255.49 1138.37 L1255.49 1138.37  Z" fill="#009af9" fill-rule="evenodd" fill-opacity="1"/>
<polyline clip-path="url(#clip282)" style="stroke:#000000; stroke-linecap:round; stroke-linejoin:round; stroke-width:8; stroke-opacity:1; fill:none" points="1255.49,1138.37 1255.49,1667.17 1301.05,1667.17 1301.05,1138.37 1255.49,1138.37 "/>
<path clip-path="url(#clip282)" d="M1301.05 1253.85 L1301.05 1667.17 L1346.6 1667.17 L1346.6 1253.85 L1301.05 1253.85 L1301.05 1253.85  Z" fill="#009af9" fill-rule="evenodd" fill-opacity="1"/>
<polyline clip-path="url(#clip282)" style="stroke:#000000; stroke-linecap:round; stroke-linejoin:round; stroke-width:8; stroke-opacity:1; fill:none" points="1301.05,1253.85 1301.05,1667.17 1346.6,1667.17 1346.6,1253.85 1301.05,1253.85 "/>
<path clip-path="url(#clip282)" d="M1346.6 1430.12 L1346.6 1667.17 L1392.15 1667.17 L1392.15 1430.12 L1346.6 1430.12 L1346.6 1430.12  Z" fill="#009af9" fill-rule="evenodd" fill-opacity="1"/>
<polyline clip-path="url(#clip282)" style="stroke:#000000; stroke-linecap:round; stroke-linejoin:round; stroke-width:8; stroke-opacity:1; fill:none" points="1346.6,1430.12 1346.6,1667.17 1392.15,1667.17 1392.15,1430.12 1346.6,1430.12 "/>
<path clip-path="url(#clip282)" d="M1392.15 1530.41 L1392.15 1667.17 L1437.71 1667.17 L1437.71 1530.41 L1392.15 1530.41 L1392.15 1530.41  Z" fill="#009af9" fill-rule="evenodd" fill-opacity="1"/>
<polyline clip-path="url(#clip282)" style="stroke:#000000; stroke-linecap:round; stroke-linejoin:round; stroke-width:8; stroke-opacity:1; fill:none" points="1392.15,1530.41 1392.15,1667.17 1437.71,1667.17 1437.71,1530.41 1392.15,1530.41 "/>
<path clip-path="url(#clip282)" d="M1437.71 1551.68 L1437.71 1667.17 L1483.26 1667.17 L1483.26 1551.68 L1437.71 1551.68 L1437.71 1551.68  Z" fill="#009af9" fill-rule="evenodd" fill-opacity="1"/>
<polyline clip-path="url(#clip282)" style="stroke:#000000; stroke-linecap:round; stroke-linejoin:round; stroke-width:8; stroke-opacity:1; fill:none" points="1437.71,1551.68 1437.71,1667.17 1483.26,1667.17 1483.26,1551.68 1437.71,1551.68 "/>
<path clip-path="url(#clip282)" d="M1483.26 1621.58 L1483.26 1667.17 L1528.82 1667.17 L1528.82 1621.58 L1483.26 1621.58 L1483.26 1621.58  Z" fill="#009af9" fill-rule="evenodd" fill-opacity="1"/>
<polyline clip-path="url(#clip282)" style="stroke:#000000; stroke-linecap:round; stroke-linejoin:round; stroke-width:8; stroke-opacity:1; fill:none" points="1483.26,1621.58 1483.26,1667.17 1528.82,1667.17 1528.82,1621.58 1483.26,1621.58 "/>
<path clip-path="url(#clip282)" d="M1528.82 1651.97 L1528.82 1667.17 L1574.37 1667.17 L1574.37 1651.97 L1528.82 1651.97 L1528.82 1651.97  Z" fill="#009af9" fill-rule="evenodd" fill-opacity="1"/>
<polyline clip-path="url(#clip282)" style="stroke:#000000; stroke-linecap:round; stroke-linejoin:round; stroke-width:8; stroke-opacity:1; fill:none" points="1528.82,1651.97 1528.82,1667.17 1574.37,1667.17 1574.37,1651.97 1528.82,1651.97 "/>
<path clip-path="url(#clip282)" d="M1574.37 1645.89 L1574.37 1667.17 L1619.93 1667.17 L1619.93 1645.89 L1574.37 1645.89 L1574.37 1645.89  Z" fill="#009af9" fill-rule="evenodd" fill-opacity="1"/>
<polyline clip-path="url(#clip282)" style="stroke:#000000; stroke-linecap:round; stroke-linejoin:round; stroke-width:8; stroke-opacity:1; fill:none" points="1574.37,1645.89 1574.37,1667.17 1619.93,1667.17 1619.93,1645.89 1574.37,1645.89 "/>
<path clip-path="url(#clip282)" d="M1619.93 1664.13 L1619.93 1667.17 L1665.48 1667.17 L1665.48 1664.13 L1619.93 1664.13 L1619.93 1664.13  Z" fill="#009af9" fill-rule="evenodd" fill-opacity="1"/>
<polyline clip-path="url(#clip282)" style="stroke:#000000; stroke-linecap:round; stroke-linejoin:round; stroke-width:8; stroke-opacity:1; fill:none" points="1619.93,1664.13 1619.93,1667.17 1665.48,1667.17 1665.48,1664.13 1619.93,1664.13 "/>
<circle clip-path="url(#clip282)" style="fill:#009af9; stroke:none; fill-opacity:0" cx="276.066" cy="1664.13" r="2"/>
<circle clip-path="url(#clip282)" style="fill:#009af9; stroke:none; fill-opacity:0" cx="321.62" cy="1664.13" r="2"/>
<circle clip-path="url(#clip282)" style="fill:#009af9; stroke:none; fill-opacity:0" cx="367.175" cy="1661.09" r="2"/>
<circle clip-path="url(#clip282)" style="fill:#009af9; stroke:none; fill-opacity:0" cx="412.73" cy="1661.09" r="2"/>
<circle clip-path="url(#clip282)" style="fill:#009af9; stroke:none; fill-opacity:0" cx="458.284" cy="1655.01" r="2"/>
<circle clip-path="url(#clip282)" style="fill:#009af9; stroke:none; fill-opacity:0" cx="503.839" cy="1642.86" r="2"/>
<circle clip-path="url(#clip282)" style="fill:#009af9; stroke:none; fill-opacity:0" cx="549.394" cy="1612.46" r="2"/>
<circle clip-path="url(#clip282)" style="fill:#009af9; stroke:none; fill-opacity:0" cx="594.948" cy="1560.8" r="2"/>
<circle clip-path="url(#clip282)" style="fill:#009af9; stroke:none; fill-opacity:0" cx="640.503" cy="1487.86" r="2"/>
<circle clip-path="url(#clip282)" style="fill:#009af9; stroke:none; fill-opacity:0" cx="686.058" cy="1405.81" r="2"/>
<circle clip-path="url(#clip282)" style="fill:#009af9; stroke:none; fill-opacity:0" cx="731.612" cy="1278.17" r="2"/>
<circle clip-path="url(#clip282)" style="fill:#009af9; stroke:none; fill-opacity:0" cx="777.167" cy="1013.77" r="2"/>
<circle clip-path="url(#clip282)" style="fill:#009af9; stroke:none; fill-opacity:0" cx="822.721" cy="749.369" r="2"/>
<circle clip-path="url(#clip282)" style="fill:#009af9; stroke:none; fill-opacity:0" cx="868.276" cy="685.549" r="2"/>
<circle clip-path="url(#clip282)" style="fill:#009af9; stroke:none; fill-opacity:0" cx="913.831" cy="336.056" r="2"/>
<circle clip-path="url(#clip282)" style="fill:#009af9; stroke:none; fill-opacity:0" cx="959.385" cy="168.907" r="2"/>
<circle clip-path="url(#clip282)" style="fill:#009af9; stroke:none; fill-opacity:0" cx="1004.94" cy="223.611" r="2"/>
<circle clip-path="url(#clip282)" style="fill:#009af9; stroke:none; fill-opacity:0" cx="1050.49" cy="254.001" r="2"/>
<circle clip-path="url(#clip282)" style="fill:#009af9; stroke:none; fill-opacity:0" cx="1096.05" cy="153.712" r="2"/>
<circle clip-path="url(#clip282)" style="fill:#009af9; stroke:none; fill-opacity:0" cx="1141.6" cy="433.306" r="2"/>
<circle clip-path="url(#clip282)" style="fill:#009af9; stroke:none; fill-opacity:0" cx="1187.16" cy="740.252" r="2"/>
<circle clip-path="url(#clip282)" style="fill:#009af9; stroke:none; fill-opacity:0" cx="1232.71" cy="946.909" r="2"/>
<circle clip-path="url(#clip282)" style="fill:#009af9; stroke:none; fill-opacity:0" cx="1278.27" cy="1138.37" r="2"/>
<circle clip-path="url(#clip282)" style="fill:#009af9; stroke:none; fill-opacity:0" cx="1323.82" cy="1253.85" r="2"/>
<circle clip-path="url(#clip282)" style="fill:#009af9; stroke:none; fill-opacity:0" cx="1369.38" cy="1430.12" r="2"/>
<circle clip-path="url(#clip282)" style="fill:#009af9; stroke:none; fill-opacity:0" cx="1414.93" cy="1530.41" r="2"/>
<circle clip-path="url(#clip282)" style="fill:#009af9; stroke:none; fill-opacity:0" cx="1460.49" cy="1551.68" r="2"/>
<circle clip-path="url(#clip282)" style="fill:#009af9; stroke:none; fill-opacity:0" cx="1506.04" cy="1621.58" r="2"/>
<circle clip-path="url(#clip282)" style="fill:#009af9; stroke:none; fill-opacity:0" cx="1551.6" cy="1651.97" r="2"/>
<circle clip-path="url(#clip282)" style="fill:#009af9; stroke:none; fill-opacity:0" cx="1597.15" cy="1645.89" r="2"/>
<circle clip-path="url(#clip282)" style="fill:#009af9; stroke:none; fill-opacity:0" cx="1642.71" cy="1664.13" r="2"/>
<polyline clip-path="url(#clip282)" style="stroke:#e26f46; stroke-linecap:round; stroke-linejoin:round; stroke-width:8; stroke-opacity:1; fill:none" points="992.936,3180.62 992.936,-1359.74 "/>
</svg>
