<?xml version="1.0" encoding="utf-8"?>
<svg xmlns="http://www.w3.org/2000/svg" xmlns:xlink="http://www.w3.org/1999/xlink" width="600" height="400" viewBox="0 0 2400 1600">
<defs>
  <clipPath id="clip910">
    <rect x="0" y="0" width="2400" height="1600"/>
  </clipPath>
</defs>
<path clip-path="url(#clip910)" d="
M0 1600 L2400 1600 L2400 0 L0 0  Z
  " fill="#ffffff" fill-rule="evenodd" fill-opacity="1"/>
<defs>
  <clipPath id="clip911">
    <rect x="480" y="0" width="1681" height="1600"/>
  </clipPath>
</defs>
<path clip-path="url(#clip910)" d="
M249.195 1423.18 L2352.76 1423.18 L2352.76 47.2441 L249.195 47.2441  Z
  " fill="#ffffff" fill-rule="evenodd" fill-opacity="1"/>
<defs>
  <clipPath id="clip912">
    <rect x="249" y="47" width="2105" height="1377"/>
  </clipPath>
</defs>
<polyline clip-path="url(#clip912)" style="stroke:#000000; stroke-linecap:butt; stroke-linejoin:round; stroke-width:2; stroke-opacity:0.1; fill:none" points="
  308.73,1423.18 308.73,47.2441 
  "/>
<polyline clip-path="url(#clip912)" style="stroke:#000000; stroke-linecap:butt; stroke-linejoin:round; stroke-width:2; stroke-opacity:0.1; fill:none" points="
  529.229,1423.18 529.229,47.2441 
  "/>
<polyline clip-path="url(#clip912)" style="stroke:#000000; stroke-linecap:butt; stroke-linejoin:round; stroke-width:2; stroke-opacity:0.1; fill:none" points="
  749.728,1423.18 749.728,47.2441 
  "/>
<polyline clip-path="url(#clip912)" style="stroke:#000000; stroke-linecap:butt; stroke-linejoin:round; stroke-width:2; stroke-opacity:0.1; fill:none" points="
  970.227,1423.18 970.227,47.2441 
  "/>
<polyline clip-path="url(#clip912)" style="stroke:#000000; stroke-linecap:butt; stroke-linejoin:round; stroke-width:2; stroke-opacity:0.1; fill:none" points="
  1190.73,1423.18 1190.73,47.2441 
  "/>
<polyline clip-path="url(#clip912)" style="stroke:#000000; stroke-linecap:butt; stroke-linejoin:round; stroke-width:2; stroke-opacity:0.1; fill:none" points="
  1411.22,1423.18 1411.22,47.2441 
  "/>
<polyline clip-path="url(#clip912)" style="stroke:#000000; stroke-linecap:butt; stroke-linejoin:round; stroke-width:2; stroke-opacity:0.1; fill:none" points="
  1631.72,1423.18 1631.72,47.2441 
  "/>
<polyline clip-path="url(#clip912)" style="stroke:#000000; stroke-linecap:butt; stroke-linejoin:round; stroke-width:2; stroke-opacity:0.1; fill:none" points="
  1852.22,1423.18 1852.22,47.2441 
  "/>
<polyline clip-path="url(#clip912)" style="stroke:#000000; stroke-linecap:butt; stroke-linejoin:round; stroke-width:2; stroke-opacity:0.1; fill:none" points="
  2072.72,1423.18 2072.72,47.2441 
  "/>
<polyline clip-path="url(#clip912)" style="stroke:#000000; stroke-linecap:butt; stroke-linejoin:round; stroke-width:2; stroke-opacity:0.1; fill:none" points="
  2293.22,1423.18 2293.22,47.2441 
  "/>
<polyline clip-path="url(#clip910)" style="stroke:#000000; stroke-linecap:butt; stroke-linejoin:round; stroke-width:4; stroke-opacity:1; fill:none" points="
  249.195,1423.18 2352.76,1423.18 
  "/>
<polyline clip-path="url(#clip910)" style="stroke:#000000; stroke-linecap:butt; stroke-linejoin:round; stroke-width:4; stroke-opacity:1; fill:none" points="
  308.73,1423.18 308.73,1404.28 
  "/>
<polyline clip-path="url(#clip910)" style="stroke:#000000; stroke-linecap:butt; stroke-linejoin:round; stroke-width:4; stroke-opacity:1; fill:none" points="
  529.229,1423.18 529.229,1404.28 
  "/>
<polyline clip-path="url(#clip910)" style="stroke:#000000; stroke-linecap:butt; stroke-linejoin:round; stroke-width:4; stroke-opacity:1; fill:none" points="
  749.728,1423.18 749.728,1404.28 
  "/>
<polyline clip-path="url(#clip910)" style="stroke:#000000; stroke-linecap:butt; stroke-linejoin:round; stroke-width:4; stroke-opacity:1; fill:none" points="
  970.227,1423.18 970.227,1404.28 
  "/>
<polyline clip-path="url(#clip910)" style="stroke:#000000; stroke-linecap:butt; stroke-linejoin:round; stroke-width:4; stroke-opacity:1; fill:none" points="
  1190.73,1423.18 1190.73,1404.28 
  "/>
<polyline clip-path="url(#clip910)" style="stroke:#000000; stroke-linecap:butt; stroke-linejoin:round; stroke-width:4; stroke-opacity:1; fill:none" points="
  1411.22,1423.18 1411.22,1404.28 
  "/>
<polyline clip-path="url(#clip910)" style="stroke:#000000; stroke-linecap:butt; stroke-linejoin:round; stroke-width:4; stroke-opacity:1; fill:none" points="
  1631.72,1423.18 1631.72,1404.28 
  "/>
<polyline clip-path="url(#clip910)" style="stroke:#000000; stroke-linecap:butt; stroke-linejoin:round; stroke-width:4; stroke-opacity:1; fill:none" points="
  1852.22,1423.18 1852.22,1404.28 
  "/>
<polyline clip-path="url(#clip910)" style="stroke:#000000; stroke-linecap:butt; stroke-linejoin:round; stroke-width:4; stroke-opacity:1; fill:none" points="
  2072.72,1423.18 2072.72,1404.28 
  "/>
<polyline clip-path="url(#clip910)" style="stroke:#000000; stroke-linecap:butt; stroke-linejoin:round; stroke-width:4; stroke-opacity:1; fill:none" points="
  2293.22,1423.18 2293.22,1404.28 
  "/>
<path clip-path="url(#clip910)" d="M299.112 1481.64 L306.75 1481.64 L306.75 1455.28 L298.44 1456.95 L298.44 1452.69 L306.704 1451.02 L311.38 1451.02 L311.38 1481.64 L319.019 1481.64 L319.019 1485.58 L299.112 1485.58 L299.112 1481.64 Z" fill="#000000" fill-rule="evenodd" fill-opacity="1" /><path clip-path="url(#clip910)" d="M523.881 1481.64 L540.201 1481.64 L540.201 1485.58 L518.256 1485.58 L518.256 1481.64 Q520.918 1478.89 525.502 1474.26 Q530.108 1469.61 531.289 1468.27 Q533.534 1465.74 534.414 1464.01 Q535.317 1462.25 535.317 1460.56 Q535.317 1457.8 533.372 1456.07 Q531.451 1454.33 528.349 1454.33 Q526.15 1454.33 523.696 1455.09 Q521.266 1455.86 518.488 1457.41 L518.488 1452.69 Q521.312 1451.55 523.766 1450.97 Q526.219 1450.39 528.256 1450.39 Q533.627 1450.39 536.821 1453.08 Q540.016 1455.77 540.016 1460.26 Q540.016 1462.39 539.205 1464.31 Q538.418 1466.2 536.312 1468.8 Q535.733 1469.47 532.631 1472.69 Q529.53 1475.88 523.881 1481.64 Z" fill="#000000" fill-rule="evenodd" fill-opacity="1" /><path clip-path="url(#clip910)" d="M753.975 1466.95 Q757.332 1467.66 759.207 1469.93 Q761.105 1472.2 761.105 1475.53 Q761.105 1480.65 757.586 1483.45 Q754.068 1486.25 747.587 1486.25 Q745.411 1486.25 743.096 1485.81 Q740.804 1485.39 738.35 1484.54 L738.35 1480.02 Q740.295 1481.16 742.61 1481.74 Q744.924 1482.32 747.448 1482.32 Q751.846 1482.32 754.137 1480.58 Q756.452 1478.84 756.452 1475.53 Q756.452 1472.48 754.299 1470.77 Q752.17 1469.03 748.35 1469.03 L744.323 1469.03 L744.323 1465.19 L748.536 1465.19 Q751.985 1465.19 753.813 1463.82 Q755.642 1462.43 755.642 1459.84 Q755.642 1457.18 753.744 1455.77 Q751.869 1454.33 748.35 1454.33 Q746.429 1454.33 744.23 1454.75 Q742.031 1455.16 739.392 1456.04 L739.392 1451.88 Q742.054 1451.14 744.369 1450.77 Q746.707 1450.39 748.767 1450.39 Q754.091 1450.39 757.193 1452.83 Q760.295 1455.23 760.295 1459.35 Q760.295 1462.22 758.651 1464.21 Q757.008 1466.18 753.975 1466.95 Z" fill="#000000" fill-rule="evenodd" fill-opacity="1" /><path clip-path="url(#clip910)" d="M973.236 1455.09 L961.431 1473.54 L973.236 1473.54 L973.236 1455.09 M972.009 1451.02 L977.889 1451.02 L977.889 1473.54 L982.819 1473.54 L982.819 1477.43 L977.889 1477.43 L977.889 1485.58 L973.236 1485.58 L973.236 1477.43 L957.634 1477.43 L957.634 1472.92 L972.009 1451.02 Z" fill="#000000" fill-rule="evenodd" fill-opacity="1" /><path clip-path="url(#clip910)" d="M1181 1451.02 L1199.36 1451.02 L1199.36 1454.96 L1185.29 1454.96 L1185.29 1463.43 Q1186.3 1463.08 1187.32 1462.92 Q1188.34 1462.73 1189.36 1462.73 Q1195.15 1462.73 1198.53 1465.9 Q1201.91 1469.08 1201.91 1474.49 Q1201.91 1480.07 1198.43 1483.17 Q1194.96 1486.25 1188.64 1486.25 Q1186.47 1486.25 1184.2 1485.88 Q1181.95 1485.51 1179.55 1484.77 L1179.55 1480.07 Q1181.63 1481.2 1183.85 1481.76 Q1186.07 1482.32 1188.55 1482.32 Q1192.55 1482.32 1194.89 1480.21 Q1197.23 1478.1 1197.23 1474.49 Q1197.23 1470.88 1194.89 1468.77 Q1192.55 1466.67 1188.55 1466.67 Q1186.67 1466.67 1184.8 1467.08 Q1182.95 1467.5 1181 1468.38 L1181 1451.02 Z" fill="#000000" fill-rule="evenodd" fill-opacity="1" /><path clip-path="url(#clip910)" d="M1411.63 1466.44 Q1408.48 1466.44 1406.63 1468.59 Q1404.8 1470.74 1404.8 1474.49 Q1404.8 1478.22 1406.63 1480.39 Q1408.48 1482.55 1411.63 1482.55 Q1414.78 1482.55 1416.61 1480.39 Q1418.46 1478.22 1418.46 1474.49 Q1418.46 1470.74 1416.61 1468.59 Q1414.78 1466.44 1411.63 1466.44 M1420.91 1451.78 L1420.91 1456.04 Q1419.15 1455.21 1417.35 1454.77 Q1415.57 1454.33 1413.81 1454.33 Q1409.18 1454.33 1406.72 1457.45 Q1404.29 1460.58 1403.94 1466.9 Q1405.31 1464.89 1407.37 1463.82 Q1409.43 1462.73 1411.91 1462.73 Q1417.12 1462.73 1420.13 1465.9 Q1423.16 1469.05 1423.16 1474.49 Q1423.16 1479.82 1420.01 1483.03 Q1416.86 1486.25 1411.63 1486.25 Q1405.63 1486.25 1402.46 1481.67 Q1399.29 1477.06 1399.29 1468.33 Q1399.29 1460.14 1403.18 1455.28 Q1407.07 1450.39 1413.62 1450.39 Q1415.38 1450.39 1417.16 1450.74 Q1418.97 1451.09 1420.91 1451.78 Z" fill="#000000" fill-rule="evenodd" fill-opacity="1" /><path clip-path="url(#clip910)" d="M1620.61 1451.02 L1642.84 1451.02 L1642.84 1453.01 L1630.29 1485.58 L1625.4 1485.58 L1637.21 1454.96 L1620.61 1454.96 L1620.61 1451.02 Z" fill="#000000" fill-rule="evenodd" fill-opacity="1" /><path clip-path="url(#clip910)" d="M1852.22 1469.17 Q1848.89 1469.17 1846.97 1470.95 Q1845.07 1472.73 1845.07 1475.86 Q1845.07 1478.98 1846.97 1480.77 Q1848.89 1482.55 1852.22 1482.55 Q1855.56 1482.55 1857.48 1480.77 Q1859.4 1478.96 1859.4 1475.86 Q1859.4 1472.73 1857.48 1470.95 Q1855.58 1469.17 1852.22 1469.17 M1847.55 1467.18 Q1844.54 1466.44 1842.85 1464.38 Q1841.18 1462.32 1841.18 1459.35 Q1841.18 1455.21 1844.12 1452.8 Q1847.08 1450.39 1852.22 1450.39 Q1857.39 1450.39 1860.32 1452.8 Q1863.26 1455.21 1863.26 1459.35 Q1863.26 1462.32 1861.57 1464.38 Q1859.91 1466.44 1856.92 1467.18 Q1860.3 1467.96 1862.18 1470.26 Q1864.07 1472.55 1864.07 1475.86 Q1864.07 1480.88 1861 1483.57 Q1857.94 1486.25 1852.22 1486.25 Q1846.51 1486.25 1843.43 1483.57 Q1840.37 1480.88 1840.37 1475.86 Q1840.37 1472.55 1842.27 1470.26 Q1844.17 1467.96 1847.55 1467.18 M1845.83 1459.79 Q1845.83 1462.48 1847.5 1463.98 Q1849.19 1465.49 1852.22 1465.49 Q1855.23 1465.49 1856.92 1463.98 Q1858.64 1462.48 1858.64 1459.79 Q1858.64 1457.11 1856.92 1455.6 Q1855.23 1454.1 1852.22 1454.1 Q1849.19 1454.1 1847.5 1455.6 Q1845.83 1457.11 1845.83 1459.79 Z" fill="#000000" fill-rule="evenodd" fill-opacity="1" /><path clip-path="url(#clip910)" d="M2063.02 1484.86 L2063.02 1480.6 Q2064.78 1481.44 2066.59 1481.88 Q2068.39 1482.32 2070.13 1482.32 Q2074.76 1482.32 2077.19 1479.21 Q2079.64 1476.09 2079.99 1469.75 Q2078.65 1471.74 2076.59 1472.8 Q2074.53 1473.87 2072.03 1473.87 Q2066.84 1473.87 2063.81 1470.74 Q2060.8 1467.59 2060.8 1462.15 Q2060.8 1456.83 2063.95 1453.61 Q2067.1 1450.39 2072.33 1450.39 Q2078.32 1450.39 2081.47 1455 Q2084.64 1459.58 2084.64 1468.33 Q2084.64 1476.51 2080.75 1481.39 Q2076.89 1486.25 2070.34 1486.25 Q2068.58 1486.25 2066.77 1485.9 Q2064.97 1485.56 2063.02 1484.86 M2072.33 1470.21 Q2075.48 1470.21 2077.31 1468.06 Q2079.16 1465.9 2079.16 1462.15 Q2079.16 1458.43 2077.31 1456.27 Q2075.48 1454.1 2072.33 1454.1 Q2069.18 1454.1 2067.33 1456.27 Q2065.5 1458.43 2065.5 1462.15 Q2065.5 1465.9 2067.33 1468.06 Q2069.18 1470.21 2072.33 1470.21 Z" fill="#000000" fill-rule="evenodd" fill-opacity="1" /><path clip-path="url(#clip910)" d="M2267.91 1481.64 L2275.55 1481.64 L2275.55 1455.28 L2267.24 1456.95 L2267.24 1452.69 L2275.5 1451.02 L2280.18 1451.02 L2280.18 1481.64 L2287.82 1481.64 L2287.82 1485.58 L2267.91 1485.58 L2267.91 1481.64 Z" fill="#000000" fill-rule="evenodd" fill-opacity="1" /><path clip-path="url(#clip910)" d="M2307.26 1454.1 Q2303.65 1454.1 2301.82 1457.66 Q2300.02 1461.2 2300.02 1468.33 Q2300.02 1475.44 2301.82 1479.01 Q2303.65 1482.55 2307.26 1482.55 Q2310.89 1482.55 2312.7 1479.01 Q2314.53 1475.44 2314.53 1468.33 Q2314.53 1461.2 2312.7 1457.66 Q2310.89 1454.1 2307.26 1454.1 M2307.26 1450.39 Q2313.07 1450.39 2316.13 1455 Q2319.2 1459.58 2319.2 1468.33 Q2319.2 1477.06 2316.13 1481.67 Q2313.07 1486.25 2307.26 1486.25 Q2301.45 1486.25 2298.37 1481.67 Q2295.32 1477.06 2295.32 1468.33 Q2295.32 1459.58 2298.37 1455 Q2301.45 1450.39 2307.26 1450.39 Z" fill="#000000" fill-rule="evenodd" fill-opacity="1" /><path clip-path="url(#clip910)" d="M1024.64 1520.52 L1031.07 1520.52 L1031.07 1568.04 L1024.64 1568.04 L1024.64 1520.52 Z" fill="#000000" fill-rule="evenodd" fill-opacity="1" /><path clip-path="url(#clip910)" d="M1049.4 1522.27 L1049.4 1532.4 L1061.47 1532.4 L1061.47 1536.95 L1049.4 1536.95 L1049.4 1556.3 Q1049.4 1560.66 1050.58 1561.9 Q1051.79 1563.14 1055.45 1563.14 L1061.47 1563.14 L1061.47 1568.04 L1055.45 1568.04 Q1048.67 1568.04 1046.09 1565.53 Q1043.51 1562.98 1043.51 1556.3 L1043.51 1536.95 L1039.22 1536.95 L1039.22 1532.4 L1043.51 1532.4 L1043.51 1522.27 L1049.4 1522.27 Z" fill="#000000" fill-rule="evenodd" fill-opacity="1" /><path clip-path="url(#clip910)" d="M1099.66 1548.76 L1099.66 1551.62 L1072.73 1551.62 Q1073.11 1557.67 1076.36 1560.85 Q1079.64 1564 1085.46 1564 Q1088.84 1564 1091.99 1563.17 Q1095.17 1562.35 1098.29 1560.69 L1098.29 1566.23 Q1095.14 1567.57 1091.83 1568.27 Q1088.52 1568.97 1085.11 1568.97 Q1076.58 1568.97 1071.59 1564 Q1066.62 1559.04 1066.62 1550.57 Q1066.62 1541.82 1071.33 1536.69 Q1076.07 1531.54 1084.1 1531.54 Q1091.29 1531.54 1095.46 1536.18 Q1099.66 1540.8 1099.66 1548.76 M1093.8 1547.04 Q1093.74 1542.23 1091.1 1539.37 Q1088.49 1536.5 1084.16 1536.5 Q1079.26 1536.5 1076.3 1539.27 Q1073.37 1542.04 1072.92 1547.07 L1093.8 1547.04 Z" fill="#000000" fill-rule="evenodd" fill-opacity="1" /><path clip-path="url(#clip910)" d="M1129.93 1537.87 Q1128.94 1537.3 1127.76 1537.04 Q1126.62 1536.76 1125.22 1536.76 Q1120.25 1536.76 1117.58 1540 Q1114.94 1543.22 1114.94 1549.27 L1114.94 1568.04 L1109.05 1568.04 L1109.05 1532.4 L1114.94 1532.4 L1114.94 1537.93 Q1116.78 1534.69 1119.74 1533.13 Q1122.7 1531.54 1126.94 1531.54 Q1127.54 1531.54 1128.27 1531.63 Q1129.01 1531.7 1129.9 1531.85 L1129.93 1537.87 Z" fill="#000000" fill-rule="evenodd" fill-opacity="1" /><path clip-path="url(#clip910)" d="M1152.27 1550.12 Q1145.17 1550.12 1142.44 1551.75 Q1139.7 1553.37 1139.7 1557.29 Q1139.7 1560.4 1141.74 1562.25 Q1143.81 1564.07 1147.34 1564.07 Q1152.21 1564.07 1155.14 1560.63 Q1158.1 1557.16 1158.1 1551.43 L1158.1 1550.12 L1152.27 1550.12 M1163.95 1547.71 L1163.95 1568.04 L1158.1 1568.04 L1158.1 1562.63 Q1156.09 1565.88 1153.1 1567.44 Q1150.11 1568.97 1145.78 1568.97 Q1140.3 1568.97 1137.06 1565.91 Q1133.84 1562.82 1133.84 1557.67 Q1133.84 1551.65 1137.85 1548.6 Q1141.9 1545.54 1149.89 1545.54 L1158.1 1545.54 L1158.1 1544.97 Q1158.1 1540.93 1155.42 1538.73 Q1152.78 1536.5 1147.98 1536.5 Q1144.92 1536.5 1142.02 1537.23 Q1139.13 1537.97 1136.45 1539.43 L1136.45 1534.02 Q1139.67 1532.78 1142.69 1532.17 Q1145.72 1531.54 1148.58 1531.54 Q1156.31 1531.54 1160.13 1535.55 Q1163.95 1539.56 1163.95 1547.71 Z" fill="#000000" fill-rule="evenodd" fill-opacity="1" /><path clip-path="url(#clip910)" d="M1181.81 1522.27 L1181.81 1532.4 L1193.87 1532.4 L1193.87 1536.95 L1181.81 1536.95 L1181.81 1556.3 Q1181.81 1560.66 1182.99 1561.9 Q1184.2 1563.14 1187.86 1563.14 L1193.87 1563.14 L1193.87 1568.04 L1187.86 1568.04 Q1181.08 1568.04 1178.5 1565.53 Q1175.92 1562.98 1175.92 1556.3 L1175.92 1536.95 L1171.62 1536.95 L1171.62 1532.4 L1175.92 1532.4 L1175.92 1522.27 L1181.81 1522.27 Z" fill="#000000" fill-rule="evenodd" fill-opacity="1" /><path clip-path="url(#clip910)" d="M1201.57 1532.4 L1207.43 1532.4 L1207.43 1568.04 L1201.57 1568.04 L1201.57 1532.4 M1201.57 1518.52 L1207.43 1518.52 L1207.43 1525.93 L1201.57 1525.93 L1201.57 1518.52 Z" fill="#000000" fill-rule="evenodd" fill-opacity="1" /><path clip-path="url(#clip910)" d="M1233.5 1536.5 Q1228.79 1536.5 1226.05 1540.19 Q1223.31 1543.85 1223.31 1550.25 Q1223.31 1556.65 1226.02 1560.34 Q1228.76 1564 1233.5 1564 Q1238.18 1564 1240.91 1560.31 Q1243.65 1556.62 1243.65 1550.25 Q1243.65 1543.92 1240.91 1540.23 Q1238.18 1536.5 1233.5 1536.5 M1233.5 1531.54 Q1241.14 1531.54 1245.5 1536.5 Q1249.86 1541.47 1249.86 1550.25 Q1249.86 1559 1245.5 1564 Q1241.14 1568.97 1233.5 1568.97 Q1225.83 1568.97 1221.47 1564 Q1217.14 1559 1217.14 1550.25 Q1217.14 1541.47 1221.47 1536.5 Q1225.83 1531.54 1233.5 1531.54 Z" fill="#000000" fill-rule="evenodd" fill-opacity="1" /><path clip-path="url(#clip910)" d="M1289.2 1546.53 L1289.2 1568.04 L1283.34 1568.04 L1283.34 1546.72 Q1283.34 1541.66 1281.37 1539.14 Q1279.4 1536.63 1275.45 1536.63 Q1270.71 1536.63 1267.97 1539.65 Q1265.23 1542.68 1265.23 1547.9 L1265.23 1568.04 L1259.34 1568.04 L1259.34 1532.4 L1265.23 1532.4 L1265.23 1537.93 Q1267.33 1534.72 1270.17 1533.13 Q1273.03 1531.54 1276.75 1531.54 Q1282.9 1531.54 1286.05 1535.36 Q1289.2 1539.14 1289.2 1546.53 Z" fill="#000000" fill-rule="evenodd" fill-opacity="1" /><path clip-path="url(#clip910)" d="M1321.85 1520.52 L1330.51 1520.52 L1351.58 1560.28 L1351.58 1520.52 L1357.82 1520.52 L1357.82 1568.04 L1349.16 1568.04 L1328.09 1528.29 L1328.09 1568.04 L1321.85 1568.04 L1321.85 1520.52 Z" fill="#000000" fill-rule="evenodd" fill-opacity="1" /><path clip-path="url(#clip910)" d="M1369.76 1553.98 L1369.76 1532.4 L1375.61 1532.4 L1375.61 1553.75 Q1375.61 1558.81 1377.59 1561.36 Q1379.56 1563.87 1383.51 1563.87 Q1388.25 1563.87 1390.99 1560.85 Q1393.76 1557.83 1393.76 1552.61 L1393.76 1532.4 L1399.61 1532.4 L1399.61 1568.04 L1393.76 1568.04 L1393.76 1562.57 Q1391.62 1565.82 1388.79 1567.41 Q1385.99 1568.97 1382.27 1568.97 Q1376.12 1568.97 1372.94 1565.15 Q1369.76 1561.33 1369.76 1553.98 M1384.49 1531.54 L1384.49 1531.54 Z" fill="#000000" fill-rule="evenodd" fill-opacity="1" /><path clip-path="url(#clip910)" d="M1439.43 1539.24 Q1441.63 1535.29 1444.68 1533.41 Q1447.74 1531.54 1451.87 1531.54 Q1457.44 1531.54 1460.47 1535.45 Q1463.49 1539.33 1463.49 1546.53 L1463.49 1568.04 L1457.6 1568.04 L1457.6 1546.72 Q1457.6 1541.59 1455.79 1539.11 Q1453.98 1536.63 1450.25 1536.63 Q1445.7 1536.63 1443.06 1539.65 Q1440.42 1542.68 1440.42 1547.9 L1440.42 1568.04 L1434.53 1568.04 L1434.53 1546.72 Q1434.53 1541.56 1432.71 1539.11 Q1430.9 1536.63 1427.11 1536.63 Q1422.62 1536.63 1419.98 1539.68 Q1417.34 1542.71 1417.34 1547.9 L1417.34 1568.04 L1411.45 1568.04 L1411.45 1532.4 L1417.34 1532.4 L1417.34 1537.93 Q1419.35 1534.66 1422.15 1533.1 Q1424.95 1531.54 1428.8 1531.54 Q1432.68 1531.54 1435.39 1533.51 Q1438.12 1535.48 1439.43 1539.24 Z" fill="#000000" fill-rule="evenodd" fill-opacity="1" /><path clip-path="url(#clip910)" d="M1500.76 1550.25 Q1500.76 1543.79 1498.09 1540.13 Q1495.45 1536.44 1490.8 1536.44 Q1486.15 1536.44 1483.48 1540.13 Q1480.84 1543.79 1480.84 1550.25 Q1480.84 1556.71 1483.48 1560.4 Q1486.15 1564.07 1490.8 1564.07 Q1495.45 1564.07 1498.09 1560.4 Q1500.76 1556.71 1500.76 1550.25 M1480.84 1537.81 Q1482.68 1534.62 1485.49 1533.1 Q1488.32 1531.54 1492.23 1531.54 Q1498.73 1531.54 1502.77 1536.69 Q1506.84 1541.85 1506.84 1550.25 Q1506.84 1558.65 1502.77 1563.81 Q1498.73 1568.97 1492.23 1568.97 Q1488.32 1568.97 1485.49 1567.44 Q1482.68 1565.88 1480.84 1562.7 L1480.84 1568.04 L1474.95 1568.04 L1474.95 1518.52 L1480.84 1518.52 L1480.84 1537.81 Z" fill="#000000" fill-rule="evenodd" fill-opacity="1" /><path clip-path="url(#clip910)" d="M1547.04 1548.76 L1547.04 1551.62 L1520.11 1551.62 Q1520.5 1557.67 1523.74 1560.85 Q1527.02 1564 1532.85 1564 Q1536.22 1564 1539.37 1563.17 Q1542.55 1562.35 1545.67 1560.69 L1545.67 1566.23 Q1542.52 1567.57 1539.21 1568.27 Q1535.9 1568.97 1532.5 1568.97 Q1523.97 1568.97 1518.97 1564 Q1514 1559.04 1514 1550.57 Q1514 1541.82 1518.71 1536.69 Q1523.46 1531.54 1531.48 1531.54 Q1538.67 1531.54 1542.84 1536.18 Q1547.04 1540.8 1547.04 1548.76 M1541.19 1547.04 Q1541.12 1542.23 1538.48 1539.37 Q1535.87 1536.5 1531.54 1536.5 Q1526.64 1536.5 1523.68 1539.27 Q1520.75 1542.04 1520.31 1547.07 L1541.19 1547.04 Z" fill="#000000" fill-rule="evenodd" fill-opacity="1" /><path clip-path="url(#clip910)" d="M1577.31 1537.87 Q1576.32 1537.3 1575.15 1537.04 Q1574 1536.76 1572.6 1536.76 Q1567.63 1536.76 1564.96 1540 Q1562.32 1543.22 1562.32 1549.27 L1562.32 1568.04 L1556.43 1568.04 L1556.43 1532.4 L1562.32 1532.4 L1562.32 1537.93 Q1564.17 1534.69 1567.13 1533.13 Q1570.09 1531.54 1574.32 1531.54 Q1574.92 1531.54 1575.66 1531.63 Q1576.39 1531.7 1577.28 1531.85 L1577.31 1537.87 Z" fill="#000000" fill-rule="evenodd" fill-opacity="1" /><polyline clip-path="url(#clip912)" style="stroke:#000000; stroke-linecap:butt; stroke-linejoin:round; stroke-width:2; stroke-opacity:0.1; fill:none" points="
  249.195,1296.57 2352.76,1296.57 
  "/>
<polyline clip-path="url(#clip912)" style="stroke:#000000; stroke-linecap:butt; stroke-linejoin:round; stroke-width:2; stroke-opacity:0.1; fill:none" points="
  249.195,1077.39 2352.76,1077.39 
  "/>
<polyline clip-path="url(#clip912)" style="stroke:#000000; stroke-linecap:butt; stroke-linejoin:round; stroke-width:2; stroke-opacity:0.1; fill:none" points="
  249.195,858.218 2352.76,858.218 
  "/>
<polyline clip-path="url(#clip912)" style="stroke:#000000; stroke-linecap:butt; stroke-linejoin:round; stroke-width:2; stroke-opacity:0.1; fill:none" points="
  249.195,639.043 2352.76,639.043 
  "/>
<polyline clip-path="url(#clip912)" style="stroke:#000000; stroke-linecap:butt; stroke-linejoin:round; stroke-width:2; stroke-opacity:0.1; fill:none" points="
  249.195,419.868 2352.76,419.868 
  "/>
<polyline clip-path="url(#clip912)" style="stroke:#000000; stroke-linecap:butt; stroke-linejoin:round; stroke-width:2; stroke-opacity:0.1; fill:none" points="
  249.195,200.693 2352.76,200.693 
  "/>
<polyline clip-path="url(#clip910)" style="stroke:#000000; stroke-linecap:butt; stroke-linejoin:round; stroke-width:4; stroke-opacity:1; fill:none" points="
  249.195,1423.18 249.195,47.2441 
  "/>
<polyline clip-path="url(#clip910)" style="stroke:#000000; stroke-linecap:butt; stroke-linejoin:round; stroke-width:4; stroke-opacity:1; fill:none" points="
  249.195,1296.57 268.092,1296.57 
  "/>
<polyline clip-path="url(#clip910)" style="stroke:#000000; stroke-linecap:butt; stroke-linejoin:round; stroke-width:4; stroke-opacity:1; fill:none" points="
  249.195,1077.39 268.092,1077.39 
  "/>
<polyline clip-path="url(#clip910)" style="stroke:#000000; stroke-linecap:butt; stroke-linejoin:round; stroke-width:4; stroke-opacity:1; fill:none" points="
  249.195,858.218 268.092,858.218 
  "/>
<polyline clip-path="url(#clip910)" style="stroke:#000000; stroke-linecap:butt; stroke-linejoin:round; stroke-width:4; stroke-opacity:1; fill:none" points="
  249.195,639.043 268.092,639.043 
  "/>
<polyline clip-path="url(#clip910)" style="stroke:#000000; stroke-linecap:butt; stroke-linejoin:round; stroke-width:4; stroke-opacity:1; fill:none" points="
  249.195,419.868 268.092,419.868 
  "/>
<polyline clip-path="url(#clip910)" style="stroke:#000000; stroke-linecap:butt; stroke-linejoin:round; stroke-width:4; stroke-opacity:1; fill:none" points="
  249.195,200.693 268.092,200.693 
  "/>
<path clip-path="url(#clip910)" d="M116.668 1309.91 L124.306 1309.91 L124.306 1283.55 L115.996 1285.21 L115.996 1280.95 L124.26 1279.29 L128.936 1279.29 L128.936 1309.91 L136.575 1309.91 L136.575 1313.85 L116.668 1313.85 L116.668 1309.91 Z" fill="#000000" fill-rule="evenodd" fill-opacity="1" /><path clip-path="url(#clip910)" d="M146.019 1307.97 L150.903 1307.97 L150.903 1313.85 L146.019 1313.85 L146.019 1307.97 Z" fill="#000000" fill-rule="evenodd" fill-opacity="1" /><path clip-path="url(#clip910)" d="M171.089 1282.37 Q167.477 1282.37 165.649 1285.93 Q163.843 1289.47 163.843 1296.6 Q163.843 1303.71 165.649 1307.27 Q167.477 1310.82 171.089 1310.82 Q174.723 1310.82 176.528 1307.27 Q178.357 1303.71 178.357 1296.6 Q178.357 1289.47 176.528 1285.93 Q174.723 1282.37 171.089 1282.37 M171.089 1278.66 Q176.899 1278.66 179.954 1283.27 Q183.033 1287.85 183.033 1296.6 Q183.033 1305.33 179.954 1309.94 Q176.899 1314.52 171.089 1314.52 Q165.278 1314.52 162.2 1309.94 Q159.144 1305.33 159.144 1296.6 Q159.144 1287.85 162.2 1283.27 Q165.278 1278.66 171.089 1278.66 Z" fill="#000000" fill-rule="evenodd" fill-opacity="1" /><path clip-path="url(#clip910)" d="M201.25 1282.37 Q197.639 1282.37 195.811 1285.93 Q194.005 1289.47 194.005 1296.6 Q194.005 1303.71 195.811 1307.27 Q197.639 1310.82 201.25 1310.82 Q204.885 1310.82 206.69 1307.27 Q208.519 1303.71 208.519 1296.6 Q208.519 1289.47 206.69 1285.93 Q204.885 1282.37 201.25 1282.37 M201.25 1278.66 Q207.061 1278.66 210.116 1283.27 Q213.195 1287.85 213.195 1296.6 Q213.195 1305.33 210.116 1309.94 Q207.061 1314.52 201.25 1314.52 Q195.44 1314.52 192.362 1309.94 Q189.306 1305.33 189.306 1296.6 Q189.306 1287.85 192.362 1283.27 Q195.44 1278.66 201.25 1278.66 Z" fill="#000000" fill-rule="evenodd" fill-opacity="1" /><path clip-path="url(#clip910)" d="M117.663 1090.74 L125.302 1090.74 L125.302 1064.37 L116.992 1066.04 L116.992 1061.78 L125.255 1060.11 L129.931 1060.11 L129.931 1090.74 L137.57 1090.74 L137.57 1094.67 L117.663 1094.67 L117.663 1090.74 Z" fill="#000000" fill-rule="evenodd" fill-opacity="1" /><path clip-path="url(#clip910)" d="M147.015 1088.79 L151.899 1088.79 L151.899 1094.67 L147.015 1094.67 L147.015 1088.79 Z" fill="#000000" fill-rule="evenodd" fill-opacity="1" /><path clip-path="url(#clip910)" d="M166.112 1090.74 L182.431 1090.74 L182.431 1094.67 L160.487 1094.67 L160.487 1090.74 Q163.149 1087.98 167.732 1083.35 Q172.339 1078.7 173.519 1077.36 Q175.764 1074.84 176.644 1073.1 Q177.547 1071.34 177.547 1069.65 Q177.547 1066.9 175.602 1065.16 Q173.681 1063.42 170.579 1063.42 Q168.38 1063.42 165.927 1064.19 Q163.496 1064.95 160.718 1066.5 L160.718 1061.78 Q163.542 1060.65 165.996 1060.07 Q168.45 1059.49 170.487 1059.49 Q175.857 1059.49 179.051 1062.17 Q182.246 1064.86 182.246 1069.35 Q182.246 1071.48 181.436 1073.4 Q180.649 1075.3 178.542 1077.89 Q177.964 1078.56 174.862 1081.78 Q171.76 1084.97 166.112 1090.74 Z" fill="#000000" fill-rule="evenodd" fill-opacity="1" /><path clip-path="url(#clip910)" d="M192.292 1060.11 L210.649 1060.11 L210.649 1064.05 L196.575 1064.05 L196.575 1072.52 Q197.593 1072.17 198.612 1072.01 Q199.63 1071.83 200.649 1071.83 Q206.436 1071.83 209.815 1075 Q213.195 1078.17 213.195 1083.59 Q213.195 1089.16 209.723 1092.27 Q206.25 1095.34 199.931 1095.34 Q197.755 1095.34 195.487 1094.97 Q193.241 1094.6 190.834 1093.86 L190.834 1089.16 Q192.917 1090.3 195.139 1090.85 Q197.362 1091.41 199.838 1091.41 Q203.843 1091.41 206.181 1089.3 Q208.519 1087.2 208.519 1083.59 Q208.519 1079.97 206.181 1077.87 Q203.843 1075.76 199.838 1075.76 Q197.963 1075.76 196.088 1076.18 Q194.237 1076.59 192.292 1077.47 L192.292 1060.11 Z" fill="#000000" fill-rule="evenodd" fill-opacity="1" /><path clip-path="url(#clip910)" d="M116.668 871.563 L124.306 871.563 L124.306 845.197 L115.996 846.864 L115.996 842.605 L124.26 840.938 L128.936 840.938 L128.936 871.563 L136.575 871.563 L136.575 875.498 L116.668 875.498 L116.668 871.563 Z" fill="#000000" fill-rule="evenodd" fill-opacity="1" /><path clip-path="url(#clip910)" d="M146.019 869.619 L150.903 869.619 L150.903 875.498 L146.019 875.498 L146.019 869.619 Z" fill="#000000" fill-rule="evenodd" fill-opacity="1" /><path clip-path="url(#clip910)" d="M161.135 840.938 L179.491 840.938 L179.491 844.873 L165.417 844.873 L165.417 853.346 Q166.436 852.998 167.454 852.836 Q168.473 852.651 169.491 852.651 Q175.278 852.651 178.658 855.822 Q182.038 858.994 182.038 864.41 Q182.038 869.989 178.565 873.091 Q175.093 876.169 168.774 876.169 Q166.598 876.169 164.329 875.799 Q162.084 875.429 159.677 874.688 L159.677 869.989 Q161.76 871.123 163.982 871.679 Q166.204 872.234 168.681 872.234 Q172.686 872.234 175.024 870.128 Q177.362 868.021 177.362 864.41 Q177.362 860.799 175.024 858.693 Q172.686 856.586 168.681 856.586 Q166.806 856.586 164.931 857.003 Q163.079 857.42 161.135 858.299 L161.135 840.938 Z" fill="#000000" fill-rule="evenodd" fill-opacity="1" /><path clip-path="url(#clip910)" d="M201.25 844.017 Q197.639 844.017 195.811 847.582 Q194.005 851.123 194.005 858.253 Q194.005 865.359 195.811 868.924 Q197.639 872.466 201.25 872.466 Q204.885 872.466 206.69 868.924 Q208.519 865.359 208.519 858.253 Q208.519 851.123 206.69 847.582 Q204.885 844.017 201.25 844.017 M201.25 840.313 Q207.061 840.313 210.116 844.92 Q213.195 849.503 213.195 858.253 Q213.195 866.98 210.116 871.586 Q207.061 876.169 201.25 876.169 Q195.44 876.169 192.362 871.586 Q189.306 866.98 189.306 858.253 Q189.306 849.503 192.362 844.92 Q195.44 840.313 201.25 840.313 Z" fill="#000000" fill-rule="evenodd" fill-opacity="1" /><path clip-path="url(#clip910)" d="M117.663 652.388 L125.302 652.388 L125.302 626.022 L116.992 627.689 L116.992 623.43 L125.255 621.763 L129.931 621.763 L129.931 652.388 L137.57 652.388 L137.57 656.323 L117.663 656.323 L117.663 652.388 Z" fill="#000000" fill-rule="evenodd" fill-opacity="1" /><path clip-path="url(#clip910)" d="M147.015 650.444 L151.899 650.444 L151.899 656.323 L147.015 656.323 L147.015 650.444 Z" fill="#000000" fill-rule="evenodd" fill-opacity="1" /><path clip-path="url(#clip910)" d="M160.903 621.763 L183.126 621.763 L183.126 623.754 L170.579 656.323 L165.695 656.323 L177.501 625.698 L160.903 625.698 L160.903 621.763 Z" fill="#000000" fill-rule="evenodd" fill-opacity="1" /><path clip-path="url(#clip910)" d="M192.292 621.763 L210.649 621.763 L210.649 625.698 L196.575 625.698 L196.575 634.171 Q197.593 633.823 198.612 633.661 Q199.63 633.476 200.649 633.476 Q206.436 633.476 209.815 636.647 Q213.195 639.819 213.195 645.235 Q213.195 650.814 209.723 653.916 Q206.25 656.994 199.931 656.994 Q197.755 656.994 195.487 656.624 Q193.241 656.254 190.834 655.513 L190.834 650.814 Q192.917 651.948 195.139 652.504 Q197.362 653.059 199.838 653.059 Q203.843 653.059 206.181 650.953 Q208.519 648.846 208.519 645.235 Q208.519 641.624 206.181 639.518 Q203.843 637.411 199.838 637.411 Q197.963 637.411 196.088 637.828 Q194.237 638.245 192.292 639.124 L192.292 621.763 Z" fill="#000000" fill-rule="evenodd" fill-opacity="1" /><path clip-path="url(#clip910)" d="M119.885 433.213 L136.204 433.213 L136.204 437.148 L114.26 437.148 L114.26 433.213 Q116.922 430.458 121.505 425.829 Q126.112 421.176 127.292 419.833 Q129.538 417.31 130.417 415.574 Q131.32 413.815 131.32 412.125 Q131.32 409.371 129.376 407.634 Q127.455 405.898 124.353 405.898 Q122.154 405.898 119.7 406.662 Q117.269 407.426 114.492 408.977 L114.492 404.255 Q117.316 403.121 119.769 402.542 Q122.223 401.963 124.26 401.963 Q129.63 401.963 132.825 404.648 Q136.019 407.333 136.019 411.824 Q136.019 413.954 135.209 415.875 Q134.422 417.773 132.316 420.366 Q131.737 421.037 128.635 424.255 Q125.533 427.449 119.885 433.213 Z" fill="#000000" fill-rule="evenodd" fill-opacity="1" /><path clip-path="url(#clip910)" d="M146.019 431.269 L150.903 431.269 L150.903 437.148 L146.019 437.148 L146.019 431.269 Z" fill="#000000" fill-rule="evenodd" fill-opacity="1" /><path clip-path="url(#clip910)" d="M171.089 405.667 Q167.477 405.667 165.649 409.232 Q163.843 412.773 163.843 419.903 Q163.843 427.009 165.649 430.574 Q167.477 434.116 171.089 434.116 Q174.723 434.116 176.528 430.574 Q178.357 427.009 178.357 419.903 Q178.357 412.773 176.528 409.232 Q174.723 405.667 171.089 405.667 M171.089 401.963 Q176.899 401.963 179.954 406.57 Q183.033 411.153 183.033 419.903 Q183.033 428.63 179.954 433.236 Q176.899 437.819 171.089 437.819 Q165.278 437.819 162.2 433.236 Q159.144 428.63 159.144 419.903 Q159.144 411.153 162.2 406.57 Q165.278 401.963 171.089 401.963 Z" fill="#000000" fill-rule="evenodd" fill-opacity="1" /><path clip-path="url(#clip910)" d="M201.25 405.667 Q197.639 405.667 195.811 409.232 Q194.005 412.773 194.005 419.903 Q194.005 427.009 195.811 430.574 Q197.639 434.116 201.25 434.116 Q204.885 434.116 206.69 430.574 Q208.519 427.009 208.519 419.903 Q208.519 412.773 206.69 409.232 Q204.885 405.667 201.25 405.667 M201.25 401.963 Q207.061 401.963 210.116 406.57 Q213.195 411.153 213.195 419.903 Q213.195 428.63 210.116 433.236 Q207.061 437.819 201.25 437.819 Q195.44 437.819 192.362 433.236 Q189.306 428.63 189.306 419.903 Q189.306 411.153 192.362 406.57 Q195.44 401.963 201.25 401.963 Z" fill="#000000" fill-rule="evenodd" fill-opacity="1" /><path clip-path="url(#clip910)" d="M120.88 214.038 L137.2 214.038 L137.2 217.973 L115.256 217.973 L115.256 214.038 Q117.918 211.283 122.501 206.654 Q127.107 202.001 128.288 200.658 Q130.533 198.135 131.413 196.399 Q132.316 194.64 132.316 192.95 Q132.316 190.195 130.371 188.459 Q128.45 186.723 125.348 186.723 Q123.149 186.723 120.695 187.487 Q118.265 188.251 115.487 189.802 L115.487 185.08 Q118.311 183.946 120.765 183.367 Q123.218 182.788 125.255 182.788 Q130.626 182.788 133.82 185.473 Q137.015 188.158 137.015 192.649 Q137.015 194.779 136.204 196.7 Q135.417 198.598 133.311 201.191 Q132.732 201.862 129.63 205.08 Q126.529 208.274 120.88 214.038 Z" fill="#000000" fill-rule="evenodd" fill-opacity="1" /><path clip-path="url(#clip910)" d="M147.015 212.094 L151.899 212.094 L151.899 217.973 L147.015 217.973 L147.015 212.094 Z" fill="#000000" fill-rule="evenodd" fill-opacity="1" /><path clip-path="url(#clip910)" d="M166.112 214.038 L182.431 214.038 L182.431 217.973 L160.487 217.973 L160.487 214.038 Q163.149 211.283 167.732 206.654 Q172.339 202.001 173.519 200.658 Q175.764 198.135 176.644 196.399 Q177.547 194.64 177.547 192.95 Q177.547 190.195 175.602 188.459 Q173.681 186.723 170.579 186.723 Q168.38 186.723 165.927 187.487 Q163.496 188.251 160.718 189.802 L160.718 185.08 Q163.542 183.946 165.996 183.367 Q168.45 182.788 170.487 182.788 Q175.857 182.788 179.051 185.473 Q182.246 188.158 182.246 192.649 Q182.246 194.779 181.436 196.7 Q180.649 198.598 178.542 201.191 Q177.964 201.862 174.862 205.08 Q171.76 208.274 166.112 214.038 Z" fill="#000000" fill-rule="evenodd" fill-opacity="1" /><path clip-path="url(#clip910)" d="M192.292 183.413 L210.649 183.413 L210.649 187.348 L196.575 187.348 L196.575 195.82 Q197.593 195.473 198.612 195.311 Q199.63 195.126 200.649 195.126 Q206.436 195.126 209.815 198.297 Q213.195 201.469 213.195 206.885 Q213.195 212.464 209.723 215.566 Q206.25 218.644 199.931 218.644 Q197.755 218.644 195.487 218.274 Q193.241 217.904 190.834 217.163 L190.834 212.464 Q192.917 213.598 195.139 214.154 Q197.362 214.709 199.838 214.709 Q203.843 214.709 206.181 212.603 Q208.519 210.496 208.519 206.885 Q208.519 203.274 206.181 201.168 Q203.843 199.061 199.838 199.061 Q197.963 199.061 196.088 199.478 Q194.237 199.895 192.292 200.774 L192.292 183.413 Z" fill="#000000" fill-rule="evenodd" fill-opacity="1" /><path clip-path="url(#clip910)" d="M20.8447 1070.92 Q20.8447 1077.93 26.0645 1082.06 Q31.2844 1086.17 40.2919 1086.17 Q49.2675 1086.17 54.4874 1082.06 Q59.7073 1077.93 59.7073 1070.92 Q59.7073 1063.92 54.4874 1059.85 Q49.2675 1055.74 40.2919 1055.74 Q31.2844 1055.74 26.0645 1059.85 Q20.8447 1063.92 20.8447 1070.92 M15.6248 1070.92 Q15.6248 1060.93 22.3406 1054.95 Q29.0246 1048.96 40.2919 1048.96 Q51.5274 1048.96 58.2432 1054.95 Q64.9272 1060.93 64.9272 1070.92 Q64.9272 1080.95 58.2432 1086.97 Q51.5592 1092.95 40.2919 1092.95 Q29.0246 1092.95 22.3406 1086.97 Q15.6248 1080.95 15.6248 1070.92 Z" fill="#000000" fill-rule="evenodd" fill-opacity="1" /><path clip-path="url(#clip910)" d="M29.4065 1016.43 L34.9447 1016.43 Q33.6716 1018.92 33.035 1021.59 Q32.3984 1024.26 32.3984 1027.13 Q32.3984 1031.49 33.7352 1033.68 Q35.072 1035.85 37.7456 1035.85 Q39.7826 1035.85 40.9603 1034.29 Q42.1061 1032.73 43.1565 1028.02 L43.6021 1026.01 Q44.9389 1019.77 47.3897 1017.17 Q49.8086 1014.52 54.1691 1014.52 Q59.1344 1014.52 62.0308 1018.47 Q64.9272 1022.38 64.9272 1029.26 Q64.9272 1032.12 64.3543 1035.24 Q63.8132 1038.33 62.6992 1041.77 L56.6518 1041.77 Q58.3387 1038.52 59.198 1035.37 Q60.0256 1032.22 60.0256 1029.13 Q60.0256 1024.99 58.6251 1022.77 Q57.1929 1020.54 54.6147 1020.54 Q52.2276 1020.54 50.9545 1022.16 Q49.6813 1023.75 48.5037 1029.2 L48.0262 1031.23 Q46.8804 1036.68 44.5251 1039.09 Q42.138 1041.51 38.0002 1041.51 Q32.9713 1041.51 30.2341 1037.95 Q27.4968 1034.38 27.4968 1027.83 Q27.4968 1024.58 27.9743 1021.72 Q28.4517 1018.85 29.4065 1016.43 Z" fill="#000000" fill-rule="evenodd" fill-opacity="1" /><path clip-path="url(#clip910)" d="M35.1993 977.443 Q31.2526 975.247 29.3747 972.191 Q27.4968 969.136 27.4968 964.998 Q27.4968 959.428 31.4117 956.404 Q35.2948 953.381 42.4881 953.381 L64.0042 953.381 L64.0042 959.269 L42.679 959.269 Q37.5546 959.269 35.072 961.083 Q32.5894 962.897 32.5894 966.621 Q32.5894 971.173 35.6131 973.815 Q38.6368 976.456 43.8567 976.456 L64.0042 976.456 L64.0042 982.345 L42.679 982.345 Q37.5228 982.345 35.072 984.159 Q32.5894 985.973 32.5894 989.761 Q32.5894 994.248 35.6449 996.89 Q38.6686 999.532 43.8567 999.532 L64.0042 999.532 L64.0042 1005.42 L28.3562 1005.42 L28.3562 999.532 L33.8944 999.532 Q30.616 997.527 29.0564 994.726 Q27.4968 991.925 27.4968 988.074 Q27.4968 984.191 29.4702 981.485 Q31.4436 978.748 35.1993 977.443 Z" fill="#000000" fill-rule="evenodd" fill-opacity="1" /><path clip-path="url(#clip910)" d="M32.4621 927.886 Q32.4621 932.597 36.1542 935.334 Q39.8145 938.071 46.212 938.071 Q52.6095 938.071 56.3017 935.366 Q59.9619 932.628 59.9619 927.886 Q59.9619 923.207 56.2698 920.47 Q52.5777 917.733 46.212 917.733 Q39.8781 917.733 36.186 920.47 Q32.4621 923.207 32.4621 927.886 M27.4968 927.886 Q27.4968 920.247 32.4621 915.887 Q37.4273 911.526 46.212 911.526 Q54.9649 911.526 59.9619 915.887 Q64.9272 920.247 64.9272 927.886 Q64.9272 935.557 59.9619 939.917 Q54.9649 944.246 46.212 944.246 Q37.4273 944.246 32.4621 939.917 Q27.4968 935.557 27.4968 927.886 Z" fill="#000000" fill-rule="evenodd" fill-opacity="1" /><path clip-path="url(#clip910)" d="M18.2347 896.026 L28.3562 896.026 L28.3562 883.963 L32.9077 883.963 L32.9077 896.026 L52.2594 896.026 Q56.6199 896.026 57.8613 894.848 Q59.1026 893.638 59.1026 889.978 L59.1026 883.963 L64.0042 883.963 L64.0042 889.978 Q64.0042 896.758 61.4897 899.336 Q58.9434 901.914 52.2594 901.914 L32.9077 901.914 L32.9077 906.211 L28.3562 906.211 L28.3562 901.914 L18.2347 901.914 L18.2347 896.026 Z" fill="#000000" fill-rule="evenodd" fill-opacity="1" /><path clip-path="url(#clip910)" d="M28.3562 876.26 L28.3562 870.404 L64.0042 870.404 L64.0042 876.26 L28.3562 876.26 M14.479 876.26 L14.479 870.404 L21.895 870.404 L21.895 876.26 L14.479 876.26 Z" fill="#000000" fill-rule="evenodd" fill-opacity="1" /><path clip-path="url(#clip910)" d="M29.7248 832.496 L35.1993 832.496 Q33.8307 834.979 33.1623 837.493 Q32.4621 839.976 32.4621 842.522 Q32.4621 848.219 36.0905 851.37 Q39.6872 854.521 46.212 854.521 Q52.7369 854.521 56.3653 851.37 Q59.9619 848.219 59.9619 842.522 Q59.9619 839.976 59.2935 837.493 Q58.5933 834.979 57.2247 832.496 L62.6355 832.496 Q63.7814 834.947 64.3543 837.588 Q64.9272 840.198 64.9272 843.158 Q64.9272 851.211 59.8664 855.954 Q54.8057 860.696 46.212 860.696 Q37.491 860.696 32.4939 855.922 Q27.4968 851.116 27.4968 842.776 Q27.4968 840.071 28.0697 837.493 Q28.6108 834.915 29.7248 832.496 Z" fill="#000000" fill-rule="evenodd" fill-opacity="1" /><path clip-path="url(#clip910)" d="M29.7248 775.937 L35.1993 775.937 Q33.8307 778.419 33.1623 780.934 Q32.4621 783.416 32.4621 785.963 Q32.4621 791.66 36.0905 794.811 Q39.6872 797.962 46.212 797.962 Q52.7369 797.962 56.3653 794.811 Q59.9619 791.66 59.9619 785.963 Q59.9619 783.416 59.2935 780.934 Q58.5933 778.419 57.2247 775.937 L62.6355 775.937 Q63.7814 778.387 64.3543 781.029 Q64.9272 783.639 64.9272 786.599 Q64.9272 794.652 59.8664 799.394 Q54.8057 804.137 46.212 804.137 Q37.491 804.137 32.4939 799.362 Q27.4968 794.556 27.4968 786.217 Q27.4968 783.512 28.0697 780.934 Q28.6108 778.356 29.7248 775.937 Z" fill="#000000" fill-rule="evenodd" fill-opacity="1" /><path clip-path="url(#clip910)" d="M32.4621 751.938 Q32.4621 756.648 36.1542 759.386 Q39.8145 762.123 46.212 762.123 Q52.6095 762.123 56.3017 759.418 Q59.9619 756.68 59.9619 751.938 Q59.9619 747.259 56.2698 744.522 Q52.5777 741.785 46.212 741.785 Q39.8781 741.785 36.186 744.522 Q32.4621 747.259 32.4621 751.938 M27.4968 751.938 Q27.4968 744.299 32.4621 739.939 Q37.4273 735.578 46.212 735.578 Q54.9649 735.578 59.9619 739.939 Q64.9272 744.299 64.9272 751.938 Q64.9272 759.609 59.9619 763.969 Q54.9649 768.298 46.212 768.298 Q37.4273 768.298 32.4621 763.969 Q27.4968 759.609 27.4968 751.938 Z" fill="#000000" fill-rule="evenodd" fill-opacity="1" /><path clip-path="url(#clip910)" d="M44.7161 695.379 L47.5806 695.379 L47.5806 722.305 Q53.6281 721.924 56.8109 718.677 Q59.9619 715.399 59.9619 709.574 Q59.9619 706.2 59.1344 703.049 Q58.3069 699.866 56.6518 696.747 L62.1899 696.747 Q63.5267 699.898 64.227 703.208 Q64.9272 706.519 64.9272 709.924 Q64.9272 718.454 59.9619 723.451 Q54.9967 728.417 46.5303 728.417 Q37.7774 728.417 32.6531 723.706 Q27.4968 718.964 27.4968 710.943 Q27.4968 703.749 32.1438 699.58 Q36.7589 695.379 44.7161 695.379 M42.9973 701.235 Q38.1912 701.299 35.3266 703.94 Q32.4621 706.55 32.4621 710.879 Q32.4621 715.781 35.2312 718.741 Q38.0002 721.669 43.0292 722.115 L42.9973 701.235 Z" fill="#000000" fill-rule="evenodd" fill-opacity="1" /><path clip-path="url(#clip910)" d="M14.479 667.72 L19.3487 667.72 L19.3487 673.321 Q19.3487 676.472 20.6219 677.714 Q21.895 678.923 25.2052 678.923 L28.3562 678.923 L28.3562 669.279 L32.9077 669.279 L32.9077 678.923 L64.0042 678.923 L64.0042 684.811 L32.9077 684.811 L32.9077 690.413 L28.3562 690.413 L28.3562 684.811 L25.8736 684.811 Q19.9216 684.811 17.2162 682.042 Q14.479 679.273 14.479 673.258 L14.479 667.72 Z" fill="#000000" fill-rule="evenodd" fill-opacity="1" /><path clip-path="url(#clip910)" d="M14.479 644.771 L19.3487 644.771 L19.3487 650.373 Q19.3487 653.524 20.6219 654.765 Q21.895 655.975 25.2052 655.975 L28.3562 655.975 L28.3562 646.331 L32.9077 646.331 L32.9077 655.975 L64.0042 655.975 L64.0042 661.863 L32.9077 661.863 L32.9077 667.465 L28.3562 667.465 L28.3562 661.863 L25.8736 661.863 Q19.9216 661.863 17.2162 659.094 Q14.479 656.325 14.479 650.309 L14.479 644.771 Z" fill="#000000" fill-rule="evenodd" fill-opacity="1" /><path clip-path="url(#clip910)" d="M28.3562 639.87 L28.3562 634.013 L64.0042 634.013 L64.0042 639.87 L28.3562 639.87 M14.479 639.87 L14.479 634.013 L21.895 634.013 L21.895 639.87 L14.479 639.87 Z" fill="#000000" fill-rule="evenodd" fill-opacity="1" /><path clip-path="url(#clip910)" d="M29.7248 596.105 L35.1993 596.105 Q33.8307 598.588 33.1623 601.102 Q32.4621 603.585 32.4621 606.131 Q32.4621 611.829 36.0905 614.98 Q39.6872 618.131 46.212 618.131 Q52.7369 618.131 56.3653 614.98 Q59.9619 611.829 59.9619 606.131 Q59.9619 603.585 59.2935 601.102 Q58.5933 598.588 57.2247 596.105 L62.6355 596.105 Q63.7814 598.556 64.3543 601.198 Q64.9272 603.808 64.9272 606.768 Q64.9272 614.821 59.8664 619.563 Q54.8057 624.305 46.212 624.305 Q37.491 624.305 32.4939 619.531 Q27.4968 614.725 27.4968 606.386 Q27.4968 603.681 28.0697 601.102 Q28.6108 598.524 29.7248 596.105 Z" fill="#000000" fill-rule="evenodd" fill-opacity="1" /><path clip-path="url(#clip910)" d="M28.3562 585.92 L28.3562 580.064 L64.0042 580.064 L64.0042 585.92 L28.3562 585.92 M14.479 585.92 L14.479 580.064 L21.895 580.064 L21.895 585.92 L14.479 585.92 Z" fill="#000000" fill-rule="evenodd" fill-opacity="1" /><path clip-path="url(#clip910)" d="M44.7161 537.318 L47.5806 537.318 L47.5806 564.245 Q53.6281 563.863 56.8109 560.617 Q59.9619 557.338 59.9619 551.514 Q59.9619 548.14 59.1344 544.989 Q58.3069 541.806 56.6518 538.687 L62.1899 538.687 Q63.5267 541.838 64.227 545.148 Q64.9272 548.458 64.9272 551.864 Q64.9272 560.394 59.9619 565.391 Q54.9967 570.356 46.5303 570.356 Q37.7774 570.356 32.6531 565.645 Q27.4968 560.903 27.4968 552.882 Q27.4968 545.689 32.1438 541.519 Q36.7589 537.318 44.7161 537.318 M42.9973 543.175 Q38.1912 543.238 35.3266 545.88 Q32.4621 548.49 32.4621 552.819 Q32.4621 557.72 35.2312 560.68 Q38.0002 563.608 43.0292 564.054 L42.9973 543.175 Z" fill="#000000" fill-rule="evenodd" fill-opacity="1" /><path clip-path="url(#clip910)" d="M42.4881 498.073 L64.0042 498.073 L64.0042 503.93 L42.679 503.93 Q37.6183 503.93 35.1038 505.903 Q32.5894 507.877 32.5894 511.823 Q32.5894 516.566 35.6131 519.303 Q38.6368 522.04 43.8567 522.04 L64.0042 522.04 L64.0042 527.929 L28.3562 527.929 L28.3562 522.04 L33.8944 522.04 Q30.6797 519.94 29.0883 517.107 Q27.4968 514.242 27.4968 510.518 Q27.4968 504.376 31.3163 501.225 Q35.1038 498.073 42.4881 498.073 Z" fill="#000000" fill-rule="evenodd" fill-opacity="1" /><path clip-path="url(#clip910)" d="M18.2347 480.6 L28.3562 480.6 L28.3562 468.537 L32.9077 468.537 L32.9077 480.6 L52.2594 480.6 Q56.6199 480.6 57.8613 479.422 Q59.1026 478.212 59.1026 474.552 L59.1026 468.537 L64.0042 468.537 L64.0042 474.552 Q64.0042 481.332 61.4897 483.91 Q58.9434 486.488 52.2594 486.488 L32.9077 486.488 L32.9077 490.785 L28.3562 490.785 L28.3562 486.488 L18.2347 486.488 L18.2347 480.6 Z" fill="#000000" fill-rule="evenodd" fill-opacity="1" /><path clip-path="url(#clip910)" d="M14.479 440.655 L14.479 427.16 L19.0304 427.16 L19.0304 434.798 L68.0464 434.798 L68.0464 427.16 L72.5979 427.16 L72.5979 440.655 L14.479 440.655 Z" fill="#000000" fill-rule="evenodd" fill-opacity="1" /><path clip-path="url(#clip910)" d="M43.5384 417.643 L43.5384 400.487 L48.7583 400.487 L48.7583 417.643 L43.5384 417.643 Z" fill="#000000" fill-rule="evenodd" fill-opacity="1" /><path clip-path="url(#clip910)" d="M14.479 377.475 L72.5979 377.475 L72.5979 390.97 L68.0464 390.97 L68.0464 383.363 L19.0304 383.363 L19.0304 390.97 L14.479 390.97 L14.479 377.475 Z" fill="#000000" fill-rule="evenodd" fill-opacity="1" /><polyline clip-path="url(#clip912)" style="stroke:#009af9; stroke-linecap:butt; stroke-linejoin:round; stroke-width:4; stroke-opacity:1; fill:none" points="
  308.73,317.271 529.229,86.1857 749.728,633.088 970.227,725.368 1190.73,809.369 1411.22,809.952 1631.72,839.97 1852.22,859.573 2072.72,864.154 2293.22,881.745 
  
  "/>
<path clip-path="url(#clip912)" d="M308.73 301.271 L304.97 312.087 L293.514 312.327 L302.65 319.255 L299.322 330.215 L308.73 323.671 L318.138 330.215 L314.81 319.255 L323.946 312.327 L312.49 312.087 L308.73 301.271 Z" fill="#009af9" fill-rule="evenodd" fill-opacity="1" stroke="#000000" stroke-opacity="1" stroke-width="3.2"/>
<path clip-path="url(#clip912)" d="M529.229 70.1857 L525.469 81.0017 L514.013 81.2417 L523.149 88.1697 L519.821 99.1297 L529.229 92.5857 L538.637 99.1297 L535.309 88.1697 L544.445 81.2417 L532.989 81.0017 L529.229 70.1857 Z" fill="#009af9" fill-rule="evenodd" fill-opacity="1" stroke="#000000" stroke-opacity="1" stroke-width="3.2"/>
<path clip-path="url(#clip912)" d="M749.728 617.088 L745.968 627.904 L734.512 628.144 L743.648 635.072 L740.32 646.032 L749.728 639.488 L759.136 646.032 L755.808 635.072 L764.944 628.144 L753.488 627.904 L749.728 617.088 Z" fill="#009af9" fill-rule="evenodd" fill-opacity="1" stroke="#000000" stroke-opacity="1" stroke-width="3.2"/>
<path clip-path="url(#clip912)" d="M970.227 709.368 L966.467 720.184 L955.011 720.424 L964.147 727.352 L960.819 738.312 L970.227 731.768 L979.635 738.312 L976.307 727.352 L985.443 720.424 L973.987 720.184 L970.227 709.368 Z" fill="#009af9" fill-rule="evenodd" fill-opacity="1" stroke="#000000" stroke-opacity="1" stroke-width="3.2"/>
<path clip-path="url(#clip912)" d="M1190.73 793.369 L1186.97 804.185 L1175.51 804.425 L1184.65 811.353 L1181.32 822.313 L1190.73 815.769 L1200.13 822.313 L1196.81 811.353 L1205.94 804.425 L1194.49 804.185 L1190.73 793.369 Z" fill="#009af9" fill-rule="evenodd" fill-opacity="1" stroke="#000000" stroke-opacity="1" stroke-width="3.2"/>
<path clip-path="url(#clip912)" d="M1411.22 793.952 L1407.46 804.768 L1396.01 805.008 L1405.14 811.936 L1401.82 822.896 L1411.22 816.352 L1420.63 822.896 L1417.3 811.936 L1426.44 805.008 L1414.98 804.768 L1411.22 793.952 Z" fill="#009af9" fill-rule="evenodd" fill-opacity="1" stroke="#000000" stroke-opacity="1" stroke-width="3.2"/>
<path clip-path="url(#clip912)" d="M1631.72 823.97 L1627.96 834.786 L1616.51 835.026 L1625.64 841.954 L1622.32 852.914 L1631.72 846.37 L1641.13 852.914 L1637.8 841.954 L1646.94 835.026 L1635.48 834.786 L1631.72 823.97 Z" fill="#009af9" fill-rule="evenodd" fill-opacity="1" stroke="#000000" stroke-opacity="1" stroke-width="3.2"/>
<path clip-path="url(#clip912)" d="M1852.22 843.573 L1848.46 854.389 L1837.01 854.629 L1846.14 861.557 L1842.82 872.517 L1852.22 865.973 L1861.63 872.517 L1858.3 861.557 L1867.44 854.629 L1855.98 854.389 L1852.22 843.573 Z" fill="#009af9" fill-rule="evenodd" fill-opacity="1" stroke="#000000" stroke-opacity="1" stroke-width="3.2"/>
<path clip-path="url(#clip912)" d="M2072.72 848.154 L2068.96 858.97 L2057.51 859.21 L2066.64 866.138 L2063.31 877.098 L2072.72 870.554 L2082.13 877.098 L2078.8 866.138 L2087.94 859.21 L2076.48 858.97 L2072.72 848.154 Z" fill="#009af9" fill-rule="evenodd" fill-opacity="1" stroke="#000000" stroke-opacity="1" stroke-width="3.2"/>
<path clip-path="url(#clip912)" d="M2293.22 865.745 L2289.46 876.561 L2278.01 876.801 L2287.14 883.729 L2283.81 894.689 L2293.22 888.145 L2302.63 894.689 L2299.3 883.729 L2308.44 876.801 L2296.98 876.561 L2293.22 865.745 Z" fill="#009af9" fill-rule="evenodd" fill-opacity="1" stroke="#000000" stroke-opacity="1" stroke-width="3.2"/>
<polyline clip-path="url(#clip912)" style="stroke:#e26f46; stroke-linecap:butt; stroke-linejoin:round; stroke-width:4; stroke-opacity:1; fill:none" points="
  -1854.37,1384.24 4456.32,1384.24 
  "/>
<path clip-path="url(#clip910)" d="
M1680.88 248.629 L2282.64 248.629 L2282.64 93.1086 L1680.88 93.1086  Z
  " fill="#ffffff" fill-rule="evenodd" fill-opacity="1"/>
<polyline clip-path="url(#clip910)" style="stroke:#000000; stroke-linecap:butt; stroke-linejoin:round; stroke-width:4; stroke-opacity:1; fill:none" points="
  1680.88,248.629 2282.64,248.629 2282.64,93.1086 1680.88,93.1086 1680.88,248.629 
  "/>
<polyline clip-path="url(#clip910)" style="stroke:#009af9; stroke-linecap:butt; stroke-linejoin:round; stroke-width:4; stroke-opacity:1; fill:none" points="
  1704.25,144.949 1844.49,144.949 
  "/>
<path clip-path="url(#clip910)" d="M1774.37 119.349 L1768.35 136.654 L1750.02 137.038 L1764.64 148.123 L1759.32 165.659 L1774.37 155.189 L1789.42 165.659 L1784.1 148.123 L1798.71 137.038 L1780.39 136.654 L1774.37 119.349 Z" fill="#009af9" fill-rule="evenodd" fill-opacity="1" stroke="#000000" stroke-opacity="1" stroke-width="5.12"/>
<path clip-path="url(#clip910)" d="M1867.86 127.669 L1889.71 127.669 L1889.71 131.604 L1872.54 131.604 L1872.54 141.835 L1889 141.835 L1889 145.77 L1872.54 145.77 L1872.54 158.293 L1890.13 158.293 L1890.13 162.229 L1867.86 162.229 L1867.86 127.669 Z" fill="#000000" fill-rule="evenodd" fill-opacity="1" /><path clip-path="url(#clip910)" d="M1919.18 146.581 L1919.18 162.229 L1914.92 162.229 L1914.92 146.719 Q1914.92 143.039 1913.49 141.21 Q1912.05 139.382 1909.18 139.382 Q1905.73 139.382 1903.74 141.581 Q1901.75 143.78 1901.75 147.576 L1901.75 162.229 L1897.47 162.229 L1897.47 136.303 L1901.75 136.303 L1901.75 140.331 Q1903.28 137.993 1905.34 136.835 Q1907.42 135.678 1910.13 135.678 Q1914.6 135.678 1916.89 138.456 Q1919.18 141.21 1919.18 146.581 Z" fill="#000000" fill-rule="evenodd" fill-opacity="1" /><path clip-path="url(#clip910)" d="M1944.2 137.067 L1944.2 141.094 Q1942.4 140.169 1940.45 139.706 Q1938.51 139.243 1936.43 139.243 Q1933.25 139.243 1931.66 140.215 Q1930.08 141.187 1930.08 143.131 Q1930.08 144.613 1931.22 145.469 Q1932.35 146.303 1935.78 147.067 L1937.24 147.391 Q1941.77 148.363 1943.67 150.145 Q1945.59 151.905 1945.59 155.076 Q1945.59 158.687 1942.72 160.793 Q1939.87 162.9 1934.87 162.9 Q1932.79 162.9 1930.52 162.483 Q1928.28 162.09 1925.78 161.28 L1925.78 156.881 Q1928.14 158.108 1930.43 158.733 Q1932.72 159.335 1934.97 159.335 Q1937.98 159.335 1939.6 158.317 Q1941.22 157.275 1941.22 155.4 Q1941.22 153.664 1940.04 152.738 Q1938.88 151.812 1934.92 150.956 L1933.44 150.608 Q1929.48 149.775 1927.72 148.062 Q1925.96 146.326 1925.96 143.317 Q1925.96 139.659 1928.56 137.669 Q1931.15 135.678 1935.92 135.678 Q1938.28 135.678 1940.36 136.025 Q1942.44 136.372 1944.2 137.067 Z" fill="#000000" fill-rule="evenodd" fill-opacity="1" /><path clip-path="url(#clip910)" d="M1974.55 148.201 L1974.55 150.284 L1954.97 150.284 Q1955.24 154.682 1957.61 156.997 Q1959.99 159.289 1964.23 159.289 Q1966.68 159.289 1968.97 158.687 Q1971.29 158.085 1973.55 156.881 L1973.55 160.909 Q1971.26 161.881 1968.86 162.391 Q1966.45 162.9 1963.97 162.9 Q1957.77 162.9 1954.13 159.289 Q1950.52 155.678 1950.52 149.52 Q1950.52 143.155 1953.95 139.428 Q1957.4 135.678 1963.23 135.678 Q1968.46 135.678 1971.49 139.057 Q1974.55 142.414 1974.55 148.201 M1970.29 146.951 Q1970.24 143.456 1968.32 141.372 Q1966.43 139.289 1963.28 139.289 Q1959.71 139.289 1957.56 141.303 Q1955.43 143.317 1955.11 146.974 L1970.29 146.951 Z" fill="#000000" fill-rule="evenodd" fill-opacity="1" /><path clip-path="url(#clip910)" d="M2001.73 141.28 Q2003.32 138.409 2005.55 137.044 Q2007.77 135.678 2010.78 135.678 Q2014.83 135.678 2017.03 138.525 Q2019.23 141.349 2019.23 146.581 L2019.23 162.229 L2014.94 162.229 L2014.94 146.719 Q2014.94 142.993 2013.62 141.187 Q2012.3 139.382 2009.6 139.382 Q2006.29 139.382 2004.36 141.581 Q2002.44 143.78 2002.44 147.576 L2002.44 162.229 L1998.16 162.229 L1998.16 146.719 Q1998.16 142.969 1996.84 141.187 Q1995.52 139.382 1992.77 139.382 Q1989.5 139.382 1987.58 141.604 Q1985.66 143.803 1985.66 147.576 L1985.66 162.229 L1981.38 162.229 L1981.38 136.303 L1985.66 136.303 L1985.66 140.331 Q1987.12 137.946 1989.16 136.812 Q1991.19 135.678 1993.99 135.678 Q1996.82 135.678 1998.79 137.113 Q2000.78 138.548 2001.73 141.28 Z" fill="#000000" fill-rule="evenodd" fill-opacity="1" /><path clip-path="url(#clip910)" d="M2046.33 149.289 Q2046.33 144.59 2044.39 141.928 Q2042.47 139.243 2039.09 139.243 Q2035.71 139.243 2033.76 141.928 Q2031.84 144.59 2031.84 149.289 Q2031.84 153.988 2033.76 156.673 Q2035.71 159.335 2039.09 159.335 Q2042.47 159.335 2044.39 156.673 Q2046.33 153.988 2046.33 149.289 M2031.84 140.238 Q2033.18 137.923 2035.22 136.812 Q2037.28 135.678 2040.13 135.678 Q2044.85 135.678 2047.79 139.428 Q2050.75 143.178 2050.75 149.289 Q2050.75 155.4 2047.79 159.15 Q2044.85 162.9 2040.13 162.9 Q2037.28 162.9 2035.22 161.789 Q2033.18 160.655 2031.84 158.34 L2031.84 162.229 L2027.56 162.229 L2027.56 126.21 L2031.84 126.21 L2031.84 140.238 Z" fill="#000000" fill-rule="evenodd" fill-opacity="1" /><path clip-path="url(#clip910)" d="M2057.81 126.21 L2062.07 126.21 L2062.07 162.229 L2057.81 162.229 L2057.81 126.21 Z" fill="#000000" fill-rule="evenodd" fill-opacity="1" /><path clip-path="url(#clip910)" d="M2093.16 148.201 L2093.16 150.284 L2073.58 150.284 Q2073.86 154.682 2076.22 156.997 Q2078.6 159.289 2082.84 159.289 Q2085.29 159.289 2087.58 158.687 Q2089.9 158.085 2092.17 156.881 L2092.17 160.909 Q2089.87 161.881 2087.47 162.391 Q2085.06 162.9 2082.58 162.9 Q2076.38 162.9 2072.74 159.289 Q2069.13 155.678 2069.13 149.52 Q2069.13 143.155 2072.56 139.428 Q2076.01 135.678 2081.84 135.678 Q2087.07 135.678 2090.11 139.057 Q2093.16 142.414 2093.16 148.201 M2088.9 146.951 Q2088.86 143.456 2086.93 141.372 Q2085.04 139.289 2081.89 139.289 Q2078.32 139.289 2076.17 141.303 Q2074.04 143.317 2073.72 146.974 L2088.9 146.951 Z" fill="#000000" fill-rule="evenodd" fill-opacity="1" /><path clip-path="url(#clip910)" d="M2115.41 127.669 L2122.37 127.669 L2131.19 151.187 L2140.06 127.669 L2147.03 127.669 L2147.03 162.229 L2142.47 162.229 L2142.47 131.882 L2133.55 155.585 L2128.85 155.585 L2119.94 131.882 L2119.94 162.229 L2115.41 162.229 L2115.41 127.669 Z" fill="#000000" fill-rule="evenodd" fill-opacity="1" /><path clip-path="url(#clip910)" d="M2178.3 148.201 L2178.3 150.284 L2158.72 150.284 Q2158.99 154.682 2161.35 156.997 Q2163.74 159.289 2167.98 159.289 Q2170.43 159.289 2172.72 158.687 Q2175.04 158.085 2177.3 156.881 L2177.3 160.909 Q2175.01 161.881 2172.6 162.391 Q2170.2 162.9 2167.72 162.9 Q2161.52 162.9 2157.88 159.289 Q2154.27 155.678 2154.27 149.52 Q2154.27 143.155 2157.7 139.428 Q2161.15 135.678 2166.98 135.678 Q2172.21 135.678 2175.24 139.057 Q2178.3 142.414 2178.3 148.201 M2174.04 146.951 Q2173.99 143.456 2172.07 141.372 Q2170.17 139.289 2167.03 139.289 Q2163.46 139.289 2161.31 141.303 Q2159.18 143.317 2158.85 146.974 L2174.04 146.951 Z" fill="#000000" fill-rule="evenodd" fill-opacity="1" /><path clip-path="url(#clip910)" d="M2197.07 149.196 Q2191.91 149.196 2189.92 150.377 Q2187.93 151.557 2187.93 154.405 Q2187.93 156.673 2189.41 158.016 Q2190.91 159.335 2193.48 159.335 Q2197.03 159.335 2199.16 156.835 Q2201.31 154.312 2201.31 150.145 L2201.31 149.196 L2197.07 149.196 M2205.57 147.437 L2205.57 162.229 L2201.31 162.229 L2201.31 158.293 Q2199.85 160.655 2197.67 161.789 Q2195.5 162.9 2192.35 162.9 Q2188.37 162.9 2186.01 160.678 Q2183.67 158.432 2183.67 154.682 Q2183.67 150.307 2186.59 148.085 Q2189.53 145.863 2195.34 145.863 L2201.31 145.863 L2201.31 145.446 Q2201.31 142.507 2199.36 140.909 Q2197.44 139.289 2193.95 139.289 Q2191.72 139.289 2189.62 139.821 Q2187.51 140.354 2185.57 141.419 L2185.57 137.483 Q2187.91 136.581 2190.1 136.141 Q2192.3 135.678 2194.39 135.678 Q2200.01 135.678 2202.79 138.594 Q2205.57 141.511 2205.57 147.437 Z" fill="#000000" fill-rule="evenodd" fill-opacity="1" /><path clip-path="url(#clip910)" d="M2235.89 146.581 L2235.89 162.229 L2231.63 162.229 L2231.63 146.719 Q2231.63 143.039 2230.2 141.21 Q2228.76 139.382 2225.89 139.382 Q2222.44 139.382 2220.45 141.581 Q2218.46 143.78 2218.46 147.576 L2218.46 162.229 L2214.18 162.229 L2214.18 136.303 L2218.46 136.303 L2218.46 140.331 Q2219.99 137.993 2222.05 136.835 Q2224.13 135.678 2226.84 135.678 Q2231.31 135.678 2233.6 138.456 Q2235.89 141.21 2235.89 146.581 Z" fill="#000000" fill-rule="evenodd" fill-opacity="1" /><polyline clip-path="url(#clip910)" style="stroke:#e26f46; stroke-linecap:butt; stroke-linejoin:round; stroke-width:4; stroke-opacity:1; fill:none" points="
  1704.25,196.789 1844.49,196.789 
  "/>
<path clip-path="url(#clip910)" d="M1875.27 180.782 L1875.27 188.143 L1884.04 188.143 L1884.04 191.453 L1875.27 191.453 L1875.27 205.527 Q1875.27 208.698 1876.12 209.601 Q1877 210.504 1879.67 210.504 L1884.04 210.504 L1884.04 214.069 L1879.67 214.069 Q1874.74 214.069 1872.86 212.24 Q1870.99 210.388 1870.99 205.527 L1870.99 191.453 L1867.86 191.453 L1867.86 188.143 L1870.99 188.143 L1870.99 180.782 L1875.27 180.782 Z" fill="#000000" fill-rule="evenodd" fill-opacity="1" /><path clip-path="url(#clip910)" d="M1904.67 192.124 Q1903.95 191.708 1903.09 191.522 Q1902.26 191.314 1901.24 191.314 Q1897.63 191.314 1895.68 193.675 Q1893.76 196.013 1893.76 200.411 L1893.76 214.069 L1889.48 214.069 L1889.48 188.143 L1893.76 188.143 L1893.76 192.171 Q1895.11 189.809 1897.26 188.675 Q1899.41 187.518 1902.49 187.518 Q1902.93 187.518 1903.46 187.587 Q1904 187.634 1904.64 187.749 L1904.67 192.124 Z" fill="#000000" fill-rule="evenodd" fill-opacity="1" /><path clip-path="url(#clip910)" d="M1908.69 203.837 L1908.69 188.143 L1912.95 188.143 L1912.95 203.675 Q1912.95 207.356 1914.39 209.208 Q1915.82 211.036 1918.69 211.036 Q1922.14 211.036 1924.13 208.837 Q1926.15 206.638 1926.15 202.842 L1926.15 188.143 L1930.41 188.143 L1930.41 214.069 L1926.15 214.069 L1926.15 210.087 Q1924.6 212.448 1922.54 213.606 Q1920.5 214.74 1917.79 214.74 Q1913.32 214.74 1911.01 211.962 Q1908.69 209.184 1908.69 203.837 M1919.41 187.518 L1919.41 187.518 Z" fill="#000000" fill-rule="evenodd" fill-opacity="1" /><path clip-path="url(#clip910)" d="M1961.36 200.041 L1961.36 202.124 L1941.77 202.124 Q1942.05 206.522 1944.41 208.837 Q1946.8 211.129 1951.03 211.129 Q1953.49 211.129 1955.78 210.527 Q1958.09 209.925 1960.36 208.721 L1960.36 212.749 Q1958.07 213.721 1955.66 214.231 Q1953.25 214.74 1950.78 214.74 Q1944.57 214.74 1940.94 211.129 Q1937.33 207.518 1937.33 201.36 Q1937.33 194.995 1940.75 191.268 Q1944.2 187.518 1950.04 187.518 Q1955.27 187.518 1958.3 190.897 Q1961.36 194.254 1961.36 200.041 M1957.1 198.791 Q1957.05 195.296 1955.13 193.212 Q1953.23 191.129 1950.08 191.129 Q1946.52 191.129 1944.37 193.143 Q1942.24 195.157 1941.91 198.814 L1957.1 198.791 Z" fill="#000000" fill-rule="evenodd" fill-opacity="1" /><path clip-path="url(#clip910)" d="M1980.36 188.143 L1984.87 188.143 L1992.98 209.902 L2001.08 188.143 L2005.59 188.143 L1995.87 214.069 L1990.08 214.069 L1980.36 188.143 Z" fill="#000000" fill-rule="evenodd" fill-opacity="1" /><path clip-path="url(#clip910)" d="M2023.25 201.036 Q2018.09 201.036 2016.1 202.217 Q2014.11 203.397 2014.11 206.245 Q2014.11 208.513 2015.59 209.856 Q2017.1 211.175 2019.67 211.175 Q2023.21 211.175 2025.34 208.675 Q2027.49 206.152 2027.49 201.985 L2027.49 201.036 L2023.25 201.036 M2031.75 199.277 L2031.75 214.069 L2027.49 214.069 L2027.49 210.133 Q2026.03 212.495 2023.86 213.629 Q2021.68 214.74 2018.53 214.74 Q2014.55 214.74 2012.19 212.518 Q2009.85 210.272 2009.85 206.522 Q2009.85 202.147 2012.77 199.925 Q2015.71 197.703 2021.52 197.703 L2027.49 197.703 L2027.49 197.286 Q2027.49 194.347 2025.55 192.749 Q2023.62 191.129 2020.13 191.129 Q2017.91 191.129 2015.8 191.661 Q2013.69 192.194 2011.75 193.259 L2011.75 189.323 Q2014.09 188.421 2016.29 187.981 Q2018.49 187.518 2020.57 187.518 Q2026.19 187.518 2028.97 190.434 Q2031.75 193.351 2031.75 199.277 Z" fill="#000000" fill-rule="evenodd" fill-opacity="1" /><path clip-path="url(#clip910)" d="M2040.52 178.05 L2044.78 178.05 L2044.78 214.069 L2040.52 214.069 L2040.52 178.05 Z" fill="#000000" fill-rule="evenodd" fill-opacity="1" /><path clip-path="url(#clip910)" d="M2053.25 203.837 L2053.25 188.143 L2057.51 188.143 L2057.51 203.675 Q2057.51 207.356 2058.95 209.208 Q2060.38 211.036 2063.25 211.036 Q2066.7 211.036 2068.69 208.837 Q2070.71 206.638 2070.71 202.842 L2070.71 188.143 L2074.97 188.143 L2074.97 214.069 L2070.71 214.069 L2070.71 210.087 Q2069.16 212.448 2067.1 213.606 Q2065.06 214.74 2062.35 214.74 Q2057.88 214.74 2055.57 211.962 Q2053.25 209.184 2053.25 203.837 M2063.97 187.518 L2063.97 187.518 Z" fill="#000000" fill-rule="evenodd" fill-opacity="1" /><path clip-path="url(#clip910)" d="M2105.92 200.041 L2105.92 202.124 L2086.33 202.124 Q2086.61 206.522 2088.97 208.837 Q2091.36 211.129 2095.59 211.129 Q2098.04 211.129 2100.34 210.527 Q2102.65 209.925 2104.92 208.721 L2104.92 212.749 Q2102.63 213.721 2100.22 214.231 Q2097.81 214.74 2095.34 214.74 Q2089.13 214.74 2085.5 211.129 Q2081.89 207.518 2081.89 201.36 Q2081.89 194.995 2085.31 191.268 Q2088.76 187.518 2094.6 187.518 Q2099.83 187.518 2102.86 190.897 Q2105.92 194.254 2105.92 200.041 M2101.66 198.791 Q2101.61 195.296 2099.69 193.212 Q2097.79 191.129 2094.64 191.129 Q2091.08 191.129 2088.92 193.143 Q2086.79 195.157 2086.47 198.814 L2101.66 198.791 Z" fill="#000000" fill-rule="evenodd" fill-opacity="1" /></svg>
