<?xml version="1.0" encoding="utf-8"?>
<svg xmlns="http://www.w3.org/2000/svg" xmlns:xlink="http://www.w3.org/1999/xlink" width="600" height="400" viewBox="0 0 2400 1600">
<defs>
  <clipPath id="clip050">
    <rect x="0" y="0" width="2400" height="1600"/>
  </clipPath>
</defs>
<path clip-path="url(#clip050)" d="
M0 1600 L2400 1600 L2400 0 L0 0  Z
  " fill="#ffffff" fill-rule="evenodd" fill-opacity="1"/>
<defs>
  <clipPath id="clip051">
    <rect x="480" y="0" width="1681" height="1600"/>
  </clipPath>
</defs>
<path clip-path="url(#clip050)" d="
M248.547 1423.18 L2352.76 1423.18 L2352.76 47.2441 L248.547 47.2441  Z
  " fill="#ffffff" fill-rule="evenodd" fill-opacity="1"/>
<defs>
  <clipPath id="clip052">
    <rect x="248" y="47" width="2105" height="1377"/>
  </clipPath>
</defs>
<polyline clip-path="url(#clip052)" style="stroke:#000000; stroke-linecap:butt; stroke-linejoin:round; stroke-width:2; stroke-opacity:0.1; fill:none" points="
  308.1,1423.18 308.1,47.2441 
  "/>
<polyline clip-path="url(#clip052)" style="stroke:#000000; stroke-linecap:butt; stroke-linejoin:round; stroke-width:2; stroke-opacity:0.1; fill:none" points="
  528.667,1423.18 528.667,47.2441 
  "/>
<polyline clip-path="url(#clip052)" style="stroke:#000000; stroke-linecap:butt; stroke-linejoin:round; stroke-width:2; stroke-opacity:0.1; fill:none" points="
  749.234,1423.18 749.234,47.2441 
  "/>
<polyline clip-path="url(#clip052)" style="stroke:#000000; stroke-linecap:butt; stroke-linejoin:round; stroke-width:2; stroke-opacity:0.1; fill:none" points="
  969.801,1423.18 969.801,47.2441 
  "/>
<polyline clip-path="url(#clip052)" style="stroke:#000000; stroke-linecap:butt; stroke-linejoin:round; stroke-width:2; stroke-opacity:0.1; fill:none" points="
  1190.37,1423.18 1190.37,47.2441 
  "/>
<polyline clip-path="url(#clip052)" style="stroke:#000000; stroke-linecap:butt; stroke-linejoin:round; stroke-width:2; stroke-opacity:0.1; fill:none" points="
  1410.93,1423.18 1410.93,47.2441 
  "/>
<polyline clip-path="url(#clip052)" style="stroke:#000000; stroke-linecap:butt; stroke-linejoin:round; stroke-width:2; stroke-opacity:0.1; fill:none" points="
  1631.5,1423.18 1631.5,47.2441 
  "/>
<polyline clip-path="url(#clip052)" style="stroke:#000000; stroke-linecap:butt; stroke-linejoin:round; stroke-width:2; stroke-opacity:0.1; fill:none" points="
  1852.07,1423.18 1852.07,47.2441 
  "/>
<polyline clip-path="url(#clip052)" style="stroke:#000000; stroke-linecap:butt; stroke-linejoin:round; stroke-width:2; stroke-opacity:0.1; fill:none" points="
  2072.64,1423.18 2072.64,47.2441 
  "/>
<polyline clip-path="url(#clip052)" style="stroke:#000000; stroke-linecap:butt; stroke-linejoin:round; stroke-width:2; stroke-opacity:0.1; fill:none" points="
  2293.2,1423.18 2293.2,47.2441 
  "/>
<polyline clip-path="url(#clip050)" style="stroke:#000000; stroke-linecap:butt; stroke-linejoin:round; stroke-width:4; stroke-opacity:1; fill:none" points="
  248.547,1423.18 2352.76,1423.18 
  "/>
<polyline clip-path="url(#clip050)" style="stroke:#000000; stroke-linecap:butt; stroke-linejoin:round; stroke-width:4; stroke-opacity:1; fill:none" points="
  308.1,1423.18 308.1,1404.28 
  "/>
<polyline clip-path="url(#clip050)" style="stroke:#000000; stroke-linecap:butt; stroke-linejoin:round; stroke-width:4; stroke-opacity:1; fill:none" points="
  528.667,1423.18 528.667,1404.28 
  "/>
<polyline clip-path="url(#clip050)" style="stroke:#000000; stroke-linecap:butt; stroke-linejoin:round; stroke-width:4; stroke-opacity:1; fill:none" points="
  749.234,1423.18 749.234,1404.28 
  "/>
<polyline clip-path="url(#clip050)" style="stroke:#000000; stroke-linecap:butt; stroke-linejoin:round; stroke-width:4; stroke-opacity:1; fill:none" points="
  969.801,1423.18 969.801,1404.28 
  "/>
<polyline clip-path="url(#clip050)" style="stroke:#000000; stroke-linecap:butt; stroke-linejoin:round; stroke-width:4; stroke-opacity:1; fill:none" points="
  1190.37,1423.18 1190.37,1404.28 
  "/>
<polyline clip-path="url(#clip050)" style="stroke:#000000; stroke-linecap:butt; stroke-linejoin:round; stroke-width:4; stroke-opacity:1; fill:none" points="
  1410.93,1423.18 1410.93,1404.28 
  "/>
<polyline clip-path="url(#clip050)" style="stroke:#000000; stroke-linecap:butt; stroke-linejoin:round; stroke-width:4; stroke-opacity:1; fill:none" points="
  1631.5,1423.18 1631.5,1404.28 
  "/>
<polyline clip-path="url(#clip050)" style="stroke:#000000; stroke-linecap:butt; stroke-linejoin:round; stroke-width:4; stroke-opacity:1; fill:none" points="
  1852.07,1423.18 1852.07,1404.28 
  "/>
<polyline clip-path="url(#clip050)" style="stroke:#000000; stroke-linecap:butt; stroke-linejoin:round; stroke-width:4; stroke-opacity:1; fill:none" points="
  2072.64,1423.18 2072.64,1404.28 
  "/>
<polyline clip-path="url(#clip050)" style="stroke:#000000; stroke-linecap:butt; stroke-linejoin:round; stroke-width:4; stroke-opacity:1; fill:none" points="
  2293.2,1423.18 2293.2,1404.28 
  "/>
<path clip-path="url(#clip050)" d="M298.482 1481.64 L306.121 1481.64 L306.121 1455.28 L297.81 1456.95 L297.81 1452.69 L306.074 1451.02 L310.75 1451.02 L310.75 1481.64 L318.389 1481.64 L318.389 1485.58 L298.482 1485.58 L298.482 1481.64 Z" fill="#000000" fill-rule="evenodd" fill-opacity="1" /><path clip-path="url(#clip050)" d="M523.32 1481.64 L539.639 1481.64 L539.639 1485.58 L517.695 1485.58 L517.695 1481.64 Q520.357 1478.89 524.94 1474.26 Q529.546 1469.61 530.727 1468.27 Q532.972 1465.74 533.852 1464.01 Q534.755 1462.25 534.755 1460.56 Q534.755 1457.8 532.81 1456.07 Q530.889 1454.33 527.787 1454.33 Q525.588 1454.33 523.134 1455.09 Q520.704 1455.86 517.926 1457.41 L517.926 1452.69 Q520.75 1451.55 523.204 1450.97 Q525.658 1450.39 527.695 1450.39 Q533.065 1450.39 536.259 1453.08 Q539.454 1455.77 539.454 1460.26 Q539.454 1462.39 538.644 1464.31 Q537.857 1466.2 535.75 1468.8 Q535.171 1469.47 532.07 1472.69 Q528.968 1475.88 523.32 1481.64 Z" fill="#000000" fill-rule="evenodd" fill-opacity="1" /><path clip-path="url(#clip050)" d="M753.481 1466.95 Q756.838 1467.66 758.713 1469.93 Q760.611 1472.2 760.611 1475.53 Q760.611 1480.65 757.093 1483.45 Q753.574 1486.25 747.093 1486.25 Q744.917 1486.25 742.602 1485.81 Q740.31 1485.39 737.857 1484.54 L737.857 1480.02 Q739.801 1481.16 742.116 1481.74 Q744.431 1482.32 746.954 1482.32 Q751.352 1482.32 753.643 1480.58 Q755.958 1478.84 755.958 1475.53 Q755.958 1472.48 753.806 1470.77 Q751.676 1469.03 747.856 1469.03 L743.829 1469.03 L743.829 1465.19 L748.042 1465.19 Q751.491 1465.19 753.319 1463.82 Q755.148 1462.43 755.148 1459.84 Q755.148 1457.18 753.25 1455.77 Q751.375 1454.33 747.856 1454.33 Q745.935 1454.33 743.736 1454.75 Q741.537 1455.16 738.898 1456.04 L738.898 1451.88 Q741.56 1451.14 743.875 1450.77 Q746.213 1450.39 748.273 1450.39 Q753.597 1450.39 756.699 1452.83 Q759.801 1455.23 759.801 1459.35 Q759.801 1462.22 758.157 1464.21 Q756.514 1466.18 753.481 1466.95 Z" fill="#000000" fill-rule="evenodd" fill-opacity="1" /><path clip-path="url(#clip050)" d="M972.81 1455.09 L961.005 1473.54 L972.81 1473.54 L972.81 1455.09 M971.583 1451.02 L977.463 1451.02 L977.463 1473.54 L982.393 1473.54 L982.393 1477.43 L977.463 1477.43 L977.463 1485.58 L972.81 1485.58 L972.81 1477.43 L957.208 1477.43 L957.208 1472.92 L971.583 1451.02 Z" fill="#000000" fill-rule="evenodd" fill-opacity="1" /><path clip-path="url(#clip050)" d="M1180.65 1451.02 L1199 1451.02 L1199 1454.96 L1184.93 1454.96 L1184.93 1463.43 Q1185.95 1463.08 1186.97 1462.92 Q1187.98 1462.73 1189 1462.73 Q1194.79 1462.73 1198.17 1465.9 Q1201.55 1469.08 1201.55 1474.49 Q1201.55 1480.07 1198.08 1483.17 Q1194.6 1486.25 1188.28 1486.25 Q1186.11 1486.25 1183.84 1485.88 Q1181.59 1485.51 1179.19 1484.77 L1179.19 1480.07 Q1181.27 1481.2 1183.49 1481.76 Q1185.72 1482.32 1188.19 1482.32 Q1192.2 1482.32 1194.53 1480.21 Q1196.87 1478.1 1196.87 1474.49 Q1196.87 1470.88 1194.53 1468.77 Q1192.2 1466.67 1188.19 1466.67 Q1186.32 1466.67 1184.44 1467.08 Q1182.59 1467.5 1180.65 1468.38 L1180.65 1451.02 Z" fill="#000000" fill-rule="evenodd" fill-opacity="1" /><path clip-path="url(#clip050)" d="M1411.34 1466.44 Q1408.19 1466.44 1406.34 1468.59 Q1404.51 1470.74 1404.51 1474.49 Q1404.51 1478.22 1406.34 1480.39 Q1408.19 1482.55 1411.34 1482.55 Q1414.49 1482.55 1416.32 1480.39 Q1418.17 1478.22 1418.17 1474.49 Q1418.17 1470.74 1416.32 1468.59 Q1414.49 1466.44 1411.34 1466.44 M1420.62 1451.78 L1420.62 1456.04 Q1418.86 1455.21 1417.06 1454.77 Q1415.28 1454.33 1413.52 1454.33 Q1408.89 1454.33 1406.43 1457.45 Q1404 1460.58 1403.65 1466.9 Q1405.02 1464.89 1407.08 1463.82 Q1409.14 1462.73 1411.62 1462.73 Q1416.83 1462.73 1419.84 1465.9 Q1422.87 1469.05 1422.87 1474.49 Q1422.87 1479.82 1419.72 1483.03 Q1416.57 1486.25 1411.34 1486.25 Q1405.34 1486.25 1402.17 1481.67 Q1399 1477.06 1399 1468.33 Q1399 1460.14 1402.89 1455.28 Q1406.78 1450.39 1413.33 1450.39 Q1415.09 1450.39 1416.87 1450.74 Q1418.68 1451.09 1420.62 1451.78 Z" fill="#000000" fill-rule="evenodd" fill-opacity="1" /><path clip-path="url(#clip050)" d="M1620.39 1451.02 L1642.61 1451.02 L1642.61 1453.01 L1630.07 1485.58 L1625.18 1485.58 L1636.99 1454.96 L1620.39 1454.96 L1620.39 1451.02 Z" fill="#000000" fill-rule="evenodd" fill-opacity="1" /><path clip-path="url(#clip050)" d="M1852.07 1469.17 Q1848.74 1469.17 1846.81 1470.95 Q1844.92 1472.73 1844.92 1475.86 Q1844.92 1478.98 1846.81 1480.77 Q1848.74 1482.55 1852.07 1482.55 Q1855.4 1482.55 1857.32 1480.77 Q1859.24 1478.96 1859.24 1475.86 Q1859.24 1472.73 1857.32 1470.95 Q1855.43 1469.17 1852.07 1469.17 M1847.39 1467.18 Q1844.38 1466.44 1842.69 1464.38 Q1841.03 1462.32 1841.03 1459.35 Q1841.03 1455.21 1843.97 1452.8 Q1846.93 1450.39 1852.07 1450.39 Q1857.23 1450.39 1860.17 1452.8 Q1863.11 1455.21 1863.11 1459.35 Q1863.11 1462.32 1861.42 1464.38 Q1859.75 1466.44 1856.77 1467.18 Q1860.15 1467.96 1862.02 1470.26 Q1863.92 1472.55 1863.92 1475.86 Q1863.92 1480.88 1860.84 1483.57 Q1857.79 1486.25 1852.07 1486.25 Q1846.35 1486.25 1843.27 1483.57 Q1840.22 1480.88 1840.22 1475.86 Q1840.22 1472.55 1842.12 1470.26 Q1844.01 1467.96 1847.39 1467.18 M1845.68 1459.79 Q1845.68 1462.48 1847.35 1463.98 Q1849.04 1465.49 1852.07 1465.49 Q1855.08 1465.49 1856.77 1463.98 Q1858.48 1462.48 1858.48 1459.79 Q1858.48 1457.11 1856.77 1455.6 Q1855.08 1454.1 1852.07 1454.1 Q1849.04 1454.1 1847.35 1455.6 Q1845.68 1457.11 1845.68 1459.79 Z" fill="#000000" fill-rule="evenodd" fill-opacity="1" /><path clip-path="url(#clip050)" d="M2062.94 1484.86 L2062.94 1480.6 Q2064.7 1481.44 2066.5 1481.88 Q2068.31 1482.32 2070.04 1482.32 Q2074.67 1482.32 2077.1 1479.21 Q2079.56 1476.09 2079.9 1469.75 Q2078.56 1471.74 2076.5 1472.8 Q2074.44 1473.87 2071.94 1473.87 Q2066.76 1473.87 2063.72 1470.74 Q2060.71 1467.59 2060.71 1462.15 Q2060.71 1456.83 2063.86 1453.61 Q2067.01 1450.39 2072.24 1450.39 Q2078.24 1450.39 2081.39 1455 Q2084.56 1459.58 2084.56 1468.33 Q2084.56 1476.51 2080.67 1481.39 Q2076.8 1486.25 2070.25 1486.25 Q2068.49 1486.25 2066.69 1485.9 Q2064.88 1485.56 2062.94 1484.86 M2072.24 1470.21 Q2075.39 1470.21 2077.22 1468.06 Q2079.07 1465.9 2079.07 1462.15 Q2079.07 1458.43 2077.22 1456.27 Q2075.39 1454.1 2072.24 1454.1 Q2069.09 1454.1 2067.24 1456.27 Q2065.41 1458.43 2065.41 1462.15 Q2065.41 1465.9 2067.24 1468.06 Q2069.09 1470.21 2072.24 1470.21 Z" fill="#000000" fill-rule="evenodd" fill-opacity="1" /><path clip-path="url(#clip050)" d="M2267.89 1481.64 L2275.53 1481.64 L2275.53 1455.28 L2267.22 1456.95 L2267.22 1452.69 L2275.48 1451.02 L2280.16 1451.02 L2280.16 1481.64 L2287.8 1481.64 L2287.8 1485.58 L2267.89 1485.58 L2267.89 1481.64 Z" fill="#000000" fill-rule="evenodd" fill-opacity="1" /><path clip-path="url(#clip050)" d="M2307.24 1454.1 Q2303.63 1454.1 2301.8 1457.66 Q2300 1461.2 2300 1468.33 Q2300 1475.44 2301.8 1479.01 Q2303.63 1482.55 2307.24 1482.55 Q2310.88 1482.55 2312.68 1479.01 Q2314.51 1475.44 2314.51 1468.33 Q2314.51 1461.2 2312.68 1457.66 Q2310.88 1454.1 2307.24 1454.1 M2307.24 1450.39 Q2313.05 1450.39 2316.11 1455 Q2319.19 1459.58 2319.19 1468.33 Q2319.19 1477.06 2316.11 1481.67 Q2313.05 1486.25 2307.24 1486.25 Q2301.43 1486.25 2298.35 1481.67 Q2295.3 1477.06 2295.3 1468.33 Q2295.3 1459.58 2298.35 1455 Q2301.43 1450.39 2307.24 1450.39 Z" fill="#000000" fill-rule="evenodd" fill-opacity="1" /><path clip-path="url(#clip050)" d="M1024.32 1520.52 L1030.75 1520.52 L1030.75 1568.04 L1024.32 1568.04 L1024.32 1520.52 Z" fill="#000000" fill-rule="evenodd" fill-opacity="1" /><path clip-path="url(#clip050)" d="M1049.08 1522.27 L1049.08 1532.4 L1061.14 1532.4 L1061.14 1536.95 L1049.08 1536.95 L1049.08 1556.3 Q1049.08 1560.66 1050.26 1561.9 Q1051.47 1563.14 1055.13 1563.14 L1061.14 1563.14 L1061.14 1568.04 L1055.13 1568.04 Q1048.35 1568.04 1045.77 1565.53 Q1043.19 1562.98 1043.19 1556.3 L1043.19 1536.95 L1038.89 1536.95 L1038.89 1532.4 L1043.19 1532.4 L1043.19 1522.27 L1049.08 1522.27 Z" fill="#000000" fill-rule="evenodd" fill-opacity="1" /><path clip-path="url(#clip050)" d="M1099.34 1548.76 L1099.34 1551.62 L1072.41 1551.62 Q1072.79 1557.67 1076.04 1560.85 Q1079.32 1564 1085.14 1564 Q1088.51 1564 1091.67 1563.17 Q1094.85 1562.35 1097.97 1560.69 L1097.97 1566.23 Q1094.82 1567.57 1091.51 1568.27 Q1088.2 1568.97 1084.79 1568.97 Q1076.26 1568.97 1071.26 1564 Q1066.3 1559.04 1066.3 1550.57 Q1066.3 1541.82 1071.01 1536.69 Q1075.75 1531.54 1083.77 1531.54 Q1090.96 1531.54 1095.13 1536.18 Q1099.34 1540.8 1099.34 1548.76 M1093.48 1547.04 Q1093.42 1542.23 1090.77 1539.37 Q1088.16 1536.5 1083.84 1536.5 Q1078.93 1536.5 1075.97 1539.27 Q1073.05 1542.04 1072.6 1547.07 L1093.48 1547.04 Z" fill="#000000" fill-rule="evenodd" fill-opacity="1" /><path clip-path="url(#clip050)" d="M1129.6 1537.87 Q1128.62 1537.3 1127.44 1537.04 Q1126.29 1536.76 1124.89 1536.76 Q1119.93 1536.76 1117.26 1540 Q1114.61 1543.22 1114.61 1549.27 L1114.61 1568.04 L1108.73 1568.04 L1108.73 1532.4 L1114.61 1532.4 L1114.61 1537.93 Q1116.46 1534.69 1119.42 1533.13 Q1122.38 1531.54 1126.61 1531.54 Q1127.22 1531.54 1127.95 1531.63 Q1128.68 1531.7 1129.57 1531.85 L1129.6 1537.87 Z" fill="#000000" fill-rule="evenodd" fill-opacity="1" /><path clip-path="url(#clip050)" d="M1151.95 1550.12 Q1144.85 1550.12 1142.11 1551.75 Q1139.38 1553.37 1139.38 1557.29 Q1139.38 1560.4 1141.41 1562.25 Q1143.48 1564.07 1147.01 1564.07 Q1151.88 1564.07 1154.81 1560.63 Q1157.77 1557.16 1157.77 1551.43 L1157.77 1550.12 L1151.95 1550.12 M1163.63 1547.71 L1163.63 1568.04 L1157.77 1568.04 L1157.77 1562.63 Q1155.77 1565.88 1152.78 1567.44 Q1149.78 1568.97 1145.46 1568.97 Q1139.98 1568.97 1136.73 1565.91 Q1133.52 1562.82 1133.52 1557.67 Q1133.52 1551.65 1137.53 1548.6 Q1141.57 1545.54 1149.56 1545.54 L1157.77 1545.54 L1157.77 1544.97 Q1157.77 1540.93 1155.1 1538.73 Q1152.46 1536.5 1147.65 1536.5 Q1144.6 1536.5 1141.7 1537.23 Q1138.8 1537.97 1136.13 1539.43 L1136.13 1534.02 Q1139.34 1532.78 1142.37 1532.17 Q1145.39 1531.54 1148.26 1531.54 Q1155.99 1531.54 1159.81 1535.55 Q1163.63 1539.56 1163.63 1547.71 Z" fill="#000000" fill-rule="evenodd" fill-opacity="1" /><path clip-path="url(#clip050)" d="M1181.49 1522.27 L1181.49 1532.4 L1193.55 1532.4 L1193.55 1536.95 L1181.49 1536.95 L1181.49 1556.3 Q1181.49 1560.66 1182.66 1561.9 Q1183.87 1563.14 1187.53 1563.14 L1193.55 1563.14 L1193.55 1568.04 L1187.53 1568.04 Q1180.75 1568.04 1178.18 1565.53 Q1175.6 1562.98 1175.6 1556.3 L1175.6 1536.95 L1171.3 1536.95 L1171.3 1532.4 L1175.6 1532.4 L1175.6 1522.27 L1181.49 1522.27 Z" fill="#000000" fill-rule="evenodd" fill-opacity="1" /><path clip-path="url(#clip050)" d="M1201.25 1532.4 L1207.11 1532.4 L1207.11 1568.04 L1201.25 1568.04 L1201.25 1532.4 M1201.25 1518.52 L1207.11 1518.52 L1207.11 1525.93 L1201.25 1525.93 L1201.25 1518.52 Z" fill="#000000" fill-rule="evenodd" fill-opacity="1" /><path clip-path="url(#clip050)" d="M1233.17 1536.5 Q1228.46 1536.5 1225.73 1540.19 Q1222.99 1543.85 1222.99 1550.25 Q1222.99 1556.65 1225.7 1560.34 Q1228.43 1564 1233.17 1564 Q1237.85 1564 1240.59 1560.31 Q1243.33 1556.62 1243.33 1550.25 Q1243.33 1543.92 1240.59 1540.23 Q1237.85 1536.5 1233.17 1536.5 M1233.17 1531.54 Q1240.81 1531.54 1245.17 1536.5 Q1249.53 1541.47 1249.53 1550.25 Q1249.53 1559 1245.17 1564 Q1240.81 1568.97 1233.17 1568.97 Q1225.5 1568.97 1221.14 1564 Q1216.81 1559 1216.81 1550.25 Q1216.81 1541.47 1221.14 1536.5 Q1225.5 1531.54 1233.17 1531.54 Z" fill="#000000" fill-rule="evenodd" fill-opacity="1" /><path clip-path="url(#clip050)" d="M1288.87 1546.53 L1288.87 1568.04 L1283.02 1568.04 L1283.02 1546.72 Q1283.02 1541.66 1281.04 1539.14 Q1279.07 1536.63 1275.12 1536.63 Q1270.38 1536.63 1267.65 1539.65 Q1264.91 1542.68 1264.91 1547.9 L1264.91 1568.04 L1259.02 1568.04 L1259.02 1532.4 L1264.91 1532.4 L1264.91 1537.93 Q1267.01 1534.72 1269.84 1533.13 Q1272.71 1531.54 1276.43 1531.54 Q1282.57 1531.54 1285.72 1535.36 Q1288.87 1539.14 1288.87 1546.53 Z" fill="#000000" fill-rule="evenodd" fill-opacity="1" /><path clip-path="url(#clip050)" d="M1321.53 1520.52 L1330.19 1520.52 L1351.26 1560.28 L1351.26 1520.52 L1357.5 1520.52 L1357.5 1568.04 L1348.84 1568.04 L1327.77 1528.29 L1327.77 1568.04 L1321.53 1568.04 L1321.53 1520.52 Z" fill="#000000" fill-rule="evenodd" fill-opacity="1" /><path clip-path="url(#clip050)" d="M1369.43 1553.98 L1369.43 1532.4 L1375.29 1532.4 L1375.29 1553.75 Q1375.29 1558.81 1377.26 1561.36 Q1379.24 1563.87 1383.18 1563.87 Q1387.93 1563.87 1390.66 1560.85 Q1393.43 1557.83 1393.43 1552.61 L1393.43 1532.4 L1399.29 1532.4 L1399.29 1568.04 L1393.43 1568.04 L1393.43 1562.57 Q1391.3 1565.82 1388.47 1567.41 Q1385.67 1568.97 1381.94 1568.97 Q1375.8 1568.97 1372.62 1565.15 Q1369.43 1561.33 1369.43 1553.98 M1384.17 1531.54 L1384.17 1531.54 Z" fill="#000000" fill-rule="evenodd" fill-opacity="1" /><path clip-path="url(#clip050)" d="M1439.11 1539.24 Q1441.3 1535.29 1444.36 1533.41 Q1447.41 1531.54 1451.55 1531.54 Q1457.12 1531.54 1460.14 1535.45 Q1463.17 1539.33 1463.17 1546.53 L1463.17 1568.04 L1457.28 1568.04 L1457.28 1546.72 Q1457.28 1541.59 1455.47 1539.11 Q1453.65 1536.63 1449.93 1536.63 Q1445.38 1536.63 1442.73 1539.65 Q1440.09 1542.68 1440.09 1547.9 L1440.09 1568.04 L1434.2 1568.04 L1434.2 1546.72 Q1434.2 1541.56 1432.39 1539.11 Q1430.58 1536.63 1426.79 1536.63 Q1422.3 1536.63 1419.66 1539.68 Q1417.02 1542.71 1417.02 1547.9 L1417.02 1568.04 L1411.13 1568.04 L1411.13 1532.4 L1417.02 1532.4 L1417.02 1537.93 Q1419.02 1534.66 1421.82 1533.1 Q1424.62 1531.54 1428.47 1531.54 Q1432.36 1531.54 1435.06 1533.51 Q1437.8 1535.48 1439.11 1539.24 Z" fill="#000000" fill-rule="evenodd" fill-opacity="1" /><path clip-path="url(#clip050)" d="M1500.44 1550.25 Q1500.44 1543.79 1497.77 1540.13 Q1495.12 1536.44 1490.48 1536.44 Q1485.83 1536.44 1483.16 1540.13 Q1480.51 1543.79 1480.51 1550.25 Q1480.51 1556.71 1483.16 1560.4 Q1485.83 1564.07 1490.48 1564.07 Q1495.12 1564.07 1497.77 1560.4 Q1500.44 1556.71 1500.44 1550.25 M1480.51 1537.81 Q1482.36 1534.62 1485.16 1533.1 Q1487.99 1531.54 1491.91 1531.54 Q1498.4 1531.54 1502.44 1536.69 Q1506.52 1541.85 1506.52 1550.25 Q1506.52 1558.65 1502.44 1563.81 Q1498.4 1568.97 1491.91 1568.97 Q1487.99 1568.97 1485.16 1567.44 Q1482.36 1565.88 1480.51 1562.7 L1480.51 1568.04 L1474.63 1568.04 L1474.63 1518.52 L1480.51 1518.52 L1480.51 1537.81 Z" fill="#000000" fill-rule="evenodd" fill-opacity="1" /><path clip-path="url(#clip050)" d="M1546.72 1548.76 L1546.72 1551.62 L1519.79 1551.62 Q1520.17 1557.67 1523.42 1560.85 Q1526.7 1564 1532.52 1564 Q1535.9 1564 1539.05 1563.17 Q1542.23 1562.35 1545.35 1560.69 L1545.35 1566.23 Q1542.2 1567.57 1538.89 1568.27 Q1535.58 1568.97 1532.17 1568.97 Q1523.64 1568.97 1518.64 1564 Q1513.68 1559.04 1513.68 1550.57 Q1513.68 1541.82 1518.39 1536.69 Q1523.13 1531.54 1531.15 1531.54 Q1538.35 1531.54 1542.52 1536.18 Q1546.72 1540.8 1546.72 1548.76 M1540.86 1547.04 Q1540.8 1542.23 1538.16 1539.37 Q1535.55 1536.5 1531.22 1536.5 Q1526.32 1536.5 1523.36 1539.27 Q1520.43 1542.04 1519.98 1547.07 L1540.86 1547.04 Z" fill="#000000" fill-rule="evenodd" fill-opacity="1" /><path clip-path="url(#clip050)" d="M1576.99 1537.87 Q1576 1537.3 1574.82 1537.04 Q1573.68 1536.76 1572.28 1536.76 Q1567.31 1536.76 1564.64 1540 Q1562 1543.22 1562 1549.27 L1562 1568.04 L1556.11 1568.04 L1556.11 1532.4 L1562 1532.4 L1562 1537.93 Q1563.84 1534.69 1566.8 1533.13 Q1569.76 1531.54 1573.99 1531.54 Q1574.6 1531.54 1575.33 1531.63 Q1576.06 1531.7 1576.95 1531.85 L1576.99 1537.87 Z" fill="#000000" fill-rule="evenodd" fill-opacity="1" /><polyline clip-path="url(#clip052)" style="stroke:#000000; stroke-linecap:butt; stroke-linejoin:round; stroke-width:2; stroke-opacity:0.1; fill:none" points="
  248.547,1257.54 2352.76,1257.54 
  "/>
<polyline clip-path="url(#clip052)" style="stroke:#000000; stroke-linecap:butt; stroke-linejoin:round; stroke-width:2; stroke-opacity:0.1; fill:none" points="
  248.547,998.615 2352.76,998.615 
  "/>
<polyline clip-path="url(#clip052)" style="stroke:#000000; stroke-linecap:butt; stroke-linejoin:round; stroke-width:2; stroke-opacity:0.1; fill:none" points="
  248.547,739.693 2352.76,739.693 
  "/>
<polyline clip-path="url(#clip052)" style="stroke:#000000; stroke-linecap:butt; stroke-linejoin:round; stroke-width:2; stroke-opacity:0.1; fill:none" points="
  248.547,480.771 2352.76,480.771 
  "/>
<polyline clip-path="url(#clip052)" style="stroke:#000000; stroke-linecap:butt; stroke-linejoin:round; stroke-width:2; stroke-opacity:0.1; fill:none" points="
  248.547,221.849 2352.76,221.849 
  "/>
<polyline clip-path="url(#clip050)" style="stroke:#000000; stroke-linecap:butt; stroke-linejoin:round; stroke-width:4; stroke-opacity:1; fill:none" points="
  248.547,1423.18 248.547,47.2441 
  "/>
<polyline clip-path="url(#clip050)" style="stroke:#000000; stroke-linecap:butt; stroke-linejoin:round; stroke-width:4; stroke-opacity:1; fill:none" points="
  248.547,1257.54 267.444,1257.54 
  "/>
<polyline clip-path="url(#clip050)" style="stroke:#000000; stroke-linecap:butt; stroke-linejoin:round; stroke-width:4; stroke-opacity:1; fill:none" points="
  248.547,998.615 267.444,998.615 
  "/>
<polyline clip-path="url(#clip050)" style="stroke:#000000; stroke-linecap:butt; stroke-linejoin:round; stroke-width:4; stroke-opacity:1; fill:none" points="
  248.547,739.693 267.444,739.693 
  "/>
<polyline clip-path="url(#clip050)" style="stroke:#000000; stroke-linecap:butt; stroke-linejoin:round; stroke-width:4; stroke-opacity:1; fill:none" points="
  248.547,480.771 267.444,480.771 
  "/>
<polyline clip-path="url(#clip050)" style="stroke:#000000; stroke-linecap:butt; stroke-linejoin:round; stroke-width:4; stroke-opacity:1; fill:none" points="
  248.547,221.849 267.444,221.849 
  "/>
<path clip-path="url(#clip050)" d="M126.205 1243.34 Q122.593 1243.34 120.765 1246.9 Q118.959 1250.44 118.959 1257.57 Q118.959 1264.68 120.765 1268.24 Q122.593 1271.78 126.205 1271.78 Q129.839 1271.78 131.644 1268.24 Q133.473 1264.68 133.473 1257.57 Q133.473 1250.44 131.644 1246.9 Q129.839 1243.34 126.205 1243.34 M126.205 1239.63 Q132.015 1239.63 135.07 1244.24 Q138.149 1248.82 138.149 1257.57 Q138.149 1266.3 135.07 1270.9 Q132.015 1275.49 126.205 1275.49 Q120.394 1275.49 117.316 1270.9 Q114.26 1266.3 114.26 1257.57 Q114.26 1248.82 117.316 1244.24 Q120.394 1239.63 126.205 1239.63 Z" fill="#000000" fill-rule="evenodd" fill-opacity="1" /><path clip-path="url(#clip050)" d="M146.366 1268.94 L151.251 1268.94 L151.251 1274.82 L146.366 1274.82 L146.366 1268.94 Z" fill="#000000" fill-rule="evenodd" fill-opacity="1" /><path clip-path="url(#clip050)" d="M160.255 1240.26 L182.477 1240.26 L182.477 1242.25 L169.931 1274.82 L165.047 1274.82 L176.852 1244.19 L160.255 1244.19 L160.255 1240.26 Z" fill="#000000" fill-rule="evenodd" fill-opacity="1" /><path clip-path="url(#clip050)" d="M191.644 1240.26 L210 1240.26 L210 1244.19 L195.926 1244.19 L195.926 1252.66 Q196.945 1252.32 197.963 1252.15 Q198.982 1251.97 200 1251.97 Q205.787 1251.97 209.167 1255.14 Q212.547 1258.31 212.547 1263.73 Q212.547 1269.31 209.074 1272.41 Q205.602 1275.49 199.283 1275.49 Q197.107 1275.49 194.838 1275.12 Q192.593 1274.75 190.186 1274.01 L190.186 1269.31 Q192.269 1270.44 194.491 1271 Q196.713 1271.55 199.19 1271.55 Q203.195 1271.55 205.533 1269.45 Q207.871 1267.34 207.871 1263.73 Q207.871 1260.12 205.533 1258.01 Q203.195 1255.9 199.19 1255.9 Q197.315 1255.9 195.44 1256.32 Q193.588 1256.74 191.644 1257.62 L191.644 1240.26 Z" fill="#000000" fill-rule="evenodd" fill-opacity="1" /><path clip-path="url(#clip050)" d="M116.019 1011.96 L123.658 1011.96 L123.658 985.594 L115.348 987.261 L115.348 983.001 L123.612 981.335 L128.288 981.335 L128.288 1011.96 L135.927 1011.96 L135.927 1015.89 L116.019 1015.89 L116.019 1011.96 Z" fill="#000000" fill-rule="evenodd" fill-opacity="1" /><path clip-path="url(#clip050)" d="M145.371 1010.02 L150.255 1010.02 L150.255 1015.89 L145.371 1015.89 L145.371 1010.02 Z" fill="#000000" fill-rule="evenodd" fill-opacity="1" /><path clip-path="url(#clip050)" d="M170.44 984.413 Q166.829 984.413 165.001 987.978 Q163.195 991.52 163.195 998.649 Q163.195 1005.76 165.001 1009.32 Q166.829 1012.86 170.44 1012.86 Q174.075 1012.86 175.88 1009.32 Q177.709 1005.76 177.709 998.649 Q177.709 991.52 175.88 987.978 Q174.075 984.413 170.44 984.413 M170.44 980.71 Q176.251 980.71 179.306 985.316 Q182.385 989.899 182.385 998.649 Q182.385 1007.38 179.306 1011.98 Q176.251 1016.57 170.44 1016.57 Q164.63 1016.57 161.552 1011.98 Q158.496 1007.38 158.496 998.649 Q158.496 989.899 161.552 985.316 Q164.63 980.71 170.44 980.71 Z" fill="#000000" fill-rule="evenodd" fill-opacity="1" /><path clip-path="url(#clip050)" d="M200.602 984.413 Q196.991 984.413 195.163 987.978 Q193.357 991.52 193.357 998.649 Q193.357 1005.76 195.163 1009.32 Q196.991 1012.86 200.602 1012.86 Q204.237 1012.86 206.042 1009.32 Q207.871 1005.76 207.871 998.649 Q207.871 991.52 206.042 987.978 Q204.237 984.413 200.602 984.413 M200.602 980.71 Q206.412 980.71 209.468 985.316 Q212.547 989.899 212.547 998.649 Q212.547 1007.38 209.468 1011.98 Q206.412 1016.57 200.602 1016.57 Q194.792 1016.57 191.713 1011.98 Q188.658 1007.38 188.658 998.649 Q188.658 989.899 191.713 985.316 Q194.792 980.71 200.602 980.71 Z" fill="#000000" fill-rule="evenodd" fill-opacity="1" /><path clip-path="url(#clip050)" d="M117.015 753.038 L124.654 753.038 L124.654 726.672 L116.343 728.339 L116.343 724.079 L124.607 722.413 L129.283 722.413 L129.283 753.038 L136.922 753.038 L136.922 756.973 L117.015 756.973 L117.015 753.038 Z" fill="#000000" fill-rule="evenodd" fill-opacity="1" /><path clip-path="url(#clip050)" d="M146.366 751.093 L151.251 751.093 L151.251 756.973 L146.366 756.973 L146.366 751.093 Z" fill="#000000" fill-rule="evenodd" fill-opacity="1" /><path clip-path="url(#clip050)" d="M165.464 753.038 L181.783 753.038 L181.783 756.973 L159.839 756.973 L159.839 753.038 Q162.501 750.283 167.084 745.653 Q171.69 741.001 172.871 739.658 Q175.116 737.135 175.996 735.399 Q176.899 733.64 176.899 731.95 Q176.899 729.195 174.954 727.459 Q173.033 725.723 169.931 725.723 Q167.732 725.723 165.278 726.487 Q162.848 727.251 160.07 728.802 L160.07 724.079 Q162.894 722.945 165.348 722.366 Q167.802 721.788 169.839 721.788 Q175.209 721.788 178.403 724.473 Q181.598 727.158 181.598 731.649 Q181.598 733.778 180.788 735.7 Q180.001 737.598 177.894 740.19 Q177.315 740.862 174.214 744.079 Q171.112 747.274 165.464 753.038 Z" fill="#000000" fill-rule="evenodd" fill-opacity="1" /><path clip-path="url(#clip050)" d="M191.644 722.413 L210 722.413 L210 726.348 L195.926 726.348 L195.926 734.82 Q196.945 734.473 197.963 734.311 Q198.982 734.126 200 734.126 Q205.787 734.126 209.167 737.297 Q212.547 740.468 212.547 745.885 Q212.547 751.463 209.074 754.565 Q205.602 757.644 199.283 757.644 Q197.107 757.644 194.838 757.274 Q192.593 756.903 190.186 756.163 L190.186 751.463 Q192.269 752.598 194.491 753.153 Q196.713 753.709 199.19 753.709 Q203.195 753.709 205.533 751.602 Q207.871 749.496 207.871 745.885 Q207.871 742.274 205.533 740.167 Q203.195 738.061 199.19 738.061 Q197.315 738.061 195.44 738.477 Q193.588 738.894 191.644 739.774 L191.644 722.413 Z" fill="#000000" fill-rule="evenodd" fill-opacity="1" /><path clip-path="url(#clip050)" d="M116.019 494.116 L123.658 494.116 L123.658 467.75 L115.348 469.417 L115.348 465.157 L123.612 463.491 L128.288 463.491 L128.288 494.116 L135.927 494.116 L135.927 498.051 L116.019 498.051 L116.019 494.116 Z" fill="#000000" fill-rule="evenodd" fill-opacity="1" /><path clip-path="url(#clip050)" d="M145.371 492.171 L150.255 492.171 L150.255 498.051 L145.371 498.051 L145.371 492.171 Z" fill="#000000" fill-rule="evenodd" fill-opacity="1" /><path clip-path="url(#clip050)" d="M160.487 463.491 L178.843 463.491 L178.843 467.426 L164.769 467.426 L164.769 475.898 Q165.788 475.551 166.806 475.389 Q167.825 475.204 168.843 475.204 Q174.63 475.204 178.01 478.375 Q181.389 481.546 181.389 486.963 Q181.389 492.542 177.917 495.643 Q174.445 498.722 168.126 498.722 Q165.95 498.722 163.681 498.352 Q161.436 497.981 159.028 497.241 L159.028 492.542 Q161.112 493.676 163.334 494.231 Q165.556 494.787 168.033 494.787 Q172.038 494.787 174.376 492.68 Q176.714 490.574 176.714 486.963 Q176.714 483.352 174.376 481.245 Q172.038 479.139 168.033 479.139 Q166.158 479.139 164.283 479.555 Q162.431 479.972 160.487 480.852 L160.487 463.491 Z" fill="#000000" fill-rule="evenodd" fill-opacity="1" /><path clip-path="url(#clip050)" d="M200.602 466.569 Q196.991 466.569 195.163 470.134 Q193.357 473.676 193.357 480.805 Q193.357 487.912 195.163 491.477 Q196.991 495.018 200.602 495.018 Q204.237 495.018 206.042 491.477 Q207.871 487.912 207.871 480.805 Q207.871 473.676 206.042 470.134 Q204.237 466.569 200.602 466.569 M200.602 462.866 Q206.412 462.866 209.468 467.472 Q212.547 472.056 212.547 480.805 Q212.547 489.532 209.468 494.139 Q206.412 498.722 200.602 498.722 Q194.792 498.722 191.713 494.139 Q188.658 489.532 188.658 480.805 Q188.658 472.056 191.713 467.472 Q194.792 462.866 200.602 462.866 Z" fill="#000000" fill-rule="evenodd" fill-opacity="1" /><path clip-path="url(#clip050)" d="M117.015 235.194 L124.654 235.194 L124.654 208.828 L116.343 210.495 L116.343 206.235 L124.607 204.569 L129.283 204.569 L129.283 235.194 L136.922 235.194 L136.922 239.129 L117.015 239.129 L117.015 235.194 Z" fill="#000000" fill-rule="evenodd" fill-opacity="1" /><path clip-path="url(#clip050)" d="M146.366 233.249 L151.251 233.249 L151.251 239.129 L146.366 239.129 L146.366 233.249 Z" fill="#000000" fill-rule="evenodd" fill-opacity="1" /><path clip-path="url(#clip050)" d="M160.255 204.569 L182.477 204.569 L182.477 206.56 L169.931 239.129 L165.047 239.129 L176.852 208.504 L160.255 208.504 L160.255 204.569 Z" fill="#000000" fill-rule="evenodd" fill-opacity="1" /><path clip-path="url(#clip050)" d="M191.644 204.569 L210 204.569 L210 208.504 L195.926 208.504 L195.926 216.976 Q196.945 216.629 197.963 216.467 Q198.982 216.282 200 216.282 Q205.787 216.282 209.167 219.453 Q212.547 222.624 212.547 228.041 Q212.547 233.62 209.074 236.721 Q205.602 239.8 199.283 239.8 Q197.107 239.8 194.838 239.43 Q192.593 239.059 190.186 238.319 L190.186 233.62 Q192.269 234.754 194.491 235.309 Q196.713 235.865 199.19 235.865 Q203.195 235.865 205.533 233.758 Q207.871 231.652 207.871 228.041 Q207.871 224.43 205.533 222.323 Q203.195 220.217 199.19 220.217 Q197.315 220.217 195.44 220.634 Q193.588 221.05 191.644 221.93 L191.644 204.569 Z" fill="#000000" fill-rule="evenodd" fill-opacity="1" /><path clip-path="url(#clip050)" d="M20.8447 1070.92 Q20.8447 1077.93 26.0645 1082.06 Q31.2844 1086.17 40.2919 1086.17 Q49.2675 1086.17 54.4874 1082.06 Q59.7073 1077.93 59.7073 1070.92 Q59.7073 1063.92 54.4874 1059.85 Q49.2675 1055.74 40.2919 1055.74 Q31.2844 1055.74 26.0645 1059.85 Q20.8447 1063.92 20.8447 1070.92 M15.6248 1070.92 Q15.6248 1060.93 22.3406 1054.95 Q29.0246 1048.96 40.2919 1048.96 Q51.5274 1048.96 58.2432 1054.95 Q64.9272 1060.93 64.9272 1070.92 Q64.9272 1080.95 58.2432 1086.97 Q51.5592 1092.95 40.2919 1092.95 Q29.0246 1092.95 22.3406 1086.97 Q15.6248 1080.95 15.6248 1070.92 Z" fill="#000000" fill-rule="evenodd" fill-opacity="1" /><path clip-path="url(#clip050)" d="M29.4065 1016.43 L34.9447 1016.43 Q33.6716 1018.92 33.035 1021.59 Q32.3984 1024.26 32.3984 1027.13 Q32.3984 1031.49 33.7352 1033.68 Q35.072 1035.85 37.7456 1035.85 Q39.7826 1035.85 40.9603 1034.29 Q42.1061 1032.73 43.1565 1028.02 L43.6021 1026.01 Q44.9389 1019.77 47.3897 1017.17 Q49.8086 1014.52 54.1691 1014.52 Q59.1344 1014.52 62.0308 1018.47 Q64.9272 1022.38 64.9272 1029.26 Q64.9272 1032.12 64.3543 1035.24 Q63.8132 1038.33 62.6992 1041.77 L56.6518 1041.77 Q58.3387 1038.52 59.198 1035.37 Q60.0256 1032.22 60.0256 1029.13 Q60.0256 1024.99 58.6251 1022.77 Q57.1929 1020.54 54.6147 1020.54 Q52.2276 1020.54 50.9545 1022.16 Q49.6813 1023.75 48.5037 1029.2 L48.0262 1031.23 Q46.8804 1036.68 44.5251 1039.09 Q42.138 1041.51 38.0002 1041.51 Q32.9713 1041.51 30.2341 1037.95 Q27.4968 1034.38 27.4968 1027.83 Q27.4968 1024.58 27.9743 1021.72 Q28.4517 1018.85 29.4065 1016.43 Z" fill="#000000" fill-rule="evenodd" fill-opacity="1" /><path clip-path="url(#clip050)" d="M35.1993 977.443 Q31.2526 975.247 29.3747 972.191 Q27.4968 969.136 27.4968 964.998 Q27.4968 959.428 31.4117 956.404 Q35.2948 953.381 42.4881 953.381 L64.0042 953.381 L64.0042 959.269 L42.679 959.269 Q37.5546 959.269 35.072 961.083 Q32.5894 962.897 32.5894 966.621 Q32.5894 971.173 35.6131 973.815 Q38.6368 976.456 43.8567 976.456 L64.0042 976.456 L64.0042 982.345 L42.679 982.345 Q37.5228 982.345 35.072 984.159 Q32.5894 985.973 32.5894 989.761 Q32.5894 994.248 35.6449 996.89 Q38.6686 999.532 43.8567 999.532 L64.0042 999.532 L64.0042 1005.42 L28.3562 1005.42 L28.3562 999.532 L33.8944 999.532 Q30.616 997.527 29.0564 994.726 Q27.4968 991.925 27.4968 988.074 Q27.4968 984.191 29.4702 981.485 Q31.4436 978.748 35.1993 977.443 Z" fill="#000000" fill-rule="evenodd" fill-opacity="1" /><path clip-path="url(#clip050)" d="M32.4621 927.886 Q32.4621 932.597 36.1542 935.334 Q39.8145 938.071 46.212 938.071 Q52.6095 938.071 56.3017 935.366 Q59.9619 932.628 59.9619 927.886 Q59.9619 923.207 56.2698 920.47 Q52.5777 917.733 46.212 917.733 Q39.8781 917.733 36.186 920.47 Q32.4621 923.207 32.4621 927.886 M27.4968 927.886 Q27.4968 920.247 32.4621 915.887 Q37.4273 911.526 46.212 911.526 Q54.9649 911.526 59.9619 915.887 Q64.9272 920.247 64.9272 927.886 Q64.9272 935.557 59.9619 939.917 Q54.9649 944.246 46.212 944.246 Q37.4273 944.246 32.4621 939.917 Q27.4968 935.557 27.4968 927.886 Z" fill="#000000" fill-rule="evenodd" fill-opacity="1" /><path clip-path="url(#clip050)" d="M18.2347 896.026 L28.3562 896.026 L28.3562 883.963 L32.9077 883.963 L32.9077 896.026 L52.2594 896.026 Q56.6199 896.026 57.8613 894.848 Q59.1026 893.638 59.1026 889.978 L59.1026 883.963 L64.0042 883.963 L64.0042 889.978 Q64.0042 896.758 61.4897 899.336 Q58.9434 901.914 52.2594 901.914 L32.9077 901.914 L32.9077 906.211 L28.3562 906.211 L28.3562 901.914 L18.2347 901.914 L18.2347 896.026 Z" fill="#000000" fill-rule="evenodd" fill-opacity="1" /><path clip-path="url(#clip050)" d="M28.3562 876.26 L28.3562 870.404 L64.0042 870.404 L64.0042 876.26 L28.3562 876.26 M14.479 876.26 L14.479 870.404 L21.895 870.404 L21.895 876.26 L14.479 876.26 Z" fill="#000000" fill-rule="evenodd" fill-opacity="1" /><path clip-path="url(#clip050)" d="M29.7248 832.496 L35.1993 832.496 Q33.8307 834.979 33.1623 837.493 Q32.4621 839.976 32.4621 842.522 Q32.4621 848.219 36.0905 851.37 Q39.6872 854.521 46.212 854.521 Q52.7369 854.521 56.3653 851.37 Q59.9619 848.219 59.9619 842.522 Q59.9619 839.976 59.2935 837.493 Q58.5933 834.979 57.2247 832.496 L62.6355 832.496 Q63.7814 834.947 64.3543 837.588 Q64.9272 840.198 64.9272 843.158 Q64.9272 851.211 59.8664 855.954 Q54.8057 860.696 46.212 860.696 Q37.491 860.696 32.4939 855.922 Q27.4968 851.116 27.4968 842.776 Q27.4968 840.071 28.0697 837.493 Q28.6108 834.915 29.7248 832.496 Z" fill="#000000" fill-rule="evenodd" fill-opacity="1" /><path clip-path="url(#clip050)" d="M29.7248 775.937 L35.1993 775.937 Q33.8307 778.419 33.1623 780.934 Q32.4621 783.416 32.4621 785.963 Q32.4621 791.66 36.0905 794.811 Q39.6872 797.962 46.212 797.962 Q52.7369 797.962 56.3653 794.811 Q59.9619 791.66 59.9619 785.963 Q59.9619 783.416 59.2935 780.934 Q58.5933 778.419 57.2247 775.937 L62.6355 775.937 Q63.7814 778.387 64.3543 781.029 Q64.9272 783.639 64.9272 786.599 Q64.9272 794.652 59.8664 799.394 Q54.8057 804.137 46.212 804.137 Q37.491 804.137 32.4939 799.362 Q27.4968 794.556 27.4968 786.217 Q27.4968 783.512 28.0697 780.934 Q28.6108 778.356 29.7248 775.937 Z" fill="#000000" fill-rule="evenodd" fill-opacity="1" /><path clip-path="url(#clip050)" d="M32.4621 751.938 Q32.4621 756.648 36.1542 759.386 Q39.8145 762.123 46.212 762.123 Q52.6095 762.123 56.3017 759.418 Q59.9619 756.68 59.9619 751.938 Q59.9619 747.259 56.2698 744.522 Q52.5777 741.785 46.212 741.785 Q39.8781 741.785 36.186 744.522 Q32.4621 747.259 32.4621 751.938 M27.4968 751.938 Q27.4968 744.299 32.4621 739.939 Q37.4273 735.578 46.212 735.578 Q54.9649 735.578 59.9619 739.939 Q64.9272 744.299 64.9272 751.938 Q64.9272 759.609 59.9619 763.969 Q54.9649 768.298 46.212 768.298 Q37.4273 768.298 32.4621 763.969 Q27.4968 759.609 27.4968 751.938 Z" fill="#000000" fill-rule="evenodd" fill-opacity="1" /><path clip-path="url(#clip050)" d="M44.7161 695.379 L47.5806 695.379 L47.5806 722.305 Q53.6281 721.924 56.8109 718.677 Q59.9619 715.399 59.9619 709.574 Q59.9619 706.2 59.1344 703.049 Q58.3069 699.866 56.6518 696.747 L62.1899 696.747 Q63.5267 699.898 64.227 703.208 Q64.9272 706.519 64.9272 709.924 Q64.9272 718.454 59.9619 723.451 Q54.9967 728.417 46.5303 728.417 Q37.7774 728.417 32.6531 723.706 Q27.4968 718.964 27.4968 710.943 Q27.4968 703.749 32.1438 699.58 Q36.7589 695.379 44.7161 695.379 M42.9973 701.235 Q38.1912 701.299 35.3266 703.94 Q32.4621 706.55 32.4621 710.879 Q32.4621 715.781 35.2312 718.741 Q38.0002 721.669 43.0292 722.115 L42.9973 701.235 Z" fill="#000000" fill-rule="evenodd" fill-opacity="1" /><path clip-path="url(#clip050)" d="M14.479 667.72 L19.3487 667.72 L19.3487 673.321 Q19.3487 676.472 20.6219 677.714 Q21.895 678.923 25.2052 678.923 L28.3562 678.923 L28.3562 669.279 L32.9077 669.279 L32.9077 678.923 L64.0042 678.923 L64.0042 684.811 L32.9077 684.811 L32.9077 690.413 L28.3562 690.413 L28.3562 684.811 L25.8736 684.811 Q19.9216 684.811 17.2162 682.042 Q14.479 679.273 14.479 673.258 L14.479 667.72 Z" fill="#000000" fill-rule="evenodd" fill-opacity="1" /><path clip-path="url(#clip050)" d="M14.479 644.771 L19.3487 644.771 L19.3487 650.373 Q19.3487 653.524 20.6219 654.765 Q21.895 655.975 25.2052 655.975 L28.3562 655.975 L28.3562 646.331 L32.9077 646.331 L32.9077 655.975 L64.0042 655.975 L64.0042 661.863 L32.9077 661.863 L32.9077 667.465 L28.3562 667.465 L28.3562 661.863 L25.8736 661.863 Q19.9216 661.863 17.2162 659.094 Q14.479 656.325 14.479 650.309 L14.479 644.771 Z" fill="#000000" fill-rule="evenodd" fill-opacity="1" /><path clip-path="url(#clip050)" d="M28.3562 639.87 L28.3562 634.013 L64.0042 634.013 L64.0042 639.87 L28.3562 639.87 M14.479 639.87 L14.479 634.013 L21.895 634.013 L21.895 639.87 L14.479 639.87 Z" fill="#000000" fill-rule="evenodd" fill-opacity="1" /><path clip-path="url(#clip050)" d="M29.7248 596.105 L35.1993 596.105 Q33.8307 598.588 33.1623 601.102 Q32.4621 603.585 32.4621 606.131 Q32.4621 611.829 36.0905 614.98 Q39.6872 618.131 46.212 618.131 Q52.7369 618.131 56.3653 614.98 Q59.9619 611.829 59.9619 606.131 Q59.9619 603.585 59.2935 601.102 Q58.5933 598.588 57.2247 596.105 L62.6355 596.105 Q63.7814 598.556 64.3543 601.198 Q64.9272 603.808 64.9272 606.768 Q64.9272 614.821 59.8664 619.563 Q54.8057 624.305 46.212 624.305 Q37.491 624.305 32.4939 619.531 Q27.4968 614.725 27.4968 606.386 Q27.4968 603.681 28.0697 601.102 Q28.6108 598.524 29.7248 596.105 Z" fill="#000000" fill-rule="evenodd" fill-opacity="1" /><path clip-path="url(#clip050)" d="M28.3562 585.92 L28.3562 580.064 L64.0042 580.064 L64.0042 585.92 L28.3562 585.92 M14.479 585.92 L14.479 580.064 L21.895 580.064 L21.895 585.92 L14.479 585.92 Z" fill="#000000" fill-rule="evenodd" fill-opacity="1" /><path clip-path="url(#clip050)" d="M44.7161 537.318 L47.5806 537.318 L47.5806 564.245 Q53.6281 563.863 56.8109 560.617 Q59.9619 557.338 59.9619 551.514 Q59.9619 548.14 59.1344 544.989 Q58.3069 541.806 56.6518 538.687 L62.1899 538.687 Q63.5267 541.838 64.227 545.148 Q64.9272 548.458 64.9272 551.864 Q64.9272 560.394 59.9619 565.391 Q54.9967 570.356 46.5303 570.356 Q37.7774 570.356 32.6531 565.645 Q27.4968 560.903 27.4968 552.882 Q27.4968 545.689 32.1438 541.519 Q36.7589 537.318 44.7161 537.318 M42.9973 543.175 Q38.1912 543.238 35.3266 545.88 Q32.4621 548.49 32.4621 552.819 Q32.4621 557.72 35.2312 560.68 Q38.0002 563.608 43.0292 564.054 L42.9973 543.175 Z" fill="#000000" fill-rule="evenodd" fill-opacity="1" /><path clip-path="url(#clip050)" d="M42.4881 498.073 L64.0042 498.073 L64.0042 503.93 L42.679 503.93 Q37.6183 503.93 35.1038 505.903 Q32.5894 507.877 32.5894 511.823 Q32.5894 516.566 35.6131 519.303 Q38.6368 522.04 43.8567 522.04 L64.0042 522.04 L64.0042 527.929 L28.3562 527.929 L28.3562 522.04 L33.8944 522.04 Q30.6797 519.94 29.0883 517.107 Q27.4968 514.242 27.4968 510.518 Q27.4968 504.376 31.3163 501.225 Q35.1038 498.073 42.4881 498.073 Z" fill="#000000" fill-rule="evenodd" fill-opacity="1" /><path clip-path="url(#clip050)" d="M18.2347 480.6 L28.3562 480.6 L28.3562 468.537 L32.9077 468.537 L32.9077 480.6 L52.2594 480.6 Q56.6199 480.6 57.8613 479.422 Q59.1026 478.212 59.1026 474.552 L59.1026 468.537 L64.0042 468.537 L64.0042 474.552 Q64.0042 481.332 61.4897 483.91 Q58.9434 486.488 52.2594 486.488 L32.9077 486.488 L32.9077 490.785 L28.3562 490.785 L28.3562 486.488 L18.2347 486.488 L18.2347 480.6 Z" fill="#000000" fill-rule="evenodd" fill-opacity="1" /><path clip-path="url(#clip050)" d="M14.479 440.655 L14.479 427.16 L19.0304 427.16 L19.0304 434.798 L68.0464 434.798 L68.0464 427.16 L72.5979 427.16 L72.5979 440.655 L14.479 440.655 Z" fill="#000000" fill-rule="evenodd" fill-opacity="1" /><path clip-path="url(#clip050)" d="M43.5384 417.643 L43.5384 400.487 L48.7583 400.487 L48.7583 417.643 L43.5384 417.643 Z" fill="#000000" fill-rule="evenodd" fill-opacity="1" /><path clip-path="url(#clip050)" d="M14.479 377.475 L72.5979 377.475 L72.5979 390.97 L68.0464 390.97 L68.0464 383.363 L19.0304 383.363 L19.0304 390.97 L14.479 390.97 L14.479 377.475 Z" fill="#000000" fill-rule="evenodd" fill-opacity="1" /><polyline clip-path="url(#clip052)" style="stroke:#009af9; stroke-linecap:butt; stroke-linejoin:round; stroke-width:4; stroke-opacity:1; fill:none" points="
  308.1,371.636 528.667,505.63 749.234,86.1857 969.801,800.807 1190.37,1002.49 1410.93,1139.97 1631.5,1223.14 1852.07,1281.35 2072.64,1334.87 2293.2,1384.24 
  
  "/>
<path clip-path="url(#clip052)" d="M308.1 355.636 L304.34 366.452 L292.884 366.692 L302.02 373.62 L298.692 384.58 L308.1 378.036 L317.508 384.58 L314.18 373.62 L323.316 366.692 L311.86 366.452 L308.1 355.636 Z" fill="#009af9" fill-rule="evenodd" fill-opacity="1" stroke="#000000" stroke-opacity="1" stroke-width="3.2"/>
<path clip-path="url(#clip052)" d="M528.667 489.63 L524.907 500.446 L513.451 500.686 L522.587 507.614 L519.259 518.574 L528.667 512.03 L538.075 518.574 L534.747 507.614 L543.883 500.686 L532.427 500.446 L528.667 489.63 Z" fill="#009af9" fill-rule="evenodd" fill-opacity="1" stroke="#000000" stroke-opacity="1" stroke-width="3.2"/>
<path clip-path="url(#clip052)" d="M749.234 70.1857 L745.474 81.0017 L734.018 81.2417 L743.154 88.1697 L739.826 99.1297 L749.234 92.5857 L758.642 99.1297 L755.314 88.1697 L764.45 81.2417 L752.994 81.0017 L749.234 70.1857 Z" fill="#009af9" fill-rule="evenodd" fill-opacity="1" stroke="#000000" stroke-opacity="1" stroke-width="3.2"/>
<path clip-path="url(#clip052)" d="M969.801 784.807 L966.041 795.623 L954.585 795.863 L963.721 802.791 L960.393 813.751 L969.801 807.207 L979.209 813.751 L975.881 802.791 L985.017 795.863 L973.561 795.623 L969.801 784.807 Z" fill="#009af9" fill-rule="evenodd" fill-opacity="1" stroke="#000000" stroke-opacity="1" stroke-width="3.2"/>
<path clip-path="url(#clip052)" d="M1190.37 986.493 L1186.61 997.309 L1175.15 997.549 L1184.29 1004.48 L1180.96 1015.44 L1190.37 1008.89 L1199.78 1015.44 L1196.45 1004.48 L1205.58 997.549 L1194.13 997.309 L1190.37 986.493 Z" fill="#009af9" fill-rule="evenodd" fill-opacity="1" stroke="#000000" stroke-opacity="1" stroke-width="3.2"/>
<path clip-path="url(#clip052)" d="M1410.93 1123.97 L1407.17 1134.78 L1395.72 1135.02 L1404.85 1141.95 L1401.53 1152.91 L1410.93 1146.37 L1420.34 1152.91 L1417.01 1141.95 L1426.15 1135.02 L1414.69 1134.78 L1410.93 1123.97 Z" fill="#009af9" fill-rule="evenodd" fill-opacity="1" stroke="#000000" stroke-opacity="1" stroke-width="3.2"/>
<path clip-path="url(#clip052)" d="M1631.5 1207.14 L1627.74 1217.96 L1616.29 1218.2 L1625.42 1225.12 L1622.09 1236.08 L1631.5 1229.54 L1640.91 1236.08 L1637.58 1225.12 L1646.72 1218.2 L1635.26 1217.96 L1631.5 1207.14 Z" fill="#009af9" fill-rule="evenodd" fill-opacity="1" stroke="#000000" stroke-opacity="1" stroke-width="3.2"/>
<path clip-path="url(#clip052)" d="M1852.07 1265.35 L1848.31 1276.17 L1836.85 1276.41 L1845.99 1283.33 L1842.66 1294.29 L1852.07 1287.75 L1861.48 1294.29 L1858.15 1283.33 L1867.28 1276.41 L1855.83 1276.17 L1852.07 1265.35 Z" fill="#009af9" fill-rule="evenodd" fill-opacity="1" stroke="#000000" stroke-opacity="1" stroke-width="3.2"/>
<path clip-path="url(#clip052)" d="M2072.64 1318.87 L2068.88 1329.69 L2057.42 1329.93 L2066.56 1336.86 L2063.23 1347.82 L2072.64 1341.27 L2082.04 1347.82 L2078.72 1336.86 L2087.85 1329.93 L2076.4 1329.69 L2072.64 1318.87 Z" fill="#009af9" fill-rule="evenodd" fill-opacity="1" stroke="#000000" stroke-opacity="1" stroke-width="3.2"/>
<path clip-path="url(#clip052)" d="M2293.2 1368.24 L2289.44 1379.05 L2277.99 1379.29 L2287.12 1386.22 L2283.79 1397.18 L2293.2 1390.64 L2302.61 1397.18 L2299.28 1386.22 L2308.42 1379.29 L2296.96 1379.05 L2293.2 1368.24 Z" fill="#009af9" fill-rule="evenodd" fill-opacity="1" stroke="#000000" stroke-opacity="1" stroke-width="3.2"/>
<polyline clip-path="url(#clip052)" style="stroke:#e26f46; stroke-linecap:butt; stroke-linejoin:round; stroke-width:4; stroke-opacity:1; fill:none" points="
  -1855.66,1102.18 4456.97,1102.18 
  "/>
<path clip-path="url(#clip050)" d="
M1680.78 248.629 L2282.62 248.629 L2282.62 93.1086 L1680.78 93.1086  Z
  " fill="#ffffff" fill-rule="evenodd" fill-opacity="1"/>
<polyline clip-path="url(#clip050)" style="stroke:#000000; stroke-linecap:butt; stroke-linejoin:round; stroke-width:4; stroke-opacity:1; fill:none" points="
  1680.78,248.629 2282.62,248.629 2282.62,93.1086 1680.78,93.1086 1680.78,248.629 
  "/>
<polyline clip-path="url(#clip050)" style="stroke:#009af9; stroke-linecap:butt; stroke-linejoin:round; stroke-width:4; stroke-opacity:1; fill:none" points="
  1704.16,144.949 1844.44,144.949 
  "/>
<path clip-path="url(#clip050)" d="M1774.3 119.349 L1768.29 136.654 L1749.96 137.038 L1764.58 148.123 L1759.25 165.659 L1774.3 155.189 L1789.36 165.659 L1784.03 148.123 L1798.65 137.038 L1780.32 136.654 L1774.3 119.349 Z" fill="#009af9" fill-rule="evenodd" fill-opacity="1" stroke="#000000" stroke-opacity="1" stroke-width="5.12"/>
<path clip-path="url(#clip050)" d="M1867.82 127.669 L1889.68 127.669 L1889.68 131.604 L1872.5 131.604 L1872.5 141.835 L1888.96 141.835 L1888.96 145.77 L1872.5 145.77 L1872.5 158.293 L1890.09 158.293 L1890.09 162.229 L1867.82 162.229 L1867.82 127.669 Z" fill="#000000" fill-rule="evenodd" fill-opacity="1" /><path clip-path="url(#clip050)" d="M1919.14 146.581 L1919.14 162.229 L1914.88 162.229 L1914.88 146.719 Q1914.88 143.039 1913.45 141.21 Q1912.01 139.382 1909.14 139.382 Q1905.7 139.382 1903.7 141.581 Q1901.71 143.78 1901.71 147.576 L1901.71 162.229 L1897.43 162.229 L1897.43 136.303 L1901.71 136.303 L1901.71 140.331 Q1903.24 137.993 1905.3 136.835 Q1907.38 135.678 1910.09 135.678 Q1914.56 135.678 1916.85 138.456 Q1919.14 141.21 1919.14 146.581 Z" fill="#000000" fill-rule="evenodd" fill-opacity="1" /><path clip-path="url(#clip050)" d="M1944.17 137.067 L1944.17 141.094 Q1942.36 140.169 1940.42 139.706 Q1938.47 139.243 1936.39 139.243 Q1933.22 139.243 1931.62 140.215 Q1930.05 141.187 1930.05 143.131 Q1930.05 144.613 1931.18 145.469 Q1932.32 146.303 1935.74 147.067 L1937.2 147.391 Q1941.74 148.363 1943.63 150.145 Q1945.56 151.905 1945.56 155.076 Q1945.56 158.687 1942.69 160.793 Q1939.84 162.9 1934.84 162.9 Q1932.76 162.9 1930.49 162.483 Q1928.24 162.09 1925.74 161.28 L1925.74 156.881 Q1928.1 158.108 1930.39 158.733 Q1932.69 159.335 1934.93 159.335 Q1937.94 159.335 1939.56 158.317 Q1941.18 157.275 1941.18 155.4 Q1941.18 153.664 1940 152.738 Q1938.84 151.812 1934.88 150.956 L1933.4 150.608 Q1929.44 149.775 1927.69 148.062 Q1925.93 146.326 1925.93 143.317 Q1925.93 139.659 1928.52 137.669 Q1931.11 135.678 1935.88 135.678 Q1938.24 135.678 1940.32 136.025 Q1942.41 136.372 1944.17 137.067 Z" fill="#000000" fill-rule="evenodd" fill-opacity="1" /><path clip-path="url(#clip050)" d="M1974.51 148.201 L1974.51 150.284 L1954.93 150.284 Q1955.21 154.682 1957.57 156.997 Q1959.95 159.289 1964.19 159.289 Q1966.64 159.289 1968.94 158.687 Q1971.25 158.085 1973.52 156.881 L1973.52 160.909 Q1971.23 161.881 1968.82 162.391 Q1966.41 162.9 1963.94 162.9 Q1957.73 162.9 1954.1 159.289 Q1950.49 155.678 1950.49 149.52 Q1950.49 143.155 1953.91 139.428 Q1957.36 135.678 1963.19 135.678 Q1968.43 135.678 1971.46 139.057 Q1974.51 142.414 1974.51 148.201 M1970.25 146.951 Q1970.21 143.456 1968.29 141.372 Q1966.39 139.289 1963.24 139.289 Q1959.68 139.289 1957.52 141.303 Q1955.39 143.317 1955.07 146.974 L1970.25 146.951 Z" fill="#000000" fill-rule="evenodd" fill-opacity="1" /><path clip-path="url(#clip050)" d="M2001.69 141.28 Q2003.29 138.409 2005.51 137.044 Q2007.73 135.678 2010.74 135.678 Q2014.79 135.678 2016.99 138.525 Q2019.19 141.349 2019.19 146.581 L2019.19 162.229 L2014.91 162.229 L2014.91 146.719 Q2014.91 142.993 2013.59 141.187 Q2012.27 139.382 2009.56 139.382 Q2006.25 139.382 2004.33 141.581 Q2002.41 143.78 2002.41 147.576 L2002.41 162.229 L1998.13 162.229 L1998.13 146.719 Q1998.13 142.969 1996.81 141.187 Q1995.49 139.382 1992.73 139.382 Q1989.47 139.382 1987.55 141.604 Q1985.63 143.803 1985.63 147.576 L1985.63 162.229 L1981.34 162.229 L1981.34 136.303 L1985.63 136.303 L1985.63 140.331 Q1987.08 137.946 1989.12 136.812 Q1991.16 135.678 1993.96 135.678 Q1996.78 135.678 1998.75 137.113 Q2000.74 138.548 2001.69 141.28 Z" fill="#000000" fill-rule="evenodd" fill-opacity="1" /><path clip-path="url(#clip050)" d="M2046.3 149.289 Q2046.3 144.59 2044.35 141.928 Q2042.43 139.243 2039.05 139.243 Q2035.67 139.243 2033.73 141.928 Q2031.81 144.59 2031.81 149.289 Q2031.81 153.988 2033.73 156.673 Q2035.67 159.335 2039.05 159.335 Q2042.43 159.335 2044.35 156.673 Q2046.3 153.988 2046.3 149.289 M2031.81 140.238 Q2033.15 137.923 2035.19 136.812 Q2037.25 135.678 2040.09 135.678 Q2044.81 135.678 2047.75 139.428 Q2050.72 143.178 2050.72 149.289 Q2050.72 155.4 2047.75 159.15 Q2044.81 162.9 2040.09 162.9 Q2037.25 162.9 2035.19 161.789 Q2033.15 160.655 2031.81 158.34 L2031.81 162.229 L2027.52 162.229 L2027.52 126.21 L2031.81 126.21 L2031.81 140.238 Z" fill="#000000" fill-rule="evenodd" fill-opacity="1" /><path clip-path="url(#clip050)" d="M2057.78 126.21 L2062.04 126.21 L2062.04 162.229 L2057.78 162.229 L2057.78 126.21 Z" fill="#000000" fill-rule="evenodd" fill-opacity="1" /><path clip-path="url(#clip050)" d="M2093.12 148.201 L2093.12 150.284 L2073.54 150.284 Q2073.82 154.682 2076.18 156.997 Q2078.56 159.289 2082.8 159.289 Q2085.25 159.289 2087.55 158.687 Q2089.86 158.085 2092.13 156.881 L2092.13 160.909 Q2089.84 161.881 2087.43 162.391 Q2085.02 162.9 2082.55 162.9 Q2076.34 162.9 2072.71 159.289 Q2069.1 155.678 2069.1 149.52 Q2069.1 143.155 2072.52 139.428 Q2075.97 135.678 2081.81 135.678 Q2087.04 135.678 2090.07 139.057 Q2093.12 142.414 2093.12 148.201 M2088.87 146.951 Q2088.82 143.456 2086.9 141.372 Q2085 139.289 2081.85 139.289 Q2078.29 139.289 2076.13 141.303 Q2074 143.317 2073.68 146.974 L2088.87 146.951 Z" fill="#000000" fill-rule="evenodd" fill-opacity="1" /><path clip-path="url(#clip050)" d="M2115.37 127.669 L2122.34 127.669 L2131.16 151.187 L2140.02 127.669 L2146.99 127.669 L2146.99 162.229 L2142.43 162.229 L2142.43 131.882 L2133.52 155.585 L2128.82 155.585 L2119.91 131.882 L2119.91 162.229 L2115.37 162.229 L2115.37 127.669 Z" fill="#000000" fill-rule="evenodd" fill-opacity="1" /><path clip-path="url(#clip050)" d="M2178.26 148.201 L2178.26 150.284 L2158.68 150.284 Q2158.96 154.682 2161.32 156.997 Q2163.7 159.289 2167.94 159.289 Q2170.39 159.289 2172.68 158.687 Q2175 158.085 2177.27 156.881 L2177.27 160.909 Q2174.98 161.881 2172.57 162.391 Q2170.16 162.9 2167.68 162.9 Q2161.48 162.9 2157.85 159.289 Q2154.24 155.678 2154.24 149.52 Q2154.24 143.155 2157.66 139.428 Q2161.11 135.678 2166.94 135.678 Q2172.18 135.678 2175.21 139.057 Q2178.26 142.414 2178.26 148.201 M2174 146.951 Q2173.96 143.456 2172.04 141.372 Q2170.14 139.289 2166.99 139.289 Q2163.43 139.289 2161.27 141.303 Q2159.14 143.317 2158.82 146.974 L2174 146.951 Z" fill="#000000" fill-rule="evenodd" fill-opacity="1" /><path clip-path="url(#clip050)" d="M2197.04 149.196 Q2191.87 149.196 2189.88 150.377 Q2187.89 151.557 2187.89 154.405 Q2187.89 156.673 2189.37 158.016 Q2190.88 159.335 2193.45 159.335 Q2196.99 159.335 2199.12 156.835 Q2201.27 154.312 2201.27 150.145 L2201.27 149.196 L2197.04 149.196 M2205.53 147.437 L2205.53 162.229 L2201.27 162.229 L2201.27 158.293 Q2199.81 160.655 2197.64 161.789 Q2195.46 162.9 2192.31 162.9 Q2188.33 162.9 2185.97 160.678 Q2183.63 158.432 2183.63 154.682 Q2183.63 150.307 2186.55 148.085 Q2189.49 145.863 2195.3 145.863 L2201.27 145.863 L2201.27 145.446 Q2201.27 142.507 2199.33 140.909 Q2197.41 139.289 2193.91 139.289 Q2191.69 139.289 2189.58 139.821 Q2187.48 140.354 2185.53 141.419 L2185.53 137.483 Q2187.87 136.581 2190.07 136.141 Q2192.27 135.678 2194.35 135.678 Q2199.98 135.678 2202.75 138.594 Q2205.53 141.511 2205.53 147.437 Z" fill="#000000" fill-rule="evenodd" fill-opacity="1" /><path clip-path="url(#clip050)" d="M2235.86 146.581 L2235.86 162.229 L2231.6 162.229 L2231.6 146.719 Q2231.6 143.039 2230.16 141.21 Q2228.73 139.382 2225.86 139.382 Q2222.41 139.382 2220.42 141.581 Q2218.42 143.78 2218.42 147.576 L2218.42 162.229 L2214.14 162.229 L2214.14 136.303 L2218.42 136.303 L2218.42 140.331 Q2219.95 137.993 2222.01 136.835 Q2224.1 135.678 2226.8 135.678 Q2231.27 135.678 2233.56 138.456 Q2235.86 141.21 2235.86 146.581 Z" fill="#000000" fill-rule="evenodd" fill-opacity="1" /><polyline clip-path="url(#clip050)" style="stroke:#e26f46; stroke-linecap:butt; stroke-linejoin:round; stroke-width:4; stroke-opacity:1; fill:none" points="
  1704.16,196.789 1844.44,196.789 
  "/>
<path clip-path="url(#clip050)" d="M1875.23 180.782 L1875.23 188.143 L1884.01 188.143 L1884.01 191.453 L1875.23 191.453 L1875.23 205.527 Q1875.23 208.698 1876.09 209.601 Q1876.97 210.504 1879.63 210.504 L1884.01 210.504 L1884.01 214.069 L1879.63 214.069 Q1874.7 214.069 1872.82 212.24 Q1870.95 210.388 1870.95 205.527 L1870.95 191.453 L1867.82 191.453 L1867.82 188.143 L1870.95 188.143 L1870.95 180.782 L1875.23 180.782 Z" fill="#000000" fill-rule="evenodd" fill-opacity="1" /><path clip-path="url(#clip050)" d="M1904.63 192.124 Q1903.91 191.708 1903.06 191.522 Q1902.22 191.314 1901.2 191.314 Q1897.59 191.314 1895.65 193.675 Q1893.73 196.013 1893.73 200.411 L1893.73 214.069 L1889.45 214.069 L1889.45 188.143 L1893.73 188.143 L1893.73 192.171 Q1895.07 189.809 1897.22 188.675 Q1899.38 187.518 1902.45 187.518 Q1902.89 187.518 1903.43 187.587 Q1903.96 187.634 1904.61 187.749 L1904.63 192.124 Z" fill="#000000" fill-rule="evenodd" fill-opacity="1" /><path clip-path="url(#clip050)" d="M1908.66 203.837 L1908.66 188.143 L1912.92 188.143 L1912.92 203.675 Q1912.92 207.356 1914.35 209.208 Q1915.79 211.036 1918.66 211.036 Q1922.11 211.036 1924.1 208.837 Q1926.11 206.638 1926.11 202.842 L1926.11 188.143 L1930.37 188.143 L1930.37 214.069 L1926.11 214.069 L1926.11 210.087 Q1924.56 212.448 1922.5 213.606 Q1920.46 214.74 1917.76 214.74 Q1913.29 214.74 1910.97 211.962 Q1908.66 209.184 1908.66 203.837 M1919.38 187.518 L1919.38 187.518 Z" fill="#000000" fill-rule="evenodd" fill-opacity="1" /><path clip-path="url(#clip050)" d="M1961.32 200.041 L1961.32 202.124 L1941.74 202.124 Q1942.01 206.522 1944.38 208.837 Q1946.76 211.129 1951 211.129 Q1953.45 211.129 1955.74 210.527 Q1958.06 209.925 1960.32 208.721 L1960.32 212.749 Q1958.03 213.721 1955.63 214.231 Q1953.22 214.74 1950.74 214.74 Q1944.54 214.74 1940.9 211.129 Q1937.29 207.518 1937.29 201.36 Q1937.29 194.995 1940.72 191.268 Q1944.17 187.518 1950 187.518 Q1955.23 187.518 1958.26 190.897 Q1961.32 194.254 1961.32 200.041 M1957.06 198.791 Q1957.01 195.296 1955.09 193.212 Q1953.19 191.129 1950.05 191.129 Q1946.48 191.129 1944.33 193.143 Q1942.2 195.157 1941.88 198.814 L1957.06 198.791 Z" fill="#000000" fill-rule="evenodd" fill-opacity="1" /><path clip-path="url(#clip050)" d="M1980.32 188.143 L1984.84 188.143 L1992.94 209.902 L2001.04 188.143 L2005.56 188.143 L1995.83 214.069 L1990.05 214.069 L1980.32 188.143 Z" fill="#000000" fill-rule="evenodd" fill-opacity="1" /><path clip-path="url(#clip050)" d="M2023.22 201.036 Q2018.06 201.036 2016.06 202.217 Q2014.07 203.397 2014.07 206.245 Q2014.07 208.513 2015.56 209.856 Q2017.06 211.175 2019.63 211.175 Q2023.17 211.175 2025.3 208.675 Q2027.45 206.152 2027.45 201.985 L2027.45 201.036 L2023.22 201.036 M2031.71 199.277 L2031.71 214.069 L2027.45 214.069 L2027.45 210.133 Q2026 212.495 2023.82 213.629 Q2021.64 214.74 2018.5 214.74 Q2014.51 214.74 2012.15 212.518 Q2009.81 210.272 2009.81 206.522 Q2009.81 202.147 2012.73 199.925 Q2015.67 197.703 2021.48 197.703 L2027.45 197.703 L2027.45 197.286 Q2027.45 194.347 2025.51 192.749 Q2023.59 191.129 2020.09 191.129 Q2017.87 191.129 2015.76 191.661 Q2013.66 192.194 2011.71 193.259 L2011.71 189.323 Q2014.05 188.421 2016.25 187.981 Q2018.45 187.518 2020.53 187.518 Q2026.16 187.518 2028.94 190.434 Q2031.71 193.351 2031.71 199.277 Z" fill="#000000" fill-rule="evenodd" fill-opacity="1" /><path clip-path="url(#clip050)" d="M2040.49 178.05 L2044.75 178.05 L2044.75 214.069 L2040.49 214.069 L2040.49 178.05 Z" fill="#000000" fill-rule="evenodd" fill-opacity="1" /><path clip-path="url(#clip050)" d="M2053.22 203.837 L2053.22 188.143 L2057.48 188.143 L2057.48 203.675 Q2057.48 207.356 2058.91 209.208 Q2060.35 211.036 2063.22 211.036 Q2066.67 211.036 2068.66 208.837 Q2070.67 206.638 2070.67 202.842 L2070.67 188.143 L2074.93 188.143 L2074.93 214.069 L2070.67 214.069 L2070.67 210.087 Q2069.12 212.448 2067.06 213.606 Q2065.02 214.74 2062.31 214.74 Q2057.85 214.74 2055.53 211.962 Q2053.22 209.184 2053.22 203.837 M2063.94 187.518 L2063.94 187.518 Z" fill="#000000" fill-rule="evenodd" fill-opacity="1" /><path clip-path="url(#clip050)" d="M2105.88 200.041 L2105.88 202.124 L2086.3 202.124 Q2086.57 206.522 2088.93 208.837 Q2091.32 211.129 2095.56 211.129 Q2098.01 211.129 2100.3 210.527 Q2102.62 209.925 2104.88 208.721 L2104.88 212.749 Q2102.59 213.721 2100.18 214.231 Q2097.78 214.74 2095.3 214.74 Q2089.1 214.74 2085.46 211.129 Q2081.85 207.518 2081.85 201.36 Q2081.85 194.995 2085.28 191.268 Q2088.73 187.518 2094.56 187.518 Q2099.79 187.518 2102.82 190.897 Q2105.88 194.254 2105.88 200.041 M2101.62 198.791 Q2101.57 195.296 2099.65 193.212 Q2097.75 191.129 2094.61 191.129 Q2091.04 191.129 2088.89 193.143 Q2086.76 195.157 2086.43 198.814 L2101.62 198.791 Z" fill="#000000" fill-rule="evenodd" fill-opacity="1" /></svg>
