<?xml version="1.0" encoding="utf-8"?>
<svg xmlns="http://www.w3.org/2000/svg" xmlns:xlink="http://www.w3.org/1999/xlink" width="600" height="400" viewBox="0 0 2400 1600">
<defs>
  <clipPath id="clip210">
    <rect x="0" y="0" width="2400" height="1600"/>
  </clipPath>
</defs>
<path clip-path="url(#clip210)" d="
M0 1600 L2400 1600 L2400 0 L0 0  Z
  " fill="#ffffff" fill-rule="evenodd" fill-opacity="1"/>
<defs>
  <clipPath id="clip211">
    <rect x="480" y="0" width="1681" height="1600"/>
  </clipPath>
</defs>
<path clip-path="url(#clip210)" d="
M249.542 1423.18 L2352.76 1423.18 L2352.76 47.2441 L249.542 47.2441  Z
  " fill="#ffffff" fill-rule="evenodd" fill-opacity="1"/>
<defs>
  <clipPath id="clip212">
    <rect x="249" y="47" width="2104" height="1377"/>
  </clipPath>
</defs>
<polyline clip-path="url(#clip212)" style="stroke:#000000; stroke-linecap:butt; stroke-linejoin:round; stroke-width:2; stroke-opacity:0.1; fill:none" points="
  309.067,1423.18 309.067,47.2441 
  "/>
<polyline clip-path="url(#clip212)" style="stroke:#000000; stroke-linecap:butt; stroke-linejoin:round; stroke-width:2; stroke-opacity:0.1; fill:none" points="
  529.53,1423.18 529.53,47.2441 
  "/>
<polyline clip-path="url(#clip212)" style="stroke:#000000; stroke-linecap:butt; stroke-linejoin:round; stroke-width:2; stroke-opacity:0.1; fill:none" points="
  749.992,1423.18 749.992,47.2441 
  "/>
<polyline clip-path="url(#clip212)" style="stroke:#000000; stroke-linecap:butt; stroke-linejoin:round; stroke-width:2; stroke-opacity:0.1; fill:none" points="
  970.455,1423.18 970.455,47.2441 
  "/>
<polyline clip-path="url(#clip212)" style="stroke:#000000; stroke-linecap:butt; stroke-linejoin:round; stroke-width:2; stroke-opacity:0.1; fill:none" points="
  1190.92,1423.18 1190.92,47.2441 
  "/>
<polyline clip-path="url(#clip212)" style="stroke:#000000; stroke-linecap:butt; stroke-linejoin:round; stroke-width:2; stroke-opacity:0.1; fill:none" points="
  1411.38,1423.18 1411.38,47.2441 
  "/>
<polyline clip-path="url(#clip212)" style="stroke:#000000; stroke-linecap:butt; stroke-linejoin:round; stroke-width:2; stroke-opacity:0.1; fill:none" points="
  1631.84,1423.18 1631.84,47.2441 
  "/>
<polyline clip-path="url(#clip212)" style="stroke:#000000; stroke-linecap:butt; stroke-linejoin:round; stroke-width:2; stroke-opacity:0.1; fill:none" points="
  1852.31,1423.18 1852.31,47.2441 
  "/>
<polyline clip-path="url(#clip212)" style="stroke:#000000; stroke-linecap:butt; stroke-linejoin:round; stroke-width:2; stroke-opacity:0.1; fill:none" points="
  2072.77,1423.18 2072.77,47.2441 
  "/>
<polyline clip-path="url(#clip212)" style="stroke:#000000; stroke-linecap:butt; stroke-linejoin:round; stroke-width:2; stroke-opacity:0.1; fill:none" points="
  2293.23,1423.18 2293.23,47.2441 
  "/>
<polyline clip-path="url(#clip210)" style="stroke:#000000; stroke-linecap:butt; stroke-linejoin:round; stroke-width:4; stroke-opacity:1; fill:none" points="
  249.542,1423.18 2352.76,1423.18 
  "/>
<polyline clip-path="url(#clip210)" style="stroke:#000000; stroke-linecap:butt; stroke-linejoin:round; stroke-width:4; stroke-opacity:1; fill:none" points="
  309.067,1423.18 309.067,1404.28 
  "/>
<polyline clip-path="url(#clip210)" style="stroke:#000000; stroke-linecap:butt; stroke-linejoin:round; stroke-width:4; stroke-opacity:1; fill:none" points="
  529.53,1423.18 529.53,1404.28 
  "/>
<polyline clip-path="url(#clip210)" style="stroke:#000000; stroke-linecap:butt; stroke-linejoin:round; stroke-width:4; stroke-opacity:1; fill:none" points="
  749.992,1423.18 749.992,1404.28 
  "/>
<polyline clip-path="url(#clip210)" style="stroke:#000000; stroke-linecap:butt; stroke-linejoin:round; stroke-width:4; stroke-opacity:1; fill:none" points="
  970.455,1423.18 970.455,1404.28 
  "/>
<polyline clip-path="url(#clip210)" style="stroke:#000000; stroke-linecap:butt; stroke-linejoin:round; stroke-width:4; stroke-opacity:1; fill:none" points="
  1190.92,1423.18 1190.92,1404.28 
  "/>
<polyline clip-path="url(#clip210)" style="stroke:#000000; stroke-linecap:butt; stroke-linejoin:round; stroke-width:4; stroke-opacity:1; fill:none" points="
  1411.38,1423.18 1411.38,1404.28 
  "/>
<polyline clip-path="url(#clip210)" style="stroke:#000000; stroke-linecap:butt; stroke-linejoin:round; stroke-width:4; stroke-opacity:1; fill:none" points="
  1631.84,1423.18 1631.84,1404.28 
  "/>
<polyline clip-path="url(#clip210)" style="stroke:#000000; stroke-linecap:butt; stroke-linejoin:round; stroke-width:4; stroke-opacity:1; fill:none" points="
  1852.31,1423.18 1852.31,1404.28 
  "/>
<polyline clip-path="url(#clip210)" style="stroke:#000000; stroke-linecap:butt; stroke-linejoin:round; stroke-width:4; stroke-opacity:1; fill:none" points="
  2072.77,1423.18 2072.77,1404.28 
  "/>
<polyline clip-path="url(#clip210)" style="stroke:#000000; stroke-linecap:butt; stroke-linejoin:round; stroke-width:4; stroke-opacity:1; fill:none" points="
  2293.23,1423.18 2293.23,1404.28 
  "/>
<path clip-path="url(#clip210)" d="M299.449 1481.64 L307.088 1481.64 L307.088 1455.28 L298.778 1456.95 L298.778 1452.69 L307.042 1451.02 L311.717 1451.02 L311.717 1481.64 L319.356 1481.64 L319.356 1485.58 L299.449 1485.58 L299.449 1481.64 Z" fill="#000000" fill-rule="evenodd" fill-opacity="1" /><path clip-path="url(#clip210)" d="M524.182 1481.64 L540.502 1481.64 L540.502 1485.58 L518.557 1485.58 L518.557 1481.64 Q521.219 1478.89 525.803 1474.26 Q530.409 1469.61 531.59 1468.27 Q533.835 1465.74 534.715 1464.01 Q535.618 1462.25 535.618 1460.56 Q535.618 1457.8 533.673 1456.07 Q531.752 1454.33 528.65 1454.33 Q526.451 1454.33 523.997 1455.09 Q521.567 1455.86 518.789 1457.41 L518.789 1452.69 Q521.613 1451.55 524.067 1450.97 Q526.52 1450.39 528.557 1450.39 Q533.928 1450.39 537.122 1453.08 Q540.317 1455.77 540.317 1460.26 Q540.317 1462.39 539.506 1464.31 Q538.719 1466.2 536.613 1468.8 Q536.034 1469.47 532.932 1472.69 Q529.831 1475.88 524.182 1481.64 Z" fill="#000000" fill-rule="evenodd" fill-opacity="1" /><path clip-path="url(#clip210)" d="M754.24 1466.95 Q757.596 1467.66 759.471 1469.93 Q761.37 1472.2 761.37 1475.53 Q761.37 1480.65 757.851 1483.45 Q754.333 1486.25 747.851 1486.25 Q745.675 1486.25 743.36 1485.81 Q741.069 1485.39 738.615 1484.54 L738.615 1480.02 Q740.559 1481.16 742.874 1481.74 Q745.189 1482.32 747.712 1482.32 Q752.11 1482.32 754.402 1480.58 Q756.717 1478.84 756.717 1475.53 Q756.717 1472.48 754.564 1470.77 Q752.434 1469.03 748.615 1469.03 L744.587 1469.03 L744.587 1465.19 L748.8 1465.19 Q752.249 1465.19 754.078 1463.82 Q755.907 1462.43 755.907 1459.84 Q755.907 1457.18 754.008 1455.77 Q752.133 1454.33 748.615 1454.33 Q746.694 1454.33 744.495 1454.75 Q742.296 1455.16 739.657 1456.04 L739.657 1451.88 Q742.319 1451.14 744.634 1450.77 Q746.971 1450.39 749.032 1450.39 Q754.356 1450.39 757.458 1452.83 Q760.559 1455.23 760.559 1459.35 Q760.559 1462.22 758.916 1464.21 Q757.272 1466.18 754.24 1466.95 Z" fill="#000000" fill-rule="evenodd" fill-opacity="1" /><path clip-path="url(#clip210)" d="M973.464 1455.09 L961.659 1473.54 L973.464 1473.54 L973.464 1455.09 M972.237 1451.02 L978.117 1451.02 L978.117 1473.54 L983.047 1473.54 L983.047 1477.43 L978.117 1477.43 L978.117 1485.58 L973.464 1485.58 L973.464 1477.43 L957.862 1477.43 L957.862 1472.92 L972.237 1451.02 Z" fill="#000000" fill-rule="evenodd" fill-opacity="1" /><path clip-path="url(#clip210)" d="M1181.2 1451.02 L1199.55 1451.02 L1199.55 1454.96 L1185.48 1454.96 L1185.48 1463.43 Q1186.5 1463.08 1187.51 1462.92 Q1188.53 1462.73 1189.55 1462.73 Q1195.34 1462.73 1198.72 1465.9 Q1202.1 1469.08 1202.1 1474.49 Q1202.1 1480.07 1198.63 1483.17 Q1195.15 1486.25 1188.83 1486.25 Q1186.66 1486.25 1184.39 1485.88 Q1182.14 1485.51 1179.74 1484.77 L1179.74 1480.07 Q1181.82 1481.2 1184.04 1481.76 Q1186.26 1482.32 1188.74 1482.32 Q1192.75 1482.32 1195.08 1480.21 Q1197.42 1478.1 1197.42 1474.49 Q1197.42 1470.88 1195.08 1468.77 Q1192.75 1466.67 1188.74 1466.67 Q1186.87 1466.67 1184.99 1467.08 Q1183.14 1467.5 1181.2 1468.38 L1181.2 1451.02 Z" fill="#000000" fill-rule="evenodd" fill-opacity="1" /><path clip-path="url(#clip210)" d="M1411.79 1466.44 Q1408.64 1466.44 1406.79 1468.59 Q1404.96 1470.74 1404.96 1474.49 Q1404.96 1478.22 1406.79 1480.39 Q1408.64 1482.55 1411.79 1482.55 Q1414.93 1482.55 1416.76 1480.39 Q1418.61 1478.22 1418.61 1474.49 Q1418.61 1470.74 1416.76 1468.59 Q1414.93 1466.44 1411.79 1466.44 M1421.07 1451.78 L1421.07 1456.04 Q1419.31 1455.21 1417.5 1454.77 Q1415.72 1454.33 1413.96 1454.33 Q1409.33 1454.33 1406.88 1457.45 Q1404.45 1460.58 1404.1 1466.9 Q1405.47 1464.89 1407.53 1463.82 Q1409.59 1462.73 1412.06 1462.73 Q1417.27 1462.73 1420.28 1465.9 Q1423.31 1469.05 1423.31 1474.49 Q1423.31 1479.82 1420.16 1483.03 Q1417.02 1486.25 1411.79 1486.25 Q1405.79 1486.25 1402.62 1481.67 Q1399.45 1477.06 1399.45 1468.33 Q1399.45 1460.14 1403.34 1455.28 Q1407.23 1450.39 1413.78 1450.39 Q1415.54 1450.39 1417.32 1450.74 Q1419.12 1451.09 1421.07 1451.78 Z" fill="#000000" fill-rule="evenodd" fill-opacity="1" /><path clip-path="url(#clip210)" d="M1620.73 1451.02 L1642.95 1451.02 L1642.95 1453.01 L1630.41 1485.58 L1625.52 1485.58 L1637.33 1454.96 L1620.73 1454.96 L1620.73 1451.02 Z" fill="#000000" fill-rule="evenodd" fill-opacity="1" /><path clip-path="url(#clip210)" d="M1852.31 1469.17 Q1848.97 1469.17 1847.05 1470.95 Q1845.15 1472.73 1845.15 1475.86 Q1845.15 1478.98 1847.05 1480.77 Q1848.97 1482.55 1852.31 1482.55 Q1855.64 1482.55 1857.56 1480.77 Q1859.48 1478.96 1859.48 1475.86 Q1859.48 1472.73 1857.56 1470.95 Q1855.66 1469.17 1852.31 1469.17 M1847.63 1467.18 Q1844.62 1466.44 1842.93 1464.38 Q1841.26 1462.32 1841.26 1459.35 Q1841.26 1455.21 1844.2 1452.8 Q1847.17 1450.39 1852.31 1450.39 Q1857.47 1450.39 1860.41 1452.8 Q1863.35 1455.21 1863.35 1459.35 Q1863.35 1462.32 1861.66 1464.38 Q1859.99 1466.44 1857 1467.18 Q1860.38 1467.96 1862.26 1470.26 Q1864.16 1472.55 1864.16 1475.86 Q1864.16 1480.88 1861.08 1483.57 Q1858.02 1486.25 1852.31 1486.25 Q1846.59 1486.25 1843.51 1483.57 Q1840.45 1480.88 1840.45 1475.86 Q1840.45 1472.55 1842.35 1470.26 Q1844.25 1467.96 1847.63 1467.18 M1845.92 1459.79 Q1845.92 1462.48 1847.58 1463.98 Q1849.27 1465.49 1852.31 1465.49 Q1855.31 1465.49 1857 1463.98 Q1858.72 1462.48 1858.72 1459.79 Q1858.72 1457.11 1857 1455.6 Q1855.31 1454.1 1852.31 1454.1 Q1849.27 1454.1 1847.58 1455.6 Q1845.92 1457.11 1845.92 1459.79 Z" fill="#000000" fill-rule="evenodd" fill-opacity="1" /><path clip-path="url(#clip210)" d="M2063.07 1484.86 L2063.07 1480.6 Q2064.83 1481.44 2066.63 1481.88 Q2068.44 1482.32 2070.18 1482.32 Q2074.81 1482.32 2077.24 1479.21 Q2079.69 1476.09 2080.04 1469.75 Q2078.69 1471.74 2076.63 1472.8 Q2074.57 1473.87 2072.07 1473.87 Q2066.89 1473.87 2063.86 1470.74 Q2060.85 1467.59 2060.85 1462.15 Q2060.85 1456.83 2064 1453.61 Q2067.14 1450.39 2072.37 1450.39 Q2078.37 1450.39 2081.52 1455 Q2084.69 1459.58 2084.69 1468.33 Q2084.69 1476.51 2080.8 1481.39 Q2076.93 1486.25 2070.38 1486.25 Q2068.62 1486.25 2066.82 1485.9 Q2065.01 1485.56 2063.07 1484.86 M2072.37 1470.21 Q2075.52 1470.21 2077.35 1468.06 Q2079.2 1465.9 2079.2 1462.15 Q2079.2 1458.43 2077.35 1456.27 Q2075.52 1454.1 2072.37 1454.1 Q2069.23 1454.1 2067.37 1456.27 Q2065.55 1458.43 2065.55 1462.15 Q2065.55 1465.9 2067.37 1468.06 Q2069.23 1470.21 2072.37 1470.21 Z" fill="#000000" fill-rule="evenodd" fill-opacity="1" /><path clip-path="url(#clip210)" d="M2267.92 1481.64 L2275.56 1481.64 L2275.56 1455.28 L2267.25 1456.95 L2267.25 1452.69 L2275.51 1451.02 L2280.19 1451.02 L2280.19 1481.64 L2287.83 1481.64 L2287.83 1485.58 L2267.92 1485.58 L2267.92 1481.64 Z" fill="#000000" fill-rule="evenodd" fill-opacity="1" /><path clip-path="url(#clip210)" d="M2307.27 1454.1 Q2303.66 1454.1 2301.83 1457.66 Q2300.02 1461.2 2300.02 1468.33 Q2300.02 1475.44 2301.83 1479.01 Q2303.66 1482.55 2307.27 1482.55 Q2310.9 1482.55 2312.71 1479.01 Q2314.54 1475.44 2314.54 1468.33 Q2314.54 1461.2 2312.71 1457.66 Q2310.9 1454.1 2307.27 1454.1 M2307.27 1450.39 Q2313.08 1450.39 2316.14 1455 Q2319.21 1459.58 2319.21 1468.33 Q2319.21 1477.06 2316.14 1481.67 Q2313.08 1486.25 2307.27 1486.25 Q2301.46 1486.25 2298.38 1481.67 Q2295.33 1477.06 2295.33 1468.33 Q2295.33 1459.58 2298.38 1455 Q2301.46 1450.39 2307.27 1450.39 Z" fill="#000000" fill-rule="evenodd" fill-opacity="1" /><path clip-path="url(#clip210)" d="M1024.81 1520.52 L1031.24 1520.52 L1031.24 1568.04 L1024.81 1568.04 L1024.81 1520.52 Z" fill="#000000" fill-rule="evenodd" fill-opacity="1" /><path clip-path="url(#clip210)" d="M1049.58 1522.27 L1049.58 1532.4 L1061.64 1532.4 L1061.64 1536.95 L1049.58 1536.95 L1049.58 1556.3 Q1049.58 1560.66 1050.75 1561.9 Q1051.96 1563.14 1055.62 1563.14 L1061.64 1563.14 L1061.64 1568.04 L1055.62 1568.04 Q1048.84 1568.04 1046.27 1565.53 Q1043.69 1562.98 1043.69 1556.3 L1043.69 1536.95 L1039.39 1536.95 L1039.39 1532.4 L1043.69 1532.4 L1043.69 1522.27 L1049.58 1522.27 Z" fill="#000000" fill-rule="evenodd" fill-opacity="1" /><path clip-path="url(#clip210)" d="M1099.83 1548.76 L1099.83 1551.62 L1072.91 1551.62 Q1073.29 1557.67 1076.54 1560.85 Q1079.81 1564 1085.64 1564 Q1089.01 1564 1092.16 1563.17 Q1095.35 1562.35 1098.46 1560.69 L1098.46 1566.23 Q1095.31 1567.57 1092 1568.27 Q1088.69 1568.97 1085.29 1568.97 Q1076.76 1568.97 1071.76 1564 Q1066.8 1559.04 1066.8 1550.57 Q1066.8 1541.82 1071.51 1536.69 Q1076.25 1531.54 1084.27 1531.54 Q1091.46 1531.54 1095.63 1536.18 Q1099.83 1540.8 1099.83 1548.76 M1093.98 1547.04 Q1093.91 1542.23 1091.27 1539.37 Q1088.66 1536.5 1084.33 1536.5 Q1079.43 1536.5 1076.47 1539.27 Q1073.54 1542.04 1073.1 1547.07 L1093.98 1547.04 Z" fill="#000000" fill-rule="evenodd" fill-opacity="1" /><path clip-path="url(#clip210)" d="M1130.1 1537.87 Q1129.12 1537.3 1127.94 1537.04 Q1126.79 1536.76 1125.39 1536.76 Q1120.43 1536.76 1117.75 1540 Q1115.11 1543.22 1115.11 1549.27 L1115.11 1568.04 L1109.22 1568.04 L1109.22 1532.4 L1115.11 1532.4 L1115.11 1537.93 Q1116.96 1534.69 1119.92 1533.13 Q1122.88 1531.54 1127.11 1531.54 Q1127.72 1531.54 1128.45 1531.63 Q1129.18 1531.7 1130.07 1531.85 L1130.1 1537.87 Z" fill="#000000" fill-rule="evenodd" fill-opacity="1" /><path clip-path="url(#clip210)" d="M1152.45 1550.12 Q1145.35 1550.12 1142.61 1551.75 Q1139.87 1553.37 1139.87 1557.29 Q1139.87 1560.4 1141.91 1562.25 Q1143.98 1564.07 1147.51 1564.07 Q1152.38 1564.07 1155.31 1560.63 Q1158.27 1557.16 1158.27 1551.43 L1158.27 1550.12 L1152.45 1550.12 M1164.13 1547.71 L1164.13 1568.04 L1158.27 1568.04 L1158.27 1562.63 Q1156.27 1565.88 1153.27 1567.44 Q1150.28 1568.97 1145.95 1568.97 Q1140.48 1568.97 1137.23 1565.91 Q1134.02 1562.82 1134.02 1557.67 Q1134.02 1551.65 1138.03 1548.6 Q1142.07 1545.54 1150.06 1545.54 L1158.27 1545.54 L1158.27 1544.97 Q1158.27 1540.93 1155.6 1538.73 Q1152.96 1536.5 1148.15 1536.5 Q1145.09 1536.5 1142.2 1537.23 Q1139.3 1537.97 1136.63 1539.43 L1136.63 1534.02 Q1139.84 1532.78 1142.87 1532.17 Q1145.89 1531.54 1148.75 1531.54 Q1156.49 1531.54 1160.31 1535.55 Q1164.13 1539.56 1164.13 1547.71 Z" fill="#000000" fill-rule="evenodd" fill-opacity="1" /><path clip-path="url(#clip210)" d="M1181.98 1522.27 L1181.98 1532.4 L1194.05 1532.4 L1194.05 1536.95 L1181.98 1536.95 L1181.98 1556.3 Q1181.98 1560.66 1183.16 1561.9 Q1184.37 1563.14 1188.03 1563.14 L1194.05 1563.14 L1194.05 1568.04 L1188.03 1568.04 Q1181.25 1568.04 1178.67 1565.53 Q1176.09 1562.98 1176.09 1556.3 L1176.09 1536.95 L1171.8 1536.95 L1171.8 1532.4 L1176.09 1532.4 L1176.09 1522.27 L1181.98 1522.27 Z" fill="#000000" fill-rule="evenodd" fill-opacity="1" /><path clip-path="url(#clip210)" d="M1201.75 1532.4 L1207.6 1532.4 L1207.6 1568.04 L1201.75 1568.04 L1201.75 1532.4 M1201.75 1518.52 L1207.6 1518.52 L1207.6 1525.93 L1201.75 1525.93 L1201.75 1518.52 Z" fill="#000000" fill-rule="evenodd" fill-opacity="1" /><path clip-path="url(#clip210)" d="M1233.67 1536.5 Q1228.96 1536.5 1226.22 1540.19 Q1223.49 1543.85 1223.49 1550.25 Q1223.49 1556.65 1226.19 1560.34 Q1228.93 1564 1233.67 1564 Q1238.35 1564 1241.09 1560.31 Q1243.83 1556.62 1243.83 1550.25 Q1243.83 1543.92 1241.09 1540.23 Q1238.35 1536.5 1233.67 1536.5 M1233.67 1531.54 Q1241.31 1531.54 1245.67 1536.5 Q1250.03 1541.47 1250.03 1550.25 Q1250.03 1559 1245.67 1564 Q1241.31 1568.97 1233.67 1568.97 Q1226 1568.97 1221.64 1564 Q1217.31 1559 1217.31 1550.25 Q1217.31 1541.47 1221.64 1536.5 Q1226 1531.54 1233.67 1531.54 Z" fill="#000000" fill-rule="evenodd" fill-opacity="1" /><path clip-path="url(#clip210)" d="M1289.37 1546.53 L1289.37 1568.04 L1283.52 1568.04 L1283.52 1546.72 Q1283.52 1541.66 1281.54 1539.14 Q1279.57 1536.63 1275.62 1536.63 Q1270.88 1536.63 1268.14 1539.65 Q1265.41 1542.68 1265.41 1547.9 L1265.41 1568.04 L1259.52 1568.04 L1259.52 1532.4 L1265.41 1532.4 L1265.41 1537.93 Q1267.51 1534.72 1270.34 1533.13 Q1273.2 1531.54 1276.93 1531.54 Q1283.07 1531.54 1286.22 1535.36 Q1289.37 1539.14 1289.37 1546.53 Z" fill="#000000" fill-rule="evenodd" fill-opacity="1" /><path clip-path="url(#clip210)" d="M1322.03 1520.52 L1330.69 1520.52 L1351.76 1560.28 L1351.76 1520.52 L1357.99 1520.52 L1357.99 1568.04 L1349.34 1568.04 L1328.27 1528.29 L1328.27 1568.04 L1322.03 1568.04 L1322.03 1520.52 Z" fill="#000000" fill-rule="evenodd" fill-opacity="1" /><path clip-path="url(#clip210)" d="M1369.93 1553.98 L1369.93 1532.4 L1375.79 1532.4 L1375.79 1553.75 Q1375.79 1558.81 1377.76 1561.36 Q1379.73 1563.87 1383.68 1563.87 Q1388.42 1563.87 1391.16 1560.85 Q1393.93 1557.83 1393.93 1552.61 L1393.93 1532.4 L1399.79 1532.4 L1399.79 1568.04 L1393.93 1568.04 L1393.93 1562.57 Q1391.8 1565.82 1388.96 1567.41 Q1386.16 1568.97 1382.44 1568.97 Q1376.3 1568.97 1373.11 1565.15 Q1369.93 1561.33 1369.93 1553.98 M1384.67 1531.54 L1384.67 1531.54 Z" fill="#000000" fill-rule="evenodd" fill-opacity="1" /><path clip-path="url(#clip210)" d="M1439.6 1539.24 Q1441.8 1535.29 1444.85 1533.41 Q1447.91 1531.54 1452.05 1531.54 Q1457.62 1531.54 1460.64 1535.45 Q1463.67 1539.33 1463.67 1546.53 L1463.67 1568.04 L1457.78 1568.04 L1457.78 1546.72 Q1457.78 1541.59 1455.96 1539.11 Q1454.15 1536.63 1450.42 1536.63 Q1445.87 1536.63 1443.23 1539.65 Q1440.59 1542.68 1440.59 1547.9 L1440.59 1568.04 L1434.7 1568.04 L1434.7 1546.72 Q1434.7 1541.56 1432.89 1539.11 Q1431.07 1536.63 1427.29 1536.63 Q1422.8 1536.63 1420.16 1539.68 Q1417.51 1542.71 1417.51 1547.9 L1417.51 1568.04 L1411.63 1568.04 L1411.63 1532.4 L1417.51 1532.4 L1417.51 1537.93 Q1419.52 1534.66 1422.32 1533.1 Q1425.12 1531.54 1428.97 1531.54 Q1432.86 1531.54 1435.56 1533.51 Q1438.3 1535.48 1439.6 1539.24 Z" fill="#000000" fill-rule="evenodd" fill-opacity="1" /><path clip-path="url(#clip210)" d="M1500.94 1550.25 Q1500.94 1543.79 1498.26 1540.13 Q1495.62 1536.44 1490.97 1536.44 Q1486.33 1536.44 1483.65 1540.13 Q1481.01 1543.79 1481.01 1550.25 Q1481.01 1556.71 1483.65 1560.4 Q1486.33 1564.07 1490.97 1564.07 Q1495.62 1564.07 1498.26 1560.4 Q1500.94 1556.71 1500.94 1550.25 M1481.01 1537.81 Q1482.86 1534.62 1485.66 1533.1 Q1488.49 1531.54 1492.41 1531.54 Q1498.9 1531.54 1502.94 1536.69 Q1507.02 1541.85 1507.02 1550.25 Q1507.02 1558.65 1502.94 1563.81 Q1498.9 1568.97 1492.41 1568.97 Q1488.49 1568.97 1485.66 1567.44 Q1482.86 1565.88 1481.01 1562.7 L1481.01 1568.04 L1475.12 1568.04 L1475.12 1518.52 L1481.01 1518.52 L1481.01 1537.81 Z" fill="#000000" fill-rule="evenodd" fill-opacity="1" /><path clip-path="url(#clip210)" d="M1547.22 1548.76 L1547.22 1551.62 L1520.29 1551.62 Q1520.67 1557.67 1523.92 1560.85 Q1527.2 1564 1533.02 1564 Q1536.39 1564 1539.54 1563.17 Q1542.73 1562.35 1545.85 1560.69 L1545.85 1566.23 Q1542.7 1567.57 1539.39 1568.27 Q1536.08 1568.97 1532.67 1568.97 Q1524.14 1568.97 1519.14 1564 Q1514.18 1559.04 1514.18 1550.57 Q1514.18 1541.82 1518.89 1536.69 Q1523.63 1531.54 1531.65 1531.54 Q1538.84 1531.54 1543.01 1536.18 Q1547.22 1540.8 1547.22 1548.76 M1541.36 1547.04 Q1541.3 1542.23 1538.65 1539.37 Q1536.04 1536.5 1531.71 1536.5 Q1526.81 1536.5 1523.85 1539.27 Q1520.92 1542.04 1520.48 1547.07 L1541.36 1547.04 Z" fill="#000000" fill-rule="evenodd" fill-opacity="1" /><path clip-path="url(#clip210)" d="M1577.48 1537.87 Q1576.5 1537.3 1575.32 1537.04 Q1574.17 1536.76 1572.77 1536.76 Q1567.81 1536.76 1565.13 1540 Q1562.49 1543.22 1562.49 1549.27 L1562.49 1568.04 L1556.6 1568.04 L1556.6 1532.4 L1562.49 1532.4 L1562.49 1537.93 Q1564.34 1534.69 1567.3 1533.13 Q1570.26 1531.54 1574.49 1531.54 Q1575.1 1531.54 1575.83 1531.63 Q1576.56 1531.7 1577.45 1531.85 L1577.48 1537.87 Z" fill="#000000" fill-rule="evenodd" fill-opacity="1" /><polyline clip-path="url(#clip212)" style="stroke:#000000; stroke-linecap:butt; stroke-linejoin:round; stroke-width:2; stroke-opacity:0.1; fill:none" points="
  249.542,1162.08 2352.76,1162.08 
  "/>
<polyline clip-path="url(#clip212)" style="stroke:#000000; stroke-linecap:butt; stroke-linejoin:round; stroke-width:2; stroke-opacity:0.1; fill:none" points="
  249.542,880.098 2352.76,880.098 
  "/>
<polyline clip-path="url(#clip212)" style="stroke:#000000; stroke-linecap:butt; stroke-linejoin:round; stroke-width:2; stroke-opacity:0.1; fill:none" points="
  249.542,598.111 2352.76,598.111 
  "/>
<polyline clip-path="url(#clip212)" style="stroke:#000000; stroke-linecap:butt; stroke-linejoin:round; stroke-width:2; stroke-opacity:0.1; fill:none" points="
  249.542,316.124 2352.76,316.124 
  "/>
<polyline clip-path="url(#clip210)" style="stroke:#000000; stroke-linecap:butt; stroke-linejoin:round; stroke-width:4; stroke-opacity:1; fill:none" points="
  249.542,1423.18 249.542,47.2441 
  "/>
<polyline clip-path="url(#clip210)" style="stroke:#000000; stroke-linecap:butt; stroke-linejoin:round; stroke-width:4; stroke-opacity:1; fill:none" points="
  249.542,1162.08 268.44,1162.08 
  "/>
<polyline clip-path="url(#clip210)" style="stroke:#000000; stroke-linecap:butt; stroke-linejoin:round; stroke-width:4; stroke-opacity:1; fill:none" points="
  249.542,880.098 268.44,880.098 
  "/>
<polyline clip-path="url(#clip210)" style="stroke:#000000; stroke-linecap:butt; stroke-linejoin:round; stroke-width:4; stroke-opacity:1; fill:none" points="
  249.542,598.111 268.44,598.111 
  "/>
<polyline clip-path="url(#clip210)" style="stroke:#000000; stroke-linecap:butt; stroke-linejoin:round; stroke-width:4; stroke-opacity:1; fill:none" points="
  249.542,316.124 268.44,316.124 
  "/>
<path clip-path="url(#clip210)" d="M127.2 1147.88 Q123.589 1147.88 121.76 1151.45 Q119.955 1154.99 119.955 1162.12 Q119.955 1169.23 121.76 1172.79 Q123.589 1176.33 127.2 1176.33 Q130.834 1176.33 132.64 1172.79 Q134.468 1169.23 134.468 1162.12 Q134.468 1154.99 132.64 1151.45 Q130.834 1147.88 127.2 1147.88 M127.2 1144.18 Q133.01 1144.18 136.066 1148.79 Q139.144 1153.37 139.144 1162.12 Q139.144 1170.85 136.066 1175.45 Q133.01 1180.04 127.2 1180.04 Q121.39 1180.04 118.311 1175.45 Q115.256 1170.85 115.256 1162.12 Q115.256 1153.37 118.311 1148.79 Q121.39 1144.18 127.2 1144.18 Z" fill="#000000" fill-rule="evenodd" fill-opacity="1" /><path clip-path="url(#clip210)" d="M147.362 1173.48 L152.246 1173.48 L152.246 1179.36 L147.362 1179.36 L147.362 1173.48 Z" fill="#000000" fill-rule="evenodd" fill-opacity="1" /><path clip-path="url(#clip210)" d="M166.459 1175.43 L182.778 1175.43 L182.778 1179.36 L160.834 1179.36 L160.834 1175.43 Q163.496 1172.67 168.079 1168.05 Q172.686 1163.39 173.866 1162.05 Q176.112 1159.53 176.991 1157.79 Q177.894 1156.03 177.894 1154.34 Q177.894 1151.59 175.95 1149.85 Q174.028 1148.11 170.927 1148.11 Q168.727 1148.11 166.274 1148.88 Q163.843 1149.64 161.065 1151.19 L161.065 1146.47 Q163.89 1145.34 166.343 1144.76 Q168.797 1144.18 170.834 1144.18 Q176.204 1144.18 179.399 1146.86 Q182.593 1149.55 182.593 1154.04 Q182.593 1156.17 181.783 1158.09 Q180.996 1159.99 178.889 1162.58 Q178.311 1163.25 175.209 1166.47 Q172.107 1169.67 166.459 1175.43 Z" fill="#000000" fill-rule="evenodd" fill-opacity="1" /><path clip-path="url(#clip210)" d="M192.639 1144.8 L210.996 1144.8 L210.996 1148.74 L196.922 1148.74 L196.922 1157.21 Q197.94 1156.86 198.959 1156.7 Q199.977 1156.52 200.996 1156.52 Q206.783 1156.52 210.162 1159.69 Q213.542 1162.86 213.542 1168.28 Q213.542 1173.86 210.07 1176.96 Q206.598 1180.04 200.278 1180.04 Q198.102 1180.04 195.834 1179.67 Q193.588 1179.3 191.181 1178.55 L191.181 1173.86 Q193.264 1174.99 195.487 1175.55 Q197.709 1176.1 200.186 1176.1 Q204.19 1176.1 206.528 1173.99 Q208.866 1171.89 208.866 1168.28 Q208.866 1164.67 206.528 1162.56 Q204.19 1160.45 200.186 1160.45 Q198.311 1160.45 196.436 1160.87 Q194.584 1161.29 192.639 1162.17 L192.639 1144.8 Z" fill="#000000" fill-rule="evenodd" fill-opacity="1" /><path clip-path="url(#clip210)" d="M126.205 865.896 Q122.593 865.896 120.765 869.461 Q118.959 873.003 118.959 880.132 Q118.959 887.239 120.765 890.804 Q122.593 894.345 126.205 894.345 Q129.839 894.345 131.644 890.804 Q133.473 887.239 133.473 880.132 Q133.473 873.003 131.644 869.461 Q129.839 865.896 126.205 865.896 M126.205 862.193 Q132.015 862.193 135.07 866.799 Q138.149 871.382 138.149 880.132 Q138.149 888.859 135.07 893.466 Q132.015 898.049 126.205 898.049 Q120.394 898.049 117.316 893.466 Q114.26 888.859 114.26 880.132 Q114.26 871.382 117.316 866.799 Q120.394 862.193 126.205 862.193 Z" fill="#000000" fill-rule="evenodd" fill-opacity="1" /><path clip-path="url(#clip210)" d="M146.366 891.498 L151.251 891.498 L151.251 897.378 L146.366 897.378 L146.366 891.498 Z" fill="#000000" fill-rule="evenodd" fill-opacity="1" /><path clip-path="url(#clip210)" d="M161.482 862.818 L179.839 862.818 L179.839 866.753 L165.765 866.753 L165.765 875.225 Q166.783 874.878 167.802 874.716 Q168.82 874.531 169.839 874.531 Q175.626 874.531 179.005 877.702 Q182.385 880.873 182.385 886.29 Q182.385 891.868 178.913 894.97 Q175.44 898.049 169.121 898.049 Q166.945 898.049 164.677 897.679 Q162.431 897.308 160.024 896.567 L160.024 891.868 Q162.107 893.003 164.329 893.558 Q166.552 894.114 169.028 894.114 Q173.033 894.114 175.371 892.007 Q177.709 889.901 177.709 886.29 Q177.709 882.679 175.371 880.572 Q173.033 878.466 169.028 878.466 Q167.153 878.466 165.278 878.882 Q163.427 879.299 161.482 880.179 L161.482 862.818 Z" fill="#000000" fill-rule="evenodd" fill-opacity="1" /><path clip-path="url(#clip210)" d="M201.598 865.896 Q197.987 865.896 196.158 869.461 Q194.352 873.003 194.352 880.132 Q194.352 887.239 196.158 890.804 Q197.987 894.345 201.598 894.345 Q205.232 894.345 207.037 890.804 Q208.866 887.239 208.866 880.132 Q208.866 873.003 207.037 869.461 Q205.232 865.896 201.598 865.896 M201.598 862.193 Q207.408 862.193 210.463 866.799 Q213.542 871.382 213.542 880.132 Q213.542 888.859 210.463 893.466 Q207.408 898.049 201.598 898.049 Q195.787 898.049 192.709 893.466 Q189.653 888.859 189.653 880.132 Q189.653 871.382 192.709 866.799 Q195.787 862.193 201.598 862.193 Z" fill="#000000" fill-rule="evenodd" fill-opacity="1" /><path clip-path="url(#clip210)" d="M127.2 583.909 Q123.589 583.909 121.76 587.474 Q119.955 591.016 119.955 598.145 Q119.955 605.252 121.76 608.817 Q123.589 612.358 127.2 612.358 Q130.834 612.358 132.64 608.817 Q134.468 605.252 134.468 598.145 Q134.468 591.016 132.64 587.474 Q130.834 583.909 127.2 583.909 M127.2 580.206 Q133.01 580.206 136.066 584.812 Q139.144 589.395 139.144 598.145 Q139.144 606.872 136.066 611.479 Q133.01 616.062 127.2 616.062 Q121.39 616.062 118.311 611.479 Q115.256 606.872 115.256 598.145 Q115.256 589.395 118.311 584.812 Q121.39 580.206 127.2 580.206 Z" fill="#000000" fill-rule="evenodd" fill-opacity="1" /><path clip-path="url(#clip210)" d="M147.362 609.511 L152.246 609.511 L152.246 615.391 L147.362 615.391 L147.362 609.511 Z" fill="#000000" fill-rule="evenodd" fill-opacity="1" /><path clip-path="url(#clip210)" d="M161.251 580.831 L183.473 580.831 L183.473 582.821 L170.927 615.391 L166.042 615.391 L177.848 584.766 L161.251 584.766 L161.251 580.831 Z" fill="#000000" fill-rule="evenodd" fill-opacity="1" /><path clip-path="url(#clip210)" d="M192.639 580.831 L210.996 580.831 L210.996 584.766 L196.922 584.766 L196.922 593.238 Q197.94 592.891 198.959 592.729 Q199.977 592.544 200.996 592.544 Q206.783 592.544 210.162 595.715 Q213.542 598.886 213.542 604.303 Q213.542 609.881 210.07 612.983 Q206.598 616.062 200.278 616.062 Q198.102 616.062 195.834 615.692 Q193.588 615.321 191.181 614.581 L191.181 609.881 Q193.264 611.016 195.487 611.571 Q197.709 612.127 200.186 612.127 Q204.19 612.127 206.528 610.02 Q208.866 607.914 208.866 604.303 Q208.866 600.692 206.528 598.585 Q204.19 596.479 200.186 596.479 Q198.311 596.479 196.436 596.895 Q194.584 597.312 192.639 598.192 L192.639 580.831 Z" fill="#000000" fill-rule="evenodd" fill-opacity="1" /><path clip-path="url(#clip210)" d="M117.015 329.469 L124.654 329.469 L124.654 303.103 L116.343 304.77 L116.343 300.51 L124.607 298.844 L129.283 298.844 L129.283 329.469 L136.922 329.469 L136.922 333.404 L117.015 333.404 L117.015 329.469 Z" fill="#000000" fill-rule="evenodd" fill-opacity="1" /><path clip-path="url(#clip210)" d="M146.366 327.524 L151.251 327.524 L151.251 333.404 L146.366 333.404 L146.366 327.524 Z" fill="#000000" fill-rule="evenodd" fill-opacity="1" /><path clip-path="url(#clip210)" d="M171.436 301.923 Q167.825 301.923 165.996 305.487 Q164.19 309.029 164.19 316.159 Q164.19 323.265 165.996 326.83 Q167.825 330.371 171.436 330.371 Q175.07 330.371 176.876 326.83 Q178.704 323.265 178.704 316.159 Q178.704 309.029 176.876 305.487 Q175.07 301.923 171.436 301.923 M171.436 298.219 Q177.246 298.219 180.301 302.825 Q183.38 307.409 183.38 316.159 Q183.38 324.885 180.301 329.492 Q177.246 334.075 171.436 334.075 Q165.626 334.075 162.547 329.492 Q159.491 324.885 159.491 316.159 Q159.491 307.409 162.547 302.825 Q165.626 298.219 171.436 298.219 Z" fill="#000000" fill-rule="evenodd" fill-opacity="1" /><path clip-path="url(#clip210)" d="M201.598 301.923 Q197.987 301.923 196.158 305.487 Q194.352 309.029 194.352 316.159 Q194.352 323.265 196.158 326.83 Q197.987 330.371 201.598 330.371 Q205.232 330.371 207.037 326.83 Q208.866 323.265 208.866 316.159 Q208.866 309.029 207.037 305.487 Q205.232 301.923 201.598 301.923 M201.598 298.219 Q207.408 298.219 210.463 302.825 Q213.542 307.409 213.542 316.159 Q213.542 324.885 210.463 329.492 Q207.408 334.075 201.598 334.075 Q195.787 334.075 192.709 329.492 Q189.653 324.885 189.653 316.159 Q189.653 307.409 192.709 302.825 Q195.787 298.219 201.598 298.219 Z" fill="#000000" fill-rule="evenodd" fill-opacity="1" /><path clip-path="url(#clip210)" d="M16.4842 1062.82 L16.4842 1053.24 L48.8219 1041.12 L16.4842 1028.93 L16.4842 1019.35 L64.0042 1019.35 L64.0042 1025.62 L22.277 1025.62 L54.8694 1037.87 L54.8694 1044.33 L22.277 1056.58 L64.0042 1056.58 L64.0042 1062.82 L16.4842 1062.82 Z" fill="#000000" fill-rule="evenodd" fill-opacity="1" /><path clip-path="url(#clip210)" d="M32.4621 993.023 Q32.4621 997.734 36.1542 1000.47 Q39.8145 1003.21 46.212 1003.21 Q52.6095 1003.21 56.3017 1000.5 Q59.9619 997.766 59.9619 993.023 Q59.9619 988.344 56.2698 985.607 Q52.5777 982.87 46.212 982.87 Q39.8781 982.87 36.186 985.607 Q32.4621 988.344 32.4621 993.023 M27.4968 993.023 Q27.4968 985.384 32.4621 981.024 Q37.4273 976.663 46.212 976.663 Q54.9649 976.663 59.9619 981.024 Q64.9272 985.384 64.9272 993.023 Q64.9272 1000.69 59.9619 1005.05 Q54.9649 1009.38 46.212 1009.38 Q37.4273 1009.38 32.4621 1005.05 Q27.4968 1000.69 27.4968 993.023 Z" fill="#000000" fill-rule="evenodd" fill-opacity="1" /><path clip-path="url(#clip210)" d="M14.479 966.956 L14.479 961.099 L64.0042 961.099 L64.0042 966.956 L14.479 966.956 Z" fill="#000000" fill-rule="evenodd" fill-opacity="1" /><path clip-path="url(#clip210)" d="M46.0847 932.644 Q46.0847 939.742 47.7079 942.479 Q49.3312 945.217 53.2461 945.217 Q56.3653 945.217 58.2114 943.18 Q60.0256 941.111 60.0256 937.578 Q60.0256 932.708 56.5881 929.78 Q53.1188 926.82 47.3897 926.82 L46.0847 926.82 L46.0847 932.644 M43.6657 920.963 L64.0042 920.963 L64.0042 926.82 L58.5933 926.82 Q61.8398 928.825 63.3994 931.817 Q64.9272 934.809 64.9272 939.137 Q64.9272 944.612 61.8716 947.858 Q58.7843 951.073 53.6281 951.073 Q47.6125 951.073 44.5569 947.063 Q41.5014 943.02 41.5014 935.031 L41.5014 926.82 L40.9285 926.82 Q36.8862 926.82 34.6901 929.493 Q32.4621 932.135 32.4621 936.941 Q32.4621 939.997 33.1941 942.893 Q33.9262 945.79 35.3903 948.463 L29.9795 948.463 Q28.7381 945.248 28.1334 942.225 Q27.4968 939.201 27.4968 936.336 Q27.4968 928.602 31.5072 924.783 Q35.5176 920.963 43.6657 920.963 Z" fill="#000000" fill-rule="evenodd" fill-opacity="1" /><path clip-path="url(#clip210)" d="M33.8307 888.244 Q33.2578 889.23 33.0032 890.408 Q32.7167 891.554 32.7167 892.954 Q32.7167 897.919 35.9632 900.593 Q39.1779 903.235 45.2253 903.235 L64.0042 903.235 L64.0042 909.123 L28.3562 909.123 L28.3562 903.235 L33.8944 903.235 Q30.6479 901.389 29.0883 898.429 Q27.4968 895.469 27.4968 891.235 Q27.4968 890.631 27.5923 889.899 Q27.656 889.167 27.8151 888.275 L33.8307 888.244 Z" fill="#000000" fill-rule="evenodd" fill-opacity="1" /><path clip-path="url(#clip210)" d="M35.1993 833.626 Q31.2526 831.43 29.3747 828.374 Q27.4968 825.319 27.4968 821.181 Q27.4968 815.611 31.4117 812.587 Q35.2948 809.563 42.4881 809.563 L64.0042 809.563 L64.0042 815.452 L42.679 815.452 Q37.5546 815.452 35.072 817.266 Q32.5894 819.08 32.5894 822.804 Q32.5894 827.356 35.6131 829.997 Q38.6368 832.639 43.8567 832.639 L64.0042 832.639 L64.0042 838.527 L42.679 838.527 Q37.5228 838.527 35.072 840.342 Q32.5894 842.156 32.5894 845.943 Q32.5894 850.431 35.6449 853.073 Q38.6686 855.715 43.8567 855.715 L64.0042 855.715 L64.0042 861.603 L28.3562 861.603 L28.3562 855.715 L33.8944 855.715 Q30.616 853.71 29.0564 850.909 Q27.4968 848.108 27.4968 844.257 Q27.4968 840.373 29.4702 837.668 Q31.4436 834.931 35.1993 833.626 Z" fill="#000000" fill-rule="evenodd" fill-opacity="1" /><path clip-path="url(#clip210)" d="M46.0847 781.682 Q46.0847 788.779 47.7079 791.517 Q49.3312 794.254 53.2461 794.254 Q56.3653 794.254 58.2114 792.217 Q60.0256 790.148 60.0256 786.615 Q60.0256 781.745 56.5881 778.817 Q53.1188 775.857 47.3897 775.857 L46.0847 775.857 L46.0847 781.682 M43.6657 770.001 L64.0042 770.001 L64.0042 775.857 L58.5933 775.857 Q61.8398 777.862 63.3994 780.854 Q64.9272 783.846 64.9272 788.175 Q64.9272 793.649 61.8716 796.896 Q58.7843 800.11 53.6281 800.11 Q47.6125 800.11 44.5569 796.1 Q41.5014 792.058 41.5014 784.069 L41.5014 775.857 L40.9285 775.857 Q36.8862 775.857 34.6901 778.531 Q32.4621 781.172 32.4621 785.978 Q32.4621 789.034 33.1941 791.93 Q33.9262 794.827 35.3903 797.5 L29.9795 797.5 Q28.7381 794.286 28.1334 791.262 Q27.4968 788.238 27.4968 785.374 Q27.4968 777.639 31.5072 773.82 Q35.5176 770.001 43.6657 770.001 Z" fill="#000000" fill-rule="evenodd" fill-opacity="1" /><path clip-path="url(#clip210)" d="M29.4065 735.212 L34.9447 735.212 Q33.6716 737.695 33.035 740.368 Q32.3984 743.042 32.3984 745.906 Q32.3984 750.267 33.7352 752.463 Q35.072 754.627 37.7456 754.627 Q39.7826 754.627 40.9603 753.068 Q42.1061 751.508 43.1565 746.798 L43.6021 744.792 Q44.9389 738.554 47.3897 735.944 Q49.8086 733.302 54.1691 733.302 Q59.1344 733.302 62.0308 737.249 Q64.9272 741.164 64.9272 748.039 Q64.9272 750.903 64.3543 754.023 Q63.8132 757.11 62.6992 760.547 L56.6518 760.547 Q58.3387 757.301 59.198 754.15 Q60.0256 750.999 60.0256 747.912 Q60.0256 743.774 58.6251 741.546 Q57.1929 739.318 54.6147 739.318 Q52.2276 739.318 50.9545 740.941 Q49.6813 742.533 48.5037 747.975 L48.0262 750.012 Q46.8804 755.455 44.5251 757.874 Q42.138 760.293 38.0002 760.293 Q32.9713 760.293 30.2341 756.728 Q27.4968 753.163 27.4968 746.607 Q27.4968 743.36 27.9743 740.496 Q28.4517 737.631 29.4065 735.212 Z" fill="#000000" fill-rule="evenodd" fill-opacity="1" /><path clip-path="url(#clip210)" d="M29.4065 701.251 L34.9447 701.251 Q33.6716 703.734 33.035 706.407 Q32.3984 709.081 32.3984 711.945 Q32.3984 716.306 33.7352 718.502 Q35.072 720.666 37.7456 720.666 Q39.7826 720.666 40.9603 719.107 Q42.1061 717.547 43.1565 712.837 L43.6021 710.831 Q44.9389 704.593 47.3897 701.983 Q49.8086 699.341 54.1691 699.341 Q59.1344 699.341 62.0308 703.288 Q64.9272 707.203 64.9272 714.078 Q64.9272 716.942 64.3543 720.062 Q63.8132 723.149 62.6992 726.586 L56.6518 726.586 Q58.3387 723.34 59.198 720.189 Q60.0256 717.038 60.0256 713.951 Q60.0256 709.813 58.6251 707.585 Q57.1929 705.357 54.6147 705.357 Q52.2276 705.357 50.9545 706.98 Q49.6813 708.571 48.5037 714.014 L48.0262 716.051 Q46.8804 721.494 44.5251 723.913 Q42.138 726.332 38.0002 726.332 Q32.9713 726.332 30.2341 722.767 Q27.4968 719.202 27.4968 712.646 Q27.4968 709.399 27.9743 706.534 Q28.4517 703.67 29.4065 701.251 Z" fill="#000000" fill-rule="evenodd" fill-opacity="1" /><path clip-path="url(#clip210)" d="M14.479 669.836 L14.479 656.341 L19.0304 656.341 L19.0304 663.98 L68.0464 663.98 L68.0464 656.341 L72.5979 656.341 L72.5979 669.836 L14.479 669.836 Z" fill="#000000" fill-rule="evenodd" fill-opacity="1" /><path clip-path="url(#clip210)" d="M14.479 644.087 L14.479 638.199 L43.7294 638.199 L28.3562 620.725 L28.3562 613.245 L45.0344 632.151 L64.0042 612.449 L64.0042 620.088 L46.5939 638.199 L64.0042 638.199 L64.0042 644.087 L14.479 644.087 Z" fill="#000000" fill-rule="evenodd" fill-opacity="1" /><path clip-path="url(#clip210)" d="M45.7664 582.658 Q39.4007 582.658 35.8996 585.3 Q32.3984 587.91 32.3984 592.652 Q32.3984 597.363 35.8996 600.004 Q39.4007 602.614 45.7664 602.614 Q52.1003 602.614 55.6014 600.004 Q59.1026 597.363 59.1026 592.652 Q59.1026 587.91 55.6014 585.3 Q52.1003 582.658 45.7664 582.658 M59.58 576.801 Q68.683 576.801 73.1071 580.844 Q77.5631 584.886 77.5631 593.225 Q77.5631 596.312 77.0857 599.05 Q76.6401 601.787 75.6852 604.365 L69.9879 604.365 Q71.3884 601.787 72.0568 599.272 Q72.7252 596.758 72.7252 594.148 Q72.7252 588.387 69.7015 585.522 Q66.7096 582.658 60.6303 582.658 L57.7339 582.658 Q60.885 584.472 62.4446 587.305 Q64.0042 590.138 64.0042 594.084 Q64.0042 600.641 59.0071 604.651 Q54.01 608.662 45.7664 608.662 Q37.491 608.662 32.4939 604.651 Q27.4968 600.641 27.4968 594.084 Q27.4968 590.138 29.0564 587.305 Q30.616 584.472 33.7671 582.658 L28.3562 582.658 L28.3562 576.801 L59.58 576.801 Z" fill="#000000" fill-rule="evenodd" fill-opacity="1" /><path clip-path="url(#clip210)" d="M16.4842 554.33 L16.4842 548.92 L70.0516 565.47 L70.0516 570.881 L16.4842 554.33 Z" fill="#000000" fill-rule="evenodd" fill-opacity="1" /><path clip-path="url(#clip210)" d="M35.1993 515.022 Q31.2526 512.826 29.3747 509.77 Q27.4968 506.715 27.4968 502.577 Q27.4968 497.007 31.4117 493.984 Q35.2948 490.96 42.4881 490.96 L64.0042 490.96 L64.0042 496.848 L42.679 496.848 Q37.5546 496.848 35.072 498.662 Q32.5894 500.477 32.5894 504.2 Q32.5894 508.752 35.6131 511.394 Q38.6368 514.035 43.8567 514.035 L64.0042 514.035 L64.0042 519.924 L42.679 519.924 Q37.5228 519.924 35.072 521.738 Q32.5894 523.552 32.5894 527.34 Q32.5894 531.828 35.6449 534.469 Q38.6686 537.111 43.8567 537.111 L64.0042 537.111 L64.0042 542.999 L28.3562 542.999 L28.3562 537.111 L33.8944 537.111 Q30.616 535.106 29.0564 532.305 Q27.4968 529.504 27.4968 525.653 Q27.4968 521.77 29.4702 519.064 Q31.4436 516.327 35.1993 515.022 Z" fill="#000000" fill-rule="evenodd" fill-opacity="1" /><path clip-path="url(#clip210)" d="M32.4621 465.465 Q32.4621 470.176 36.1542 472.913 Q39.8145 475.65 46.212 475.65 Q52.6095 475.65 56.3017 472.945 Q59.9619 470.208 59.9619 465.465 Q59.9619 460.786 56.2698 458.049 Q52.5777 455.312 46.212 455.312 Q39.8781 455.312 36.186 458.049 Q32.4621 460.786 32.4621 465.465 M27.4968 465.465 Q27.4968 457.826 32.4621 453.466 Q37.4273 449.105 46.212 449.105 Q54.9649 449.105 59.9619 453.466 Q64.9272 457.826 64.9272 465.465 Q64.9272 473.136 59.9619 477.496 Q54.9649 481.825 46.212 481.825 Q37.4273 481.825 32.4621 477.496 Q27.4968 473.136 27.4968 465.465 Z" fill="#000000" fill-rule="evenodd" fill-opacity="1" /><path clip-path="url(#clip210)" d="M14.479 439.398 L14.479 433.541 L64.0042 433.541 L64.0042 439.398 L14.479 439.398 Z" fill="#000000" fill-rule="evenodd" fill-opacity="1" /><path clip-path="url(#clip210)" d="M14.479 407.601 L72.5979 407.601 L72.5979 421.096 L68.0464 421.096 L68.0464 413.489 L19.0304 413.489 L19.0304 421.096 L14.479 421.096 L14.479 407.601 Z" fill="#000000" fill-rule="evenodd" fill-opacity="1" /><polyline clip-path="url(#clip212)" style="stroke:#009af9; stroke-linecap:butt; stroke-linejoin:round; stroke-width:4; stroke-opacity:1; fill:none" points="
  309.067,86.1857 529.53,1123.33 749.992,1347.56 970.455,1362.65 1190.92,1369.48 1411.38,1374.29 1631.84,1377.83 1852.31,1380.75 2072.77,1382.66 2293.23,1384.24 
  
  "/>
<path clip-path="url(#clip212)" d="M309.067 70.1857 L305.307 81.0017 L293.851 81.2417 L302.987 88.1697 L299.659 99.1297 L309.067 92.5857 L318.475 99.1297 L315.147 88.1697 L324.283 81.2417 L312.827 81.0017 L309.067 70.1857 Z" fill="#009af9" fill-rule="evenodd" fill-opacity="1" stroke="#000000" stroke-opacity="1" stroke-width="3.2"/>
<path clip-path="url(#clip212)" d="M529.53 1107.33 L525.77 1118.15 L514.314 1118.39 L523.45 1125.32 L520.122 1136.28 L529.53 1129.73 L538.938 1136.28 L535.61 1125.32 L544.746 1118.39 L533.29 1118.15 L529.53 1107.33 Z" fill="#009af9" fill-rule="evenodd" fill-opacity="1" stroke="#000000" stroke-opacity="1" stroke-width="3.2"/>
<path clip-path="url(#clip212)" d="M749.992 1331.56 L746.232 1342.38 L734.776 1342.62 L743.912 1349.55 L740.584 1360.51 L749.992 1353.96 L759.4 1360.51 L756.072 1349.55 L765.208 1342.62 L753.752 1342.38 L749.992 1331.56 Z" fill="#009af9" fill-rule="evenodd" fill-opacity="1" stroke="#000000" stroke-opacity="1" stroke-width="3.2"/>
<path clip-path="url(#clip212)" d="M970.455 1346.65 L966.695 1357.46 L955.239 1357.7 L964.375 1364.63 L961.047 1375.59 L970.455 1369.05 L979.863 1375.59 L976.535 1364.63 L985.671 1357.7 L974.215 1357.46 L970.455 1346.65 Z" fill="#009af9" fill-rule="evenodd" fill-opacity="1" stroke="#000000" stroke-opacity="1" stroke-width="3.2"/>
<path clip-path="url(#clip212)" d="M1190.92 1353.48 L1187.16 1364.3 L1175.7 1364.54 L1184.84 1371.47 L1181.51 1382.43 L1190.92 1375.88 L1200.33 1382.43 L1197 1371.47 L1206.13 1364.54 L1194.68 1364.3 L1190.92 1353.48 Z" fill="#009af9" fill-rule="evenodd" fill-opacity="1" stroke="#000000" stroke-opacity="1" stroke-width="3.2"/>
<path clip-path="url(#clip212)" d="M1411.38 1358.29 L1407.62 1369.11 L1396.16 1369.35 L1405.3 1376.28 L1401.97 1387.24 L1411.38 1380.69 L1420.79 1387.24 L1417.46 1376.28 L1426.6 1369.35 L1415.14 1369.11 L1411.38 1358.29 Z" fill="#009af9" fill-rule="evenodd" fill-opacity="1" stroke="#000000" stroke-opacity="1" stroke-width="3.2"/>
<path clip-path="url(#clip212)" d="M1631.84 1361.83 L1628.08 1372.64 L1616.63 1372.88 L1625.76 1379.81 L1622.43 1390.77 L1631.84 1384.23 L1641.25 1390.77 L1637.92 1379.81 L1647.06 1372.88 L1635.6 1372.64 L1631.84 1361.83 Z" fill="#009af9" fill-rule="evenodd" fill-opacity="1" stroke="#000000" stroke-opacity="1" stroke-width="3.2"/>
<path clip-path="url(#clip212)" d="M1852.31 1364.75 L1848.55 1375.57 L1837.09 1375.81 L1846.23 1382.74 L1842.9 1393.7 L1852.31 1387.15 L1861.71 1393.7 L1858.39 1382.74 L1867.52 1375.81 L1856.07 1375.57 L1852.31 1364.75 Z" fill="#009af9" fill-rule="evenodd" fill-opacity="1" stroke="#000000" stroke-opacity="1" stroke-width="3.2"/>
<path clip-path="url(#clip212)" d="M2072.77 1366.66 L2069.01 1377.47 L2057.55 1377.71 L2066.69 1384.64 L2063.36 1395.6 L2072.77 1389.06 L2082.18 1395.6 L2078.85 1384.64 L2087.98 1377.71 L2076.53 1377.47 L2072.77 1366.66 Z" fill="#009af9" fill-rule="evenodd" fill-opacity="1" stroke="#000000" stroke-opacity="1" stroke-width="3.2"/>
<path clip-path="url(#clip212)" d="M2293.23 1368.24 L2289.47 1379.05 L2278.01 1379.29 L2287.15 1386.22 L2283.82 1397.18 L2293.23 1390.64 L2302.64 1397.18 L2299.31 1386.22 L2308.45 1379.29 L2296.99 1379.05 L2293.23 1368.24 Z" fill="#009af9" fill-rule="evenodd" fill-opacity="1" stroke="#000000" stroke-opacity="1" stroke-width="3.2"/>
<polyline clip-path="url(#clip212)" style="stroke:#e26f46; stroke-linecap:butt; stroke-linejoin:round; stroke-width:4; stroke-opacity:1; fill:none" points="
  -1853.67,1378.15 4455.97,1378.15 
  "/>
<path clip-path="url(#clip210)" d="
M1680.93 248.629 L2282.65 248.629 L2282.65 93.1086 L1680.93 93.1086  Z
  " fill="#ffffff" fill-rule="evenodd" fill-opacity="1"/>
<polyline clip-path="url(#clip210)" style="stroke:#000000; stroke-linecap:butt; stroke-linejoin:round; stroke-width:4; stroke-opacity:1; fill:none" points="
  1680.93,248.629 2282.65,248.629 2282.65,93.1086 1680.93,93.1086 1680.93,248.629 
  "/>
<polyline clip-path="url(#clip210)" style="stroke:#009af9; stroke-linecap:butt; stroke-linejoin:round; stroke-width:4; stroke-opacity:1; fill:none" points="
  1704.3,144.949 1844.51,144.949 
  "/>
<path clip-path="url(#clip210)" d="M1774.4 119.349 L1768.39 136.654 L1750.06 137.038 L1764.68 148.123 L1759.35 165.659 L1774.4 155.189 L1789.46 165.659 L1784.13 148.123 L1798.75 137.038 L1780.42 136.654 L1774.4 119.349 Z" fill="#009af9" fill-rule="evenodd" fill-opacity="1" stroke="#000000" stroke-opacity="1" stroke-width="5.12"/>
<path clip-path="url(#clip210)" d="M1867.88 127.669 L1889.73 127.669 L1889.73 131.604 L1872.56 131.604 L1872.56 141.835 L1889.01 141.835 L1889.01 145.77 L1872.56 145.77 L1872.56 158.293 L1890.15 158.293 L1890.15 162.229 L1867.88 162.229 L1867.88 127.669 Z" fill="#000000" fill-rule="evenodd" fill-opacity="1" /><path clip-path="url(#clip210)" d="M1919.2 146.581 L1919.2 162.229 L1914.94 162.229 L1914.94 146.719 Q1914.94 143.039 1913.51 141.21 Q1912.07 139.382 1909.2 139.382 Q1905.75 139.382 1903.76 141.581 Q1901.77 143.78 1901.77 147.576 L1901.77 162.229 L1897.49 162.229 L1897.49 136.303 L1901.77 136.303 L1901.77 140.331 Q1903.3 137.993 1905.36 136.835 Q1907.44 135.678 1910.15 135.678 Q1914.62 135.678 1916.91 138.456 Q1919.2 141.21 1919.2 146.581 Z" fill="#000000" fill-rule="evenodd" fill-opacity="1" /><path clip-path="url(#clip210)" d="M1944.22 137.067 L1944.22 141.094 Q1942.42 140.169 1940.47 139.706 Q1938.53 139.243 1936.44 139.243 Q1933.27 139.243 1931.68 140.215 Q1930.1 141.187 1930.1 143.131 Q1930.1 144.613 1931.24 145.469 Q1932.37 146.303 1935.8 147.067 L1937.25 147.391 Q1941.79 148.363 1943.69 150.145 Q1945.61 151.905 1945.61 155.076 Q1945.61 158.687 1942.74 160.793 Q1939.89 162.9 1934.89 162.9 Q1932.81 162.9 1930.54 162.483 Q1928.3 162.09 1925.8 161.28 L1925.8 156.881 Q1928.16 158.108 1930.45 158.733 Q1932.74 159.335 1934.99 159.335 Q1938 159.335 1939.62 158.317 Q1941.24 157.275 1941.24 155.4 Q1941.24 153.664 1940.06 152.738 Q1938.9 151.812 1934.94 150.956 L1933.46 150.608 Q1929.5 149.775 1927.74 148.062 Q1925.98 146.326 1925.98 143.317 Q1925.98 139.659 1928.57 137.669 Q1931.17 135.678 1935.94 135.678 Q1938.3 135.678 1940.38 136.025 Q1942.46 136.372 1944.22 137.067 Z" fill="#000000" fill-rule="evenodd" fill-opacity="1" /><path clip-path="url(#clip210)" d="M1974.57 148.201 L1974.57 150.284 L1954.99 150.284 Q1955.26 154.682 1957.63 156.997 Q1960.01 159.289 1964.25 159.289 Q1966.7 159.289 1968.99 158.687 Q1971.31 158.085 1973.57 156.881 L1973.57 160.909 Q1971.28 161.881 1968.88 162.391 Q1966.47 162.9 1963.99 162.9 Q1957.79 162.9 1954.15 159.289 Q1950.54 155.678 1950.54 149.52 Q1950.54 143.155 1953.97 139.428 Q1957.42 135.678 1963.25 135.678 Q1968.48 135.678 1971.51 139.057 Q1974.57 142.414 1974.57 148.201 M1970.31 146.951 Q1970.26 143.456 1968.34 141.372 Q1966.44 139.289 1963.3 139.289 Q1959.73 139.289 1957.58 141.303 Q1955.45 143.317 1955.13 146.974 L1970.31 146.951 Z" fill="#000000" fill-rule="evenodd" fill-opacity="1" /><path clip-path="url(#clip210)" d="M2001.75 141.28 Q2003.34 138.409 2005.56 137.044 Q2007.79 135.678 2010.8 135.678 Q2014.85 135.678 2017.05 138.525 Q2019.25 141.349 2019.25 146.581 L2019.25 162.229 L2014.96 162.229 L2014.96 146.719 Q2014.96 142.993 2013.64 141.187 Q2012.32 139.382 2009.62 139.382 Q2006.31 139.382 2004.38 141.581 Q2002.46 143.78 2002.46 147.576 L2002.46 162.229 L1998.18 162.229 L1998.18 146.719 Q1998.18 142.969 1996.86 141.187 Q1995.54 139.382 1992.79 139.382 Q1989.52 139.382 1987.6 141.604 Q1985.68 143.803 1985.68 147.576 L1985.68 162.229 L1981.4 162.229 L1981.4 136.303 L1985.68 136.303 L1985.68 140.331 Q1987.14 137.946 1989.18 136.812 Q1991.21 135.678 1994.01 135.678 Q1996.84 135.678 1998.81 137.113 Q2000.8 138.548 2001.75 141.28 Z" fill="#000000" fill-rule="evenodd" fill-opacity="1" /><path clip-path="url(#clip210)" d="M2046.35 149.289 Q2046.35 144.59 2044.41 141.928 Q2042.49 139.243 2039.11 139.243 Q2035.73 139.243 2033.78 141.928 Q2031.86 144.59 2031.86 149.289 Q2031.86 153.988 2033.78 156.673 Q2035.73 159.335 2039.11 159.335 Q2042.49 159.335 2044.41 156.673 Q2046.35 153.988 2046.35 149.289 M2031.86 140.238 Q2033.2 137.923 2035.24 136.812 Q2037.3 135.678 2040.15 135.678 Q2044.87 135.678 2047.81 139.428 Q2050.77 143.178 2050.77 149.289 Q2050.77 155.4 2047.81 159.15 Q2044.87 162.9 2040.15 162.9 Q2037.3 162.9 2035.24 161.789 Q2033.2 160.655 2031.86 158.34 L2031.86 162.229 L2027.58 162.229 L2027.58 126.21 L2031.86 126.21 L2031.86 140.238 Z" fill="#000000" fill-rule="evenodd" fill-opacity="1" /><path clip-path="url(#clip210)" d="M2057.83 126.21 L2062.09 126.21 L2062.09 162.229 L2057.83 162.229 L2057.83 126.21 Z" fill="#000000" fill-rule="evenodd" fill-opacity="1" /><path clip-path="url(#clip210)" d="M2093.18 148.201 L2093.18 150.284 L2073.6 150.284 Q2073.87 154.682 2076.24 156.997 Q2078.62 159.289 2082.86 159.289 Q2085.31 159.289 2087.6 158.687 Q2089.92 158.085 2092.18 156.881 L2092.18 160.909 Q2089.89 161.881 2087.49 162.391 Q2085.08 162.9 2082.6 162.9 Q2076.4 162.9 2072.76 159.289 Q2069.15 155.678 2069.15 149.52 Q2069.15 143.155 2072.58 139.428 Q2076.03 135.678 2081.86 135.678 Q2087.09 135.678 2090.12 139.057 Q2093.18 142.414 2093.18 148.201 M2088.92 146.951 Q2088.87 143.456 2086.95 141.372 Q2085.06 139.289 2081.91 139.289 Q2078.34 139.289 2076.19 141.303 Q2074.06 143.317 2073.74 146.974 L2088.92 146.951 Z" fill="#000000" fill-rule="evenodd" fill-opacity="1" /><path clip-path="url(#clip210)" d="M2115.43 127.669 L2122.39 127.669 L2131.21 151.187 L2140.08 127.669 L2147.05 127.669 L2147.05 162.229 L2142.49 162.229 L2142.49 131.882 L2133.57 155.585 L2128.87 155.585 L2119.96 131.882 L2119.96 162.229 L2115.43 162.229 L2115.43 127.669 Z" fill="#000000" fill-rule="evenodd" fill-opacity="1" /><path clip-path="url(#clip210)" d="M2178.32 148.201 L2178.32 150.284 L2158.74 150.284 Q2159.01 154.682 2161.37 156.997 Q2163.76 159.289 2167.99 159.289 Q2170.45 159.289 2172.74 158.687 Q2175.05 158.085 2177.32 156.881 L2177.32 160.909 Q2175.03 161.881 2172.62 162.391 Q2170.22 162.9 2167.74 162.9 Q2161.54 162.9 2157.9 159.289 Q2154.29 155.678 2154.29 149.52 Q2154.29 143.155 2157.72 139.428 Q2161.17 135.678 2167 135.678 Q2172.23 135.678 2175.26 139.057 Q2178.32 142.414 2178.32 148.201 M2174.06 146.951 Q2174.01 143.456 2172.09 141.372 Q2170.19 139.289 2167.05 139.289 Q2163.48 139.289 2161.33 141.303 Q2159.2 143.317 2158.87 146.974 L2174.06 146.951 Z" fill="#000000" fill-rule="evenodd" fill-opacity="1" /><path clip-path="url(#clip210)" d="M2197.09 149.196 Q2191.93 149.196 2189.94 150.377 Q2187.95 151.557 2187.95 154.405 Q2187.95 156.673 2189.43 158.016 Q2190.93 159.335 2193.5 159.335 Q2197.05 159.335 2199.17 156.835 Q2201.33 154.312 2201.33 150.145 L2201.33 149.196 L2197.09 149.196 M2205.59 147.437 L2205.59 162.229 L2201.33 162.229 L2201.33 158.293 Q2199.87 160.655 2197.69 161.789 Q2195.52 162.9 2192.37 162.9 Q2188.39 162.9 2186.03 160.678 Q2183.69 158.432 2183.69 154.682 Q2183.69 150.307 2186.61 148.085 Q2189.55 145.863 2195.36 145.863 L2201.33 145.863 L2201.33 145.446 Q2201.33 142.507 2199.38 140.909 Q2197.46 139.289 2193.97 139.289 Q2191.74 139.289 2189.64 139.821 Q2187.53 140.354 2185.59 141.419 L2185.59 137.483 Q2187.92 136.581 2190.12 136.141 Q2192.32 135.678 2194.41 135.678 Q2200.03 135.678 2202.81 138.594 Q2205.59 141.511 2205.59 147.437 Z" fill="#000000" fill-rule="evenodd" fill-opacity="1" /><path clip-path="url(#clip210)" d="M2235.91 146.581 L2235.91 162.229 L2231.65 162.229 L2231.65 146.719 Q2231.65 143.039 2230.22 141.21 Q2228.78 139.382 2225.91 139.382 Q2222.46 139.382 2220.47 141.581 Q2218.48 143.78 2218.48 147.576 L2218.48 162.229 L2214.2 162.229 L2214.2 136.303 L2218.48 136.303 L2218.48 140.331 Q2220.01 137.993 2222.07 136.835 Q2224.15 135.678 2226.86 135.678 Q2231.33 135.678 2233.62 138.456 Q2235.91 141.21 2235.91 146.581 Z" fill="#000000" fill-rule="evenodd" fill-opacity="1" /><polyline clip-path="url(#clip210)" style="stroke:#e26f46; stroke-linecap:butt; stroke-linejoin:round; stroke-width:4; stroke-opacity:1; fill:none" points="
  1704.3,196.789 1844.51,196.789 
  "/>
<path clip-path="url(#clip210)" d="M1875.29 180.782 L1875.29 188.143 L1884.06 188.143 L1884.06 191.453 L1875.29 191.453 L1875.29 205.527 Q1875.29 208.698 1876.14 209.601 Q1877.02 210.504 1879.69 210.504 L1884.06 210.504 L1884.06 214.069 L1879.69 214.069 Q1874.76 214.069 1872.88 212.24 Q1871.01 210.388 1871.01 205.527 L1871.01 191.453 L1867.88 191.453 L1867.88 188.143 L1871.01 188.143 L1871.01 180.782 L1875.29 180.782 Z" fill="#000000" fill-rule="evenodd" fill-opacity="1" /><path clip-path="url(#clip210)" d="M1904.69 192.124 Q1903.97 191.708 1903.11 191.522 Q1902.28 191.314 1901.26 191.314 Q1897.65 191.314 1895.7 193.675 Q1893.78 196.013 1893.78 200.411 L1893.78 214.069 L1889.5 214.069 L1889.5 188.143 L1893.78 188.143 L1893.78 192.171 Q1895.13 189.809 1897.28 188.675 Q1899.43 187.518 1902.51 187.518 Q1902.95 187.518 1903.48 187.587 Q1904.01 187.634 1904.66 187.749 L1904.69 192.124 Z" fill="#000000" fill-rule="evenodd" fill-opacity="1" /><path clip-path="url(#clip210)" d="M1908.71 203.837 L1908.71 188.143 L1912.97 188.143 L1912.97 203.675 Q1912.97 207.356 1914.41 209.208 Q1915.84 211.036 1918.71 211.036 Q1922.16 211.036 1924.15 208.837 Q1926.17 206.638 1926.17 202.842 L1926.17 188.143 L1930.43 188.143 L1930.43 214.069 L1926.17 214.069 L1926.17 210.087 Q1924.62 212.448 1922.56 213.606 Q1920.52 214.74 1917.81 214.74 Q1913.34 214.74 1911.03 211.962 Q1908.71 209.184 1908.71 203.837 M1919.43 187.518 L1919.43 187.518 Z" fill="#000000" fill-rule="evenodd" fill-opacity="1" /><path clip-path="url(#clip210)" d="M1961.38 200.041 L1961.38 202.124 L1941.79 202.124 Q1942.07 206.522 1944.43 208.837 Q1946.82 211.129 1951.05 211.129 Q1953.5 211.129 1955.8 210.527 Q1958.11 209.925 1960.38 208.721 L1960.38 212.749 Q1958.09 213.721 1955.68 214.231 Q1953.27 214.74 1950.8 214.74 Q1944.59 214.74 1940.96 211.129 Q1937.35 207.518 1937.35 201.36 Q1937.35 194.995 1940.77 191.268 Q1944.22 187.518 1950.06 187.518 Q1955.29 187.518 1958.32 190.897 Q1961.38 194.254 1961.38 200.041 M1957.12 198.791 Q1957.07 195.296 1955.15 193.212 Q1953.25 191.129 1950.1 191.129 Q1946.54 191.129 1944.38 193.143 Q1942.25 195.157 1941.93 198.814 L1957.12 198.791 Z" fill="#000000" fill-rule="evenodd" fill-opacity="1" /><path clip-path="url(#clip210)" d="M1980.38 188.143 L1984.89 188.143 L1993 209.902 L2001.1 188.143 L2005.61 188.143 L1995.89 214.069 L1990.1 214.069 L1980.38 188.143 Z" fill="#000000" fill-rule="evenodd" fill-opacity="1" /><path clip-path="url(#clip210)" d="M2023.27 201.036 Q2018.11 201.036 2016.12 202.217 Q2014.13 203.397 2014.13 206.245 Q2014.13 208.513 2015.61 209.856 Q2017.12 211.175 2019.68 211.175 Q2023.23 211.175 2025.36 208.675 Q2027.51 206.152 2027.51 201.985 L2027.51 201.036 L2023.27 201.036 M2031.77 199.277 L2031.77 214.069 L2027.51 214.069 L2027.51 210.133 Q2026.05 212.495 2023.87 213.629 Q2021.7 214.74 2018.55 214.74 Q2014.57 214.74 2012.21 212.518 Q2009.87 210.272 2009.87 206.522 Q2009.87 202.147 2012.79 199.925 Q2015.73 197.703 2021.54 197.703 L2027.51 197.703 L2027.51 197.286 Q2027.51 194.347 2025.56 192.749 Q2023.64 191.129 2020.15 191.129 Q2017.93 191.129 2015.82 191.661 Q2013.71 192.194 2011.77 193.259 L2011.77 189.323 Q2014.11 188.421 2016.31 187.981 Q2018.5 187.518 2020.59 187.518 Q2026.21 187.518 2028.99 190.434 Q2031.77 193.351 2031.77 199.277 Z" fill="#000000" fill-rule="evenodd" fill-opacity="1" /><path clip-path="url(#clip210)" d="M2040.54 178.05 L2044.8 178.05 L2044.8 214.069 L2040.54 214.069 L2040.54 178.05 Z" fill="#000000" fill-rule="evenodd" fill-opacity="1" /><path clip-path="url(#clip210)" d="M2053.27 203.837 L2053.27 188.143 L2057.53 188.143 L2057.53 203.675 Q2057.53 207.356 2058.97 209.208 Q2060.4 211.036 2063.27 211.036 Q2066.72 211.036 2068.71 208.837 Q2070.73 206.638 2070.73 202.842 L2070.73 188.143 L2074.99 188.143 L2074.99 214.069 L2070.73 214.069 L2070.73 210.087 Q2069.18 212.448 2067.12 213.606 Q2065.08 214.74 2062.37 214.74 Q2057.9 214.74 2055.59 211.962 Q2053.27 209.184 2053.27 203.837 M2063.99 187.518 L2063.99 187.518 Z" fill="#000000" fill-rule="evenodd" fill-opacity="1" /><path clip-path="url(#clip210)" d="M2105.93 200.041 L2105.93 202.124 L2086.35 202.124 Q2086.63 206.522 2088.99 208.837 Q2091.37 211.129 2095.61 211.129 Q2098.06 211.129 2100.36 210.527 Q2102.67 209.925 2104.94 208.721 L2104.94 212.749 Q2102.65 213.721 2100.24 214.231 Q2097.83 214.74 2095.36 214.74 Q2089.15 214.74 2085.52 211.129 Q2081.91 207.518 2081.91 201.36 Q2081.91 194.995 2085.33 191.268 Q2088.78 187.518 2094.62 187.518 Q2099.85 187.518 2102.88 190.897 Q2105.93 194.254 2105.93 200.041 M2101.68 198.791 Q2101.63 195.296 2099.71 193.212 Q2097.81 191.129 2094.66 191.129 Q2091.1 191.129 2088.94 193.143 Q2086.81 195.157 2086.49 198.814 L2101.68 198.791 Z" fill="#000000" fill-rule="evenodd" fill-opacity="1" /></svg>
