<?xml version="1.0" encoding="utf-8"?>
<svg xmlns="http://www.w3.org/2000/svg" xmlns:xlink="http://www.w3.org/1999/xlink" width="450" height="450" viewBox="0 0 1800 1800">
<defs>
  <clipPath id="clip740">
    <rect x="0" y="0" width="1800" height="1800"/>
  </clipPath>
</defs>
<path clip-path="url(#clip740)" d="M0 1800 L1800 1800 L1800 0 L0 0  Z" fill="#ffffff" fill-rule="evenodd" fill-opacity="1"/>
<defs>
  <clipPath id="clip741">
    <rect x="360" y="180" width="1261" height="1261"/>
  </clipPath>
</defs>
<path clip-path="url(#clip740)" d="M166.015 1667.17 L1752.76 1667.17 L1752.76 153.712 L166.015 153.712  Z" fill="#ffffff" fill-rule="evenodd" fill-opacity="1"/>
<defs>
  <clipPath id="clip742">
    <rect x="166" y="153" width="1588" height="1514"/>
  </clipPath>
</defs>
<polyline clip-path="url(#clip742)" style="stroke:#000000; stroke-linecap:round; stroke-linejoin:round; stroke-width:2; stroke-opacity:0.1; fill:none" points="297.419,1667.17 297.419,153.712 "/>
<polyline clip-path="url(#clip742)" style="stroke:#000000; stroke-linecap:round; stroke-linejoin:round; stroke-width:2; stroke-opacity:0.1; fill:none" points="518.075,1667.17 518.075,153.712 "/>
<polyline clip-path="url(#clip742)" style="stroke:#000000; stroke-linecap:round; stroke-linejoin:round; stroke-width:2; stroke-opacity:0.1; fill:none" points="738.73,1667.17 738.73,153.712 "/>
<polyline clip-path="url(#clip742)" style="stroke:#000000; stroke-linecap:round; stroke-linejoin:round; stroke-width:2; stroke-opacity:0.1; fill:none" points="959.385,1667.17 959.385,153.712 "/>
<polyline clip-path="url(#clip742)" style="stroke:#000000; stroke-linecap:round; stroke-linejoin:round; stroke-width:2; stroke-opacity:0.1; fill:none" points="1180.04,1667.17 1180.04,153.712 "/>
<polyline clip-path="url(#clip742)" style="stroke:#000000; stroke-linecap:round; stroke-linejoin:round; stroke-width:2; stroke-opacity:0.1; fill:none" points="1400.7,1667.17 1400.7,153.712 "/>
<polyline clip-path="url(#clip742)" style="stroke:#000000; stroke-linecap:round; stroke-linejoin:round; stroke-width:2; stroke-opacity:0.1; fill:none" points="1621.35,1667.17 1621.35,153.712 "/>
<polyline clip-path="url(#clip742)" style="stroke:#000000; stroke-linecap:round; stroke-linejoin:round; stroke-width:2; stroke-opacity:0.1; fill:none" points="166.015,1667.17 1752.76,1667.17 "/>
<polyline clip-path="url(#clip742)" style="stroke:#000000; stroke-linecap:round; stroke-linejoin:round; stroke-width:2; stroke-opacity:0.1; fill:none" points="166.015,1365.68 1752.76,1365.68 "/>
<polyline clip-path="url(#clip742)" style="stroke:#000000; stroke-linecap:round; stroke-linejoin:round; stroke-width:2; stroke-opacity:0.1; fill:none" points="166.015,1064.2 1752.76,1064.2 "/>
<polyline clip-path="url(#clip742)" style="stroke:#000000; stroke-linecap:round; stroke-linejoin:round; stroke-width:2; stroke-opacity:0.1; fill:none" points="166.015,762.712 1752.76,762.712 "/>
<polyline clip-path="url(#clip742)" style="stroke:#000000; stroke-linecap:round; stroke-linejoin:round; stroke-width:2; stroke-opacity:0.1; fill:none" points="166.015,461.227 1752.76,461.227 "/>
<polyline clip-path="url(#clip742)" style="stroke:#000000; stroke-linecap:round; stroke-linejoin:round; stroke-width:2; stroke-opacity:0.1; fill:none" points="166.015,159.742 1752.76,159.742 "/>
<polyline clip-path="url(#clip740)" style="stroke:#000000; stroke-linecap:round; stroke-linejoin:round; stroke-width:4; stroke-opacity:1; fill:none" points="166.015,1667.17 1752.76,1667.17 "/>
<polyline clip-path="url(#clip740)" style="stroke:#000000; stroke-linecap:round; stroke-linejoin:round; stroke-width:4; stroke-opacity:1; fill:none" points="297.419,1667.17 297.419,1648.27 "/>
<polyline clip-path="url(#clip740)" style="stroke:#000000; stroke-linecap:round; stroke-linejoin:round; stroke-width:4; stroke-opacity:1; fill:none" points="518.075,1667.17 518.075,1648.27 "/>
<polyline clip-path="url(#clip740)" style="stroke:#000000; stroke-linecap:round; stroke-linejoin:round; stroke-width:4; stroke-opacity:1; fill:none" points="738.73,1667.17 738.73,1648.27 "/>
<polyline clip-path="url(#clip740)" style="stroke:#000000; stroke-linecap:round; stroke-linejoin:round; stroke-width:4; stroke-opacity:1; fill:none" points="959.385,1667.17 959.385,1648.27 "/>
<polyline clip-path="url(#clip740)" style="stroke:#000000; stroke-linecap:round; stroke-linejoin:round; stroke-width:4; stroke-opacity:1; fill:none" points="1180.04,1667.17 1180.04,1648.27 "/>
<polyline clip-path="url(#clip740)" style="stroke:#000000; stroke-linecap:round; stroke-linejoin:round; stroke-width:4; stroke-opacity:1; fill:none" points="1400.7,1667.17 1400.7,1648.27 "/>
<polyline clip-path="url(#clip740)" style="stroke:#000000; stroke-linecap:round; stroke-linejoin:round; stroke-width:4; stroke-opacity:1; fill:none" points="1621.35,1667.17 1621.35,1648.27 "/>
<path clip-path="url(#clip740)" d="M267.362 1707.94 L297.038 1707.94 L297.038 1711.87 L267.362 1711.87 L267.362 1707.94 Z" fill="#000000" fill-rule="nonzero" fill-opacity="1" /><path clip-path="url(#clip740)" d="M311.158 1720.83 L327.477 1720.83 L327.477 1724.77 L305.533 1724.77 L305.533 1720.83 Q308.195 1718.08 312.778 1713.45 Q317.385 1708.8 318.565 1707.45 Q320.811 1704.93 321.69 1703.19 Q322.593 1701.43 322.593 1699.74 Q322.593 1696.99 320.649 1695.25 Q318.727 1693.52 315.625 1693.52 Q313.426 1693.52 310.973 1694.28 Q308.542 1695.05 305.764 1696.6 L305.764 1691.87 Q308.588 1690.74 311.042 1690.16 Q313.496 1689.58 315.533 1689.58 Q320.903 1689.58 324.098 1692.27 Q327.292 1694.95 327.292 1699.44 Q327.292 1701.57 326.482 1703.49 Q325.695 1705.39 323.588 1707.99 Q323.01 1708.66 319.908 1711.87 Q316.806 1715.07 311.158 1720.83 Z" fill="#000000" fill-rule="nonzero" fill-opacity="1" /><path clip-path="url(#clip740)" d="M487.832 1707.94 L517.508 1707.94 L517.508 1711.87 L487.832 1711.87 L487.832 1707.94 Z" fill="#000000" fill-rule="nonzero" fill-opacity="1" /><path clip-path="url(#clip740)" d="M528.41 1720.83 L536.049 1720.83 L536.049 1694.47 L527.739 1696.13 L527.739 1691.87 L536.003 1690.21 L540.679 1690.21 L540.679 1720.83 L548.318 1720.83 L548.318 1724.77 L528.41 1724.77 L528.41 1720.83 Z" fill="#000000" fill-rule="nonzero" fill-opacity="1" /><path clip-path="url(#clip740)" d="M738.73 1693.29 Q735.119 1693.29 733.29 1696.85 Q731.485 1700.39 731.485 1707.52 Q731.485 1714.63 733.29 1718.19 Q735.119 1721.74 738.73 1721.74 Q742.364 1721.74 744.17 1718.19 Q745.999 1714.63 745.999 1707.52 Q745.999 1700.39 744.17 1696.85 Q742.364 1693.29 738.73 1693.29 M738.73 1689.58 Q744.54 1689.58 747.596 1694.19 Q750.674 1698.77 750.674 1707.52 Q750.674 1716.25 747.596 1720.86 Q744.54 1725.44 738.73 1725.44 Q732.92 1725.44 729.841 1720.86 Q726.786 1716.25 726.786 1707.52 Q726.786 1698.77 729.841 1694.19 Q732.92 1689.58 738.73 1689.58 Z" fill="#000000" fill-rule="nonzero" fill-opacity="1" /><path clip-path="url(#clip740)" d="M949.767 1720.83 L957.406 1720.83 L957.406 1694.47 L949.096 1696.13 L949.096 1691.87 L957.36 1690.21 L962.036 1690.21 L962.036 1720.83 L969.675 1720.83 L969.675 1724.77 L949.767 1724.77 L949.767 1720.83 Z" fill="#000000" fill-rule="nonzero" fill-opacity="1" /><path clip-path="url(#clip740)" d="M1174.69 1720.83 L1191.01 1720.83 L1191.01 1724.77 L1169.07 1724.77 L1169.07 1720.83 Q1171.73 1718.08 1176.31 1713.45 Q1180.92 1708.8 1182.1 1707.45 Q1184.35 1704.93 1185.23 1703.19 Q1186.13 1701.43 1186.13 1699.74 Q1186.13 1696.99 1184.18 1695.25 Q1182.26 1693.52 1179.16 1693.52 Q1176.96 1693.52 1174.51 1694.28 Q1172.08 1695.05 1169.3 1696.6 L1169.3 1691.87 Q1172.12 1690.74 1174.58 1690.16 Q1177.03 1689.58 1179.07 1689.58 Q1184.44 1689.58 1187.63 1692.27 Q1190.83 1694.95 1190.83 1699.44 Q1190.83 1701.57 1190.02 1703.49 Q1189.23 1705.39 1187.12 1707.99 Q1186.55 1708.66 1183.44 1711.87 Q1180.34 1715.07 1174.69 1720.83 Z" fill="#000000" fill-rule="nonzero" fill-opacity="1" /><path clip-path="url(#clip740)" d="M1404.94 1706.13 Q1408.3 1706.85 1410.18 1709.12 Q1412.07 1711.39 1412.07 1714.72 Q1412.07 1719.84 1408.55 1722.64 Q1405.04 1725.44 1398.55 1725.44 Q1396.38 1725.44 1394.06 1725 Q1391.77 1724.58 1389.32 1723.73 L1389.32 1719.21 Q1391.26 1720.35 1393.58 1720.93 Q1395.89 1721.5 1398.42 1721.5 Q1402.81 1721.5 1405.11 1719.77 Q1407.42 1718.03 1407.42 1714.72 Q1407.42 1711.67 1405.27 1709.95 Q1403.14 1708.22 1399.32 1708.22 L1395.29 1708.22 L1395.29 1704.37 L1399.5 1704.37 Q1402.95 1704.37 1404.78 1703.01 Q1406.61 1701.62 1406.61 1699.03 Q1406.61 1696.37 1404.71 1694.95 Q1402.84 1693.52 1399.32 1693.52 Q1397.4 1693.52 1395.2 1693.93 Q1393 1694.35 1390.36 1695.23 L1390.36 1691.06 Q1393.02 1690.32 1395.34 1689.95 Q1397.68 1689.58 1399.74 1689.58 Q1405.06 1689.58 1408.16 1692.01 Q1411.26 1694.42 1411.26 1698.54 Q1411.26 1701.41 1409.62 1703.4 Q1407.98 1705.37 1404.94 1706.13 Z" fill="#000000" fill-rule="nonzero" fill-opacity="1" /><path clip-path="url(#clip740)" d="M1624.36 1694.28 L1612.56 1712.73 L1624.36 1712.73 L1624.36 1694.28 M1623.13 1690.21 L1629.01 1690.21 L1629.01 1712.73 L1633.94 1712.73 L1633.94 1716.62 L1629.01 1716.62 L1629.01 1724.77 L1624.36 1724.77 L1624.36 1716.62 L1608.76 1716.62 L1608.76 1712.11 L1623.13 1690.21 Z" fill="#000000" fill-rule="nonzero" fill-opacity="1" /><polyline clip-path="url(#clip740)" style="stroke:#000000; stroke-linecap:round; stroke-linejoin:round; stroke-width:4; stroke-opacity:1; fill:none" points="166.015,1667.17 166.015,153.712 "/>
<polyline clip-path="url(#clip740)" style="stroke:#000000; stroke-linecap:round; stroke-linejoin:round; stroke-width:4; stroke-opacity:1; fill:none" points="166.015,1667.17 184.912,1667.17 "/>
<polyline clip-path="url(#clip740)" style="stroke:#000000; stroke-linecap:round; stroke-linejoin:round; stroke-width:4; stroke-opacity:1; fill:none" points="166.015,1365.68 184.912,1365.68 "/>
<polyline clip-path="url(#clip740)" style="stroke:#000000; stroke-linecap:round; stroke-linejoin:round; stroke-width:4; stroke-opacity:1; fill:none" points="166.015,1064.2 184.912,1064.2 "/>
<polyline clip-path="url(#clip740)" style="stroke:#000000; stroke-linecap:round; stroke-linejoin:round; stroke-width:4; stroke-opacity:1; fill:none" points="166.015,762.712 184.912,762.712 "/>
<polyline clip-path="url(#clip740)" style="stroke:#000000; stroke-linecap:round; stroke-linejoin:round; stroke-width:4; stroke-opacity:1; fill:none" points="166.015,461.227 184.912,461.227 "/>
<polyline clip-path="url(#clip740)" style="stroke:#000000; stroke-linecap:round; stroke-linejoin:round; stroke-width:4; stroke-opacity:1; fill:none" points="166.015,159.742 184.912,159.742 "/>
<path clip-path="url(#clip740)" d="M127.07 1652.97 Q123.459 1652.97 121.631 1656.53 Q119.825 1660.07 119.825 1667.2 Q119.825 1674.31 121.631 1677.87 Q123.459 1681.42 127.07 1681.42 Q130.705 1681.42 132.51 1677.87 Q134.339 1674.31 134.339 1667.2 Q134.339 1660.07 132.51 1656.53 Q130.705 1652.97 127.07 1652.97 M127.07 1649.26 Q132.881 1649.26 135.936 1653.87 Q139.015 1658.45 139.015 1667.2 Q139.015 1675.93 135.936 1680.54 Q132.881 1685.12 127.07 1685.12 Q121.26 1685.12 118.182 1680.54 Q115.126 1675.93 115.126 1667.2 Q115.126 1658.45 118.182 1653.87 Q121.26 1649.26 127.07 1649.26 Z" fill="#000000" fill-rule="nonzero" fill-opacity="1" /><path clip-path="url(#clip740)" d="M57.5569 1379.03 L65.1958 1379.03 L65.1958 1352.66 L56.8856 1354.33 L56.8856 1350.07 L65.1495 1348.4 L69.8254 1348.4 L69.8254 1379.03 L77.4642 1379.03 L77.4642 1382.96 L57.5569 1382.96 L57.5569 1379.03 Z" fill="#000000" fill-rule="nonzero" fill-opacity="1" /><path clip-path="url(#clip740)" d="M96.9086 1351.48 Q93.2975 1351.48 91.4688 1355.05 Q89.6632 1358.59 89.6632 1365.72 Q89.6632 1372.82 91.4688 1376.39 Q93.2975 1379.93 96.9086 1379.93 Q100.543 1379.93 102.348 1376.39 Q104.177 1372.82 104.177 1365.72 Q104.177 1358.59 102.348 1355.05 Q100.543 1351.48 96.9086 1351.48 M96.9086 1347.78 Q102.719 1347.78 105.774 1352.38 Q108.853 1356.97 108.853 1365.72 Q108.853 1374.44 105.774 1379.05 Q102.719 1383.63 96.9086 1383.63 Q91.0984 1383.63 88.0197 1379.05 Q84.9642 1374.44 84.9642 1365.72 Q84.9642 1356.97 88.0197 1352.38 Q91.0984 1347.78 96.9086 1347.78 Z" fill="#000000" fill-rule="nonzero" fill-opacity="1" /><path clip-path="url(#clip740)" d="M127.07 1351.48 Q123.459 1351.48 121.631 1355.05 Q119.825 1358.59 119.825 1365.72 Q119.825 1372.82 121.631 1376.39 Q123.459 1379.93 127.07 1379.93 Q130.705 1379.93 132.51 1376.39 Q134.339 1372.82 134.339 1365.72 Q134.339 1358.59 132.51 1355.05 Q130.705 1351.48 127.07 1351.48 M127.07 1347.78 Q132.881 1347.78 135.936 1352.38 Q139.015 1356.97 139.015 1365.72 Q139.015 1374.44 135.936 1379.05 Q132.881 1383.63 127.07 1383.63 Q121.26 1383.63 118.182 1379.05 Q115.126 1374.44 115.126 1365.72 Q115.126 1356.97 118.182 1352.38 Q121.26 1347.78 127.07 1347.78 Z" fill="#000000" fill-rule="nonzero" fill-opacity="1" /><path clip-path="url(#clip740)" d="M60.7745 1077.54 L77.0939 1077.54 L77.0939 1081.48 L55.1495 1081.48 L55.1495 1077.54 Q57.8115 1074.79 62.3949 1070.16 Q67.0013 1065.51 68.1819 1064.16 Q70.4272 1061.64 71.3068 1059.9 Q72.2096 1058.14 72.2096 1056.45 Q72.2096 1053.7 70.2652 1051.96 Q68.3439 1050.23 65.2421 1050.23 Q63.043 1050.23 60.5893 1050.99 Q58.1588 1051.76 55.381 1053.31 L55.381 1048.58 Q58.2051 1047.45 60.6588 1046.87 Q63.1124 1046.29 65.1495 1046.29 Q70.5198 1046.29 73.7142 1048.98 Q76.9087 1051.66 76.9087 1056.15 Q76.9087 1058.28 76.0985 1060.2 Q75.3115 1062.1 73.205 1064.7 Q72.6263 1065.37 69.5245 1068.58 Q66.4226 1071.78 60.7745 1077.54 Z" fill="#000000" fill-rule="nonzero" fill-opacity="1" /><path clip-path="url(#clip740)" d="M96.9086 1050 Q93.2975 1050 91.4688 1053.56 Q89.6632 1057.1 89.6632 1064.23 Q89.6632 1071.34 91.4688 1074.9 Q93.2975 1078.45 96.9086 1078.45 Q100.543 1078.45 102.348 1074.9 Q104.177 1071.34 104.177 1064.23 Q104.177 1057.1 102.348 1053.56 Q100.543 1050 96.9086 1050 M96.9086 1046.29 Q102.719 1046.29 105.774 1050.9 Q108.853 1055.48 108.853 1064.23 Q108.853 1072.96 105.774 1077.57 Q102.719 1082.15 96.9086 1082.15 Q91.0984 1082.15 88.0197 1077.57 Q84.9642 1072.96 84.9642 1064.23 Q84.9642 1055.48 88.0197 1050.9 Q91.0984 1046.29 96.9086 1046.29 Z" fill="#000000" fill-rule="nonzero" fill-opacity="1" /><path clip-path="url(#clip740)" d="M127.07 1050 Q123.459 1050 121.631 1053.56 Q119.825 1057.1 119.825 1064.23 Q119.825 1071.34 121.631 1074.9 Q123.459 1078.45 127.07 1078.45 Q130.705 1078.45 132.51 1074.9 Q134.339 1071.34 134.339 1064.23 Q134.339 1057.1 132.51 1053.56 Q130.705 1050 127.07 1050 M127.07 1046.29 Q132.881 1046.29 135.936 1050.9 Q139.015 1055.48 139.015 1064.23 Q139.015 1072.96 135.936 1077.57 Q132.881 1082.15 127.07 1082.15 Q121.26 1082.15 118.182 1077.57 Q115.126 1072.96 115.126 1064.23 Q115.126 1055.48 118.182 1050.9 Q121.26 1046.29 127.07 1046.29 Z" fill="#000000" fill-rule="nonzero" fill-opacity="1" /><path clip-path="url(#clip740)" d="M70.9133 761.358 Q74.2698 762.076 76.1448 764.344 Q78.0429 766.613 78.0429 769.946 Q78.0429 775.062 74.5244 777.863 Q71.0059 780.664 64.5245 780.664 Q62.3486 780.664 60.0338 780.224 Q57.7421 779.807 55.2884 778.951 L55.2884 774.437 Q57.2328 775.571 59.5477 776.15 Q61.8625 776.728 64.3856 776.728 Q68.7837 776.728 71.0754 774.992 Q73.3902 773.256 73.3902 769.946 Q73.3902 766.89 71.2374 765.178 Q69.1078 763.441 65.2884 763.441 L61.2606 763.441 L61.2606 759.599 L65.4735 759.599 Q68.9226 759.599 70.7513 758.233 Q72.58 756.844 72.58 754.252 Q72.58 751.59 70.6819 750.178 Q68.8069 748.742 65.2884 748.742 Q63.3671 748.742 61.168 749.159 Q58.969 749.576 56.3301 750.455 L56.3301 746.289 Q58.9921 745.548 61.3069 745.178 Q63.6449 744.807 65.705 744.807 Q71.0291 744.807 74.1309 747.238 Q77.2327 749.645 77.2327 753.766 Q77.2327 756.636 75.5892 758.627 Q73.9457 760.594 70.9133 761.358 Z" fill="#000000" fill-rule="nonzero" fill-opacity="1" /><path clip-path="url(#clip740)" d="M96.9086 748.511 Q93.2975 748.511 91.4688 752.076 Q89.6632 755.617 89.6632 762.747 Q89.6632 769.853 91.4688 773.418 Q93.2975 776.96 96.9086 776.96 Q100.543 776.96 102.348 773.418 Q104.177 769.853 104.177 762.747 Q104.177 755.617 102.348 752.076 Q100.543 748.511 96.9086 748.511 M96.9086 744.807 Q102.719 744.807 105.774 749.414 Q108.853 753.997 108.853 762.747 Q108.853 771.474 105.774 776.08 Q102.719 780.664 96.9086 780.664 Q91.0984 780.664 88.0197 776.08 Q84.9642 771.474 84.9642 762.747 Q84.9642 753.997 88.0197 749.414 Q91.0984 744.807 96.9086 744.807 Z" fill="#000000" fill-rule="nonzero" fill-opacity="1" /><path clip-path="url(#clip740)" d="M127.07 748.511 Q123.459 748.511 121.631 752.076 Q119.825 755.617 119.825 762.747 Q119.825 769.853 121.631 773.418 Q123.459 776.96 127.07 776.96 Q130.705 776.96 132.51 773.418 Q134.339 769.853 134.339 762.747 Q134.339 755.617 132.51 752.076 Q130.705 748.511 127.07 748.511 M127.07 744.807 Q132.881 744.807 135.936 749.414 Q139.015 753.997 139.015 762.747 Q139.015 771.474 135.936 776.08 Q132.881 780.664 127.07 780.664 Q121.26 780.664 118.182 776.08 Q115.126 771.474 115.126 762.747 Q115.126 753.997 118.182 749.414 Q121.26 744.807 127.07 744.807 Z" fill="#000000" fill-rule="nonzero" fill-opacity="1" /><path clip-path="url(#clip740)" d="M69.5939 448.021 L57.7884 466.47 L69.5939 466.47 L69.5939 448.021 M68.367 443.947 L74.2466 443.947 L74.2466 466.47 L79.1772 466.47 L79.1772 470.359 L74.2466 470.359 L74.2466 478.507 L69.5939 478.507 L69.5939 470.359 L53.9921 470.359 L53.9921 465.845 L68.367 443.947 Z" fill="#000000" fill-rule="nonzero" fill-opacity="1" /><path clip-path="url(#clip740)" d="M96.9086 447.026 Q93.2975 447.026 91.4688 450.591 Q89.6632 454.132 89.6632 461.262 Q89.6632 468.368 91.4688 471.933 Q93.2975 475.475 96.9086 475.475 Q100.543 475.475 102.348 471.933 Q104.177 468.368 104.177 461.262 Q104.177 454.132 102.348 450.591 Q100.543 447.026 96.9086 447.026 M96.9086 443.322 Q102.719 443.322 105.774 447.928 Q108.853 452.512 108.853 461.262 Q108.853 469.989 105.774 474.595 Q102.719 479.178 96.9086 479.178 Q91.0984 479.178 88.0197 474.595 Q84.9642 469.989 84.9642 461.262 Q84.9642 452.512 88.0197 447.928 Q91.0984 443.322 96.9086 443.322 Z" fill="#000000" fill-rule="nonzero" fill-opacity="1" /><path clip-path="url(#clip740)" d="M127.07 447.026 Q123.459 447.026 121.631 450.591 Q119.825 454.132 119.825 461.262 Q119.825 468.368 121.631 471.933 Q123.459 475.475 127.07 475.475 Q130.705 475.475 132.51 471.933 Q134.339 468.368 134.339 461.262 Q134.339 454.132 132.51 450.591 Q130.705 447.026 127.07 447.026 M127.07 443.322 Q132.881 443.322 135.936 447.928 Q139.015 452.512 139.015 461.262 Q139.015 469.989 135.936 474.595 Q132.881 479.178 127.07 479.178 Q121.26 479.178 118.182 474.595 Q115.126 469.989 115.126 461.262 Q115.126 452.512 118.182 447.928 Q121.26 443.322 127.07 443.322 Z" fill="#000000" fill-rule="nonzero" fill-opacity="1" /><path clip-path="url(#clip740)" d="M56.793 142.462 L75.1494 142.462 L75.1494 146.397 L61.0754 146.397 L61.0754 154.869 Q62.0939 154.522 63.1124 154.36 Q64.131 154.175 65.1495 154.175 Q70.9365 154.175 74.3161 157.346 Q77.6957 160.517 77.6957 165.934 Q77.6957 171.513 74.2235 174.614 Q70.7513 177.693 64.4319 177.693 Q62.256 177.693 59.9875 177.323 Q57.7421 176.952 55.3347 176.212 L55.3347 171.513 Q57.418 172.647 59.6402 173.202 Q61.8625 173.758 64.3393 173.758 Q68.3439 173.758 70.6819 171.651 Q73.0198 169.545 73.0198 165.934 Q73.0198 162.323 70.6819 160.216 Q68.3439 158.11 64.3393 158.11 Q62.4643 158.11 60.5893 158.527 Q58.7375 158.943 56.793 159.823 L56.793 142.462 Z" fill="#000000" fill-rule="nonzero" fill-opacity="1" /><path clip-path="url(#clip740)" d="M96.9086 145.541 Q93.2975 145.541 91.4688 149.105 Q89.6632 152.647 89.6632 159.777 Q89.6632 166.883 91.4688 170.448 Q93.2975 173.989 96.9086 173.989 Q100.543 173.989 102.348 170.448 Q104.177 166.883 104.177 159.777 Q104.177 152.647 102.348 149.105 Q100.543 145.541 96.9086 145.541 M96.9086 141.837 Q102.719 141.837 105.774 146.443 Q108.853 151.027 108.853 159.777 Q108.853 168.503 105.774 173.11 Q102.719 177.693 96.9086 177.693 Q91.0984 177.693 88.0197 173.11 Q84.9642 168.503 84.9642 159.777 Q84.9642 151.027 88.0197 146.443 Q91.0984 141.837 96.9086 141.837 Z" fill="#000000" fill-rule="nonzero" fill-opacity="1" /><path clip-path="url(#clip740)" d="M127.07 145.541 Q123.459 145.541 121.631 149.105 Q119.825 152.647 119.825 159.777 Q119.825 166.883 121.631 170.448 Q123.459 173.989 127.07 173.989 Q130.705 173.989 132.51 170.448 Q134.339 166.883 134.339 159.777 Q134.339 152.647 132.51 149.105 Q130.705 145.541 127.07 145.541 M127.07 141.837 Q132.881 141.837 135.936 146.443 Q139.015 151.027 139.015 159.777 Q139.015 168.503 135.936 173.11 Q132.881 177.693 127.07 177.693 Q121.26 177.693 118.182 173.11 Q115.126 168.503 115.126 159.777 Q115.126 151.027 118.182 146.443 Q121.26 141.837 127.07 141.837 Z" fill="#000000" fill-rule="nonzero" fill-opacity="1" /><path clip-path="url(#clip740)" d="M639.587 18.8205 L639.587 41.5461 L649.876 41.5461 Q655.588 41.5461 658.707 38.5889 Q661.826 35.6318 661.826 30.163 Q661.826 24.7348 658.707 21.7777 Q655.588 18.8205 649.876 18.8205 L639.587 18.8205 M631.404 12.096 L649.876 12.096 Q660.044 12.096 665.229 16.714 Q670.455 21.2916 670.455 30.163 Q670.455 39.1155 665.229 43.6931 Q660.044 48.2706 649.876 48.2706 L639.587 48.2706 L639.587 72.576 L631.404 72.576 L631.404 12.096 Z" fill="#000000" fill-rule="nonzero" fill-opacity="1" /><path clip-path="url(#clip740)" d="M705.941 34.1734 Q704.685 33.4443 703.186 33.1202 Q701.728 32.7556 699.945 32.7556 Q693.626 32.7556 690.223 36.8875 Q686.861 40.9789 686.861 48.6757 L686.861 72.576 L679.367 72.576 L679.367 27.2059 L686.861 27.2059 L686.861 34.2544 Q689.21 30.1225 692.978 28.1376 Q696.745 26.1121 702.133 26.1121 Q702.902 26.1121 703.834 26.2337 Q704.766 26.3147 705.9 26.5172 L705.941 34.1734 Z" fill="#000000" fill-rule="nonzero" fill-opacity="1" /><path clip-path="url(#clip740)" d="M713.759 27.2059 L721.212 27.2059 L721.212 72.576 L713.759 72.576 L713.759 27.2059 M713.759 9.54393 L721.212 9.54393 L721.212 18.9825 L713.759 18.9825 L713.759 9.54393 Z" fill="#000000" fill-rule="nonzero" fill-opacity="1" /><path clip-path="url(#clip740)" d="M754.389 32.4315 Q748.394 32.4315 744.91 37.1306 Q741.426 41.7891 741.426 49.9314 Q741.426 58.0738 744.87 62.7728 Q748.354 67.4314 754.389 67.4314 Q760.344 67.4314 763.828 62.7323 Q767.312 58.0333 767.312 49.9314 Q767.312 41.8701 763.828 37.1711 Q760.344 32.4315 754.389 32.4315 M754.389 26.1121 Q764.112 26.1121 769.661 32.4315 Q775.211 38.7509 775.211 49.9314 Q775.211 61.0714 769.661 67.4314 Q764.112 73.7508 754.389 73.7508 Q744.627 73.7508 739.077 67.4314 Q733.568 61.0714 733.568 49.9314 Q733.568 38.7509 739.077 32.4315 Q744.627 26.1121 754.389 26.1121 Z" fill="#000000" fill-rule="nonzero" fill-opacity="1" /><path clip-path="url(#clip740)" d="M813.857 34.1734 Q812.601 33.4443 811.102 33.1202 Q809.644 32.7556 807.861 32.7556 Q801.542 32.7556 798.139 36.8875 Q794.777 40.9789 794.777 48.6757 L794.777 72.576 L787.283 72.576 L787.283 27.2059 L794.777 27.2059 L794.777 34.2544 Q797.126 30.1225 800.894 28.1376 Q804.661 26.1121 810.049 26.1121 Q810.818 26.1121 811.75 26.2337 Q812.682 26.3147 813.816 26.5172 L813.857 34.1734 Z" fill="#000000" fill-rule="nonzero" fill-opacity="1" /><path clip-path="url(#clip740)" d="M865.627 32.4315 Q859.632 32.4315 856.148 37.1306 Q852.664 41.7891 852.664 49.9314 Q852.664 58.0738 856.108 62.7728 Q859.591 67.4314 865.627 67.4314 Q871.582 67.4314 875.066 62.7323 Q878.55 58.0333 878.55 49.9314 Q878.55 41.8701 875.066 37.1711 Q871.582 32.4315 865.627 32.4315 M865.627 26.1121 Q875.349 26.1121 880.899 32.4315 Q886.449 38.7509 886.449 49.9314 Q886.449 61.0714 880.899 67.4314 Q875.349 73.7508 865.627 73.7508 Q855.865 73.7508 850.315 67.4314 Q844.806 61.0714 844.806 49.9314 Q844.806 38.7509 850.315 32.4315 Q855.865 26.1121 865.627 26.1121 Z" fill="#000000" fill-rule="nonzero" fill-opacity="1" /><path clip-path="url(#clip740)" d="M921.773 9.54393 L921.773 15.7418 L914.643 15.7418 Q910.633 15.7418 909.053 17.3622 Q907.514 18.9825 907.514 23.1955 L907.514 27.2059 L919.788 27.2059 L919.788 32.9987 L907.514 32.9987 L907.514 72.576 L900.019 72.576 L900.019 32.9987 L892.89 32.9987 L892.89 27.2059 L900.019 27.2059 L900.019 24.0462 Q900.019 16.471 903.544 13.0277 Q907.068 9.54393 914.724 9.54393 L921.773 9.54393 Z" fill="#000000" fill-rule="nonzero" fill-opacity="1" /><path clip-path="url(#clip740)" d="M983.306 28.5427 L983.306 35.5912 Q980.146 33.9709 976.743 33.1607 Q973.341 32.3505 969.695 32.3505 Q964.145 32.3505 961.35 34.0519 Q958.595 35.7533 958.595 39.156 Q958.595 41.7486 960.58 43.2475 Q962.565 44.7058 968.561 46.0426 L971.113 46.6097 Q979.053 48.3111 982.374 51.4303 Q985.736 54.509 985.736 60.0587 Q985.736 66.3781 980.713 70.0644 Q975.731 73.7508 966.981 73.7508 Q963.335 73.7508 959.365 73.0216 Q955.436 72.3329 951.061 70.9151 L951.061 63.2184 Q955.193 65.3654 959.203 66.4591 Q963.213 67.5124 967.143 67.5124 Q972.409 67.5124 975.245 65.73 Q978.08 63.9071 978.08 60.6258 Q978.08 57.5877 976.014 55.9673 Q973.989 54.3469 967.062 52.8481 L964.469 52.2405 Q957.542 50.7821 954.464 47.7845 Q951.385 44.7463 951.385 39.4801 Q951.385 33.0797 955.922 29.5959 Q960.459 26.1121 968.804 26.1121 Q972.936 26.1121 976.581 26.7198 Q980.227 27.3274 983.306 28.5427 Z" fill="#000000" fill-rule="nonzero" fill-opacity="1" /><path clip-path="url(#clip740)" d="M1018.22 49.7694 Q1009.19 49.7694 1005.71 51.8354 Q1002.22 53.9013 1002.22 58.8839 Q1002.22 62.8538 1004.82 65.2034 Q1007.45 67.5124 1011.95 67.5124 Q1018.14 67.5124 1021.87 63.1374 Q1025.64 58.7219 1025.64 51.4303 L1025.64 49.7694 L1018.22 49.7694 M1033.09 46.6907 L1033.09 72.576 L1025.64 72.576 L1025.64 65.6895 Q1023.09 69.8214 1019.28 71.8063 Q1015.47 73.7508 1009.96 73.7508 Q1002.99 73.7508 998.861 69.8619 Q994.77 65.9325 994.77 59.3701 Q994.77 51.7138 999.874 47.825 Q1005.02 43.9361 1015.19 43.9361 L1025.64 43.9361 L1025.64 43.2069 Q1025.64 38.0623 1022.24 35.2672 Q1018.87 32.4315 1012.76 32.4315 Q1008.87 32.4315 1005.18 33.3632 Q1001.49 34.295 998.092 36.1584 L998.092 29.2718 Q1002.18 27.692 1006.03 26.9223 Q1009.88 26.1121 1013.53 26.1121 Q1023.37 26.1121 1028.23 31.2163 Q1033.09 36.3204 1033.09 46.6907 Z" fill="#000000" fill-rule="nonzero" fill-opacity="1" /><path clip-path="url(#clip740)" d="M1083.77 35.9153 Q1086.56 30.8922 1090.45 28.5022 Q1094.34 26.1121 1099.61 26.1121 Q1106.7 26.1121 1110.54 31.0947 Q1114.39 36.0368 1114.39 45.1919 L1114.39 72.576 L1106.9 72.576 L1106.9 45.4349 Q1106.9 38.913 1104.59 35.7533 Q1102.28 32.5936 1097.54 32.5936 Q1091.75 32.5936 1088.39 36.4419 Q1085.02 40.2903 1085.02 46.9338 L1085.02 72.576 L1077.53 72.576 L1077.53 45.4349 Q1077.53 38.8725 1075.22 35.7533 Q1072.91 32.5936 1068.09 32.5936 Q1062.38 32.5936 1059.02 36.4824 Q1055.66 40.3308 1055.66 46.9338 L1055.66 72.576 L1048.16 72.576 L1048.16 27.2059 L1055.66 27.2059 L1055.66 34.2544 Q1058.21 30.082 1061.77 28.0971 Q1065.34 26.1121 1070.24 26.1121 Q1075.18 26.1121 1078.62 28.6237 Q1082.11 31.1352 1083.77 35.9153 Z" fill="#000000" fill-rule="nonzero" fill-opacity="1" /><path clip-path="url(#clip740)" d="M1136.47 65.7705 L1136.47 89.8329 L1128.98 89.8329 L1128.98 27.2059 L1136.47 27.2059 L1136.47 34.0924 Q1138.82 30.0415 1142.38 28.0971 Q1145.99 26.1121 1150.97 26.1121 Q1159.24 26.1121 1164.38 32.6746 Q1169.57 39.2371 1169.57 49.9314 Q1169.57 60.6258 1164.38 67.1883 Q1159.24 73.7508 1150.97 73.7508 Q1145.99 73.7508 1142.38 71.8063 Q1138.82 69.8214 1136.47 65.7705 M1161.83 49.9314 Q1161.83 41.7081 1158.43 37.0496 Q1155.06 32.3505 1149.15 32.3505 Q1143.24 32.3505 1139.83 37.0496 Q1136.47 41.7081 1136.47 49.9314 Q1136.47 58.1548 1139.83 62.8538 Q1143.24 67.5124 1149.15 67.5124 Q1155.06 67.5124 1158.43 62.8538 Q1161.83 58.1548 1161.83 49.9314 Z" fill="#000000" fill-rule="nonzero" fill-opacity="1" /><path clip-path="url(#clip740)" d="M1181.92 9.54393 L1189.38 9.54393 L1189.38 72.576 L1181.92 72.576 L1181.92 9.54393 Z" fill="#000000" fill-rule="nonzero" fill-opacity="1" /><path clip-path="url(#clip740)" d="M1243.78 48.0275 L1243.78 51.6733 L1209.51 51.6733 Q1209.99 59.3701 1214.13 63.421 Q1218.3 67.4314 1225.71 67.4314 Q1230.01 67.4314 1234.02 66.3781 Q1238.07 65.3249 1242.04 63.2184 L1242.04 70.267 Q1238.03 71.9684 1233.81 72.8596 Q1229.6 73.7508 1225.27 73.7508 Q1214.41 73.7508 1208.05 67.4314 Q1201.73 61.1119 1201.73 50.3365 Q1201.73 39.1965 1207.73 32.6746 Q1213.76 26.1121 1223.97 26.1121 Q1233.13 26.1121 1238.43 32.0264 Q1243.78 37.9003 1243.78 48.0275 M1236.33 45.84 Q1236.24 39.7232 1232.88 36.0774 Q1229.56 32.4315 1224.05 32.4315 Q1217.81 32.4315 1214.05 35.9558 Q1210.32 39.4801 1209.75 45.8805 L1236.33 45.84 Z" fill="#000000" fill-rule="nonzero" fill-opacity="1" /><path clip-path="url(#clip740)" d="M1284.94 28.5427 L1284.94 35.5912 Q1281.78 33.9709 1278.37 33.1607 Q1274.97 32.3505 1271.33 32.3505 Q1265.78 32.3505 1262.98 34.0519 Q1260.23 35.7533 1260.23 39.156 Q1260.23 41.7486 1262.21 43.2475 Q1264.2 44.7058 1270.19 46.0426 L1272.74 46.6097 Q1280.68 48.3111 1284 51.4303 Q1287.37 54.509 1287.37 60.0587 Q1287.37 66.3781 1282.34 70.0644 Q1277.36 73.7508 1268.61 73.7508 Q1264.97 73.7508 1261 73.0216 Q1257.07 72.3329 1252.69 70.9151 L1252.69 63.2184 Q1256.82 65.3654 1260.83 66.4591 Q1264.84 67.5124 1268.77 67.5124 Q1274.04 67.5124 1276.87 65.73 Q1279.71 63.9071 1279.71 60.6258 Q1279.71 57.5877 1277.64 55.9673 Q1275.62 54.3469 1268.69 52.8481 L1266.1 52.2405 Q1259.17 50.7821 1256.09 47.7845 Q1253.02 44.7463 1253.02 39.4801 Q1253.02 33.0797 1257.55 29.5959 Q1262.09 26.1121 1270.43 26.1121 Q1274.57 26.1121 1278.21 26.7198 Q1281.86 27.3274 1284.94 28.5427 Z" fill="#000000" fill-rule="nonzero" fill-opacity="1" /><path clip-path="url(#clip742)" d="M253.288 1661.14 L253.288 1667.17 L297.419 1667.17 L297.419 1661.14 L253.288 1661.14 L253.288 1661.14  Z" fill="#009af9" fill-rule="evenodd" fill-opacity="1"/>
<polyline clip-path="url(#clip742)" style="stroke:#000000; stroke-linecap:round; stroke-linejoin:round; stroke-width:8; stroke-opacity:1; fill:none" points="253.288,1661.14 253.288,1667.17 297.419,1667.17 297.419,1661.14 253.288,1661.14 "/>
<path clip-path="url(#clip742)" d="M297.419 1667.17 L297.419 1667.17 L341.551 1667.17 L341.551 1667.17 L297.419 1667.17 L297.419 1667.17  Z" fill="#009af9" fill-rule="evenodd" fill-opacity="1"/>
<polyline clip-path="url(#clip742)" style="stroke:#000000; stroke-linecap:round; stroke-linejoin:round; stroke-width:8; stroke-opacity:1; fill:none" points="297.419,1667.17 297.419,1667.17 341.551,1667.17 297.419,1667.17 "/>
<path clip-path="url(#clip742)" d="M341.551 1664.15 L341.551 1667.17 L385.682 1667.17 L385.682 1664.15 L341.551 1664.15 L341.551 1664.15  Z" fill="#009af9" fill-rule="evenodd" fill-opacity="1"/>
<polyline clip-path="url(#clip742)" style="stroke:#000000; stroke-linecap:round; stroke-linejoin:round; stroke-width:8; stroke-opacity:1; fill:none" points="341.551,1664.15 341.551,1667.17 385.682,1667.17 385.682,1664.15 341.551,1664.15 "/>
<path clip-path="url(#clip742)" d="M385.682 1658.12 L385.682 1667.17 L429.813 1667.17 L429.813 1658.12 L385.682 1658.12 L385.682 1658.12  Z" fill="#009af9" fill-rule="evenodd" fill-opacity="1"/>
<polyline clip-path="url(#clip742)" style="stroke:#000000; stroke-linecap:round; stroke-linejoin:round; stroke-width:8; stroke-opacity:1; fill:none" points="385.682,1658.12 385.682,1667.17 429.813,1667.17 429.813,1658.12 385.682,1658.12 "/>
<path clip-path="url(#clip742)" d="M429.813 1640.03 L429.813 1667.17 L473.944 1667.17 L473.944 1640.03 L429.813 1640.03 L429.813 1640.03  Z" fill="#009af9" fill-rule="evenodd" fill-opacity="1"/>
<polyline clip-path="url(#clip742)" style="stroke:#000000; stroke-linecap:round; stroke-linejoin:round; stroke-width:8; stroke-opacity:1; fill:none" points="429.813,1640.03 429.813,1667.17 473.944,1667.17 473.944,1640.03 429.813,1640.03 "/>
<path clip-path="url(#clip742)" d="M473.944 1627.97 L473.944 1667.17 L518.075 1667.17 L518.075 1627.97 L473.944 1627.97 L473.944 1627.97  Z" fill="#009af9" fill-rule="evenodd" fill-opacity="1"/>
<polyline clip-path="url(#clip742)" style="stroke:#000000; stroke-linecap:round; stroke-linejoin:round; stroke-width:8; stroke-opacity:1; fill:none" points="473.944,1627.97 473.944,1667.17 518.075,1667.17 518.075,1627.97 473.944,1627.97 "/>
<path clip-path="url(#clip742)" d="M518.075 1564.66 L518.075 1667.17 L562.206 1667.17 L562.206 1564.66 L518.075 1564.66 L518.075 1564.66  Z" fill="#009af9" fill-rule="evenodd" fill-opacity="1"/>
<polyline clip-path="url(#clip742)" style="stroke:#000000; stroke-linecap:round; stroke-linejoin:round; stroke-width:8; stroke-opacity:1; fill:none" points="518.075,1564.66 518.075,1667.17 562.206,1667.17 562.206,1564.66 518.075,1564.66 "/>
<path clip-path="url(#clip742)" d="M562.206 1459.14 L562.206 1667.17 L606.337 1667.17 L606.337 1459.14 L562.206 1459.14 L562.206 1459.14  Z" fill="#009af9" fill-rule="evenodd" fill-opacity="1"/>
<polyline clip-path="url(#clip742)" style="stroke:#000000; stroke-linecap:round; stroke-linejoin:round; stroke-width:8; stroke-opacity:1; fill:none" points="562.206,1459.14 562.206,1667.17 606.337,1667.17 606.337,1459.14 562.206,1459.14 "/>
<path clip-path="url(#clip742)" d="M606.337 1356.64 L606.337 1667.17 L650.468 1667.17 L650.468 1356.64 L606.337 1356.64 L606.337 1356.64  Z" fill="#009af9" fill-rule="evenodd" fill-opacity="1"/>
<polyline clip-path="url(#clip742)" style="stroke:#000000; stroke-linecap:round; stroke-linejoin:round; stroke-width:8; stroke-opacity:1; fill:none" points="606.337,1356.64 606.337,1667.17 650.468,1667.17 650.468,1356.64 606.337,1356.64 "/>
<path clip-path="url(#clip742)" d="M650.468 1214.94 L650.468 1667.17 L694.599 1667.17 L694.599 1214.94 L650.468 1214.94 L650.468 1214.94  Z" fill="#009af9" fill-rule="evenodd" fill-opacity="1"/>
<polyline clip-path="url(#clip742)" style="stroke:#000000; stroke-linecap:round; stroke-linejoin:round; stroke-width:8; stroke-opacity:1; fill:none" points="650.468,1214.94 650.468,1667.17 694.599,1667.17 694.599,1214.94 650.468,1214.94 "/>
<path clip-path="url(#clip742)" d="M694.599 1094.35 L694.599 1667.17 L738.73 1667.17 L738.73 1094.35 L694.599 1094.35 L694.599 1094.35  Z" fill="#009af9" fill-rule="evenodd" fill-opacity="1"/>
<polyline clip-path="url(#clip742)" style="stroke:#000000; stroke-linecap:round; stroke-linejoin:round; stroke-width:8; stroke-opacity:1; fill:none" points="694.599,1094.35 694.599,1667.17 738.73,1667.17 738.73,1094.35 694.599,1094.35 "/>
<path clip-path="url(#clip742)" d="M738.73 874.262 L738.73 1667.17 L782.861 1667.17 L782.861 874.262 L738.73 874.262 L738.73 874.262  Z" fill="#009af9" fill-rule="evenodd" fill-opacity="1"/>
<polyline clip-path="url(#clip742)" style="stroke:#000000; stroke-linecap:round; stroke-linejoin:round; stroke-width:8; stroke-opacity:1; fill:none" points="738.73,874.262 738.73,1667.17 782.861,1667.17 782.861,874.262 738.73,874.262 "/>
<path clip-path="url(#clip742)" d="M782.861 578.806 L782.861 1667.17 L826.992 1667.17 L826.992 578.806 L782.861 578.806 L782.861 578.806  Z" fill="#009af9" fill-rule="evenodd" fill-opacity="1"/>
<polyline clip-path="url(#clip742)" style="stroke:#000000; stroke-linecap:round; stroke-linejoin:round; stroke-width:8; stroke-opacity:1; fill:none" points="782.861,578.806 782.861,1667.17 826.992,1667.17 826.992,578.806 782.861,578.806 "/>
<path clip-path="url(#clip742)" d="M826.992 506.45 L826.992 1667.17 L871.123 1667.17 L871.123 506.45 L826.992 506.45 L826.992 506.45  Z" fill="#009af9" fill-rule="evenodd" fill-opacity="1"/>
<polyline clip-path="url(#clip742)" style="stroke:#000000; stroke-linecap:round; stroke-linejoin:round; stroke-width:8; stroke-opacity:1; fill:none" points="826.992,506.45 826.992,1667.17 871.123,1667.17 871.123,506.45 826.992,506.45 "/>
<path clip-path="url(#clip742)" d="M871.123 159.742 L871.123 1667.17 L915.254 1667.17 L915.254 159.742 L871.123 159.742 L871.123 159.742  Z" fill="#009af9" fill-rule="evenodd" fill-opacity="1"/>
<polyline clip-path="url(#clip742)" style="stroke:#000000; stroke-linecap:round; stroke-linejoin:round; stroke-width:8; stroke-opacity:1; fill:none" points="871.123,159.742 871.123,1667.17 915.254,1667.17 915.254,159.742 871.123,159.742 "/>
<path clip-path="url(#clip742)" d="M915.254 153.712 L915.254 1667.17 L959.385 1667.17 L959.385 153.712 L915.254 153.712 L915.254 153.712  Z" fill="#009af9" fill-rule="evenodd" fill-opacity="1"/>
<polyline clip-path="url(#clip742)" style="stroke:#000000; stroke-linecap:round; stroke-linejoin:round; stroke-width:8; stroke-opacity:1; fill:none" points="915.254,153.712 915.254,1667.17 959.385,1667.17 959.385,153.712 915.254,153.712 "/>
<path clip-path="url(#clip742)" d="M959.385 198.935 L959.385 1667.17 L1003.52 1667.17 L1003.52 198.935 L959.385 198.935 L959.385 198.935  Z" fill="#009af9" fill-rule="evenodd" fill-opacity="1"/>
<polyline clip-path="url(#clip742)" style="stroke:#000000; stroke-linecap:round; stroke-linejoin:round; stroke-width:8; stroke-opacity:1; fill:none" points="959.385,198.935 959.385,1667.17 1003.52,1667.17 1003.52,198.935 959.385,198.935 "/>
<path clip-path="url(#clip742)" d="M1003.52 304.455 L1003.52 1667.17 L1047.65 1667.17 L1047.65 304.455 L1003.52 304.455 L1003.52 304.455  Z" fill="#009af9" fill-rule="evenodd" fill-opacity="1"/>
<polyline clip-path="url(#clip742)" style="stroke:#000000; stroke-linecap:round; stroke-linejoin:round; stroke-width:8; stroke-opacity:1; fill:none" points="1003.52,304.455 1003.52,1667.17 1047.65,1667.17 1047.65,304.455 1003.52,304.455 "/>
<path clip-path="url(#clip742)" d="M1047.65 343.648 L1047.65 1667.17 L1091.78 1667.17 L1091.78 343.648 L1047.65 343.648 L1047.65 343.648  Z" fill="#009af9" fill-rule="evenodd" fill-opacity="1"/>
<polyline clip-path="url(#clip742)" style="stroke:#000000; stroke-linecap:round; stroke-linejoin:round; stroke-width:8; stroke-opacity:1; fill:none" points="1047.65,343.648 1047.65,1667.17 1091.78,1667.17 1091.78,343.648 1047.65,343.648 "/>
<path clip-path="url(#clip742)" d="M1091.78 578.806 L1091.78 1667.17 L1135.91 1667.17 L1135.91 578.806 L1091.78 578.806 L1091.78 578.806  Z" fill="#009af9" fill-rule="evenodd" fill-opacity="1"/>
<polyline clip-path="url(#clip742)" style="stroke:#000000; stroke-linecap:round; stroke-linejoin:round; stroke-width:8; stroke-opacity:1; fill:none" points="1091.78,578.806 1091.78,1667.17 1135.91,1667.17 1135.91,578.806 1091.78,578.806 "/>
<path clip-path="url(#clip742)" d="M1135.91 1000.89 L1135.91 1667.17 L1180.04 1667.17 L1180.04 1000.89 L1135.91 1000.89 L1135.91 1000.89  Z" fill="#009af9" fill-rule="evenodd" fill-opacity="1"/>
<polyline clip-path="url(#clip742)" style="stroke:#000000; stroke-linecap:round; stroke-linejoin:round; stroke-width:8; stroke-opacity:1; fill:none" points="1135.91,1000.89 1135.91,1667.17 1180.04,1667.17 1180.04,1000.89 1135.91,1000.89 "/>
<path clip-path="url(#clip742)" d="M1180.04 1211.93 L1180.04 1667.17 L1224.17 1667.17 L1224.17 1211.93 L1180.04 1211.93 L1180.04 1211.93  Z" fill="#009af9" fill-rule="evenodd" fill-opacity="1"/>
<polyline clip-path="url(#clip742)" style="stroke:#000000; stroke-linecap:round; stroke-linejoin:round; stroke-width:8; stroke-opacity:1; fill:none" points="1180.04,1211.93 1180.04,1667.17 1224.17,1667.17 1224.17,1211.93 1180.04,1211.93 "/>
<path clip-path="url(#clip742)" d="M1224.17 1223.98 L1224.17 1667.17 L1268.3 1667.17 L1268.3 1223.98 L1224.17 1223.98 L1224.17 1223.98  Z" fill="#009af9" fill-rule="evenodd" fill-opacity="1"/>
<polyline clip-path="url(#clip742)" style="stroke:#000000; stroke-linecap:round; stroke-linejoin:round; stroke-width:8; stroke-opacity:1; fill:none" points="1224.17,1223.98 1224.17,1667.17 1268.3,1667.17 1268.3,1223.98 1224.17,1223.98 "/>
<path clip-path="url(#clip742)" d="M1268.3 1447.08 L1268.3 1667.17 L1312.43 1667.17 L1312.43 1447.08 L1268.3 1447.08 L1268.3 1447.08  Z" fill="#009af9" fill-rule="evenodd" fill-opacity="1"/>
<polyline clip-path="url(#clip742)" style="stroke:#000000; stroke-linecap:round; stroke-linejoin:round; stroke-width:8; stroke-opacity:1; fill:none" points="1268.3,1447.08 1268.3,1667.17 1312.43,1667.17 1312.43,1447.08 1268.3,1447.08 "/>
<path clip-path="url(#clip742)" d="M1312.43 1552.6 L1312.43 1667.17 L1356.56 1667.17 L1356.56 1552.6 L1312.43 1552.6 L1312.43 1552.6  Z" fill="#009af9" fill-rule="evenodd" fill-opacity="1"/>
<polyline clip-path="url(#clip742)" style="stroke:#000000; stroke-linecap:round; stroke-linejoin:round; stroke-width:8; stroke-opacity:1; fill:none" points="1312.43,1552.6 1312.43,1667.17 1356.56,1667.17 1356.56,1552.6 1312.43,1552.6 "/>
<path clip-path="url(#clip742)" d="M1356.56 1597.83 L1356.56 1667.17 L1400.7 1667.17 L1400.7 1597.83 L1356.56 1597.83 L1356.56 1597.83  Z" fill="#009af9" fill-rule="evenodd" fill-opacity="1"/>
<polyline clip-path="url(#clip742)" style="stroke:#000000; stroke-linecap:round; stroke-linejoin:round; stroke-width:8; stroke-opacity:1; fill:none" points="1356.56,1597.83 1356.56,1667.17 1400.7,1667.17 1400.7,1597.83 1356.56,1597.83 "/>
<path clip-path="url(#clip742)" d="M1400.7 1637.02 L1400.7 1667.17 L1444.83 1667.17 L1444.83 1637.02 L1400.7 1637.02 L1400.7 1637.02  Z" fill="#009af9" fill-rule="evenodd" fill-opacity="1"/>
<polyline clip-path="url(#clip742)" style="stroke:#000000; stroke-linecap:round; stroke-linejoin:round; stroke-width:8; stroke-opacity:1; fill:none" points="1400.7,1637.02 1400.7,1667.17 1444.83,1667.17 1444.83,1637.02 1400.7,1637.02 "/>
<path clip-path="url(#clip742)" d="M1444.83 1643.05 L1444.83 1667.17 L1488.96 1667.17 L1488.96 1643.05 L1444.83 1643.05 L1444.83 1643.05  Z" fill="#009af9" fill-rule="evenodd" fill-opacity="1"/>
<polyline clip-path="url(#clip742)" style="stroke:#000000; stroke-linecap:round; stroke-linejoin:round; stroke-width:8; stroke-opacity:1; fill:none" points="1444.83,1643.05 1444.83,1667.17 1488.96,1667.17 1488.96,1643.05 1444.83,1643.05 "/>
<path clip-path="url(#clip742)" d="M1488.96 1664.15 L1488.96 1667.17 L1533.09 1667.17 L1533.09 1664.15 L1488.96 1664.15 L1488.96 1664.15  Z" fill="#009af9" fill-rule="evenodd" fill-opacity="1"/>
<polyline clip-path="url(#clip742)" style="stroke:#000000; stroke-linecap:round; stroke-linejoin:round; stroke-width:8; stroke-opacity:1; fill:none" points="1488.96,1664.15 1488.96,1667.17 1533.09,1667.17 1533.09,1664.15 1488.96,1664.15 "/>
<path clip-path="url(#clip742)" d="M1533.09 1661.14 L1533.09 1667.17 L1577.22 1667.17 L1577.22 1661.14 L1533.09 1661.14 L1533.09 1661.14  Z" fill="#009af9" fill-rule="evenodd" fill-opacity="1"/>
<polyline clip-path="url(#clip742)" style="stroke:#000000; stroke-linecap:round; stroke-linejoin:round; stroke-width:8; stroke-opacity:1; fill:none" points="1533.09,1661.14 1533.09,1667.17 1577.22,1667.17 1577.22,1661.14 1533.09,1661.14 "/>
<path clip-path="url(#clip742)" d="M1577.22 1664.15 L1577.22 1667.17 L1621.35 1667.17 L1621.35 1664.15 L1577.22 1664.15 L1577.22 1664.15  Z" fill="#009af9" fill-rule="evenodd" fill-opacity="1"/>
<polyline clip-path="url(#clip742)" style="stroke:#000000; stroke-linecap:round; stroke-linejoin:round; stroke-width:8; stroke-opacity:1; fill:none" points="1577.22,1664.15 1577.22,1667.17 1621.35,1667.17 1621.35,1664.15 1577.22,1664.15 "/>
<path clip-path="url(#clip742)" d="M1621.35 1664.15 L1621.35 1667.17 L1665.48 1667.17 L1665.48 1664.15 L1621.35 1664.15 L1621.35 1664.15  Z" fill="#009af9" fill-rule="evenodd" fill-opacity="1"/>
<polyline clip-path="url(#clip742)" style="stroke:#000000; stroke-linecap:round; stroke-linejoin:round; stroke-width:8; stroke-opacity:1; fill:none" points="1621.35,1664.15 1621.35,1667.17 1665.48,1667.17 1665.48,1664.15 1621.35,1664.15 "/>
<circle clip-path="url(#clip742)" style="fill:#009af9; stroke:none; fill-opacity:0" cx="275.354" cy="1661.14" r="2"/>
<circle clip-path="url(#clip742)" style="fill:#009af9; stroke:none; fill-opacity:0" cx="319.485" cy="1667.17" r="2"/>
<circle clip-path="url(#clip742)" style="fill:#009af9; stroke:none; fill-opacity:0" cx="363.616" cy="1664.15" r="2"/>
<circle clip-path="url(#clip742)" style="fill:#009af9; stroke:none; fill-opacity:0" cx="407.747" cy="1658.12" r="2"/>
<circle clip-path="url(#clip742)" style="fill:#009af9; stroke:none; fill-opacity:0" cx="451.878" cy="1640.03" r="2"/>
<circle clip-path="url(#clip742)" style="fill:#009af9; stroke:none; fill-opacity:0" cx="496.009" cy="1627.97" r="2"/>
<circle clip-path="url(#clip742)" style="fill:#009af9; stroke:none; fill-opacity:0" cx="540.14" cy="1564.66" r="2"/>
<circle clip-path="url(#clip742)" style="fill:#009af9; stroke:none; fill-opacity:0" cx="584.271" cy="1459.14" r="2"/>
<circle clip-path="url(#clip742)" style="fill:#009af9; stroke:none; fill-opacity:0" cx="628.402" cy="1356.64" r="2"/>
<circle clip-path="url(#clip742)" style="fill:#009af9; stroke:none; fill-opacity:0" cx="672.533" cy="1214.94" r="2"/>
<circle clip-path="url(#clip742)" style="fill:#009af9; stroke:none; fill-opacity:0" cx="716.665" cy="1094.35" r="2"/>
<circle clip-path="url(#clip742)" style="fill:#009af9; stroke:none; fill-opacity:0" cx="760.796" cy="874.262" r="2"/>
<circle clip-path="url(#clip742)" style="fill:#009af9; stroke:none; fill-opacity:0" cx="804.927" cy="578.806" r="2"/>
<circle clip-path="url(#clip742)" style="fill:#009af9; stroke:none; fill-opacity:0" cx="849.058" cy="506.45" r="2"/>
<circle clip-path="url(#clip742)" style="fill:#009af9; stroke:none; fill-opacity:0" cx="893.189" cy="159.742" r="2"/>
<circle clip-path="url(#clip742)" style="fill:#009af9; stroke:none; fill-opacity:0" cx="937.32" cy="153.712" r="2"/>
<circle clip-path="url(#clip742)" style="fill:#009af9; stroke:none; fill-opacity:0" cx="981.451" cy="198.935" r="2"/>
<circle clip-path="url(#clip742)" style="fill:#009af9; stroke:none; fill-opacity:0" cx="1025.58" cy="304.455" r="2"/>
<circle clip-path="url(#clip742)" style="fill:#009af9; stroke:none; fill-opacity:0" cx="1069.71" cy="343.648" r="2"/>
<circle clip-path="url(#clip742)" style="fill:#009af9; stroke:none; fill-opacity:0" cx="1113.84" cy="578.806" r="2"/>
<circle clip-path="url(#clip742)" style="fill:#009af9; stroke:none; fill-opacity:0" cx="1157.98" cy="1000.89" r="2"/>
<circle clip-path="url(#clip742)" style="fill:#009af9; stroke:none; fill-opacity:0" cx="1202.11" cy="1211.93" r="2"/>
<circle clip-path="url(#clip742)" style="fill:#009af9; stroke:none; fill-opacity:0" cx="1246.24" cy="1223.98" r="2"/>
<circle clip-path="url(#clip742)" style="fill:#009af9; stroke:none; fill-opacity:0" cx="1290.37" cy="1447.08" r="2"/>
<circle clip-path="url(#clip742)" style="fill:#009af9; stroke:none; fill-opacity:0" cx="1334.5" cy="1552.6" r="2"/>
<circle clip-path="url(#clip742)" style="fill:#009af9; stroke:none; fill-opacity:0" cx="1378.63" cy="1597.83" r="2"/>
<circle clip-path="url(#clip742)" style="fill:#009af9; stroke:none; fill-opacity:0" cx="1422.76" cy="1637.02" r="2"/>
<circle clip-path="url(#clip742)" style="fill:#009af9; stroke:none; fill-opacity:0" cx="1466.89" cy="1643.05" r="2"/>
<circle clip-path="url(#clip742)" style="fill:#009af9; stroke:none; fill-opacity:0" cx="1511.02" cy="1664.15" r="2"/>
<circle clip-path="url(#clip742)" style="fill:#009af9; stroke:none; fill-opacity:0" cx="1555.15" cy="1661.14" r="2"/>
<circle clip-path="url(#clip742)" style="fill:#009af9; stroke:none; fill-opacity:0" cx="1599.29" cy="1664.15" r="2"/>
<circle clip-path="url(#clip742)" style="fill:#009af9; stroke:none; fill-opacity:0" cx="1643.42" cy="1664.15" r="2"/>
<polyline clip-path="url(#clip742)" style="stroke:#e26f46; stroke-linecap:round; stroke-linejoin:round; stroke-width:8; stroke-opacity:1; fill:none" points="925.691,3180.62 925.691,-1359.74 "/>
</svg>
