<?xml version="1.0" encoding="utf-8"?>
<svg xmlns="http://www.w3.org/2000/svg" xmlns:xlink="http://www.w3.org/1999/xlink" width="450" height="450" viewBox="0 0 1800 1800">
<defs>
  <clipPath id="clip680">
    <rect x="0" y="0" width="1800" height="1800"/>
  </clipPath>
</defs>
<path clip-path="url(#clip680)" d="M0 1800 L1800 1800 L1800 0 L0 0  Z" fill="#ffffff" fill-rule="evenodd" fill-opacity="1"/>
<defs>
  <clipPath id="clip681">
    <rect x="360" y="180" width="1261" height="1261"/>
  </clipPath>
</defs>
<path clip-path="url(#clip680)" d="M164.857 1667.17 L1752.76 1667.17 L1752.76 153.712 L164.857 153.712  Z" fill="#ffffff" fill-rule="evenodd" fill-opacity="1"/>
<defs>
  <clipPath id="clip682">
    <rect x="164" y="153" width="1589" height="1514"/>
  </clipPath>
</defs>
<polyline clip-path="url(#clip682)" style="stroke:#000000; stroke-linecap:round; stroke-linejoin:round; stroke-width:2; stroke-opacity:0.1; fill:none" points="353.139,1667.17 353.139,153.712 "/>
<polyline clip-path="url(#clip682)" style="stroke:#000000; stroke-linecap:round; stroke-linejoin:round; stroke-width:2; stroke-opacity:0.1; fill:none" points="689.621,1667.17 689.621,153.712 "/>
<polyline clip-path="url(#clip682)" style="stroke:#000000; stroke-linecap:round; stroke-linejoin:round; stroke-width:2; stroke-opacity:0.1; fill:none" points="1026.1,1667.17 1026.1,153.712 "/>
<polyline clip-path="url(#clip682)" style="stroke:#000000; stroke-linecap:round; stroke-linejoin:round; stroke-width:2; stroke-opacity:0.1; fill:none" points="1362.58,1667.17 1362.58,153.712 "/>
<polyline clip-path="url(#clip682)" style="stroke:#000000; stroke-linecap:round; stroke-linejoin:round; stroke-width:2; stroke-opacity:0.1; fill:none" points="1699.07,1667.17 1699.07,153.712 "/>
<polyline clip-path="url(#clip682)" style="stroke:#000000; stroke-linecap:round; stroke-linejoin:round; stroke-width:2; stroke-opacity:0.1; fill:none" points="164.857,1667.17 1752.76,1667.17 "/>
<polyline clip-path="url(#clip682)" style="stroke:#000000; stroke-linecap:round; stroke-linejoin:round; stroke-width:2; stroke-opacity:0.1; fill:none" points="164.857,1403.5 1752.76,1403.5 "/>
<polyline clip-path="url(#clip682)" style="stroke:#000000; stroke-linecap:round; stroke-linejoin:round; stroke-width:2; stroke-opacity:0.1; fill:none" points="164.857,1139.83 1752.76,1139.83 "/>
<polyline clip-path="url(#clip682)" style="stroke:#000000; stroke-linecap:round; stroke-linejoin:round; stroke-width:2; stroke-opacity:0.1; fill:none" points="164.857,876.163 1752.76,876.163 "/>
<polyline clip-path="url(#clip682)" style="stroke:#000000; stroke-linecap:round; stroke-linejoin:round; stroke-width:2; stroke-opacity:0.1; fill:none" points="164.857,612.495 1752.76,612.495 "/>
<polyline clip-path="url(#clip682)" style="stroke:#000000; stroke-linecap:round; stroke-linejoin:round; stroke-width:2; stroke-opacity:0.1; fill:none" points="164.857,348.827 1752.76,348.827 "/>
<polyline clip-path="url(#clip680)" style="stroke:#000000; stroke-linecap:round; stroke-linejoin:round; stroke-width:4; stroke-opacity:1; fill:none" points="164.857,1667.17 1752.76,1667.17 "/>
<polyline clip-path="url(#clip680)" style="stroke:#000000; stroke-linecap:round; stroke-linejoin:round; stroke-width:4; stroke-opacity:1; fill:none" points="353.139,1667.17 353.139,1648.27 "/>
<polyline clip-path="url(#clip680)" style="stroke:#000000; stroke-linecap:round; stroke-linejoin:round; stroke-width:4; stroke-opacity:1; fill:none" points="689.621,1667.17 689.621,1648.27 "/>
<polyline clip-path="url(#clip680)" style="stroke:#000000; stroke-linecap:round; stroke-linejoin:round; stroke-width:4; stroke-opacity:1; fill:none" points="1026.1,1667.17 1026.1,1648.27 "/>
<polyline clip-path="url(#clip680)" style="stroke:#000000; stroke-linecap:round; stroke-linejoin:round; stroke-width:4; stroke-opacity:1; fill:none" points="1362.58,1667.17 1362.58,1648.27 "/>
<polyline clip-path="url(#clip680)" style="stroke:#000000; stroke-linecap:round; stroke-linejoin:round; stroke-width:4; stroke-opacity:1; fill:none" points="1699.07,1667.17 1699.07,1648.27 "/>
<path clip-path="url(#clip680)" d="M331.322 1693.29 Q327.711 1693.29 325.882 1696.85 Q324.077 1700.39 324.077 1707.52 Q324.077 1714.63 325.882 1718.19 Q327.711 1721.74 331.322 1721.74 Q334.956 1721.74 336.762 1718.19 Q338.591 1714.63 338.591 1707.52 Q338.591 1700.39 336.762 1696.85 Q334.956 1693.29 331.322 1693.29 M331.322 1689.58 Q337.132 1689.58 340.188 1694.19 Q343.267 1698.77 343.267 1707.52 Q343.267 1716.25 340.188 1720.86 Q337.132 1725.44 331.322 1725.44 Q325.512 1725.44 322.433 1720.86 Q319.378 1716.25 319.378 1707.52 Q319.378 1698.77 322.433 1694.19 Q325.512 1689.58 331.322 1689.58 Z" fill="#000000" fill-rule="nonzero" fill-opacity="1" /><path clip-path="url(#clip680)" d="M351.484 1718.89 L356.368 1718.89 L356.368 1724.77 L351.484 1724.77 L351.484 1718.89 Z" fill="#000000" fill-rule="nonzero" fill-opacity="1" /><path clip-path="url(#clip680)" d="M370.581 1720.83 L386.901 1720.83 L386.901 1724.77 L364.956 1724.77 L364.956 1720.83 Q367.618 1718.08 372.202 1713.45 Q376.808 1708.8 377.989 1707.45 Q380.234 1704.93 381.114 1703.19 Q382.016 1701.43 382.016 1699.74 Q382.016 1696.99 380.072 1695.25 Q378.151 1693.52 375.049 1693.52 Q372.85 1693.52 370.396 1694.28 Q367.966 1695.05 365.188 1696.6 L365.188 1691.87 Q368.012 1690.74 370.466 1690.16 Q372.919 1689.58 374.956 1689.58 Q380.327 1689.58 383.521 1692.27 Q386.715 1694.95 386.715 1699.44 Q386.715 1701.57 385.905 1703.49 Q385.118 1705.39 383.012 1707.99 Q382.433 1708.66 379.331 1711.87 Q376.229 1715.07 370.581 1720.83 Z" fill="#000000" fill-rule="nonzero" fill-opacity="1" /><path clip-path="url(#clip680)" d="M666.762 1693.29 Q663.151 1693.29 661.323 1696.85 Q659.517 1700.39 659.517 1707.52 Q659.517 1714.63 661.323 1718.19 Q663.151 1721.74 666.762 1721.74 Q670.397 1721.74 672.202 1718.19 Q674.031 1714.63 674.031 1707.52 Q674.031 1700.39 672.202 1696.85 Q670.397 1693.29 666.762 1693.29 M666.762 1689.58 Q672.573 1689.58 675.628 1694.19 Q678.707 1698.77 678.707 1707.52 Q678.707 1716.25 675.628 1720.86 Q672.573 1725.44 666.762 1725.44 Q660.952 1725.44 657.874 1720.86 Q654.818 1716.25 654.818 1707.52 Q654.818 1698.77 657.874 1694.19 Q660.952 1689.58 666.762 1689.58 Z" fill="#000000" fill-rule="nonzero" fill-opacity="1" /><path clip-path="url(#clip680)" d="M686.924 1718.89 L691.809 1718.89 L691.809 1724.77 L686.924 1724.77 L686.924 1718.89 Z" fill="#000000" fill-rule="nonzero" fill-opacity="1" /><path clip-path="url(#clip680)" d="M714.841 1694.28 L703.035 1712.73 L714.841 1712.73 L714.841 1694.28 M713.614 1690.21 L719.494 1690.21 L719.494 1712.73 L724.424 1712.73 L724.424 1716.62 L719.494 1716.62 L719.494 1724.77 L714.841 1724.77 L714.841 1716.62 L699.239 1716.62 L699.239 1712.11 L713.614 1690.21 Z" fill="#000000" fill-rule="nonzero" fill-opacity="1" /><path clip-path="url(#clip680)" d="M1003.41 1693.29 Q999.795 1693.29 997.967 1696.85 Q996.161 1700.39 996.161 1707.52 Q996.161 1714.63 997.967 1718.19 Q999.795 1721.74 1003.41 1721.74 Q1007.04 1721.74 1008.85 1718.19 Q1010.67 1714.63 1010.67 1707.52 Q1010.67 1700.39 1008.85 1696.85 Q1007.04 1693.29 1003.41 1693.29 M1003.41 1689.58 Q1009.22 1689.58 1012.27 1694.19 Q1015.35 1698.77 1015.35 1707.52 Q1015.35 1716.25 1012.27 1720.86 Q1009.22 1725.44 1003.41 1725.44 Q997.596 1725.44 994.518 1720.86 Q991.462 1716.25 991.462 1707.52 Q991.462 1698.77 994.518 1694.19 Q997.596 1689.58 1003.41 1689.58 Z" fill="#000000" fill-rule="nonzero" fill-opacity="1" /><path clip-path="url(#clip680)" d="M1023.57 1718.89 L1028.45 1718.89 L1028.45 1724.77 L1023.57 1724.77 L1023.57 1718.89 Z" fill="#000000" fill-rule="nonzero" fill-opacity="1" /><path clip-path="url(#clip680)" d="M1049.22 1705.62 Q1046.07 1705.62 1044.22 1707.78 Q1042.39 1709.93 1042.39 1713.68 Q1042.39 1717.41 1044.22 1719.58 Q1046.07 1721.74 1049.22 1721.74 Q1052.36 1721.74 1054.19 1719.58 Q1056.05 1717.41 1056.05 1713.68 Q1056.05 1709.93 1054.19 1707.78 Q1052.36 1705.62 1049.22 1705.62 M1058.5 1690.97 L1058.5 1695.23 Q1056.74 1694.4 1054.93 1693.96 Q1053.15 1693.52 1051.39 1693.52 Q1046.76 1693.52 1044.31 1696.64 Q1041.88 1699.77 1041.53 1706.09 Q1042.9 1704.07 1044.96 1703.01 Q1047.02 1701.92 1049.49 1701.92 Q1054.7 1701.92 1057.71 1705.09 Q1060.74 1708.24 1060.74 1713.68 Q1060.74 1719 1057.6 1722.22 Q1054.45 1725.44 1049.22 1725.44 Q1043.22 1725.44 1040.05 1720.86 Q1036.88 1716.25 1036.88 1707.52 Q1036.88 1699.33 1040.77 1694.47 Q1044.66 1689.58 1051.21 1689.58 Q1052.97 1689.58 1054.75 1689.93 Q1056.55 1690.28 1058.5 1690.97 Z" fill="#000000" fill-rule="nonzero" fill-opacity="1" /><path clip-path="url(#clip680)" d="M1340.02 1693.29 Q1336.4 1693.29 1334.58 1696.85 Q1332.77 1700.39 1332.77 1707.52 Q1332.77 1714.63 1334.58 1718.19 Q1336.4 1721.74 1340.02 1721.74 Q1343.65 1721.74 1345.46 1718.19 Q1347.28 1714.63 1347.28 1707.52 Q1347.28 1700.39 1345.46 1696.85 Q1343.65 1693.29 1340.02 1693.29 M1340.02 1689.58 Q1345.83 1689.58 1348.88 1694.19 Q1351.96 1698.77 1351.96 1707.52 Q1351.96 1716.25 1348.88 1720.86 Q1345.83 1725.44 1340.02 1725.44 Q1334.21 1725.44 1331.13 1720.86 Q1328.07 1716.25 1328.07 1707.52 Q1328.07 1698.77 1331.13 1694.19 Q1334.21 1689.58 1340.02 1689.58 Z" fill="#000000" fill-rule="nonzero" fill-opacity="1" /><path clip-path="url(#clip680)" d="M1360.18 1718.89 L1365.06 1718.89 L1365.06 1724.77 L1360.18 1724.77 L1360.18 1718.89 Z" fill="#000000" fill-rule="nonzero" fill-opacity="1" /><path clip-path="url(#clip680)" d="M1385.25 1708.36 Q1381.91 1708.36 1379.99 1710.14 Q1378.09 1711.92 1378.09 1715.05 Q1378.09 1718.17 1379.99 1719.95 Q1381.91 1721.74 1385.25 1721.74 Q1388.58 1721.74 1390.5 1719.95 Q1392.42 1718.15 1392.42 1715.05 Q1392.42 1711.92 1390.5 1710.14 Q1388.6 1708.36 1385.25 1708.36 M1380.57 1706.37 Q1377.56 1705.62 1375.87 1703.56 Q1374.21 1701.5 1374.21 1698.54 Q1374.21 1694.4 1377.15 1691.99 Q1380.11 1689.58 1385.25 1689.58 Q1390.41 1689.58 1393.35 1691.99 Q1396.29 1694.4 1396.29 1698.54 Q1396.29 1701.5 1394.6 1703.56 Q1392.93 1705.62 1389.95 1706.37 Q1393.33 1707.15 1395.2 1709.44 Q1397.1 1711.74 1397.1 1715.05 Q1397.1 1720.07 1394.02 1722.75 Q1390.96 1725.44 1385.25 1725.44 Q1379.53 1725.44 1376.45 1722.75 Q1373.4 1720.07 1373.4 1715.05 Q1373.4 1711.74 1375.29 1709.44 Q1377.19 1707.15 1380.57 1706.37 M1378.86 1698.98 Q1378.86 1701.67 1380.52 1703.17 Q1382.21 1704.68 1385.25 1704.68 Q1388.26 1704.68 1389.95 1703.17 Q1391.66 1701.67 1391.66 1698.98 Q1391.66 1696.3 1389.95 1694.79 Q1388.26 1693.29 1385.25 1693.29 Q1382.21 1693.29 1380.52 1694.79 Q1378.86 1696.3 1378.86 1698.98 Z" fill="#000000" fill-rule="nonzero" fill-opacity="1" /><path clip-path="url(#clip680)" d="M1666.22 1720.83 L1673.86 1720.83 L1673.86 1694.47 L1665.55 1696.13 L1665.55 1691.87 L1673.81 1690.21 L1678.49 1690.21 L1678.49 1720.83 L1686.13 1720.83 L1686.13 1724.77 L1666.22 1724.77 L1666.22 1720.83 Z" fill="#000000" fill-rule="nonzero" fill-opacity="1" /><path clip-path="url(#clip680)" d="M1695.57 1718.89 L1700.46 1718.89 L1700.46 1724.77 L1695.57 1724.77 L1695.57 1718.89 Z" fill="#000000" fill-rule="nonzero" fill-opacity="1" /><path clip-path="url(#clip680)" d="M1720.64 1693.29 Q1717.03 1693.29 1715.2 1696.85 Q1713.4 1700.39 1713.4 1707.52 Q1713.4 1714.63 1715.2 1718.19 Q1717.03 1721.74 1720.64 1721.74 Q1724.28 1721.74 1726.08 1718.19 Q1727.91 1714.63 1727.91 1707.52 Q1727.91 1700.39 1726.08 1696.85 Q1724.28 1693.29 1720.64 1693.29 M1720.64 1689.58 Q1726.45 1689.58 1729.51 1694.19 Q1732.59 1698.77 1732.59 1707.52 Q1732.59 1716.25 1729.51 1720.86 Q1726.45 1725.44 1720.64 1725.44 Q1714.83 1725.44 1711.75 1720.86 Q1708.7 1716.25 1708.7 1707.52 Q1708.7 1698.77 1711.75 1694.19 Q1714.83 1689.58 1720.64 1689.58 Z" fill="#000000" fill-rule="nonzero" fill-opacity="1" /><polyline clip-path="url(#clip680)" style="stroke:#000000; stroke-linecap:round; stroke-linejoin:round; stroke-width:4; stroke-opacity:1; fill:none" points="164.857,1667.17 164.857,153.712 "/>
<polyline clip-path="url(#clip680)" style="stroke:#000000; stroke-linecap:round; stroke-linejoin:round; stroke-width:4; stroke-opacity:1; fill:none" points="164.857,1667.17 183.755,1667.17 "/>
<polyline clip-path="url(#clip680)" style="stroke:#000000; stroke-linecap:round; stroke-linejoin:round; stroke-width:4; stroke-opacity:1; fill:none" points="164.857,1403.5 183.755,1403.5 "/>
<polyline clip-path="url(#clip680)" style="stroke:#000000; stroke-linecap:round; stroke-linejoin:round; stroke-width:4; stroke-opacity:1; fill:none" points="164.857,1139.83 183.755,1139.83 "/>
<polyline clip-path="url(#clip680)" style="stroke:#000000; stroke-linecap:round; stroke-linejoin:round; stroke-width:4; stroke-opacity:1; fill:none" points="164.857,876.163 183.755,876.163 "/>
<polyline clip-path="url(#clip680)" style="stroke:#000000; stroke-linecap:round; stroke-linejoin:round; stroke-width:4; stroke-opacity:1; fill:none" points="164.857,612.495 183.755,612.495 "/>
<polyline clip-path="url(#clip680)" style="stroke:#000000; stroke-linecap:round; stroke-linejoin:round; stroke-width:4; stroke-opacity:1; fill:none" points="164.857,348.827 183.755,348.827 "/>
<path clip-path="url(#clip680)" d="M125.913 1652.97 Q122.302 1652.97 120.473 1656.53 Q118.668 1660.07 118.668 1667.2 Q118.668 1674.31 120.473 1677.87 Q122.302 1681.42 125.913 1681.42 Q129.547 1681.42 131.353 1677.87 Q133.182 1674.31 133.182 1667.2 Q133.182 1660.07 131.353 1656.53 Q129.547 1652.97 125.913 1652.97 M125.913 1649.26 Q131.723 1649.26 134.779 1653.87 Q137.857 1658.45 137.857 1667.2 Q137.857 1675.93 134.779 1680.54 Q131.723 1685.12 125.913 1685.12 Q120.103 1685.12 117.024 1680.54 Q113.969 1675.93 113.969 1667.2 Q113.969 1658.45 117.024 1653.87 Q120.103 1649.26 125.913 1649.26 Z" fill="#000000" fill-rule="nonzero" fill-opacity="1" /><path clip-path="url(#clip680)" d="M85.7975 1386.22 L104.154 1386.22 L104.154 1390.15 L90.0799 1390.15 L90.0799 1398.63 Q91.0984 1398.28 92.1169 1398.12 Q93.1354 1397.93 94.1539 1397.93 Q99.941 1397.93 103.321 1401.1 Q106.7 1404.28 106.7 1409.69 Q106.7 1415.27 103.228 1418.37 Q99.7558 1421.45 93.4364 1421.45 Q91.2604 1421.45 88.9919 1421.08 Q86.7466 1420.71 84.3392 1419.97 L84.3392 1415.27 Q86.4225 1416.4 88.6447 1416.96 Q90.8669 1417.52 93.3438 1417.52 Q97.3484 1417.52 99.6863 1415.41 Q102.024 1413.3 102.024 1409.69 Q102.024 1406.08 99.6863 1403.97 Q97.3484 1401.87 93.3438 1401.87 Q91.4688 1401.87 89.5938 1402.28 Q87.7419 1402.7 85.7975 1403.58 L85.7975 1386.22 Z" fill="#000000" fill-rule="nonzero" fill-opacity="1" /><path clip-path="url(#clip680)" d="M125.913 1389.3 Q122.302 1389.3 120.473 1392.86 Q118.668 1396.4 118.668 1403.53 Q118.668 1410.64 120.473 1414.21 Q122.302 1417.75 125.913 1417.75 Q129.547 1417.75 131.353 1414.21 Q133.182 1410.64 133.182 1403.53 Q133.182 1396.4 131.353 1392.86 Q129.547 1389.3 125.913 1389.3 M125.913 1385.59 Q131.723 1385.59 134.779 1390.2 Q137.857 1394.78 137.857 1403.53 Q137.857 1412.26 134.779 1416.87 Q131.723 1421.45 125.913 1421.45 Q120.103 1421.45 117.024 1416.87 Q113.969 1412.26 113.969 1403.53 Q113.969 1394.78 117.024 1390.2 Q120.103 1385.59 125.913 1385.59 Z" fill="#000000" fill-rule="nonzero" fill-opacity="1" /><path clip-path="url(#clip680)" d="M56.3995 1153.18 L64.0384 1153.18 L64.0384 1126.81 L55.7282 1128.48 L55.7282 1124.22 L63.9921 1122.55 L68.668 1122.55 L68.668 1153.18 L76.3068 1153.18 L76.3068 1157.11 L56.3995 1157.11 L56.3995 1153.18 Z" fill="#000000" fill-rule="nonzero" fill-opacity="1" /><path clip-path="url(#clip680)" d="M95.7512 1125.63 Q92.1401 1125.63 90.3114 1129.19 Q88.5058 1132.74 88.5058 1139.87 Q88.5058 1146.97 90.3114 1150.54 Q92.1401 1154.08 95.7512 1154.08 Q99.3854 1154.08 101.191 1150.54 Q103.02 1146.97 103.02 1139.87 Q103.02 1132.74 101.191 1129.19 Q99.3854 1125.63 95.7512 1125.63 M95.7512 1121.93 Q101.561 1121.93 104.617 1126.53 Q107.696 1131.12 107.696 1139.87 Q107.696 1148.59 104.617 1153.2 Q101.561 1157.78 95.7512 1157.78 Q89.941 1157.78 86.8623 1153.2 Q83.8068 1148.59 83.8068 1139.87 Q83.8068 1131.12 86.8623 1126.53 Q89.941 1121.93 95.7512 1121.93 Z" fill="#000000" fill-rule="nonzero" fill-opacity="1" /><path clip-path="url(#clip680)" d="M125.913 1125.63 Q122.302 1125.63 120.473 1129.19 Q118.668 1132.74 118.668 1139.87 Q118.668 1146.97 120.473 1150.54 Q122.302 1154.08 125.913 1154.08 Q129.547 1154.08 131.353 1150.54 Q133.182 1146.97 133.182 1139.87 Q133.182 1132.74 131.353 1129.19 Q129.547 1125.63 125.913 1125.63 M125.913 1121.93 Q131.723 1121.93 134.779 1126.53 Q137.857 1131.12 137.857 1139.87 Q137.857 1148.59 134.779 1153.2 Q131.723 1157.78 125.913 1157.78 Q120.103 1157.78 117.024 1153.2 Q113.969 1148.59 113.969 1139.87 Q113.969 1131.12 117.024 1126.53 Q120.103 1121.93 125.913 1121.93 Z" fill="#000000" fill-rule="nonzero" fill-opacity="1" /><path clip-path="url(#clip680)" d="M56.3995 889.508 L64.0384 889.508 L64.0384 863.142 L55.7282 864.809 L55.7282 860.55 L63.9921 858.883 L68.668 858.883 L68.668 889.508 L76.3068 889.508 L76.3068 893.443 L56.3995 893.443 L56.3995 889.508 Z" fill="#000000" fill-rule="nonzero" fill-opacity="1" /><path clip-path="url(#clip680)" d="M85.7975 858.883 L104.154 858.883 L104.154 862.818 L90.0799 862.818 L90.0799 871.29 Q91.0984 870.943 92.1169 870.781 Q93.1354 870.596 94.1539 870.596 Q99.941 870.596 103.321 873.767 Q106.7 876.939 106.7 882.355 Q106.7 887.934 103.228 891.036 Q99.7558 894.114 93.4364 894.114 Q91.2604 894.114 88.9919 893.744 Q86.7466 893.374 84.3392 892.633 L84.3392 887.934 Q86.4225 889.068 88.6447 889.624 Q90.8669 890.179 93.3438 890.179 Q97.3484 890.179 99.6863 888.073 Q102.024 885.966 102.024 882.355 Q102.024 878.744 99.6863 876.638 Q97.3484 874.531 93.3438 874.531 Q91.4688 874.531 89.5938 874.948 Q87.7419 875.365 85.7975 876.244 L85.7975 858.883 Z" fill="#000000" fill-rule="nonzero" fill-opacity="1" /><path clip-path="url(#clip680)" d="M125.913 861.962 Q122.302 861.962 120.473 865.527 Q118.668 869.068 118.668 876.198 Q118.668 883.304 120.473 886.869 Q122.302 890.411 125.913 890.411 Q129.547 890.411 131.353 886.869 Q133.182 883.304 133.182 876.198 Q133.182 869.068 131.353 865.527 Q129.547 861.962 125.913 861.962 M125.913 858.258 Q131.723 858.258 134.779 862.865 Q137.857 867.448 137.857 876.198 Q137.857 884.925 134.779 889.531 Q131.723 894.114 125.913 894.114 Q120.103 894.114 117.024 889.531 Q113.969 884.925 113.969 876.198 Q113.969 867.448 117.024 862.865 Q120.103 858.258 125.913 858.258 Z" fill="#000000" fill-rule="nonzero" fill-opacity="1" /><path clip-path="url(#clip680)" d="M59.6171 625.84 L75.9365 625.84 L75.9365 629.775 L53.9921 629.775 L53.9921 625.84 Q56.6541 623.085 61.2375 618.455 Q65.8439 613.803 67.0245 612.46 Q69.2698 609.937 70.1494 608.201 Q71.0522 606.442 71.0522 604.752 Q71.0522 601.997 69.1078 600.261 Q67.1865 598.525 64.0847 598.525 Q61.8856 598.525 59.4319 599.289 Q57.0014 600.053 54.2236 601.604 L54.2236 596.882 Q57.0477 595.747 59.5014 595.169 Q61.955 594.59 63.9921 594.59 Q69.3624 594.59 72.5568 597.275 Q75.7513 599.96 75.7513 604.451 Q75.7513 606.581 74.9411 608.502 Q74.1541 610.4 72.0476 612.993 Q71.4689 613.664 68.367 616.881 Q65.2652 620.076 59.6171 625.84 Z" fill="#000000" fill-rule="nonzero" fill-opacity="1" /><path clip-path="url(#clip680)" d="M95.7512 598.294 Q92.1401 598.294 90.3114 601.858 Q88.5058 605.4 88.5058 612.53 Q88.5058 619.636 90.3114 623.201 Q92.1401 626.742 95.7512 626.742 Q99.3854 626.742 101.191 623.201 Q103.02 619.636 103.02 612.53 Q103.02 605.4 101.191 601.858 Q99.3854 598.294 95.7512 598.294 M95.7512 594.59 Q101.561 594.59 104.617 599.196 Q107.696 603.78 107.696 612.53 Q107.696 621.256 104.617 625.863 Q101.561 630.446 95.7512 630.446 Q89.941 630.446 86.8623 625.863 Q83.8068 621.256 83.8068 612.53 Q83.8068 603.78 86.8623 599.196 Q89.941 594.59 95.7512 594.59 Z" fill="#000000" fill-rule="nonzero" fill-opacity="1" /><path clip-path="url(#clip680)" d="M125.913 598.294 Q122.302 598.294 120.473 601.858 Q118.668 605.4 118.668 612.53 Q118.668 619.636 120.473 623.201 Q122.302 626.742 125.913 626.742 Q129.547 626.742 131.353 623.201 Q133.182 619.636 133.182 612.53 Q133.182 605.4 131.353 601.858 Q129.547 598.294 125.913 598.294 M125.913 594.59 Q131.723 594.59 134.779 599.196 Q137.857 603.78 137.857 612.53 Q137.857 621.256 134.779 625.863 Q131.723 630.446 125.913 630.446 Q120.103 630.446 117.024 625.863 Q113.969 621.256 113.969 612.53 Q113.969 603.78 117.024 599.196 Q120.103 594.59 125.913 594.59 Z" fill="#000000" fill-rule="nonzero" fill-opacity="1" /><path clip-path="url(#clip680)" d="M59.6171 362.171 L75.9365 362.171 L75.9365 366.107 L53.9921 366.107 L53.9921 362.171 Q56.6541 359.417 61.2375 354.787 Q65.8439 350.134 67.0245 348.792 Q69.2698 346.269 70.1494 344.533 Q71.0522 342.773 71.0522 341.084 Q71.0522 338.329 69.1078 336.593 Q67.1865 334.857 64.0847 334.857 Q61.8856 334.857 59.4319 335.621 Q57.0014 336.385 54.2236 337.935 L54.2236 333.213 Q57.0477 332.079 59.5014 331.5 Q61.955 330.922 63.9921 330.922 Q69.3624 330.922 72.5568 333.607 Q75.7513 336.292 75.7513 340.783 Q75.7513 342.912 74.9411 344.834 Q74.1541 346.732 72.0476 349.324 Q71.4689 349.996 68.367 353.213 Q65.2652 356.408 59.6171 362.171 Z" fill="#000000" fill-rule="nonzero" fill-opacity="1" /><path clip-path="url(#clip680)" d="M85.7975 331.547 L104.154 331.547 L104.154 335.482 L90.0799 335.482 L90.0799 343.954 Q91.0984 343.607 92.1169 343.445 Q93.1354 343.26 94.1539 343.26 Q99.941 343.26 103.321 346.431 Q106.7 349.602 106.7 355.019 Q106.7 360.597 103.228 363.699 Q99.7558 366.778 93.4364 366.778 Q91.2604 366.778 88.9919 366.408 Q86.7466 366.037 84.3392 365.296 L84.3392 360.597 Q86.4225 361.732 88.6447 362.287 Q90.8669 362.843 93.3438 362.843 Q97.3484 362.843 99.6863 360.736 Q102.024 358.63 102.024 355.019 Q102.024 351.408 99.6863 349.301 Q97.3484 347.195 93.3438 347.195 Q91.4688 347.195 89.5938 347.611 Q87.7419 348.028 85.7975 348.908 L85.7975 331.547 Z" fill="#000000" fill-rule="nonzero" fill-opacity="1" /><path clip-path="url(#clip680)" d="M125.913 334.625 Q122.302 334.625 120.473 338.19 Q118.668 341.732 118.668 348.861 Q118.668 355.968 120.473 359.533 Q122.302 363.074 125.913 363.074 Q129.547 363.074 131.353 359.533 Q133.182 355.968 133.182 348.861 Q133.182 341.732 131.353 338.19 Q129.547 334.625 125.913 334.625 M125.913 330.922 Q131.723 330.922 134.779 335.528 Q137.857 340.111 137.857 348.861 Q137.857 357.588 134.779 362.195 Q131.723 366.778 125.913 366.778 Q120.103 366.778 117.024 362.195 Q113.969 357.588 113.969 348.861 Q113.969 340.111 117.024 335.528 Q120.103 330.922 125.913 330.922 Z" fill="#000000" fill-rule="nonzero" fill-opacity="1" /><path clip-path="url(#clip680)" d="M639.008 18.8205 L639.008 41.5461 L649.297 41.5461 Q655.009 41.5461 658.128 38.5889 Q661.247 35.6318 661.247 30.163 Q661.247 24.7348 658.128 21.7777 Q655.009 18.8205 649.297 18.8205 L639.008 18.8205 M630.825 12.096 L649.297 12.096 Q659.465 12.096 664.65 16.714 Q669.876 21.2916 669.876 30.163 Q669.876 39.1155 664.65 43.6931 Q659.465 48.2706 649.297 48.2706 L639.008 48.2706 L639.008 72.576 L630.825 72.576 L630.825 12.096 Z" fill="#000000" fill-rule="nonzero" fill-opacity="1" /><path clip-path="url(#clip680)" d="M705.362 34.1734 Q704.106 33.4443 702.607 33.1202 Q701.149 32.7556 699.367 32.7556 Q693.047 32.7556 689.644 36.8875 Q686.282 40.9789 686.282 48.6757 L686.282 72.576 L678.788 72.576 L678.788 27.2059 L686.282 27.2059 L686.282 34.2544 Q688.632 30.1225 692.399 28.1376 Q696.166 26.1121 701.554 26.1121 Q702.324 26.1121 703.255 26.2337 Q704.187 26.3147 705.321 26.5172 L705.362 34.1734 Z" fill="#000000" fill-rule="nonzero" fill-opacity="1" /><path clip-path="url(#clip680)" d="M713.18 27.2059 L720.634 27.2059 L720.634 72.576 L713.18 72.576 L713.18 27.2059 M713.18 9.54393 L720.634 9.54393 L720.634 18.9825 L713.18 18.9825 L713.18 9.54393 Z" fill="#000000" fill-rule="nonzero" fill-opacity="1" /><path clip-path="url(#clip680)" d="M753.811 32.4315 Q747.815 32.4315 744.332 37.1306 Q740.848 41.7891 740.848 49.9314 Q740.848 58.0738 744.291 62.7728 Q747.775 67.4314 753.811 67.4314 Q759.765 67.4314 763.249 62.7323 Q766.733 58.0333 766.733 49.9314 Q766.733 41.8701 763.249 37.1711 Q759.765 32.4315 753.811 32.4315 M753.811 26.1121 Q763.533 26.1121 769.083 32.4315 Q774.632 38.7509 774.632 49.9314 Q774.632 61.0714 769.083 67.4314 Q763.533 73.7508 753.811 73.7508 Q744.048 73.7508 738.498 67.4314 Q732.989 61.0714 732.989 49.9314 Q732.989 38.7509 738.498 32.4315 Q744.048 26.1121 753.811 26.1121 Z" fill="#000000" fill-rule="nonzero" fill-opacity="1" /><path clip-path="url(#clip680)" d="M813.278 34.1734 Q812.022 33.4443 810.523 33.1202 Q809.065 32.7556 807.283 32.7556 Q800.963 32.7556 797.56 36.8875 Q794.198 40.9789 794.198 48.6757 L794.198 72.576 L786.704 72.576 L786.704 27.2059 L794.198 27.2059 L794.198 34.2544 Q796.548 30.1225 800.315 28.1376 Q804.082 26.1121 809.47 26.1121 Q810.24 26.1121 811.171 26.2337 Q812.103 26.3147 813.237 26.5172 L813.278 34.1734 Z" fill="#000000" fill-rule="nonzero" fill-opacity="1" /><path clip-path="url(#clip680)" d="M865.048 32.4315 Q859.053 32.4315 855.569 37.1306 Q852.086 41.7891 852.086 49.9314 Q852.086 58.0738 855.529 62.7728 Q859.013 67.4314 865.048 67.4314 Q871.003 67.4314 874.487 62.7323 Q877.971 58.0333 877.971 49.9314 Q877.971 41.8701 874.487 37.1711 Q871.003 32.4315 865.048 32.4315 M865.048 26.1121 Q874.771 26.1121 880.32 32.4315 Q885.87 38.7509 885.87 49.9314 Q885.87 61.0714 880.32 67.4314 Q874.771 73.7508 865.048 73.7508 Q855.286 73.7508 849.736 67.4314 Q844.227 61.0714 844.227 49.9314 Q844.227 38.7509 849.736 32.4315 Q855.286 26.1121 865.048 26.1121 Z" fill="#000000" fill-rule="nonzero" fill-opacity="1" /><path clip-path="url(#clip680)" d="M921.194 9.54393 L921.194 15.7418 L914.064 15.7418 Q910.054 15.7418 908.474 17.3622 Q906.935 18.9825 906.935 23.1955 L906.935 27.2059 L919.209 27.2059 L919.209 32.9987 L906.935 32.9987 L906.935 72.576 L899.441 72.576 L899.441 32.9987 L892.311 32.9987 L892.311 27.2059 L899.441 27.2059 L899.441 24.0462 Q899.441 16.471 902.965 13.0277 Q906.489 9.54393 914.145 9.54393 L921.194 9.54393 Z" fill="#000000" fill-rule="nonzero" fill-opacity="1" /><path clip-path="url(#clip680)" d="M982.727 28.5427 L982.727 35.5912 Q979.568 33.9709 976.165 33.1607 Q972.762 32.3505 969.116 32.3505 Q963.566 32.3505 960.771 34.0519 Q958.017 35.7533 958.017 39.156 Q958.017 41.7486 960.002 43.2475 Q961.987 44.7058 967.982 46.0426 L970.534 46.6097 Q978.474 48.3111 981.796 51.4303 Q985.158 54.509 985.158 60.0587 Q985.158 66.3781 980.135 70.0644 Q975.152 73.7508 966.402 73.7508 Q962.756 73.7508 958.786 73.0216 Q954.857 72.3329 950.482 70.9151 L950.482 63.2184 Q954.614 65.3654 958.624 66.4591 Q962.635 67.5124 966.564 67.5124 Q971.83 67.5124 974.666 65.73 Q977.502 63.9071 977.502 60.6258 Q977.502 57.5877 975.436 55.9673 Q973.41 54.3469 966.483 52.8481 L963.891 52.2405 Q956.964 50.7821 953.885 47.7845 Q950.806 44.7463 950.806 39.4801 Q950.806 33.0797 955.343 29.5959 Q959.88 26.1121 968.225 26.1121 Q972.357 26.1121 976.003 26.7198 Q979.649 27.3274 982.727 28.5427 Z" fill="#000000" fill-rule="nonzero" fill-opacity="1" /><path clip-path="url(#clip680)" d="M1017.65 49.7694 Q1008.61 49.7694 1005.13 51.8354 Q1001.64 53.9013 1001.64 58.8839 Q1001.64 62.8538 1004.24 65.2034 Q1006.87 67.5124 1011.37 67.5124 Q1017.57 67.5124 1021.29 63.1374 Q1025.06 58.7219 1025.06 51.4303 L1025.06 49.7694 L1017.65 49.7694 M1032.51 46.6907 L1032.51 72.576 L1025.06 72.576 L1025.06 65.6895 Q1022.51 69.8214 1018.7 71.8063 Q1014.89 73.7508 1009.38 73.7508 Q1002.41 73.7508 998.283 69.8619 Q994.191 65.9325 994.191 59.3701 Q994.191 51.7138 999.295 47.825 Q1004.44 43.9361 1014.61 43.9361 L1025.06 43.9361 L1025.06 43.2069 Q1025.06 38.0623 1021.66 35.2672 Q1018.29 32.4315 1012.18 32.4315 Q1008.29 32.4315 1004.6 33.3632 Q1000.92 34.295 997.513 36.1584 L997.513 29.2718 Q1001.6 27.692 1005.45 26.9223 Q1009.3 26.1121 1012.95 26.1121 Q1022.79 26.1121 1027.65 31.2163 Q1032.51 36.3204 1032.51 46.6907 Z" fill="#000000" fill-rule="nonzero" fill-opacity="1" /><path clip-path="url(#clip680)" d="M1083.19 35.9153 Q1085.98 30.8922 1089.87 28.5022 Q1093.76 26.1121 1099.03 26.1121 Q1106.12 26.1121 1109.97 31.0947 Q1113.81 36.0368 1113.81 45.1919 L1113.81 72.576 L1106.32 72.576 L1106.32 45.4349 Q1106.32 38.913 1104.01 35.7533 Q1101.7 32.5936 1096.96 32.5936 Q1091.17 32.5936 1087.81 36.4419 Q1084.45 40.2903 1084.45 46.9338 L1084.45 72.576 L1076.95 72.576 L1076.95 45.4349 Q1076.95 38.8725 1074.64 35.7533 Q1072.33 32.5936 1067.51 32.5936 Q1061.8 32.5936 1058.44 36.4824 Q1055.08 40.3308 1055.08 46.9338 L1055.08 72.576 L1047.58 72.576 L1047.58 27.2059 L1055.08 27.2059 L1055.08 34.2544 Q1057.63 30.082 1061.19 28.0971 Q1064.76 26.1121 1069.66 26.1121 Q1074.6 26.1121 1078.05 28.6237 Q1081.53 31.1352 1083.19 35.9153 Z" fill="#000000" fill-rule="nonzero" fill-opacity="1" /><path clip-path="url(#clip680)" d="M1135.89 65.7705 L1135.89 89.8329 L1128.4 89.8329 L1128.4 27.2059 L1135.89 27.2059 L1135.89 34.0924 Q1138.24 30.0415 1141.81 28.0971 Q1145.41 26.1121 1150.39 26.1121 Q1158.66 26.1121 1163.8 32.6746 Q1168.99 39.2371 1168.99 49.9314 Q1168.99 60.6258 1163.8 67.1883 Q1158.66 73.7508 1150.39 73.7508 Q1145.41 73.7508 1141.81 71.8063 Q1138.24 69.8214 1135.89 65.7705 M1161.25 49.9314 Q1161.25 41.7081 1157.85 37.0496 Q1154.49 32.3505 1148.57 32.3505 Q1142.66 32.3505 1139.25 37.0496 Q1135.89 41.7081 1135.89 49.9314 Q1135.89 58.1548 1139.25 62.8538 Q1142.66 67.5124 1148.57 67.5124 Q1154.49 67.5124 1157.85 62.8538 Q1161.25 58.1548 1161.25 49.9314 Z" fill="#000000" fill-rule="nonzero" fill-opacity="1" /><path clip-path="url(#clip680)" d="M1181.34 9.54393 L1188.8 9.54393 L1188.8 72.576 L1181.34 72.576 L1181.34 9.54393 Z" fill="#000000" fill-rule="nonzero" fill-opacity="1" /><path clip-path="url(#clip680)" d="M1243.2 48.0275 L1243.2 51.6733 L1208.93 51.6733 Q1209.42 59.3701 1213.55 63.421 Q1217.72 67.4314 1225.13 67.4314 Q1229.43 67.4314 1233.44 66.3781 Q1237.49 65.3249 1241.46 63.2184 L1241.46 70.267 Q1237.45 71.9684 1233.24 72.8596 Q1229.02 73.7508 1224.69 73.7508 Q1213.83 73.7508 1207.47 67.4314 Q1201.15 61.1119 1201.15 50.3365 Q1201.15 39.1965 1207.15 32.6746 Q1213.18 26.1121 1223.39 26.1121 Q1232.55 26.1121 1237.85 32.0264 Q1243.2 37.9003 1243.2 48.0275 M1235.75 45.84 Q1235.67 39.7232 1232.3 36.0774 Q1228.98 32.4315 1223.47 32.4315 Q1217.23 32.4315 1213.47 35.9558 Q1209.74 39.4801 1209.17 45.8805 L1235.75 45.84 Z" fill="#000000" fill-rule="nonzero" fill-opacity="1" /><path clip-path="url(#clip680)" d="M1284.36 28.5427 L1284.36 35.5912 Q1281.2 33.9709 1277.8 33.1607 Q1274.39 32.3505 1270.75 32.3505 Q1265.2 32.3505 1262.4 34.0519 Q1259.65 35.7533 1259.65 39.156 Q1259.65 41.7486 1261.63 43.2475 Q1263.62 44.7058 1269.61 46.0426 L1272.16 46.6097 Q1280.1 48.3111 1283.43 51.4303 Q1286.79 54.509 1286.79 60.0587 Q1286.79 66.3781 1281.77 70.0644 Q1276.78 73.7508 1268.03 73.7508 Q1264.39 73.7508 1260.42 73.0216 Q1256.49 72.3329 1252.11 70.9151 L1252.11 63.2184 Q1256.24 65.3654 1260.25 66.4591 Q1264.27 67.5124 1268.19 67.5124 Q1273.46 67.5124 1276.3 65.73 Q1279.13 63.9071 1279.13 60.6258 Q1279.13 57.5877 1277.07 55.9673 Q1275.04 54.3469 1268.11 52.8481 L1265.52 52.2405 Q1258.59 50.7821 1255.52 47.7845 Q1252.44 44.7463 1252.44 39.4801 Q1252.44 33.0797 1256.97 29.5959 Q1261.51 26.1121 1269.86 26.1121 Q1273.99 26.1121 1277.63 26.7198 Q1281.28 27.3274 1284.36 28.5427 Z" fill="#000000" fill-rule="nonzero" fill-opacity="1" /><path clip-path="url(#clip682)" d="M252.195 1661.89 L252.195 1667.17 L285.843 1667.17 L285.843 1661.89 L252.195 1661.89 L252.195 1661.89  Z" fill="#009af9" fill-rule="evenodd" fill-opacity="1"/>
<polyline clip-path="url(#clip682)" style="stroke:#000000; stroke-linecap:round; stroke-linejoin:round; stroke-width:8; stroke-opacity:1; fill:none" points="252.195,1661.89 252.195,1667.17 285.843,1667.17 285.843,1661.89 252.195,1661.89 "/>
<path clip-path="url(#clip682)" d="M285.843 1667.17 L285.843 1667.17 L319.491 1667.17 L319.491 1667.17 L285.843 1667.17 L285.843 1667.17  Z" fill="#009af9" fill-rule="evenodd" fill-opacity="1"/>
<polyline clip-path="url(#clip682)" style="stroke:#000000; stroke-linecap:round; stroke-linejoin:round; stroke-width:8; stroke-opacity:1; fill:none" points="285.843,1667.17 285.843,1667.17 319.491,1667.17 285.843,1667.17 "/>
<path clip-path="url(#clip682)" d="M319.491 1646.07 L319.491 1667.17 L353.139 1667.17 L353.139 1646.07 L319.491 1646.07 L319.491 1646.07  Z" fill="#009af9" fill-rule="evenodd" fill-opacity="1"/>
<polyline clip-path="url(#clip682)" style="stroke:#000000; stroke-linecap:round; stroke-linejoin:round; stroke-width:8; stroke-opacity:1; fill:none" points="319.491,1646.07 319.491,1667.17 353.139,1667.17 353.139,1646.07 319.491,1646.07 "/>
<path clip-path="url(#clip682)" d="M353.139 1640.8 L353.139 1667.17 L386.787 1667.17 L386.787 1640.8 L353.139 1640.8 L353.139 1640.8  Z" fill="#009af9" fill-rule="evenodd" fill-opacity="1"/>
<polyline clip-path="url(#clip682)" style="stroke:#000000; stroke-linecap:round; stroke-linejoin:round; stroke-width:8; stroke-opacity:1; fill:none" points="353.139,1640.8 353.139,1667.17 386.787,1667.17 386.787,1640.8 353.139,1640.8 "/>
<path clip-path="url(#clip682)" d="M386.787 1603.89 L386.787 1667.17 L420.436 1667.17 L420.436 1603.89 L386.787 1603.89 L386.787 1603.89  Z" fill="#009af9" fill-rule="evenodd" fill-opacity="1"/>
<polyline clip-path="url(#clip682)" style="stroke:#000000; stroke-linecap:round; stroke-linejoin:round; stroke-width:8; stroke-opacity:1; fill:none" points="386.787,1603.89 386.787,1667.17 420.436,1667.17 420.436,1603.89 386.787,1603.89 "/>
<path clip-path="url(#clip682)" d="M420.436 1624.98 L420.436 1667.17 L454.084 1667.17 L454.084 1624.98 L420.436 1624.98 L420.436 1624.98  Z" fill="#009af9" fill-rule="evenodd" fill-opacity="1"/>
<polyline clip-path="url(#clip682)" style="stroke:#000000; stroke-linecap:round; stroke-linejoin:round; stroke-width:8; stroke-opacity:1; fill:none" points="420.436,1624.98 420.436,1667.17 454.084,1667.17 454.084,1624.98 420.436,1624.98 "/>
<path clip-path="url(#clip682)" d="M454.084 1598.61 L454.084 1667.17 L487.732 1667.17 L487.732 1598.61 L454.084 1598.61 L454.084 1598.61  Z" fill="#009af9" fill-rule="evenodd" fill-opacity="1"/>
<polyline clip-path="url(#clip682)" style="stroke:#000000; stroke-linecap:round; stroke-linejoin:round; stroke-width:8; stroke-opacity:1; fill:none" points="454.084,1598.61 454.084,1667.17 487.732,1667.17 487.732,1598.61 454.084,1598.61 "/>
<path clip-path="url(#clip682)" d="M487.732 1598.61 L487.732 1667.17 L521.38 1667.17 L521.38 1598.61 L487.732 1598.61 L487.732 1598.61  Z" fill="#009af9" fill-rule="evenodd" fill-opacity="1"/>
<polyline clip-path="url(#clip682)" style="stroke:#000000; stroke-linecap:round; stroke-linejoin:round; stroke-width:8; stroke-opacity:1; fill:none" points="487.732,1598.61 487.732,1667.17 521.38,1667.17 521.38,1598.61 487.732,1598.61 "/>
<path clip-path="url(#clip682)" d="M521.38 1588.07 L521.38 1667.17 L555.028 1667.17 L555.028 1588.07 L521.38 1588.07 L521.38 1588.07  Z" fill="#009af9" fill-rule="evenodd" fill-opacity="1"/>
<polyline clip-path="url(#clip682)" style="stroke:#000000; stroke-linecap:round; stroke-linejoin:round; stroke-width:8; stroke-opacity:1; fill:none" points="521.38,1588.07 521.38,1667.17 555.028,1667.17 555.028,1588.07 521.38,1588.07 "/>
<path clip-path="url(#clip682)" d="M555.028 1577.52 L555.028 1667.17 L588.677 1667.17 L588.677 1577.52 L555.028 1577.52 L555.028 1577.52  Z" fill="#009af9" fill-rule="evenodd" fill-opacity="1"/>
<polyline clip-path="url(#clip682)" style="stroke:#000000; stroke-linecap:round; stroke-linejoin:round; stroke-width:8; stroke-opacity:1; fill:none" points="555.028,1577.52 555.028,1667.17 588.677,1667.17 588.677,1577.52 555.028,1577.52 "/>
<path clip-path="url(#clip682)" d="M588.677 1514.24 L588.677 1667.17 L622.325 1667.17 L622.325 1514.24 L588.677 1514.24 L588.677 1514.24  Z" fill="#009af9" fill-rule="evenodd" fill-opacity="1"/>
<polyline clip-path="url(#clip682)" style="stroke:#000000; stroke-linecap:round; stroke-linejoin:round; stroke-width:8; stroke-opacity:1; fill:none" points="588.677,1514.24 588.677,1667.17 622.325,1667.17 622.325,1514.24 588.677,1514.24 "/>
<path clip-path="url(#clip682)" d="M622.325 1461.51 L622.325 1667.17 L655.973 1667.17 L655.973 1461.51 L622.325 1461.51 L622.325 1461.51  Z" fill="#009af9" fill-rule="evenodd" fill-opacity="1"/>
<polyline clip-path="url(#clip682)" style="stroke:#000000; stroke-linecap:round; stroke-linejoin:round; stroke-width:8; stroke-opacity:1; fill:none" points="622.325,1461.51 622.325,1667.17 655.973,1667.17 655.973,1461.51 622.325,1461.51 "/>
<path clip-path="url(#clip682)" d="M655.973 1435.14 L655.973 1667.17 L689.621 1667.17 L689.621 1435.14 L655.973 1435.14 L655.973 1435.14  Z" fill="#009af9" fill-rule="evenodd" fill-opacity="1"/>
<polyline clip-path="url(#clip682)" style="stroke:#000000; stroke-linecap:round; stroke-linejoin:round; stroke-width:8; stroke-opacity:1; fill:none" points="655.973,1435.14 655.973,1667.17 689.621,1667.17 689.621,1435.14 655.973,1435.14 "/>
<path clip-path="url(#clip682)" d="M689.621 1408.77 L689.621 1667.17 L723.269 1667.17 L723.269 1408.77 L689.621 1408.77 L689.621 1408.77  Z" fill="#009af9" fill-rule="evenodd" fill-opacity="1"/>
<polyline clip-path="url(#clip682)" style="stroke:#000000; stroke-linecap:round; stroke-linejoin:round; stroke-width:8; stroke-opacity:1; fill:none" points="689.621,1408.77 689.621,1667.17 723.269,1667.17 723.269,1408.77 689.621,1408.77 "/>
<path clip-path="url(#clip682)" d="M723.269 1350.77 L723.269 1667.17 L756.918 1667.17 L756.918 1350.77 L723.269 1350.77 L723.269 1350.77  Z" fill="#009af9" fill-rule="evenodd" fill-opacity="1"/>
<polyline clip-path="url(#clip682)" style="stroke:#000000; stroke-linecap:round; stroke-linejoin:round; stroke-width:8; stroke-opacity:1; fill:none" points="723.269,1350.77 723.269,1667.17 756.918,1667.17 756.918,1350.77 723.269,1350.77 "/>
<path clip-path="url(#clip682)" d="M756.918 1313.85 L756.918 1667.17 L790.566 1667.17 L790.566 1313.85 L756.918 1313.85 L756.918 1313.85  Z" fill="#009af9" fill-rule="evenodd" fill-opacity="1"/>
<polyline clip-path="url(#clip682)" style="stroke:#000000; stroke-linecap:round; stroke-linejoin:round; stroke-width:8; stroke-opacity:1; fill:none" points="756.918,1313.85 756.918,1667.17 790.566,1667.17 790.566,1313.85 756.918,1313.85 "/>
<path clip-path="url(#clip682)" d="M790.566 1234.75 L790.566 1667.17 L824.214 1667.17 L824.214 1234.75 L790.566 1234.75 L790.566 1234.75  Z" fill="#009af9" fill-rule="evenodd" fill-opacity="1"/>
<polyline clip-path="url(#clip682)" style="stroke:#000000; stroke-linecap:round; stroke-linejoin:round; stroke-width:8; stroke-opacity:1; fill:none" points="790.566,1234.75 790.566,1667.17 824.214,1667.17 824.214,1234.75 790.566,1234.75 "/>
<path clip-path="url(#clip682)" d="M824.214 1134.56 L824.214 1667.17 L857.862 1667.17 L857.862 1134.56 L824.214 1134.56 L824.214 1134.56  Z" fill="#009af9" fill-rule="evenodd" fill-opacity="1"/>
<polyline clip-path="url(#clip682)" style="stroke:#000000; stroke-linecap:round; stroke-linejoin:round; stroke-width:8; stroke-opacity:1; fill:none" points="824.214,1134.56 824.214,1667.17 857.862,1667.17 857.862,1134.56 824.214,1134.56 "/>
<path clip-path="url(#clip682)" d="M857.862 1087.1 L857.862 1667.17 L891.51 1667.17 L891.51 1087.1 L857.862 1087.1 L857.862 1087.1  Z" fill="#009af9" fill-rule="evenodd" fill-opacity="1"/>
<polyline clip-path="url(#clip682)" style="stroke:#000000; stroke-linecap:round; stroke-linejoin:round; stroke-width:8; stroke-opacity:1; fill:none" points="857.862,1087.1 857.862,1667.17 891.51,1667.17 891.51,1087.1 857.862,1087.1 "/>
<path clip-path="url(#clip682)" d="M891.51 1008 L891.51 1667.17 L925.158 1667.17 L925.158 1008 L891.51 1008 L891.51 1008  Z" fill="#009af9" fill-rule="evenodd" fill-opacity="1"/>
<polyline clip-path="url(#clip682)" style="stroke:#000000; stroke-linecap:round; stroke-linejoin:round; stroke-width:8; stroke-opacity:1; fill:none" points="891.51,1008 891.51,1667.17 925.158,1667.17 925.158,1008 891.51,1008 "/>
<path clip-path="url(#clip682)" d="M925.158 928.897 L925.158 1667.17 L958.807 1667.17 L958.807 928.897 L925.158 928.897 L925.158 928.897  Z" fill="#009af9" fill-rule="evenodd" fill-opacity="1"/>
<polyline clip-path="url(#clip682)" style="stroke:#000000; stroke-linecap:round; stroke-linejoin:round; stroke-width:8; stroke-opacity:1; fill:none" points="925.158,928.897 925.158,1667.17 958.807,1667.17 958.807,928.897 925.158,928.897 "/>
<path clip-path="url(#clip682)" d="M958.807 881.436 L958.807 1667.17 L992.455 1667.17 L992.455 881.436 L958.807 881.436 L958.807 881.436  Z" fill="#009af9" fill-rule="evenodd" fill-opacity="1"/>
<polyline clip-path="url(#clip682)" style="stroke:#000000; stroke-linecap:round; stroke-linejoin:round; stroke-width:8; stroke-opacity:1; fill:none" points="958.807,881.436 958.807,1667.17 992.455,1667.17 992.455,881.436 958.807,881.436 "/>
<path clip-path="url(#clip682)" d="M992.455 870.89 L992.455 1667.17 L1026.1 1667.17 L1026.1 870.89 L992.455 870.89 L992.455 870.89  Z" fill="#009af9" fill-rule="evenodd" fill-opacity="1"/>
<polyline clip-path="url(#clip682)" style="stroke:#000000; stroke-linecap:round; stroke-linejoin:round; stroke-width:8; stroke-opacity:1; fill:none" points="992.455,870.89 992.455,1667.17 1026.1,1667.17 1026.1,870.89 992.455,870.89 "/>
<path clip-path="url(#clip682)" d="M1026.1 849.796 L1026.1 1667.17 L1059.75 1667.17 L1059.75 849.796 L1026.1 849.796 L1026.1 849.796  Z" fill="#009af9" fill-rule="evenodd" fill-opacity="1"/>
<polyline clip-path="url(#clip682)" style="stroke:#000000; stroke-linecap:round; stroke-linejoin:round; stroke-width:8; stroke-opacity:1; fill:none" points="1026.1,849.796 1026.1,1667.17 1059.75,1667.17 1059.75,849.796 1026.1,849.796 "/>
<path clip-path="url(#clip682)" d="M1059.75 760.149 L1059.75 1667.17 L1093.4 1667.17 L1093.4 760.149 L1059.75 760.149 L1059.75 760.149  Z" fill="#009af9" fill-rule="evenodd" fill-opacity="1"/>
<polyline clip-path="url(#clip682)" style="stroke:#000000; stroke-linecap:round; stroke-linejoin:round; stroke-width:8; stroke-opacity:1; fill:none" points="1059.75,760.149 1059.75,1667.17 1093.4,1667.17 1093.4,760.149 1059.75,760.149 "/>
<path clip-path="url(#clip682)" d="M1093.4 575.581 L1093.4 1667.17 L1127.05 1667.17 L1127.05 575.581 L1093.4 575.581 L1093.4 575.581  Z" fill="#009af9" fill-rule="evenodd" fill-opacity="1"/>
<polyline clip-path="url(#clip682)" style="stroke:#000000; stroke-linecap:round; stroke-linejoin:round; stroke-width:8; stroke-opacity:1; fill:none" points="1093.4,575.581 1093.4,1667.17 1127.05,1667.17 1127.05,575.581 1093.4,575.581 "/>
<path clip-path="url(#clip682)" d="M1127.05 491.207 L1127.05 1667.17 L1160.7 1667.17 L1160.7 491.207 L1127.05 491.207 L1127.05 491.207  Z" fill="#009af9" fill-rule="evenodd" fill-opacity="1"/>
<polyline clip-path="url(#clip682)" style="stroke:#000000; stroke-linecap:round; stroke-linejoin:round; stroke-width:8; stroke-opacity:1; fill:none" points="1127.05,491.207 1127.05,1667.17 1160.7,1667.17 1160.7,491.207 1127.05,491.207 "/>
<path clip-path="url(#clip682)" d="M1160.7 507.028 L1160.7 1667.17 L1194.34 1667.17 L1194.34 507.028 L1160.7 507.028 L1160.7 507.028  Z" fill="#009af9" fill-rule="evenodd" fill-opacity="1"/>
<polyline clip-path="url(#clip682)" style="stroke:#000000; stroke-linecap:round; stroke-linejoin:round; stroke-width:8; stroke-opacity:1; fill:none" points="1160.7,507.028 1160.7,1667.17 1194.34,1667.17 1194.34,507.028 1160.7,507.028 "/>
<path clip-path="url(#clip682)" d="M1194.34 232.813 L1194.34 1667.17 L1227.99 1667.17 L1227.99 232.813 L1194.34 232.813 L1194.34 232.813  Z" fill="#009af9" fill-rule="evenodd" fill-opacity="1"/>
<polyline clip-path="url(#clip682)" style="stroke:#000000; stroke-linecap:round; stroke-linejoin:round; stroke-width:8; stroke-opacity:1; fill:none" points="1194.34,232.813 1194.34,1667.17 1227.99,1667.17 1227.99,232.813 1194.34,232.813 "/>
<path clip-path="url(#clip682)" d="M1227.99 433.2 L1227.99 1667.17 L1261.64 1667.17 L1261.64 433.2 L1227.99 433.2 L1227.99 433.2  Z" fill="#009af9" fill-rule="evenodd" fill-opacity="1"/>
<polyline clip-path="url(#clip682)" style="stroke:#000000; stroke-linecap:round; stroke-linejoin:round; stroke-width:8; stroke-opacity:1; fill:none" points="1227.99,433.2 1227.99,1667.17 1261.64,1667.17 1261.64,433.2 1227.99,433.2 "/>
<path clip-path="url(#clip682)" d="M1261.64 259.179 L1261.64 1667.17 L1295.29 1667.17 L1295.29 259.179 L1261.64 259.179 L1261.64 259.179  Z" fill="#009af9" fill-rule="evenodd" fill-opacity="1"/>
<polyline clip-path="url(#clip682)" style="stroke:#000000; stroke-linecap:round; stroke-linejoin:round; stroke-width:8; stroke-opacity:1; fill:none" points="1261.64,259.179 1261.64,1667.17 1295.29,1667.17 1295.29,259.179 1261.64,259.179 "/>
<path clip-path="url(#clip682)" d="M1295.29 275 L1295.29 1667.17 L1328.94 1667.17 L1328.94 275 L1295.29 275 L1295.29 275  Z" fill="#009af9" fill-rule="evenodd" fill-opacity="1"/>
<polyline clip-path="url(#clip682)" style="stroke:#000000; stroke-linecap:round; stroke-linejoin:round; stroke-width:8; stroke-opacity:1; fill:none" points="1295.29,275 1295.29,1667.17 1328.94,1667.17 1328.94,275 1295.29,275 "/>
<path clip-path="url(#clip682)" d="M1328.94 153.712 L1328.94 1667.17 L1362.58 1667.17 L1362.58 153.712 L1328.94 153.712 L1328.94 153.712  Z" fill="#009af9" fill-rule="evenodd" fill-opacity="1"/>
<polyline clip-path="url(#clip682)" style="stroke:#000000; stroke-linecap:round; stroke-linejoin:round; stroke-width:8; stroke-opacity:1; fill:none" points="1328.94,153.712 1328.94,1667.17 1362.58,1667.17 1362.58,153.712 1328.94,153.712 "/>
<path clip-path="url(#clip682)" d="M1362.58 216.993 L1362.58 1667.17 L1396.23 1667.17 L1396.23 216.993 L1362.58 216.993 L1362.58 216.993  Z" fill="#009af9" fill-rule="evenodd" fill-opacity="1"/>
<polyline clip-path="url(#clip682)" style="stroke:#000000; stroke-linecap:round; stroke-linejoin:round; stroke-width:8; stroke-opacity:1; fill:none" points="1362.58,216.993 1362.58,1667.17 1396.23,1667.17 1396.23,216.993 1362.58,216.993 "/>
<path clip-path="url(#clip682)" d="M1396.23 375.193 L1396.23 1667.17 L1429.88 1667.17 L1429.88 375.193 L1396.23 375.193 L1396.23 375.193  Z" fill="#009af9" fill-rule="evenodd" fill-opacity="1"/>
<polyline clip-path="url(#clip682)" style="stroke:#000000; stroke-linecap:round; stroke-linejoin:round; stroke-width:8; stroke-opacity:1; fill:none" points="1396.23,375.193 1396.23,1667.17 1429.88,1667.17 1429.88,375.193 1396.23,375.193 "/>
<path clip-path="url(#clip682)" d="M1429.88 359.373 L1429.88 1667.17 L1463.53 1667.17 L1463.53 359.373 L1429.88 359.373 L1429.88 359.373  Z" fill="#009af9" fill-rule="evenodd" fill-opacity="1"/>
<polyline clip-path="url(#clip682)" style="stroke:#000000; stroke-linecap:round; stroke-linejoin:round; stroke-width:8; stroke-opacity:1; fill:none" points="1429.88,359.373 1429.88,1667.17 1463.53,1667.17 1463.53,359.373 1429.88,359.373 "/>
<path clip-path="url(#clip682)" d="M1463.53 533.394 L1463.53 1667.17 L1497.18 1667.17 L1497.18 533.394 L1463.53 533.394 L1463.53 533.394  Z" fill="#009af9" fill-rule="evenodd" fill-opacity="1"/>
<polyline clip-path="url(#clip682)" style="stroke:#000000; stroke-linecap:round; stroke-linejoin:round; stroke-width:8; stroke-opacity:1; fill:none" points="1463.53,533.394 1463.53,1667.17 1497.18,1667.17 1497.18,533.394 1463.53,533.394 "/>
<path clip-path="url(#clip682)" d="M1497.18 728.509 L1497.18 1667.17 L1530.83 1667.17 L1530.83 728.509 L1497.18 728.509 L1497.18 728.509  Z" fill="#009af9" fill-rule="evenodd" fill-opacity="1"/>
<polyline clip-path="url(#clip682)" style="stroke:#000000; stroke-linecap:round; stroke-linejoin:round; stroke-width:8; stroke-opacity:1; fill:none" points="1497.18,728.509 1497.18,1667.17 1530.83,1667.17 1530.83,728.509 1497.18,728.509 "/>
<path clip-path="url(#clip682)" d="M1530.83 913.077 L1530.83 1667.17 L1564.47 1667.17 L1564.47 913.077 L1530.83 913.077 L1530.83 913.077  Z" fill="#009af9" fill-rule="evenodd" fill-opacity="1"/>
<polyline clip-path="url(#clip682)" style="stroke:#000000; stroke-linecap:round; stroke-linejoin:round; stroke-width:8; stroke-opacity:1; fill:none" points="1530.83,913.077 1530.83,1667.17 1564.47,1667.17 1564.47,913.077 1530.83,913.077 "/>
<path clip-path="url(#clip682)" d="M1564.47 1176.74 L1564.47 1667.17 L1598.12 1667.17 L1598.12 1176.74 L1564.47 1176.74 L1564.47 1176.74  Z" fill="#009af9" fill-rule="evenodd" fill-opacity="1"/>
<polyline clip-path="url(#clip682)" style="stroke:#000000; stroke-linecap:round; stroke-linejoin:round; stroke-width:8; stroke-opacity:1; fill:none" points="1564.47,1176.74 1564.47,1667.17 1598.12,1667.17 1598.12,1176.74 1564.47,1176.74 "/>
<path clip-path="url(#clip682)" d="M1598.12 1392.95 L1598.12 1667.17 L1631.77 1667.17 L1631.77 1392.95 L1598.12 1392.95 L1598.12 1392.95  Z" fill="#009af9" fill-rule="evenodd" fill-opacity="1"/>
<polyline clip-path="url(#clip682)" style="stroke:#000000; stroke-linecap:round; stroke-linejoin:round; stroke-width:8; stroke-opacity:1; fill:none" points="1598.12,1392.95 1598.12,1667.17 1631.77,1667.17 1631.77,1392.95 1598.12,1392.95 "/>
<path clip-path="url(#clip682)" d="M1631.77 1582.79 L1631.77 1667.17 L1665.42 1667.17 L1665.42 1582.79 L1631.77 1582.79 L1631.77 1582.79  Z" fill="#009af9" fill-rule="evenodd" fill-opacity="1"/>
<polyline clip-path="url(#clip682)" style="stroke:#000000; stroke-linecap:round; stroke-linejoin:round; stroke-width:8; stroke-opacity:1; fill:none" points="1631.77,1582.79 1631.77,1667.17 1665.42,1667.17 1665.42,1582.79 1631.77,1582.79 "/>
<circle clip-path="url(#clip682)" style="fill:#009af9; stroke:none; fill-opacity:0" cx="269.019" cy="1661.89" r="2"/>
<circle clip-path="url(#clip682)" style="fill:#009af9; stroke:none; fill-opacity:0" cx="302.667" cy="1667.17" r="2"/>
<circle clip-path="url(#clip682)" style="fill:#009af9; stroke:none; fill-opacity:0" cx="336.315" cy="1646.07" r="2"/>
<circle clip-path="url(#clip682)" style="fill:#009af9; stroke:none; fill-opacity:0" cx="369.963" cy="1640.8" r="2"/>
<circle clip-path="url(#clip682)" style="fill:#009af9; stroke:none; fill-opacity:0" cx="403.612" cy="1603.89" r="2"/>
<circle clip-path="url(#clip682)" style="fill:#009af9; stroke:none; fill-opacity:0" cx="437.26" cy="1624.98" r="2"/>
<circle clip-path="url(#clip682)" style="fill:#009af9; stroke:none; fill-opacity:0" cx="470.908" cy="1598.61" r="2"/>
<circle clip-path="url(#clip682)" style="fill:#009af9; stroke:none; fill-opacity:0" cx="504.556" cy="1598.61" r="2"/>
<circle clip-path="url(#clip682)" style="fill:#009af9; stroke:none; fill-opacity:0" cx="538.204" cy="1588.07" r="2"/>
<circle clip-path="url(#clip682)" style="fill:#009af9; stroke:none; fill-opacity:0" cx="571.852" cy="1577.52" r="2"/>
<circle clip-path="url(#clip682)" style="fill:#009af9; stroke:none; fill-opacity:0" cx="605.501" cy="1514.24" r="2"/>
<circle clip-path="url(#clip682)" style="fill:#009af9; stroke:none; fill-opacity:0" cx="639.149" cy="1461.51" r="2"/>
<circle clip-path="url(#clip682)" style="fill:#009af9; stroke:none; fill-opacity:0" cx="672.797" cy="1435.14" r="2"/>
<circle clip-path="url(#clip682)" style="fill:#009af9; stroke:none; fill-opacity:0" cx="706.445" cy="1408.77" r="2"/>
<circle clip-path="url(#clip682)" style="fill:#009af9; stroke:none; fill-opacity:0" cx="740.093" cy="1350.77" r="2"/>
<circle clip-path="url(#clip682)" style="fill:#009af9; stroke:none; fill-opacity:0" cx="773.742" cy="1313.85" r="2"/>
<circle clip-path="url(#clip682)" style="fill:#009af9; stroke:none; fill-opacity:0" cx="807.39" cy="1234.75" r="2"/>
<circle clip-path="url(#clip682)" style="fill:#009af9; stroke:none; fill-opacity:0" cx="841.038" cy="1134.56" r="2"/>
<circle clip-path="url(#clip682)" style="fill:#009af9; stroke:none; fill-opacity:0" cx="874.686" cy="1087.1" r="2"/>
<circle clip-path="url(#clip682)" style="fill:#009af9; stroke:none; fill-opacity:0" cx="908.334" cy="1008" r="2"/>
<circle clip-path="url(#clip682)" style="fill:#009af9; stroke:none; fill-opacity:0" cx="941.983" cy="928.897" r="2"/>
<circle clip-path="url(#clip682)" style="fill:#009af9; stroke:none; fill-opacity:0" cx="975.631" cy="881.436" r="2"/>
<circle clip-path="url(#clip682)" style="fill:#009af9; stroke:none; fill-opacity:0" cx="1009.28" cy="870.89" r="2"/>
<circle clip-path="url(#clip682)" style="fill:#009af9; stroke:none; fill-opacity:0" cx="1042.93" cy="849.796" r="2"/>
<circle clip-path="url(#clip682)" style="fill:#009af9; stroke:none; fill-opacity:0" cx="1076.58" cy="760.149" r="2"/>
<circle clip-path="url(#clip682)" style="fill:#009af9; stroke:none; fill-opacity:0" cx="1110.22" cy="575.581" r="2"/>
<circle clip-path="url(#clip682)" style="fill:#009af9; stroke:none; fill-opacity:0" cx="1143.87" cy="491.207" r="2"/>
<circle clip-path="url(#clip682)" style="fill:#009af9; stroke:none; fill-opacity:0" cx="1177.52" cy="507.028" r="2"/>
<circle clip-path="url(#clip682)" style="fill:#009af9; stroke:none; fill-opacity:0" cx="1211.17" cy="232.813" r="2"/>
<circle clip-path="url(#clip682)" style="fill:#009af9; stroke:none; fill-opacity:0" cx="1244.82" cy="433.2" r="2"/>
<circle clip-path="url(#clip682)" style="fill:#009af9; stroke:none; fill-opacity:0" cx="1278.46" cy="259.179" r="2"/>
<circle clip-path="url(#clip682)" style="fill:#009af9; stroke:none; fill-opacity:0" cx="1312.11" cy="275" r="2"/>
<circle clip-path="url(#clip682)" style="fill:#009af9; stroke:none; fill-opacity:0" cx="1345.76" cy="153.712" r="2"/>
<circle clip-path="url(#clip682)" style="fill:#009af9; stroke:none; fill-opacity:0" cx="1379.41" cy="216.993" r="2"/>
<circle clip-path="url(#clip682)" style="fill:#009af9; stroke:none; fill-opacity:0" cx="1413.06" cy="375.193" r="2"/>
<circle clip-path="url(#clip682)" style="fill:#009af9; stroke:none; fill-opacity:0" cx="1446.71" cy="359.373" r="2"/>
<circle clip-path="url(#clip682)" style="fill:#009af9; stroke:none; fill-opacity:0" cx="1480.35" cy="533.394" r="2"/>
<circle clip-path="url(#clip682)" style="fill:#009af9; stroke:none; fill-opacity:0" cx="1514" cy="728.509" r="2"/>
<circle clip-path="url(#clip682)" style="fill:#009af9; stroke:none; fill-opacity:0" cx="1547.65" cy="913.077" r="2"/>
<circle clip-path="url(#clip682)" style="fill:#009af9; stroke:none; fill-opacity:0" cx="1581.3" cy="1176.74" r="2"/>
<circle clip-path="url(#clip682)" style="fill:#009af9; stroke:none; fill-opacity:0" cx="1614.95" cy="1392.95" r="2"/>
<circle clip-path="url(#clip682)" style="fill:#009af9; stroke:none; fill-opacity:0" cx="1648.59" cy="1582.79" r="2"/>
<polyline clip-path="url(#clip682)" style="stroke:#e26f46; stroke-linecap:round; stroke-linejoin:round; stroke-width:8; stroke-opacity:1; fill:none" points="1194.34,3180.62 1194.34,-1359.74 "/>
</svg>
